<?xml version="1.0" encoding="UTF-8"?>
<!DOCTYPE svg PUBLIC "-//W3C//DTD SVG 1.1//EN" "http://www.w3.org/Graphics/SVG/1.1/DTD/svg11.dtd">
<svg xmlns="http://www.w3.org/2000/svg" version="1.1" width="100px" height="100px" style="shape-rendering:geometricPrecision; text-rendering:geometricPrecision; image-rendering:optimizeQuality; fill-rule:evenodd; clip-rule:evenodd" xmlns:xlink="http://www.w3.org/1999/xlink">
<g><path style="opacity:0.725" fill="#4cbe84" d="M 78.5,16.5 C 79.9187,15.5489 81.5853,15.2155 83.5,15.5C 83.7373,16.791 83.404,17.791 82.5,18.5C 81.8166,16.8235 80.4832,16.1568 78.5,16.5 Z"/></g>
<g><path style="opacity:1" fill="#3fd889" d="M 78.5,16.5 C 80.4832,16.1568 81.8166,16.8235 82.5,18.5C 82.0679,19.7095 81.4013,20.7095 80.5,21.5C 80.5,20.5 80.5,19.5 80.5,18.5C 79.5,18.5 78.5,18.5 77.5,18.5C 77.8333,17.8333 78.1667,17.1667 78.5,16.5 Z"/></g>
<g><path style="opacity:0.929" fill="#3dd786" d="M 29.5,29.5 C 28.7494,30.5735 27.7494,30.7401 26.5,30C 25.9288,28.7949 25.2621,27.6283 24.5,26.5C 23.6143,27.325 23.281,28.325 23.5,29.5C 19.5659,25.6319 17.2326,20.9652 16.5,15.5C 17.9778,15.238 19.3112,15.5713 20.5,16.5C 23.2346,21.1974 26.2346,25.5307 29.5,29.5 Z"/></g>
<g><path style="opacity:0.993" fill="#35dd84" d="M 77.5,18.5 C 78.5,18.5 79.5,18.5 80.5,18.5C 80.5,19.5 80.5,20.5 80.5,21.5C 78.9031,25.1894 76.9031,28.6894 74.5,32C 87.2434,39.5606 95.5767,50.3939 99.5,64.5C 99.5,66.8333 99.5,69.1667 99.5,71.5C 66.1667,71.5 32.8333,71.5 -0.5,71.5C -0.5,68.8333 -0.5,66.1667 -0.5,63.5C 3.66874,50.4841 11.5021,40.1507 23,32.5C 23.4828,31.552 23.6495,30.552 23.5,29.5C 23.281,28.325 23.6143,27.325 24.5,26.5C 25.2621,27.6283 25.9288,28.7949 26.5,30C 27.7494,30.7401 28.7494,30.5735 29.5,29.5C 42.8029,24.1764 56.1363,24.1764 69.5,29.5C 72.9101,26.3351 75.5768,22.6684 77.5,18.5 Z M 25.5,49.5 C 29.1838,50.372 30.1838,52.5386 28.5,56C 23.1483,56.1754 22.1483,54.0087 25.5,49.5 Z M 70.5,49.5 C 73.245,49.373 75.245,50.5397 76.5,53C 74.6648,56.9176 72.1648,57.4176 69,54.5C 69.1343,52.8107 69.6343,51.144 70.5,49.5 Z"/></g>
</svg>
