<?xml version="1.0" encoding="UTF-8"?>
<!DOCTYPE svg PUBLIC "-//W3C//DTD SVG 1.1//EN" "http://www.w3.org/Graphics/SVG/1.1/DTD/svg11.dtd">
<svg xmlns="http://www.w3.org/2000/svg" version="1.1" width="100px" height="100px" style="shape-rendering:geometricPrecision; text-rendering:geometricPrecision; image-rendering:optimizeQuality; fill-rule:evenodd; clip-rule:evenodd" xmlns:xlink="http://www.w3.org/1999/xlink">
<g><path style="opacity:0.757" fill="#a4bd3e" d="M 30.5,-0.5 C 31.5,-0.5 32.5,-0.5 33.5,-0.5C 34.7729,1.71283 35.7729,4.04616 36.5,6.5C 35.5,6.5 34.5,6.5 33.5,6.5C 31.5516,4.67956 30.5516,2.34623 30.5,-0.5 Z"/></g>
<g><path style="opacity:0.897" fill="#a9c245" d="M 88.5,32.5 C 86.9519,32.8212 86.2852,33.8212 86.5,35.5C 85.0695,35.4208 83.7362,35.7542 82.5,36.5C 81.4822,35.8075 80.4822,35.1408 79.5,34.5C 79.5774,33.2502 80.244,32.4169 81.5,32C 84.0385,31.2042 86.3718,31.3709 88.5,32.5 Z"/></g>
<g><path style="opacity:0.983" fill="#a4c739" d="M 64.5,-0.5 C 65.5,-0.5 66.5,-0.5 67.5,-0.5C 67.1156,2.76926 65.7823,5.60259 63.5,8C 74.2433,14.9853 78.91,24.8187 77.5,37.5C 77.5,46.5 77.5,55.5 77.5,64.5C 77.8674,68.9671 77.3674,73.3004 76,77.5C 73.3583,80.0288 70.1916,81.0288 66.5,80.5C 66.6659,85.5111 66.4993,90.5111 66,95.5C 65.3378,96.9839 64.5045,98.3172 63.5,99.5C 60.5,99.5 57.5,99.5 54.5,99.5C 52.6347,93.3817 51.968,87.0484 52.5,80.5C 50.1667,80.5 47.8333,80.5 45.5,80.5C 45.666,85.8437 45.4994,91.1771 45,96.5C 43.955,97.3734 43.1217,98.3734 42.5,99.5C 39.8333,99.5 37.1667,99.5 34.5,99.5C 33.8783,98.3734 33.045,97.3734 32,96.5C 31.5006,91.1771 31.334,85.8437 31.5,80.5C 27.0907,81.3815 23.5907,80.0482 21,76.5C 20.584,60.0199 20.4173,43.6866 20.5,27.5C 21.6731,19.143 25.8398,12.8096 33,8.5C 33.4643,7.90558 33.631,7.23891 33.5,6.5C 34.5,6.5 35.5,6.5 36.5,6.5C 44.0119,4.01594 51.5119,4.01594 59,6.5C 61.3535,4.63843 63.1868,2.30509 64.5,-0.5 Z M 60.5,17.5 C 63.7973,17.3287 64.1306,17.9954 61.5,19.5C 60.7025,19.0431 60.3691,18.3764 60.5,17.5 Z M 34.5,17.5 C 37.5476,17.494 38.0476,18.494 36,20.5C 34.9614,19.7562 34.4614,18.7562 34.5,17.5 Z"/></g>
<g><path style="opacity:0.926" fill="#a5c63a" d="M 8.5,31.5 C 12.6034,30.7691 16.1034,31.7691 19,34.5C 19.6667,45.5 19.6667,56.5 19,67.5C 15.2685,71.0498 11.2685,71.3831 7,68.5C 6.33333,56.8333 6.33333,45.1667 7,33.5C 7.71719,32.9558 8.21719,32.2891 8.5,31.5 Z"/></g>
<g><path style="opacity:0.996" fill="#a1c339" d="M 88.5,32.5 C 89.7498,32.5774 90.5831,33.244 91,34.5C 91.6667,45.5 91.6667,56.5 91,67.5C 85.1376,72.1671 80.6376,71.1671 77.5,64.5C 77.5,55.5 77.5,46.5 77.5,37.5C 78.1667,36.5 78.8333,35.5 79.5,34.5C 80.4822,35.1408 81.4822,35.8075 82.5,36.5C 83.7362,35.7542 85.0695,35.4208 86.5,35.5C 86.2852,33.8212 86.9519,32.8212 88.5,32.5 Z"/></g>
</svg>
