<?xml version="1.0" encoding="UTF-8"?>
<!DOCTYPE svg PUBLIC "-//W3C//DTD SVG 1.1//EN" "http://www.w3.org/Graphics/SVG/1.1/DTD/svg11.dtd">
<svg xmlns="http://www.w3.org/2000/svg" version="1.1" width="100px" height="100px" style="shape-rendering:geometricPrecision; text-rendering:geometricPrecision; image-rendering:optimizeQuality; fill-rule:evenodd; clip-rule:evenodd" xmlns:xlink="http://www.w3.org/1999/xlink">
<g><path style="opacity:0.997" fill="#c10130" d="M 49.5,-0.5 C 50.1667,-0.5 50.8333,-0.5 51.5,-0.5C 65.5397,5.17283 79.8731,10.3395 94.5,15C 95.428,15.3879 96.0946,16.0546 96.5,17C 93.5214,37.0925 91.0214,57.2592 89,77.5C 76.3307,84.6968 63.8307,92.0301 51.5,99.5C 50.8333,99.5 50.1667,99.5 49.5,99.5C 49.7833,87.2665 49.4499,74.9331 48.5,62.5C 52.5,62.5 56.5,62.5 60.5,62.5C 62.708,66.8453 64.0413,71.512 64.5,76.5C 69.1662,77.6514 73.8329,77.6514 78.5,76.5C 78.9867,75.5539 79.3201,74.5539 79.5,73.5C 78.3192,71.1368 78.3192,68.8034 79.5,66.5C 73.4691,59.9328 69.1358,52.4328 66.5,44C 70.819,40.4652 70.1524,38.6319 64.5,38.5C 62.2444,35.5147 60.911,32.0147 60.5,28C 56.6493,24.8316 54.4826,20.6649 54,15.5C 53.6667,15.8333 53.3333,16.1667 53,16.5C 52.5831,15.244 51.7498,14.5774 50.5,14.5C 50.2914,13.0783 49.7914,11.745 49,10.5C 48.2432,12.3146 47.4098,13.9812 46.5,15.5C 46.2639,12.7743 47.0972,10.441 49,8.5C 49.498,5.51838 49.6646,2.51838 49.5,-0.5 Z"/></g>
<g><path style="opacity:0.999" fill="#dc0132" d="M 46.5,-0.5 C 47.5,-0.5 48.5,-0.5 49.5,-0.5C 49.6646,2.51838 49.498,5.51838 49,8.5C 47.0972,10.441 46.2639,12.7743 46.5,15.5C 45.1779,15.33 44.0113,15.6634 43,16.5C 40.6089,23.3139 37.6089,29.9806 34,36.5C 30.1525,44.5298 27.3192,52.8631 25.5,61.5C 22.6689,65.1556 20.3355,69.1556 18.5,73.5C 18.6316,75.601 19.6316,77.101 21.5,78C 20.3816,79.0736 19.3816,80.2402 18.5,81.5C 16.677,80.2528 14.677,79.5861 12.5,79.5C 10.5829,78.8836 9.4162,77.5503 9,75.5C 6.33663,55.533 4.33663,35.533 3,15.5C 17.7741,10.634 32.2741,5.30063 46.5,-0.5 Z"/></g>
<g><path style="opacity:1" fill="#fef4f7" d="M 50.5,14.5 C 59.4933,34.4706 68.4933,54.4706 77.5,74.5C 73.8333,75.8333 70.1667,75.8333 66.5,74.5C 65.1224,70.1969 63.4557,66.0302 61.5,62C 53.1667,61.3333 44.8333,61.3333 36.5,62C 35.7476,62.6708 35.4142,63.5041 35.5,64.5C 34.5041,64.4142 33.6708,64.7476 33,65.5C 32.1506,68.5214 31.3173,71.5214 30.5,74.5C 27.8333,74.5 25.1667,74.5 22.5,74.5C 22.5,73.5 22.5,72.5 22.5,71.5C 23.5075,68.1563 24.5075,64.8229 25.5,61.5C 33.0104,46.4739 40.0104,31.1405 46.5,15.5C 47.4098,13.9812 48.2432,12.3146 49,10.5C 49.7914,11.745 50.2914,13.0783 50.5,14.5 Z"/></g>
<g><path style="opacity:1" fill="#ac2747" d="M 44.5,43.5 C 44.3259,45.861 43.9926,48.1944 43.5,50.5C 47.1667,50.5 50.8333,50.5 54.5,50.5C 53.3139,46.4531 51.8139,42.4531 50,38.5C 49.0138,37.8288 47.8471,37.8288 46.5,38.5C 47.0447,36.4068 47.878,34.4068 49,32.5C 51.8333,38.8333 54.6667,45.1667 57.5,51.5C 51.8333,52.8333 46.1667,52.8333 40.5,51.5C 41.8793,48.7415 43.2126,46.0748 44.5,43.5 Z"/></g>
<g><path style="opacity:1" fill="#cc0837" d="M 44.5,43.5 C 44.7959,41.597 45.4625,39.9303 46.5,38.5C 47.8471,37.8288 49.0138,37.8288 50,38.5C 51.8139,42.4531 53.3139,46.4531 54.5,50.5C 50.8333,50.5 47.1667,50.5 43.5,50.5C 43.9926,48.1944 44.3259,45.861 44.5,43.5 Z"/></g>
<g><path style="opacity:1" fill="#c61a3d" d="M 46.5,15.5 C 40.0104,31.1405 33.0104,46.4739 25.5,61.5C 27.3192,52.8631 30.1525,44.5298 34,36.5C 37.6089,29.9806 40.6089,23.3139 43,16.5C 44.0113,15.6634 45.1779,15.33 46.5,15.5 Z"/></g>
<g><path style="opacity:1" fill="#b11d3e" d="M 50.5,14.5 C 51.7498,14.5774 52.5831,15.244 53,16.5C 53.3333,16.1667 53.6667,15.8333 54,15.5C 54.4826,20.6649 56.6493,24.8316 60.5,28C 60.911,32.0147 62.2444,35.5147 64.5,38.5C 70.1524,38.6319 70.819,40.4652 66.5,44C 69.1358,52.4328 73.4691,59.9328 79.5,66.5C 78.3192,68.8034 78.3192,71.1368 79.5,73.5C 79.3201,74.5539 78.9867,75.5539 78.5,76.5C 73.8329,77.6514 69.1662,77.6514 64.5,76.5C 64.0413,71.512 62.708,66.8453 60.5,62.5C 56.5,62.5 52.5,62.5 48.5,62.5C 44.8183,62.3347 41.1516,62.5014 37.5,63C 35.7516,67.5112 34.0849,72.0112 32.5,76.5C 29.2869,76.81 26.2869,76.4767 23.5,75.5C 26.1667,75.5 28.8333,75.5 31.5,75.5C 32.4375,71.6872 33.7709,68.0205 35.5,64.5C 35.4142,63.5041 35.7476,62.6708 36.5,62C 44.8333,61.3333 53.1667,61.3333 61.5,62C 63.4557,66.0302 65.1224,70.1969 66.5,74.5C 70.1667,75.8333 73.8333,75.8333 77.5,74.5C 68.4933,54.4706 59.4933,34.4706 50.5,14.5 Z"/></g>
<g><path style="opacity:0.999" fill="#db0133" d="M 48.5,62.5 C 49.4499,74.9331 49.7833,87.2665 49.5,99.5C 48.8333,99.5 48.1667,99.5 47.5,99.5C 39.5,94.8333 31.5,90.1667 23.5,85.5C 22.748,83.8997 21.748,82.3997 20.5,81C 23.3321,79.706 26.1655,79.5393 29,80.5C 30.749,79.5902 31.9157,78.2569 32.5,76.5C 34.0849,72.0112 35.7516,67.5112 37.5,63C 41.1516,62.5014 44.8183,62.3347 48.5,62.5 Z"/></g>
<g><path style="opacity:1" fill="#ffdbe4" d="M 35.5,64.5 C 33.7709,68.0205 32.4375,71.6872 31.5,75.5C 28.8333,75.5 26.1667,75.5 23.5,75.5C 19.9868,75.1309 19.6535,73.7975 22.5,71.5C 22.5,72.5 22.5,73.5 22.5,74.5C 25.1667,74.5 27.8333,74.5 30.5,74.5C 31.3173,71.5214 32.1506,68.5214 33,65.5C 33.6708,64.7476 34.5041,64.4142 35.5,64.5 Z"/></g>
<g><path style="opacity:0.987" fill="#d10f39" d="M 25.5,61.5 C 24.5075,64.8229 23.5075,68.1563 22.5,71.5C 19.6535,73.7975 19.9868,75.1309 23.5,75.5C 26.2869,76.4767 29.2869,76.81 32.5,76.5C 31.9157,78.2569 30.749,79.5902 29,80.5C 26.1655,79.5393 23.3321,79.706 20.5,81C 21.748,82.3997 22.748,83.8997 23.5,85.5C 19.3447,84.2583 15.678,82.2583 12.5,79.5C 14.677,79.5861 16.677,80.2528 18.5,81.5C 19.3816,80.2402 20.3816,79.0736 21.5,78C 19.6316,77.101 18.6316,75.601 18.5,73.5C 20.3355,69.1556 22.6689,65.1556 25.5,61.5 Z"/></g>
</svg>
