<?xml version="1.0" encoding="UTF-8"?>
<!DOCTYPE svg PUBLIC "-//W3C//DTD SVG 1.1//EN" "http://www.w3.org/Graphics/SVG/1.1/DTD/svg11.dtd">
<svg xmlns="http://www.w3.org/2000/svg" version="1.1" width="100px" height="100px" style="shape-rendering:geometricPrecision; text-rendering:geometricPrecision; image-rendering:optimizeQuality; fill-rule:evenodd; clip-rule:evenodd" xmlns:xlink="http://www.w3.org/1999/xlink">
<g><path style="opacity:1" fill="#257ee2" d="M 49.5,-0.5 C 51.5,-0.5 53.5,-0.5 55.5,-0.5C 58.4934,5.4648 61.4934,11.4648 64.5,17.5C 56.1667,17.5 47.8333,17.5 39.5,17.5C 39.2095,12.7141 39.2095,8.04745 39.5,3.5C 42.9656,2.28799 46.299,0.954655 49.5,-0.5 Z"/></g>
<g><path style="opacity:0.957" fill="#278ed1" d="M 39.5,3.5 C 39.2095,8.04745 39.2095,12.7141 39.5,17.5C 47.8333,17.5 56.1667,17.5 64.5,17.5C 49.3424,18.4962 34.0091,18.8295 18.5,18.5C 18.8417,17.6618 19.5084,17.3284 20.5,17.5C 25.8437,17.666 31.1771,17.4994 36.5,17C 34.7806,15.9431 32.9472,15.1097 31,14.5C 30.5034,12.1902 30.3367,9.85684 30.5,7.5C 32.1788,7.71481 33.1788,7.04814 33.5,5.5C 35.1016,3.92606 37.1016,3.25939 39.5,3.5 Z"/></g>
<g><path style="opacity:0.993" fill="#16b0ea" d="M 33.5,5.5 C 33.1788,7.04814 32.1788,7.71481 30.5,7.5C 30.3367,9.85684 30.5034,12.1902 31,14.5C 32.9472,15.1097 34.7806,15.9431 36.5,17C 31.1771,17.4994 25.8437,17.666 20.5,17.5C 22.8434,14.662 24.1767,11.3286 24.5,7.5C 27.4021,6.42222 30.4021,5.75556 33.5,5.5 Z"/></g>
<g><path style="opacity:0.988" fill="#07d5ed" d="M 7.5,12.5 C 9.67226,13.8017 12.0056,14.9683 14.5,16C 14.1774,19.7097 14.1774,23.543 14.5,27.5C 12.5,27.5 10.5,27.5 8.5,27.5C 8.5,28.8333 8.5,30.1667 8.5,31.5C 10.451,31.7733 11.951,31.1066 13,29.5C 14.9494,34.1431 14.6161,38.4765 12,42.5C 11.2917,41.6195 10.4584,40.9528 9.5,40.5C 6.57537,31.9651 3.57537,23.4651 0.5,15C 2.6446,13.7114 4.97793,12.8781 7.5,12.5 Z"/></g>
<g><path style="opacity:0.993" fill="#050506" d="M 65.5,17.5 C 70.8333,17.5 76.1667,17.5 81.5,17.5C 81.5,22.5 81.5,27.5 81.5,32.5C 80.5128,37.3054 80.1795,42.3054 80.5,47.5C 80.5,49.5 80.5,51.5 80.5,53.5C 79.507,61.9839 79.1736,70.6506 79.5,79.5C 59.8333,79.5 40.1667,79.5 20.5,79.5C 19.5029,59.6736 19.1695,39.6736 19.5,19.5C 35.2031,20.1507 50.5364,19.4841 65.5,17.5 Z"/></g>
<g><path style="opacity:1" fill="#00152a" d="M 64.5,17.5 C 64.8333,17.5 65.1667,17.5 65.5,17.5C 50.5364,19.4841 35.2031,20.1507 19.5,19.5C 19.1695,39.6736 19.5029,59.6736 20.5,79.5C 20.5,79.8333 20.5,80.1667 20.5,80.5C 19.8333,80.5 19.1667,80.5 18.5,80.5C 18.5,66.8333 18.5,53.1667 18.5,39.5C 18.5,32.5 18.5,25.5 18.5,18.5C 34.0091,18.8295 49.3424,18.4962 64.5,17.5 Z"/></g>
<g><path style="opacity:1" fill="#ededed" d="M 34.5,26.5 C 36.4672,26.2606 38.3005,26.5939 40,27.5C 43.225,35.6171 46.725,43.6171 50.5,51.5C 46.3281,53.2188 43.6615,51.8855 42.5,47.5C 38.878,46.3414 35.2113,46.1747 31.5,47C 30.1387,48.5843 29.472,50.4176 29.5,52.5C 27.396,52.7989 25.396,52.4656 23.5,51.5C 26.9065,43.0233 30.5731,34.69 34.5,26.5 Z"/></g>
<g><path style="opacity:1" fill="#15c8e6" d="M 24.5,7.5 C 24.1767,11.3286 22.8434,14.662 20.5,17.5C 19.5084,17.3284 18.8417,17.6618 18.5,18.5C 18.5,25.5 18.5,32.5 18.5,39.5C 15.9439,40.7023 13.6106,42.369 11.5,44.5C 10.3263,43.4863 9.6596,42.153 9.5,40.5C 10.4584,40.9528 11.2917,41.6195 12,42.5C 14.6161,38.4765 14.9494,34.1431 13,29.5C 11.951,31.1066 10.451,31.7733 8.5,31.5C 8.5,30.1667 8.5,28.8333 8.5,27.5C 10.5,27.5 12.5,27.5 14.5,27.5C 14.1774,23.543 14.1774,19.7097 14.5,16C 12.0056,14.9683 9.67226,13.8017 7.5,12.5C 13.1049,10.6814 18.7716,9.01475 24.5,7.5 Z"/></g>
<g><path style="opacity:1" fill="#f0f1f0" d="M 56.5,26.5 C 60.5138,26.3345 64.5138,26.5012 68.5,27C 73.638,28.8857 73.8047,31.0523 69,33.5C 59.3324,29.1535 54.9991,32.1535 56,42.5C 59.544,48.5045 64.044,49.1712 69.5,44.5C 73.7327,47.9954 73.066,50.4954 67.5,52C 60.631,53.9483 55.131,52.115 51,46.5C 47.704,38.2868 49.5374,31.6202 56.5,26.5 Z"/></g>
<g><path style="opacity:1" fill="#161616" d="M 36.5,34.5 C 38.0983,36.3952 39.4316,38.5619 40.5,41C 38.1667,41.6667 35.8333,41.6667 33.5,41C 34.4059,38.7787 35.4059,36.6121 36.5,34.5 Z"/></g>
<g><path style="opacity:1" fill="#247be2" d="M 89.5,34.5 C 92.9055,34.9555 96.2389,35.6222 99.5,36.5C 99.5,38.1667 99.5,39.8333 99.5,41.5C 96.6558,47.3445 93.9892,53.3445 91.5,59.5C 90.5,59.5 89.5,59.5 88.5,59.5C 87.8776,55.8101 86.3776,52.4768 84,49.5C 83.7618,45.7778 83.2618,42.1111 82.5,38.5C 83.325,37.6143 84.325,37.281 85.5,37.5C 85.1796,40.8984 85.513,44.2317 86.5,47.5C 88.7588,43.0298 88.4255,39.0298 85.5,35.5C 86.6888,34.5713 88.0222,34.238 89.5,34.5 Z"/></g>
<g><path style="opacity:1" fill="#2c78d0" d="M 81.5,32.5 C 84.3303,32.9628 86.997,33.6295 89.5,34.5C 88.0222,34.238 86.6888,34.5713 85.5,35.5C 88.4255,39.0298 88.7588,43.0298 86.5,47.5C 85.513,44.2317 85.1796,40.8984 85.5,37.5C 84.325,37.281 83.325,37.6143 82.5,38.5C 83.2618,42.1111 83.7618,45.7778 84,49.5C 86.3776,52.4768 87.8776,55.8101 88.5,59.5C 85.8453,55.5335 83.1786,51.5335 80.5,47.5C 80.1795,42.3054 80.5128,37.3054 81.5,32.5 Z"/></g>
<g><path style="opacity:1" fill="#2286e1" d="M -0.5,63.5 C -0.5,61.1667 -0.5,58.8333 -0.5,56.5C 3.16667,53.5 6.5,50.1667 9.5,46.5C 11.5,46.1667 13.5,45.8333 15.5,45.5C 15.2317,48.1194 15.565,50.6194 16.5,53C 14.9739,54.8871 12.9739,55.8871 10.5,56C 7.1491,59.2223 3.48243,61.7223 -0.5,63.5 Z"/></g>
<g><path style="opacity:1" fill="#2dc2b4" d="M 80.5,47.5 C 83.1786,51.5335 85.8453,55.5335 88.5,59.5C 88.427,61.0269 89.0937,62.0269 90.5,62.5C 90.5,62.8333 90.5,63.1667 90.5,63.5C 87.3751,61.8285 84.5417,62.1618 82,64.5C 81.8267,70.0158 81.3267,75.3491 80.5,80.5C 80.5,71.5 80.5,62.5 80.5,53.5C 80.5,51.5 80.5,49.5 80.5,47.5 Z"/></g>
<g><path style="opacity:0.875" fill="#1c8bb7" d="M 88.5,59.5 C 89.5,59.5 90.5,59.5 91.5,59.5C 91.7373,60.791 91.404,61.791 90.5,62.5C 89.0937,62.0269 88.427,61.0269 88.5,59.5 Z"/></g>
<g><path style="opacity:1" fill="#2294d9" d="M 18.5,39.5 C 18.5,53.1667 18.5,66.8333 18.5,80.5C 17.6618,80.1583 17.3284,79.4916 17.5,78.5C 17.8205,73.3054 17.4872,68.3054 16.5,63.5C 15.2101,62.9423 14.3768,61.9423 14,60.5C 12.8621,62.7917 11.3621,64.7917 9.5,66.5C 6.10079,68.282 2.76745,69.9486 -0.5,71.5C -0.5,68.8333 -0.5,66.1667 -0.5,63.5C 3.48243,61.7223 7.1491,59.2223 10.5,56C 12.9739,55.8871 14.9739,54.8871 16.5,53C 15.565,50.6194 15.2317,48.1194 15.5,45.5C 13.5,45.8333 11.5,46.1667 9.5,46.5C 10.1667,45.8333 10.8333,45.1667 11.5,44.5C 13.6106,42.369 15.9439,40.7023 18.5,39.5 Z"/></g>
<g><path style="opacity:1" fill="#14a7ea" d="M 16.5,63.5 C 15.9518,66.0252 14.9518,68.3585 13.5,70.5C 8.57459,71.371 5.07459,74.0376 3,78.5C 1.88732,79.305 0.72065,79.9717 -0.5,80.5C -0.5,77.5 -0.5,74.5 -0.5,71.5C 2.76745,69.9486 6.10079,68.282 9.5,66.5C 11.3621,64.7917 12.8621,62.7917 14,60.5C 14.3768,61.9423 15.2101,62.9423 16.5,63.5 Z"/></g>
<g><path style="opacity:1" fill="#818181" d="M 47.5,69.5 C 39.8333,69.5 32.1667,69.5 24.5,69.5C 24.5,70.5 24.5,71.5 24.5,72.5C 23.5655,71.4324 23.2322,70.099 23.5,68.5C 31.6841,68.1743 39.6841,68.5076 47.5,69.5 Z"/></g>
<g><path style="opacity:1" fill="#fdfdfd" d="M 47.5,69.5 C 47.5,70.5 47.5,71.5 47.5,72.5C 39.8333,72.5 32.1667,72.5 24.5,72.5C 24.5,71.5 24.5,70.5 24.5,69.5C 32.1667,69.5 39.8333,69.5 47.5,69.5 Z"/></g>
<g><path style="opacity:0.969" fill="#1dde9b" d="M 92.5,66.5 C 94.5836,70.3359 96.917,74.0026 99.5,77.5C 99.5,78.1667 99.5,78.8333 99.5,79.5C 96.6146,79.1936 93.9479,79.5269 91.5,80.5C 88.5,80.5 85.5,80.5 82.5,80.5C 81.4193,74.1534 83.4193,69.1534 88.5,65.5C 89.7362,66.2458 91.0695,66.5792 92.5,66.5 Z"/></g>
<g><path style="opacity:1" fill="#0fb9ec" d="M 16.5,63.5 C 17.4872,68.3054 17.8205,73.3054 17.5,78.5C 14.737,78.7431 11.737,79.2431 8.5,80C 7.83333,82.3333 7.16667,84.6667 6.5,87C 4.19018,87.4966 1.85684,87.6633 -0.5,87.5C -0.5,85.1667 -0.5,82.8333 -0.5,80.5C 0.72065,79.9717 1.88732,79.305 3,78.5C 5.07459,74.0376 8.57459,71.371 13.5,70.5C 14.9518,68.3585 15.9518,66.0252 16.5,63.5 Z"/></g>
<g><path style="opacity:1" fill="#002014" d="M 80.5,53.5 C 80.5,62.5 80.5,71.5 80.5,80.5C 60.5,80.5 40.5,80.5 20.5,80.5C 20.5,80.1667 20.5,79.8333 20.5,79.5C 40.1667,79.5 59.8333,79.5 79.5,79.5C 79.1736,70.6506 79.507,61.9839 80.5,53.5 Z"/></g>
<g><path style="opacity:0.22" fill="#1e9fb0" d="M 99.5,79.5 C 99.5,80.1667 99.5,80.8333 99.5,81.5C 98.8333,81.5 98.1667,81.5 97.5,81.5C 95.5,81.5 93.5,81.5 91.5,81.5C 91.5,81.1667 91.5,80.8333 91.5,80.5C 93.9479,79.5269 96.6146,79.1936 99.5,79.5 Z"/></g>
<g><path style="opacity:1" fill="#1fd8b3" d="M 90.5,63.5 C 91.4013,64.2905 92.0679,65.2905 92.5,66.5C 91.0695,66.5792 89.7362,66.2458 88.5,65.5C 83.4193,69.1534 81.4193,74.1534 82.5,80.5C 85.5,80.5 88.5,80.5 91.5,80.5C 91.5,80.8333 91.5,81.1667 91.5,81.5C 91.1667,81.5 90.8333,81.5 90.5,81.5C 81.2774,82.8674 72.2774,84.5341 63.5,86.5C 56.4155,85.9028 49.5822,86.9028 43,89.5C 40.9803,88.9681 40.147,87.6348 40.5,85.5C 42.8333,85.5 45.1667,85.5 47.5,85.5C 47.5,84.5 47.5,83.5 47.5,82.5C 50.3854,82.8064 53.0521,82.4731 55.5,81.5C 64.0168,81.8261 72.3501,81.4927 80.5,80.5C 81.3267,75.3491 81.8267,70.0158 82,64.5C 84.5417,62.1618 87.3751,61.8285 90.5,63.5 Z"/></g>
<g><path style="opacity:0.997" fill="#1dcecc" d="M 18.5,80.5 C 19.1667,80.5 19.8333,80.5 20.5,80.5C 40.5,80.5 60.5,80.5 80.5,80.5C 72.3501,81.4927 64.0168,81.8261 55.5,81.5C 49.8236,81.3339 44.1569,81.5006 38.5,82C 39.5536,83.3876 39.7203,84.8876 39,86.5C 36.9307,87.2638 34.764,87.7638 32.5,88C 31.6198,89.3561 31.2865,90.8561 31.5,92.5C 33.1667,92.5 34.8333,92.5 36.5,92.5C 27.7379,94.8043 18.7379,96.4709 9.5,97.5C 9.67905,95.3944 10.679,93.7277 12.5,92.5C 14.6416,91.3995 16.8083,90.3995 19,89.5C 19.4922,88.451 19.3256,87.451 18.5,86.5C 20.0453,85.5481 21.712,85.2148 23.5,85.5C 23.33,84.1779 23.6634,83.0113 24.5,82C 22.2922,81.8091 20.2922,81.3091 18.5,80.5 Z"/></g>
<g><path style="opacity:0.965" fill="#04d2ed" d="M 17.5,78.5 C 17.3284,79.4916 17.6618,80.1583 18.5,80.5C 20.2922,81.3091 22.2922,81.8091 24.5,82C 23.6634,83.0113 23.33,84.1779 23.5,85.5C 21.712,85.2148 20.0453,85.5481 18.5,86.5C 19.3256,87.451 19.4922,88.451 19,89.5C 16.8083,90.3995 14.6416,91.3995 12.5,92.5C 10.679,93.7277 9.67905,95.3944 9.5,97.5C 8.5,98.1667 7.5,98.8333 6.5,99.5C 4.16667,99.5 1.83333,99.5 -0.5,99.5C -0.5,95.5 -0.5,91.5 -0.5,87.5C 1.85684,87.6633 4.19018,87.4966 6.5,87C 7.16667,84.6667 7.83333,82.3333 8.5,80C 11.737,79.2431 14.737,78.7431 17.5,78.5 Z"/></g>
<g><path style="opacity:1" fill="#208be1" d="M 90.5,81.5 C 90.8333,81.5 91.1667,81.5 91.5,81.5C 93.5,81.5 95.5,81.5 97.5,81.5C 92.8656,86.1259 87.8656,90.4592 82.5,94.5C 81.4168,94.5394 80.4168,94.8728 79.5,95.5C 77.6627,90.9644 78.6627,87.2977 82.5,84.5C 85.3542,83.7949 88.0209,82.7949 90.5,81.5 Z"/></g>
<g><path style="opacity:1" fill="#10dac7" d="M 55.5,81.5 C 53.0521,82.4731 50.3854,82.8064 47.5,82.5C 47.5,83.5 47.5,84.5 47.5,85.5C 45.1667,85.5 42.8333,85.5 40.5,85.5C 40.147,87.6348 40.9803,88.9681 43,89.5C 49.5822,86.9028 56.4155,85.9028 63.5,86.5C 63.5,86.8333 63.5,87.1667 63.5,87.5C 57.508,88.264 51.508,89.0973 45.5,90C 44.944,90.3826 44.6107,90.8826 44.5,91.5C 41.7938,91.5751 39.1272,91.9084 36.5,92.5C 34.8333,92.5 33.1667,92.5 31.5,92.5C 31.2865,90.8561 31.6198,89.3561 32.5,88C 34.764,87.7638 36.9307,87.2638 39,86.5C 39.7203,84.8876 39.5536,83.3876 38.5,82C 44.1569,81.5006 49.8236,81.3339 55.5,81.5 Z"/></g>
<g><path style="opacity:1" fill="#15ace0" d="M 90.5,81.5 C 88.0209,82.7949 85.3542,83.7949 82.5,84.5C 79.0191,86.6204 75.1858,87.9538 71,88.5C 70.6258,89.4162 70.1258,90.2496 69.5,91C 72.0274,93.4671 72.0274,95.9671 69.5,98.5C 64.5674,97.7403 59.9008,96.407 55.5,94.5C 57.0162,90.7876 59.6829,88.4543 63.5,87.5C 63.5,87.1667 63.5,86.8333 63.5,86.5C 72.2774,84.5341 81.2774,82.8674 90.5,81.5 Z"/></g>
<g><path style="opacity:0.929" fill="#10c8e3" d="M 63.5,87.5 C 59.6829,88.4543 57.0162,90.7876 55.5,94.5C 51.5544,94.1184 47.8878,93.1184 44.5,91.5C 44.6107,90.8826 44.944,90.3826 45.5,90C 51.508,89.0973 57.508,88.264 63.5,87.5 Z"/></g>
<g><path style="opacity:0.993" fill="#1a9ce6" d="M 82.5,84.5 C 78.6627,87.2977 77.6627,90.9644 79.5,95.5C 80.4168,94.8728 81.4168,94.5394 82.5,94.5C 81.027,96.3947 79.3603,98.0613 77.5,99.5C 75.1667,99.5 72.8333,99.5 70.5,99.5C 70.5,98.8333 70.1667,98.5 69.5,98.5C 72.0274,95.9671 72.0274,93.4671 69.5,91C 70.1258,90.2496 70.6258,89.4162 71,88.5C 75.1858,87.9538 79.0191,86.6204 82.5,84.5 Z"/></g>
</svg>
