<?xml version="1.0" encoding="UTF-8"?>
<!DOCTYPE svg PUBLIC "-//W3C//DTD SVG 1.1//EN" "http://www.w3.org/Graphics/SVG/1.1/DTD/svg11.dtd">
<svg xmlns="http://www.w3.org/2000/svg" version="1.1" width="100px" height="100px" style="shape-rendering:geometricPrecision; text-rendering:geometricPrecision; image-rendering:optimizeQuality; fill-rule:evenodd; clip-rule:evenodd" xmlns:xlink="http://www.w3.org/1999/xlink">
<g><path style="opacity:0.838" fill="#b4b4b4" d="M 63.5,-0.5 C 66.1667,-0.5 68.8333,-0.5 71.5,-0.5C 71.0681,9.86498 66.4014,17.6983 57.5,23C 54.5184,23.498 51.5184,23.6646 48.5,23.5C 48.8307,16.0098 51.4974,9.50983 56.5,4C 59.2565,3.06168 61.5899,1.56168 63.5,-0.5 Z"/></g>
<g><path style="opacity:0.974" fill="#b3b3b3" d="M 74.5,99.5 C 70.1667,99.5 65.8333,99.5 61.5,99.5C 58.495,97.6035 55.1616,96.2702 51.5,95.5C 47.8384,96.2702 44.505,97.6035 41.5,99.5C 37.1667,99.5 32.8333,99.5 28.5,99.5C 10.7076,83.2873 4.20758,63.2873 9,39.5C 13.6934,29.1542 21.6934,23.4876 33,22.5C 39.0057,23.0022 44.6724,24.6689 50,27.5C 59.0933,22.8128 68.5933,21.6462 78.5,24C 83.1835,25.8308 86.8501,28.8308 89.5,33C 74.8443,45.646 74.8443,58.3127 89.5,71C 90.448,71.4828 91.448,71.6495 92.5,71.5C 90.6826,78.8017 87.5159,85.4684 83,91.5C 80.2709,94.3993 77.4376,97.066 74.5,99.5 Z"/></g>
</svg>
