<?xml version="1.0" encoding="UTF-8"?>
<!DOCTYPE svg PUBLIC "-//W3C//DTD SVG 1.1//EN" "http://www.w3.org/Graphics/SVG/1.1/DTD/svg11.dtd">
<svg xmlns="http://www.w3.org/2000/svg" version="1.1" width="100px" height="100px" style="shape-rendering:geometricPrecision; text-rendering:geometricPrecision; image-rendering:optimizeQuality; fill-rule:evenodd; clip-rule:evenodd" xmlns:xlink="http://www.w3.org/1999/xlink">
<g><path style="opacity:0.998" fill="#fc5469" d="M 71.5,41.5 C 74.1029,50.0358 77.7695,58.0358 82.5,65.5C 83.7138,68.9302 85.2138,72.2635 87,75.5C 88.9445,88.7799 83.4445,93.6132 70.5,90C 66.6768,86.1872 64.0101,81.6872 62.5,76.5C 62.552,74.0971 62.2186,71.7638 61.5,69.5C 61.1429,64.999 59.1429,61.6657 55.5,59.5C 55.7709,57.6203 55.1042,56.287 53.5,55.5C 52.8333,55.5 52.1667,55.5 51.5,55.5C 50.824,51.8133 49.324,48.4799 47,45.5C 45.4867,48.5266 43.9867,51.5266 42.5,54.5C 41.209,54.7373 40.209,54.404 39.5,53.5C 36.285,51.6966 32.9516,50.0299 29.5,48.5C 28.078,47.075 26.4113,46.075 24.5,45.5C 23.596,44.791 23.2627,43.791 23.5,42.5C 27.7751,31.9475 32.6085,21.6142 38,11.5C 42.0911,7.69511 46.9245,6.52844 52.5,8C 54.3333,9.16667 55.8333,10.6667 57,12.5C 61.3365,22.5063 66.1698,32.173 71.5,41.5 Z"/></g>
<g><path style="opacity:0.991" fill="#fc9394" d="M 99.5,26.5 C 99.5,30.1667 99.5,33.8333 99.5,37.5C 95.4932,47.8404 89.8265,57.1737 82.5,65.5C 77.7695,58.0358 74.1029,50.0358 71.5,41.5C 75.2289,36.8477 77.7289,31.5144 79,25.5C 86.1784,18.6679 93.0117,19.0012 99.5,26.5 Z"/></g>
<g><path style="opacity:0.996" fill="#022cc5" d="M 22.5,42.5 C 22.6941,45.3297 23.3608,47.9963 24.5,50.5C 27.9571,52.511 31.6238,54.3443 35.5,56C 39.4862,56.4988 43.4862,56.6655 47.5,56.5C 52.1674,57.5103 54.8341,60.5103 55.5,65.5C 56.747,69.3962 58.4136,73.0629 60.5,76.5C 50.8467,79.1209 41.18,79.1209 31.5,76.5C 29.6568,75.7171 27.6568,75.0505 25.5,74.5C 21.3788,70.7237 16.7121,67.7237 11.5,65.5C 7.08388,60.4257 3.08388,55.0924 -0.5,49.5C -0.5,46.1667 -0.5,42.8333 -0.5,39.5C 4.16308,32.7808 10.1631,31.2808 17.5,35C 19.3141,37.4795 20.9808,39.9795 22.5,42.5 Z"/></g>
<g><path style="opacity:1" fill="#c65f9e" d="M 24.5,45.5 C 26.4113,46.075 28.078,47.075 29.5,48.5C 30.1667,49.5 30.8333,50.5 31.5,51.5C 28.5726,50.2427 26.2393,48.2427 24.5,45.5 Z"/></g>
<g><path style="opacity:1" fill="#2f27a0" d="M 22.5,42.5 C 22.8333,42.5 23.1667,42.5 23.5,42.5C 23.2627,43.791 23.596,44.791 24.5,45.5C 26.2393,48.2427 28.5726,50.2427 31.5,51.5C 32.5137,52.6737 33.847,53.3404 35.5,53.5C 37.4385,55.1628 39.7718,55.8294 42.5,55.5C 44.1667,55.5 45.8333,55.5 47.5,55.5C 47.5,55.8333 47.5,56.1667 47.5,56.5C 43.4862,56.6655 39.4862,56.4988 35.5,56C 31.6238,54.3443 27.9571,52.511 24.5,50.5C 23.3608,47.9963 22.6941,45.3297 22.5,42.5 Z"/></g>
<g><path style="opacity:1" fill="#e5588a" d="M 29.5,48.5 C 32.9516,50.0299 36.285,51.6966 39.5,53.5C 38.1667,53.5 36.8333,53.5 35.5,53.5C 33.847,53.3404 32.5137,52.6737 31.5,51.5C 30.8333,50.5 30.1667,49.5 29.5,48.5 Z"/></g>
<g><path style="opacity:1" fill="#b95fa5" d="M 35.5,53.5 C 36.8333,53.5 38.1667,53.5 39.5,53.5C 40.209,54.404 41.209,54.7373 42.5,54.5C 42.5,54.8333 42.5,55.1667 42.5,55.5C 39.7718,55.8294 37.4385,55.1628 35.5,53.5 Z"/></g>
<g><path style="opacity:1" fill="#cc6099" d="M 53.5,55.5 C 55.1042,56.287 55.7709,57.6203 55.5,59.5C 54.3263,58.4863 53.6596,57.153 53.5,55.5 Z"/></g>
<g><path style="opacity:1" fill="#442992" d="M 47.5,56.5 C 47.5,56.1667 47.5,55.8333 47.5,55.5C 48.8333,55.5 50.1667,55.5 51.5,55.5C 52.1667,55.5 52.8333,55.5 53.5,55.5C 53.6596,57.153 54.3263,58.4863 55.5,59.5C 56.3872,63.0396 57.7205,66.3729 59.5,69.5C 58.0001,68.3748 56.6668,67.0414 55.5,65.5C 54.8341,60.5103 52.1674,57.5103 47.5,56.5 Z"/></g>
<g><path style="opacity:1" fill="#df5c83" d="M 55.5,59.5 C 59.1429,61.6657 61.1429,64.999 61.5,69.5C 60.8333,69.5 60.1667,69.5 59.5,69.5C 57.7205,66.3729 56.3872,63.0396 55.5,59.5 Z"/></g>
<g><path style="opacity:0.998" fill="#18017e" d="M 11.5,65.5 C 16.7121,67.7237 21.3788,70.7237 25.5,74.5C 27.6568,75.0505 29.6568,75.7171 31.5,76.5C 30.4414,81.1173 28.4414,85.284 25.5,89C 15.3665,94.2627 9.0332,91.4294 6.5,80.5C 7.56738,75.2979 9.23405,70.2979 11.5,65.5 Z"/></g>
<g><path style="opacity:1" fill="#2628ab" d="M 55.5,65.5 C 56.6668,67.0414 58.0001,68.3748 59.5,69.5C 60.9331,71.5582 61.5997,73.8915 61.5,76.5C 61.1667,76.5 60.8333,76.5 60.5,76.5C 58.4136,73.0629 56.747,69.3962 55.5,65.5 Z"/></g>
<g><path style="opacity:1" fill="#b35297" d="M 59.5,69.5 C 60.1667,69.5 60.8333,69.5 61.5,69.5C 62.2186,71.7638 62.552,74.0971 62.5,76.5C 62.1667,76.5 61.8333,76.5 61.5,76.5C 61.5997,73.8915 60.9331,71.5582 59.5,69.5 Z"/></g>
</svg>
