<?xml version="1.0" encoding="UTF-8"?>
<!DOCTYPE svg PUBLIC "-//W3C//DTD SVG 1.1//EN" "http://www.w3.org/Graphics/SVG/1.1/DTD/svg11.dtd">
<svg xmlns="http://www.w3.org/2000/svg" version="1.1" width="100px" height="100px" style="shape-rendering:geometricPrecision; text-rendering:geometricPrecision; image-rendering:optimizeQuality; fill-rule:evenodd; clip-rule:evenodd" xmlns:xlink="http://www.w3.org/1999/xlink">
<g><path style="opacity:0.99" fill="#1c93d0" d="M 48.5,-0.5 C 49.1667,-0.5 49.8333,-0.5 50.5,-0.5C 50.5,-0.166667 50.5,0.166667 50.5,0.5C 50.7373,5.35512 51.7373,10.0218 53.5,14.5C 53.5,16.5 53.5,18.5 53.5,20.5C 51.0509,21.0574 48.7175,21.0574 46.5,20.5C 47.0402,19.2519 47.7069,18.0852 48.5,17C 47.9288,15.7949 47.2621,14.6283 46.5,13.5C 45.8133,15.2744 44.9799,16.9411 44,18.5C 43.7679,17.2625 43.2679,16.2625 42.5,15.5C 44.2916,10.1295 46.2916,4.7962 48.5,-0.5 Z"/></g>
<g><path style="opacity:0.992" fill="#37a3d7" d="M 50.5,0.5 C 54.3441,8.67832 58.0108,17.0117 61.5,25.5C 59.6096,25.7035 58.1096,25.0368 57,23.5C 55.3957,20.5412 54.2291,17.5412 53.5,14.5C 51.7373,10.0218 50.7373,5.35512 50.5,0.5 Z"/></g>
<g><path style="opacity:1" fill="#2799d3" d="M 53.5,14.5 C 54.2291,17.5412 55.3957,20.5412 57,23.5C 58.1096,25.0368 59.6096,25.7035 61.5,25.5C 61.5,25.8333 61.5,26.1667 61.5,26.5C 60.3199,28.0145 59.3199,29.6812 58.5,31.5C 55.8796,30.4776 53.2129,30.4776 50.5,31.5C 47.7067,31.0543 45.3733,29.721 43.5,27.5C 43.9354,28.9618 43.102,29.9618 41,30.5C 39.124,29.381 38.2907,27.7144 38.5,25.5C 40.6648,25.8841 42.3315,25.2174 43.5,23.5C 42.6798,21.8888 41.3464,21.2222 39.5,21.5C 40.5139,19.4261 41.5139,17.4261 42.5,15.5C 43.2679,16.2625 43.7679,17.2625 44,18.5C 44.9799,16.9411 45.8133,15.2744 46.5,13.5C 47.2621,14.6283 47.9288,15.7949 48.5,17C 47.7069,18.0852 47.0402,19.2519 46.5,20.5C 48.7175,21.0574 51.0509,21.0574 53.5,20.5C 53.5,18.5 53.5,16.5 53.5,14.5 Z"/></g>
<g><path style="opacity:1" fill="#349fd5" d="M 39.5,21.5 C 41.3464,21.2222 42.6798,21.8888 43.5,23.5C 42.3315,25.2174 40.6648,25.8841 38.5,25.5C 38.2907,27.7144 39.124,29.381 41,30.5C 43.102,29.9618 43.9354,28.9618 43.5,27.5C 45.3733,29.721 47.7067,31.0543 50.5,31.5C 53.2129,30.4776 55.8796,30.4776 58.5,31.5C 59.3199,29.6812 60.3199,28.0145 61.5,26.5C 62.9063,26.9731 63.573,27.9731 63.5,29.5C 62.325,29.281 61.325,29.6143 60.5,30.5C 61.5565,33.1886 62.8899,35.6886 64.5,38C 63.6634,39.0113 63.33,40.1779 63.5,41.5C 66.9877,41.8991 67.1544,42.5658 64,43.5C 61.0489,42.0859 57.8822,41.2525 54.5,41C 51.9648,40.0718 50.9648,38.2385 51.5,35.5C 49.4086,35.3184 47.4086,35.6518 45.5,36.5C 44.7348,35.3881 43.7348,34.7214 42.5,34.5C 42.1667,33.1667 41.8333,33.1667 41.5,34.5C 40.8333,34.5 40.5,34.1667 40.5,33.5C 40.5,32.8333 40.1667,32.5 39.5,32.5C 39.5,31.8333 39.1667,31.5 38.5,31.5C 38.5,30.8333 38.1667,30.5 37.5,30.5C 36.8627,27.3648 37.5294,24.3648 39.5,21.5 Z"/></g>
<g><path style="opacity:0.996" fill="#49abd8" d="M 34.5,33.5 C 38.095,36.2657 41.2617,39.599 44,43.5C 44.4226,42.0439 45.2559,41.5439 46.5,42C 47.3802,43.3561 47.7135,44.8561 47.5,46.5C 43.4916,47.1002 39.9916,46.1002 37,43.5C 35.3542,45.1408 34.3542,44.8075 34,42.5C 33.5172,43.448 33.3505,44.448 33.5,45.5C 31.5168,45.8432 30.1834,45.1765 29.5,43.5C 30.332,39.6907 31.9986,36.3573 34.5,33.5 Z"/></g>
<g><path style="opacity:1" fill="#3fa7da" d="M 63.5,29.5 C 67.4806,37.4612 71.4806,45.4612 75.5,53.5C 73.4279,52.5596 71.7612,51.0596 70.5,49C 62.8872,47.7384 55.2205,47.2384 47.5,47.5C 47.5,47.1667 47.5,46.8333 47.5,46.5C 47.7135,44.8561 47.3802,43.3561 46.5,42C 45.2559,41.5439 44.4226,42.0439 44,43.5C 41.2617,39.599 38.095,36.2657 34.5,33.5C 34.5,32.5 34.5,31.5 34.5,30.5C 35.5,30.5 36.5,30.5 37.5,30.5C 38.1667,30.5 38.5,30.8333 38.5,31.5C 39.1667,31.5 39.5,31.8333 39.5,32.5C 40.1667,32.5 40.5,32.8333 40.5,33.5C 40.5,34.1667 40.8333,34.5 41.5,34.5C 41.8333,34.5 42.1667,34.5 42.5,34.5C 43.7348,34.7214 44.7348,35.3881 45.5,36.5C 47.4086,35.6518 49.4086,35.3184 51.5,35.5C 50.9648,38.2385 51.9648,40.0718 54.5,41C 57.8822,41.2525 61.0489,42.0859 64,43.5C 67.1544,42.5658 66.9877,41.8991 63.5,41.5C 63.33,40.1779 63.6634,39.0113 64.5,38C 62.8899,35.6886 61.5565,33.1886 60.5,30.5C 61.325,29.6143 62.325,29.281 63.5,29.5 Z"/></g>
<g><path style="opacity:1" fill="#51afe0" d="M 47.5,46.5 C 47.5,46.8333 47.5,47.1667 47.5,47.5C 44.1012,48.0164 40.7679,48.8497 37.5,50C 32.7146,53.0594 27.7146,55.5594 22.5,57.5C 24.0208,52.3448 26.3541,47.6782 29.5,43.5C 30.1834,45.1765 31.5168,45.8432 33.5,45.5C 33.3505,44.448 33.5172,43.448 34,42.5C 34.3542,44.8075 35.3542,45.1408 37,43.5C 39.9916,46.1002 43.4916,47.1002 47.5,46.5 Z"/></g>
<g><path style="opacity:0.999" fill="#1993cf" d="M 47.5,47.5 C 55.2205,47.2384 62.8872,47.7384 70.5,49C 71.7612,51.0596 73.4279,52.5596 75.5,53.5C 78.1002,57.701 80.4335,62.0344 82.5,66.5C 82.5079,69.5448 82.8413,72.5448 83.5,75.5C 82.1667,75.8333 82.1667,76.1667 83.5,76.5C 83.8417,77.3382 84.5084,77.6716 85.5,77.5C 91.6428,83.1137 96.3094,89.7804 99.5,97.5C 99.5,98.1667 99.5,98.8333 99.5,99.5C 98.8333,99.5 98.1667,99.5 97.5,99.5C 85.8294,92.0037 73.1627,86.6703 59.5,83.5C 61.8865,74.5013 59.8865,66.6679 53.5,60C 48.7579,57.7711 44.9246,58.9378 42,63.5C 41.4338,65.7226 40.6005,67.7226 39.5,69.5C 38.5041,69.4142 37.6708,69.7476 37,70.5C 36.7725,74.9171 36.2725,79.2504 35.5,83.5C 25.2509,87.292 15.2509,91.6253 5.5,96.5C 3.51676,96.8432 2.18342,96.1765 1.5,94.5C 5.46461,86.2472 9.79794,78.2472 14.5,70.5C 15.5,70.5 16.5,70.5 17.5,70.5C 17.7373,69.209 17.404,68.209 16.5,67.5C 17.5787,63.5753 19.5787,60.242 22.5,57.5C 27.7146,55.5594 32.7146,53.0594 37.5,50C 40.7679,48.8497 44.1012,48.0164 47.5,47.5 Z"/></g>
<g><path style="opacity:0.282" fill="#2d88e0" d="M 16.5,67.5 C 17.404,68.209 17.7373,69.209 17.5,70.5C 16.5,70.5 15.5,70.5 14.5,70.5C 14.9321,69.2905 15.5987,68.2905 16.5,67.5 Z"/></g>
<g><path style="opacity:0.992" fill="#2490bd" d="M 82.5,66.5 C 84.5122,69.3521 86.1789,72.5188 87.5,76C 87.1639,77.0299 86.4972,77.5299 85.5,77.5C 85.1583,76.6618 84.4916,76.3284 83.5,76.5C 83.5,76.1667 83.5,75.8333 83.5,75.5C 82.8413,72.5448 82.5079,69.5448 82.5,66.5 Z"/></g>
<g><path style="opacity:1" fill="#308eb9" d="M 39.5,69.5 C 38.3758,74.1467 38.3758,78.8134 39.5,83.5C 38.1667,83.5 36.8333,83.5 35.5,83.5C 36.2725,79.2504 36.7725,74.9171 37,70.5C 37.6708,69.7476 38.5041,69.4142 39.5,69.5 Z"/></g>
<g><path style="opacity:0.724" fill="#1793d3" d="M 1.5,94.5 C 2.18342,96.1765 3.51676,96.8432 5.5,96.5C 4.40974,97.8571 3.07641,98.8571 1.5,99.5C 0.833333,99.5 0.166667,99.5 -0.5,99.5C -0.5,98.5 -0.5,97.5 -0.5,96.5C 0.166667,95.8333 0.833333,95.1667 1.5,94.5 Z"/></g>
</svg>
