<?xml version="1.0" encoding="UTF-8"?>
<!DOCTYPE svg PUBLIC "-//W3C//DTD SVG 1.1//EN" "http://www.w3.org/Graphics/SVG/1.1/DTD/svg11.dtd">
<svg xmlns="http://www.w3.org/2000/svg" version="1.1" width="100px" height="100px" style="shape-rendering:geometricPrecision; text-rendering:geometricPrecision; image-rendering:optimizeQuality; fill-rule:evenodd; clip-rule:evenodd" xmlns:xlink="http://www.w3.org/1999/xlink">
<g><path style="opacity:0.938" fill="#000000" d="M 36.5,-0.5 C 45.1667,-0.5 53.8333,-0.5 62.5,-0.5C 64.1436,0.316435 65.3103,1.64977 66,3.5C 71.7978,23.2269 77.7978,42.8936 84,62.5C 84.6667,64.1667 84.6667,65.8333 84,67.5C 77.2213,63.8449 70.0547,61.1782 62.5,59.5C 58.5511,45.9877 54.2177,32.6544 49.5,19.5C 44.7257,32.5835 40.559,45.9168 37,59.5C 29.3875,61.3711 22.0542,64.0378 15,67.5C 14.3333,66.1667 14.3333,64.8333 15,63.5C 20.6667,44.8333 26.3333,26.1667 32,7.5C 32.7384,4.35151 34.2384,1.68484 36.5,-0.5 Z"/></g>
<g><path style="opacity:0.969" fill="#fa5f07" d="M 65.5,70.5 C 66.4731,72.9479 66.8064,75.6146 66.5,78.5C 65.1667,83.1667 62.1667,86.1667 57.5,87.5C 56.1667,87.5 54.8333,87.5 53.5,87.5C 53.5,88.8333 53.5,90.1667 53.5,91.5C 53.5,94.1667 53.5,96.8333 53.5,99.5C 52.8333,99.5 52.1667,99.5 51.5,99.5C 46.766,95.1625 44.4327,89.6625 44.5,83C 40.9052,81.179 38.4052,82.3457 37,86.5C 32.0338,80.9644 30.7005,74.631 33,67.5C 39.9201,72.8539 47.7534,74.6872 56.5,73C 59.5465,72.2612 62.5465,71.4279 65.5,70.5 Z"/></g>
<g><path style="opacity:0.431" fill="#d86925" d="M 65.5,70.5 C 65.56,69.9569 65.8933,69.6236 66.5,69.5C 67.8032,72.6447 67.8032,75.6447 66.5,78.5C 66.8064,75.6146 66.4731,72.9479 65.5,70.5 Z"/></g>
<g><path style="opacity:0.89" fill="#ec6510" d="M 57.5,87.5 C 56.5,89.1667 55.1667,90.5 53.5,91.5C 53.5,90.1667 53.5,88.8333 53.5,87.5C 54.8333,87.5 56.1667,87.5 57.5,87.5 Z"/></g>
</svg>
