<?xml version="1.0" encoding="UTF-8"?>
<!DOCTYPE svg PUBLIC "-//W3C//DTD SVG 1.1//EN" "http://www.w3.org/Graphics/SVG/1.1/DTD/svg11.dtd">
<svg xmlns="http://www.w3.org/2000/svg" version="1.1" width="100px" height="100px" style="shape-rendering:geometricPrecision; text-rendering:geometricPrecision; image-rendering:optimizeQuality; fill-rule:evenodd; clip-rule:evenodd" xmlns:xlink="http://www.w3.org/1999/xlink">
<g><path style="opacity:0.965" fill="#252f3b" d="M 26.5,23.5 C 25.325,23.281 24.325,23.6143 23.5,24.5C 24.1272,25.4168 24.4606,26.4168 24.5,27.5C 23.7281,28.6935 22.7281,29.6935 21.5,30.5C 21.607,28.0968 20.607,26.2635 18.5,25C 13.7976,24.9513 9.13089,25.4513 4.5,26.5C 3.97383,23.1922 5.30716,21.0255 8.5,20C 13.1667,19.3333 17.8333,19.3333 22.5,20C 24.3237,20.66 25.657,21.8267 26.5,23.5 Z"/></g>
<g><path style="opacity:0.914" fill="#252e3a" d="M 82.5,31.5 C 81.5266,31.9867 80.5266,32.4867 79.5,33C 80.6843,34.1455 80.6843,35.3121 79.5,36.5C 73.8726,34.4117 72.0392,30.4117 74,24.5C 75.1667,22.6667 76.6667,21.1667 78.5,20C 83.222,19.2231 87.8887,19.3897 92.5,20.5C 94.4386,22.1222 94.772,23.9555 93.5,26C 90.9732,25.4017 88.3066,24.9017 85.5,24.5C 80.1578,24.8383 79.1578,27.1716 82.5,31.5 Z"/></g>
<g><path style="opacity:0.899" fill="#25303b" d="M 40.5,32.5 C 39.6652,43.1159 38.4985,43.1159 37,32.5C 35.187,31.3909 34.3537,32.0576 34.5,34.5C 32.3859,29.8065 31.0526,24.8065 30.5,19.5C 32.7925,19.2436 34.9592,19.5769 37,20.5C 37.8633,24.6254 39.0299,28.6254 40.5,32.5 Z"/></g>
<g><path style="opacity:0.897" fill="#242e3d" d="M 56.5,31.5 C 55.1418,31.8222 53.4752,31.8222 51.5,31.5C 51.631,30.7611 51.4643,30.0944 51,29.5C 49.7657,34.8399 48.5991,40.1733 47.5,45.5C 46.6236,45.6309 45.9569,45.2975 45.5,44.5C 46.6808,42.802 46.6808,41.1353 45.5,39.5C 44.0052,40.7053 42.6719,40.7053 41.5,39.5C 42.9663,38.653 43.7996,37.3197 44,35.5C 44.8498,30.4163 46.0164,25.4163 47.5,20.5C 49.7427,19.5258 52.076,19.1924 54.5,19.5C 55.3755,23.4616 56.0422,27.4616 56.5,31.5 Z"/></g>
<g><path style="opacity:0.93" fill="#262c41" d="M 65.5,20.5 C 71.9324,20.8727 71.9324,22.0394 65.5,24C 67.3606,27.7135 66.5273,30.5468 63,32.5C 62.6012,32.2716 62.4346,31.9382 62.5,31.5C 63.0552,27.6032 64.0552,23.9365 65.5,20.5 Z"/></g>
<g><path style="opacity:0.927" fill="#252d3a" d="M 65.5,20.5 C 67.2646,19.5386 69.2646,19.2053 71.5,19.5C 69.9006,28.9143 67.2339,37.9143 63.5,46.5C 63.6653,42.8183 63.4986,39.1516 63,35.5C 62.6174,36.056 62.1174,36.3893 61.5,36.5C 61.2155,34.5853 61.5489,32.9187 62.5,31.5C 62.4346,31.9382 62.6012,32.2716 63,32.5C 66.5273,30.5468 67.3606,27.7135 65.5,24C 71.9324,22.0394 71.9324,20.8727 65.5,20.5 Z"/></g>
<g><path style="opacity:0.888" fill="#242e3d" d="M 24.5,27.5 C 24.67,28.8221 24.3366,29.9887 23.5,31C 25.1047,33.7327 26.1047,36.7327 26.5,40C 24.3911,41.1411 22.5578,42.6411 21,44.5C 20.5304,45.5768 20.6971,46.5768 21.5,47.5C 19.4176,47.472 17.5843,48.1387 16,49.5C 15.51,48.2068 15.3433,46.8734 15.5,45.5C 19.7422,44.5833 21.7422,41.9166 21.5,37.5C 19.7839,37.3713 18.1172,37.038 16.5,36.5C 14.7078,35.6909 12.7078,35.1909 10.5,35C 13.1048,34.7046 15.7715,33.8712 18.5,32.5C 20.1788,32.7148 21.1788,32.0481 21.5,30.5C 22.7281,29.6935 23.7281,28.6935 24.5,27.5 Z"/></g>
<g><path style="opacity:0.997" fill="#232f40" d="M 26.5,23.5 C 26.9867,24.4734 27.4867,25.4734 28,26.5C 28.3333,32.8333 28.6667,39.1667 29,45.5C 29.6924,46.0253 30.1924,46.6919 30.5,47.5C 27.3781,51.3809 24.3781,51.3809 21.5,47.5C 20.6971,46.5768 20.5304,45.5768 21,44.5C 22.5578,42.6411 24.3911,41.1411 26.5,40C 26.1047,36.7327 25.1047,33.7327 23.5,31C 24.3366,29.9887 24.67,28.8221 24.5,27.5C 24.4606,26.4168 24.1272,25.4168 23.5,24.5C 24.325,23.6143 25.325,23.281 26.5,23.5 Z"/></g>
<g><path style="opacity:0.835" fill="#232e3c" d="M 51.5,31.5 C 53.4752,31.8222 55.1418,31.8222 56.5,31.5C 57.3844,34.0232 58.2177,36.6898 59,39.5C 59.8518,38.4293 60.6851,37.4293 61.5,36.5C 62.1174,36.3893 62.6174,36.056 63,35.5C 63.4986,39.1516 63.6653,42.8183 63.5,46.5C 63.67,47.8221 63.3366,48.9887 62.5,50C 60.2305,50.7581 58.0639,50.5914 56,49.5C 53.988,43.6302 52.488,37.6302 51.5,31.5 Z"/></g>
<g><path style="opacity:0.872" fill="#202f37" d="M 82.5,31.5 C 84.2915,31.366 85.9582,31.6993 87.5,32.5C 87.5,34.8333 87.5,37.1667 87.5,39.5C 84.7198,38.8049 82.0531,37.8049 79.5,36.5C 80.6843,35.3121 80.6843,34.1455 79.5,33C 80.5266,32.4867 81.5266,31.9867 82.5,31.5 Z"/></g>
<g><path style="opacity:0.882" fill="#252e3e" d="M 40.5,32.5 C 40.6741,34.861 41.0074,37.1944 41.5,39.5C 42.6719,40.7053 44.0052,40.7053 45.5,39.5C 46.6808,41.1353 46.6808,42.802 45.5,44.5C 45.9569,45.2975 46.6236,45.6309 47.5,45.5C 46.425,49.7001 43.7583,51.2001 39.5,50C 37.1222,45.0741 35.4556,39.9075 34.5,34.5C 34.3537,32.0576 35.187,31.3909 37,32.5C 38.4985,43.1159 39.6652,43.1159 40.5,32.5 Z"/></g>
<g><path style="opacity:0.869" fill="#242d3b" d="M 87.5,32.5 C 92.645,33.311 95.3117,36.311 95.5,41.5C 94.7774,48.5525 90.7774,51.8859 83.5,51.5C 80.7737,51.3184 78.1071,50.8184 75.5,50C 73.75,48.2458 73.0833,46.0792 73.5,43.5C 78.0027,45.278 82.6693,45.778 87.5,45C 88.807,43.0565 88.807,41.2232 87.5,39.5C 87.5,37.1667 87.5,34.8333 87.5,32.5 Z"/></g>
<g><path style="opacity:0.899" fill="#242e3a" d="M 18.5,32.5 C 15.7715,33.8712 13.1048,34.7046 10.5,35C 12.7078,35.1909 14.7078,35.6909 16.5,36.5C 10.891,37.519 9.2243,40.3524 11.5,45C 12.7932,45.49 14.1266,45.6567 15.5,45.5C 15.3433,46.8734 15.51,48.2068 16,49.5C 17.5843,48.1387 19.4176,47.472 21.5,47.5C 15.9588,52.7911 10.2921,52.7911 4.5,47.5C 1.16698,37.8526 4.66698,32.5193 15,31.5C 16.3847,31.5143 17.5514,31.8476 18.5,32.5 Z"/></g>
<g><path style="opacity:1" fill="#f49b0d" d="M 97.5,57.5 C 97.1788,59.0481 96.1788,59.7148 94.5,59.5C 94.5,61.1667 94.5,62.8333 94.5,64.5C 96.2161,64.3713 97.8828,64.038 99.5,63.5C 99.5,64.5 99.5,65.5 99.5,66.5C 98.3106,70.3599 95.9773,73.3599 92.5,75.5C 92.5,74.1667 92.5,72.8333 92.5,71.5C 93.2071,68.2139 93.5405,64.8806 93.5,61.5C 89.4295,61.2338 85.4295,61.5672 81.5,62.5C 80.4173,61.635 80.2506,60.635 81,59.5C 86.3377,56.5178 91.8377,55.8511 97.5,57.5 Z"/></g>
<g><path style="opacity:0.851" fill="#fa9805" d="M -0.5,58.5 C 3.5821,59.3764 7.24877,61.0431 10.5,63.5C 10.5,64.5 10.5,65.5 10.5,66.5C 9.16667,66.5 7.83333,66.5 6.5,66.5C 3.99058,65.0787 1.65725,63.4121 -0.5,61.5C -0.5,60.5 -0.5,59.5 -0.5,58.5 Z"/></g>
<g><path style="opacity:0.944" fill="#fd9804" d="M 97.5,57.5 C 98.1667,57.5 98.8333,57.5 99.5,57.5C 99.5,59.5 99.5,61.5 99.5,63.5C 97.8828,64.038 96.2161,64.3713 94.5,64.5C 94.5,62.8333 94.5,61.1667 94.5,59.5C 96.1788,59.7148 97.1788,59.0481 97.5,57.5 Z"/></g>
<g><path style="opacity:1" fill="#f09e10" d="M 10.5,63.5 C 13.3973,64.129 16.064,65.129 18.5,66.5C 17.5,66.5 16.5,66.5 15.5,66.5C 15.5,68.1667 15.5,69.8333 15.5,71.5C 12.0078,70.5903 9.0078,68.9236 6.5,66.5C 7.83333,66.5 9.16667,66.5 10.5,66.5C 10.5,65.5 10.5,64.5 10.5,63.5 Z"/></g>
<g><path style="opacity:0.765" fill="#f39d12" d="M 88.5,64.5 C 89.7434,63.2625 90.7434,63.5959 91.5,65.5C 90.4787,67.188 89.1454,68.5213 87.5,69.5C 87.2267,67.549 87.8934,66.049 89.5,65C 89.2716,64.6012 88.9382,64.4346 88.5,64.5 Z"/></g>
<g><path style="opacity:0.996" fill="#f59b0d" d="M 18.5,66.5 C 23.6774,67.6146 28.6774,68.9479 33.5,70.5C 27.3891,69.6212 25.7224,71.6212 28.5,76.5C 23.728,75.8012 19.3947,74.1345 15.5,71.5C 15.5,69.8333 15.5,68.1667 15.5,66.5C 16.5,66.5 17.5,66.5 18.5,66.5 Z"/></g>
<g><path style="opacity:0.969" fill="#ef9c17" d="M 80.5,66.5 C 80.5,67.5 80.5,68.5 80.5,69.5C 75.8478,69.9981 71.1811,70.3314 66.5,70.5C 71.134,69.4042 75.8007,68.0709 80.5,66.5 Z"/></g>
<g><path style="opacity:0.963" fill="#fa980b" d="M 88.5,64.5 C 88.9382,64.4346 89.2716,64.6012 89.5,65C 87.8934,66.049 87.2267,67.549 87.5,69.5C 68.7827,79.9808 49.1161,82.3141 28.5,76.5C 25.7224,71.6212 27.3891,69.6212 33.5,70.5C 35.4147,70.2155 37.0813,70.5489 38.5,71.5C 38.5106,73.0174 39.1772,74.1841 40.5,75C 45.53,75.2714 50.53,75.7714 55.5,76.5C 58.1393,75.1804 60.8059,73.847 63.5,72.5C 63.3764,71.8933 63.0431,71.56 62.5,71.5C 63.5676,70.5655 64.901,70.2322 66.5,70.5C 71.1811,70.3314 75.8478,69.9981 80.5,69.5C 80.5,68.5 80.5,67.5 80.5,66.5C 83.0667,65.525 85.7334,64.8583 88.5,64.5 Z"/></g>
<g><path style="opacity:1" fill="#f49d02" d="M 38.5,71.5 C 38.8333,71.5 39.1667,71.5 39.5,71.5C 46.8553,73.9887 54.1886,73.9887 61.5,71.5C 61.8333,71.5 62.1667,71.5 62.5,71.5C 63.0431,71.56 63.3764,71.8933 63.5,72.5C 60.8059,73.847 58.1393,75.1804 55.5,76.5C 50.53,75.7714 45.53,75.2714 40.5,75C 39.1772,74.1841 38.5106,73.0174 38.5,71.5 Z"/></g>
<g><path style="opacity:1" fill="#e2a11f" d="M 39.5,71.5 C 46.8333,71.5 54.1667,71.5 61.5,71.5C 54.1886,73.9887 46.8553,73.9887 39.5,71.5 Z"/></g>
<g><path style="opacity:0.694" fill="#ec9f1e" d="M 92.5,71.5 C 92.5,72.8333 92.5,74.1667 92.5,75.5C 91.7029,76.4782 91.0362,76.1449 90.5,74.5C 90.9424,73.2613 91.6091,72.2613 92.5,71.5 Z"/></g>
</svg>
