<?xml version="1.0" encoding="UTF-8"?>
<!DOCTYPE svg PUBLIC "-//W3C//DTD SVG 1.1//EN" "http://www.w3.org/Graphics/SVG/1.1/DTD/svg11.dtd">
<svg xmlns="http://www.w3.org/2000/svg" version="1.1" width="100px" height="100px" style="shape-rendering:geometricPrecision; text-rendering:geometricPrecision; image-rendering:optimizeQuality; fill-rule:evenodd; clip-rule:evenodd" xmlns:xlink="http://www.w3.org/1999/xlink">
<g><path style="opacity:1" fill="#0f4982" d="M 35.5,2.5 C 37.3122,4.46052 38.3122,6.79385 38.5,9.5C 35.3765,10.2929 32.7098,9.29285 30.5,6.5C 29.1401,7.17994 27.8068,7.84661 26.5,8.5C 27.3274,3.34979 30.3274,1.34979 35.5,2.5 Z"/></g>
<g><path style="opacity:0.993" fill="#3bc5f0" d="M 35.5,2.5 C 46.8382,2.33348 58.1716,2.50014 69.5,3C 73.0948,9.02776 75.4282,15.5278 76.5,22.5C 74.7973,21.3398 74.1307,22.0065 74.5,24.5C 65.8667,23.6228 57.2,23.2895 48.5,23.5C 48.5086,21.6916 48.0086,20.0249 47,18.5C 46.6667,19.1667 46.3333,19.8333 46,20.5C 45.2904,19.0267 44.1238,18.3601 42.5,18.5C 41.2028,16.6287 40.2028,14.6287 39.5,12.5C 39.4431,11.391 39.1098,10.391 38.5,9.5C 38.3122,6.79385 37.3122,4.46052 35.5,2.5 Z"/></g>
<g><path style="opacity:1" fill="#0f4d90" d="M 38.5,9.5 C 39.1098,10.391 39.4431,11.391 39.5,12.5C 38.6807,15.4729 39.0141,18.4729 40.5,21.5C 40.7349,24.7732 40.4015,28.1065 39.5,31.5C 38.1667,31.5 36.8333,31.5 35.5,31.5C 35.5,30.1667 35.5,28.8333 35.5,27.5C 29.8204,27.0008 24.4871,28.0008 19.5,30.5C 21.8333,23.1667 24.1667,15.8333 26.5,8.5C 27.8068,7.84661 29.1401,7.17994 30.5,6.5C 32.7098,9.29285 35.3765,10.2929 38.5,9.5 Z"/></g>
<g><path style="opacity:1" fill="#36bdec" d="M 42.5,18.5 C 44.1238,18.3601 45.2904,19.0267 46,20.5C 46.3333,19.8333 46.6667,19.1667 47,18.5C 48.0086,20.0249 48.5086,21.6916 48.5,23.5C 57.2,23.2895 65.8667,23.6228 74.5,24.5C 74.1307,22.0065 74.7973,21.3398 76.5,22.5C 76.5,22.8333 76.5,23.1667 76.5,23.5C 75.063,24.7255 73.3964,25.7255 71.5,26.5C 73.9803,27.4154 74.6469,28.9154 73.5,31C 70.1832,31.4983 66.8499,31.665 63.5,31.5C 63.5,32.5 63.5,33.5 63.5,34.5C 60.4124,34.1966 58.7458,35.5299 58.5,38.5C 56.8762,38.6399 55.7096,37.9733 55,36.5C 54.3333,37.1667 53.6667,37.8333 53,38.5C 51.871,36.8588 50.371,35.8588 48.5,35.5C 45.7315,30.1996 43.7315,24.5329 42.5,18.5 Z"/></g>
<g><path style="opacity:0.995" fill="#0c549a" d="M 40.5,21.5 C 42.3459,27.3097 42.6792,33.3097 41.5,39.5C 42.5,39.5 43.5,39.5 44.5,39.5C 44.6893,43.6404 45.3559,47.6404 46.5,51.5C 45.3674,54.5565 44.3674,57.5565 43.5,60.5C 42.3129,58.0947 40.8129,55.7613 39,53.5C 36.8938,55.291 34.3938,55.9577 31.5,55.5C 32.1359,52.8938 32.1359,50.3938 31.5,48C 26.5,47.6667 21.5,47.3333 16.5,47C 15.1667,46.3333 15.1667,45.6667 16.5,45C 15.9056,44.5357 15.2389,44.369 14.5,44.5C 16.1883,39.7635 17.855,35.0969 19.5,30.5C 24.4871,28.0008 29.8204,27.0008 35.5,27.5C 35.5,28.8333 35.5,30.1667 35.5,31.5C 36.8333,31.5 38.1667,31.5 39.5,31.5C 40.4015,28.1065 40.7349,24.7732 40.5,21.5 Z"/></g>
<g><path style="opacity:1" fill="#35b6eb" d="M 76.5,23.5 C 79.682,29.8781 82.3486,36.5448 84.5,43.5C 82.8706,45.0603 81.704,44.727 81,42.5C 78.9774,44.0127 79.1441,45.3461 81.5,46.5C 81.1667,47.5 80.5,48.1667 79.5,48.5C 78.2638,47.7542 76.9305,47.4208 75.5,47.5C 74.4324,46.5655 73.099,46.2322 71.5,46.5C 71.5,44.1667 71.5,41.8333 71.5,39.5C 68.8333,39.5 66.1667,39.5 63.5,39.5C 63.6602,41.1992 63.4935,42.8659 63,44.5C 62.4387,45.0219 61.772,45.3552 61,45.5C 57.9992,44.0821 54.8325,43.2488 51.5,43C 51.0108,40.7908 50.0108,38.9575 48.5,37.5C 48.5,36.8333 48.5,36.1667 48.5,35.5C 50.371,35.8588 51.871,36.8588 53,38.5C 53.6667,37.8333 54.3333,37.1667 55,36.5C 55.7096,37.9733 56.8762,38.6399 58.5,38.5C 58.7458,35.5299 60.4124,34.1966 63.5,34.5C 63.5,33.5 63.5,32.5 63.5,31.5C 66.8499,31.665 70.1832,31.4983 73.5,31C 74.6469,28.9154 73.9803,27.4154 71.5,26.5C 73.3964,25.7255 75.063,24.7255 76.5,23.5 Z"/></g>
<g><path style="opacity:1" fill="#074e89" d="M 39.5,12.5 C 40.2028,14.6287 41.2028,16.6287 42.5,18.5C 43.7315,24.5329 45.7315,30.1996 48.5,35.5C 48.5,36.1667 48.5,36.8333 48.5,37.5C 49.2186,39.7638 49.552,42.0971 49.5,44.5C 48.3485,46.7791 47.3485,49.1124 46.5,51.5C 45.3559,47.6404 44.6893,43.6404 44.5,39.5C 43.5,39.5 42.5,39.5 41.5,39.5C 42.6792,33.3097 42.3459,27.3097 40.5,21.5C 39.0141,18.4729 38.6807,15.4729 39.5,12.5 Z"/></g>
<g><path style="opacity:1" fill="#34b1ea" d="M 48.5,37.5 C 50.0108,38.9575 51.0108,40.7908 51.5,43C 54.8325,43.2488 57.9992,44.0821 61,45.5C 61.772,45.3552 62.4387,45.0219 63,44.5C 63.4935,42.8659 63.6602,41.1992 63.5,39.5C 66.1667,39.5 68.8333,39.5 71.5,39.5C 71.5,41.8333 71.5,44.1667 71.5,46.5C 73.099,46.2322 74.4324,46.5655 75.5,47.5C 75.5,48.8333 75.5,50.1667 75.5,51.5C 71.5,51.5 67.5,51.5 63.5,51.5C 63.5,52.5 63.5,53.5 63.5,54.5C 60.7081,54.4521 58.8747,55.7854 58,58.5C 57.1841,57.1772 56.0174,56.5106 54.5,56.5C 52.8333,52.5 51.1667,48.5 49.5,44.5C 49.552,42.0971 49.2186,39.7638 48.5,37.5 Z"/></g>
<g><path style="opacity:0.997" fill="#31abe7" d="M 84.5,43.5 C 85.9051,47.3852 86.9051,51.3852 87.5,55.5C 86.1667,55.5 84.8333,55.5 83.5,55.5C 83.8333,58.5 82.5,59.8333 79.5,59.5C 79.7778,57.6536 79.1112,56.3202 77.5,55.5C 75.8888,56.3202 75.2222,57.6536 75.5,59.5C 74.1667,59.5 72.8333,59.5 71.5,59.5C 71.5,60.8333 71.5,62.1667 71.5,63.5C 68.8333,63.5 66.1667,63.5 63.5,63.5C 63.762,64.9778 63.4287,66.3112 62.5,67.5C 60.8888,66.6798 60.2222,65.3464 60.5,63.5C 59.5,63.5 58.5,63.5 57.5,63.5C 56.8333,63.5 56.1667,63.5 55.5,63.5C 55.552,61.0971 55.2186,58.7638 54.5,56.5C 56.0174,56.5106 57.1841,57.1772 58,58.5C 58.8747,55.7854 60.7081,54.4521 63.5,54.5C 63.5,53.5 63.5,52.5 63.5,51.5C 67.5,51.5 71.5,51.5 75.5,51.5C 75.5,50.1667 75.5,48.8333 75.5,47.5C 76.9305,47.4208 78.2638,47.7542 79.5,48.5C 80.5,48.1667 81.1667,47.5 81.5,46.5C 79.1441,45.3461 78.9774,44.0127 81,42.5C 81.704,44.727 82.8706,45.0603 84.5,43.5 Z"/></g>
<g><path style="opacity:0.999" fill="#0b5aa4" d="M 14.5,44.5 C 15.2389,44.369 15.9056,44.5357 16.5,45C 15.1667,45.6667 15.1667,46.3333 16.5,47C 21.5,47.3333 26.5,47.6667 31.5,48C 32.1359,50.3938 32.1359,52.8938 31.5,55.5C 34.3938,55.9577 36.8938,55.291 39,53.5C 40.8129,55.7613 42.3129,58.0947 43.5,60.5C 43.4431,61.609 43.1098,62.609 42.5,63.5C 37.5,63.5 32.5,63.5 27.5,63.5C 27.1667,63.5 26.8333,63.5 26.5,63.5C 23.1501,63.665 19.8168,63.4983 16.5,63C 18.4727,62.5045 20.4727,62.3379 22.5,62.5C 22.5,61.5 22.5,60.5 22.5,59.5C 19.5,59.5 16.5,59.5 13.5,59.5C 13.6347,57.4458 12.968,55.7791 11.5,54.5C 12.193,51.0585 13.193,47.7252 14.5,44.5 Z"/></g>
<g><path style="opacity:1" fill="#2ea5e5" d="M 87.5,55.5 C 88.6737,56.5137 89.3404,57.847 89.5,59.5C 88.8826,59.6107 88.3826,59.944 88,60.5C 87.5034,62.8098 87.3367,65.1432 87.5,67.5C 84.9332,68.6728 82.2666,69.8394 79.5,71C 74.5111,71.4993 69.5111,71.6659 64.5,71.5C 64.5086,73.3084 64.0086,74.9751 63,76.5C 62.564,73.6021 61.3974,71.2688 59.5,69.5C 58.6373,67.5786 57.9707,65.5786 57.5,63.5C 58.5,63.5 59.5,63.5 60.5,63.5C 60.2222,65.3464 60.8888,66.6798 62.5,67.5C 63.4287,66.3112 63.762,64.9778 63.5,63.5C 66.1667,63.5 68.8333,63.5 71.5,63.5C 71.5,62.1667 71.5,60.8333 71.5,59.5C 72.8333,59.5 74.1667,59.5 75.5,59.5C 75.2222,57.6536 75.8888,56.3202 77.5,55.5C 79.1112,56.3202 79.7778,57.6536 79.5,59.5C 82.5,59.8333 83.8333,58.5 83.5,55.5C 84.8333,55.5 86.1667,55.5 87.5,55.5 Z"/></g>
<g><path style="opacity:0.998" fill="#0960ab" d="M 11.5,54.5 C 12.968,55.7791 13.6347,57.4458 13.5,59.5C 16.5,59.5 19.5,59.5 22.5,59.5C 22.5,60.5 22.5,61.5 22.5,62.5C 20.4727,62.3379 18.4727,62.5045 16.5,63C 19.8168,63.4983 23.1501,63.665 26.5,63.5C 26.5079,66.5448 26.8413,69.5448 27.5,72.5C 28.5,72.5 29.5,72.5 30.5,72.5C 30.6741,74.861 31.0074,77.1944 31.5,79.5C 27.5,79.5 23.5,79.5 19.5,79.5C 19.5,76.8333 19.5,74.1667 19.5,71.5C 18.1667,71.5 16.8333,71.5 15.5,71.5C 15.5,72.8333 15.5,74.1667 15.5,75.5C 13.1432,75.3367 10.8098,75.5034 8.5,76C 7.34748,79.651 5.01415,82.151 1.5,83.5C 4.59309,73.6696 7.92642,64.0029 11.5,54.5 Z"/></g>
<g><path style="opacity:0.998" fill="#0275ce" d="M 27.5,63.5 C 32.5,63.5 37.5,63.5 42.5,63.5C 42.8333,63.5 43.1667,63.5 43.5,63.5C 47.2984,64.4834 51.2984,64.8168 55.5,64.5C 56.5426,68.3176 58.0426,71.9842 60,75.5C 60.0481,81.3733 60.8814,87.04 62.5,92.5C 62.8213,95.512 61.488,96.8453 58.5,96.5C 51.5,90.5 44.5,84.5 37.5,78.5C 37.719,77.325 37.3857,76.325 36.5,75.5C 31.5396,72.8853 28.5396,68.8853 27.5,63.5 Z"/></g>
<g><path style="opacity:1" fill="#2d9ee2" d="M 89.5,59.5 C 91.5012,65.5072 93.5012,71.5072 95.5,77.5C 90.3081,78.9663 84.9748,79.633 79.5,79.5C 79.5,80.5 79.5,81.5 79.5,82.5C 77.4534,82.4889 75.4534,82.1556 73.5,81.5C 72.1667,82.1667 70.8333,82.8333 69.5,83.5C 68.3527,83.1822 67.5194,82.5156 67,81.5C 66.2917,82.3805 65.4584,83.0472 64.5,83.5C 62.4622,79.0593 60.7956,74.3927 59.5,69.5C 61.3974,71.2688 62.564,73.6021 63,76.5C 64.0086,74.9751 64.5086,73.3084 64.5,71.5C 69.5111,71.6659 74.5111,71.4993 79.5,71C 82.2666,69.8394 84.9332,68.6728 87.5,67.5C 87.3367,65.1432 87.5034,62.8098 88,60.5C 88.3826,59.944 88.8826,59.6107 89.5,59.5 Z"/></g>
<g><path style="opacity:1" fill="#046bb5" d="M 43.5,63.5 C 47.5,63.5 51.5,63.5 55.5,63.5C 56.1667,63.5 56.8333,63.5 57.5,63.5C 57.9707,65.5786 58.6373,67.5786 59.5,69.5C 60.7956,74.3927 62.4622,79.0593 64.5,83.5C 64.5713,86.3113 65.238,88.978 66.5,91.5C 66.0163,93.8008 65.0163,95.8008 63.5,97.5C 61.5853,97.7845 59.9187,97.4511 58.5,96.5C 61.488,96.8453 62.8213,95.512 62.5,92.5C 60.8814,87.04 60.0481,81.3733 60,75.5C 58.0426,71.9842 56.5426,68.3176 55.5,64.5C 51.2984,64.8168 47.2984,64.4834 43.5,63.5 Z"/></g>
<g><path style="opacity:1" fill="#2a96de" d="M 95.5,77.5 C 96.8804,80.9108 98.2137,84.2441 99.5,87.5C 99.5,90.1667 99.5,92.8333 99.5,95.5C 98.7109,95.7828 98.0442,96.2828 97.5,97C 86.1716,97.4999 74.8382,97.6665 63.5,97.5C 65.0163,95.8008 66.0163,93.8008 66.5,91.5C 65.238,88.978 64.5713,86.3113 64.5,83.5C 65.4584,83.0472 66.2917,82.3805 67,81.5C 67.5194,82.5156 68.3527,83.1822 69.5,83.5C 70.8333,82.8333 72.1667,82.1667 73.5,81.5C 75.4534,82.1556 77.4534,82.4889 79.5,82.5C 79.5,81.5 79.5,80.5 79.5,79.5C 84.9748,79.633 90.3081,78.9663 95.5,77.5 Z"/></g>
<g><path style="opacity:0.987" fill="#0964b3" d="M 26.5,63.5 C 26.8333,63.5 27.1667,63.5 27.5,63.5C 28.5396,68.8853 31.5396,72.8853 36.5,75.5C 37.3857,76.325 37.719,77.325 37.5,78.5C 35.7377,83.0387 34.2377,87.7054 33,92.5C 32.4257,94.492 31.259,95.992 29.5,97C 20.1667,97.6667 10.8333,97.6667 1.5,97C 0.955796,96.2828 0.28913,95.7828 -0.5,95.5C -0.5,92.5 -0.5,89.5 -0.5,86.5C 0.40128,85.7095 1.06795,84.7095 1.5,83.5C 5.01415,82.151 7.34748,79.651 8.5,76C 10.8098,75.5034 13.1432,75.3367 15.5,75.5C 15.5,74.1667 15.5,72.8333 15.5,71.5C 16.8333,71.5 18.1667,71.5 19.5,71.5C 19.5,74.1667 19.5,76.8333 19.5,79.5C 23.5,79.5 27.5,79.5 31.5,79.5C 31.0074,77.1944 30.6741,74.861 30.5,72.5C 29.5,72.5 28.5,72.5 27.5,72.5C 26.8413,69.5448 26.5079,66.5448 26.5,63.5 Z"/></g>
</svg>
