<?xml version="1.0" encoding="UTF-8"?>
<!DOCTYPE svg PUBLIC "-//W3C//DTD SVG 1.1//EN" "http://www.w3.org/Graphics/SVG/1.1/DTD/svg11.dtd">
<svg xmlns="http://www.w3.org/2000/svg" version="1.1" width="100px" height="100px" style="shape-rendering:geometricPrecision; text-rendering:geometricPrecision; image-rendering:optimizeQuality; fill-rule:evenodd; clip-rule:evenodd" xmlns:xlink="http://www.w3.org/1999/xlink">
<g><path style="opacity:1" fill="#072e44" d="M 9.5,-0.5 C 10.1667,-0.5 10.8333,-0.5 11.5,-0.5C 23.6357,7.07177 35.9691,14.4051 48.5,21.5C 48.0629,23.0744 47.0629,24.2411 45.5,25C 42.2221,26.8091 38.8888,28.3091 35.5,29.5C 31.6797,27.3309 27.8464,24.9976 24,22.5C 23.5008,27.1548 23.3342,31.8215 23.5,36.5C 19.4933,40.1745 14.8266,42.8412 9.5,44.5C 9.5,29.5 9.5,14.5 9.5,-0.5 Z"/></g>
<g><path style="opacity:1" fill="#0a71af" d="M 85.5,42.5 C 81.4945,41.5023 78.1612,39.5023 75.5,36.5C 76.6484,32.0189 76.8151,27.3522 76,22.5C 71.3906,24.6354 67.2239,27.302 63.5,30.5C 58.6482,28.4871 54.1482,25.8204 50,22.5C 49.5006,27.8229 49.334,33.1563 49.5,38.5C 43.5,42.1667 37.5,45.8333 31.5,49.5C 24.4408,50.8573 21.7741,55.1906 23.5,62.5C 23.5,65.5 23.5,68.5 23.5,71.5C 22.5041,71.5858 21.6708,71.2524 21,70.5C 20.0327,64.6795 20.5327,59.0129 22.5,53.5C 20.8818,48.8333 17.5485,46.5 12.5,46.5C 11.1667,63.1667 11.1667,79.8333 12.5,96.5C 16.1071,95.0355 16.7738,93.0355 14.5,90.5C 19.1754,89.7229 23.842,89.0563 28.5,88.5C 23.0368,92.4035 17.3701,96.0701 11.5,99.5C 10.8333,99.5 10.1667,99.5 9.5,99.5C 9.5,81.1667 9.5,62.8333 9.5,44.5C 14.8266,42.8412 19.4933,40.1745 23.5,36.5C 27.8638,34.6563 31.8638,32.323 35.5,29.5C 38.8888,28.3091 42.2221,26.8091 45.5,25C 47.0629,24.2411 48.0629,23.0744 48.5,21.5C 58.3881,16.9495 68.0547,11.9495 77.5,6.5C 80.8158,6.37304 83.8158,5.37304 86.5,3.5C 88.3567,16.1083 88.8567,28.775 88,41.5C 87.3292,42.2524 86.4959,42.5858 85.5,42.5 Z M 75.5,36.5 C 71.7283,34.0661 67.7283,32.0661 63.5,30.5C 67.2239,27.302 71.3906,24.6354 76,22.5C 76.8151,27.3522 76.6484,32.0189 75.5,36.5 Z"/></g>
<g><path style="opacity:1" fill="#1a6b9d" d="M 88.5,-0.5 C 88.8333,-0.5 89.1667,-0.5 89.5,-0.5C 89.5,14.8333 89.5,30.1667 89.5,45.5C 88.1283,44.4884 86.795,43.4884 85.5,42.5C 86.4959,42.5858 87.3292,42.2524 88,41.5C 88.8567,28.775 88.3567,16.1083 86.5,3.5C 83.8158,5.37304 80.8158,6.37304 77.5,6.5C 80.9974,3.91696 84.6641,1.58363 88.5,-0.5 Z"/></g>
<g><path style="opacity:1" fill="#042c43" d="M 63.5,30.5 C 67.7283,32.0661 71.7283,34.0661 75.5,36.5C 78.1612,39.5023 81.4945,41.5023 85.5,42.5C 86.795,43.4884 88.1283,44.4884 89.5,45.5C 89.5,63.5 89.5,81.5 89.5,99.5C 89.1667,99.5 88.8333,99.5 88.5,99.5C 76.0739,91.7382 63.4072,84.4049 50.5,77.5C 49.218,72.219 49.218,66.8857 50.5,61.5C 54.9521,64.3927 59.6188,66.7261 64.5,68.5C 68.3529,70.6822 72.1863,73.0155 76,75.5C 76.499,71.1794 76.6657,66.8461 76.5,62.5C 76.8204,59.1016 76.487,55.7683 75.5,52.5C 72.7931,51.4215 70.1264,50.4215 67.5,49.5C 61.8697,45.3457 55.8697,41.679 49.5,38.5C 49.334,33.1563 49.5006,27.8229 50,22.5C 54.1482,25.8204 58.6482,28.4871 63.5,30.5 Z M 76.5,62.5 C 76.6657,66.8461 76.499,71.1794 76,75.5C 72.1863,73.0155 68.3529,70.6822 64.5,68.5C 68.2717,66.0661 72.2717,64.0661 76.5,62.5 Z"/></g>
<g><path style="opacity:1" fill="#072f46" d="M 31.5,49.5 C 36.9666,53.0706 42.6332,56.4039 48.5,59.5C 44.9656,63.9533 40.2989,66.9533 34.5,68.5C 30.9934,66.246 27.3267,64.246 23.5,62.5C 21.7741,55.1906 24.4408,50.8573 31.5,49.5 Z"/></g>
<g><path style="opacity:1" fill="#0271b4" d="M 23.5,71.5 C 23.281,72.675 23.6143,73.675 24.5,74.5C 25.8599,73.8201 27.1932,73.1534 28.5,72.5C 31.5,72.5 34.5,72.5 37.5,72.5C 37.6633,74.8568 37.4966,77.1902 37,79.5C 34.8999,82.0507 33.0665,84.7173 31.5,87.5C 30.609,88.1098 29.609,88.4431 28.5,88.5C 23.842,89.0563 19.1754,89.7229 14.5,90.5C 16.7738,93.0355 16.1071,95.0355 12.5,96.5C 11.1667,79.8333 11.1667,63.1667 12.5,46.5C 17.5485,46.5 20.8818,48.8333 22.5,53.5C 20.5327,59.0129 20.0327,64.6795 21,70.5C 21.6708,71.2524 22.5041,71.5858 23.5,71.5 Z"/></g>
<g><path style="opacity:1" fill="#0d72af" d="M 67.5,49.5 C 70.1264,50.4215 72.7931,51.4215 75.5,52.5C 76.487,55.7683 76.8204,59.1016 76.5,62.5C 72.2717,64.0661 68.2717,66.0661 64.5,68.5C 59.6188,66.7261 54.9521,64.3927 50.5,61.5C 49.218,66.8857 49.218,72.219 50.5,77.5C 44.0356,80.5658 37.7022,83.8991 31.5,87.5C 33.0665,84.7173 34.8999,82.0507 37,79.5C 37.4966,77.1902 37.6633,74.8568 37.5,72.5C 34.5,72.5 31.5,72.5 28.5,72.5C 30.5,71.1667 32.5,69.8333 34.5,68.5C 40.2989,66.9533 44.9656,63.9533 48.5,59.5C 49.1174,59.6107 49.6174,59.944 50,60.5C 56.1505,57.1837 61.9838,53.517 67.5,49.5 Z"/></g>
</svg>
