<?xml version="1.0" encoding="UTF-8"?>
<!DOCTYPE svg PUBLIC "-//W3C//DTD SVG 1.1//EN" "http://www.w3.org/Graphics/SVG/1.1/DTD/svg11.dtd">
<svg xmlns="http://www.w3.org/2000/svg" version="1.1" width="100px" height="100px" style="shape-rendering:geometricPrecision; text-rendering:geometricPrecision; image-rendering:optimizeQuality; fill-rule:evenodd; clip-rule:evenodd" xmlns:xlink="http://www.w3.org/1999/xlink">
<g><path style="opacity:1" fill="#010202" d="M 96.5,18.5 C 96.6666,40.1692 96.5,61.8359 96,83.5C 93.8074,89.6926 89.6407,93.8593 83.5,96C 60.8333,96.6667 38.1667,96.6667 15.5,96C 9.35925,93.8593 5.19259,89.6926 3,83.5C 2.50004,61.8359 2.33337,40.1692 2.5,18.5C 3.45943,12.0964 6.79276,7.26309 12.5,4C 24.7664,2.86267 37.0997,2.36267 49.5,2.5C 60.8333,2.66667 72.1667,2.83333 83.5,3C 90.937,5.60066 95.2703,10.7673 96.5,18.5 Z"/></g>
<g><path style="opacity:0.888" fill="#c3d0d1" d="M 14.5,-0.5 C 37.8333,-0.5 61.1667,-0.5 84.5,-0.5C 91.8333,2.16667 96.8333,7.16667 99.5,14.5C 99.5,26.8333 99.5,39.1667 99.5,51.5C 98.71,52.6085 98.21,53.9419 98,55.5C 97.8308,42.9932 97.3308,30.6599 96.5,18.5C 95.2703,10.7673 90.937,5.60066 83.5,3C 72.1667,2.83333 60.8333,2.66667 49.5,2.5C 37.0997,2.36267 24.7664,2.86267 12.5,4C 6.79276,7.26309 3.45943,12.0964 2.5,18.5C 1.51114,23.9753 1.1778,29.642 1.5,35.5C 0.833333,35.5 0.166667,35.5 -0.5,35.5C -0.5,28.5 -0.5,21.5 -0.5,14.5C 2.16667,7.16667 7.16667,2.16667 14.5,-0.5 Z"/></g>
<g><path style="opacity:1" fill="#1f292f" d="M 17.5,9.5 C 38.5026,9.33338 59.5026,9.50004 80.5,10C 83.5395,11.0314 86.0395,12.8647 88,15.5C 89.6437,36.7444 89.977,58.0778 89,79.5C 88.4212,83.0911 86.5879,85.9245 83.5,88C 61.5639,89.6339 39.5639,89.9672 17.5,89C 15.04,87.5422 12.8734,85.7089 11,83.5C 9.36666,61.8973 9.03332,40.2307 10,18.5C 11.6141,14.7229 14.1141,11.7229 17.5,9.5 Z"/></g>
<g><path style="opacity:1" fill="#0a4618" d="M 23.5,15.5 C 22.5,15.5 21.5,15.5 20.5,15.5C 20.5323,17.6188 19.5323,18.9522 17.5,19.5C 18.1116,15.547 20.1116,14.2136 23.5,15.5 Z"/></g>
<g><path style="opacity:1" fill="#0a4819" d="M 23.5,15.5 C 27.914,17.1553 28.5807,19.8219 25.5,23.5C 29.6058,27.1581 29.4391,30.4914 25,33.5C 24.7345,36.9844 23.2345,37.9844 20.5,36.5C 21.4959,36.5858 22.3292,36.2524 23,35.5C 23.7826,33.0704 24.9492,30.9038 26.5,29C 26.3333,28.1667 26.1667,27.3333 26,26.5C 23.7148,25.1811 21.5482,23.6811 19.5,22C 21.2021,20.2816 23.0355,20.115 25,21.5C 25.5,21 26,20.5 26.5,20C 24.5614,19.0922 23.5614,17.5922 23.5,15.5 Z"/></g>
<g><path style="opacity:1" fill="#1f4f31" d="M 41.5,15.5 C 38.5,15.5 35.5,15.5 32.5,15.5C 32.5,22.1667 32.5,28.8333 32.5,35.5C 35.5719,35.8174 38.5719,35.4841 41.5,34.5C 42.4596,28.2266 42.7929,21.8933 42.5,15.5C 43.4912,22.3134 43.8245,29.3134 43.5,36.5C 39.5,36.5 35.5,36.5 31.5,36.5C 31.5,29.1667 31.5,21.8333 31.5,14.5C 35.0419,14.1872 38.3752,14.5206 41.5,15.5 Z"/></g>
<g><path style="opacity:1" fill="#1f6832" d="M 41.5,15.5 C 41.8333,15.5 42.1667,15.5 42.5,15.5C 42.7929,21.8933 42.4596,28.2266 41.5,34.5C 38.5719,35.4841 35.5719,35.8174 32.5,35.5C 32.5,28.8333 32.5,22.1667 32.5,15.5C 35.5,15.5 38.5,15.5 41.5,15.5 Z"/></g>
<g><path style="opacity:1" fill="#3eb64f" d="M 23.5,15.5 C 23.5614,17.5922 24.5614,19.0922 26.5,20C 26,20.5 25.5,21 25,21.5C 23.0355,20.115 21.2021,20.2816 19.5,22C 21.5482,23.6811 23.7148,25.1811 26,26.5C 26.1667,27.3333 26.3333,28.1667 26.5,29C 24.9492,30.9038 23.7826,33.0704 23,35.5C 22.3292,36.2524 21.4959,36.5858 20.5,36.5C 20.5,35.1667 20.5,33.8333 20.5,32.5C 18.0274,32.9118 16.6941,31.9118 16.5,29.5C 18.7638,30.2186 21.0971,30.552 23.5,30.5C 23.719,29.325 23.3857,28.325 22.5,27.5C 20.5866,26.627 18.7533,25.627 17,24.5C 16.3603,22.735 16.5269,21.0683 17.5,19.5C 19.5323,18.9522 20.5323,17.6188 20.5,15.5C 21.5,15.5 22.5,15.5 23.5,15.5 Z"/></g>
<g><path style="opacity:1" fill="#9ba2a0" d="M -0.5,35.5 C 0.166667,35.5 0.833333,35.5 1.5,35.5C 2.14808,49.2086 1.48141,62.5419 -0.5,75.5C -0.5,62.1667 -0.5,48.8333 -0.5,35.5 Z"/></g>
<g><path style="opacity:0.999" fill="#727372" d="M 2.5,18.5 C 2.33337,40.1692 2.50004,61.8359 3,83.5C 5.19259,89.6926 9.35925,93.8593 15.5,96C 38.1667,96.6667 60.8333,96.6667 83.5,96C 89.6407,93.8593 93.8074,89.6926 96,83.5C 96.5,61.8359 96.6666,40.1692 96.5,18.5C 97.3308,30.6599 97.8308,42.9932 98,55.5C 98.21,53.9419 98.71,52.6085 99.5,51.5C 99.5,62.5 99.5,73.5 99.5,84.5C 96.8333,91.8333 91.8333,96.8333 84.5,99.5C 61.1667,99.5 37.8333,99.5 14.5,99.5C 7.16667,96.8333 2.16667,91.8333 -0.5,84.5C -0.5,81.5 -0.5,78.5 -0.5,75.5C 1.48141,62.5419 2.14808,49.2086 1.5,35.5C 1.1778,29.642 1.51114,23.9753 2.5,18.5 Z"/></g>
<g><path style="opacity:1" fill="#0a4514" d="M 16.5,29.5 C 16.6941,31.9118 18.0274,32.9118 20.5,32.5C 20.5,33.8333 20.5,35.1667 20.5,36.5C 17.139,34.9139 15.8056,32.5806 16.5,29.5 Z"/></g>
<g><path style="opacity:1" fill="#0a4218" d="M 17.5,19.5 C 16.5269,21.0683 16.3603,22.735 17,24.5C 18.7533,25.627 20.5866,26.627 22.5,27.5C 23.3857,28.325 23.719,29.325 23.5,30.5C 21.0971,30.552 18.7638,30.2186 16.5,29.5C 16.8039,28.8501 17.1373,28.1835 17.5,27.5C 14.9856,24.5937 14.9856,21.927 17.5,19.5 Z"/></g>
</svg>
