<?xml version="1.0" encoding="UTF-8"?>
<!DOCTYPE svg PUBLIC "-//W3C//DTD SVG 1.1//EN" "http://www.w3.org/Graphics/SVG/1.1/DTD/svg11.dtd">
<svg xmlns="http://www.w3.org/2000/svg" version="1.1" width="100px" height="100px" style="shape-rendering:geometricPrecision; text-rendering:geometricPrecision; image-rendering:optimizeQuality; fill-rule:evenodd; clip-rule:evenodd" xmlns:xlink="http://www.w3.org/1999/xlink">
<g><path style="opacity:1" fill="#fbfcfc" d="M 90.5,26.5 C 87.9174,27.2239 85.2507,28.0572 82.5,29C 73.0011,35.2505 63.3344,41.2505 53.5,47C 52,48.5 50.5,50 49,51.5C 48.3333,66.1667 48.3333,80.8333 49,95.5C 49.7172,96.0442 50.2172,96.7109 50.5,97.5C 46.2667,96.8944 42.2667,95.3944 38.5,93C 30.3324,87.7484 21.9991,82.7484 13.5,78C 11.6667,76.8333 10.1667,75.3333 9,73.5C 7.88136,65.5732 7.38136,57.5732 7.5,49.5C 7.38136,41.4268 7.88136,33.4268 9,25.5C 21.5665,16.2169 34.8999,8.21695 49,1.5C 50.8882,1.79603 52.7216,2.29603 54.5,3C 65.1667,9.33333 75.8333,15.6667 86.5,22C 88.0703,23.3968 89.4036,24.8968 90.5,26.5 Z"/></g>
<g><path style="opacity:0.976" fill="#34383c" d="M 43.5,-0.5 C 47.5,-0.5 51.5,-0.5 55.5,-0.5C 66.1003,6.80924 77.1003,13.6426 88.5,20C 90.4641,21.451 91.7974,23.2843 92.5,25.5C 91.5084,25.3284 90.8417,25.6618 90.5,26.5C 89.4036,24.8968 88.0703,23.3968 86.5,22C 75.8333,15.6667 65.1667,9.33333 54.5,3C 52.7216,2.29603 50.8882,1.79603 49,1.5C 34.8999,8.21695 21.5665,16.2169 9,25.5C 7.88136,33.4268 7.38136,41.4268 7.5,49.5C 7.38136,57.5732 7.88136,65.5732 9,73.5C 10.1667,75.3333 11.6667,76.8333 13.5,78C 21.9991,82.7484 30.3324,87.7484 38.5,93C 42.2667,95.3944 46.2667,96.8944 50.5,97.5C 50.8333,98.1667 51.1667,98.8333 51.5,99.5C 48.8333,99.5 46.1667,99.5 43.5,99.5C 31.6469,92.3171 19.8135,84.9837 8,77.5C 7.58138,76.3279 6.91471,75.3279 6,74.5C 5.33333,57.8333 5.33333,41.1667 6,24.5C 6.69238,23.9747 7.19238,23.3081 7.5,22.5C 19.5607,14.7421 31.5607,7.0754 43.5,-0.5 Z"/></g>
<g><path style="opacity:1" fill="#2a3236" d="M 92.5,25.5 C 93.1664,33.3262 93.4997,41.3262 93.5,49.5C 93.6391,58.2638 93.1391,66.9305 92,75.5C 91.5348,76.9308 90.7014,78.0975 89.5,79C 77.9046,85.6209 66.5712,92.4543 55.5,99.5C 54.1667,99.5 52.8333,99.5 51.5,99.5C 51.1667,98.8333 50.8333,98.1667 50.5,97.5C 50.2172,96.7109 49.7172,96.0442 49,95.5C 48.3333,80.8333 48.3333,66.1667 49,51.5C 50.5,50 52,48.5 53.5,47C 63.3344,41.2505 73.0011,35.2505 82.5,29C 85.2507,28.0572 87.9174,27.2239 90.5,26.5C 90.8417,25.6618 91.5084,25.3284 92.5,25.5 Z"/></g>
<g><path style="opacity:1" fill="#edf1f3" d="M 61.5,54.5 C 62.404,55.209 62.7373,56.209 62.5,57.5C 63.5,57.5 64.5,57.5 65.5,57.5C 65.5,58.8333 65.5,60.1667 65.5,61.5C 61.6509,61.0193 59.6509,62.686 59.5,66.5C 65.0001,65.8314 67.1667,68.1647 66,73.5C 64.2576,76.4005 62.7576,79.4005 61.5,82.5C 60.1585,80.9951 58.4918,80.3285 56.5,80.5C 56.5,79.1667 56.5,77.8333 56.5,76.5C 61.4786,77.35 63.4786,75.5166 62.5,71C 60.8333,70.6667 59.1667,70.3333 57.5,70C 56.8922,68.769 56.5589,67.4357 56.5,66C 58.3599,62.2887 60.0266,58.4554 61.5,54.5 Z"/></g>
<g><path style="opacity:1" fill="#253a28" d="M 75.5,77.5 C 75.3893,78.1174 75.056,78.6174 74.5,79C 72.5273,79.4955 70.5273,79.6621 68.5,79.5C 68.3505,78.448 68.5172,77.448 69,76.5C 70.8333,75.3333 72.3333,73.8333 73.5,72C 75.8098,71.5034 78.1432,71.3367 80.5,71.5C 80.5,73.1667 80.5,74.8333 80.5,76.5C 78.7839,76.6287 77.1172,76.962 75.5,77.5 Z"/></g>
<g><path style="opacity:1" fill="#56894e" d="M 75.5,77.5 C 74.4168,77.5394 73.4168,77.8728 72.5,78.5C 71.1667,77.5 71.1667,76.5 72.5,75.5C 74.5,74.5 76.5,73.5 78.5,72.5C 79.3857,73.325 79.719,74.325 79.5,75.5C 77.6203,75.2291 76.287,75.8958 75.5,77.5 Z"/></g>
</svg>
