<?xml version="1.0" encoding="UTF-8"?>
<!DOCTYPE svg PUBLIC "-//W3C//DTD SVG 1.1//EN" "http://www.w3.org/Graphics/SVG/1.1/DTD/svg11.dtd">
<svg xmlns="http://www.w3.org/2000/svg" version="1.1" width="100px" height="100px" style="shape-rendering:geometricPrecision; text-rendering:geometricPrecision; image-rendering:optimizeQuality; fill-rule:evenodd; clip-rule:evenodd" xmlns:xlink="http://www.w3.org/1999/xlink">
<g><path style="opacity:1" fill="#fd3619" d="M 32.5,-0.5 C 41.5,-0.5 50.5,-0.5 59.5,-0.5C 59.5,2.16667 59.5,4.83333 59.5,7.5C 58.1779,7.66997 57.0113,7.33663 56,6.5C 55.5172,7.44802 55.3505,8.44802 55.5,9.5C 51.1943,10.0658 50.861,10.7325 54.5,11.5C 54.5,12.5 54.5,13.5 54.5,14.5C 52.2655,13.5531 49.9322,12.8864 47.5,12.5C 41.0466,14.3236 34.3799,14.9903 27.5,14.5C 23.6536,12.0713 19.3202,10.7379 14.5,10.5C 14.6107,9.88258 14.944,9.38258 15.5,9C 18.8333,8.66667 22.1667,8.33333 25.5,8C 27.6677,5.00192 30.0011,2.16859 32.5,-0.5 Z"/></g>
<g><path style="opacity:0.995" fill="#fb2507" d="M 59.5,-0.5 C 61.5,-0.5 63.5,-0.5 65.5,-0.5C 67.8109,2.14697 70.1442,4.81364 72.5,7.5C 75.7848,8.32364 79.1182,8.82364 82.5,9C 85.6301,11.128 88.4634,13.628 91,16.5C 91.1484,18.9054 90.6484,21.2387 89.5,23.5C 90.2026,26.4412 91.2026,29.2745 92.5,32C 91.9231,33.9001 91.2565,35.7334 90.5,37.5C 87.0602,36.4144 87.0602,34.7478 90.5,32.5C 88.604,31.5344 86.604,31.2011 84.5,31.5C 82.932,28.898 81.2654,26.2313 79.5,23.5C 78.5832,22.8728 77.5832,22.5394 76.5,22.5C 76.1667,20.5 75.8333,18.5 75.5,16.5C 74.1667,16.5 72.8333,16.5 71.5,16.5C 66.2649,14.55 60.5982,13.8833 54.5,14.5C 54.5,13.5 54.5,12.5 54.5,11.5C 50.861,10.7325 51.1943,10.0658 55.5,9.5C 55.3505,8.44802 55.5172,7.44802 56,6.5C 57.0113,7.33663 58.1779,7.66997 59.5,7.5C 59.5,4.83333 59.5,2.16667 59.5,-0.5 Z"/></g>
<g><path style="opacity:0.959" fill="#f95504" d="M 14.5,10.5 C 19.3202,10.7379 23.6536,12.0713 27.5,14.5C 27.5,14.8333 27.5,15.1667 27.5,15.5C 27.5,15.8333 27.5,16.1667 27.5,16.5C 26.1667,17.5 24.8333,18.5 23.5,19.5C 21.4017,18.0374 19.4017,18.2041 17.5,20C 19.1066,21.049 19.7733,22.549 19.5,24.5C 18.1266,24.3433 16.7932,24.51 15.5,25C 15.7366,29.0675 15.9033,33.2342 16,37.5C 16.3333,38.8333 16.6667,40.1667 17,41.5C 17.3076,40.6919 17.8076,40.0253 18.5,39.5C 19.4287,40.6888 19.762,42.0222 19.5,43.5C 18.4341,44.6921 17.6008,44.3588 17,42.5C 14.8333,44 15,45.1667 17.5,46C 16.6753,47.6883 15.6753,47.8549 14.5,46.5C 13.7132,47.2421 13.0465,48.0754 12.5,49C 12.9863,51.0266 12.9863,53.1933 12.5,55.5C 10.6159,49.2919 8.78258,42.9585 7,36.5C 6.26641,32.0346 6.76641,27.7013 8.5,23.5C 7.97573,21.6175 7.30906,19.7842 6.5,18C 8.80229,16.0232 10.8023,13.6899 12.5,11C 13.0944,10.5357 13.7611,10.369 14.5,10.5 Z"/></g>
<g><path style="opacity:1" fill="#e74a2f" d="M 54.5,14.5 C 60.5982,13.8833 66.2649,14.55 71.5,16.5C 67.6375,16.4619 63.8042,16.7952 60,17.5C 56.2159,16.9049 52.5492,15.9049 49,14.5C 47.4672,14.7728 45.9672,15.1062 44.5,15.5C 38.8965,16.1066 33.2299,16.1066 27.5,15.5C 27.5,15.1667 27.5,14.8333 27.5,14.5C 34.3799,14.9903 41.0466,14.3236 47.5,12.5C 49.9322,12.8864 52.2655,13.5531 54.5,14.5 Z"/></g>
<g><path style="opacity:1" fill="#de6c5b" d="M 27.5,16.5 C 27.5,16.1667 27.5,15.8333 27.5,15.5C 33.2299,16.1066 38.8965,16.1066 44.5,15.5C 44.5,15.8333 44.5,16.1667 44.5,16.5C 38.84,17.7516 33.1733,17.7516 27.5,16.5 Z"/></g>
<g><path style="opacity:1" fill="#fdf9f7" d="M 71.5,16.5 C 71.8333,17.1667 72.1667,17.8333 72.5,18.5C 72.822,20.7224 72.1554,22.5557 70.5,24C 67.3054,24.1805 64.3054,24.6805 61.5,25.5C 59.1346,26.0084 56.8013,26.6751 54.5,27.5C 54.0244,30.7395 54.0244,34.0729 54.5,37.5C 54.5,39.8333 54.5,42.1667 54.5,44.5C 51.0479,44.1803 47.7145,44.1803 44.5,44.5C 44.1667,43.6667 43.8333,42.8333 43.5,42C 44.888,38.2818 45.888,34.4485 46.5,30.5C 46.6102,28.626 45.9436,27.126 44.5,26C 40.2841,24.7964 35.9508,24.1298 31.5,24C 27.5723,23.446 26.239,21.446 27.5,18C 32.797,18.4384 38.1303,18.4384 43.5,18C 44.056,17.6174 44.3893,17.1174 44.5,16.5C 44.5,16.1667 44.5,15.8333 44.5,15.5C 45.9672,15.1062 47.4672,14.7728 49,14.5C 52.5492,15.9049 56.2159,16.9049 60,17.5C 63.8042,16.7952 67.6375,16.4619 71.5,16.5 Z"/></g>
<g><path style="opacity:1" fill="#d94223" d="M 71.5,16.5 C 72.8333,16.5 74.1667,16.5 75.5,16.5C 75.8333,18.5 76.1667,20.5 76.5,22.5C 75.1667,21.1667 73.8333,19.8333 72.5,18.5C 72.1667,17.8333 71.8333,17.1667 71.5,16.5 Z"/></g>
<g><path style="opacity:1" fill="#feedd8" d="M 27.5,16.5 C 33.1733,17.7516 38.84,17.7516 44.5,16.5C 44.3893,17.1174 44.056,17.6174 43.5,18C 38.1303,18.4384 32.797,18.4384 27.5,18C 26.239,21.446 27.5723,23.446 31.5,24C 35.9508,24.1298 40.2841,24.7964 44.5,26C 45.9436,27.126 46.6102,28.626 46.5,30.5C 45.888,34.4485 44.888,38.2818 43.5,42C 43.8333,42.8333 44.1667,43.6667 44.5,44.5C 47.7145,44.1803 51.0479,44.1803 54.5,44.5C 54.5,42.1667 54.5,39.8333 54.5,37.5C 55.4731,39.9479 55.8064,42.6146 55.5,45.5C 53.901,45.2322 52.5676,45.5655 51.5,46.5C 48.5525,46.7771 45.7191,46.4438 43,45.5C 42.7294,39.4501 43.2294,33.4501 44.5,27.5C 42.5,27.1667 40.5,26.8333 38.5,26.5C 34.9813,25.1923 31.3147,25.1923 27.5,26.5C 29.1836,27.1497 30.5169,28.1497 31.5,29.5C 27.0148,30.1521 25.3481,28.4854 26.5,24.5C 26.1207,22.7869 25.1207,21.7869 23.5,21.5C 23.5,20.8333 23.5,20.1667 23.5,19.5C 24.8333,18.5 26.1667,17.5 27.5,16.5 Z"/></g>
<g><path style="opacity:1" fill="#fef6f1" d="M 72.5,18.5 C 73.8333,19.8333 75.1667,21.1667 76.5,22.5C 78.7068,25.5803 80.3735,28.9136 81.5,32.5C 81.3333,33.5 81.1667,34.5 81,35.5C 78.9604,37.3702 77.1271,39.3702 75.5,41.5C 73.8333,42.5 72.5,43.8333 71.5,45.5C 70.5,45.8333 69.8333,46.5 69.5,47.5C 68.4608,51.3421 68.4608,55.3421 69.5,59.5C 68.5,60.8333 67.5,62.1667 66.5,63.5C 60.509,62.5869 55.3423,59.9203 51,55.5C 51.0043,52.307 52.5043,49.9737 55.5,48.5C 62.5616,46.4585 63.395,42.7919 58,37.5C 57.3333,35.8333 57.3333,34.1667 58,32.5C 62.0812,30.4122 66.2479,28.4122 70.5,26.5C 67.5719,25.5159 64.5719,25.1826 61.5,25.5C 64.3054,24.6805 67.3054,24.1805 70.5,24C 72.1554,22.5557 72.822,20.7224 72.5,18.5 Z"/></g>
<g><path style="opacity:1" fill="#fee5cb" d="M 23.5,21.5 C 23.3657,24.7682 21.8657,27.1016 19,28.5C 18.3658,31.5547 18.5325,34.5547 19.5,37.5C 16.1461,34.7179 15.6461,31.3846 18,27.5C 19.617,25.2368 21.4503,23.2368 23.5,21.5 Z"/></g>
<g><path style="opacity:1" fill="#d1672e" d="M 38.5,26.5 C 36.8008,26.3398 35.1341,26.5065 33.5,27C 34.3805,27.7083 35.0472,28.5416 35.5,29.5C 34.1667,29.5 32.8333,29.5 31.5,29.5C 30.5169,28.1497 29.1836,27.1497 27.5,26.5C 31.3147,25.1923 34.9813,25.1923 38.5,26.5 Z"/></g>
<g><path style="opacity:1" fill="#d93e22" d="M 61.5,25.5 C 64.5719,25.1826 67.5719,25.5159 70.5,26.5C 66.2479,28.4122 62.0812,30.4122 58,32.5C 57.3333,34.1667 57.3333,35.8333 58,37.5C 63.395,42.7919 62.5616,46.4585 55.5,48.5C 54.8166,46.8235 53.4832,46.1568 51.5,46.5C 52.5676,45.5655 53.901,45.2322 55.5,45.5C 55.8064,42.6146 55.4731,39.9479 54.5,37.5C 54.0244,34.0729 54.0244,30.7395 54.5,27.5C 56.8013,26.6751 59.1346,26.0084 61.5,25.5 Z"/></g>
<g><path style="opacity:1" fill="#ed5e15" d="M 38.5,26.5 C 39.287,28.1042 40.6203,28.7709 42.5,28.5C 42.5,29.5 42.5,30.5 42.5,31.5C 41.5,31.5 40.5,31.5 39.5,31.5C 37.847,31.3404 36.5137,30.6737 35.5,29.5C 35.0472,28.5416 34.3805,27.7083 33.5,27C 35.1341,26.5065 36.8008,26.3398 38.5,26.5 Z"/></g>
<g><path style="opacity:1" fill="#fcfcf9" d="M 23.5,21.5 C 25.1207,21.7869 26.1207,22.7869 26.5,24.5C 25.3481,28.4854 27.0148,30.1521 31.5,29.5C 32.531,30.2485 33.6976,30.9152 35,31.5C 35.4221,33.3553 35.9221,35.1886 36.5,37C 34.8542,39.595 34.1875,42.4284 34.5,45.5C 32.1667,45.5 29.8333,45.5 27.5,45.5C 26.5,44.8333 25.5,44.1667 24.5,43.5C 22.8333,41.5 21.1667,39.5 19.5,37.5C 18.5325,34.5547 18.3658,31.5547 19,28.5C 21.8657,27.1016 23.3657,24.7682 23.5,21.5 Z"/></g>
<g><path style="opacity:1" fill="#ea3214" d="M 76.5,22.5 C 77.5832,22.5394 78.5832,22.8728 79.5,23.5C 81.2654,26.2313 82.932,28.898 84.5,31.5C 84.7076,33.9201 84.3742,36.2534 83.5,38.5C 80.6754,39.2548 78.0087,40.2548 75.5,41.5C 77.1271,39.3702 78.9604,37.3702 81,35.5C 81.1667,34.5 81.3333,33.5 81.5,32.5C 80.3735,28.9136 78.7068,25.5803 76.5,22.5 Z"/></g>
<g><path style="opacity:0.988" fill="#fb2603" d="M 84.5,31.5 C 86.604,31.2011 88.604,31.5344 90.5,32.5C 87.0602,34.7478 87.0602,36.4144 90.5,37.5C 87.3125,50.9167 83.8125,64.25 80,77.5C 78.2068,80.2953 76.0402,82.7953 73.5,85C 66.0855,89.3624 59.0855,94.1957 52.5,99.5C 50.5,99.5 48.5,99.5 46.5,99.5C 46.5,98.8333 46.1667,98.5 45.5,98.5C 44.2929,92.1763 44.2929,85.8429 45.5,79.5C 47.3163,80.7349 48.983,80.7349 50.5,79.5C 53.4274,78.2427 55.7607,76.2427 57.5,73.5C 62.6502,72.6726 64.6502,69.6726 63.5,64.5C 64.791,64.7373 65.791,64.404 66.5,63.5C 72.8568,60.4386 74.1901,55.7719 70.5,49.5C 70.8457,48.1508 71.179,46.8175 71.5,45.5C 72.5,43.8333 73.8333,42.5 75.5,41.5C 78.0087,40.2548 80.6754,39.2548 83.5,38.5C 84.3742,36.2534 84.7076,33.9201 84.5,31.5 Z"/></g>
<g><path style="opacity:0.989" fill="#fb5504" d="M 19.5,43.5 C 20.8333,43.5 22.1667,43.5 23.5,43.5C 23.5,45.1667 23.5,46.8333 23.5,48.5C 25.1788,48.2852 26.1788,48.9519 26.5,50.5C 26.3354,53.5184 26.502,56.5184 27,59.5C 27.3826,60.056 27.8826,60.3893 28.5,60.5C 29.423,63.2596 31.2563,65.2596 34,66.5C 34.4935,68.1341 34.6602,69.8008 34.5,71.5C 36.2161,71.6287 37.8828,71.962 39.5,72.5C 42.4735,74.1468 45.1401,76.1468 47.5,78.5C 48.209,79.404 49.209,79.7373 50.5,79.5C 48.983,80.7349 47.3163,80.7349 45.5,79.5C 44.2929,85.8429 44.2929,92.1763 45.5,98.5C 36.5907,93.1244 28.0907,87.1244 20,80.5C 16.4145,72.4912 13.9145,64.1578 12.5,55.5C 12.9863,53.1933 12.9863,51.0266 12.5,49C 13.0465,48.0754 13.7132,47.2421 14.5,46.5C 15.6753,47.8549 16.6753,47.6883 17.5,46C 15,45.1667 14.8333,44 17,42.5C 17.6008,44.3588 18.4341,44.6921 19.5,43.5 Z"/></g>
<g><path style="opacity:1" fill="#fef7ed" d="M 31.5,29.5 C 32.8333,29.5 34.1667,29.5 35.5,29.5C 36.5137,30.6737 37.847,31.3404 39.5,31.5C 40.1408,32.4822 40.8075,33.4822 41.5,34.5C 39.7458,37.5062 38.4125,40.6728 37.5,44C 40.1702,47.5179 43.5035,50.3513 47.5,52.5C 47.6085,54.5138 46.9418,56.1805 45.5,57.5C 42.1852,60.4081 38.3519,62.4081 34,63.5C 31.8077,63.1373 29.9744,62.1373 28.5,60.5C 27.121,56.7115 27.4544,53.0449 29.5,49.5C 29.2483,47.9271 28.5817,46.5938 27.5,45.5C 29.8333,45.5 32.1667,45.5 34.5,45.5C 34.1875,42.4284 34.8542,39.595 36.5,37C 35.9221,35.1886 35.4221,33.3553 35,31.5C 33.6976,30.9152 32.531,30.2485 31.5,29.5 Z"/></g>
<g><path style="opacity:1" fill="#ec6016" d="M 23.5,19.5 C 23.5,20.1667 23.5,20.8333 23.5,21.5C 21.4503,23.2368 19.617,25.2368 18,27.5C 15.6461,31.3846 16.1461,34.7179 19.5,37.5C 21.1667,39.5 22.8333,41.5 24.5,43.5C 25.259,45.4358 26.259,47.2691 27.5,49C 27.4301,49.7648 27.0967,50.2648 26.5,50.5C 26.1788,48.9519 25.1788,48.2852 23.5,48.5C 23.5,46.8333 23.5,45.1667 23.5,43.5C 22.1667,43.5 20.8333,43.5 19.5,43.5C 19.762,42.0222 19.4287,40.6888 18.5,39.5C 17.8076,40.0253 17.3076,40.6919 17,41.5C 16.6667,40.1667 16.3333,38.8333 16,37.5C 15.9033,33.2342 15.7366,29.0675 15.5,25C 16.7932,24.51 18.1266,24.3433 19.5,24.5C 19.7733,22.549 19.1066,21.049 17.5,20C 19.4017,18.2041 21.4017,18.0374 23.5,19.5 Z"/></g>
<g><path style="opacity:1" fill="#db652a" d="M 38.5,26.5 C 40.5,26.8333 42.5,27.1667 44.5,27.5C 43.2294,33.4501 42.7294,39.4501 43,45.5C 45.7191,46.4438 48.5525,46.7771 51.5,46.5C 50.4324,47.4345 49.099,47.7678 47.5,47.5C 47.5,49.1667 47.5,50.8333 47.5,52.5C 43.5035,50.3513 40.1702,47.5179 37.5,44C 38.4125,40.6728 39.7458,37.5062 41.5,34.5C 40.8075,33.4822 40.1408,32.4822 39.5,31.5C 40.5,31.5 41.5,31.5 42.5,31.5C 42.5,30.5 42.5,29.5 42.5,28.5C 40.6203,28.7709 39.287,28.1042 38.5,26.5 Z"/></g>
<g><path style="opacity:1" fill="#e16e33" d="M 24.5,43.5 C 25.5,44.1667 26.5,44.8333 27.5,45.5C 28.5817,46.5938 29.2483,47.9271 29.5,49.5C 27.4544,53.0449 27.121,56.7115 28.5,60.5C 27.8826,60.3893 27.3826,60.056 27,59.5C 26.502,56.5184 26.3354,53.5184 26.5,50.5C 27.0967,50.2648 27.4301,49.7648 27.5,49C 26.259,47.2691 25.259,45.4358 24.5,43.5 Z"/></g>
<g><path style="opacity:1" fill="#fbd1c3" d="M 69.5,47.5 C 70.4048,51.6675 70.4048,55.6675 69.5,59.5C 68.4608,55.3421 68.4608,51.3421 69.5,47.5 Z"/></g>
<g><path style="opacity:1" fill="#d83b1e" d="M 71.5,45.5 C 71.179,46.8175 70.8457,48.1508 70.5,49.5C 74.1901,55.7719 72.8568,60.4386 66.5,63.5C 67.5,62.1667 68.5,60.8333 69.5,59.5C 70.4048,55.6675 70.4048,51.6675 69.5,47.5C 69.8333,46.5 70.5,45.8333 71.5,45.5 Z"/></g>
<g><path style="opacity:1" fill="#e14218" d="M 51.5,46.5 C 53.4832,46.1568 54.8166,46.8235 55.5,48.5C 52.5043,49.9737 51.0043,52.307 51,55.5C 55.3423,59.9203 60.509,62.5869 66.5,63.5C 65.791,64.404 64.791,64.7373 63.5,64.5C 64.6502,69.6726 62.6502,72.6726 57.5,73.5C 58.9397,71.6121 60.6064,69.9454 62.5,68.5C 60.6001,66.3841 58.2668,65.0507 55.5,64.5C 52.855,62.6896 49.855,61.6896 46.5,61.5C 45.6236,61.6309 44.9569,61.2975 44.5,60.5C 45.1272,59.5832 45.4606,58.5832 45.5,57.5C 46.9418,56.1805 47.6085,54.5138 47.5,52.5C 47.5,50.8333 47.5,49.1667 47.5,47.5C 49.099,47.7678 50.4324,47.4345 51.5,46.5 Z"/></g>
<g><path style="opacity:1" fill="#ffd7c2" d="M 46.5,61.5 C 49.855,61.6896 52.855,62.6896 55.5,64.5C 52.1933,63.9492 48.8599,63.6159 45.5,63.5C 45.8333,62.8333 46.1667,62.1667 46.5,61.5 Z"/></g>
<g><path style="opacity:1" fill="#e26023" d="M 45.5,57.5 C 45.4606,58.5832 45.1272,59.5832 44.5,60.5C 44.9569,61.2975 45.6236,61.6309 46.5,61.5C 46.1667,62.1667 45.8333,62.8333 45.5,63.5C 41.6422,64.0956 38.3089,65.7622 35.5,68.5C 37.188,69.5213 38.5213,70.8546 39.5,72.5C 37.8828,71.962 36.2161,71.6287 34.5,71.5C 34.6602,69.8008 34.4935,68.1341 34,66.5C 31.2563,65.2596 29.423,63.2596 28.5,60.5C 29.9744,62.1373 31.8077,63.1373 34,63.5C 38.3519,62.4081 42.1852,60.4081 45.5,57.5 Z"/></g>
<g><path style="opacity:1" fill="#fff4ec" d="M 45.5,63.5 C 48.8599,63.6159 52.1933,63.9492 55.5,64.5C 58.2668,65.0507 60.6001,66.3841 62.5,68.5C 60.6064,69.9454 58.9397,71.6121 57.5,73.5C 54.6306,76.0221 51.2972,77.6888 47.5,78.5C 45.1401,76.1468 42.4735,74.1468 39.5,72.5C 38.5213,70.8546 37.188,69.5213 35.5,68.5C 38.3089,65.7622 41.6422,64.0956 45.5,63.5 Z"/></g>
<g><path style="opacity:1" fill="#dc4929" d="M 57.5,73.5 C 55.7607,76.2427 53.4274,78.2427 50.5,79.5C 49.209,79.7373 48.209,79.404 47.5,78.5C 51.2972,77.6888 54.6306,76.0221 57.5,73.5 Z"/></g>
</svg>
