<?xml version="1.0" encoding="UTF-8"?>
<!DOCTYPE svg PUBLIC "-//W3C//DTD SVG 1.1//EN" "http://www.w3.org/Graphics/SVG/1.1/DTD/svg11.dtd">
<svg xmlns="http://www.w3.org/2000/svg" version="1.1" width="100px" height="100px" style="shape-rendering:geometricPrecision; text-rendering:geometricPrecision; image-rendering:optimizeQuality; fill-rule:evenodd; clip-rule:evenodd" xmlns:xlink="http://www.w3.org/1999/xlink">
<g><path style="opacity:0.723" fill="#0d0b09" d="M 92.5,35.5 C 91.2947,36.6719 91.2947,38.0052 92.5,39.5C 92.1445,40.5223 91.4778,41.189 90.5,41.5C 87.5558,35.0388 83.2225,29.5388 77.5,25C 69.6073,20.2226 61.6073,15.7226 53.5,11.5C 48.014,7.58518 42.6807,7.91851 37.5,12.5C 28.6181,17.2134 20.1181,22.5467 12,28.5C 2.0856,39.2429 0.252263,51.2429 6.5,64.5C 5.39105,64.5569 4.39105,64.8902 3.5,65.5C 1.98618,63.636 0.652846,61.636 -0.5,59.5C -0.5,53.1667 -0.5,46.8333 -0.5,40.5C 2.90499,32.8975 7.90499,26.3975 14.5,21C 23.1667,16 31.8333,11 40.5,6C 44.8333,5.33333 49.1667,5.33333 53.5,6C 62.1988,11.0138 70.8655,16.0138 79.5,21C 82.3588,23.5288 85.1921,26.0288 88,28.5C 90.1102,30.443 91.6102,32.7764 92.5,35.5 Z"/></g>
<g><path style="opacity:1" fill="#f9eddd" d="M 48.5,27.5 C 47.1716,28.9097 47.5049,30.0764 49.5,31C 47.8934,32.049 47.2267,33.549 47.5,35.5C 52.8333,35.5 58.1667,35.5 63.5,35.5C 63.5,34.1667 63.5,32.8333 63.5,31.5C 64.8333,31.5 66.1667,31.5 67.5,31.5C 67.3359,34.1873 67.5026,36.854 68,39.5C 68.6667,40.8333 69.3333,40.8333 70,39.5C 70.7796,41.3869 70.6129,43.0536 69.5,44.5C 66.7946,40.8298 63.1279,39.6631 58.5,41C 55.6579,45.4276 55.9912,49.5943 59.5,53.5C 58.2511,55.8285 58.9177,57.6618 61.5,59C 65.572,59.9559 69.4054,59.4559 73,57.5C 73.6128,55.5048 73.1128,53.8381 71.5,52.5C 72.4959,52.5858 73.3292,52.2524 74,51.5C 74.7835,54.7603 74.6168,57.9269 73.5,61C 68.4456,61.781 63.4456,61.6143 58.5,60.5C 57.2888,61.2739 57.2888,62.1072 58.5,63C 57.4335,65.012 56.1002,65.512 54.5,64.5C 55.9395,62.412 56.6061,60.0786 56.5,57.5C 55.5,57.5 54.5,57.5 53.5,57.5C 52.5539,54.6874 50.5539,53.354 47.5,53.5C 47.5,51.5 47.5,49.5 47.5,47.5C 45.396,47.7989 43.396,47.4656 41.5,46.5C 40.2552,42.9355 38.2552,39.9355 35.5,37.5C 34.9241,34.393 34.9241,31.393 35.5,28.5C 39.3298,27.5147 42.1631,25.1813 44,21.5C 44.1764,18.1182 44.6764,14.7848 45.5,11.5C 48.2519,16.3971 49.2519,21.7304 48.5,27.5 Z"/></g>
<g><path style="opacity:1" fill="#d2c8b7" d="M 53.5,11.5 C 53.0618,11.4346 52.7284,11.6012 52.5,12C 58.2433,15.3162 60.2433,20.1496 58.5,26.5C 57.5306,19.8742 54.1973,14.8742 48.5,11.5C 48.1667,11.6667 47.8333,11.8333 47.5,12C 52.1597,17.4507 52.6597,23.284 49,29.5C 48.5357,28.9056 48.369,28.2389 48.5,27.5C 49.2519,21.7304 48.2519,16.3971 45.5,11.5C 44.6764,14.7848 44.1764,18.1182 44,21.5C 42.1631,25.1813 39.3298,27.5147 35.5,28.5C 40.2829,24.2675 42.9496,18.9342 43.5,12.5C 42.675,11.6143 41.675,11.281 40.5,11.5C 39.9632,20.7055 35.2966,25.3721 26.5,25.5C 32.106,22.8946 36.4394,18.8946 39.5,13.5C 39.0431,12.7025 38.3764,12.3691 37.5,12.5C 42.6807,7.91851 48.014,7.58518 53.5,11.5 Z"/></g>
<g><path style="opacity:1" fill="#f6eddd" d="M 35.5,28.5 C 34.9241,31.393 34.9241,34.393 35.5,37.5C 32.9223,38.2541 30.2556,38.2541 27.5,37.5C 27.5,38.5 27.5,39.5 27.5,40.5C 25.1289,42.9966 24.1289,45.9966 24.5,49.5C 23.5774,51.7592 22.2441,53.7592 20.5,55.5C 20.4534,57.0377 21.1201,58.0377 22.5,58.5C 22.9373,65.2838 23.9373,71.9505 25.5,78.5C 24.5,78.5 23.5,78.5 22.5,78.5C 15.5835,75.5799 10.2502,70.9132 6.5,64.5C 0.252263,51.2429 2.0856,39.2429 12,28.5C 20.1181,22.5467 28.6181,17.2134 37.5,12.5C 38.3764,12.3691 39.0431,12.7025 39.5,13.5C 36.4394,18.8946 32.106,22.8946 26.5,25.5C 35.2966,25.3721 39.9632,20.7055 40.5,11.5C 41.675,11.281 42.675,11.6143 43.5,12.5C 42.9496,18.9342 40.2829,24.2675 35.5,28.5 Z"/></g>
<g><path style="opacity:0.883" fill="#060404" d="M 92.5,35.5 C 93.3764,35.3691 94.0431,35.7025 94.5,36.5C 95.9409,39.7235 97.6076,42.7235 99.5,45.5C 99.5,51.8333 99.5,58.1667 99.5,64.5C 90.0142,83.9984 74.1808,93.665 52,93.5C 30.2999,93.3581 14.1332,84.0247 3.5,65.5C 4.39105,64.8902 5.39105,64.5569 6.5,64.5C 10.2502,70.9132 15.5835,75.5799 22.5,78.5C 30.1046,83.0255 38.4379,85.0255 47.5,84.5C 54.4024,85.1773 60.7357,83.844 66.5,80.5C 79.7946,76.2662 87.7946,67.2662 90.5,53.5C 90.5,49.5 90.5,45.5 90.5,41.5C 91.4778,41.189 92.1445,40.5223 92.5,39.5C 91.2947,38.0052 91.2947,36.6719 92.5,35.5 Z"/></g>
<g><path style="opacity:1" fill="#f7efde" d="M 53.5,11.5 C 61.6073,15.7226 69.6073,20.2226 77.5,25C 83.2225,29.5388 87.5558,35.0388 90.5,41.5C 90.5,45.5 90.5,49.5 90.5,53.5C 88.9261,51.8984 88.2594,49.8984 88.5,47.5C 85.5,47.5 82.5,47.5 79.5,47.5C 78.8405,50.8248 78.1738,54.1581 77.5,57.5C 77.7163,59.3839 78.383,61.0506 79.5,62.5C 78.3112,63.4287 76.9778,63.762 75.5,63.5C 75.7188,59.5156 75.7188,55.6823 75.5,52C 77.1066,50.951 77.7733,49.451 77.5,47.5C 75.4004,47.4772 73.5671,48.1439 72,49.5C 71.0979,49.2568 70.2646,48.9234 69.5,48.5C 69.5,47.1667 69.5,45.8333 69.5,44.5C 70.6129,43.0536 70.7796,41.3869 70,39.5C 69.3333,40.8333 68.6667,40.8333 68,39.5C 67.5026,36.854 67.3359,34.1873 67.5,31.5C 66.1667,31.5 64.8333,31.5 63.5,31.5C 63.5,32.8333 63.5,34.1667 63.5,35.5C 58.1667,35.5 52.8333,35.5 47.5,35.5C 47.2267,33.549 47.8934,32.049 49.5,31C 47.5049,30.0764 47.1716,28.9097 48.5,27.5C 48.369,28.2389 48.5357,28.9056 49,29.5C 52.6597,23.284 52.1597,17.4507 47.5,12C 47.8333,11.8333 48.1667,11.6667 48.5,11.5C 54.1973,14.8742 57.5306,19.8742 58.5,26.5C 60.2433,20.1496 58.2433,15.3162 52.5,12C 52.7284,11.6012 53.0618,11.4346 53.5,11.5 Z"/></g>
<g><path style="opacity:1" fill="#151210" d="M 27.5,40.5 C 31.5164,39.8999 35.0164,40.8999 38,43.5C 39.4418,48.2768 37.9418,51.6102 33.5,53.5C 29.3791,54.3419 26.3791,53.0085 24.5,49.5C 24.1289,45.9966 25.1289,42.9966 27.5,40.5 Z"/></g>
<g><path style="opacity:1" fill="#110d0c" d="M 69.5,44.5 C 69.5,45.8333 69.5,47.1667 69.5,48.5C 69.5,48.8333 69.5,49.1667 69.5,49.5C 67.2629,53.0929 63.9296,54.4263 59.5,53.5C 55.9912,49.5943 55.6579,45.4276 58.5,41C 63.1279,39.6631 66.7946,40.8298 69.5,44.5 Z"/></g>
<g><path style="opacity:1" fill="#dadada" d="M 58.5,42.5 C 62.1378,41.7366 63.6378,43.0699 63,46.5C 58.4155,48.4126 56.9155,47.0793 58.5,42.5 Z"/></g>
<g><path style="opacity:1" fill="#e3e3e0" d="M 27.5,42.5 C 28.8333,42.5 30.1667,42.5 31.5,42.5C 31.5,44.1667 31.5,45.8333 31.5,47.5C 27.065,48.0776 25.7317,46.4109 27.5,42.5 Z"/></g>
<g><path style="opacity:1" fill="#f4bdc8" d="M 24.5,49.5 C 26.3791,53.0085 29.3791,54.3419 33.5,53.5C 32.7375,54.2679 31.7375,54.7679 30.5,55C 31.3802,56.3561 31.7135,57.8561 31.5,59.5C 28.3915,59.7359 25.3915,59.4025 22.5,58.5C 21.1201,58.0377 20.4534,57.0377 20.5,55.5C 22.2441,53.7592 23.5774,51.7592 24.5,49.5 Z"/></g>
<g><path style="opacity:1" fill="#f3bec7" d="M 69.5,49.5 C 69.7822,50.7777 70.4489,51.7777 71.5,52.5C 73.1128,53.8381 73.6128,55.5048 73,57.5C 69.4054,59.4559 65.572,59.9559 61.5,59C 58.9177,57.6618 58.2511,55.8285 59.5,53.5C 63.9296,54.4263 67.2629,53.0929 69.5,49.5 Z"/></g>
<g><path style="opacity:1" fill="#f6e7db" d="M 35.5,37.5 C 38.2552,39.9355 40.2552,42.9355 41.5,46.5C 43.396,47.4656 45.396,47.7989 47.5,47.5C 47.5,49.5 47.5,51.5 47.5,53.5C 50.5539,53.354 52.5539,54.6874 53.5,57.5C 48.4889,57.3341 43.4889,57.5007 38.5,58C 37.7236,59.7698 37.8903,61.6031 39,63.5C 43.8182,69.8299 48.9849,70.1633 54.5,64.5C 54.5394,65.5832 54.8728,66.5832 55.5,67.5C 53.3279,68.2048 51.3279,69.2048 49.5,70.5C 45.3163,69.8452 41.1497,69.5118 37,69.5C 34.0647,71.1916 30.8981,71.8583 27.5,71.5C 27.5,74.1667 27.5,76.8333 27.5,79.5C 40.803,79.9183 53.803,80.2517 66.5,80.5C 60.7357,83.844 54.4024,85.1773 47.5,84.5C 38.4379,85.0255 30.1046,83.0255 22.5,78.5C 23.5,78.5 24.5,78.5 25.5,78.5C 23.9373,71.9505 22.9373,65.2838 22.5,58.5C 25.3915,59.4025 28.3915,59.7359 31.5,59.5C 31.7135,57.8561 31.3802,56.3561 30.5,55C 31.7375,54.7679 32.7375,54.2679 33.5,53.5C 37.9418,51.6102 39.4418,48.2768 38,43.5C 35.0164,40.8999 31.5164,39.8999 27.5,40.5C 27.5,39.5 27.5,38.5 27.5,37.5C 30.2556,38.2541 32.9223,38.2541 35.5,37.5 Z"/></g>
<g><path style="opacity:1" fill="#331414" d="M 53.5,57.5 C 54.5,57.5 55.5,57.5 56.5,57.5C 56.6061,60.0786 55.9395,62.412 54.5,64.5C 48.9849,70.1633 43.8182,69.8299 39,63.5C 37.8903,61.6031 37.7236,59.7698 38.5,58C 43.4889,57.5007 48.4889,57.3341 53.5,57.5 Z"/></g>
<g><path style="opacity:1" fill="#61161a" d="M 52.5,63.5 C 49.1667,60.8333 45.8333,60.8333 42.5,63.5C 41.3398,62.735 40.3398,61.735 39.5,60.5C 44.456,59.5059 49.456,59.1725 54.5,59.5C 54.4729,61.1993 53.8062,62.5326 52.5,63.5 Z"/></g>
<g><path style="opacity:1" fill="#c96164" d="M 52.5,63.5 C 50.089,66.4504 47.089,67.1171 43.5,65.5C 42.7025,65.0431 42.3691,64.3764 42.5,63.5C 45.8333,60.8333 49.1667,60.8333 52.5,63.5 Z"/></g>
<g><path style="opacity:1" fill="#f9eddc" d="M 90.5,53.5 C 87.7946,67.2662 79.7946,76.2662 66.5,80.5C 53.803,80.2517 40.803,79.9183 27.5,79.5C 27.5,76.8333 27.5,74.1667 27.5,71.5C 30.8981,71.8583 34.0647,71.1916 37,69.5C 41.1497,69.5118 45.3163,69.8452 49.5,70.5C 51.3279,69.2048 53.3279,68.2048 55.5,67.5C 54.8728,66.5832 54.5394,65.5832 54.5,64.5C 56.1002,65.512 57.4335,65.012 58.5,63C 57.2888,62.1072 57.2888,61.2739 58.5,60.5C 63.4456,61.6143 68.4456,61.781 73.5,61C 74.6168,57.9269 74.7835,54.7603 74,51.5C 73.3292,52.2524 72.4959,52.5858 71.5,52.5C 70.4489,51.7777 69.7822,50.7777 69.5,49.5C 69.5,49.1667 69.5,48.8333 69.5,48.5C 70.2646,48.9234 71.0979,49.2568 72,49.5C 73.5671,48.1439 75.4004,47.4772 77.5,47.5C 77.7733,49.451 77.1066,50.951 75.5,52C 75.7188,55.6823 75.7188,59.5156 75.5,63.5C 76.9778,63.762 78.3112,63.4287 79.5,62.5C 78.383,61.0506 77.7163,59.3839 77.5,57.5C 78.1738,54.1581 78.8405,50.8248 79.5,47.5C 82.5,47.5 85.5,47.5 88.5,47.5C 88.2594,49.8984 88.9261,51.8984 90.5,53.5 Z"/></g>
</svg>
