<?xml version="1.0" encoding="UTF-8"?>
<!DOCTYPE svg PUBLIC "-//W3C//DTD SVG 1.1//EN" "http://www.w3.org/Graphics/SVG/1.1/DTD/svg11.dtd">
<svg xmlns="http://www.w3.org/2000/svg" version="1.1" width="100px" height="100px" style="shape-rendering:geometricPrecision; text-rendering:geometricPrecision; image-rendering:optimizeQuality; fill-rule:evenodd; clip-rule:evenodd" xmlns:xlink="http://www.w3.org/1999/xlink">
<g><path style="opacity:0.995" fill="#669acf" d="M 43.5,-0.5 C 47.1667,-0.5 50.8333,-0.5 54.5,-0.5C 66.1561,7.12162 78.1561,14.2883 90.5,21C 91.7101,22.0391 92.7101,23.2058 93.5,24.5C 93.1667,24.5 92.8333,24.5 92.5,24.5C 86.0031,27.9141 79.6697,31.5808 73.5,35.5C 73.3577,32.383 72.0244,29.883 69.5,28C 53.6456,15.835 38.8123,17.0017 25,31.5C 18.3,42.5651 17.8,53.8984 23.5,65.5C 17.0565,68.2213 10.7231,71.2213 4.5,74.5C 4.3334,57.4967 4.50006,40.4967 5,23.5C 17.7404,15.241 30.5738,7.24098 43.5,-0.5 Z"/></g>
<g><path style="opacity:1" fill="#f6fbfc" d="M 73.5,35.5 C 69.8333,37.5 66.1667,39.5 62.5,41.5C 52.528,31.9581 43.3614,32.6248 35,43.5C 34.3333,47.5 34.3333,51.5 35,55.5C 35.2784,56.4158 35.7784,57.0825 36.5,57.5C 44.1225,66.4356 52.1225,66.7689 60.5,58.5C 61.1499,58.1961 61.8165,57.8627 62.5,57.5C 66.9755,59.7175 70.9755,62.3841 74.5,65.5C 63.2672,79.3021 49.6005,82.4688 33.5,75C 29.6393,72.3039 26.306,69.1373 23.5,65.5C 17.8,53.8984 18.3,42.5651 25,31.5C 38.8123,17.0017 53.6456,15.835 69.5,28C 72.0244,29.883 73.3577,32.383 73.5,35.5 Z"/></g>
<g><path style="opacity:1" fill="#085999" d="M 92.5,24.5 C 92.5817,31.8578 92.2484,39.1912 91.5,46.5C 90.5,46.5 89.5,46.5 88.5,46.5C 88.5,45.5 88.5,44.5 88.5,43.5C 86.901,43.2322 85.5676,43.5655 84.5,44.5C 84.5,45.5 84.5,46.5 84.5,47.5C 83.1667,47.5 81.8333,47.5 80.5,47.5C 80.1568,49.4832 80.8235,50.8166 82.5,51.5C 82.5,52.8333 82.5,54.1667 82.5,55.5C 85.4658,55.8897 88.1324,55.223 90.5,53.5C 91.1301,60.3087 91.7968,67.3087 92.5,74.5C 86.7693,70.968 80.7693,67.968 74.5,65.5C 70.9755,62.3841 66.9755,59.7175 62.5,57.5C 61.8165,57.8627 61.1499,58.1961 60.5,58.5C 58.2187,53.4869 54.2187,50.8202 48.5,50.5C 53.1667,47.5 57.8333,44.5 62.5,41.5C 66.1667,39.5 69.8333,37.5 73.5,35.5C 79.6697,31.5808 86.0031,27.9141 92.5,24.5 Z"/></g>
<g><path style="opacity:1" fill="#669acd" d="M 62.5,41.5 C 57.8333,44.5 53.1667,47.5 48.5,50.5C 43.9758,52.0435 39.9758,54.3768 36.5,57.5C 35.7784,57.0825 35.2784,56.4158 35,55.5C 34.3333,51.5 34.3333,47.5 35,43.5C 43.3614,32.6248 52.528,31.9581 62.5,41.5 Z"/></g>
<g><path style="opacity:1" fill="#9ec6e9" d="M 75.5,47.5 C 74.8485,46.9094 74.1818,46.2427 73.5,45.5C 72.8182,46.2427 72.1515,46.9094 71.5,47.5C 71.5,46.5 71.5,45.5 71.5,44.5C 72.8333,44.5 74.1667,44.5 75.5,44.5C 75.5,45.5 75.5,46.5 75.5,47.5 Z"/></g>
<g><path style="opacity:1" fill="#15588b" d="M 92.5,24.5 C 92.8333,24.5 93.1667,24.5 93.5,24.5C 93.8299,41.6749 93.4966,58.6749 92.5,75.5C 92.5,75.1667 92.5,74.8333 92.5,74.5C 91.7968,67.3087 91.1301,60.3087 90.5,53.5C 88.1324,55.223 85.4658,55.8897 82.5,55.5C 82.5,54.1667 82.5,52.8333 82.5,51.5C 83.1667,52.5 83.8333,53.5 84.5,54.5C 85.5,54.5 86.5,54.5 87.5,54.5C 88.404,53.791 88.7373,52.791 88.5,51.5C 89.5,51.5 90.5,51.5 91.5,51.5C 91.5,50.1667 91.5,48.8333 91.5,47.5C 90.1667,47.5 88.8333,47.5 87.5,47.5C 87.5,46.5 87.5,45.5 87.5,44.5C 86.5,44.5 85.5,44.5 84.5,44.5C 85.5676,43.5655 86.901,43.2322 88.5,43.5C 88.5,44.5 88.5,45.5 88.5,46.5C 89.5,46.5 90.5,46.5 91.5,46.5C 92.2484,39.1912 92.5817,31.8578 92.5,24.5 Z"/></g>
<g><path style="opacity:1" fill="#ddf3fb" d="M 75.5,47.5 C 76.5,47.5 77.5,47.5 78.5,47.5C 78.5,48.8333 78.5,50.1667 78.5,51.5C 77.5,51.5 76.5,51.5 75.5,51.5C 75.5,52.5 75.5,53.5 75.5,54.5C 74.5,54.5 73.5,54.5 72.5,54.5C 72.7373,53.209 72.404,52.209 71.5,51.5C 70.9094,50.8485 70.2427,50.1818 69.5,49.5C 70.2427,48.8182 70.9094,48.1515 71.5,47.5C 72.1515,46.9094 72.8182,46.2427 73.5,45.5C 74.1818,46.2427 74.8485,46.9094 75.5,47.5 Z"/></g>
<g><path style="opacity:1" fill="#6d9ec0" d="M 84.5,47.5 C 83.6016,48.1577 82.6016,48.8243 81.5,49.5C 82.325,50.3857 83.325,50.719 84.5,50.5C 84.5,51.8333 84.5,53.1667 84.5,54.5C 83.8333,53.5 83.1667,52.5 82.5,51.5C 80.8235,50.8166 80.1568,49.4832 80.5,47.5C 81.8333,47.5 83.1667,47.5 84.5,47.5 Z"/></g>
<g><path style="opacity:1" fill="#e3fafe" d="M 84.5,44.5 C 85.5,44.5 86.5,44.5 87.5,44.5C 87.5,45.5 87.5,46.5 87.5,47.5C 88.3984,48.1577 89.3984,48.8243 90.5,49.5C 89.675,50.3857 88.675,50.719 87.5,50.5C 87.5,51.8333 87.5,53.1667 87.5,54.5C 86.5,54.5 85.5,54.5 84.5,54.5C 84.5,53.1667 84.5,51.8333 84.5,50.5C 83.325,50.719 82.325,50.3857 81.5,49.5C 82.6016,48.8243 83.6016,48.1577 84.5,47.5C 84.5,46.5 84.5,45.5 84.5,44.5 Z"/></g>
<g><path style="opacity:1" fill="#7badd1" d="M 87.5,47.5 C 88.8333,47.5 90.1667,47.5 91.5,47.5C 91.5,48.8333 91.5,50.1667 91.5,51.5C 90.5,51.5 89.5,51.5 88.5,51.5C 88.7373,52.791 88.404,53.791 87.5,54.5C 87.5,53.1667 87.5,51.8333 87.5,50.5C 88.675,50.719 89.675,50.3857 90.5,49.5C 89.3984,48.8243 88.3984,48.1577 87.5,47.5 Z"/></g>
<g><path style="opacity:1" fill="#94cbed" d="M 71.5,47.5 C 70.9094,48.1515 70.2427,48.8182 69.5,49.5C 70.2427,50.1818 70.9094,50.8485 71.5,51.5C 70.5,51.5 69.5,51.5 68.5,51.5C 68.5,50.1667 68.5,48.8333 68.5,47.5C 69.5,47.5 70.5,47.5 71.5,47.5 Z"/></g>
<g><path style="opacity:1" fill="#0c4780" d="M 48.5,50.5 C 54.2187,50.8202 58.2187,53.4869 60.5,58.5C 52.1225,66.7689 44.1225,66.4356 36.5,57.5C 39.9758,54.3768 43.9758,52.0435 48.5,50.5 Z"/></g>
<g><path style="opacity:1" fill="#014381" d="M 28.5,89.5 C 26.1815,89.0075 24.1815,88.0075 22.5,86.5C 22.1062,85.0328 21.7728,83.5328 21.5,82C 23.4863,77.8671 24.4863,73.7004 24.5,69.5C 27.1307,73.4187 30.464,76.5854 34.5,79C 42.1128,80.2616 49.7795,80.7616 57.5,80.5C 57.5,82.8333 57.5,85.1667 57.5,87.5C 54.5656,88.2877 51.5656,88.9544 48.5,89.5C 45.7214,89.08 43.0547,88.4133 40.5,87.5C 40.3573,89.2624 40.6906,90.9291 41.5,92.5C 41.1924,93.3081 40.6924,93.9747 40,94.5C 38.5996,92.1591 38.0996,89.8258 38.5,87.5C 37.4495,88.8848 36.1161,89.8848 34.5,90.5C 32.5914,89.6518 30.5914,89.3184 28.5,89.5 Z"/></g>
<g><path style="opacity:0.986" fill="#06457e" d="M 23.5,65.5 C 26.306,69.1373 29.6393,72.3039 33.5,75C 49.6005,82.4688 63.2672,79.3021 74.5,65.5C 80.7693,67.968 86.7693,70.968 92.5,74.5C 92.5,74.8333 92.5,75.1667 92.5,75.5C 81.9452,83.366 70.6118,90.0326 58.5,95.5C 56.4677,94.9522 55.4677,93.6188 55.5,91.5C 51.1906,91.244 47.1906,92.244 43.5,94.5C 44.0253,95.1924 44.6919,95.6924 45.5,96C 44.4293,96.8518 43.4293,97.6851 42.5,98.5C 37.83,95.4988 33.1634,92.4988 28.5,89.5C 30.5914,89.3184 32.5914,89.6518 34.5,90.5C 36.1161,89.8848 37.4495,88.8848 38.5,87.5C 38.0996,89.8258 38.5996,92.1591 40,94.5C 40.6924,93.9747 41.1924,93.3081 41.5,92.5C 40.6906,90.9291 40.3573,89.2624 40.5,87.5C 43.0547,88.4133 45.7214,89.08 48.5,89.5C 51.5656,88.9544 54.5656,88.2877 57.5,87.5C 57.5,85.1667 57.5,82.8333 57.5,80.5C 49.7795,80.7616 42.1128,80.2616 34.5,79C 30.464,76.5854 27.1307,73.4187 24.5,69.5C 24.4863,73.7004 23.4863,77.8671 21.5,82C 21.7728,83.5328 22.1062,85.0328 22.5,86.5C 15.854,83.4054 9.85401,79.4054 4.5,74.5C 10.7231,71.2213 17.0565,68.2213 23.5,65.5 Z"/></g>
<g><path style="opacity:0.957" fill="#004383" d="M 58.5,95.5 C 57.1667,96.8333 55.8333,98.1667 54.5,99.5C 50.8333,99.5 47.1667,99.5 43.5,99.5C 43.5,98.8333 43.1667,98.5 42.5,98.5C 43.4293,97.6851 44.4293,96.8518 45.5,96C 44.6919,95.6924 44.0253,95.1924 43.5,94.5C 47.1906,92.244 51.1906,91.244 55.5,91.5C 55.4677,93.6188 56.4677,94.9522 58.5,95.5 Z"/></g>
</svg>
