<?xml version="1.0" encoding="UTF-8"?>
<!DOCTYPE svg PUBLIC "-//W3C//DTD SVG 1.1//EN" "http://www.w3.org/Graphics/SVG/1.1/DTD/svg11.dtd">
<svg xmlns="http://www.w3.org/2000/svg" version="1.1" width="100px" height="100px" style="shape-rendering:geometricPrecision; text-rendering:geometricPrecision; image-rendering:optimizeQuality; fill-rule:evenodd; clip-rule:evenodd" xmlns:xlink="http://www.w3.org/1999/xlink">
<g><path style="opacity:0.996" fill="#669ace" d="M 45.5,-0.5 C 48.1667,-0.5 50.8333,-0.5 53.5,-0.5C 66.8333,7.5 80.1667,15.5 93.5,23.5C 88.7015,26.737 83.7015,29.737 78.5,32.5C 66.4471,16.1533 51.1138,12.32 32.5,21C 16.4042,32.5486 12.4042,47.382 20.5,65.5C 15.1667,68.5 9.83333,71.5 4.5,74.5C 4.3334,57.4967 4.50006,40.4967 5,23.5C 18.6457,15.5997 32.1457,7.59974 45.5,-0.5 Z"/></g>
<g><path style="opacity:1" fill="#f9fdfd" d="M 78.5,32.5 C 73.6318,35.4338 68.6318,38.1005 63.5,40.5C 54.7257,30.4492 45.559,30.1159 36,39.5C 32.9516,45.558 32.785,51.558 35.5,57.5C 41.6953,66.8371 49.6953,68.6705 59.5,63C 61.0414,61.6288 62.3747,60.1288 63.5,58.5C 68.9414,60.3867 73.9414,63.0534 78.5,66.5C 65.6927,83.7405 49.6927,87.2405 30.5,77C 26.5842,73.5903 23.2508,69.757 20.5,65.5C 12.4042,47.382 16.4042,32.5486 32.5,21C 51.1138,12.32 66.4471,16.1533 78.5,32.5 Z"/></g>
<g><path style="opacity:1" fill="#02589a" d="M 93.5,23.5 C 94.1174,23.6107 94.6174,23.944 95,24.5C 95.4999,40.8299 95.6666,57.1633 95.5,73.5C 94.1266,73.6567 92.7932,73.49 91.5,73C 87.3812,70.2739 83.0479,68.1072 78.5,66.5C 73.9414,63.0534 68.9414,60.3867 63.5,58.5C 58.7325,54.7829 53.3992,52.1163 47.5,50.5C 52.8333,47.1667 58.1667,43.8333 63.5,40.5C 68.6318,38.1005 73.6318,35.4338 78.5,32.5C 83.7015,29.737 88.7015,26.737 93.5,23.5 Z"/></g>
<g><path style="opacity:1" fill="#659ace" d="M 63.5,40.5 C 58.1667,43.8333 52.8333,47.1667 47.5,50.5C 43.1362,52.3437 39.1362,54.677 35.5,57.5C 32.785,51.558 32.9516,45.558 36,39.5C 45.559,30.1159 54.7257,30.4492 63.5,40.5 Z"/></g>
<g><path style="opacity:1" fill="#0e4780" d="M 47.5,50.5 C 53.3992,52.1163 58.7325,54.7829 63.5,58.5C 62.3747,60.1288 61.0414,61.6288 59.5,63C 49.6953,68.6705 41.6953,66.8371 35.5,57.5C 39.1362,54.677 43.1362,52.3437 47.5,50.5 Z"/></g>
<g><path style="opacity:0.999" fill="#05457f" d="M 20.5,65.5 C 23.2508,69.757 26.5842,73.5903 30.5,77C 49.6927,87.2405 65.6927,83.7405 78.5,66.5C 83.0479,68.1072 87.3812,70.2739 91.5,73C 92.7932,73.49 94.1266,73.6567 95.5,73.5C 94.7101,74.7942 93.7101,75.9609 92.5,77C 79.1104,84.0216 66.1104,91.5216 53.5,99.5C 51.1667,99.5 48.8333,99.5 46.5,99.5C 32.1695,91.6702 18.1695,83.3369 4.5,74.5C 9.83333,71.5 15.1667,68.5 20.5,65.5 Z"/></g>
</svg>
