<?xml version="1.0" encoding="UTF-8"?>
<!DOCTYPE svg PUBLIC "-//W3C//DTD SVG 1.1//EN" "http://www.w3.org/Graphics/SVG/1.1/DTD/svg11.dtd">
<svg xmlns="http://www.w3.org/2000/svg" version="1.1" width="100px" height="100px" style="shape-rendering:geometricPrecision; text-rendering:geometricPrecision; image-rendering:optimizeQuality; fill-rule:evenodd; clip-rule:evenodd" xmlns:xlink="http://www.w3.org/1999/xlink">
<g><path style="opacity:1" fill="#de362a" d="M 36.5,-0.5 C 45.1667,-0.5 53.8333,-0.5 62.5,-0.5C 63.5,0.166667 64.5,0.833333 65.5,1.5C 65.3379,3.5273 65.5045,5.5273 66,7.5C 66.7096,6.02674 67.8762,5.36007 69.5,5.5C 69.2214,11.2224 68.5547,16.8891 67.5,22.5C 62.1667,22.5 56.8333,22.5 51.5,22.5C 51.5,21.5 51.5,20.5 51.5,19.5C 50.1667,19.5 48.8333,19.5 47.5,19.5C 47.5,18.1667 47.5,16.8333 47.5,15.5C 46.1667,15.5 44.8333,15.5 43.5,15.5C 43.5,17.8333 43.5,20.1667 43.5,22.5C 40.8127,22.3359 38.146,22.5026 35.5,23C 34.1667,24 34.1667,25 35.5,26C 33.8333,26.3333 32.1667,26.6667 30.5,27C 32.4812,27.6054 32.8146,28.6054 31.5,30C 28.8807,30.1515 26.5473,30.9848 24.5,32.5C 23.2121,34.2985 23.2121,35.9652 24.5,37.5C 24.5,40.1667 24.5,42.8333 24.5,45.5C 24.5,45.8333 24.5,46.1667 24.5,46.5C 23.8333,46.5 23.5,46.8333 23.5,47.5C 21.5,45.8333 19.5,44.1667 17.5,42.5C 15.8283,39.7868 14.1616,37.1202 12.5,34.5C 12.4431,33.391 12.1098,32.391 11.5,31.5C 10.3666,28.7291 9.36655,25.8958 8.5,23C 8.6483,21.7441 8.98163,20.5774 9.5,19.5C 9.35055,18.448 9.51722,17.448 10,16.5C 17.4083,8.58788 26.2417,2.92121 36.5,-0.5 Z"/></g>
<g><path style="opacity:0.998" fill="#de422d" d="M 65.5,1.5 C 78.0518,5.41785 87.3851,13.0845 93.5,24.5C 92.5,24.5 91.5,24.5 90.5,24.5C 78.8333,24.5 67.1667,24.5 55.5,24.5C 51.4862,24.3345 47.4862,24.5012 43.5,25C 40.8132,25.7285 38.4799,26.8951 36.5,28.5C 34.5887,29.075 32.922,30.075 31.5,31.5C 30.1266,31.3433 28.7932,31.51 27.5,32C 28.2375,34.5033 27.2375,36.3367 24.5,37.5C 23.2121,35.9652 23.2121,34.2985 24.5,32.5C 26.5473,30.9848 28.8807,30.1515 31.5,30C 32.8146,28.6054 32.4812,27.6054 30.5,27C 32.1667,26.6667 33.8333,26.3333 35.5,26C 34.1667,25 34.1667,24 35.5,23C 38.146,22.5026 40.8127,22.3359 43.5,22.5C 43.5,20.1667 43.5,17.8333 43.5,15.5C 44.8333,15.5 46.1667,15.5 47.5,15.5C 47.5,16.8333 47.5,18.1667 47.5,19.5C 48.8333,19.5 50.1667,19.5 51.5,19.5C 51.5,20.5 51.5,21.5 51.5,22.5C 56.8333,22.5 62.1667,22.5 67.5,22.5C 68.5547,16.8891 69.2214,11.2224 69.5,5.5C 67.8762,5.36007 66.7096,6.02674 66,7.5C 65.5045,5.5273 65.3379,3.5273 65.5,1.5 Z"/></g>
<g><path style="opacity:0.945" fill="#b7402b" d="M 9.5,19.5 C 8.98163,20.5774 8.6483,21.7441 8.5,23C 9.36655,25.8958 10.3666,28.7291 11.5,31.5C 10.8333,31.1667 10.1667,30.8333 9.5,30.5C 9.67158,29.5084 9.33825,28.8417 8.5,28.5C 8.22945,26.5695 7.22945,25.2362 5.5,24.5C 6.13554,22.2054 7.46888,20.5387 9.5,19.5 Z"/></g>
<g><path style="opacity:1" fill="#feaa3b" d="M 55.5,25.5 C 55.5,25.1667 55.5,24.8333 55.5,24.5C 67.1667,24.5 78.8333,24.5 90.5,24.5C 81.0087,25.33 71.342,25.83 61.5,26C 62.756,26.4169 63.4226,27.2502 63.5,28.5C 60.8333,27.5 58.1667,26.5 55.5,25.5 Z"/></g>
<g><path style="opacity:1" fill="#7c8346" d="M 5.5,24.5 C 7.22945,25.2362 8.22945,26.5695 8.5,28.5C 7.39514,27.3995 6.06181,26.7329 4.5,26.5C 4.32842,25.5084 4.66175,24.8417 5.5,24.5 Z"/></g>
<g><path style="opacity:1" fill="#faf6f5" d="M 55.5,24.5 C 55.5,24.8333 55.5,25.1667 55.5,25.5C 55.5,26.5 55.5,27.5 55.5,28.5C 51.8183,28.3347 48.1516,28.5014 44.5,29C 43.5842,29.2784 42.9175,29.7784 42.5,30.5C 40.7697,31.0256 39.4363,32.0256 38.5,33.5C 37.5,33.8333 36.8333,34.5 36.5,35.5C 34.9731,35.427 33.9731,36.0937 33.5,37.5C 32.5,37.5 31.5,37.5 30.5,37.5C 30.3505,36.448 30.5172,35.448 31,34.5C 33.09,32.5837 34.9233,30.5837 36.5,28.5C 38.4799,26.8951 40.8132,25.7285 43.5,25C 47.4862,24.5012 51.4862,24.3345 55.5,24.5 Z"/></g>
<g><path style="opacity:1" fill="#d8f3fd" d="M 55.5,28.5 C 56.2625,29.2679 57.2625,29.7679 58.5,30C 59.2524,30.6708 59.5858,31.5041 59.5,32.5C 57.5,31.8333 55.5,31.1667 53.5,30.5C 49.9829,29.3797 46.3163,29.3797 42.5,30.5C 42.9175,29.7784 43.5842,29.2784 44.5,29C 48.1516,28.5014 51.8183,28.3347 55.5,28.5 Z"/></g>
<g><path style="opacity:1" fill="#fef9d2" d="M 55.5,25.5 C 58.1667,26.5 60.8333,27.5 63.5,28.5C 66.2128,30.2135 68.2128,32.5468 69.5,35.5C 65.5997,31.6437 60.933,29.3104 55.5,28.5C 55.5,27.5 55.5,26.5 55.5,25.5 Z"/></g>
<g><path style="opacity:1" fill="#ce5344" d="M 31.5,31.5 C 28.074,35.6853 25.7406,40.352 24.5,45.5C 24.5,42.8333 24.5,40.1667 24.5,37.5C 27.2375,36.3367 28.2375,34.5033 27.5,32C 28.7932,31.51 30.1266,31.3433 31.5,31.5 Z"/></g>
<g><path style="opacity:1" fill="#4988d0" d="M 53.5,30.5 C 48.4873,31.4079 43.4873,32.4079 38.5,33.5C 39.4363,32.0256 40.7697,31.0256 42.5,30.5C 46.3163,29.3797 49.9829,29.3797 53.5,30.5 Z"/></g>
<g><path style="opacity:1" fill="#876e43" d="M 9.5,30.5 C 10.1667,30.8333 10.8333,31.1667 11.5,31.5C 12.1098,32.391 12.4431,33.391 12.5,34.5C 10.7376,33.7377 9.73758,32.4044 9.5,30.5 Z"/></g>
<g><path style="opacity:1" fill="#2073de" d="M 53.5,30.5 C 55.5,31.1667 57.5,31.8333 59.5,32.5C 59.5,33.1667 59.8333,33.5 60.5,33.5C 60.5,34.1667 60.5,34.8333 60.5,35.5C 54.5171,35.1446 48.5171,35.8112 42.5,37.5C 40.9446,37.278 39.6113,36.6113 38.5,35.5C 37.8165,35.8627 37.1499,36.1961 36.5,36.5C 36.5,36.1667 36.5,35.8333 36.5,35.5C 36.8333,34.5 37.5,33.8333 38.5,33.5C 43.4873,32.4079 48.4873,31.4079 53.5,30.5 Z"/></g>
<g><path style="opacity:1" fill="#1c74e8" d="M 60.5,35.5 C 62.8275,36.7356 63.9942,38.7356 64,41.5C 65.6667,42.7332 67.1667,44.0665 68.5,45.5C 69.7,48.6977 69.7,52.031 68.5,55.5C 67.1634,56.3149 66.1634,57.4815 65.5,59C 64.552,59.4828 63.552,59.6495 62.5,59.5C 62.5,61.1667 62.5,62.8333 62.5,64.5C 62.1667,64.5 61.8333,64.5 61.5,64.5C 55.6931,66.4257 49.6931,67.4257 43.5,67.5C 43.5,66.5 43.5,65.5 43.5,64.5C 41.396,64.7989 39.396,64.4656 37.5,63.5C 36.7174,61.7118 35.3841,60.7118 33.5,60.5C 32.8902,59.609 32.5569,58.609 32.5,57.5C 32.7839,54.2234 32.4505,51.0567 31.5,48C 32.4491,47.3828 33.2825,47.5494 34,48.5C 35.1264,45.2773 35.2931,42.1107 34.5,39C 35.3805,38.2917 36.0472,37.4584 36.5,36.5C 37.1499,36.1961 37.8165,35.8627 38.5,35.5C 39.6113,36.6113 40.9446,37.278 42.5,37.5C 48.5171,35.8112 54.5171,35.1446 60.5,35.5 Z"/></g>
<g><path style="opacity:1" fill="#8b673a" d="M 12.5,34.5 C 14.1616,37.1202 15.8283,39.7868 17.5,42.5C 18.6005,43.6049 19.2671,44.9382 19.5,46.5C 18.2058,45.7101 17.0391,44.7101 16,43.5C 14.3459,40.7068 13.1792,37.7068 12.5,34.5 Z"/></g>
<g><path style="opacity:1" fill="#fce0d8" d="M 36.5,28.5 C 34.9233,30.5837 33.09,32.5837 31,34.5C 30.5172,35.448 30.3505,36.448 30.5,37.5C 30.5,37.8333 30.5,38.1667 30.5,38.5C 28.5829,39.1164 27.4162,40.4497 27,42.5C 26.5355,46.8477 26.0355,51.181 25.5,55.5C 25.1667,55.5 24.8333,55.5 24.5,55.5C 24.5,52.5 24.5,49.5 24.5,46.5C 24.5,46.1667 24.5,45.8333 24.5,45.5C 25.7406,40.352 28.074,35.6853 31.5,31.5C 32.922,30.075 34.5887,29.075 36.5,28.5 Z"/></g>
<g><path style="opacity:1" fill="#3c79ce" d="M 60.5,33.5 C 65.1745,36.1723 67.8412,40.1723 68.5,45.5C 67.1667,44.0665 65.6667,42.7332 64,41.5C 63.9942,38.7356 62.8275,36.7356 60.5,35.5C 60.5,34.8333 60.5,34.1667 60.5,33.5 Z"/></g>
<g><path style="opacity:1" fill="#b94431" d="M 17.5,42.5 C 19.5,44.1667 21.5,45.8333 23.5,47.5C 23.7148,49.1788 23.0481,50.1788 21.5,50.5C 21.573,48.9731 20.9063,47.9731 19.5,47.5C 19.5,47.1667 19.5,46.8333 19.5,46.5C 19.2671,44.9382 18.6005,43.6049 17.5,42.5 Z"/></g>
<g><path style="opacity:1" fill="#f8fcf8" d="M 30.5,38.5 C 27.8556,45.3449 27.8556,52.1782 30.5,59C 29.8524,60.4397 29.5191,61.9397 29.5,63.5C 28.8333,63.1667 28.1667,62.8333 27.5,62.5C 27.5,62.1667 27.5,61.8333 27.5,61.5C 26.8333,59.5 26.1667,57.5 25.5,55.5C 26.0355,51.181 26.5355,46.8477 27,42.5C 27.4162,40.4497 28.5829,39.1164 30.5,38.5 Z"/></g>
<g><path style="opacity:1" fill="#357bd8" d="M 36.5,35.5 C 36.5,35.8333 36.5,36.1667 36.5,36.5C 36.0472,37.4584 35.3805,38.2917 34.5,39C 35.2931,42.1107 35.1264,45.2773 34,48.5C 33.2825,47.5494 32.4491,47.3828 31.5,48C 32.4505,51.0567 32.7839,54.2234 32.5,57.5C 28.5031,50.7438 28.8364,44.0771 33.5,37.5C 33.9731,36.0937 34.9731,35.427 36.5,35.5 Z"/></g>
<g><path style="opacity:0.986" fill="#fabf0f" d="M 90.5,24.5 C 91.5,24.5 92.5,24.5 93.5,24.5C 95.939,28.2746 97.939,32.2746 99.5,36.5C 99.5,45.1667 99.5,53.8333 99.5,62.5C 98.8333,63.5 98.1667,64.5 97.5,65.5C 95.7215,66.6697 94.7215,68.3364 94.5,70.5C 93.5,70.5 92.5,70.5 91.5,70.5C 91.5,69.5 91.5,68.5 91.5,67.5C 90.1667,67.5 88.8333,67.5 87.5,67.5C 87.5,68.8333 87.5,70.1667 87.5,71.5C 84.0024,72.0453 81.0024,71.212 78.5,69C 79.1667,68.6667 79.8333,68.3333 80.5,68C 80.0037,66.0036 79.0037,64.3369 77.5,63C 79.4763,60.4897 79.6429,57.9897 78,55.5C 77.5017,52.1832 77.335,48.8499 77.5,45.5C 78.5,45.5 79.5,45.5 80.5,45.5C 80.8833,42.538 79.8833,41.538 77.5,42.5C 76.6764,39.2152 76.1764,35.8818 76,32.5C 73.9637,31.898 72.1303,30.898 70.5,29.5C 69.914,29.7093 69.414,30.0426 69,30.5C 67.5557,28.8446 65.7224,28.178 63.5,28.5C 63.4226,27.2502 62.756,26.4169 61.5,26C 71.342,25.83 81.0087,25.33 90.5,24.5 Z"/></g>
<g><path style="opacity:1" fill="#fffbc8" d="M 69.5,35.5 C 74.1511,41.7875 75.4845,48.7875 73.5,56.5C 72.3468,59.47 70.6801,62.1367 68.5,64.5C 70.3031,59.6509 71.6365,54.6509 72.5,49.5C 71.6989,44.7702 70.6989,40.1036 69.5,35.5 Z"/></g>
<g><path style="opacity:1" fill="#95523d" d="M 24.5,46.5 C 24.5,49.5 24.5,52.5 24.5,55.5C 23.8333,54.8333 23.1667,54.1667 22.5,53.5C 22.4431,52.391 22.1098,51.391 21.5,50.5C 23.0481,50.1788 23.7148,49.1788 23.5,47.5C 23.5,46.8333 23.8333,46.5 24.5,46.5 Z"/></g>
<g><path style="opacity:1" fill="#6d7841" d="M 19.5,47.5 C 20.9063,47.9731 21.573,48.9731 21.5,50.5C 22.1098,51.391 22.4431,52.391 22.5,53.5C 21.8333,53.1667 21.1667,52.8333 20.5,52.5C 19.6993,50.9582 19.366,49.2915 19.5,47.5 Z"/></g>
<g><path style="opacity:1" fill="#2e9f4b" d="M 4.5,26.5 C 6.06181,26.7329 7.39514,27.3995 8.5,28.5C 9.33825,28.8417 9.67158,29.5084 9.5,30.5C 9.73758,32.4044 10.7376,33.7377 12.5,34.5C 13.1792,37.7068 14.3459,40.7068 16,43.5C 17.0391,44.7101 18.2058,45.7101 19.5,46.5C 19.5,46.8333 19.5,47.1667 19.5,47.5C 19.366,49.2915 19.6993,50.9582 20.5,52.5C 21.4355,55.9349 23.1022,58.9349 25.5,61.5C 25.2865,63.1439 25.6198,64.6439 26.5,66C 24.8214,66.3947 23.1547,66.228 21.5,65.5C 17.3361,67.3929 13.0028,67.8929 8.5,67C 7.80945,65.9326 7.30945,64.7659 7,63.5C 5.00438,68.5557 3.33771,68.5557 2,63.5C 1.61742,64.056 1.11742,64.3893 0.5,64.5C 0.67158,63.5084 0.338246,62.8417 -0.5,62.5C -0.5,53.8333 -0.5,45.1667 -0.5,36.5C 0.775495,33.0303 2.44216,29.697 4.5,26.5 Z"/></g>
<g><path style="opacity:1" fill="#529551" d="M 20.5,52.5 C 21.1667,52.8333 21.8333,53.1667 22.5,53.5C 23.1667,54.1667 23.8333,54.8333 24.5,55.5C 24.8333,55.5 25.1667,55.5 25.5,55.5C 26.1667,57.5 26.8333,59.5 27.5,61.5C 26.8333,61.5 26.1667,61.5 25.5,61.5C 23.1022,58.9349 21.4355,55.9349 20.5,52.5 Z"/></g>
<g><path style="opacity:1" fill="#4985d4" d="M 68.5,55.5 C 67.2768,59.0495 65.2768,62.0495 62.5,64.5C 62.5,62.8333 62.5,61.1667 62.5,59.5C 63.552,59.6495 64.552,59.4828 65.5,59C 66.1634,57.4815 67.1634,56.3149 68.5,55.5 Z"/></g>
<g><path style="opacity:1" fill="#fac322" d="M 63.5,28.5 C 65.7224,28.178 67.5557,28.8446 69,30.5C 69.414,30.0426 69.914,29.7093 70.5,29.5C 72.1303,30.898 73.9637,31.898 76,32.5C 76.1764,35.8818 76.6764,39.2152 77.5,42.5C 79.8833,41.538 80.8833,42.538 80.5,45.5C 79.5,45.5 78.5,45.5 77.5,45.5C 77.335,48.8499 77.5017,52.1832 78,55.5C 79.6429,57.9897 79.4763,60.4897 77.5,63C 79.0037,64.3369 80.0037,66.0036 80.5,68C 79.8333,68.3333 79.1667,68.6667 78.5,69C 81.0024,71.212 84.0024,72.0453 87.5,71.5C 87.5,70.1667 87.5,68.8333 87.5,67.5C 88.8333,67.5 90.1667,67.5 91.5,67.5C 91.5,68.5 91.5,69.5 91.5,70.5C 92.5,70.5 93.5,70.5 94.5,70.5C 94.7215,68.3364 95.7215,66.6697 97.5,65.5C 92.7071,80.3957 83.0404,90.729 68.5,96.5C 67.1667,96.5 65.8333,96.5 64.5,96.5C 64.8174,92.8284 63.1507,91.1617 59.5,91.5C 59.5,88.8333 59.5,86.1667 59.5,83.5C 63.2466,81.8547 65.08,78.8547 65,74.5C 67.7112,73.4118 69.2112,71.4118 69.5,68.5C 71.8294,64.8451 73.1628,60.8451 73.5,56.5C 75.4845,48.7875 74.1511,41.7875 69.5,35.5C 68.2128,32.5468 66.2128,30.2135 63.5,28.5 Z"/></g>
<g><path style="opacity:1" fill="#e8ca56" d="M 73.5,56.5 C 73.1628,60.8451 71.8294,64.8451 69.5,68.5C 68.8333,68.8333 68.1667,69.1667 67.5,69.5C 67.6716,68.5084 67.3382,67.8417 66.5,67.5C 67.1667,66.5 67.8333,65.5 68.5,64.5C 70.6801,62.1367 72.3468,59.47 73.5,56.5 Z"/></g>
<g><path style="opacity:1" fill="#e5f7fc" d="M 30.5,37.5 C 31.5,37.5 32.5,37.5 33.5,37.5C 28.8364,44.0771 28.5031,50.7438 32.5,57.5C 32.5569,58.609 32.8902,59.609 33.5,60.5C 35.4486,64.8079 38.7819,67.1412 43.5,67.5C 44.1667,68.1667 44.8333,68.8333 45.5,69.5C 39.6105,69.3085 34.2772,67.6418 29.5,64.5C 29.5,64.1667 29.5,63.8333 29.5,63.5C 29.5191,61.9397 29.8524,60.4397 30.5,59C 27.8556,52.1782 27.8556,45.3449 30.5,38.5C 30.5,38.1667 30.5,37.8333 30.5,37.5 Z"/></g>
<g><path style="opacity:1" fill="#f0fbf9" d="M 55.5,28.5 C 60.933,29.3104 65.5997,31.6437 69.5,35.5C 70.6989,40.1036 71.6989,44.7702 72.5,49.5C 71.6365,54.6509 70.3031,59.6509 68.5,64.5C 67.8333,65.5 67.1667,66.5 66.5,67.5C 65.6935,68.7281 64.6935,69.7281 63.5,70.5C 61.4214,70.9707 59.4214,71.6373 57.5,72.5C 53.1539,72.6657 48.8206,72.499 44.5,72C 44.1667,71.6667 43.8333,71.3333 43.5,71C 44.4158,70.7216 45.0825,70.2216 45.5,69.5C 51.6455,70.0767 56.9788,68.4101 61.5,64.5C 61.8333,64.5 62.1667,64.5 62.5,64.5C 65.2768,62.0495 67.2768,59.0495 68.5,55.5C 69.7,52.031 69.7,48.6977 68.5,45.5C 67.8412,40.1723 65.1745,36.1723 60.5,33.5C 59.8333,33.5 59.5,33.1667 59.5,32.5C 59.5858,31.5041 59.2524,30.6708 58.5,30C 57.2625,29.7679 56.2625,29.2679 55.5,28.5 Z"/></g>
<g><path style="opacity:1" fill="#3877cd" d="M 33.5,60.5 C 35.3841,60.7118 36.7174,61.7118 37.5,63.5C 39.396,64.4656 41.396,64.7989 43.5,64.5C 43.5,65.5 43.5,66.5 43.5,67.5C 38.7819,67.1412 35.4486,64.8079 33.5,60.5 Z"/></g>
<g><path style="opacity:1" fill="#3b995c" d="M 27.5,62.5 C 28.1667,62.8333 28.8333,63.1667 29.5,63.5C 29.5,63.8333 29.5,64.1667 29.5,64.5C 31.9361,67.8715 34.9361,70.5381 38.5,72.5C 34.9756,72.0711 31.9756,70.5711 29.5,68C 27.8446,66.5557 27.178,64.7224 27.5,62.5 Z"/></g>
<g><path style="opacity:1" fill="#3f7ecf" d="M 61.5,64.5 C 56.9788,68.4101 51.6455,70.0767 45.5,69.5C 44.8333,68.8333 44.1667,68.1667 43.5,67.5C 49.6931,67.4257 55.6931,66.4257 61.5,64.5 Z"/></g>
<g><path style="opacity:1" fill="#e5fcee" d="M 29.5,64.5 C 34.2772,67.6418 39.6105,69.3085 45.5,69.5C 45.0825,70.2216 44.4158,70.7216 43.5,71C 43.8333,71.3333 44.1667,71.6667 44.5,72C 48.8206,72.499 53.1539,72.6657 57.5,72.5C 57.5,72.8333 57.5,73.1667 57.5,73.5C 51.3951,74.9866 45.3951,74.6533 39.5,72.5C 39.1667,72.5 38.8333,72.5 38.5,72.5C 34.9361,70.5381 31.9361,67.8715 29.5,64.5 Z"/></g>
<g><path style="opacity:1" fill="#79b483" d="M 63.5,70.5 C 63.1667,71.5 62.5,72.1667 61.5,72.5C 60.1667,72.8333 58.8333,73.1667 57.5,73.5C 57.5,73.1667 57.5,72.8333 57.5,72.5C 59.4214,71.6373 61.4214,70.9707 63.5,70.5 Z"/></g>
<g><path style="opacity:0.998" fill="#249443" d="M 25.5,61.5 C 26.1667,61.5 26.8333,61.5 27.5,61.5C 27.5,61.8333 27.5,62.1667 27.5,62.5C 27.178,64.7224 27.8446,66.5557 29.5,68C 31.9756,70.5711 34.9756,72.0711 38.5,72.5C 38.8333,72.5 39.1667,72.5 39.5,72.5C 39.8807,73.9311 40.8807,74.7645 42.5,75C 47.1667,75.6667 51.8333,75.6667 56.5,75C 57.056,74.6174 57.3893,74.1174 57.5,73.5C 58.8333,73.1667 60.1667,72.8333 61.5,72.5C 59.637,74.4924 57.3037,75.9924 54.5,77C 55.448,77.4828 56.448,77.6495 57.5,77.5C 57.5,79.5 57.5,81.5 57.5,83.5C 56.5,83.5 55.5,83.5 54.5,83.5C 54.5,82.5 54.5,81.5 54.5,80.5C 53.5,80.5 52.5,80.5 51.5,80.5C 51.2479,83.2438 51.9145,85.7438 53.5,88C 52.3906,90.0466 51.7239,92.2133 51.5,94.5C 51.1075,96.2838 50.4408,97.9505 49.5,99.5C 45.1667,99.5 40.8333,99.5 36.5,99.5C 19.0037,93.5254 7.00374,81.8587 0.5,64.5C 1.11742,64.3893 1.61742,64.056 2,63.5C 3.33771,68.5557 5.00438,68.5557 7,63.5C 7.30945,64.7659 7.80945,65.9326 8.5,67C 13.0028,67.8929 17.3361,67.3929 21.5,65.5C 23.1547,66.228 24.8214,66.3947 26.5,66C 25.6198,64.6439 25.2865,63.1439 25.5,61.5 Z"/></g>
<g><path style="opacity:1" fill="#419258" d="M 39.5,72.5 C 45.3951,74.6533 51.3951,74.9866 57.5,73.5C 57.3893,74.1174 57.056,74.6174 56.5,75C 51.8333,75.6667 47.1667,75.6667 42.5,75C 40.8807,74.7645 39.8807,73.9311 39.5,72.5 Z"/></g>
<g><path style="opacity:1" fill="#d9c93a" d="M 69.5,68.5 C 69.2112,71.4118 67.7112,73.4118 65,74.5C 65.08,78.8547 63.2466,81.8547 59.5,83.5C 61.1588,78.1734 63.8255,73.5067 67.5,69.5C 68.1667,69.1667 68.8333,68.8333 69.5,68.5 Z"/></g>
<g><path style="opacity:1" fill="#389036" d="M 66.5,67.5 C 67.3382,67.8417 67.6716,68.5084 67.5,69.5C 63.8255,73.5067 61.1588,78.1734 59.5,83.5C 57.3311,85.3403 55.9977,87.6737 55.5,90.5C 53.8058,91.5274 52.4725,92.8608 51.5,94.5C 51.7239,92.2133 52.3906,90.0466 53.5,88C 51.9145,85.7438 51.2479,83.2438 51.5,80.5C 52.5,80.5 53.5,80.5 54.5,80.5C 54.5,81.5 54.5,82.5 54.5,83.5C 55.5,83.5 56.5,83.5 57.5,83.5C 57.5,81.5 57.5,79.5 57.5,77.5C 56.448,77.6495 55.448,77.4828 54.5,77C 57.3037,75.9924 59.637,74.4924 61.5,72.5C 62.5,72.1667 63.1667,71.5 63.5,70.5C 64.6935,69.7281 65.6935,68.7281 66.5,67.5 Z"/></g>
<g><path style="opacity:1" fill="#f4c831" d="M 59.5,83.5 C 59.5,86.1667 59.5,88.8333 59.5,91.5C 63.1507,91.1617 64.8174,92.8284 64.5,96.5C 65.8333,96.5 67.1667,96.5 68.5,96.5C 66.5,97.5 64.5,98.5 62.5,99.5C 59.1667,99.5 55.8333,99.5 52.5,99.5C 52.9143,96.2569 53.9143,93.2569 55.5,90.5C 55.9977,87.6737 57.3311,85.3403 59.5,83.5 Z"/></g>
<g><path style="opacity:1" fill="#c0c84f" d="M 55.5,90.5 C 53.9143,93.2569 52.9143,96.2569 52.5,99.5C 51.5,99.5 50.5,99.5 49.5,99.5C 50.4408,97.9505 51.1075,96.2838 51.5,94.5C 52.4725,92.8608 53.8058,91.5274 55.5,90.5 Z"/></g>
</svg>
