<?xml version="1.0" encoding="UTF-8"?>
<!DOCTYPE svg PUBLIC "-//W3C//DTD SVG 1.1//EN" "http://www.w3.org/Graphics/SVG/1.1/DTD/svg11.dtd">
<svg xmlns="http://www.w3.org/2000/svg" version="1.1" width="100px" height="100px" style="shape-rendering:geometricPrecision; text-rendering:geometricPrecision; image-rendering:optimizeQuality; fill-rule:evenodd; clip-rule:evenodd" xmlns:xlink="http://www.w3.org/1999/xlink">
<g><path style="opacity:0.991" fill="#2ad290" d="M 81.5,49.5 C 81.1667,49.5 80.8333,49.5 80.5,49.5C 80.5,39.1667 80.5,28.8333 80.5,18.5C 72.6841,17.5076 64.6841,17.1743 56.5,17.5C 56.6535,15.0301 57.6535,13.0301 59.5,11.5C 67.886,8.70418 76.2193,5.70418 84.5,2.5C 89.6375,11.1085 93.9708,20.1085 97.5,29.5C 92.5249,36.4728 87.1915,43.1394 81.5,49.5 Z"/></g>
<g><path style="opacity:1" fill="#d3488b" d="M 38.5,-0.5 C 38.8333,-0.5 39.1667,-0.5 39.5,-0.5C 41.4632,0.820176 43.4632,2.15351 45.5,3.5C 46.368,5.89671 47.0347,8.39671 47.5,11C 46.9569,16.3598 43.9569,18.5264 38.5,17.5C 38.5,11.5 38.5,5.5 38.5,-0.5 Z"/></g>
<g><path style="opacity:1" fill="#b45a86" d="M 37.5,-0.5 C 37.8333,-0.5 38.1667,-0.5 38.5,-0.5C 38.5,5.5 38.5,11.5 38.5,17.5C 43.9569,18.5264 46.9569,16.3598 47.5,11C 47.0347,8.39671 46.368,5.89671 45.5,3.5C 46.8333,4.16667 48.1667,4.83333 49.5,5.5C 49.9949,7.45233 50.3282,9.45233 50.5,11.5C 50.2405,14.2803 49.2405,16.6136 47.5,18.5C 44.1667,18.5 40.8333,18.5 37.5,18.5C 37.5,14.8333 37.5,11.1667 37.5,7.5C 37.5,4.83333 37.5,2.16667 37.5,-0.5 Z"/></g>
<g><path style="opacity:1" fill="#669082" d="M 55.5,9.5 C 57.153,9.6596 58.4863,10.3263 59.5,11.5C 57.6535,13.0301 56.6535,15.0301 56.5,17.5C 64.6841,17.1743 72.6841,17.5076 80.5,18.5C 72.1667,18.5 63.8333,18.5 55.5,18.5C 55.5,15.5 55.5,12.5 55.5,9.5 Z"/></g>
<g><path style="opacity:1" fill="#9c6f8a" d="M 49.5,5.5 C 51.7952,6.47456 53.7952,7.80789 55.5,9.5C 55.5,12.5 55.5,15.5 55.5,18.5C 52.8333,18.5 50.1667,18.5 47.5,18.5C 49.2405,16.6136 50.2405,14.2803 50.5,11.5C 50.3282,9.45233 49.9949,7.45233 49.5,5.5 Z"/></g>
<g><path style="opacity:1" fill="#7d7f84" d="M 37.5,7.5 C 37.5,11.1667 37.5,14.8333 37.5,18.5C 36.8333,18.5 36.1667,18.5 35.5,18.5C 36.1031,14.7272 36.7698,11.0606 37.5,7.5 Z"/></g>
<g><path style="opacity:0.994" fill="#24d592" d="M 35.5,0.5 C 35.6757,5.87971 35.3424,11.213 34.5,16.5C 28.7291,15.8872 23.3958,16.5539 18.5,18.5C 18.1667,18.5 17.8333,18.5 17.5,18.5C 16.725,25.3533 16.0583,32.3533 15.5,39.5C 13.0459,39.6795 10.8792,39.0128 9,37.5C 8.22797,37.6448 7.5613,37.9781 7,38.5C 6.50258,35.854 6.33591,33.1873 6.5,30.5C 6.62612,26.0771 7.29278,21.7438 8.5,17.5C 17.2509,11.4114 26.2509,5.74471 35.5,0.5 Z"/></g>
<g><path style="opacity:1" fill="#47b786" d="M 35.5,-0.5 C 36.1667,-0.5 36.8333,-0.5 37.5,-0.5C 37.5,2.16667 37.5,4.83333 37.5,7.5C 36.7698,11.0606 36.1031,14.7272 35.5,18.5C 29.8333,18.5 24.1667,18.5 18.5,18.5C 23.3958,16.5539 28.7291,15.8872 34.5,16.5C 35.3424,11.213 35.6757,5.87971 35.5,0.5C 35.5,0.166667 35.5,-0.166667 35.5,-0.5 Z"/></g>
<g><path style="opacity:0.999" fill="#040404" d="M 35.5,18.5 C 36.1667,18.5 36.8333,18.5 37.5,18.5C 40.8333,18.5 44.1667,18.5 47.5,18.5C 50.1667,18.5 52.8333,18.5 55.5,18.5C 63.3159,19.4924 71.3159,19.8257 79.5,19.5C 79.1726,29.6806 79.506,39.6806 80.5,49.5C 80.8333,49.5 81.1667,49.5 81.5,49.5C 81.5,51.8333 81.5,54.1667 81.5,56.5C 80.8333,56.5 80.5,56.8333 80.5,57.5C 79.5084,64.6476 79.175,71.9809 79.5,79.5C 59.5,79.5 39.5,79.5 19.5,79.5C 19.5,59.5 19.5,39.5 19.5,19.5C 25.0262,19.8214 30.3595,19.4881 35.5,18.5 Z"/></g>
<g><path style="opacity:1" fill="#001504" d="M 55.5,18.5 C 63.8333,18.5 72.1667,18.5 80.5,18.5C 80.5,28.8333 80.5,39.1667 80.5,49.5C 79.506,39.6806 79.1726,29.6806 79.5,19.5C 71.3159,19.8257 63.3159,19.4924 55.5,18.5 Z"/></g>
<g><path style="opacity:1" fill="#f2f2f2" d="M 31.5,26.5 C 37.3506,25.674 42.684,26.8407 47.5,30C 46.2748,31.563 44.7748,32.7297 43,33.5C 34.2588,29.26 29.9254,31.9267 30,41.5C 30.779,45.2771 33.1124,47.2771 37,47.5C 39.6998,47.2695 42.0332,46.2695 44,44.5C 48.4204,47.5372 47.9204,50.0372 42.5,52C 29.3965,54.2283 23.2298,48.7283 24,35.5C 25.6416,31.6997 28.1416,28.6997 31.5,26.5 Z"/></g>
<g><path style="opacity:1" fill="#f5f5f5" d="M 51.5,26.5 C 53.5,26.5 55.5,26.5 57.5,26.5C 57.5,33.5 57.5,40.5 57.5,47.5C 61.1667,47.5 64.8333,47.5 68.5,47.5C 68.5,49.1667 68.5,50.8333 68.5,52.5C 62.8333,52.5 57.1667,52.5 51.5,52.5C 51.5,43.8333 51.5,35.1667 51.5,26.5 Z"/></g>
<g><path style="opacity:1" fill="#1fc7a1" d="M 17.5,18.5 C 17.6665,27.8393 17.4998,37.1726 17,46.5C 15.7564,48.4503 13.9231,49.4503 11.5,49.5C 9.0759,48.9789 6.74257,48.3123 4.5,47.5C 4.5,45.8333 4.5,44.1667 4.5,42.5C 4.53866,38.2671 5.20532,34.2671 6.5,30.5C 6.33591,33.1873 6.50258,35.854 7,38.5C 7.5613,37.9781 8.22797,37.6448 9,37.5C 10.8792,39.0128 13.0459,39.6795 15.5,39.5C 16.0583,32.3533 16.725,25.3533 17.5,18.5 Z"/></g>
<g><path style="opacity:1" fill="#25b4a4" d="M 17.5,18.5 C 17.8333,18.5 18.1667,18.5 18.5,18.5C 18.5,39.1667 18.5,59.8333 18.5,80.5C 17.8334,72.3237 17.1667,63.9904 16.5,55.5C 15.0474,58.4511 13.0474,60.9511 10.5,63C 7.2772,65.2114 4.2772,67.8781 1.5,71C 0.905578,71.4643 0.238911,71.631 -0.5,71.5C -0.5,69.8333 -0.5,68.1667 -0.5,66.5C 1.16667,58.5 2.83333,50.5 4.5,42.5C 4.5,44.1667 4.5,45.8333 4.5,47.5C 6.74257,48.3123 9.0759,48.9789 11.5,49.5C 13.9231,49.4503 15.7564,48.4503 17,46.5C 17.4998,37.1726 17.6665,27.8393 17.5,18.5 Z"/></g>
<g><path style="opacity:0.986" fill="#29d28f" d="M 18.5,80.5 C 39.1667,80.5 59.8333,80.5 80.5,80.5C 80.5,72.8333 80.5,65.1667 80.5,57.5C 80.5,56.8333 80.8333,56.5 81.5,56.5C 87.5,58.8333 93.5,61.1667 99.5,63.5C 99.5,64.5 99.5,65.5 99.5,66.5C 94.2611,77.3168 89.2611,88.3168 84.5,99.5C 82.5,99.5 80.5,99.5 78.5,99.5C 71.6599,97.5386 64.6599,95.7052 57.5,94C 53.6667,90.8333 49.8333,87.6667 46,84.5C 41.6342,89.2007 36.9675,93.534 32,97.5C 21.3717,89.4454 10.5383,81.7788 -0.5,74.5C -0.5,73.5 -0.5,72.5 -0.5,71.5C 0.238911,71.631 0.905578,71.4643 1.5,71C 4.2772,67.8781 7.2772,65.2114 10.5,63C 13.0474,60.9511 15.0474,58.4511 16.5,55.5C 17.1667,63.9904 17.8334,72.3237 18.5,80.5 Z"/></g>
<g><path style="opacity:1" fill="#001806" d="M 18.5,18.5 C 24.1667,18.5 29.8333,18.5 35.5,18.5C 30.3595,19.4881 25.0262,19.8214 19.5,19.5C 19.5,39.5 19.5,59.5 19.5,79.5C 39.5,79.5 59.5,79.5 79.5,79.5C 79.175,71.9809 79.5084,64.6476 80.5,57.5C 80.5,65.1667 80.5,72.8333 80.5,80.5C 59.8333,80.5 39.1667,80.5 18.5,80.5C 18.5,59.8333 18.5,39.1667 18.5,18.5 Z"/></g>
<g><path style="opacity:1" fill="#fdfdfd" d="M 47.5,69.5 C 47.5,70.5 47.5,71.5 47.5,72.5C 39.8333,72.5 32.1667,72.5 24.5,72.5C 24.5,71.5 24.5,70.5 24.5,69.5C 32.1667,69.5 39.8333,69.5 47.5,69.5 Z"/></g>
<g><path style="opacity:1" fill="#717171" d="M 47.5,69.5 C 39.8333,69.5 32.1667,69.5 24.5,69.5C 24.5,70.5 24.5,71.5 24.5,72.5C 23.5655,71.4324 23.2322,70.099 23.5,68.5C 31.6841,68.1743 39.6841,68.5076 47.5,69.5 Z"/></g>
</svg>
