<?xml version="1.0" encoding="UTF-8"?>
<!DOCTYPE svg PUBLIC "-//W3C//DTD SVG 1.1//EN" "http://www.w3.org/Graphics/SVG/1.1/DTD/svg11.dtd">
<svg xmlns="http://www.w3.org/2000/svg" version="1.1" width="100px" height="100px" style="shape-rendering:geometricPrecision; text-rendering:geometricPrecision; image-rendering:optimizeQuality; fill-rule:evenodd; clip-rule:evenodd" xmlns:xlink="http://www.w3.org/1999/xlink">
<g><path style="opacity:0.998" fill="#9a4a93" d="M 44.5,-0.5 C 47.5,-0.5 50.5,-0.5 53.5,-0.5C 64.775,6.8113 76.4417,13.6446 88.5,20C 90.6355,20.8763 91.9688,22.3763 92.5,24.5C 86.2089,28.0987 79.8755,31.7654 73.5,35.5C 73.6495,34.448 73.4828,33.448 73,32.5C 70.9718,29.3078 68.4718,26.6411 65.5,24.5C 64.7101,23.2058 63.7101,22.0391 62.5,21C 56.0383,19.4561 49.705,19.2895 43.5,20.5C 32.5228,22.6387 25.0228,28.972 21,39.5C 18.5023,48.2085 19.3356,56.5418 23.5,64.5C 17.2622,67.4042 11.2622,70.7375 5.5,74.5C 4.83358,66.3402 4.50024,58.0068 4.5,49.5C 4.35977,40.4035 4.85977,31.4035 6,22.5C 18.9794,14.9332 31.8128,7.26649 44.5,-0.5 Z"/></g>
<g><path style="opacity:1" fill="#a26f9f" d="M 43.5,20.5 C 49.705,19.2895 56.0383,19.4561 62.5,21C 63.7101,22.0391 64.7101,23.2058 65.5,24.5C 58.6256,21.0864 51.2923,19.753 43.5,20.5 Z"/></g>
<g><path style="opacity:1" fill="#fcf8fc" d="M 43.5,20.5 C 51.2923,19.753 58.6256,21.0864 65.5,24.5C 68.4718,26.6411 70.9718,29.3078 73,32.5C 73.4828,33.448 73.6495,34.448 73.5,35.5C 69.8333,37.5 66.1667,39.5 62.5,41.5C 57.6932,36.2845 51.6932,34.1178 44.5,35C 42.4156,35.6972 40.7489,36.8639 39.5,38.5C 34.316,43.5551 33.1494,49.5551 36,56.5C 36.9487,58.0931 38.1154,59.4264 39.5,60.5C 42.1199,62.8946 45.2866,63.8946 49,63.5C 53.2729,63.9382 56.7729,62.6048 59.5,59.5C 60.7901,57.86 62.4567,57.36 64.5,58C 68.0689,59.9417 71.4022,62.1084 74.5,64.5C 63.7607,78.7691 50.094,82.2691 33.5,75C 29.2877,72.2889 25.9544,68.7889 23.5,64.5C 19.3356,56.5418 18.5023,48.2085 21,39.5C 25.0228,28.972 32.5228,22.6387 43.5,20.5 Z"/></g>
<g><path style="opacity:1" fill="#995c95" d="M 62.5,41.5 C 61.791,42.404 60.791,42.7373 59.5,42.5C 58.596,41.791 58.2627,40.791 58.5,39.5C 56.1305,39.8511 53.7972,40.0178 51.5,40C 51.8333,39 52.1667,38 52.5,37C 51.6667,36.8333 50.8333,36.6667 50,36.5C 48.9533,37.4844 47.4533,38.4844 45.5,39.5C 43.5466,38.8444 41.5466,38.5111 39.5,38.5C 40.7489,36.8639 42.4156,35.6972 44.5,35C 51.6932,34.1178 57.6932,36.2845 62.5,41.5 Z"/></g>
<g><path style="opacity:1" fill="#964991" d="M 59.5,42.5 C 55.8105,45.6749 51.8105,48.3415 47.5,50.5C 44.622,51.37 41.9553,52.7033 39.5,54.5C 38.4808,56.4595 38.4808,58.4595 39.5,60.5C 38.1154,59.4264 36.9487,58.0931 36,56.5C 33.1494,49.5551 34.316,43.5551 39.5,38.5C 41.5466,38.5111 43.5466,38.8444 45.5,39.5C 47.4533,38.4844 48.9533,37.4844 50,36.5C 50.8333,36.6667 51.6667,36.8333 52.5,37C 52.1667,38 51.8333,39 51.5,40C 53.7972,40.0178 56.1305,39.8511 58.5,39.5C 58.2627,40.791 58.596,41.791 59.5,42.5 Z"/></g>
<g><path style="opacity:1" fill="#7f3381" d="M 92.5,24.5 C 93.6616,40.9949 93.8283,57.6616 93,74.5C 92.7216,75.4158 92.2216,76.0825 91.5,76.5C 90.2209,73.3481 87.8875,71.3481 84.5,70.5C 81.4512,68.1373 78.1178,66.1373 74.5,64.5C 71.4022,62.1084 68.0689,59.9417 64.5,58C 62.4567,57.36 60.7901,57.86 59.5,59.5C 59.7135,57.8561 59.3802,56.3561 58.5,55C 55.2706,52.3839 51.6039,50.8839 47.5,50.5C 51.8105,48.3415 55.8105,45.6749 59.5,42.5C 60.791,42.7373 61.791,42.404 62.5,41.5C 66.1667,39.5 69.8333,37.5 73.5,35.5C 79.8755,31.7654 86.2089,28.0987 92.5,24.5 Z"/></g>
<g><path style="opacity:1" fill="#ca9fcf" d="M 75.5,42.5 C 75.5198,44.143 74.8532,45.4763 73.5,46.5C 75.484,48.0464 75.8174,49.7131 74.5,51.5C 74.2137,49.7231 73.5471,48.0564 72.5,46.5C 73.1716,44.8405 74.1716,43.5072 75.5,42.5 Z"/></g>
<g><path style="opacity:1" fill="#faebf9" d="M 75.5,42.5 C 77.1998,42.6261 78.6998,43.2927 80,44.5C 81.0299,44.1639 81.5299,43.4972 81.5,42.5C 82.5,42.5 83.5,42.5 84.5,42.5C 84.4802,44.143 85.1468,45.4763 86.5,46.5C 85.5853,47.3279 84.9186,48.3279 84.5,49.5C 85.5471,51.0564 86.2137,52.7231 86.5,54.5C 85.2436,54.9038 84.0769,55.5705 83,56.5C 81,53.8333 79,53.8333 77,56.5C 75.6998,55.2927 74.1998,54.6261 72.5,54.5C 72.2852,52.8212 72.9519,51.8212 74.5,51.5C 75.8174,49.7131 75.484,48.0464 73.5,46.5C 74.8532,45.4763 75.5198,44.143 75.5,42.5 Z"/></g>
<g><path style="opacity:1" fill="#b38cba" d="M 81.5,48.5 C 80.5,48.5 79.5,48.5 78.5,48.5C 78.5,49.5 78.5,50.5 78.5,51.5C 77.5655,50.4324 77.2322,49.099 77.5,47.5C 79.099,47.2322 80.4324,47.5655 81.5,48.5 Z"/></g>
<g><path style="opacity:1" fill="#744777" d="M 81.5,48.5 C 81.5,49.5 81.5,50.5 81.5,51.5C 80.5,51.5 79.5,51.5 78.5,51.5C 78.5,50.5 78.5,49.5 78.5,48.5C 79.5,48.5 80.5,48.5 81.5,48.5 Z"/></g>
<g><path style="opacity:1" fill="#865588" d="M 81.5,42.5 C 83.9938,40.9231 85.8271,41.5897 87,44.5C 86.7354,48.0524 86.5687,51.3857 86.5,54.5C 86.2137,52.7231 85.5471,51.0564 84.5,49.5C 84.9186,48.3279 85.5853,47.3279 86.5,46.5C 85.1468,45.4763 84.4802,44.143 84.5,42.5C 83.5,42.5 82.5,42.5 81.5,42.5 Z"/></g>
<g><path style="opacity:1" fill="#691974" d="M 47.5,50.5 C 51.6039,50.8839 55.2706,52.3839 58.5,55C 59.3802,56.3561 59.7135,57.8561 59.5,59.5C 56.7729,62.6048 53.2729,63.9382 49,63.5C 45.2866,63.8946 42.1199,62.8946 39.5,60.5C 38.4808,58.4595 38.4808,56.4595 39.5,54.5C 41.9553,52.7033 44.622,51.37 47.5,50.5 Z"/></g>
<g><path style="opacity:1" fill="#691678" d="M 84.5,70.5 C 87.8875,71.3481 90.2209,73.3481 91.5,76.5C 78.8333,84.1667 66.1667,91.8333 53.5,99.5C 50.5,99.5 47.5,99.5 44.5,99.5C 37.5319,94.6775 30.1986,90.3442 22.5,86.5C 21.1989,84.3281 20.1989,81.9948 19.5,79.5C 18.1667,79.5 16.8333,79.5 15.5,79.5C 15.8844,77.0706 16.551,74.7373 17.5,72.5C 19.143,72.5198 20.4763,71.8532 21.5,70.5C 23.2174,71.6685 23.8841,73.3352 23.5,75.5C 25.5412,75.8541 27.3745,75.8541 29,75.5C 32.0168,77.3419 33.5168,80.0086 33.5,83.5C 36.8333,83.5 40.1667,83.5 43.5,83.5C 43.5,82.5 43.5,81.5 43.5,80.5C 49.1764,80.6661 54.8431,80.4994 60.5,80C 64.5,77 68.5,74 72.5,71C 75.3793,68.9624 78.046,69.1291 80.5,71.5C 81.7362,70.7542 83.0695,70.4208 84.5,70.5 Z"/></g>
<g><path style="opacity:1" fill="#691d74" d="M 23.5,64.5 C 25.9544,68.7889 29.2877,72.2889 33.5,75C 50.094,82.2691 63.7607,78.7691 74.5,64.5C 78.1178,66.1373 81.4512,68.1373 84.5,70.5C 83.0695,70.4208 81.7362,70.7542 80.5,71.5C 78.046,69.1291 75.3793,68.9624 72.5,71C 68.5,74 64.5,77 60.5,80C 54.8431,80.4994 49.1764,80.6661 43.5,80.5C 43.5,81.5 43.5,82.5 43.5,83.5C 40.1667,83.5 36.8333,83.5 33.5,83.5C 33.5168,80.0086 32.0168,77.3419 29,75.5C 27.3745,75.8541 25.5412,75.8541 23.5,75.5C 23.8841,73.3352 23.2174,71.6685 21.5,70.5C 20.4763,71.8532 19.143,72.5198 17.5,72.5C 16.551,74.7373 15.8844,77.0706 15.5,79.5C 16.8333,79.5 18.1667,79.5 19.5,79.5C 20.1989,81.9948 21.1989,84.3281 22.5,86.5C 17.3594,83.0929 12.0261,79.9263 6.5,77C 5.74756,76.3292 5.41423,75.4959 5.5,74.5C 11.2622,70.7375 17.2622,67.4042 23.5,64.5 Z"/></g>
</svg>
