<?xml version="1.0" encoding="UTF-8"?>
<!DOCTYPE svg PUBLIC "-//W3C//DTD SVG 1.1//EN" "http://www.w3.org/Graphics/SVG/1.1/DTD/svg11.dtd">
<svg xmlns="http://www.w3.org/2000/svg" version="1.1" width="100px" height="100px" style="shape-rendering:geometricPrecision; text-rendering:geometricPrecision; image-rendering:optimizeQuality; fill-rule:evenodd; clip-rule:evenodd" xmlns:xlink="http://www.w3.org/1999/xlink">
<g><path style="opacity:0.999" fill="#264de2" d="M 5.5,-0.5 C 35.1667,-0.5 64.8333,-0.5 94.5,-0.5C 94.5674,0.95875 94.2341,2.29208 93.5,3.5C 91.88,4.84091 90.88,6.67424 90.5,9C 91.1394,11.4105 91.4728,13.9105 91.5,16.5C 90.9828,21.8738 90.1494,27.2071 89,32.5C 88.1475,30.8753 87.1475,30.5419 86,31.5C 85.5004,24.8417 85.3337,18.175 85.5,11.5C 85.7733,9.54899 85.1066,8.04899 83.5,7C 72.1716,6.50014 60.8382,6.33348 49.5,6.5C 49.5,9.83333 49.5,13.1667 49.5,16.5C 39.8333,16.5 30.1667,16.5 20.5,16.5C 20.2155,18.4147 20.5489,20.0813 21.5,21.5C 21.5,24.5 21.5,27.5 21.5,30.5C 30.8333,30.5 40.1667,30.5 49.5,30.5C 49.5,33.1667 49.5,35.8333 49.5,38.5C 40.4161,38.1956 31.4161,38.5289 22.5,39.5C 21.0069,40.3121 20.3402,41.6455 20.5,43.5C 21.6035,48.786 22.2702,54.1194 22.5,59.5C 20.5,59.5 18.5,59.5 16.5,59.5C 16.5,61.5 16.5,63.5 16.5,65.5C 14.5853,65.2155 12.9187,65.5489 11.5,66.5C 8.90453,44.3652 6.90453,22.0318 5.5,-0.5 Z"/></g>
<g><path style="opacity:1" fill="#3154c5" d="M 49.5,16.5 C 59.015,16.1731 68.3483,16.5064 77.5,17.5C 58.8333,17.5 40.1667,17.5 21.5,17.5C 21.5,18.8333 21.5,20.1667 21.5,21.5C 20.5489,20.0813 20.2155,18.4147 20.5,16.5C 30.1667,16.5 39.8333,16.5 49.5,16.5 Z"/></g>
<g><path style="opacity:1" fill="#9cb5ee" d="M 77.5,17.5 C 77.8128,21.0419 77.4794,24.3752 76.5,27.5C 76.5,24.5 76.5,21.5 76.5,18.5C 67.5,18.5 58.5,18.5 49.5,18.5C 40.5,18.5 31.5,18.5 22.5,18.5C 22.5,19.5 22.5,20.5 22.5,21.5C 22.1667,21.5 21.8333,21.5 21.5,21.5C 21.5,20.1667 21.5,18.8333 21.5,17.5C 40.1667,17.5 58.8333,17.5 77.5,17.5 Z"/></g>
<g><path style="opacity:1" fill="#f5f8f8" d="M 49.5,18.5 C 58.5,18.5 67.5,18.5 76.5,18.5C 76.5,21.5 76.5,24.5 76.5,27.5C 74.5716,42.9711 73.2382,58.6378 72.5,74.5C 71.209,74.2627 70.209,74.596 69.5,75.5C 63.4355,76.516 57.4355,77.8493 51.5,79.5C 46.0303,77.184 40.3636,75.684 34.5,75C 33.3333,74.5 32.5,73.6667 32,72.5C 30.9887,73.3366 29.8221,73.67 28.5,73.5C 28.3314,68.8189 27.9981,64.1522 27.5,59.5C 34.5,57.8333 37.1667,60.5 35.5,67.5C 39.4158,68.6913 43.4158,69.6913 47.5,70.5C 49.0377,70.5466 50.0377,69.8799 50.5,68.5C 53.0673,68.2785 55.4006,67.6118 57.5,66.5C 59.1172,65.962 60.7839,65.6287 62.5,65.5C 62.5,62.5 62.5,59.5 62.5,56.5C 63.4614,54.7354 63.7947,52.7354 63.5,50.5C 58.8333,50.5 54.1667,50.5 49.5,50.5C 42.9048,48.6981 35.9048,47.8647 28.5,48C 28.0426,47.586 27.7093,47.086 27.5,46.5C 34.8032,45.5027 42.1365,45.1694 49.5,45.5C 49.5,43.8333 49.5,42.1667 49.5,40.5C 54.5,40.5 59.5,40.5 64.5,40.5C 64.5,38.8333 64.5,37.1667 64.5,35.5C 64.5,34.5 64.5,33.5 64.5,32.5C 65.4345,31.4324 65.7678,30.099 65.5,28.5C 60.1667,28.5 54.8333,28.5 49.5,28.5C 41.5671,26.5316 33.2337,25.865 24.5,26.5C 24.5,24.5 24.5,22.5 24.5,20.5C 32.7169,19.2783 40.8835,19.2783 49,20.5C 49.4643,19.9056 49.631,19.2389 49.5,18.5 Z"/></g>
<g><path style="opacity:1" fill="#e0ebfe" d="M 49.5,18.5 C 49.631,19.2389 49.4643,19.9056 49,20.5C 40.8835,19.2783 32.7169,19.2783 24.5,20.5C 24.5,22.5 24.5,24.5 24.5,26.5C 33.2337,25.865 41.5671,26.5316 49.5,28.5C 40.5,28.5 31.5,28.5 22.5,28.5C 22.5,26.1667 22.5,23.8333 22.5,21.5C 22.5,20.5 22.5,19.5 22.5,18.5C 31.5,18.5 40.5,18.5 49.5,18.5 Z"/></g>
<g><path style="opacity:1" fill="#87a3e0" d="M 22.5,28.5 C 31.5,28.5 40.5,28.5 49.5,28.5C 54.8333,28.5 60.1667,28.5 65.5,28.5C 65.7678,30.099 65.4345,31.4324 64.5,32.5C 64.5,31.5 64.5,30.5 64.5,29.5C 50.3234,29.8291 36.3234,29.4958 22.5,28.5 Z"/></g>
<g><path style="opacity:1" fill="#264fe0" d="M 93.5,3.5 C 91.3314,32.19 88.8314,60.8566 86,89.5C 77.9995,92.3755 69.8328,94.7088 61.5,96.5C 63.539,95.089 64.539,93.089 64.5,90.5C 62.1667,90.5 59.8333,90.5 57.5,90.5C 64.6969,87.8649 72.0302,85.5316 79.5,83.5C 80.512,59.2533 82.512,35.2533 85.5,11.5C 85.3337,18.175 85.5004,24.8417 86,31.5C 87.1475,30.5419 88.1475,30.8753 89,32.5C 90.1494,27.2071 90.9828,21.8738 91.5,16.5C 91.4728,13.9105 91.1394,11.4105 90.5,9C 90.88,6.67424 91.88,4.84091 93.5,3.5 Z"/></g>
<g><path style="opacity:1" fill="#2c64eb" d="M 49.5,30.5 C 54.1667,30.5 58.8333,30.5 63.5,30.5C 63.1667,33.1667 62.8333,35.8333 62.5,38.5C 58.1667,38.5 53.8333,38.5 49.5,38.5C 49.5,35.8333 49.5,33.1667 49.5,30.5 Z"/></g>
<g><path style="opacity:1" fill="#345ac7" d="M 21.5,21.5 C 21.8333,21.5 22.1667,21.5 22.5,21.5C 22.5,23.8333 22.5,26.1667 22.5,28.5C 36.3234,29.4958 50.3234,29.8291 64.5,29.5C 64.5,30.5 64.5,31.5 64.5,32.5C 64.5,33.5 64.5,34.5 64.5,35.5C 63.5655,36.5676 63.2322,37.901 63.5,39.5C 50.3226,39.1712 37.3226,39.5045 24.5,40.5C 24.5,43.1667 24.5,45.8333 24.5,48.5C 24.5,49.5 24.5,50.5 24.5,51.5C 22.5772,47.9707 21.9106,43.9707 22.5,39.5C 31.4161,38.5289 40.4161,38.1956 49.5,38.5C 53.8333,38.5 58.1667,38.5 62.5,38.5C 62.8333,35.8333 63.1667,33.1667 63.5,30.5C 58.8333,30.5 54.1667,30.5 49.5,30.5C 40.1667,30.5 30.8333,30.5 21.5,30.5C 21.5,27.5 21.5,24.5 21.5,21.5 Z"/></g>
<g><path style="opacity:1" fill="#6a88c4" d="M 64.5,35.5 C 64.5,37.1667 64.5,38.8333 64.5,40.5C 59.5,40.5 54.5,40.5 49.5,40.5C 41.1667,40.5 32.8333,40.5 24.5,40.5C 37.3226,39.5045 50.3226,39.1712 63.5,39.5C 63.2322,37.901 63.5655,36.5676 64.5,35.5 Z"/></g>
<g><path style="opacity:1" fill="#3065e4" d="M 77.5,17.5 C 78.1499,17.8039 78.8165,18.1373 79.5,18.5C 79.8333,20.6667 80.1667,22.8333 80.5,25C 79.7105,29.8163 79.0438,34.6496 78.5,39.5C 79.4124,49.1581 79.5791,58.8247 79,68.5C 74.9071,70.9773 74.4071,74.1439 77.5,78C 77.1667,78.5 76.8333,79 76.5,79.5C 73.9127,78.5851 71.4127,77.5851 69,76.5C 62.6765,79.1883 56.1765,81.1883 49.5,82.5C 48.8333,81.8333 48.1667,81.1667 47.5,80.5C 49.099,80.7678 50.4324,80.4345 51.5,79.5C 57.4355,77.8493 63.4355,76.516 69.5,75.5C 70.8333,75.5 72.1667,75.5 73.5,75.5C 75.5419,59.5789 76.5419,43.5789 76.5,27.5C 77.4794,24.3752 77.8128,21.0419 77.5,17.5 Z"/></g>
<g><path style="opacity:1" fill="#e8ecf6" d="M 24.5,40.5 C 32.8333,40.5 41.1667,40.5 49.5,40.5C 49.5,42.1667 49.5,43.8333 49.5,45.5C 42.1365,45.1694 34.8032,45.5027 27.5,46.5C 27.7093,47.086 28.0426,47.586 28.5,48C 35.9048,47.8647 42.9048,48.6981 49.5,50.5C 40.897,51.0882 32.5637,50.4215 24.5,48.5C 24.5,45.8333 24.5,43.1667 24.5,40.5 Z"/></g>
<g><path style="opacity:1" fill="#b9cdfd" d="M 24.5,48.5 C 32.5637,50.4215 40.897,51.0882 49.5,50.5C 54.1667,50.5 58.8333,50.5 63.5,50.5C 63.7947,52.7354 63.4614,54.7354 62.5,56.5C 62.9227,54.2188 62.256,52.5521 60.5,51.5C 48.5,51.5 36.5,51.5 24.5,51.5C 24.5,50.5 24.5,49.5 24.5,48.5 Z"/></g>
<g><path style="opacity:1" fill="#5579d1" d="M 76.5,27.5 C 76.5419,43.5789 75.5419,59.5789 73.5,75.5C 72.1667,75.5 70.8333,75.5 69.5,75.5C 70.209,74.596 71.209,74.2627 72.5,74.5C 73.2382,58.6378 74.5716,42.9711 76.5,27.5 Z"/></g>
<g><path style="opacity:1" fill="#244ee3" d="M 49.5,53.5 C 49.5,57.8333 49.5,62.1667 49.5,66.5C 47.8042,66.3146 46.4709,65.4813 45.5,64C 43.5273,63.5045 41.5273,63.3379 39.5,63.5C 41.0159,56.8474 38.3492,53.6807 31.5,54C 37.6041,53.7755 43.6041,53.6088 49.5,53.5 Z"/></g>
<g><path style="opacity:1" fill="#3060da" d="M 24.5,51.5 C 36.5,51.5 48.5,51.5 60.5,51.5C 61.436,55.7352 61.7693,60.0685 61.5,64.5C 59.5168,64.1568 58.1834,64.8235 57.5,66.5C 55.5,66.5 53.5,66.5 51.5,66.5C 54.4391,65.279 57.4391,63.9457 60.5,62.5C 58.5229,60.0774 56.8562,57.4107 55.5,54.5C 53.5891,53.5233 51.5891,52.8567 49.5,52.5C 41.5,52.5 33.5,52.5 25.5,52.5C 24.8333,52.5 24.5,52.1667 24.5,51.5 Z"/></g>
<g><path style="opacity:1" fill="#4a73c2" d="M 60.5,51.5 C 62.256,52.5521 62.9227,54.2188 62.5,56.5C 62.5,59.5 62.5,62.5 62.5,65.5C 60.7839,65.6287 59.1172,65.962 57.5,66.5C 58.1834,64.8235 59.5168,64.1568 61.5,64.5C 61.7693,60.0685 61.436,55.7352 60.5,51.5 Z"/></g>
<g><path style="opacity:1" fill="#d2dbfb" d="M 39.5,65.5 C 42.763,67.5682 46.4296,68.5682 50.5,68.5C 50.0377,69.8799 49.0377,70.5466 47.5,70.5C 43.4158,69.6913 39.4158,68.6913 35.5,67.5C 37.1667,60.5 34.5,57.8333 27.5,59.5C 27.9981,64.1522 28.3314,68.8189 28.5,73.5C 29.8221,73.67 30.9887,73.3366 32,72.5C 32.5,73.6667 33.3333,74.5 34.5,75C 40.3636,75.684 46.0303,77.184 51.5,79.5C 50.4324,80.4345 49.099,80.7678 47.5,80.5C 46.4324,79.5655 45.099,79.2322 43.5,79.5C 38.0732,77.5672 32.5732,75.5672 27,73.5C 26.3672,67.839 25.8672,62.1723 25.5,56.5C 29.226,56.1774 32.8927,56.5108 36.5,57.5C 36.7657,60.6502 37.7657,63.3168 39.5,65.5 Z"/></g>
<g><path style="opacity:1" fill="#2b64f3" d="M 49.5,52.5 C 51.5891,52.8567 53.5891,53.5233 55.5,54.5C 56.8562,57.4107 58.5229,60.0774 60.5,62.5C 57.4391,63.9457 54.4391,65.279 51.5,66.5C 51.1667,66.5 50.8333,66.5 50.5,66.5C 50.1667,66.5 49.8333,66.5 49.5,66.5C 49.5,62.1667 49.5,57.8333 49.5,53.5C 49.5,53.1667 49.5,52.8333 49.5,52.5 Z"/></g>
<g><path style="opacity:1" fill="#5170cc" d="M 39.5,65.5 C 42.5804,65.7477 45.5804,66.4144 48.5,67.5C 49.4164,67.4573 50.0831,67.1239 50.5,66.5C 50.8333,66.5 51.1667,66.5 51.5,66.5C 53.5,66.5 55.5,66.5 57.5,66.5C 55.4006,67.6118 53.0673,68.2785 50.5,68.5C 46.4296,68.5682 42.763,67.5682 39.5,65.5 Z"/></g>
<g><path style="opacity:1" fill="#2c62f0" d="M 85.5,11.5 C 82.512,35.2533 80.512,59.2533 79.5,83.5C 72.0302,85.5316 64.6969,87.8649 57.5,90.5C 55.0799,90.2924 52.7466,90.6258 50.5,91.5C 49.5159,88.5719 49.1826,85.5719 49.5,82.5C 56.1765,81.1883 62.6765,79.1883 69,76.5C 71.4127,77.5851 73.9127,78.5851 76.5,79.5C 76.8333,79 77.1667,78.5 77.5,78C 74.4071,74.1439 74.9071,70.9773 79,68.5C 79.5791,58.8247 79.4124,49.1581 78.5,39.5C 79.0438,34.6496 79.7105,29.8163 80.5,25C 80.1667,22.8333 79.8333,20.6667 79.5,18.5C 78.8165,18.1373 78.1499,17.8039 77.5,17.5C 68.3483,16.5064 59.015,16.1731 49.5,16.5C 49.5,13.1667 49.5,9.83333 49.5,6.5C 60.8382,6.33348 72.1716,6.50014 83.5,7C 85.1066,8.04899 85.7733,9.54899 85.5,11.5 Z"/></g>
<g><path style="opacity:1" fill="#3251cc" d="M 25.5,52.5 C 33.5,52.5 41.5,52.5 49.5,52.5C 49.5,52.8333 49.5,53.1667 49.5,53.5C 43.6041,53.6088 37.6041,53.7755 31.5,54C 38.3492,53.6807 41.0159,56.8474 39.5,63.5C 41.5273,63.3379 43.5273,63.5045 45.5,64C 46.4709,65.4813 47.8042,66.3146 49.5,66.5C 49.8333,66.5 50.1667,66.5 50.5,66.5C 50.0831,67.1239 49.4164,67.4573 48.5,67.5C 45.5804,66.4144 42.5804,65.7477 39.5,65.5C 37.7657,63.3168 36.7657,60.6502 36.5,57.5C 32.8927,56.5108 29.226,56.1774 25.5,56.5C 25.8672,62.1723 26.3672,67.839 27,73.5C 32.5732,75.5672 38.0732,77.5672 43.5,79.5C 36.5305,78.1814 29.5305,76.8481 22.5,75.5C 23.1419,72.865 23.8086,70.1984 24.5,67.5C 24.1007,64.5074 23.7674,61.5074 23.5,58.5C 23.6759,56.2147 24.3426,54.2147 25.5,52.5 Z"/></g>
<g><path style="opacity:0.999" fill="#264de2" d="M 22.5,39.5 C 21.9106,43.9707 22.5772,47.9707 24.5,51.5C 24.5,52.1667 24.8333,52.5 25.5,52.5C 24.3426,54.2147 23.6759,56.2147 23.5,58.5C 23.7674,61.5074 24.1007,64.5074 24.5,67.5C 23.8086,70.1984 23.1419,72.865 22.5,75.5C 29.5305,76.8481 36.5305,78.1814 43.5,79.5C 45.099,79.2322 46.4324,79.5655 47.5,80.5C 48.1667,81.1667 48.8333,81.8333 49.5,82.5C 49.1826,85.5719 49.5159,88.5719 50.5,91.5C 52.7466,90.6258 55.0799,90.2924 57.5,90.5C 59.8333,90.5 62.1667,90.5 64.5,90.5C 64.539,93.089 63.539,95.089 61.5,96.5C 58.7479,97.5115 56.0812,98.5115 53.5,99.5C 50.8333,99.5 48.1667,99.5 45.5,99.5C 34.925,96.184 24.2583,92.8507 13.5,89.5C 12.2338,81.9048 11.5672,74.2382 11.5,66.5C 12.9187,65.5489 14.5853,65.2155 16.5,65.5C 16.5,63.5 16.5,61.5 16.5,59.5C 18.5,59.5 20.5,59.5 22.5,59.5C 22.2702,54.1194 21.6035,48.786 20.5,43.5C 20.3402,41.6455 21.0069,40.3121 22.5,39.5 Z"/></g>
</svg>
