<?xml version="1.0" encoding="UTF-8"?>
<!DOCTYPE svg PUBLIC "-//W3C//DTD SVG 1.1//EN" "http://www.w3.org/Graphics/SVG/1.1/DTD/svg11.dtd">
<svg xmlns="http://www.w3.org/2000/svg" version="1.1" width="100px" height="100px" style="shape-rendering:geometricPrecision; text-rendering:geometricPrecision; image-rendering:optimizeQuality; fill-rule:evenodd; clip-rule:evenodd" xmlns:xlink="http://www.w3.org/1999/xlink">
<g><path style="opacity:0.995" fill="#346ce2" d="M 55.5,2.5 C 67.1037,7.30237 78.4371,12.6357 89.5,18.5C 91.7899,23.2326 93.1232,28.2326 93.5,33.5C 89.2557,32.1883 84.9223,31.6883 80.5,32C 78.2787,33.6692 77.9454,35.6692 79.5,38C 78.6293,39.3638 77.6293,40.5305 76.5,41.5C 75.551,39.2627 74.8844,36.9294 74.5,34.5C 78.5408,33.5028 79.8741,31.1695 78.5,27.5C 78.5,27.1667 78.5,26.8333 78.5,26.5C 77.656,24.2407 75.9893,23.2407 73.5,23.5C 73.5,24.8333 73.5,26.1667 73.5,27.5C 71.5082,27.3285 69.8415,27.9951 68.5,29.5C 64.0028,25.3683 58.6695,23.035 52.5,22.5C 52.8064,19.6146 52.4731,16.9479 51.5,14.5C 50.791,13.596 49.791,13.2627 48.5,13.5C 46.6122,15.9878 45.9455,18.9878 46.5,22.5C 45.209,22.2627 44.209,22.596 43.5,23.5C 41.139,23.6741 38.8056,24.0074 36.5,24.5C 37.7804,23.0687 39.4471,22.4021 41.5,22.5C 41.1566,18.9606 40.4899,15.4606 39.5,12C 38.9854,7.86004 40.6521,5.02671 44.5,3.5C 46.4946,6.26148 48.4946,8.92814 50.5,11.5C 53.0897,9.99588 53.7563,7.99588 52.5,5.5C 53.9935,4.85892 54.9935,3.85892 55.5,2.5 Z"/></g>
<g><path style="opacity:0.999" fill="#326be4" d="M 55.5,2.5 C 54.9935,3.85892 53.9935,4.85892 52.5,5.5C 53.7563,7.99588 53.0897,9.99588 50.5,11.5C 48.4946,8.92814 46.4946,6.26148 44.5,3.5C 40.6521,5.02671 38.9854,7.86004 39.5,12C 40.4899,15.4606 41.1566,18.9606 41.5,22.5C 39.4471,22.4021 37.7804,23.0687 36.5,24.5C 35.1779,24.67 34.0113,24.3366 33,23.5C 32.5065,25.1341 32.3398,26.8008 32.5,28.5C 30.8333,28.5 29.1667,28.5 27.5,28.5C 27.4208,27.0695 27.7542,25.7362 28.5,24.5C 25.5719,23.5159 22.5719,23.1826 19.5,23.5C 19.4828,25.5648 19.1495,27.5648 18.5,29.5C 15.1538,31.3236 11.4872,31.9903 7.5,31.5C 7.83333,33.5 8.16667,35.5 8.5,37.5C 7.5,37.5 6.5,37.5 5.5,37.5C 5.99255,35.1944 6.32588,32.861 6.5,30.5C 6.11382,25.1502 7.78048,20.6502 11.5,17C 22.8026,11.683 34.1359,6.34964 45.5,1C 48.1667,0.333333 50.8333,0.333333 53.5,1C 54.4158,1.27842 55.0825,1.77842 55.5,2.5 Z"/></g>
<g><path style="opacity:1" fill="#4772c6" d="M 48.5,13.5 C 47.5863,16.728 47.2529,20.0613 47.5,23.5C 46.1667,23.5 44.8333,23.5 43.5,23.5C 44.209,22.596 45.209,22.2627 46.5,22.5C 45.9455,18.9878 46.6122,15.9878 48.5,13.5 Z"/></g>
<g><path style="opacity:1" fill="#4373d3" d="M 36.5,24.5 C 38.8056,24.0074 41.139,23.6741 43.5,23.5C 39.8677,24.9836 36.5344,26.9836 33.5,29.5C 32.2003,30.1079 30.8669,30.7745 29.5,31.5C 26.5355,30.3489 23.8688,28.6822 21.5,26.5C 20.0205,29.257 20.6872,31.257 23.5,32.5C 20.715,33.0838 19.0483,32.0838 18.5,29.5C 19.1495,27.5648 19.4828,25.5648 19.5,23.5C 22.5719,23.1826 25.5719,23.5159 28.5,24.5C 27.7542,25.7362 27.4208,27.0695 27.5,28.5C 29.1667,28.5 30.8333,28.5 32.5,28.5C 32.3398,26.8008 32.5065,25.1341 33,23.5C 34.0113,24.3366 35.1779,24.67 36.5,24.5 Z"/></g>
<g><path style="opacity:1" fill="#4a73cc" d="M 51.5,14.5 C 52.4731,16.9479 52.8064,19.6146 52.5,22.5C 58.6695,23.035 64.0028,25.3683 68.5,29.5C 69.8415,27.9951 71.5082,27.3285 73.5,27.5C 73.5,26.1667 73.5,24.8333 73.5,23.5C 75.9893,23.2407 77.656,24.2407 78.5,26.5C 77.448,26.3505 76.448,26.5172 75.5,27C 72.1537,32.4319 68.487,32.7653 64.5,28C 60.2439,26.1927 55.9106,24.6927 51.5,23.5C 51.5,20.5 51.5,17.5 51.5,14.5 Z"/></g>
<g><path style="opacity:0.998" fill="#376ce2" d="M 18.5,29.5 C 19.0483,32.0838 20.715,33.0838 23.5,32.5C 25.1316,32.8247 26.1316,33.8247 26.5,35.5C 25.999,37.8357 24.999,39.8357 23.5,41.5C 22.8501,41.8039 22.1835,42.1373 21.5,42.5C 20.5091,46.4454 20.1758,50.4454 20.5,54.5C 18.8333,54.5 17.1667,54.5 15.5,54.5C 16.964,51.0683 18.2973,47.5683 19.5,44C 19.3606,38.9786 17.3606,37.8119 13.5,40.5C 16.8165,46.3775 14.9831,49.0442 8,48.5C 8.01872,50.1075 8.18539,51.7741 8.5,53.5C 6.17894,53.2289 4.17894,53.8955 2.5,55.5C 2.23886,53.4048 1.90553,51.4048 1.5,49.5C 2.42957,42.8637 4.09623,36.5304 6.5,30.5C 6.32588,32.861 5.99255,35.1944 5.5,37.5C 6.5,37.5 7.5,37.5 8.5,37.5C 8.16667,35.5 7.83333,33.5 7.5,31.5C 11.4872,31.9903 15.1538,31.3236 18.5,29.5 Z"/></g>
<g><path style="opacity:0.991" fill="#336be5" d="M 93.5,33.5 C 95.5,40.5 97.5,47.5 99.5,54.5C 99.5,58.1667 99.5,61.8333 99.5,65.5C 94.1667,71.5 88.8333,77.5 83.5,83.5C 83.4019,77.627 82.4019,77.2936 80.5,82.5C 80.1667,81.8333 79.8333,81.1667 79.5,80.5C 80.3022,77.5514 80.6355,74.5514 80.5,71.5C 82.8333,71.5 85.1667,71.5 87.5,71.5C 87.5,69.1667 87.5,66.8333 87.5,64.5C 85.4357,64.313 83.4357,63.813 81.5,63C 87.3262,62.4166 88.6595,59.9166 85.5,55.5C 83.3926,54.5318 81.0593,54.1984 78.5,54.5C 78.9321,51.1226 78.2655,48.1226 76.5,45.5C 76.5,44.1667 76.5,42.8333 76.5,41.5C 77.6293,40.5305 78.6293,39.3638 79.5,38C 77.9454,35.6692 78.2787,33.6692 80.5,32C 84.9223,31.6883 89.2557,32.1883 93.5,33.5 Z"/></g>
<g><path style="opacity:1" fill="#537ac9" d="M 78.5,27.5 C 79.8741,31.1695 78.5408,33.5028 74.5,34.5C 74.8844,36.9294 75.551,39.2627 76.5,41.5C 76.5,42.8333 76.5,44.1667 76.5,45.5C 74.9963,42.3405 73.663,39.0072 72.5,35.5C 73.8323,33.3367 75.6656,31.67 78,30.5C 78.4828,29.552 78.6495,28.552 78.5,27.5 Z"/></g>
<g><path style="opacity:0.975" fill="#336be8" d="M 15.5,54.5 C 14.1667,54.5 12.8333,54.5 11.5,54.5C 11.5,55.5 11.5,56.5 11.5,57.5C 8.47746,57.1052 7.47746,58.1052 8.5,60.5C 7.85506,61.646 7.02173,62.646 6,63.5C 3.83683,62.232 1.67016,62.232 -0.5,63.5C -0.5,60.5 -0.5,57.5 -0.5,54.5C 0.53747,53.0697 1.20414,51.403 1.5,49.5C 1.90553,51.4048 2.23886,53.4048 2.5,55.5C 4.17894,53.8955 6.17894,53.2289 8.5,53.5C 8.18539,51.7741 8.01872,50.1075 8,48.5C 14.9831,49.0442 16.8165,46.3775 13.5,40.5C 17.3606,37.8119 19.3606,38.9786 19.5,44C 18.2973,47.5683 16.964,51.0683 15.5,54.5 Z"/></g>
<g><path style="opacity:1" fill="#f3f9fd" d="M 56.5,29.5 C 55.1667,29.5 53.8333,29.5 52.5,29.5C 52.5,33.5 52.5,37.5 52.5,41.5C 54.099,41.7678 55.4324,41.4345 56.5,40.5C 58.8162,39.1944 61.1495,37.8611 63.5,36.5C 64.2216,36.0825 64.7216,35.4158 65,34.5C 65.513,36.5206 66.6797,38.0206 68.5,39C 67.5842,39.2784 66.9175,39.7784 66.5,40.5C 63.6534,42.5135 61.3201,45.0135 59.5,48C 60.528,49.9706 62.1947,51.1372 64.5,51.5C 64.4142,52.4959 64.7476,53.3292 65.5,54C 62.1667,54.3333 58.8333,54.6667 55.5,55C 55.4814,56.5206 55.148,58.0206 54.5,59.5C 52.9731,59.427 51.9731,60.0937 51.5,61.5C 50.1667,60.1667 48.8333,60.1667 47.5,61.5C 46.1667,61.5 44.8333,61.5 43.5,61.5C 44.921,55.8868 42.921,53.7201 37.5,55C 36.944,55.3826 36.6107,55.8826 36.5,56.5C 34.5648,57.1495 32.5648,57.4828 30.5,57.5C 33.1063,54.3841 32.1063,53.0508 27.5,53.5C 27.1936,50.6146 27.5269,47.9479 28.5,45.5C 28.1924,47.924 28.5258,50.2573 29.5,52.5C 42.1402,50.5345 42.8069,46.5345 31.5,40.5C 29.7118,41.2826 28.7118,42.6159 28.5,44.5C 27.6851,43.5707 26.8518,42.5707 26,41.5C 25.5831,42.756 24.7498,43.4226 23.5,43.5C 23.5,42.8333 23.5,42.1667 23.5,41.5C 24.999,39.8357 25.999,37.8357 26.5,35.5C 26.1316,33.8247 25.1316,32.8247 23.5,32.5C 20.6872,31.257 20.0205,29.257 21.5,26.5C 23.8688,28.6822 26.5355,30.3489 29.5,31.5C 30.8669,30.7745 32.2003,30.1079 33.5,29.5C 36.2903,29.7776 38.7903,29.1109 41,27.5C 41.5,27.6667 42,27.8333 42.5,28C 41.244,28.4169 40.5774,29.2502 40.5,30.5C 40.5,30.8333 40.5,31.1667 40.5,31.5C 38.4365,32.058 36.7698,33.2246 35.5,35C 36.0717,37.0736 37.405,38.2402 39.5,38.5C 39.9731,39.9063 40.9731,40.573 42.5,40.5C 43.5676,41.4345 44.901,41.7678 46.5,41.5C 47.1627,39.5274 47.4961,37.3608 47.5,35C 47.4188,32.3746 46.7522,30.0413 45.5,28C 47.5551,27.2969 49.8884,26.4635 52.5,25.5C 55.37,25.6017 57.7033,26.7683 59.5,29C 58.552,29.4828 57.552,29.6495 56.5,29.5 Z"/></g>
<g><path style="opacity:1" fill="#6288bf" d="M 42.5,30.5 C 43.5676,29.5655 44.901,29.2322 46.5,29.5C 46.5,33.5 46.5,37.5 46.5,41.5C 44.901,41.7678 43.5676,41.4345 42.5,40.5C 43.5,40.5 44.5,40.5 45.5,40.5C 45.5,37.1667 45.5,33.8333 45.5,30.5C 44.5,30.5 43.5,30.5 42.5,30.5 Z"/></g>
<g><path style="opacity:1" fill="#5577c4" d="M 40.5,31.5 C 39.5244,32.8149 38.5244,34.1482 37.5,35.5C 38.1925,36.5178 38.8592,37.5178 39.5,38.5C 37.405,38.2402 36.0717,37.0736 35.5,35C 36.7698,33.2246 38.4365,32.058 40.5,31.5 Z"/></g>
<g><path style="opacity:1" fill="#3a6ed7" d="M 40.5,30.5 C 41.1667,30.5 41.8333,30.5 42.5,30.5C 43.5,30.5 44.5,30.5 45.5,30.5C 45.5,33.8333 45.5,37.1667 45.5,40.5C 44.5,40.5 43.5,40.5 42.5,40.5C 40.9731,40.573 39.9731,39.9063 39.5,38.5C 38.8592,37.5178 38.1925,36.5178 37.5,35.5C 38.5244,34.1482 39.5244,32.8149 40.5,31.5C 40.5,31.1667 40.5,30.8333 40.5,30.5 Z"/></g>
<g><path style="opacity:1" fill="#4673c8" d="M 28.5,45.5 C 28.5,45.1667 28.5,44.8333 28.5,44.5C 28.7118,42.6159 29.7118,41.2826 31.5,40.5C 42.8069,46.5345 42.1402,50.5345 29.5,52.5C 28.5258,50.2573 28.1924,47.924 28.5,45.5 Z"/></g>
<g><path style="opacity:1" fill="#356ce2" d="M 30.5,43.5 C 31.8221,43.33 32.9887,43.6634 34,44.5C 34.4955,46.4727 34.6621,48.4727 34.5,50.5C 33.1779,50.67 32.0113,50.3366 31,49.5C 30.5045,47.5273 30.3379,45.5273 30.5,43.5 Z"/></g>
<g><path style="opacity:1" fill="#5578c2" d="M 66.5,40.5 C 68.5,40.5 69.5,41.5 69.5,43.5C 70.4767,46.2869 70.81,49.2869 70.5,52.5C 68.5,52.1667 66.5,51.8333 64.5,51.5C 62.1947,51.1372 60.528,49.9706 59.5,48C 61.3201,45.0135 63.6534,42.5135 66.5,40.5 Z"/></g>
<g><path style="opacity:1" fill="#396ad9" d="M 69.5,43.5 C 69.5,45.8333 69.5,48.1667 69.5,50.5C 62.4364,50.6484 61.1031,48.1484 65.5,43C 66.9285,42.4209 68.2618,42.5876 69.5,43.5 Z"/></g>
<g><path style="opacity:1" fill="#5179c7" d="M 76.5,45.5 C 78.2655,48.1226 78.9321,51.1226 78.5,54.5C 81.0593,54.1984 83.3926,54.5318 85.5,55.5C 85.5,55.8333 85.5,56.1667 85.5,56.5C 77.1618,57.4819 74.1618,53.8152 76.5,45.5 Z"/></g>
<g><path style="opacity:1" fill="#4b6fc1" d="M 47.5,47.5 C 51.9083,47.062 53.5749,49.062 52.5,53.5C 50.5,53.5 48.5,53.5 46.5,53.5C 46.3253,51.3792 46.6586,49.3792 47.5,47.5 Z"/></g>
<g><path style="opacity:1" fill="#4c77c6" d="M 23.5,41.5 C 23.5,42.1667 23.5,42.8333 23.5,43.5C 22.8195,47.1191 22.3195,50.7858 22,54.5C 19.5185,56.3137 16.6852,56.9804 13.5,56.5C 14.1667,55.8333 14.8333,55.1667 15.5,54.5C 17.1667,54.5 18.8333,54.5 20.5,54.5C 20.1758,50.4454 20.5091,46.4454 21.5,42.5C 22.1835,42.1373 22.8501,41.8039 23.5,41.5 Z"/></g>
<g><path style="opacity:1" fill="#ebf7fd" d="M 48.5,13.5 C 49.791,13.2627 50.791,13.596 51.5,14.5C 51.5,17.5 51.5,20.5 51.5,23.5C 55.9106,24.6927 60.2439,26.1927 64.5,28C 68.487,32.7653 72.1537,32.4319 75.5,27C 76.448,26.5172 77.448,26.3505 78.5,26.5C 78.5,26.8333 78.5,27.1667 78.5,27.5C 78.6495,28.552 78.4828,29.552 78,30.5C 75.6656,31.67 73.8323,33.3367 72.5,35.5C 73.663,39.0072 74.9963,42.3405 76.5,45.5C 74.1618,53.8152 77.1618,57.4819 85.5,56.5C 85.5,57.8333 85.5,59.1667 85.5,60.5C 83.8333,60.5 82.1667,60.5 80.5,60.5C 79.3409,58.6231 77.6742,58.1231 75.5,59C 74.086,60.9935 73.086,63.1602 72.5,65.5C 70.5293,67.8082 68.5293,70.1415 66.5,72.5C 65.391,72.5569 64.391,72.8902 63.5,73.5C 63.5,72.5 63.5,71.5 63.5,70.5C 64.675,70.719 65.675,70.3857 66.5,69.5C 65.3112,68.5713 63.9778,68.238 62.5,68.5C 65.5865,65.7382 67.9198,62.4049 69.5,58.5C 68.3112,57.5713 66.9778,57.238 65.5,57.5C 64.8333,57.5 64.1667,57.5 63.5,57.5C 61.3926,56.5318 59.0593,56.1984 56.5,56.5C 57.2134,59.5939 58.2134,62.5939 59.5,65.5C 58.5041,65.5858 57.6708,65.2524 57,64.5C 56.2152,62.751 55.3818,61.0843 54.5,59.5C 55.148,58.0206 55.4814,56.5206 55.5,55C 58.8333,54.6667 62.1667,54.3333 65.5,54C 64.7476,53.3292 64.4142,52.4959 64.5,51.5C 66.5,51.8333 68.5,52.1667 70.5,52.5C 70.81,49.2869 70.4767,46.2869 69.5,43.5C 69.5,41.5 68.5,40.5 66.5,40.5C 66.9175,39.7784 67.5842,39.2784 68.5,39C 66.6797,38.0206 65.513,36.5206 65,34.5C 64.7216,35.4158 64.2216,36.0825 63.5,36.5C 62.7322,33.4384 60.7322,31.7717 57.5,31.5C 57.1667,30.8333 56.8333,30.1667 56.5,29.5C 57.552,29.6495 58.552,29.4828 59.5,29C 57.7033,26.7683 55.37,25.6017 52.5,25.5C 49.8884,26.4635 47.5551,27.2969 45.5,28C 46.7522,30.0413 47.4188,32.3746 47.5,35C 47.4961,37.3608 47.1627,39.5274 46.5,41.5C 46.5,37.5 46.5,33.5 46.5,29.5C 44.901,29.2322 43.5676,29.5655 42.5,30.5C 41.8333,30.5 41.1667,30.5 40.5,30.5C 40.5774,29.2502 41.244,28.4169 42.5,28C 42,27.8333 41.5,27.6667 41,27.5C 38.7903,29.1109 36.2903,29.7776 33.5,29.5C 36.5344,26.9836 39.8677,24.9836 43.5,23.5C 44.8333,23.5 46.1667,23.5 47.5,23.5C 47.2529,20.0613 47.5863,16.728 48.5,13.5 Z"/></g>
<g><path style="opacity:1" fill="#6583c0" d="M 56.5,29.5 C 56.8333,30.1667 57.1667,30.8333 57.5,31.5C 56.1667,31.5 54.8333,31.5 53.5,31.5C 53.5,34.5 53.5,37.5 53.5,40.5C 54.5,40.5 55.5,40.5 56.5,40.5C 55.4324,41.4345 54.099,41.7678 52.5,41.5C 52.5,37.5 52.5,33.5 52.5,29.5C 53.8333,29.5 55.1667,29.5 56.5,29.5 Z"/></g>
<g><path style="opacity:1" fill="#436ece" d="M 57.5,31.5 C 60.7322,31.7717 62.7322,33.4384 63.5,36.5C 61.1495,37.8611 58.8162,39.1944 56.5,40.5C 55.5,40.5 54.5,40.5 53.5,40.5C 53.5,37.5 53.5,34.5 53.5,31.5C 54.8333,31.5 56.1667,31.5 57.5,31.5 Z"/></g>
<g><path style="opacity:1" fill="#587cc6" d="M 80.5,60.5 C 77.1405,59.7904 75.3071,61.1238 75,64.5C 74.3292,65.2524 73.4959,65.5858 72.5,65.5C 73.086,63.1602 74.086,60.9935 75.5,59C 77.6742,58.1231 79.3409,58.6231 80.5,60.5 Z"/></g>
<g><path style="opacity:1" fill="#4875cc" d="M 13.5,57.5 C 13.5,58.5 13.5,59.5 13.5,60.5C 17.1352,59.8857 20.8019,59.5524 24.5,59.5C 25.2872,62.4077 26.6205,65.0744 28.5,67.5C 24.6026,67.1021 22.6026,64.9355 22.5,61C 19.7068,62.0818 16.7068,62.4151 13.5,62C 12.1991,60.3845 12.1991,58.8845 13.5,57.5 Z"/></g>
<g><path style="opacity:1" fill="#356de2" d="M 85.5,55.5 C 88.6595,59.9166 87.3262,62.4166 81.5,63C 83.4357,63.813 85.4357,64.313 87.5,64.5C 87.5,66.8333 87.5,69.1667 87.5,71.5C 85.1667,71.5 82.8333,71.5 80.5,71.5C 80.6355,74.5514 80.3022,77.5514 79.5,80.5C 79.8333,81.1667 80.1667,81.8333 80.5,82.5C 82.4019,77.2936 83.4019,77.627 83.5,83.5C 80.4974,87.5086 77.4974,91.5086 74.5,95.5C 74.7733,93.549 74.1066,92.049 72.5,91C 73.3366,89.9887 73.67,88.8221 73.5,87.5C 70.2309,87.077 67.0642,87.077 64,87.5C 62.3333,86.5 60.6667,85.5 59,84.5C 57.159,87.3231 55.659,87.1564 54.5,84C 56.2616,82.238 56.9283,80.4047 56.5,78.5C 57.4674,79.8062 58.8007,80.4729 60.5,80.5C 60.8153,84.8004 63.1486,86.467 67.5,85.5C 67.7678,83.901 67.4345,82.5676 66.5,81.5C 66.5,81.1667 66.5,80.8333 66.5,80.5C 65.4696,77.7705 65.4696,75.1038 66.5,72.5C 68.5293,70.1415 70.5293,67.8082 72.5,65.5C 73.4959,65.5858 74.3292,65.2524 75,64.5C 75.3071,61.1238 77.1405,59.7904 80.5,60.5C 82.1667,60.5 83.8333,60.5 85.5,60.5C 85.5,59.1667 85.5,57.8333 85.5,56.5C 85.5,56.1667 85.5,55.8333 85.5,55.5 Z"/></g>
<g><path style="opacity:1" fill="#346ce4" d="M 15.5,54.5 C 14.8333,55.1667 14.1667,55.8333 13.5,56.5C 13.5,56.8333 13.5,57.1667 13.5,57.5C 12.1991,58.8845 12.1991,60.3845 13.5,62C 16.7068,62.4151 19.7068,62.0818 22.5,61C 22.6026,64.9355 24.6026,67.1021 28.5,67.5C 30.1696,70.0016 32.3363,72.0016 35,73.5C 35.7484,75.8401 35.2484,77.8401 33.5,79.5C 31.6921,80.9179 31.0254,82.9179 31.5,85.5C 36.6383,86.0299 39.305,83.6965 39.5,78.5C 45.16,79.7516 50.8267,79.7516 56.5,78.5C 56.9283,80.4047 56.2616,82.238 54.5,84C 55.659,87.1564 57.159,87.3231 59,84.5C 60.6667,85.5 62.3333,86.5 64,87.5C 67.0642,87.077 70.2309,87.077 73.5,87.5C 73.67,88.8221 73.3366,89.9887 72.5,91C 74.1066,92.049 74.7733,93.549 74.5,95.5C 74.0825,96.2216 73.4158,96.7216 72.5,97C 56.8333,97.6667 41.1667,97.6667 25.5,97C 17.1728,86.1532 8.50614,75.6532 -0.5,65.5C -0.5,64.8333 -0.5,64.1667 -0.5,63.5C 1.67016,62.232 3.83683,62.232 6,63.5C 7.02173,62.646 7.85506,61.646 8.5,60.5C 7.47746,58.1052 8.47746,57.1052 11.5,57.5C 11.5,56.5 11.5,55.5 11.5,54.5C 12.8333,54.5 14.1667,54.5 15.5,54.5 Z"/></g>
<g><path style="opacity:1" fill="#f0f9fd" d="M 28.5,44.5 C 28.5,44.8333 28.5,45.1667 28.5,45.5C 27.5269,47.9479 27.1936,50.6146 27.5,53.5C 32.1063,53.0508 33.1063,54.3841 30.5,57.5C 29.5291,58.9621 29.8624,60.2954 31.5,61.5C 31.5,61.8333 31.5,62.1667 31.5,62.5C 33.1455,64.8122 35.1455,66.8122 37.5,68.5C 38.4252,67.6431 39.0919,66.6431 39.5,65.5C 39.5,65.1667 39.5,64.8333 39.5,64.5C 41.0395,62.1617 41.7062,59.4951 41.5,56.5C 39.8333,56.5 38.1667,56.5 36.5,56.5C 36.6107,55.8826 36.944,55.3826 37.5,55C 42.921,53.7201 44.921,55.8868 43.5,61.5C 44.8333,61.5 46.1667,61.5 47.5,61.5C 46.5592,63.0495 45.8925,64.7162 45.5,66.5C 43.5946,68.049 43.2613,69.8824 44.5,72C 48.2027,72.5787 51.8694,72.412 55.5,71.5C 55.5979,69.4471 54.9313,67.7804 53.5,66.5C 52.8333,64.8333 52.1667,63.1667 51.5,61.5C 51.9731,60.0937 52.9731,59.427 54.5,59.5C 55.3818,61.0843 56.2152,62.751 57,64.5C 57.6708,65.2524 58.5041,65.5858 59.5,65.5C 59.8564,67.1898 60.8564,68.1898 62.5,68.5C 63.9778,68.238 65.3112,68.5713 66.5,69.5C 65.675,70.3857 64.675,70.719 63.5,70.5C 63.5,71.5 63.5,72.5 63.5,73.5C 63.1824,76.4815 64.1824,78.8148 66.5,80.5C 66.5,80.8333 66.5,81.1667 66.5,81.5C 66.5,82.5 66.5,83.5 66.5,84.5C 65.448,84.6495 64.448,84.4828 63.5,84C 62.7844,80.3684 60.7844,77.8684 57.5,76.5C 51.1598,77.5605 44.8264,77.7271 38.5,77C 37.4752,79.0715 36.6419,81.2381 36,83.5C 34.9887,84.3366 33.8221,84.67 32.5,84.5C 32.366,82.7085 32.6993,81.0418 33.5,79.5C 35.2484,77.8401 35.7484,75.8401 35,73.5C 32.3363,72.0016 30.1696,70.0016 28.5,67.5C 26.6205,65.0744 25.2872,62.4077 24.5,59.5C 20.8019,59.5524 17.1352,59.8857 13.5,60.5C 13.5,59.5 13.5,58.5 13.5,57.5C 13.5,57.1667 13.5,56.8333 13.5,56.5C 16.6852,56.9804 19.5185,56.3137 22,54.5C 22.3195,50.7858 22.8195,47.1191 23.5,43.5C 24.7498,43.4226 25.5831,42.756 26,41.5C 26.8518,42.5707 27.6851,43.5707 28.5,44.5 Z"/></g>
<g><path style="opacity:1" fill="#4a78c9" d="M 51.5,61.5 C 52.1667,63.1667 52.8333,64.8333 53.5,66.5C 52.1932,65.8466 50.8599,65.1799 49.5,64.5C 48.3777,65.6302 47.0443,66.2969 45.5,66.5C 45.8925,64.7162 46.5592,63.0495 47.5,61.5C 48.8333,60.1667 50.1667,60.1667 51.5,61.5 Z"/></g>
<g><path style="opacity:1" fill="#376bda" d="M 39.5,64.5 C 39.5,64.8333 39.5,65.1667 39.5,65.5C 36.4475,65.4279 33.7808,64.4279 31.5,62.5C 31.5,62.1667 31.5,61.8333 31.5,61.5C 31.5,60.5 31.5,59.5 31.5,58.5C 34.1667,58.5 36.8333,58.5 39.5,58.5C 39.5,60.5 39.5,62.5 39.5,64.5 Z"/></g>
<g><path style="opacity:1" fill="#5077bf" d="M 36.5,56.5 C 38.1667,56.5 39.8333,56.5 41.5,56.5C 41.7062,59.4951 41.0395,62.1617 39.5,64.5C 39.5,62.5 39.5,60.5 39.5,58.5C 36.8333,58.5 34.1667,58.5 31.5,58.5C 31.5,59.5 31.5,60.5 31.5,61.5C 29.8624,60.2954 29.5291,58.9621 30.5,57.5C 32.5648,57.4828 34.5648,57.1495 36.5,56.5 Z"/></g>
<g><path style="opacity:1" fill="#4d74ca" d="M 63.5,57.5 C 61.5516,59.3204 60.5516,61.6538 60.5,64.5C 64.322,63.8203 65.9886,61.487 65.5,57.5C 66.9778,57.238 68.3112,57.5713 69.5,58.5C 67.9198,62.4049 65.5865,65.7382 62.5,68.5C 60.8564,68.1898 59.8564,67.1898 59.5,65.5C 58.2134,62.5939 57.2134,59.5939 56.5,56.5C 59.0593,56.1984 61.3926,56.5318 63.5,57.5 Z"/></g>
<g><path style="opacity:1" fill="#3c68df" d="M 63.5,57.5 C 64.1667,57.5 64.8333,57.5 65.5,57.5C 65.9886,61.487 64.322,63.8203 60.5,64.5C 60.5516,61.6538 61.5516,59.3204 63.5,57.5 Z"/></g>
<g><path style="opacity:1" fill="#5a7dbc" d="M 31.5,62.5 C 33.7808,64.4279 36.4475,65.4279 39.5,65.5C 39.0919,66.6431 38.4252,67.6431 37.5,68.5C 35.1455,66.8122 33.1455,64.8122 31.5,62.5 Z"/></g>
<g><path style="opacity:1" fill="#4472d5" d="M 53.5,66.5 C 54.9313,67.7804 55.5979,69.4471 55.5,71.5C 51.8694,72.412 48.2027,72.5787 44.5,72C 43.2613,69.8824 43.5946,68.049 45.5,66.5C 47.0443,66.2969 48.3777,65.6302 49.5,64.5C 50.8599,65.1799 52.1932,65.8466 53.5,66.5 Z"/></g>
<g><path style="opacity:1" fill="#4e7ac8" d="M 66.5,72.5 C 65.4696,75.1038 65.4696,77.7705 66.5,80.5C 64.1824,78.8148 63.1824,76.4815 63.5,73.5C 64.391,72.8902 65.391,72.5569 66.5,72.5 Z"/></g>
<g><path style="opacity:1" fill="#4976cf" d="M 66.5,81.5 C 67.4345,82.5676 67.7678,83.901 67.5,85.5C 63.1486,86.467 60.8153,84.8004 60.5,80.5C 58.8007,80.4729 57.4674,79.8062 56.5,78.5C 50.8267,79.7516 45.16,79.7516 39.5,78.5C 39.305,83.6965 36.6383,86.0299 31.5,85.5C 31.0254,82.9179 31.6921,80.9179 33.5,79.5C 32.6993,81.0418 32.366,82.7085 32.5,84.5C 33.8221,84.67 34.9887,84.3366 36,83.5C 36.6419,81.2381 37.4752,79.0715 38.5,77C 44.8264,77.7271 51.1598,77.5605 57.5,76.5C 60.7844,77.8684 62.7844,80.3684 63.5,84C 64.448,84.4828 65.448,84.6495 66.5,84.5C 66.5,83.5 66.5,82.5 66.5,81.5 Z"/></g>
</svg>
