<?xml version="1.0" encoding="UTF-8"?>
<!DOCTYPE svg PUBLIC "-//W3C//DTD SVG 1.1//EN" "http://www.w3.org/Graphics/SVG/1.1/DTD/svg11.dtd">
<svg xmlns="http://www.w3.org/2000/svg" version="1.1" width="100px" height="100px" style="shape-rendering:geometricPrecision; text-rendering:geometricPrecision; image-rendering:optimizeQuality; fill-rule:evenodd; clip-rule:evenodd" xmlns:xlink="http://www.w3.org/1999/xlink">
<g><path style="opacity:0.983" fill="#25d691" d="M -0.5,-0.5 C 0.833333,-0.5 2.16667,-0.5 3.5,-0.5C 5.02763,0.309209 6.6943,0.975875 8.5,1.5C 8.84171,2.33825 9.50838,2.67158 10.5,2.5C 10.8743,8.37834 10.2076,14.045 8.5,19.5C 8.69033,22.3278 9.357,24.9945 10.5,27.5C 8.29528,33.9981 8.12862,40.6648 10,47.5C 10.66,49.3237 11.8267,50.657 13.5,51.5C 13.8039,52.1499 14.1373,52.8165 14.5,53.5C 12.9547,54.4519 11.288,54.7852 9.5,54.5C 6.14863,52.1414 2.8153,49.8081 -0.5,47.5C -0.5,31.5 -0.5,15.5 -0.5,-0.5 Z"/></g>
<g><path style="opacity:1" fill="#42c1a6" d="M 52.5,2.5 C 55.2192,4.98631 58.5525,6.15297 62.5,6C 64.2395,7.51695 65.9062,9.01695 67.5,10.5C 66.1667,10.5 64.8333,10.5 63.5,10.5C 58.7285,8.72203 53.7285,7.3887 48.5,6.5C 49.5,4.83333 50.8333,3.5 52.5,2.5 Z"/></g>
<g><path style="opacity:1" fill="#2ed096" d="M 55.5,-0.5 C 57.1667,-0.5 58.8333,-0.5 60.5,-0.5C 70.3505,3.92622 80.0172,8.59288 89.5,13.5C 82.3858,11.0726 75.0525,10.0726 67.5,10.5C 65.9062,9.01695 64.2395,7.51695 62.5,6C 58.5525,6.15297 55.2192,4.98631 52.5,2.5C 53.8333,1.83333 54.8333,0.833333 55.5,-0.5 Z"/></g>
<g><path style="opacity:1" fill="#8093c7" d="M 31.5,4.5 C 34.0961,5.26535 36.7628,5.59868 39.5,5.5C 39.5,5.83333 39.5,6.16667 39.5,6.5C 37.8333,6.5 36.1667,6.5 34.5,6.5C 34.5,9.83333 34.5,13.1667 34.5,16.5C 35.8734,16.3433 37.2068,16.51 38.5,17C 37.944,17.3826 37.6107,17.8826 37.5,18.5C 35.5,18.5 33.5,18.5 31.5,18.5C 30.1667,13.8333 30.1667,9.16667 31.5,4.5 Z"/></g>
<g><path style="opacity:1" fill="#779ac5" d="M 47.5,7.5 C 47.5,6.83333 47.8333,6.5 48.5,6.5C 53.7285,7.3887 58.7285,8.72203 63.5,10.5C 57.9877,10.2381 52.6544,9.23808 47.5,7.5 Z"/></g>
<g><path style="opacity:1" fill="#8e88cf" d="M 39.5,6.5 C 39.335,9.8499 39.5017,13.1832 40,16.5C 42.3806,17.435 44.8806,17.7683 47.5,17.5C 47.5,17.8333 47.5,18.1667 47.5,18.5C 44.1667,18.5 40.8333,18.5 37.5,18.5C 37.6107,17.8826 37.944,17.3826 38.5,17C 37.2068,16.51 35.8734,16.3433 34.5,16.5C 34.5,13.1667 34.5,9.83333 34.5,6.5C 36.1667,6.5 37.8333,6.5 39.5,6.5 Z"/></g>
<g><path style="opacity:1" fill="#a57be1" d="M 39.5,5.5 C 42.1667,6.16667 44.8333,6.83333 47.5,7.5C 52.6544,9.23808 57.9877,10.2381 63.5,10.5C 64.8333,10.5 66.1667,10.5 67.5,10.5C 71.5387,11.3158 75.5387,12.3158 79.5,13.5C 72.6447,13.1224 65.8114,12.4558 59,11.5C 57.2358,11.5445 55.5691,11.8778 54,12.5C 52.1917,10.6041 50.025,10.1041 47.5,11C 48.3331,13.0811 48.3331,15.2478 47.5,17.5C 44.8806,17.7683 42.3806,17.435 40,16.5C 39.5017,13.1832 39.335,9.8499 39.5,6.5C 39.5,6.16667 39.5,5.83333 39.5,5.5 Z"/></g>
<g><path style="opacity:1" fill="#6ea1bc" d="M 25.5,3.5 C 27.5,3.83333 29.5,4.16667 31.5,4.5C 30.1667,9.16667 30.1667,13.8333 31.5,18.5C 29.8333,18.5 28.1667,18.5 26.5,18.5C 25.7127,13.4711 25.3793,8.47109 25.5,3.5 Z"/></g>
<g><path style="opacity:1" fill="#5eb4aa" d="M 67.5,10.5 C 75.0525,10.0726 82.3858,11.0726 89.5,13.5C 86.3682,14.0117 83.0349,14.0117 79.5,13.5C 75.5387,12.3158 71.5387,11.3158 67.5,10.5 Z"/></g>
<g><path style="opacity:1" fill="#c26cdf" d="M 79.5,13.5 C 83.0349,14.0117 86.3682,14.0117 89.5,13.5C 91.9726,13.0882 93.3059,14.0882 93.5,16.5C 93.1667,16.5 92.8333,16.5 92.5,16.5C 84.6901,15.1191 76.6901,14.6191 68.5,15C 72.0146,16.8846 75.6813,18.0512 79.5,18.5C 68.8333,18.5 58.1667,18.5 47.5,18.5C 47.5,18.1667 47.5,17.8333 47.5,17.5C 48.3331,15.2478 48.3331,13.0811 47.5,11C 50.025,10.1041 52.1917,10.6041 54,12.5C 55.5691,11.8778 57.2358,11.5445 59,11.5C 65.8114,12.4558 72.6447,13.1224 79.5,13.5 Z"/></g>
<g><path style="opacity:1" fill="#5eabb4" d="M 20.5,3.5 C 22.1667,3.5 23.8333,3.5 25.5,3.5C 25.3793,8.47109 25.7127,13.4711 26.5,18.5C 24.5,18.5 22.5,18.5 20.5,18.5C 20.6968,13.6803 20.6968,8.68033 20.5,3.5 Z"/></g>
<g><path style="opacity:0.996" fill="#050607" d="M 20.5,18.5 C 22.5,18.5 24.5,18.5 26.5,18.5C 28.1667,18.5 29.8333,18.5 31.5,18.5C 33.5,18.5 35.5,18.5 37.5,18.5C 40.8333,18.5 44.1667,18.5 47.5,18.5C 57.9869,19.4944 68.6536,19.8278 79.5,19.5C 79.1699,37.6744 79.5032,55.6744 80.5,73.5C 80.5,74.1667 80.8333,74.5 81.5,74.5C 81.7564,76.7925 81.4231,78.9592 80.5,81C 77.854,81.4974 75.1873,81.6641 72.5,81.5C 67.0247,80.5111 61.358,80.1778 55.5,80.5C 52.1667,80.5 48.8333,80.5 45.5,80.5C 44.8333,80.5 44.1667,80.5 43.5,80.5C 35.6841,79.5076 27.6841,79.1743 19.5,79.5C 19.8168,75.2984 19.4834,71.2984 18.5,67.5C 18.5,67.1667 18.5,66.8333 18.5,66.5C 18.5,64.1667 18.5,61.8333 18.5,59.5C 17.8514,45.4591 18.5181,31.7924 20.5,18.5 Z"/></g>
<g><path style="opacity:1" fill="#32cc9a" d="M 10.5,2.5 C 11.8001,4.22299 12.4668,6.38965 12.5,9C 11.551,23.1954 11.8844,37.362 13.5,51.5C 11.8267,50.657 10.66,49.3237 10,47.5C 8.12862,40.6648 8.29528,33.9981 10.5,27.5C 9.357,24.9945 8.69033,22.3278 8.5,19.5C 10.2076,14.045 10.8743,8.37834 10.5,2.5 Z"/></g>
<g><path style="opacity:1" fill="#3f043e" d="M 47.5,18.5 C 58.1667,18.5 68.8333,18.5 79.5,18.5C 80.4968,36.6591 80.8302,54.9924 80.5,73.5C 79.5032,55.6744 79.1699,37.6744 79.5,19.5C 68.6536,19.8278 57.9869,19.4944 47.5,18.5 Z"/></g>
<g><path style="opacity:1" fill="#f1f1f1" d="M 57.5,26.5 C 61.1817,26.3347 64.8484,26.5014 68.5,27C 73.638,28.8857 73.8047,31.0523 69,33.5C 59.788,29.6001 55.4547,32.6001 56,42.5C 58.8248,47.5691 62.9914,48.9024 68.5,46.5C 68.5,45.1667 68.5,43.8333 68.5,42.5C 66.5,42.5 64.5,42.5 62.5,42.5C 62.5,40.8333 62.5,39.1667 62.5,37.5C 66.1667,37.5 69.8333,37.5 73.5,37.5C 76.6278,47.803 72.9611,52.803 62.5,52.5C 50.2863,50.0802 46.7863,43.0802 52,31.5C 53.8119,29.6997 55.6452,28.0331 57.5,26.5 Z"/></g>
<g><path style="opacity:1" fill="#afafaf" d="M 39.5,27.5 C 34.8333,27.5 30.1667,27.5 25.5,27.5C 25.5,35.5 25.5,43.5 25.5,51.5C 29.5,51.5 33.5,51.5 37.5,51.5C 33.3656,52.4849 29.0323,52.8182 24.5,52.5C 24.5,43.8333 24.5,35.1667 24.5,26.5C 29.6946,26.1795 34.6946,26.5128 39.5,27.5 Z"/></g>
<g><path style="opacity:1" fill="#f7f7f7" d="M 39.5,27.5 C 48.7126,31.7102 50.8792,38.3769 46,47.5C 43.6026,49.7823 40.7693,51.1156 37.5,51.5C 33.5,51.5 29.5,51.5 25.5,51.5C 25.5,43.5 25.5,35.5 25.5,27.5C 30.1667,27.5 34.8333,27.5 39.5,27.5 Z"/></g>
<g><path style="opacity:1" fill="#4db6a1" d="M 19.5,2.5 C 20.1667,2.5 20.5,2.83333 20.5,3.5C 20.6968,8.68033 20.6968,13.6803 20.5,18.5C 18.5181,31.7924 17.8514,45.4591 18.5,59.5C 16.5956,59.2624 15.2623,58.2624 14.5,56.5C 15.4959,56.4142 16.3292,56.7476 17,57.5C 15.4587,44.6229 15.1253,31.6229 16,18.5C 16.6924,17.9747 17.1924,17.3081 17.5,16.5C 16.9234,14.8944 16.5901,13.2278 16.5,11.5C 17.8868,8.63524 18.8868,5.63524 19.5,2.5 Z"/></g>
<g><path style="opacity:1" fill="#353535" d="M 36.5,32.5 C 34.8333,32.5 33.1667,32.5 31.5,32.5C 31.5,37.1667 31.5,41.8333 31.5,46.5C 33.1667,46.5 34.8333,46.5 36.5,46.5C 34.7354,47.4614 32.7354,47.7947 30.5,47.5C 30.5,42.1667 30.5,36.8333 30.5,31.5C 32.7354,31.2053 34.7354,31.5386 36.5,32.5 Z"/></g>
<g><path style="opacity:1" fill="#090909" d="M 36.5,32.5 C 40.568,32.9307 42.568,35.264 42.5,39.5C 42.568,43.736 40.568,46.0693 36.5,46.5C 34.8333,46.5 33.1667,46.5 31.5,46.5C 31.5,41.8333 31.5,37.1667 31.5,32.5C 33.1667,32.5 34.8333,32.5 36.5,32.5 Z"/></g>
<g><path style="opacity:1" fill="#3dc49f" d="M 8.5,1.5 C 12.2148,1.42305 15.8815,1.75638 19.5,2.5C 18.8868,5.63524 17.8868,8.63524 16.5,11.5C 16.5901,13.2278 16.9234,14.8944 17.5,16.5C 17.1924,17.3081 16.6924,17.9747 16,18.5C 15.1253,31.6229 15.4587,44.6229 17,57.5C 16.3292,56.7476 15.4959,56.4142 14.5,56.5C 13.4324,55.5655 12.099,55.2322 10.5,55.5C 9.83333,55.5 9.5,55.1667 9.5,54.5C 11.288,54.7852 12.9547,54.4519 14.5,53.5C 14.1373,52.8165 13.8039,52.1499 13.5,51.5C 11.8844,37.362 11.551,23.1954 12.5,9C 12.4668,6.38965 11.8001,4.22299 10.5,2.5C 9.50838,2.67158 8.84171,2.33825 8.5,1.5 Z"/></g>
<g><path style="opacity:0.956" fill="#9975f6" d="M 94.5,21.5 C 96.165,30.1612 97.8316,38.8278 99.5,47.5C 99.5,50.8333 99.5,54.1667 99.5,57.5C 96.3516,58.5758 93.3516,59.9091 90.5,61.5C 90.9272,58.6239 91.5938,55.7906 92.5,53C 91.807,47.6426 91.4737,42.3093 91.5,37C 92.1795,31.7286 93.1795,26.5619 94.5,21.5 Z"/></g>
<g><path style="opacity:1" fill="#b26cf0" d="M 92.5,16.5 C 92.8333,16.5 93.1667,16.5 93.5,16.5C 94.3007,18.0418 94.634,19.7085 94.5,21.5C 93.1795,26.5619 92.1795,31.7286 91.5,37C 91.4737,42.3093 91.807,47.6426 92.5,53C 91.5938,55.7906 90.9272,58.6239 90.5,61.5C 90.1667,62.5 89.5,63.1667 88.5,63.5C 87.3547,59.6888 87.1881,55.6888 88,51.5C 89.8248,39.9622 91.3248,28.2955 92.5,16.5 Z"/></g>
<g><path style="opacity:1" fill="#ee5fe1" d="M 92.5,16.5 C 91.3248,28.2955 89.8248,39.9622 88,51.5C 87.1881,55.6888 87.3547,59.6888 88.5,63.5C 87.6403,67.4338 87.307,71.4338 87.5,75.5C 85.3792,75.6747 83.3792,75.3414 81.5,74.5C 80.8333,74.5 80.5,74.1667 80.5,73.5C 80.8302,54.9924 80.4968,36.6591 79.5,18.5C 75.6813,18.0512 72.0146,16.8846 68.5,15C 76.6901,14.6191 84.6901,15.1191 92.5,16.5 Z"/></g>
<g><path style="opacity:1" fill="#7096d7" d="M 10.5,56.5 C 13.4073,57.7341 15.7407,59.7341 17.5,62.5C 15.2573,63.4742 12.924,63.8076 10.5,63.5C 10.7678,61.901 10.4345,60.5676 9.5,59.5C 9.55688,58.391 9.89022,57.391 10.5,56.5 Z"/></g>
<g><path style="opacity:0.997" fill="#64a0c1" d="M 10.5,56.5 C 10.5,56.1667 10.5,55.8333 10.5,55.5C 12.099,55.2322 13.4324,55.5655 14.5,56.5C 15.2623,58.2624 16.5956,59.2624 18.5,59.5C 18.5,61.8333 18.5,64.1667 18.5,66.5C 14.7307,66.756 11.0641,66.4227 7.5,65.5C 8.16667,63.5 8.83333,61.5 9.5,59.5C 10.4345,60.5676 10.7678,61.901 10.5,63.5C 12.924,63.8076 15.2573,63.4742 17.5,62.5C 15.7407,59.7341 13.4073,57.7341 10.5,56.5 Z"/></g>
<g><path style="opacity:1" fill="#57abbb" d="M 7.5,65.5 C 11.0641,66.4227 14.7307,66.756 18.5,66.5C 18.5,66.8333 18.5,67.1667 18.5,67.5C 18.5,67.8333 18.5,68.1667 18.5,68.5C 14.6714,71.69 10.3381,72.3567 5.5,70.5C 6.4408,68.9505 7.10746,67.2838 7.5,65.5 Z"/></g>
<g><path style="opacity:1" fill="#e8e8e8" d="M 24.5,68.5 C 32.1667,68.5 39.8333,68.5 47.5,68.5C 47.5,69.8333 47.5,71.1667 47.5,72.5C 39.8333,72.5 32.1667,72.5 24.5,72.5C 24.5,71.1667 24.5,69.8333 24.5,68.5 Z"/></g>
<g><path style="opacity:1" fill="#42bca7" d="M 18.5,68.5 C 18.5,72.5 18.5,76.5 18.5,80.5C 13.688,78.1898 8.688,77.8565 3.5,79.5C 3.87256,76.4261 4.53922,73.4261 5.5,70.5C 10.3381,72.3567 14.6714,71.69 18.5,68.5 Z"/></g>
<g><path style="opacity:1" fill="#00361d" d="M 18.5,67.5 C 19.4834,71.2984 19.8168,75.2984 19.5,79.5C 27.6841,79.1743 35.6841,79.5076 43.5,80.5C 35.1667,80.5 26.8333,80.5 18.5,80.5C 18.5,76.5 18.5,72.5 18.5,68.5C 18.5,68.1667 18.5,67.8333 18.5,67.5 Z"/></g>
<g><path style="opacity:1" fill="#37c796" d="M 18.5,80.5 C 26.8333,80.5 35.1667,80.5 43.5,80.5C 44.1667,80.5 44.8333,80.5 45.5,80.5C 47.5,82.8333 49.5,85.1667 51.5,87.5C 47.9226,87.0372 44.9226,85.5372 42.5,83C 31.6329,82.8003 20.7996,82.3003 10,81.5C 9.22797,81.6448 8.5613,81.9781 8,82.5C 7.44984,87.0701 6.28317,87.4034 4.5,83.5C 3.35782,84.8262 2.02449,85.8262 0.5,86.5C 1.05495,83.904 2.05495,81.5707 3.5,79.5C 8.688,77.8565 13.688,78.1898 18.5,80.5 Z"/></g>
<g><path style="opacity:1" fill="#7092ca" d="M 45.5,80.5 C 48.8333,80.5 52.1667,80.5 55.5,80.5C 54.6649,81.9432 53.3316,82.9432 51.5,83.5C 52.6554,84.9505 54.1554,85.9505 56,86.5C 56.5637,88.8867 57.7304,90.8867 59.5,92.5C 56.8333,90.8333 54.1667,89.1667 51.5,87.5C 49.5,85.1667 47.5,82.8333 45.5,80.5 Z"/></g>
<g><path style="opacity:1" fill="#26d692" d="M 51.5,87.5 C 54.1667,89.1667 56.8333,90.8333 59.5,92.5C 59.5,92.8333 59.5,93.1667 59.5,93.5C 60.7945,95.3284 61.7945,97.3284 62.5,99.5C 61.1667,99.5 59.8333,99.5 58.5,99.5C 39.0831,95.4424 19.4165,92.1091 -0.5,89.5C -0.5,88.8333 -0.5,88.1667 -0.5,87.5C 0.166667,87.5 0.5,87.1667 0.5,86.5C 2.02449,85.8262 3.35782,84.8262 4.5,83.5C 6.28317,87.4034 7.44984,87.0701 8,82.5C 8.5613,81.9781 9.22797,81.6448 10,81.5C 20.7996,82.3003 31.6329,82.8003 42.5,83C 44.9226,85.5372 47.9226,87.0372 51.5,87.5 Z"/></g>
<g><path style="opacity:1" fill="#8b81e2" d="M 55.5,80.5 C 61.358,80.1778 67.0247,80.5111 72.5,81.5C 72.0733,84.0098 71.4067,86.3432 70.5,88.5C 70.5,86.5 70.5,84.5 70.5,82.5C 68.1667,82.5 65.8333,82.5 63.5,82.5C 64.2747,86.1816 62.9414,88.6816 59.5,90C 61.0368,91.1096 61.7035,92.6096 61.5,94.5C 60.8333,94.1667 60.1667,93.8333 59.5,93.5C 59.5,93.1667 59.5,92.8333 59.5,92.5C 57.7304,90.8867 56.5637,88.8867 56,86.5C 54.1554,85.9505 52.6554,84.9505 51.5,83.5C 53.3316,82.9432 54.6649,81.9432 55.5,80.5 Z"/></g>
<g><path style="opacity:1" fill="#907cee" d="M 70.5,88.5 C 69.9636,92.3139 68.9636,95.9806 67.5,99.5C 66.8333,99.5 66.1667,99.5 65.5,99.5C 64.8888,97.2254 63.5554,95.5588 61.5,94.5C 61.7035,92.6096 61.0368,91.1096 59.5,90C 62.9414,88.6816 64.2747,86.1816 63.5,82.5C 65.8333,82.5 68.1667,82.5 70.5,82.5C 70.5,84.5 70.5,86.5 70.5,88.5 Z"/></g>
<g><path style="opacity:1" fill="#53b7b1" d="M 59.5,93.5 C 60.1667,93.8333 60.8333,94.1667 61.5,94.5C 63.5554,95.5588 64.8888,97.2254 65.5,99.5C 64.5,99.5 63.5,99.5 62.5,99.5C 61.7945,97.3284 60.7945,95.3284 59.5,93.5 Z"/></g>
</svg>
