<?xml version="1.0" encoding="UTF-8"?>
<!DOCTYPE svg PUBLIC "-//W3C//DTD SVG 1.1//EN" "http://www.w3.org/Graphics/SVG/1.1/DTD/svg11.dtd">
<svg xmlns="http://www.w3.org/2000/svg" version="1.1" width="100px" height="100px" style="shape-rendering:geometricPrecision; text-rendering:geometricPrecision; image-rendering:optimizeQuality; fill-rule:evenodd; clip-rule:evenodd" xmlns:xlink="http://www.w3.org/1999/xlink">
<g><path style="opacity:0.96" fill="#a9002f" d="M 42.5,-0.5 C 44.8333,-0.5 47.1667,-0.5 49.5,-0.5C 49.8333,0.833333 50.1667,0.833333 50.5,-0.5C 52.1667,-0.5 53.8333,-0.5 55.5,-0.5C 55.3893,0.117425 55.056,0.617425 54.5,1C 56.0187,0.669229 57.352,0.835896 58.5,1.5C 58.7196,4.51323 60.0529,6.84656 62.5,8.5C 62.1373,9.18346 61.8039,9.85013 61.5,10.5C 56.8333,10.5 52.1667,10.5 47.5,10.5C 46.3915,9.71003 45.0581,9.21003 43.5,9C 44.91,8.63225 45.91,7.79892 46.5,6.5C 45.9851,4.77492 45.3184,3.10826 44.5,1.5C 42.8087,3.25617 40.8087,3.75617 38.5,3C 39.056,2.61742 39.3893,2.11742 39.5,1.5C 40.7095,1.06795 41.7095,0.40128 42.5,-0.5 Z"/></g>
<g><path style="opacity:0.974" fill="#a80033" d="M 39.5,1.5 C 39.3893,2.11742 39.056,2.61742 38.5,3C 40.8087,3.75617 42.8087,3.25617 44.5,1.5C 45.3184,3.10826 45.9851,4.77492 46.5,6.5C 45.91,7.79892 44.91,8.63225 43.5,9C 45.0581,9.21003 46.3915,9.71003 47.5,10.5C 40.8205,12.9248 34.4872,16.0915 28.5,20C 24.4244,23.2128 21.4244,27.0462 19.5,31.5C 18.2438,31.5386 17.2438,31.0386 16.5,30C 17.1667,28 17.8333,26 18.5,24C 17.5842,23.7216 16.9175,23.2216 16.5,22.5C 16.461,19.911 17.461,17.911 19.5,16.5C 22.9606,14.9708 26.1273,12.9708 29,10.5C 29.49,9.20677 29.6567,7.87344 29.5,6.5C 32.8599,4.82006 36.1932,3.15339 39.5,1.5 Z"/></g>
<g><path style="opacity:0.951" fill="#a60031" d="M 58.5,1.5 C 68.5928,2.09691 76.9261,6.09691 83.5,13.5C 82.1561,15.0348 80.4894,16.3681 78.5,17.5C 77.1502,16.0499 75.4835,15.3832 73.5,15.5C 73.5,16.5 73.5,17.5 73.5,18.5C 69.7282,15.3774 65.7282,12.7107 61.5,10.5C 61.8039,9.85013 62.1373,9.18346 62.5,8.5C 60.0529,6.84656 58.7196,4.51323 58.5,1.5 Z"/></g>
<g><path style="opacity:0.918" fill="#a00433" d="M 29.5,6.5 C 29.6567,7.87344 29.49,9.20677 29,10.5C 26.1273,12.9708 22.9606,14.9708 19.5,16.5C 21.8119,12.1881 25.1452,8.85478 29.5,6.5 Z"/></g>
<g><path style="opacity:0.87" fill="#a30233" d="M 83.5,13.5 C 87.1883,17.1856 88.855,21.519 88.5,26.5C 88.5,27.5 88.5,28.5 88.5,29.5C 87.7784,29.0825 87.2784,28.4158 87,27.5C 86.8333,28 86.6667,28.5 86.5,29C 87.1069,31.3676 87.1069,33.5343 86.5,35.5C 87.311,36.2164 87.9777,37.0497 88.5,38C 87.8333,39.6667 87.1667,41.3333 86.5,43C 88.3924,44.3127 88.7258,45.8127 87.5,47.5C 87.1667,47.5 86.8333,47.5 86.5,47.5C 84.9519,47.8212 84.2852,48.8212 84.5,50.5C 82.4488,52.2145 80.7821,54.2145 79.5,56.5C 79.822,54.2776 79.1554,52.4443 77.5,51C 78.2524,50.3292 78.5858,49.4959 78.5,48.5C 79.4524,42.9252 79.7857,37.2586 79.5,31.5C 80.4345,30.4324 80.7678,29.099 80.5,27.5C 81.5,27.5 82.5,27.5 83.5,27.5C 83.7683,24.8806 83.435,22.3806 82.5,20C 79.4203,19.3717 77.4203,20.5384 76.5,23.5C 76.7148,21.8212 76.0481,20.8212 74.5,20.5C 74.1667,19.8333 73.8333,19.1667 73.5,18.5C 73.5,17.5 73.5,16.5 73.5,15.5C 75.4835,15.3832 77.1502,16.0499 78.5,17.5C 80.4894,16.3681 82.1561,15.0348 83.5,13.5 Z"/></g>
<g><path style="opacity:1" fill="#a80030" d="M 79.5,31.5 C 78.4986,28.8284 77.4986,26.1618 76.5,23.5C 77.4203,20.5384 79.4203,19.3717 82.5,20C 83.435,22.3806 83.7683,24.8806 83.5,27.5C 82.5,27.5 81.5,27.5 80.5,27.5C 80.7678,29.099 80.4345,30.4324 79.5,31.5 Z"/></g>
<g><path style="opacity:0.31" fill="#7e1233" d="M 11.5,20.5 C 13.9701,21.3603 14.1368,22.6936 12,24.5C 11.51,23.2068 11.3433,21.8734 11.5,20.5 Z"/></g>
<g><path style="opacity:0.016" fill="#900c32" d="M 74.5,20.5 C 76.0481,20.8212 76.7148,21.8212 76.5,23.5C 75.5987,22.7095 74.9321,21.7095 74.5,20.5 Z"/></g>
<g><path style="opacity:0.98" fill="#a00433" d="M 16.5,22.5 C 16.9175,23.2216 17.5842,23.7216 18.5,24C 17.8333,26 17.1667,28 16.5,30C 17.2438,31.0386 18.2438,31.5386 19.5,31.5C 18.8698,33.7496 17.8698,35.7496 16.5,37.5C 15.7717,35.4885 14.9383,33.4885 14,31.5C 12.9887,32.3366 11.8221,32.67 10.5,32.5C 9.56552,31.4324 9.23219,30.099 9.5,28.5C 10.675,28.719 11.675,28.3857 12.5,27.5C 13.1329,25.2145 14.4662,23.5478 16.5,22.5 Z"/></g>
<g><path style="opacity:0.821" fill="#a30235" d="M 62.5,28.5 C 62.5,29.1667 62.5,29.8333 62.5,30.5C 59.1667,29.1667 55.8333,29.1667 52.5,30.5C 50.5168,30.8432 49.1834,30.1765 48.5,28.5C 50.4621,26.9827 52.7954,26.3161 55.5,26.5C 58.2046,26.3161 60.5379,26.9827 62.5,28.5 Z"/></g>
<g><path style="opacity:0.882" fill="#950934" d="M 48.5,28.5 C 49.1834,30.1765 50.5168,30.8432 52.5,30.5C 50.2722,31.3771 48.2722,32.7104 46.5,34.5C 46.6309,33.6236 46.2975,32.9569 45.5,32.5C 44.7348,33.6119 43.7348,34.2786 42.5,34.5C 43.8333,31.8333 45.8333,29.8333 48.5,28.5 Z"/></g>
<g><path style="opacity:0.267" fill="#920a33" d="M 62.5,28.5 C 65.5027,28.9884 66.6693,30.6551 66,33.5C 64.8549,32.3636 63.6883,31.3636 62.5,30.5C 62.5,29.8333 62.5,29.1667 62.5,28.5 Z"/></g>
<g><path style="opacity:0.165" fill="#860b2d" d="M 88.5,26.5 C 89.7753,28.6084 90.2753,30.9417 90,33.5C 89.2086,32.255 88.7086,30.9217 88.5,29.5C 88.5,28.5 88.5,27.5 88.5,26.5 Z"/></g>
<g><path style="opacity:0.84" fill="#a70233" d="M 16.5,37.5 C 16.5,43.5 16.5,49.5 16.5,55.5C 14.8863,57.0746 12.8863,57.7413 10.5,57.5C 9.21345,49.2953 9.21345,40.9619 10.5,32.5C 11.8221,32.67 12.9887,32.3366 14,31.5C 14.9383,33.4885 15.7717,35.4885 16.5,37.5 Z"/></g>
<g><path style="opacity:0.198" fill="#a60034" d="M 68.5,38.5 C 69.5862,38.62 70.2528,39.2867 70.5,40.5C 70.1667,41.1667 69.8333,41.8333 69.5,42.5C 68.5713,41.3112 68.238,39.9778 68.5,38.5 Z"/></g>
<g><path style="opacity:0.655" fill="#9f0334" d="M 46.5,34.5 C 41.5191,45.8897 44.5191,54.5563 55.5,60.5C 54.4168,60.5394 53.4168,60.8728 52.5,61.5C 50.9522,59.0776 49.2855,59.0776 47.5,61.5C 47.8627,62.1835 48.1961,62.8501 48.5,63.5C 46.3032,62.1554 43.9698,60.9888 41.5,60C 38.3905,57.6953 38.0571,55.1953 40.5,52.5C 38.7167,46.0838 39.3834,40.0838 42.5,34.5C 43.7348,34.2786 44.7348,33.6119 45.5,32.5C 46.2975,32.9569 46.6309,33.6236 46.5,34.5 Z"/></g>
<g><path style="opacity:0.102" fill="#9e0334" d="M 68.5,48.5 C 67.1667,48.5 66.5,47.8333 66.5,46.5C 66.56,45.9569 66.8933,45.6236 67.5,45.5C 68.3857,46.325 68.719,47.325 68.5,48.5 Z"/></g>
<g><path style="opacity:0.314" fill="#920933" d="M 66.5,46.5 C 66.5,47.8333 67.1667,48.5 68.5,48.5C 67.2064,51.1402 65.873,51.1402 64.5,48.5C 64.8555,47.4777 65.5222,46.811 66.5,46.5 Z"/></g>
<g><path style="opacity:0.05" fill="#9f0634" d="M 86.5,47.5 C 86.8333,47.5 87.1667,47.5 87.5,47.5C 87.1219,50.0221 86.2886,52.3554 85,54.5C 84.51,53.2068 84.3433,51.8734 84.5,50.5C 85.4013,49.7095 86.0679,48.7095 86.5,47.5 Z"/></g>
<g><path style="opacity:0.086" fill="#890f36" d="M 60.5,53.5 C 59.5,52.1667 58.5,52.1667 57.5,53.5C 56.9569,53.44 56.6236,53.1067 56.5,52.5C 58.1667,51.1667 59.8333,51.1667 61.5,52.5C 61.3764,53.1067 61.0431,53.44 60.5,53.5 Z"/></g>
<g><path style="opacity:0.008" fill="#a90338" d="M 57.5,53.5 C 58.5,52.1667 59.5,52.1667 60.5,53.5C 59.6522,54.625 58.6522,54.625 57.5,53.5 Z"/></g>
<g><path style="opacity:0.869" fill="#a00333" d="M 78.5,48.5 C 78.5858,49.4959 78.2524,50.3292 77.5,51C 79.1554,52.4443 79.822,54.2776 79.5,56.5C 75.5687,60.4265 70.902,63.0932 65.5,64.5C 65.8432,62.5168 65.1765,61.1834 63.5,60.5C 66.4392,59.0304 69.4392,57.5304 72.5,56C 75.1209,53.8442 77.1209,51.3442 78.5,48.5 Z"/></g>
<g><path style="opacity:0.686" fill="#a6022e" d="M 55.5,60.5 C 58.1667,60.5 60.8333,60.5 63.5,60.5C 65.1765,61.1834 65.8432,62.5168 65.5,64.5C 64.2121,65.9009 62.2121,66.9009 59.5,67.5C 55.4582,66.9694 51.7916,65.6361 48.5,63.5C 48.1961,62.8501 47.8627,62.1835 47.5,61.5C 49.2855,59.0776 50.9522,59.0776 52.5,61.5C 53.4168,60.8728 54.4168,60.5394 55.5,60.5 Z"/></g>
<g><path style="opacity:0.928" fill="#a30234" d="M 16.5,55.5 C 16.9934,58.274 17.9934,61.274 19.5,64.5C 22.893,66.0626 24.2263,68.7292 23.5,72.5C 23.2942,74.5492 22.4609,74.8825 21,73.5C 20.4054,74.8989 20.5721,76.2322 21.5,77.5C 20.675,78.3857 19.675,78.719 18.5,78.5C 14.0411,72.3088 11.3745,65.3088 10.5,57.5C 12.8863,57.7413 14.8863,57.0746 16.5,55.5 Z"/></g>
<g><path style="opacity:0.996" fill="#ad0031" d="M 23.5,72.5 C 25.0652,74.5093 26.0652,76.8427 26.5,79.5C 26.6621,81.5273 26.4955,83.5273 26,85.5C 24.7432,83.2542 22.9099,81.9209 20.5,81.5C 19.5987,80.7095 18.9321,79.7095 18.5,78.5C 19.675,78.719 20.675,78.3857 21.5,77.5C 20.5721,76.2322 20.4054,74.8989 21,73.5C 22.4609,74.8825 23.2942,74.5492 23.5,72.5 Z"/></g>
<g><path style="opacity:0.925" fill="#a80335" d="M 26.5,79.5 C 28.2624,80.2623 29.2624,81.5956 29.5,83.5C 28.9653,85.4456 27.632,86.4456 25.5,86.5C 23.5,85.1667 21.8333,83.5 20.5,81.5C 22.9099,81.9209 24.7432,83.2542 26,85.5C 26.4955,83.5273 26.6621,81.5273 26.5,79.5 Z"/></g>
<g><path style="opacity:0.788" fill="#a10334" d="M 29.5,83.5 C 35.0318,87.546 40.3652,91.7126 45.5,96C 49.2938,97.1136 52.9604,98.2802 56.5,99.5C 52.1667,99.5 47.8333,99.5 43.5,99.5C 36.4065,96.6256 30.4065,92.2922 25.5,86.5C 27.632,86.4456 28.9653,85.4456 29.5,83.5 Z"/></g>
</svg>
