<?xml version="1.0" encoding="UTF-8"?>
<!DOCTYPE svg PUBLIC "-//W3C//DTD SVG 1.1//EN" "http://www.w3.org/Graphics/SVG/1.1/DTD/svg11.dtd">
<svg xmlns="http://www.w3.org/2000/svg" version="1.1" width="100px" height="100px" style="shape-rendering:geometricPrecision; text-rendering:geometricPrecision; image-rendering:optimizeQuality; fill-rule:evenodd; clip-rule:evenodd" xmlns:xlink="http://www.w3.org/1999/xlink">
<g><path style="opacity:0.975" fill="#f02735" d="M 36.5,-0.5 C 45.1667,-0.5 53.8333,-0.5 62.5,-0.5C 68.2293,2.03255 73.8959,4.86588 79.5,8C 81.7658,9.42645 83.4324,11.2598 84.5,13.5C 83.145,16.5177 80.8116,17.851 77.5,17.5C 76.8333,17.5 76.5,17.1667 76.5,16.5C 76.2089,15.3509 75.3756,14.6842 74,14.5C 69.7772,13.3325 65.6106,12.1658 61.5,11C 56.8452,10.5008 52.1785,10.3342 47.5,10.5C 47.5,11.5 47.5,12.5 47.5,13.5C 42.9516,13.2747 38.6183,13.9413 34.5,15.5C 32.9002,15.4493 31.4002,15.1159 30,14.5C 29.9822,16.7972 30.1489,19.1305 30.5,21.5C 30.7947,23.7354 30.4614,25.7354 29.5,27.5C 29.5,26.5 29.5,25.5 29.5,24.5C 28.1667,24.5 26.8333,24.5 25.5,24.5C 24.9195,20.7528 23.9195,17.0861 22.5,13.5C 18.2602,12.1931 15.0935,13.5265 13,17.5C 12.3292,16.7476 11.4959,16.4142 10.5,16.5C 17.7924,8.84592 26.4591,3.17926 36.5,-0.5 Z"/></g>
<g><path style="opacity:1" fill="#fef2f3" d="M 52.5,32.5 C 49.5,32.5 46.5,32.5 43.5,32.5C 43.4054,29.3033 44.0721,26.3033 45.5,23.5C 46.3739,20.2107 47.0405,16.8774 47.5,13.5C 52.1031,12.6167 56.7697,12.2834 61.5,12.5C 58.8907,19.322 55.8907,25.9887 52.5,32.5 Z"/></g>
<g><path style="opacity:0.989" fill="#f12635" d="M 25.5,24.5 C 24.5213,26.1454 23.188,27.4787 21.5,28.5C 19.108,32.2776 16.9413,36.2776 15,40.5C 14.3333,49.5 14.3333,58.5 15,67.5C 17.0123,69.6819 18.0123,72.3486 18,75.5C 18.6708,76.2524 19.5041,76.5858 20.5,76.5C 18.9074,79.9895 16.5741,82.9895 13.5,85.5C 7.21684,78.8691 2.55017,71.2024 -0.5,62.5C -0.5,53.8333 -0.5,45.1667 -0.5,36.5C 2.10659,29.2898 5.77326,22.6231 10.5,16.5C 11.4959,16.4142 12.3292,16.7476 13,17.5C 15.0935,13.5265 18.2602,12.1931 22.5,13.5C 23.9195,17.0861 24.9195,20.7528 25.5,24.5 Z"/></g>
<g><path style="opacity:1" fill="#de3c42" d="M 47.5,13.5 C 47.0405,16.8774 46.3739,20.2107 45.5,23.5C 43.9519,23.1788 43.2852,22.1788 43.5,20.5C 43.5,18.8333 43.5,17.1667 43.5,15.5C 38.9966,16.4184 34.9966,18.4184 31.5,21.5C 31.1667,21.5 30.8333,21.5 30.5,21.5C 30.1489,19.1305 29.9822,16.7972 30,14.5C 31.4002,15.1159 32.9002,15.4493 34.5,15.5C 38.6183,13.9413 42.9516,13.2747 47.5,13.5 Z"/></g>
<g><path style="opacity:1" fill="#fdf3f4" d="M 76.5,16.5 C 76.5,17.1667 76.8333,17.5 77.5,17.5C 78.172,18.2674 79.0053,18.9341 80,19.5C 80.6667,20.1667 80.6667,20.8333 80,21.5C 75.9989,24.3351 72.4989,27.6684 69.5,31.5C 67.2459,32.4151 65.2459,33.7484 63.5,35.5C 60.91,34.8717 58.5766,33.705 56.5,32C 57.2524,31.3292 57.5858,30.4959 57.5,29.5C 60.4433,24.4635 63.7767,19.6302 67.5,15C 70.536,15.0052 73.536,15.5052 76.5,16.5 Z"/></g>
<g><path style="opacity:1" fill="#fef3f3" d="M 43.5,20.5 C 42.1049,24.5911 41.2715,28.9244 41,33.5C 40.6174,34.056 40.1174,34.3893 39.5,34.5C 37.6954,35.2371 36.0287,36.2371 34.5,37.5C 33.8281,36.0508 33.1614,34.7175 32.5,33.5C 32.7947,31.2646 32.4614,29.2646 31.5,27.5C 31.5,25.5 31.5,23.5 31.5,21.5C 34.9966,18.4184 38.9966,16.4184 43.5,15.5C 43.5,17.1667 43.5,18.8333 43.5,20.5 Z"/></g>
<g><path style="opacity:1" fill="#d44549" d="M 76.5,16.5 C 73.536,15.5052 70.536,15.0052 67.5,15C 63.7767,19.6302 60.4433,24.4635 57.5,29.5C 55.8958,30.287 55.2291,31.6203 55.5,33.5C 54.5,33.5 53.5,33.5 52.5,33.5C 52.5,33.1667 52.5,32.8333 52.5,32.5C 55.8907,25.9887 58.8907,19.322 61.5,12.5C 56.7697,12.2834 52.1031,12.6167 47.5,13.5C 47.5,12.5 47.5,11.5 47.5,10.5C 52.1785,10.3342 56.8452,10.5008 61.5,11C 65.6106,12.1658 69.7772,13.3325 74,14.5C 75.3756,14.6842 76.2089,15.3509 76.5,16.5 Z"/></g>
<g><path style="opacity:0.99" fill="#9d1220" d="M 84.5,13.5 C 87.2978,14.7063 89.4645,16.7063 91,19.5C 94.1341,25.1041 96.9675,30.7707 99.5,36.5C 99.5,45.1667 99.5,53.8333 99.5,62.5C 95.6842,73.9526 89.0175,83.4526 79.5,91C 73.8959,94.1341 68.2293,96.9675 62.5,99.5C 53.8333,99.5 45.1667,99.5 36.5,99.5C 27.8203,96.4848 20.1536,91.8181 13.5,85.5C 16.5741,82.9895 18.9074,79.9895 20.5,76.5C 21.4916,76.6716 22.1583,76.3382 22.5,75.5C 24.2163,73.9752 26.2163,72.9752 28.5,72.5C 29.1667,72.1667 29.8333,71.8333 30.5,71.5C 31.7281,72.3065 32.7281,73.3065 33.5,74.5C 33.5,75.5 33.5,76.5 33.5,77.5C 33.1667,78.8333 32.8333,80.1667 32.5,81.5C 32.5,81.8333 32.5,82.1667 32.5,82.5C 31.9569,82.56 31.6236,82.8933 31.5,83.5C 34.7683,84.487 38.1016,84.8204 41.5,84.5C 43.8484,84.6695 46.1817,85.0029 48.5,85.5C 51.2689,84.9808 52.9355,83.3141 53.5,80.5C 54.1667,80.8333 54.8333,81.1667 55.5,81.5C 56.7874,83.6365 57.6207,85.9699 58,88.5C 61.0478,90.6982 63.7144,90.0316 66,86.5C 65.5752,80.8577 63.4086,75.8577 59.5,71.5C 59.822,69.2776 59.1554,67.4443 57.5,66C 58.624,65.7508 59.624,65.2508 60.5,64.5C 58.2825,63.9426 55.9491,63.9426 53.5,64.5C 53.3601,62.8762 54.0267,61.7096 55.5,61C 60.791,60.6735 65.9576,59.8401 71,58.5C 72.1475,59.4581 73.1475,59.1247 74,57.5C 74.8078,55.5767 75.3078,53.5767 75.5,51.5C 74.012,46.6388 73.1786,41.6388 73,36.5C 72.1739,38.4054 71.0072,38.7388 69.5,37.5C 68.181,35.4684 68.181,33.4684 69.5,31.5C 72.4989,27.6684 75.9989,24.3351 80,21.5C 80.6667,20.8333 80.6667,20.1667 80,19.5C 79.0053,18.9341 78.172,18.2674 77.5,17.5C 80.8116,17.851 83.145,16.5177 84.5,13.5 Z"/></g>
<g><path style="opacity:1" fill="#c35d65" d="M 43.5,20.5 C 43.2852,22.1788 43.9519,23.1788 45.5,23.5C 44.0721,26.3033 43.4054,29.3033 43.5,32.5C 43.5,33.1667 43.5,33.8333 43.5,34.5C 42.1667,34.8333 40.8333,35.1667 39.5,35.5C 39.5,35.1667 39.5,34.8333 39.5,34.5C 40.1174,34.3893 40.6174,34.056 41,33.5C 41.2715,28.9244 42.1049,24.5911 43.5,20.5 Z"/></g>
<g><path style="opacity:1" fill="#ffd3dc" d="M 29.5,27.5 C 29.5,28.8333 29.5,30.1667 29.5,31.5C 28.735,30.3398 27.735,29.3398 26.5,28.5C 24.2663,30.3813 22.933,32.7147 22.5,35.5C 21.8776,31.4038 23.5442,28.0705 27.5,25.5C 28.1818,26.2427 28.8485,26.9094 29.5,27.5 Z"/></g>
<g><path style="opacity:1" fill="#fef4f6" d="M 29.5,31.5 C 29.3284,32.4916 29.6618,33.1583 30.5,33.5C 32.4574,37.828 31.7908,41.6613 28.5,45C 27.6683,45.6877 27.0016,45.521 26.5,44.5C 25.7255,42.6036 24.7255,40.937 23.5,39.5C 23.5674,38.0413 23.2341,36.7079 22.5,35.5C 22.933,32.7147 24.2663,30.3813 26.5,28.5C 27.735,29.3398 28.735,30.3398 29.5,31.5 Z"/></g>
<g><path style="opacity:1" fill="#c44c52" d="M 30.5,21.5 C 30.8333,21.5 31.1667,21.5 31.5,21.5C 31.5,23.5 31.5,25.5 31.5,27.5C 31.7947,29.7354 31.4614,31.7354 30.5,33.5C 29.6618,33.1583 29.3284,32.4916 29.5,31.5C 29.5,30.1667 29.5,28.8333 29.5,27.5C 30.4614,25.7354 30.7947,23.7354 30.5,21.5 Z"/></g>
<g><path style="opacity:1" fill="#b78b88" d="M 43.5,32.5 C 46.5,32.5 49.5,32.5 52.5,32.5C 52.5,32.8333 52.5,33.1667 52.5,33.5C 49.4299,33.3677 46.4299,33.701 43.5,34.5C 43.5,33.8333 43.5,33.1667 43.5,32.5 Z"/></g>
<g><path style="opacity:1" fill="#fce5e8" d="M 52.5,33.5 C 53.5,33.5 54.5,33.5 55.5,33.5C 58.1013,34.8007 60.768,36.134 63.5,37.5C 64.1667,37.5 64.5,37.8333 64.5,38.5C 61.6544,38.9699 59.3211,38.1366 57.5,36C 52.8452,35.5008 48.1785,35.3342 43.5,35.5C 41.8799,37.9897 40.3799,40.6563 39,43.5C 37.5883,45.6857 35.755,47.3524 33.5,48.5C 34.3891,46.264 35.7224,44.264 37.5,42.5C 37.3333,42.1667 37.1667,41.8333 37,41.5C 33.2087,44.7608 30.7087,48.7608 29.5,53.5C 28.6828,59.7283 30.0161,65.3949 33.5,70.5C 34.2792,68.1152 33.9458,65.7819 32.5,63.5C 33.9311,63.8807 34.7645,64.8807 35,66.5C 35.4966,68.8098 35.6633,71.1432 35.5,73.5C 35.1583,74.3382 34.4916,74.6716 33.5,74.5C 32.7281,73.3065 31.7281,72.3065 30.5,71.5C 29.5332,68.5663 28.1999,65.8996 26.5,63.5C 26.5,59.5 26.5,55.5 26.5,51.5C 28.6452,47.2265 31.3119,43.2265 34.5,39.5C 36.3885,38.396 38.0552,37.0627 39.5,35.5C 40.8333,35.1667 42.1667,34.8333 43.5,34.5C 46.4299,33.701 49.4299,33.3677 52.5,33.5 Z"/></g>
<g><path style="opacity:1" fill="#c78f97" d="M 57.5,29.5 C 57.5858,30.4959 57.2524,31.3292 56.5,32C 58.5766,33.705 60.91,34.8717 63.5,35.5C 63.5,36.1667 63.5,36.8333 63.5,37.5C 60.768,36.134 58.1013,34.8007 55.5,33.5C 55.2291,31.6203 55.8958,30.287 57.5,29.5 Z"/></g>
<g><path style="opacity:1" fill="#d2989e" d="M 32.5,33.5 C 33.1614,34.7175 33.8281,36.0508 34.5,37.5C 36.0287,36.2371 37.6954,35.2371 39.5,34.5C 39.5,34.8333 39.5,35.1667 39.5,35.5C 38.0552,37.0627 36.3885,38.396 34.5,39.5C 32.9254,37.8863 32.2587,35.8863 32.5,33.5 Z"/></g>
<g><path style="opacity:1" fill="#fadbe2" d="M 68.5,40.5 C 69.7498,40.5774 70.5831,41.244 71,42.5C 72.2439,46.7786 72.5772,51.112 72,55.5C 69.9129,56.3972 67.7463,57.0639 65.5,57.5C 66.4057,56.0351 67.739,55.0351 69.5,54.5C 70.4841,51.5719 70.8174,48.5719 70.5,45.5C 69.5,45.5 68.5,45.5 67.5,45.5C 67.5,44.5 67.5,43.5 67.5,42.5C 67.8333,41.8333 68.1667,41.1667 68.5,40.5 Z"/></g>
<g><path style="opacity:1" fill="#be7175" d="M 31.5,27.5 C 32.4614,29.2646 32.7947,31.2646 32.5,33.5C 32.2587,35.8863 32.9254,37.8863 34.5,39.5C 31.3119,43.2265 28.6452,47.2265 26.5,51.5C 26.6602,49.8008 26.4935,48.1341 26,46.5C 24.3308,45.1537 23.1642,43.487 22.5,41.5C 23.3382,41.1583 23.6716,40.4916 23.5,39.5C 24.7255,40.937 25.7255,42.6036 26.5,44.5C 27.0016,45.521 27.6683,45.6877 28.5,45C 31.7908,41.6613 32.4574,37.828 30.5,33.5C 31.4614,31.7354 31.7947,29.7354 31.5,27.5 Z"/></g>
<g><path style="opacity:1" fill="#fdf7f9" d="M 67.5,42.5 C 67.5,43.5 67.5,44.5 67.5,45.5C 68.5,45.5 69.5,45.5 70.5,45.5C 70.8174,48.5719 70.4841,51.5719 69.5,54.5C 67.739,55.0351 66.4057,56.0351 65.5,57.5C 64.8333,57.5 64.1667,57.5 63.5,57.5C 60.2186,57.4203 57.2186,58.087 54.5,59.5C 50.8333,60.1667 47.1667,60.8333 43.5,61.5C 43.3505,60.448 43.5172,59.448 44,58.5C 48.1745,55.8422 52.0078,52.8422 55.5,49.5C 59.4828,47.1942 63.4828,44.8609 67.5,42.5 Z"/></g>
<g><path style="opacity:1" fill="#9d7680" d="M 66.5,39.5 C 67.1667,39.8333 67.8333,40.1667 68.5,40.5C 68.1667,41.1667 67.8333,41.8333 67.5,42.5C 63.4828,44.8609 59.4828,47.1942 55.5,49.5C 58.3664,46.4789 61.6997,43.9789 65.5,42C 66.2524,41.3292 66.5858,40.4959 66.5,39.5 Z"/></g>
<g><path style="opacity:1" fill="#fee8ec" d="M 22.5,41.5 C 23.1642,43.487 24.3308,45.1537 26,46.5C 26.4935,48.1341 26.6602,49.8008 26.5,51.5C 25.8333,51.8333 25.1667,52.1667 24.5,52.5C 22.1667,50.5 19.8333,48.5 17.5,46.5C 16.353,43.711 16.853,41.0444 19,38.5C 20.0391,39.7101 21.2058,40.7101 22.5,41.5 Z"/></g>
<g><path style="opacity:1" fill="#bf5763" d="M 17.5,46.5 C 19.8333,48.5 22.1667,50.5 24.5,52.5C 24.8333,53.1667 25.1667,53.8333 25.5,54.5C 22.2957,53.6167 19.6291,51.9501 17.5,49.5C 17.5,48.5 17.5,47.5 17.5,46.5 Z"/></g>
<g><path style="opacity:1" fill="#fcf9f9" d="M 64.5,38.5 C 65.1667,38.8333 65.8333,39.1667 66.5,39.5C 66.5858,40.4959 66.2524,41.3292 65.5,42C 61.6997,43.9789 58.3664,46.4789 55.5,49.5C 51.1355,51.771 46.9688,54.4377 43,57.5C 42.2204,59.3869 42.3871,61.0536 43.5,62.5C 44.609,62.5569 45.609,62.8902 46.5,63.5C 47.1,66.298 48.1,68.9646 49.5,71.5C 44.7877,72.218 40.121,72.8847 35.5,73.5C 35.6633,71.1432 35.4966,68.8098 35,66.5C 34.7645,64.8807 33.9311,63.8807 32.5,63.5C 31.596,62.791 31.2627,61.791 31.5,60.5C 31.335,57.1501 31.5017,53.8168 32,50.5C 32.2784,49.5842 32.7784,48.9175 33.5,48.5C 35.755,47.3524 37.5883,45.6857 39,43.5C 40.3799,40.6563 41.8799,37.9897 43.5,35.5C 48.1785,35.3342 52.8452,35.5008 57.5,36C 59.3211,38.1366 61.6544,38.9699 64.5,38.5 Z"/></g>
<g><path style="opacity:1" fill="#ce9196" d="M 33.5,48.5 C 32.7784,48.9175 32.2784,49.5842 32,50.5C 31.5017,53.8168 31.335,57.1501 31.5,60.5C 30.8333,58.1667 30.1667,55.8333 29.5,53.5C 30.7087,48.7608 33.2087,44.7608 37,41.5C 37.1667,41.8333 37.3333,42.1667 37.5,42.5C 35.7224,44.264 34.3891,46.264 33.5,48.5 Z"/></g>
<g><path style="opacity:1" fill="#ffe9ea" d="M 17.5,49.5 C 19.6291,51.9501 22.2957,53.6167 25.5,54.5C 25.9746,57.0821 25.3079,59.0821 23.5,60.5C 21.0075,59.2264 18.3408,58.5597 15.5,58.5C 14.9455,54.9878 15.6122,51.9878 17.5,49.5 Z"/></g>
<g><path style="opacity:1" fill="#a35f64" d="M 29.5,53.5 C 30.1667,55.8333 30.8333,58.1667 31.5,60.5C 31.2627,61.791 31.596,62.791 32.5,63.5C 33.9458,65.7819 34.2792,68.1152 33.5,70.5C 30.0161,65.3949 28.6828,59.7283 29.5,53.5 Z"/></g>
<g><path style="opacity:1" fill="#916773" d="M 55.5,49.5 C 52.0078,52.8422 48.1745,55.8422 44,58.5C 43.5172,59.448 43.3505,60.448 43.5,61.5C 43.5,61.8333 43.5,62.1667 43.5,62.5C 42.3871,61.0536 42.2204,59.3869 43,57.5C 46.9688,54.4377 51.1355,51.771 55.5,49.5 Z"/></g>
<g><path style="opacity:1" fill="#941e29" d="M 69.5,31.5 C 68.181,33.4684 68.181,35.4684 69.5,37.5C 71.0072,38.7388 72.1739,38.4054 73,36.5C 73.1786,41.6388 74.012,46.6388 75.5,51.5C 75.3078,53.5767 74.8078,55.5767 74,57.5C 73.1475,59.1247 72.1475,59.4581 71,58.5C 65.9576,59.8401 60.791,60.6735 55.5,61C 54.0267,61.7096 53.3601,62.8762 53.5,64.5C 55.9491,63.9426 58.2825,63.9426 60.5,64.5C 59.624,65.2508 58.624,65.7508 57.5,66C 59.1554,67.4443 59.822,69.2776 59.5,71.5C 56.5309,69.0081 53.5309,66.5081 50.5,64C 49.552,63.5172 48.552,63.3505 47.5,63.5C 47.1667,63.5 46.8333,63.5 46.5,63.5C 45.609,62.8902 44.609,62.5569 43.5,62.5C 43.5,62.1667 43.5,61.8333 43.5,61.5C 47.1667,60.8333 50.8333,60.1667 54.5,59.5C 57.7814,59.5797 60.7814,58.913 63.5,57.5C 64.1667,57.5 64.8333,57.5 65.5,57.5C 67.7463,57.0639 69.9129,56.3972 72,55.5C 72.5772,51.112 72.2439,46.7786 71,42.5C 70.5831,41.244 69.7498,40.5774 68.5,40.5C 67.8333,40.1667 67.1667,39.8333 66.5,39.5C 65.8333,39.1667 65.1667,38.8333 64.5,38.5C 64.5,37.8333 64.1667,37.5 63.5,37.5C 63.5,36.8333 63.5,36.1667 63.5,35.5C 65.2459,33.7484 67.2459,32.4151 69.5,31.5 Z"/></g>
<g><path style="opacity:1" fill="#bc737c" d="M 63.5,57.5 C 60.7814,58.913 57.7814,59.5797 54.5,59.5C 57.2186,58.087 60.2186,57.4203 63.5,57.5 Z"/></g>
<g><path style="opacity:1" fill="#bd797a" d="M 26.5,51.5 C 26.5,55.5 26.5,59.5 26.5,63.5C 24.6943,62.9759 23.0276,62.3092 21.5,61.5C 22.4916,61.6716 23.1583,61.3382 23.5,60.5C 25.3079,59.0821 25.9746,57.0821 25.5,54.5C 25.1667,53.8333 24.8333,53.1667 24.5,52.5C 25.1667,52.1667 25.8333,51.8333 26.5,51.5 Z"/></g>
<g><path style="opacity:1" fill="#ffe2e7" d="M 21.5,61.5 C 23.0276,62.3092 24.6943,62.9759 26.5,63.5C 26.5,64.5 26.5,65.5 26.5,66.5C 23.1667,66.5 19.8333,66.5 16.5,66.5C 15.962,64.8828 15.6287,63.2161 15.5,61.5C 17.5,61.5 19.5,61.5 21.5,61.5 Z"/></g>
<g><path style="opacity:1" fill="#c36f75" d="M 26.5,63.5 C 28.1999,65.8996 29.5332,68.5663 30.5,71.5C 29.8333,71.8333 29.1667,72.1667 28.5,72.5C 28.7778,70.6536 28.1112,69.3202 26.5,68.5C 24.9291,69.3094 23.2624,69.6427 21.5,69.5C 20.1979,67.9724 18.5313,66.9724 16.5,66.5C 19.8333,66.5 23.1667,66.5 26.5,66.5C 26.5,65.5 26.5,64.5 26.5,63.5 Z"/></g>
<g><path style="opacity:1" fill="#da444a" d="M 25.5,24.5 C 26.8333,24.5 28.1667,24.5 29.5,24.5C 29.5,25.5 29.5,26.5 29.5,27.5C 28.8485,26.9094 28.1818,26.2427 27.5,25.5C 23.5442,28.0705 21.8776,31.4038 22.5,35.5C 23.2341,36.7079 23.5674,38.0413 23.5,39.5C 23.6716,40.4916 23.3382,41.1583 22.5,41.5C 21.2058,40.7101 20.0391,39.7101 19,38.5C 16.853,41.0444 16.353,43.711 17.5,46.5C 17.5,47.5 17.5,48.5 17.5,49.5C 15.6122,51.9878 14.9455,54.9878 15.5,58.5C 18.3408,58.5597 21.0075,59.2264 23.5,60.5C 23.1583,61.3382 22.4916,61.6716 21.5,61.5C 19.5,61.5 17.5,61.5 15.5,61.5C 15.6287,63.2161 15.962,64.8828 16.5,66.5C 18.5313,66.9724 20.1979,67.9724 21.5,69.5C 18.1616,70.1935 17.6616,71.8601 20,74.5C 20.6708,75.2524 21.5041,75.5858 22.5,75.5C 22.1583,76.3382 21.4916,76.6716 20.5,76.5C 19.5041,76.5858 18.6708,76.2524 18,75.5C 18.0123,72.3486 17.0123,69.6819 15,67.5C 14.3333,58.5 14.3333,49.5 15,40.5C 16.9413,36.2776 19.108,32.2776 21.5,28.5C 23.188,27.4787 24.5213,26.1454 25.5,24.5 Z"/></g>
<g><path style="opacity:1" fill="#fceded" d="M 47.5,63.5 C 48.552,63.3505 49.552,63.5172 50.5,64C 53.5309,66.5081 56.5309,69.0081 59.5,71.5C 63.4086,75.8577 65.5752,80.8577 66,86.5C 63.7144,90.0316 61.0478,90.6982 58,88.5C 57.6207,85.9699 56.7874,83.6365 55.5,81.5C 53.9091,78.6484 52.5758,75.6484 51.5,72.5C 49.8921,69.6179 48.5587,66.6179 47.5,63.5 Z"/></g>
<g><path style="opacity:1" fill="#ffecee" d="M 28.5,72.5 C 26.2163,72.9752 24.2163,73.9752 22.5,75.5C 21.5041,75.5858 20.6708,75.2524 20,74.5C 17.6616,71.8601 18.1616,70.1935 21.5,69.5C 23.2624,69.6427 24.9291,69.3094 26.5,68.5C 28.1112,69.3202 28.7778,70.6536 28.5,72.5 Z"/></g>
<g><path style="opacity:1" fill="#a4777f" d="M 46.5,63.5 C 46.8333,63.5 47.1667,63.5 47.5,63.5C 48.5587,66.6179 49.8921,69.6179 51.5,72.5C 49.3736,73.0482 47.3736,73.7148 45.5,74.5C 42.2869,74.19 39.2869,74.5233 36.5,75.5C 35.2223,75.7822 34.2223,76.4489 33.5,77.5C 33.5,76.5 33.5,75.5 33.5,74.5C 34.4916,74.6716 35.1583,74.3382 35.5,73.5C 40.121,72.8847 44.7877,72.218 49.5,71.5C 48.1,68.9646 47.1,66.298 46.5,63.5 Z"/></g>
<g><path style="opacity:1" fill="#fcf2f4" d="M 36.5,75.5 C 39.2869,74.5233 42.2869,74.19 45.5,74.5C 47.1992,74.3398 48.8659,74.5065 50.5,75C 51.6087,76.8761 52.6087,78.7095 53.5,80.5C 52.9355,83.3141 51.2689,84.9808 48.5,85.5C 46.1817,85.0029 43.8484,84.6695 41.5,84.5C 38.5,83.8333 35.5,83.1667 32.5,82.5C 32.5,82.1667 32.5,81.8333 32.5,81.5C 35.1335,80.0905 37.4669,78.2572 39.5,76C 38.552,75.5172 37.552,75.3505 36.5,75.5 Z"/></g>
<g><path style="opacity:1" fill="#e0acb4" d="M 36.5,75.5 C 37.552,75.3505 38.552,75.5172 39.5,76C 37.4669,78.2572 35.1335,80.0905 32.5,81.5C 32.8333,80.1667 33.1667,78.8333 33.5,77.5C 34.2223,76.4489 35.2223,75.7822 36.5,75.5 Z"/></g>
<g><path style="opacity:1" fill="#864857" d="M 51.5,72.5 C 52.5758,75.6484 53.9091,78.6484 55.5,81.5C 54.8333,81.1667 54.1667,80.8333 53.5,80.5C 52.6087,78.7095 51.6087,76.8761 50.5,75C 48.8659,74.5065 47.1992,74.3398 45.5,74.5C 47.3736,73.7148 49.3736,73.0482 51.5,72.5 Z"/></g>
<g><path style="opacity:1" fill="#eea8b7" d="M 32.5,82.5 C 35.5,83.1667 38.5,83.8333 41.5,84.5C 38.1016,84.8204 34.7683,84.487 31.5,83.5C 31.6236,82.8933 31.9569,82.56 32.5,82.5 Z"/></g>
</svg>
