<?xml version="1.0" encoding="UTF-8"?>
<!DOCTYPE svg PUBLIC "-//W3C//DTD SVG 1.1//EN" "http://www.w3.org/Graphics/SVG/1.1/DTD/svg11.dtd">
<svg xmlns="http://www.w3.org/2000/svg" version="1.1" width="100px" height="100px" style="shape-rendering:geometricPrecision; text-rendering:geometricPrecision; image-rendering:optimizeQuality; fill-rule:evenodd; clip-rule:evenodd" xmlns:xlink="http://www.w3.org/1999/xlink">
<g><path style="opacity:0.722" fill="#0f2921" d="M 19.5,31.5 C 21.5,31.5 23.5,31.5 25.5,31.5C 25.5,33.5 25.5,35.5 25.5,37.5C 23.5,37.5 21.5,37.5 19.5,37.5C 19.5,35.5 19.5,33.5 19.5,31.5 Z"/></g>
<g><path style="opacity:0.986" fill="#0d2c20" d="M 17.5,57.5 C 16.6909,55.7078 16.1909,53.7078 16,51.5C 15.3551,50.354 14.5217,49.354 13.5,48.5C 14.8532,47.4763 15.5198,46.143 15.5,44.5C 13.8762,44.3601 12.7096,45.0267 12,46.5C 11.6847,44.4144 11.1847,42.4144 10.5,40.5C 10.5,37.8333 10.5,35.1667 10.5,32.5C 12.8333,32.5 15.1667,32.5 17.5,32.5C 17.5,40.8333 17.5,49.1667 17.5,57.5 Z"/></g>
<g><path style="opacity:0.928" fill="#0a2d20" d="M 25.5,56.5 C 24.8075,64.6761 21.1408,66.6761 14.5,62.5C 15.8518,61.4756 17.1851,60.4756 18.5,59.5C 20.4563,53.588 21.1229,47.2547 20.5,40.5C 21.5,40.5 22.5,40.5 23.5,40.5C 24.0182,45.9858 24.6849,51.3192 25.5,56.5 Z"/></g>
<g><path style="opacity:0.894" fill="#092d20" d="M 45.5,40.5 C 49.8461,40.3343 54.1794,40.501 58.5,41C 59,41.5 59.5,42 60,42.5C 61.3967,47.7081 61.8967,53.0414 61.5,58.5C 59.1667,58.5 56.8333,58.5 54.5,58.5C 54.5,54.1667 54.5,49.8333 54.5,45.5C 53.1667,45.5 51.8333,45.5 50.5,45.5C 50.5,49.8333 50.5,54.1667 50.5,58.5C 48.5,58.5 46.5,58.5 44.5,58.5C 44.2114,52.4093 44.5447,46.4093 45.5,40.5 Z"/></g>
<g><path style="opacity:0.91" fill="#0a2d20" d="M 82.5,43.5 C 81.6618,43.8417 81.3284,44.5084 81.5,45.5C 79.9114,51.5203 78.7447,57.8536 78,64.5C 75.5206,66.9168 72.5206,67.9168 69,67.5C 63.0645,68.5637 61.0645,66.2304 63,60.5C 66.8996,63.4747 70.3996,63.1414 73.5,59.5C 63.9631,59.4401 60.4631,54.7734 63,45.5C 64.5429,43.6217 66.3762,42.1217 68.5,41C 73.1548,40.5008 77.8215,40.3342 82.5,40.5C 82.5,41.5 82.5,42.5 82.5,43.5 Z M 71.5,45.5 C 73.369,47.6353 74.0356,50.3019 73.5,53.5C 67.7185,52.1522 67.0518,49.4855 71.5,45.5 Z"/></g>
<g><path style="opacity:0.968" fill="#0b2d1f" d="M 99.5,44.5 C 99.5,47.8333 99.5,51.1667 99.5,54.5C 93.6638,61.1119 87.8305,61.1119 82,54.5C 81.502,51.5184 81.3354,48.5184 81.5,45.5C 82.3382,45.1583 82.6716,44.4916 82.5,43.5C 86.2835,40.5761 90.6169,39.7428 95.5,41C 97.3502,41.6897 98.6836,42.8564 99.5,44.5 Z M 89.5,45.5 C 92.1213,45.4772 93.4546,46.8105 93.5,49.5C 91.5,54.8333 89.5,54.8333 87.5,49.5C 87.7517,47.9271 88.4183,46.5938 89.5,45.5 Z"/></g>
<g><path style="opacity:0.906" fill="#0a2e20" d="M 10.5,40.5 C 11.1847,42.4144 11.6847,44.4144 12,46.5C 12.7096,45.0267 13.8762,44.3601 15.5,44.5C 15.5198,46.143 14.8532,47.4763 13.5,48.5C 14.5217,49.354 15.3551,50.354 16,51.5C 16.1909,53.7078 16.6909,55.7078 17.5,57.5C 13.0099,59.6908 8.34324,59.8575 3.5,58C 1.64977,57.3103 0.316435,56.1436 -0.5,54.5C -0.5,51.1667 -0.5,47.8333 -0.5,44.5C 2.40458,41.22 6.07124,39.8867 10.5,40.5 Z M 7.5,45.5 C 8.5,45.5 9.5,45.5 10.5,45.5C 10.5,48.1667 10.5,50.8333 10.5,53.5C 5.24302,52.4825 4.24302,49.8158 7.5,45.5 Z"/></g>
<g><path style="opacity:0.864" fill="#0a2d20" d="M 30.5,40.5 C 33.8499,40.335 37.1832,40.5017 40.5,41C 41,41.5 41.5,42 42,42.5C 42.4994,47.8229 42.666,53.1563 42.5,58.5C 37.2363,60.4772 32.403,59.8105 28,56.5C 26.877,53.0437 27.7104,50.2103 30.5,48C 32.7148,47.8295 34.7148,47.1628 36.5,46C 33.8078,45.5702 31.1411,45.7369 28.5,46.5C 28.2587,44.1137 28.9254,42.1137 30.5,40.5 Z M 34.5,51.5 C 36.0481,51.8212 36.7148,52.8212 36.5,54.5C 33.7524,54.5983 33.0857,53.5983 34.5,51.5 Z"/></g>
<g><path style="opacity:0.933" fill="#112920" d="M 25.5,56.5 C 24.6849,51.3192 24.0182,45.9858 23.5,40.5C 22.5,40.5 21.5,40.5 20.5,40.5C 21.1229,47.2547 20.4563,53.588 18.5,59.5C 19.4226,52.891 19.7559,46.2244 19.5,39.5C 21.5,39.5 23.5,39.5 25.5,39.5C 25.5,45.1667 25.5,50.8333 25.5,56.5 Z"/></g>
</svg>
