<?xml version="1.0" encoding="UTF-8"?>
<!DOCTYPE svg PUBLIC "-//W3C//DTD SVG 1.1//EN" "http://www.w3.org/Graphics/SVG/1.1/DTD/svg11.dtd">
<svg xmlns="http://www.w3.org/2000/svg" version="1.1" width="100px" height="100px" style="shape-rendering:geometricPrecision; text-rendering:geometricPrecision; image-rendering:optimizeQuality; fill-rule:evenodd; clip-rule:evenodd" xmlns:xlink="http://www.w3.org/1999/xlink">
<g><path style="opacity:1" fill="#4697d6" d="M 56.5,14.5 C 52.5,14.5 48.5,14.5 44.5,14.5C 44.5,17.1667 44.5,19.8333 44.5,22.5C 43.5233,19.7131 43.19,16.7131 43.5,13.5C 48.0323,13.1818 52.3656,13.5151 56.5,14.5 Z"/></g>
<g><path style="opacity:0.933" fill="#2397ed" d="M 56.5,14.5 C 56.1845,21.2715 55.8512,28.1049 55.5,35C 56.448,35.4828 57.448,35.6495 58.5,35.5C 59.188,39.54 60.5214,40.04 62.5,37C 63.448,36.5172 64.448,36.3505 65.5,36.5C 65.0725,39.5641 64.4058,42.5641 63.5,45.5C 64.8221,45.67 65.9887,45.3366 67,44.5C 68.1021,46.8183 69.6021,47.485 71.5,46.5C 72.8333,46.5 74.1667,46.5 75.5,46.5C 76.0838,43.715 75.0838,42.0483 72.5,41.5C 71.6384,35.9611 72.9718,31.1278 76.5,27C 77.7494,26.2599 78.7494,26.4265 79.5,27.5C 79.8331,30.6842 79.9998,34.0175 80,37.5C 80.5,38 81,38.5 81.5,39C 86.1475,39.0047 90.8141,38.838 95.5,38.5C 96.9587,38.4326 98.2921,38.7659 99.5,39.5C 99.5,41.1667 99.5,42.8333 99.5,44.5C 99.1667,44.5 98.8333,44.5 98.5,44.5C 96.281,43.1204 94.281,43.4537 92.5,45.5C 90.2619,42.5673 89.2619,42.9007 89.5,46.5C 88.325,46.281 87.325,46.6143 86.5,47.5C 87.2458,48.7362 87.5792,50.0695 87.5,51.5C 84.0644,54.3205 81.5644,57.9872 80,62.5C 77.6356,65.6902 75.1356,68.6902 72.5,71.5C 70.1667,71.5 67.8333,71.5 65.5,71.5C 65.552,73.9029 65.2186,76.2362 64.5,78.5C 63.8333,78.5 63.1667,78.5 62.5,78.5C 59.1667,78.5 55.8333,78.5 52.5,78.5C 52.5,79.5 52.5,80.5 52.5,81.5C 46.9048,80.3151 41.2382,79.6485 35.5,79.5C 31.161,79.3609 26.9943,80.0275 23,81.5C 21.1521,79.0471 18.6521,78.0471 15.5,78.5C 15.5,75.5 15.5,72.5 15.5,69.5C 11.6287,69.9396 7.962,69.9396 4.5,69.5C 5.79109,68.4583 5.79109,67.2917 4.5,66C 5.16667,65.6667 5.83333,65.3333 6.5,65C 3.87819,62.891 1.87819,60.391 0.5,57.5C 0.166667,57.5 -0.166667,57.5 -0.5,57.5C -0.5,54.1667 -0.5,50.8333 -0.5,47.5C 2.24571,45.8736 5.24571,45.2069 8.5,45.5C 8.33499,42.1501 8.50166,38.8168 9,35.5C 9.38258,34.944 9.88258,34.6107 10.5,34.5C 10.381,39.7739 12.381,40.7739 16.5,37.5C 18.0441,37.7896 19.3774,38.4563 20.5,39.5C 21.6256,38.1916 21.6256,36.8583 20.5,35.5C 19.5773,31.9359 19.244,28.2693 19.5,24.5C 28.2337,25.135 36.5671,24.4684 44.5,22.5C 44.5,19.8333 44.5,17.1667 44.5,14.5C 48.5,14.5 52.5,14.5 56.5,14.5 Z"/></g>
<g><path style="opacity:1" fill="#2797e5" d="M 79.5,27.5 C 83.3569,29.7019 85.6902,33.0353 86.5,37.5C 89.7131,37.19 92.7131,37.5233 95.5,38.5C 90.8141,38.838 86.1475,39.0047 81.5,39C 81,38.5 80.5,38 80,37.5C 79.9998,34.0175 79.8331,30.6842 79.5,27.5 Z"/></g>
<g><path style="opacity:0.829" fill="#2193f0" d="M 10.5,34.5 C 13.9023,34.3424 17.2356,34.6758 20.5,35.5C 21.6256,36.8583 21.6256,38.1916 20.5,39.5C 19.3774,38.4563 18.0441,37.7896 16.5,37.5C 12.381,40.7739 10.381,39.7739 10.5,34.5 Z"/></g>
<g><path style="opacity:0.958" fill="#2092f3" d="M 66.5,35.5 C 66.5,36.1667 66.1667,36.5 65.5,36.5C 64.448,36.3505 63.448,36.5172 62.5,37C 60.5214,40.04 59.188,39.54 58.5,35.5C 61.1667,34.1667 63.8333,34.1667 66.5,35.5 Z"/></g>
<g><path style="opacity:0.68" fill="#2597e6" d="M 66.5,35.5 C 68.4023,38.3373 69.069,41.6707 68.5,45.5C 69.5,45.5 70.5,45.5 71.5,45.5C 71.5,45.8333 71.5,46.1667 71.5,46.5C 69.6021,47.485 68.1021,46.8183 67,44.5C 65.9887,45.3366 64.8221,45.67 63.5,45.5C 64.4058,42.5641 65.0725,39.5641 65.5,36.5C 66.1667,36.5 66.5,36.1667 66.5,35.5 Z"/></g>
<g><path style="opacity:0.922" fill="#259ae8" d="M 98.5,44.5 C 96.3778,49.0712 92.7111,51.4045 87.5,51.5C 87.5792,50.0695 87.2458,48.7362 86.5,47.5C 87.325,46.6143 88.325,46.281 89.5,46.5C 89.2619,42.9007 90.2619,42.5673 92.5,45.5C 94.281,43.4537 96.281,43.1204 98.5,44.5 Z"/></g>
<g><path style="opacity:0.718" fill="#2a92f3" d="M 72.5,41.5 C 75.0838,42.0483 76.0838,43.715 75.5,46.5C 74.1667,46.5 72.8333,46.5 71.5,46.5C 71.5,46.1667 71.5,45.8333 71.5,45.5C 72.3764,45.6309 73.0431,45.2975 73.5,44.5C 72.8728,43.5832 72.5394,42.5832 72.5,41.5 Z"/></g>
<g><path style="opacity:0.995" fill="#2793ef" d="M 0.5,57.5 C 1.87819,60.391 3.87819,62.891 6.5,65C 5.83333,65.3333 5.16667,65.6667 4.5,66C 5.79109,67.2917 5.79109,68.4583 4.5,69.5C 4.14363,67.8102 3.14363,66.8102 1.5,66.5C 0.841278,63.5448 0.507945,60.5448 0.5,57.5 Z"/></g>
<g><path style="opacity:0.978" fill="#239ae6" d="M 72.5,71.5 C 70.2486,74.2948 67.5819,76.6281 64.5,78.5C 65.2186,76.2362 65.552,73.9029 65.5,71.5C 67.8333,71.5 70.1667,71.5 72.5,71.5 Z"/></g>
<g><path style="opacity:0.845" fill="#2598e6" d="M 62.5,78.5 C 59.9003,81.4603 56.567,82.7937 52.5,82.5C 52.5,82.1667 52.5,81.8333 52.5,81.5C 52.5,80.5 52.5,79.5 52.5,78.5C 55.8333,78.5 59.1667,78.5 62.5,78.5 Z"/></g>
<g><path style="opacity:0.907" fill="#2896e7" d="M 1.5,66.5 C 3.14363,66.8102 4.14363,67.8102 4.5,69.5C 7.962,69.9396 11.6287,69.9396 15.5,69.5C 15.5,72.5 15.5,75.5 15.5,78.5C 18.6521,78.0471 21.1521,79.0471 23,81.5C 26.9943,80.0275 31.161,79.3609 35.5,79.5C 41.2382,79.6485 46.9048,80.3151 52.5,81.5C 52.5,81.8333 52.5,82.1667 52.5,82.5C 50.2188,82.0773 48.5521,82.744 47.5,84.5C 36.2896,86.4028 25.2896,85.5694 14.5,82C 8.56999,78.2314 4.23665,73.0647 1.5,66.5 Z"/></g>
<g><path style="opacity:0.078" fill="#229be0" d="M 52.5,82.5 C 51.0697,83.5375 49.403,84.2041 47.5,84.5C 48.5521,82.744 50.2188,82.0773 52.5,82.5 Z"/></g>
</svg>
