<?xml version="1.0" encoding="UTF-8"?>
<!DOCTYPE svg PUBLIC "-//W3C//DTD SVG 1.1//EN" "http://www.w3.org/Graphics/SVG/1.1/DTD/svg11.dtd">
<svg xmlns="http://www.w3.org/2000/svg" version="1.1" width="100px" height="100px" style="shape-rendering:geometricPrecision; text-rendering:geometricPrecision; image-rendering:optimizeQuality; fill-rule:evenodd; clip-rule:evenodd" xmlns:xlink="http://www.w3.org/1999/xlink">
<g><path style="opacity:0.915" fill="#2cc2d7" d="M 37.5,-0.5 C 40.8333,-0.5 44.1667,-0.5 47.5,-0.5C 49.0798,4.24874 52.2464,7.58207 57,9.5C 60.8758,16.2635 60.0425,22.2635 54.5,27.5C 55.0121,30.3507 56.6787,31.6841 59.5,31.5C 59.5,33.8333 59.5,36.1667 59.5,38.5C 58.0911,36.0283 56.4244,33.695 54.5,31.5C 51.9203,28.4173 51.9203,25.4173 54.5,22.5C 55.4892,18.8927 55.8226,15.226 55.5,11.5C 53.5,11.5 51.5,11.5 49.5,11.5C 49.2036,8.73746 48.2036,6.23746 46.5,4C 43.854,3.50258 41.1873,3.33591 38.5,3.5C 37.8902,2.60895 37.5569,1.60895 37.5,0.5C 37.5,0.166667 37.5,-0.166667 37.5,-0.5 Z"/></g>
<g><path style="opacity:1" fill="#2ec2dc" d="M 38.5,3.5 C 41.1873,3.33591 43.854,3.50258 46.5,4C 48.2036,6.23746 49.2036,8.73746 49.5,11.5C 51.5,11.5 53.5,11.5 55.5,11.5C 55.8226,15.226 55.4892,18.8927 54.5,22.5C 51.9203,25.4173 51.9203,28.4173 54.5,31.5C 52.2228,30.5514 50.2228,29.2181 48.5,27.5C 48.9118,25.0274 47.9118,23.6941 45.5,23.5C 44.1938,22.5326 43.5271,21.1993 43.5,19.5C 42.5,19.5 41.5,19.5 40.5,19.5C 40.5111,17.4534 40.8444,15.4534 41.5,13.5C 38.633,10.5062 37.633,7.17286 38.5,3.5 Z"/></g>
<g><path style="opacity:1" fill="#2cc3cb" d="M 49.5,-0.5 C 50.8333,-0.5 52.1667,-0.5 53.5,-0.5C 53.5106,1.01739 54.1772,2.18405 55.5,3C 58.381,4.35779 61.2143,5.85779 64,7.5C 64.8497,14.4372 64.3497,21.2705 62.5,28C 63.9494,30.2892 63.4494,32.1225 61,33.5C 60.5045,35.4727 60.3379,37.4727 60.5,39.5C 60.1667,39.5 59.8333,39.5 59.5,39.5C 59.5,39.1667 59.5,38.8333 59.5,38.5C 59.5,36.1667 59.5,33.8333 59.5,31.5C 59.2559,26.5658 60.2559,21.8991 62.5,17.5C 62.7562,10.2657 59.4229,5.76566 52.5,4C 50.8588,2.87099 49.8588,1.37099 49.5,-0.5 Z"/></g>
<g><path style="opacity:1" fill="#30c2e2" d="M 37.5,0.5 C 37.5569,1.60895 37.8902,2.60895 38.5,3.5C 37.633,7.17286 38.633,10.5062 41.5,13.5C 40.8444,15.4534 40.5111,17.4534 40.5,19.5C 41.5,19.5 42.5,19.5 43.5,19.5C 43.5271,21.1993 44.1938,22.5326 45.5,23.5C 43.1944,23.0074 40.861,22.6741 38.5,22.5C 37.4132,16.3871 35.0798,10.8871 31.5,6C 32.7911,4.70833 32.7911,3.54166 31.5,2.5C 33.1016,0.926057 35.1016,0.25939 37.5,0.5 Z"/></g>
<g><path style="opacity:1" fill="#33bfea" d="M 21.5,8.5 C 23.3881,9.27513 25.3881,9.27513 27.5,8.5C 27.5,9.5 27.5,10.5 27.5,11.5C 28.8333,11.5 30.1667,11.5 31.5,11.5C 31.5,12.8333 31.5,14.1667 31.5,15.5C 30.1667,15.5 28.8333,15.5 27.5,15.5C 27.5,16.8333 27.5,18.1667 27.5,19.5C 31.7754,18.7497 35.1087,20.083 37.5,23.5C 36.8333,23.5 36.1667,23.5 35.5,23.5C 32.3752,22.5206 29.0419,22.1872 25.5,22.5C 25.6499,19.5413 24.6499,17.0413 22.5,15C 23.3567,14.3109 24.0233,13.4776 24.5,12.5C 22.7118,11.7174 21.7118,10.3841 21.5,8.5 Z"/></g>
<g><path style="opacity:1" fill="#33c0e6" d="M 31.5,2.5 C 32.7911,3.54166 32.7911,4.70833 31.5,6C 35.0798,10.8871 37.4132,16.3871 38.5,22.5C 40.861,22.6741 43.1944,23.0074 45.5,23.5C 47.9118,23.6941 48.9118,25.0274 48.5,27.5C 44.8382,26.1681 41.1715,24.8348 37.5,23.5C 35.1087,20.083 31.7754,18.7497 27.5,19.5C 27.5,18.1667 27.5,16.8333 27.5,15.5C 28.8333,15.5 30.1667,15.5 31.5,15.5C 31.5,14.1667 31.5,12.8333 31.5,11.5C 30.1667,11.5 28.8333,11.5 27.5,11.5C 27.5,10.5 27.5,9.5 27.5,8.5C 25.3881,9.27513 23.3881,9.27513 21.5,8.5C 21.5,8.16667 21.5,7.83333 21.5,7.5C 24.3573,4.99864 27.6907,3.33198 31.5,2.5 Z"/></g>
<g><path style="opacity:1" fill="#2dc4c3" d="M 53.5,-0.5 C 55.8333,-0.5 58.1667,-0.5 60.5,-0.5C 60.7215,1.6636 61.7215,3.33026 63.5,4.5C 63.7828,5.28913 64.2828,5.9558 65,6.5C 65.6667,12.8333 65.6667,19.1667 65,25.5C 64.5545,30.7593 63.3878,35.7593 61.5,40.5C 60.8333,40.5 60.5,40.1667 60.5,39.5C 60.3379,37.4727 60.5045,35.4727 61,33.5C 63.4494,32.1225 63.9494,30.2892 62.5,28C 64.3497,21.2705 64.8497,14.4372 64,7.5C 61.2143,5.85779 58.381,4.35779 55.5,3C 54.1772,2.18405 53.5106,1.01739 53.5,-0.5 Z"/></g>
<g><path style="opacity:0.997" fill="#35bfee" d="M 21.5,7.5 C 21.5,7.83333 21.5,8.16667 21.5,8.5C 21.7118,10.3841 22.7118,11.7174 24.5,12.5C 24.0233,13.4776 23.3567,14.3109 22.5,15C 24.6499,17.0413 25.6499,19.5413 25.5,22.5C 21.6945,22.412 18.0278,23.0787 14.5,24.5C 13.8333,23.5 13.1667,22.5 12.5,21.5C 10.9231,25.7516 7.92314,28.0849 3.5,28.5C 6.96846,19.1665 12.9685,12.1665 21.5,7.5 Z"/></g>
<g><path style="opacity:1" fill="#37c9a9" d="M 70.5,3.5 C 72.099,3.23219 73.4324,3.56552 74.5,4.5C 73.8333,5.5 73.1667,6.5 72.5,7.5C 71.5531,10.6576 71.5531,13.9909 72.5,17.5C 71.3353,23.49 70.3353,29.49 69.5,35.5C 67.9945,39.8445 65.9945,43.8445 63.5,47.5C 63.3354,44.4816 63.502,41.4816 64,38.5C 65.4813,37.5291 66.3146,36.1958 66.5,34.5C 68.8204,31.6789 69.9871,28.3456 70,24.5C 70.7401,18.7821 70.5735,13.1154 69.5,7.5C 69.8333,6.16667 70.1667,4.83333 70.5,3.5 Z"/></g>
<g><path style="opacity:1" fill="#41d298" d="M 79.5,8.5 C 79.1803,11.9521 79.1803,15.2855 79.5,18.5C 76.3075,23.6606 74.8075,29.3272 75,35.5C 74.2828,36.0442 73.7828,36.7109 73.5,37.5C 73.1667,37.5 72.8333,37.5 72.5,37.5C 71.9569,37.44 71.6236,37.1067 71.5,36.5C 74.941,27.2073 76.2743,17.5406 75.5,7.5C 76.9587,7.43255 78.2921,7.76589 79.5,8.5 Z"/></g>
<g><path style="opacity:1" fill="#31c7b6" d="M 60.5,-0.5 C 61.1667,-0.5 61.8333,-0.5 62.5,-0.5C 65.4038,0.285203 68.0704,1.61854 70.5,3.5C 70.1667,4.83333 69.8333,6.16667 69.5,7.5C 68.2316,11.5224 68.2316,15.689 69.5,20C 68.6727,24.0067 67.6727,27.84 66.5,31.5C 67.2183,22.5182 67.5516,13.5182 67.5,4.5C 66.1667,4.5 64.8333,4.5 63.5,4.5C 61.7215,3.33026 60.7215,1.6636 60.5,-0.5 Z"/></g>
<g><path style="opacity:1" fill="#37cab1" d="M 69.5,7.5 C 70.5735,13.1154 70.7401,18.7821 70,24.5C 69.9871,28.3456 68.8204,31.6789 66.5,34.5C 66.5,33.5 66.5,32.5 66.5,31.5C 67.6727,27.84 68.6727,24.0067 69.5,20C 68.2316,15.689 68.2316,11.5224 69.5,7.5 Z"/></g>
<g><path style="opacity:1" fill="#3ecda5" d="M 72.5,7.5 C 73.8086,8.624 74.4753,10.124 74.5,12C 73.6311,14.229 73.6311,16.5624 74.5,19C 72.7448,24.0302 71.5781,29.1969 71,34.5C 70.6174,35.056 70.1174,35.3893 69.5,35.5C 70.3353,29.49 71.3353,23.49 72.5,17.5C 71.5531,13.9909 71.5531,10.6576 72.5,7.5 Z"/></g>
<g><path style="opacity:1" fill="#47d28e" d="M 79.5,8.5 C 80.1667,8.5 80.8333,8.5 81.5,8.5C 83.3885,9.60398 85.0552,10.9373 86.5,12.5C 84.2988,12.8584 82.9655,14.1917 82.5,16.5C 84.3531,20.1045 83.3531,22.4379 79.5,23.5C 78.8186,25.1585 77.9853,26.8251 77,28.5C 76.673,34.6818 76.0064,40.6818 75,46.5C 74.1841,47.8228 73.0174,48.4894 71.5,48.5C 70.9614,46.4686 71.9614,44.9686 74.5,44C 74.8018,41.9587 74.4684,39.7921 73.5,37.5C 73.7828,36.7109 74.2828,36.0442 75,35.5C 74.8075,29.3272 76.3075,23.6606 79.5,18.5C 79.1803,15.2855 79.1803,11.9521 79.5,8.5 Z"/></g>
<g><path style="opacity:0.761" fill="#58dd7a" d="M 90.5,16.5 C 92.1921,18.2048 93.5254,20.2048 94.5,22.5C 92.9397,22.4809 91.4397,22.1476 90,21.5C 88.9889,22.0556 88.1556,22.7222 87.5,23.5C 87.5,21.1667 87.5,18.8333 87.5,16.5C 88.5,16.5 89.5,16.5 90.5,16.5 Z"/></g>
<g><path style="opacity:1" fill="#4dd984" d="M 86.5,12.5 C 87.8333,13.8333 89.1667,15.1667 90.5,16.5C 89.5,16.5 88.5,16.5 87.5,16.5C 87.5,18.8333 87.5,21.1667 87.5,23.5C 87.1667,23.5 86.8333,23.5 86.5,23.5C 84.5328,23.2606 82.6995,23.5939 81,24.5C 80.2811,30.1413 80.7811,35.6413 82.5,41C 81.9056,41.4643 81.2389,41.631 80.5,41.5C 79.8333,41.1667 79.1667,40.8333 78.5,40.5C 79.4524,34.9252 79.7857,29.2586 79.5,23.5C 83.3531,22.4379 84.3531,20.1045 82.5,16.5C 82.9655,14.1917 84.2988,12.8584 86.5,12.5 Z"/></g>
<g><path style="opacity:1" fill="#2bc3d1" d="M 47.5,-0.5 C 48.1667,-0.5 48.8333,-0.5 49.5,-0.5C 49.8588,1.37099 50.8588,2.87099 52.5,4C 59.4229,5.76566 62.7562,10.2657 62.5,17.5C 60.2559,21.8991 59.2559,26.5658 59.5,31.5C 56.6787,31.6841 55.0121,30.3507 54.5,27.5C 60.0425,22.2635 60.8758,16.2635 57,9.5C 52.2464,7.58207 49.0798,4.24874 47.5,-0.5 Z"/></g>
<g><path style="opacity:1" fill="#30c6bd" d="M 63.5,4.5 C 64.8333,4.5 66.1667,4.5 67.5,4.5C 67.5516,13.5182 67.2183,22.5182 66.5,31.5C 66.5,32.5 66.5,33.5 66.5,34.5C 63.4153,36.3494 61.7486,39.0161 61.5,42.5C 61.5,41.8333 61.5,41.1667 61.5,40.5C 63.3878,35.7593 64.5545,30.7593 65,25.5C 65.6667,19.1667 65.6667,12.8333 65,6.5C 64.2828,5.9558 63.7828,5.28913 63.5,4.5 Z"/></g>
<g><path style="opacity:1" fill="#39b9ec" d="M 25.5,22.5 C 29.0419,22.1872 32.3752,22.5206 35.5,23.5C 30.3054,23.1795 25.3054,23.5128 20.5,24.5C 19.5084,24.3284 18.8417,24.6618 18.5,25.5C 14.3948,26.2833 11.0615,28.2833 8.5,31.5C 8.16667,31.5 7.83333,31.5 7.5,31.5C 5.83333,31.5 4.16667,31.5 2.5,31.5C 2.55688,30.391 2.89022,29.391 3.5,28.5C 7.92314,28.0849 10.9231,25.7516 12.5,21.5C 13.1667,22.5 13.8333,23.5 14.5,24.5C 18.0278,23.0787 21.6945,22.412 25.5,22.5 Z"/></g>
<g><path style="opacity:1" fill="#107eb7" d="M 18.5,25.5 C 18.8417,24.6618 19.5084,24.3284 20.5,24.5C 29.6547,23.8061 38.3214,25.1395 46.5,28.5C 39.3452,28.8356 32.3452,28.8356 25.5,28.5C 28.0452,27.5492 28.0452,26.5492 25.5,25.5C 23.3448,25.838 21.0115,25.838 18.5,25.5 Z"/></g>
<g><path style="opacity:1" fill="#0b77b4" d="M 18.5,25.5 C 21.0115,25.838 23.3448,25.838 25.5,25.5C 28.0452,26.5492 28.0452,27.5492 25.5,28.5C 24.1667,28.5 22.8333,28.5 21.5,28.5C 19.5,28.5 17.5,28.5 15.5,28.5C 15.5,29.5 15.5,30.5 15.5,31.5C 13.1667,31.5 10.8333,31.5 8.5,31.5C 11.0615,28.2833 14.3948,26.2833 18.5,25.5 Z"/></g>
<g><path style="opacity:1" fill="#1286c9" d="M 21.5,28.5 C 22.8333,28.5 24.1667,28.5 25.5,28.5C 32.3452,28.8356 39.3452,28.8356 46.5,28.5C 48.0063,31.3661 48.3396,34.3661 47.5,37.5C 47.5,38.1667 47.1667,38.5 46.5,38.5C 46.5,37.5 46.5,36.5 46.5,35.5C 41.8402,34.5057 37.1736,33.5057 32.5,32.5C 29.7954,32.3161 27.4621,32.9827 25.5,34.5C 21.6524,35.118 18.319,35.118 15.5,34.5C 17.0145,33.3199 18.6812,32.3199 20.5,31.5C 20.2907,30.914 19.9574,30.414 19.5,30C 20.4158,29.7216 21.0825,29.2216 21.5,28.5 Z"/></g>
<g><path style="opacity:1" fill="#3ccb9c" d="M 74.5,4.5 C 77.0041,5.58387 79.3374,6.9172 81.5,8.5C 80.8333,8.5 80.1667,8.5 79.5,8.5C 78.2921,7.76589 76.9587,7.43255 75.5,7.5C 76.2743,17.5406 74.941,27.2073 71.5,36.5C 71.6236,37.1067 71.9569,37.44 72.5,37.5C 71.2661,40.586 69.7661,43.586 68,46.5C 66.7365,48.607 64.9032,49.607 62.5,49.5C 62.3284,48.5084 62.6618,47.8417 63.5,47.5C 65.9945,43.8445 67.9945,39.8445 69.5,35.5C 70.1174,35.3893 70.6174,35.056 71,34.5C 71.5781,29.1969 72.7448,24.0302 74.5,19C 73.6311,16.5624 73.6311,14.229 74.5,12C 74.4753,10.124 73.8086,8.624 72.5,7.5C 73.1667,6.5 73.8333,5.5 74.5,4.5 Z"/></g>
<g><path style="opacity:0.97" fill="#5ae36f" d="M 94.5,22.5 C 96.5439,25.6229 98.2105,28.9562 99.5,32.5C 99.5,38.1667 99.5,43.8333 99.5,49.5C 98.6618,49.8417 98.3284,50.5084 98.5,51.5C 97.7777,50.4489 96.7777,49.7822 95.5,49.5C 95.5,47.8333 95.5,46.1667 95.5,44.5C 94.0222,44.762 92.6888,44.4287 91.5,43.5C 90.2873,40.7903 88.9539,38.1236 87.5,35.5C 87.8566,31.5929 87.8566,27.5929 87.5,23.5C 88.1556,22.7222 88.9889,22.0556 90,21.5C 91.4397,22.1476 92.9397,22.4809 94.5,22.5 Z"/></g>
<g><path style="opacity:1" fill="#0d7ac0" d="M 21.5,28.5 C 21.0825,29.2216 20.4158,29.7216 19.5,30C 19.9574,30.414 20.2907,30.914 20.5,31.5C 18.6812,32.3199 17.0145,33.3199 15.5,34.5C 13.901,34.2322 12.5676,34.5655 11.5,35.5C 10.1667,35.5 8.83333,35.5 7.5,35.5C 7.5,34.5 7.5,33.5 7.5,32.5C 7.5,32.1667 7.5,31.8333 7.5,31.5C 7.83333,31.5 8.16667,31.5 8.5,31.5C 10.8333,31.5 13.1667,31.5 15.5,31.5C 15.5,30.5 15.5,29.5 15.5,28.5C 17.5,28.5 19.5,28.5 21.5,28.5 Z"/></g>
<g><path style="opacity:1" fill="#4ddb7a" d="M 86.5,23.5 C 86.6006,32.5863 86.2672,41.5863 85.5,50.5C 83.8306,51.8897 82.1639,52.2231 80.5,51.5C 81.209,50.596 82.209,50.2627 83.5,50.5C 83.9754,47.6874 82.9754,45.6874 80.5,44.5C 80.5,43.5 80.5,42.5 80.5,41.5C 81.2389,41.631 81.9056,41.4643 82.5,41C 80.7811,35.6413 80.2811,30.1413 81,24.5C 82.6995,23.5939 84.5328,23.2606 86.5,23.5 Z"/></g>
<g><path style="opacity:1" fill="#077db6" d="M 7.5,32.5 C 7.5,33.5 7.5,34.5 7.5,35.5C 5.3043,36.8381 3.3043,38.5047 1.5,40.5C 2.5293,37.1092 4.5293,34.4426 7.5,32.5 Z"/></g>
<g><path style="opacity:0.995" fill="#158fd8" d="M 46.5,38.5 C 45.2921,39.2341 43.9587,39.5674 42.5,39.5C 40.1838,40.8056 37.8505,42.1389 35.5,43.5C 34.1658,41.841 32.4992,40.5076 30.5,39.5C 29.5713,38.3112 29.238,36.9778 29.5,35.5C 27.901,35.7678 26.5676,35.4345 25.5,34.5C 27.4621,32.9827 29.7954,32.3161 32.5,32.5C 37.1736,33.5057 41.8402,34.5057 46.5,35.5C 46.5,36.5 46.5,37.5 46.5,38.5 Z"/></g>
<g><path style="opacity:0.882" fill="#37b8e2" d="M 2.5,31.5 C 4.16667,31.5 5.83333,31.5 7.5,31.5C 7.5,31.8333 7.5,32.1667 7.5,32.5C 4.5293,34.4426 2.5293,37.1092 1.5,40.5C 0.833333,41.1667 0.166667,41.8333 -0.5,42.5C -0.5,40.8333 -0.5,39.1667 -0.5,37.5C 0.202776,35.3713 1.20278,33.3713 2.5,31.5 Z"/></g>
<g><path style="opacity:1" fill="#0f8ad8" d="M 15.5,34.5 C 18.319,35.118 21.6524,35.118 25.5,34.5C 26.5676,35.4345 27.901,35.7678 29.5,35.5C 29.238,36.9778 29.5713,38.3112 30.5,39.5C 32.4992,40.5076 34.1658,41.841 35.5,43.5C 32.4977,46.1612 30.4977,49.4945 29.5,53.5C 27.0237,56.2882 26.0237,59.6215 26.5,63.5C 26.1667,63.5 25.8333,63.5 25.5,63.5C 25.5,60.8333 25.5,58.1667 25.5,55.5C 26.189,52.9617 27.189,50.4617 28.5,48C 28.1223,46.3651 27.4556,44.8651 26.5,43.5C 25.7492,44.376 25.2492,45.376 25,46.5C 21.8639,44.0385 18.6973,41.5385 15.5,39C 17.854,36.31 17.1873,35.81 13.5,37.5C 12.8333,36.8333 12.1667,36.1667 11.5,35.5C 12.5676,34.5655 13.901,34.2322 15.5,34.5 Z"/></g>
<g><path style="opacity:1" fill="#1780b1" d="M 20.5,24.5 C 25.3054,23.5128 30.3054,23.1795 35.5,23.5C 36.1667,23.5 36.8333,23.5 37.5,23.5C 41.1715,24.8348 44.8382,26.1681 48.5,27.5C 50.2228,29.2181 52.2228,30.5514 54.5,31.5C 56.4244,33.695 58.0911,36.0283 59.5,38.5C 59.5,38.8333 59.5,39.1667 59.5,39.5C 59.5,40.8333 59.5,42.1667 59.5,43.5C 56.4859,39.8111 52.4859,37.8111 47.5,37.5C 48.3396,34.3661 48.0063,31.3661 46.5,28.5C 38.3214,25.1395 29.6547,23.8061 20.5,24.5 Z"/></g>
<g><path style="opacity:1" fill="#2dc4ad" d="M 66.5,34.5 C 66.3146,36.1958 65.4813,37.5291 64,38.5C 63.502,41.4816 63.3354,44.4816 63.5,47.5C 62.6618,47.8417 62.3284,48.5084 62.5,49.5C 62.5,50.1667 62.1667,50.5 61.5,50.5C 61.5,49.5 61.5,48.5 61.5,47.5C 61.5,45.8333 61.5,44.1667 61.5,42.5C 61.7486,39.0161 63.4153,36.3494 66.5,34.5 Z"/></g>
<g><path style="opacity:1" fill="#43d186" d="M 79.5,23.5 C 79.7857,29.2586 79.4524,34.9252 78.5,40.5C 77.8951,43.1267 77.3951,45.7934 77,48.5C 75.6703,49.5822 74.1703,50.2488 72.5,50.5C 72.5,49.8333 72.1667,49.5 71.5,49.5C 71.5,49.1667 71.5,48.8333 71.5,48.5C 73.0174,48.4894 74.1841,47.8228 75,46.5C 76.0064,40.6818 76.673,34.6818 77,28.5C 77.9853,26.8251 78.8186,25.1585 79.5,23.5 Z"/></g>
<g><path style="opacity:1" fill="#077ac1" d="M 7.5,35.5 C 8.20957,38.8595 6.87623,40.6929 3.5,41C 2.02294,42.8121 0.689603,44.6455 -0.5,46.5C -0.5,45.1667 -0.5,43.8333 -0.5,42.5C 0.166667,41.8333 0.833333,41.1667 1.5,40.5C 3.3043,38.5047 5.3043,36.8381 7.5,35.5 Z"/></g>
<g><path style="opacity:1" fill="#50dc71" d="M 86.5,23.5 C 86.8333,23.5 87.1667,23.5 87.5,23.5C 87.8566,27.5929 87.8566,31.5929 87.5,35.5C 88.9539,38.1236 90.2873,40.7903 91.5,43.5C 92.6888,44.4287 94.0222,44.762 95.5,44.5C 95.5,46.1667 95.5,47.8333 95.5,49.5C 95.44,50.0431 95.1067,50.3764 94.5,50.5C 93.2776,48.0217 91.2776,47.0217 88.5,47.5C 88.2785,49.6636 87.2785,51.3303 85.5,52.5C 85.5,51.8333 85.5,51.1667 85.5,50.5C 86.2672,41.5863 86.6006,32.5863 86.5,23.5 Z"/></g>
<g><path style="opacity:0.757" fill="#189a9b" d="M 59.5,39.5 C 59.8333,39.5 60.1667,39.5 60.5,39.5C 60.5,40.1667 60.8333,40.5 61.5,40.5C 61.5,41.1667 61.5,41.8333 61.5,42.5C 61.5,44.1667 61.5,45.8333 61.5,47.5C 60.6554,46.3285 59.9887,44.9952 59.5,43.5C 59.5,42.1667 59.5,40.8333 59.5,39.5 Z"/></g>
<g><path style="opacity:1" fill="#0b86d9" d="M 25.5,55.5 C 24.7354,55.9234 23.9021,56.2568 23,56.5C 20.6813,55.1287 18.1813,54.4621 15.5,54.5C 15.8076,52.076 15.4742,49.7427 14.5,47.5C 12.6542,45.8213 10.9876,43.988 9.5,42C 10.6045,40.2847 11.9378,38.7847 13.5,37.5C 17.1873,35.81 17.854,36.31 15.5,39C 18.6973,41.5385 21.8639,44.0385 25,46.5C 25.2492,45.376 25.7492,44.376 26.5,43.5C 27.4556,44.8651 28.1223,46.3651 28.5,48C 27.189,50.4617 26.189,52.9617 25.5,55.5 Z"/></g>
<g><path style="opacity:0.99" fill="#35c68a" d="M 72.5,37.5 C 72.8333,37.5 73.1667,37.5 73.5,37.5C 74.4684,39.7921 74.8018,41.9587 74.5,44C 71.9614,44.9686 70.9614,46.4686 71.5,48.5C 71.5,48.8333 71.5,49.1667 71.5,49.5C 68.7549,51.7808 65.0883,53.1141 60.5,53.5C 60.5569,52.391 60.8902,51.391 61.5,50.5C 62.1667,50.5 62.5,50.1667 62.5,49.5C 64.9032,49.607 66.7365,48.607 68,46.5C 69.7661,43.586 71.2661,40.586 72.5,37.5 Z"/></g>
<g><path style="opacity:1" fill="#46d364" d="M 95.5,49.5 C 96.7777,49.7822 97.7777,50.4489 98.5,51.5C 97.5514,53.7772 96.2181,55.7772 94.5,57.5C 94.5,56.5 94.5,55.5 94.5,54.5C 92.8333,54.5 91.1667,54.5 89.5,54.5C 89.67,55.8221 89.3366,56.9887 88.5,58C 85.8806,57.9167 83.214,57.75 80.5,57.5C 80.5,57.1667 80.5,56.8333 80.5,56.5C 81.5846,54.4131 83.2512,53.0798 85.5,52.5C 87.2785,51.3303 88.2785,49.6636 88.5,47.5C 91.2776,47.0217 93.2776,48.0217 94.5,50.5C 95.1067,50.3764 95.44,50.0431 95.5,49.5 Z"/></g>
<g><path style="opacity:1" fill="#3acb79" d="M 78.5,40.5 C 79.1667,40.8333 79.8333,41.1667 80.5,41.5C 80.5,42.5 80.5,43.5 80.5,44.5C 79.9938,49.2737 77.3271,52.107 72.5,53C 73.4581,54.1475 73.1247,55.1475 71.5,56C 68.2454,57.1534 64.9121,57.9868 61.5,58.5C 61.6107,57.8826 61.944,57.3826 62.5,57C 67.677,57.2654 71.0104,55.0988 72.5,50.5C 74.1703,50.2488 75.6703,49.5822 77,48.5C 77.3951,45.7934 77.8951,43.1267 78.5,40.5 Z"/></g>
<g><path style="opacity:1" fill="#094c86" d="M 42.5,39.5 C 39.2835,42.8066 37.6168,46.8066 37.5,51.5C 36.1667,51.5 34.8333,51.5 33.5,51.5C 33.5,52.8333 33.5,54.1667 33.5,55.5C 31.6203,55.7709 30.287,55.1042 29.5,53.5C 30.4977,49.4945 32.4977,46.1612 35.5,43.5C 37.8505,42.1389 40.1838,40.8056 42.5,39.5 Z"/></g>
<g><path style="opacity:0.985" fill="#35c47a" d="M 71.5,49.5 C 72.1667,49.5 72.5,49.8333 72.5,50.5C 71.0104,55.0988 67.677,57.2654 62.5,57C 61.944,57.3826 61.6107,57.8826 61.5,58.5C 61.5,58.8333 61.5,59.1667 61.5,59.5C 60.5,59.5 59.5,59.5 58.5,59.5C 58.5,60.5 58.5,61.5 58.5,62.5C 57.7326,61.828 57.0659,60.9947 56.5,60C 57.719,57.7218 59.0523,55.5551 60.5,53.5C 65.0883,53.1141 68.7549,51.7808 71.5,49.5 Z"/></g>
<g><path style="opacity:1" fill="#37c970" d="M 80.5,44.5 C 82.9754,45.6874 83.9754,47.6874 83.5,50.5C 82.209,50.2627 81.209,50.596 80.5,51.5C 77.6622,53.6754 74.6622,55.8421 71.5,58C 68.2432,59.0429 64.9099,59.5429 61.5,59.5C 61.5,59.1667 61.5,58.8333 61.5,58.5C 64.9121,57.9868 68.2454,57.1534 71.5,56C 73.1247,55.1475 73.4581,54.1475 72.5,53C 77.3271,52.107 79.9938,49.2737 80.5,44.5 Z"/></g>
<g><path style="opacity:1" fill="#067ed5" d="M 7.5,35.5 C 8.83333,35.5 10.1667,35.5 11.5,35.5C 12.1667,36.1667 12.8333,36.8333 13.5,37.5C 11.9378,38.7847 10.6045,40.2847 9.5,42C 10.9876,43.988 12.6542,45.8213 14.5,47.5C 15.4742,49.7427 15.8076,52.076 15.5,54.5C 18.1813,54.4621 20.6813,55.1287 23,56.5C 23.9021,56.2568 24.7354,55.9234 25.5,55.5C 25.5,58.1667 25.5,60.8333 25.5,63.5C 25.3339,69.1764 25.5006,74.8431 26,80.5C 26.5133,81.5266 27.0133,82.5266 27.5,83.5C 26.4188,85.1336 25.0855,86.467 23.5,87.5C 24.4412,84.0328 24.2745,80.6995 23,77.5C 22.2904,78.9733 21.1238,79.6399 19.5,79.5C 19.5,78.1667 19.5,76.8333 19.5,75.5C 18.1667,75.5 16.8333,75.5 15.5,75.5C 15.5,72.8333 15.5,70.1667 15.5,67.5C 12.4816,67.6646 9.48162,67.498 6.5,67C 5.92876,65.7949 5.26209,64.6283 4.5,63.5C 3.55075,66.1258 3.55075,68.7925 4.5,71.5C 6.6348,71.147 7.96813,71.9803 8.5,74C 8.16389,75.0299 7.49722,75.5299 6.5,75.5C 3.63426,71.1018 1.30092,66.4352 -0.5,61.5C -0.5,56.5 -0.5,51.5 -0.5,46.5C 0.689603,44.6455 2.02294,42.8121 3.5,41C 6.87623,40.6929 8.20957,38.8595 7.5,35.5 Z"/></g>
<g><path style="opacity:1" fill="#37c767" d="M 85.5,50.5 C 85.5,51.1667 85.5,51.8333 85.5,52.5C 83.2512,53.0798 81.5846,54.4131 80.5,56.5C 79.8826,56.3893 79.3826,56.056 79,55.5C 74.7566,59.7613 69.5899,61.5947 63.5,61C 62.2568,62.816 62.5901,64.316 64.5,65.5C 61.911,65.539 59.911,64.539 58.5,62.5C 58.5,61.5 58.5,60.5 58.5,59.5C 59.5,59.5 60.5,59.5 61.5,59.5C 64.9099,59.5429 68.2432,59.0429 71.5,58C 74.6622,55.8421 77.6622,53.6754 80.5,51.5C 82.1639,52.2231 83.8306,51.8897 85.5,50.5 Z"/></g>
<g><path style="opacity:1" fill="#095197" d="M 37.5,51.5 C 38.2341,52.7079 38.5674,54.0413 38.5,55.5C 36.2362,56.2186 33.9029,56.552 31.5,56.5C 32.129,58.4649 32.7957,60.4649 33.5,62.5C 33.322,66.1556 33.1554,69.8222 33,73.5C 34.2515,75.0009 35.2515,76.6675 36,78.5C 37.0113,77.6634 38.1779,77.33 39.5,77.5C 39.5,80.1667 39.5,82.8333 39.5,85.5C 42.1142,85.2771 43.7809,86.4438 44.5,89C 43.5,89.3333 42.5,89.6667 41.5,90C 42.8882,90.8893 42.7215,91.3893 41,91.5C 39.3043,88.6336 36.8043,87.3002 33.5,87.5C 33.1667,87.5 32.8333,87.5 32.5,87.5C 30.4212,83.6717 28.5879,79.6717 27,75.5C 26.5012,71.5138 26.3345,67.5138 26.5,63.5C 26.0237,59.6215 27.0237,56.2882 29.5,53.5C 30.287,55.1042 31.6203,55.7709 33.5,55.5C 33.5,54.1667 33.5,52.8333 33.5,51.5C 34.8333,51.5 36.1667,51.5 37.5,51.5 Z"/></g>
<g><path style="opacity:1" fill="#38ca55" d="M 94.5,57.5 C 92.7807,60.2195 90.4474,62.2195 87.5,63.5C 84.6122,62.9898 82.2789,63.6565 80.5,65.5C 75.6309,66.7508 70.6309,66.7508 65.5,65.5C 67.6581,63.78 70.3248,62.9467 73.5,63C 73.1667,62.6667 72.8333,62.3333 72.5,62C 75.5607,60.2641 78.2274,58.7641 80.5,57.5C 83.214,57.75 85.8806,57.9167 88.5,58C 89.3366,56.9887 89.67,55.8221 89.5,54.5C 91.1667,54.5 92.8333,54.5 94.5,54.5C 94.5,55.5 94.5,56.5 94.5,57.5 Z"/></g>
<g><path style="opacity:1" fill="#32c85c" d="M 80.5,56.5 C 80.5,56.8333 80.5,57.1667 80.5,57.5C 78.2274,58.7641 75.5607,60.2641 72.5,62C 72.8333,62.3333 73.1667,62.6667 73.5,63C 70.3248,62.9467 67.6581,63.78 65.5,65.5C 65.1667,65.5 64.8333,65.5 64.5,65.5C 62.5901,64.316 62.2568,62.816 63.5,61C 69.5899,61.5947 74.7566,59.7613 79,55.5C 79.3826,56.056 79.8826,56.3893 80.5,56.5 Z"/></g>
<g><path style="opacity:0.996" fill="#0d549c" d="M 38.5,55.5 C 41.2645,63.2729 46.2645,69.2729 53.5,73.5C 54.6005,74.6049 55.2671,75.9382 55.5,77.5C 54.1779,77.67 53.0113,77.3366 52,76.5C 51.1101,82.1461 50.1101,82.4794 49,77.5C 47.5295,75.1282 46.3628,75.1282 45.5,77.5C 47.9101,82.4244 48.4101,87.4244 47,92.5C 45.984,91.3659 45.3173,91.6992 45,93.5C 44.2303,92.4019 43.397,92.4019 42.5,93.5C 38.9794,92.3183 35.9794,90.3183 33.5,87.5C 36.8043,87.3002 39.3043,88.6336 41,91.5C 42.7215,91.3893 42.8882,90.8893 41.5,90C 42.5,89.6667 43.5,89.3333 44.5,89C 43.7809,86.4438 42.1142,85.2771 39.5,85.5C 39.5,82.8333 39.5,80.1667 39.5,77.5C 38.1779,77.33 37.0113,77.6634 36,78.5C 35.2515,76.6675 34.2515,75.0009 33,73.5C 33.1554,69.8222 33.322,66.1556 33.5,62.5C 32.7957,60.4649 32.129,58.4649 31.5,56.5C 33.9029,56.552 36.2362,56.2186 38.5,55.5 Z"/></g>
<g><path style="opacity:0.722" fill="#43be5b" d="M 87.5,63.5 C 85.5615,65.1628 83.2282,65.8294 80.5,65.5C 82.2789,63.6565 84.6122,62.9898 87.5,63.5 Z"/></g>
<g><path style="opacity:0.984" fill="#027ad5" d="M 23.5,87.5 C 21.6208,88.3414 19.6208,88.6747 17.5,88.5C 12.2049,85.5957 8.53822,81.2624 6.5,75.5C 7.49722,75.5299 8.16389,75.0299 8.5,74C 7.96813,71.9803 6.6348,71.147 4.5,71.5C 3.55075,68.7925 3.55075,66.1258 4.5,63.5C 5.26209,64.6283 5.92876,65.7949 6.5,67C 9.48162,67.498 12.4816,67.6646 15.5,67.5C 15.5,70.1667 15.5,72.8333 15.5,75.5C 16.8333,75.5 18.1667,75.5 19.5,75.5C 19.5,76.8333 19.5,78.1667 19.5,79.5C 21.1238,79.6399 22.2904,78.9733 23,77.5C 24.2745,80.6995 24.4412,84.0328 23.5,87.5 Z"/></g>
<g><path style="opacity:0.979" fill="#134882" d="M 88.5,81.5 C 87.1667,81.5 85.8333,81.5 84.5,81.5C 84.6495,80.448 84.4828,79.448 84,78.5C 82.3775,77.9011 80.8775,77.2344 79.5,76.5C 83.6775,74.8867 88.0108,73.8867 92.5,73.5C 92.4824,76.9213 91.149,79.5879 88.5,81.5 Z"/></g>
<g><path style="opacity:1" fill="#0977c7" d="M 25.5,63.5 C 25.8333,63.5 26.1667,63.5 26.5,63.5C 26.3345,67.5138 26.5012,71.5138 27,75.5C 28.5879,79.6717 30.4212,83.6717 32.5,87.5C 30.52,86.5264 28.8533,85.193 27.5,83.5C 27.0133,82.5266 26.5133,81.5266 26,80.5C 25.5006,74.8431 25.3339,69.1764 25.5,63.5 Z"/></g>
<g><path style="opacity:1" fill="#0d539a" d="M 55.5,77.5 C 54.6016,78.1577 53.6016,78.8243 52.5,79.5C 52.6667,79.8333 52.8333,80.1667 53,80.5C 55.0408,79.5769 57.2075,79.2436 59.5,79.5C 59.5,80.8333 59.5,82.1667 59.5,83.5C 60.8333,83.5 62.1667,83.5 63.5,83.5C 63.7854,87.0248 63.1187,90.3582 61.5,93.5C 61.6082,94.4419 61.9415,95.2753 62.5,96C 61.6195,96.7083 60.9528,97.5416 60.5,98.5C 60.5,98.8333 60.5,99.1667 60.5,99.5C 58.8333,99.5 57.1667,99.5 55.5,99.5C 53.0948,98.2318 50.4282,97.5651 47.5,97.5C 45.6508,96.407 43.9842,95.0737 42.5,93.5C 43.397,92.4019 44.2303,92.4019 45,93.5C 45.3173,91.6992 45.984,91.3659 47,92.5C 48.4101,87.4244 47.9101,82.4244 45.5,77.5C 46.3628,75.1282 47.5295,75.1282 49,77.5C 50.1101,82.4794 51.1101,82.1461 52,76.5C 53.0113,77.3366 54.1779,77.67 55.5,77.5 Z"/></g>
<g><path style="opacity:0.995" fill="#104e91" d="M 53.5,73.5 C 58.0045,75.42 62.6712,76.7534 67.5,77.5C 67.9704,78.6935 68.9704,79.3601 70.5,79.5C 72.0296,79.3601 73.0296,78.6935 73.5,77.5C 75.5,77.1667 77.5,76.8333 79.5,76.5C 80.8775,77.2344 82.3775,77.9011 84,78.5C 84.4828,79.448 84.6495,80.448 84.5,81.5C 85.8333,81.5 87.1667,81.5 88.5,81.5C 81.4821,90.8264 72.1488,96.4931 60.5,98.5C 60.9528,97.5416 61.6195,96.7083 62.5,96C 61.9415,95.2753 61.6082,94.4419 61.5,93.5C 63.1187,90.3582 63.7854,87.0248 63.5,83.5C 62.1667,83.5 60.8333,83.5 59.5,83.5C 59.5,82.1667 59.5,80.8333 59.5,79.5C 57.2075,79.2436 55.0408,79.5769 53,80.5C 52.8333,80.1667 52.6667,79.8333 52.5,79.5C 53.6016,78.8243 54.6016,78.1577 55.5,77.5C 55.2671,75.9382 54.6005,74.6049 53.5,73.5 Z"/></g>
<g><path style="opacity:0.969" fill="#155085" d="M 67.5,77.5 C 69.5,77.5 71.5,77.5 73.5,77.5C 73.0296,78.6935 72.0296,79.3601 70.5,79.5C 68.9704,79.3601 67.9704,78.6935 67.5,77.5 Z"/></g>
<g><path style="opacity:1" fill="#0579d0" d="M 27.5,83.5 C 28.8533,85.193 30.52,86.5264 32.5,87.5C 32.8333,87.5 33.1667,87.5 33.5,87.5C 35.9794,90.3183 38.9794,92.3183 42.5,93.5C 43.9842,95.0737 45.6508,96.407 47.5,97.5C 47.5,98.1667 47.5,98.8333 47.5,99.5C 44.5,99.5 41.5,99.5 38.5,99.5C 30.6186,97.5379 23.6186,93.8712 17.5,88.5C 19.6208,88.6747 21.6208,88.3414 23.5,87.5C 25.0855,86.467 26.4188,85.1336 27.5,83.5 Z"/></g>
<g><path style="opacity:1" fill="#0e77c3" d="M 47.5,97.5 C 50.4282,97.5651 53.0948,98.2318 55.5,99.5C 52.8333,99.5 50.1667,99.5 47.5,99.5C 47.5,98.8333 47.5,98.1667 47.5,97.5 Z"/></g>
</svg>
