<?xml version="1.0" encoding="UTF-8"?>
<!DOCTYPE svg PUBLIC "-//W3C//DTD SVG 1.1//EN" "http://www.w3.org/Graphics/SVG/1.1/DTD/svg11.dtd">
<svg xmlns="http://www.w3.org/2000/svg" version="1.1" width="100px" height="100px" style="shape-rendering:geometricPrecision; text-rendering:geometricPrecision; image-rendering:optimizeQuality; fill-rule:evenodd; clip-rule:evenodd" xmlns:xlink="http://www.w3.org/1999/xlink">
<g><path style="opacity:0.989" fill="#2a2e3b" d="M 37.5,-0.5 C 42.8333,-0.5 48.1667,-0.5 53.5,-0.5C 52.8941,2.91557 53.8941,5.58224 56.5,7.5C 57.4287,8.68884 57.762,10.0222 57.5,11.5C 59.604,11.2011 61.604,11.5344 63.5,12.5C 62.2634,13.2807 61.2634,14.2807 60.5,15.5C 59.3112,16.4287 57.9778,16.762 56.5,16.5C 54.8518,13.8624 52.5185,11.8624 49.5,10.5C 45.2327,11.6023 43.7327,14.269 45,18.5C 48.1305,21.1217 51.2972,21.1217 54.5,18.5C 56.914,19.9108 58.5806,21.9108 59.5,24.5C 58.1667,25.8333 56.8333,27.1667 55.5,28.5C 53.8828,29.038 52.2161,29.3713 50.5,29.5C 49.2652,29.2786 48.2652,28.6119 47.5,27.5C 45.2279,28.4411 43.2279,29.7745 41.5,31.5C 40.5713,30.3112 40.238,28.9778 40.5,27.5C 41.552,27.6495 42.552,27.4828 43.5,27C 43.705,25.3237 42.8717,23.8237 41,22.5C 40.3076,23.0253 39.8076,23.6919 39.5,24.5C 35.3525,25.167 31.3525,25.8337 27.5,26.5C 16.7858,29.304 13.4525,35.9706 17.5,46.5C 17.6646,49.5184 17.498,52.5184 17,55.5C 15.7292,59.4333 14.5625,63.4333 13.5,67.5C 13.5172,69.5648 13.8505,71.5648 14.5,73.5C 15.085,76.6222 16.7517,77.2889 19.5,75.5C 21.0293,75.5288 22.196,76.1955 23,77.5C 24.4366,73.0281 24.9366,68.3614 24.5,63.5C 23.1667,63.5 21.8333,63.5 20.5,63.5C 20.1159,61.3352 20.7826,59.6685 22.5,58.5C 26.23,63.2036 30.8967,66.7036 36.5,69C 35.4293,69.8518 34.4293,70.6851 33.5,71.5C 34.9594,75.7522 36.9594,79.7522 39.5,83.5C 39.5,84.8333 39.5,86.1667 39.5,87.5C 42.5045,87.2501 44.3378,88.5834 45,91.5C 46.2956,90.9319 47.7956,90.9319 49.5,91.5C 51.6597,91.234 53.3264,90.234 54.5,88.5C 56.7236,89.0807 57.557,90.4141 57,92.5C 54.7202,93.0864 52.5535,93.9197 50.5,95C 53.4816,95.498 56.4816,95.6646 59.5,95.5C 59.3359,92.8127 59.5026,90.146 60,87.5C 60.4169,86.244 61.2502,85.5774 62.5,85.5C 63.4794,88.6248 63.8128,91.9581 63.5,95.5C 59.8001,95.4597 59.1335,96.4597 61.5,98.5C 61.5,98.8333 61.5,99.1667 61.5,99.5C 53.5,99.5 45.5,99.5 37.5,99.5C 18.5,93.1667 5.83333,80.5 -0.5,61.5C -0.5,53.5 -0.5,45.5 -0.5,37.5C 5.83333,18.5 18.5,5.83333 37.5,-0.5 Z"/></g>
<g><path style="opacity:0.995" fill="#2a2e3b" d="M 53.5,-0.5 C 56.1667,-0.5 58.8333,-0.5 61.5,-0.5C 80.5,5.83333 93.1667,18.5 99.5,37.5C 99.5,45.5 99.5,53.5 99.5,61.5C 93.4358,80.5636 80.7692,92.8969 61.5,98.5C 59.1335,96.4597 59.8001,95.4597 63.5,95.5C 63.8128,91.9581 63.4794,88.6248 62.5,85.5C 63.023,83.0428 63.8563,80.7094 65,78.5C 65.7247,79.0585 66.5581,79.3918 67.5,79.5C 72.7285,78.2016 77.7285,76.535 82.5,74.5C 85.9153,72.071 86.2486,69.2376 83.5,66C 80.0732,64.8343 77.4065,65.6676 75.5,68.5C 74.173,71.6571 71.8396,72.8238 68.5,72C 67.5562,69.2809 67.2229,66.4475 67.5,63.5C 67.4326,62.0413 67.7659,60.7079 68.5,59.5C 71.5807,56.8075 75.2473,55.8075 79.5,56.5C 79.5,54.1667 79.5,51.8333 79.5,49.5C 85.9463,37.9516 82.9463,30.2849 70.5,26.5C 70.2172,25.7109 69.7172,25.0442 69,24.5C 67.3005,25.4061 65.4672,25.7394 63.5,25.5C 61.4195,22.3579 59.0862,19.3579 56.5,16.5C 57.9778,16.762 59.3112,16.4287 60.5,15.5C 61.2634,14.2807 62.2634,13.2807 63.5,12.5C 61.604,11.5344 59.604,11.2011 57.5,11.5C 57.762,10.0222 57.4287,8.68884 56.5,7.5C 53.8941,5.58224 52.8941,2.91557 53.5,-0.5 Z"/></g>
<g><path style="opacity:1" fill="#a3c9d3" d="M 56.5,16.5 C 59.0862,19.3579 61.4195,22.3579 63.5,25.5C 67.8866,36.3901 69.5532,47.7234 68.5,59.5C 67.7659,60.7079 67.4326,62.0413 67.5,63.5C 66.7337,65.6843 66.0671,68.0177 65.5,70.5C 64.6406,71.7742 63.9739,71.6075 63.5,70C 68.4753,54.1178 67.1419,38.9512 59.5,24.5C 58.5806,21.9108 56.914,19.9108 54.5,18.5C 51.2972,21.1217 48.1305,21.1217 45,18.5C 43.7327,14.269 45.2327,11.6023 49.5,10.5C 52.5185,11.8624 54.8518,13.8624 56.5,16.5 Z"/></g>
<g><path style="opacity:1" fill="#243f50" d="M 47.5,13.5 C 51.1378,12.7366 52.6378,14.0699 52,17.5C 47.4155,19.4126 45.9155,18.0793 47.5,13.5 Z"/></g>
<g><path style="opacity:1" fill="#9ec0ce" d="M 27.5,26.5 C 31.7222,26.0781 35.7222,26.7448 39.5,28.5C 33.7545,29.0907 28.0879,29.9241 22.5,31C 21.3333,32.1667 20.1667,33.3333 19,34.5C 18.463,39.6365 18.7963,44.6365 20,49.5C 19.1482,48.4293 18.3149,47.4293 17.5,46.5C 13.4525,35.9706 16.7858,29.304 27.5,26.5 Z"/></g>
<g><path style="opacity:1" fill="#2b303f" d="M 37.5,36.5 C 33.1667,39.8333 28.8333,43.1667 24.5,46.5C 23.5,46.5 22.5,46.5 21.5,46.5C 17.9111,36.7663 21.2444,31.4329 31.5,30.5C 35.4385,30.6686 37.4385,32.6686 37.5,36.5 Z"/></g>
<g><path style="opacity:1" fill="#263742" d="M 50.5,29.5 C 46.08,31.6426 41.7466,33.9759 37.5,36.5C 37.4385,32.6686 35.4385,30.6686 31.5,30.5C 21.2444,31.4329 17.9111,36.7663 21.5,46.5C 22.5,46.5 23.5,46.5 24.5,46.5C 19.5037,51.829 16.6704,58.1623 16,65.5C 15.2917,66.3805 14.4584,67.0472 13.5,67.5C 14.5625,63.4333 15.7292,59.4333 17,55.5C 17.498,52.5184 17.6646,49.5184 17.5,46.5C 18.3149,47.4293 19.1482,48.4293 20,49.5C 18.7963,44.6365 18.463,39.6365 19,34.5C 20.1667,33.3333 21.3333,32.1667 22.5,31C 28.0879,29.9241 33.7545,29.0907 39.5,28.5C 35.7222,26.7448 31.7222,26.0781 27.5,26.5C 31.3525,25.8337 35.3525,25.167 39.5,24.5C 39.8076,23.6919 40.3076,23.0253 41,22.5C 42.8717,23.8237 43.705,25.3237 43.5,27C 42.552,27.4828 41.552,27.6495 40.5,27.5C 40.238,28.9778 40.5713,30.3112 41.5,31.5C 43.2279,29.7745 45.2279,28.4411 47.5,27.5C 48.2652,28.6119 49.2652,29.2786 50.5,29.5 Z"/></g>
<g><path style="opacity:1" fill="#283340" d="M 70.5,26.5 C 69.0222,26.238 67.6888,26.5713 66.5,27.5C 69.627,29.0994 72.9603,30.266 76.5,31C 81.3058,36.0015 81.8058,41.5015 78,47.5C 76.6924,49.6414 75.1924,51.6414 73.5,53.5C 74.0016,54.521 74.6683,54.6877 75.5,54C 77.0703,52.6032 78.4036,51.1032 79.5,49.5C 79.5,51.8333 79.5,54.1667 79.5,56.5C 75.2473,55.8075 71.5807,56.8075 68.5,59.5C 69.5532,47.7234 67.8866,36.3901 63.5,25.5C 65.4672,25.7394 67.3005,25.4061 69,24.5C 69.7172,25.0442 70.2172,25.7109 70.5,26.5 Z"/></g>
<g><path style="opacity:1" fill="#a5c9d3" d="M 70.5,26.5 C 82.9463,30.2849 85.9463,37.9516 79.5,49.5C 78.4036,51.1032 77.0703,52.6032 75.5,54C 74.6683,54.6877 74.0016,54.521 73.5,53.5C 75.1924,51.6414 76.6924,49.6414 78,47.5C 81.8058,41.5015 81.3058,36.0015 76.5,31C 72.9603,30.266 69.627,29.0994 66.5,27.5C 67.6888,26.5713 69.0222,26.238 70.5,26.5 Z"/></g>
<g><path style="opacity:1" fill="#a5cdd8" d="M 55.5,28.5 C 56.8734,28.3433 58.2068,28.51 59.5,29C 44.5181,33.2489 32.0181,41.4156 22,53.5C 19.3694,57.0888 18.2028,61.0888 18.5,65.5C 23.8293,66.6153 24.8293,69.4486 21.5,74C 19.0709,74.7033 16.7375,74.5366 14.5,73.5C 13.8505,71.5648 13.5172,69.5648 13.5,67.5C 14.4584,67.0472 15.2917,66.3805 16,65.5C 16.6704,58.1623 19.5037,51.829 24.5,46.5C 28.8333,43.1667 33.1667,39.8333 37.5,36.5C 41.7466,33.9759 46.08,31.6426 50.5,29.5C 52.2161,29.3713 53.8828,29.038 55.5,28.5 Z"/></g>
<g><path style="opacity:1" fill="#a6cbd6" d="M 37.5,63.5 C 42.2363,67.2015 47.5696,69.8682 53.5,71.5C 60.477,74.8453 67.6437,75.1786 75,72.5C 75.49,71.2068 75.6567,69.8734 75.5,68.5C 77.4065,65.6676 80.0732,64.8343 83.5,66C 86.2486,69.2376 85.9153,72.071 82.5,74.5C 60.0771,79.0452 40.9104,73.0452 25,56.5C 24.3123,55.6683 24.479,55.0016 25.5,54.5C 28.9717,58.3185 32.9717,61.3185 37.5,63.5 Z"/></g>
<g><path style="opacity:1" fill="#253642" d="M 78.5,67.5 C 79.8333,67.5 81.1667,67.5 82.5,67.5C 82.5,69.1667 82.5,70.8333 82.5,72.5C 78.065,73.0776 76.7317,71.4109 78.5,67.5 Z"/></g>
<g><path style="opacity:1" fill="#273e4e" d="M 16.5,67.5 C 20.1378,66.7366 21.6378,68.0699 21,71.5C 16.4155,73.4126 14.9155,72.0793 16.5,67.5 Z"/></g>
<g><path style="opacity:1" fill="#293541" d="M 59.5,24.5 C 67.1419,38.9512 68.4753,54.1178 63.5,70C 63.9739,71.6075 64.6406,71.7742 65.5,70.5C 66.0671,68.0177 66.7337,65.6843 67.5,63.5C 67.2229,66.4475 67.5562,69.2809 68.5,72C 71.8396,72.8238 74.173,71.6571 75.5,68.5C 75.6567,69.8734 75.49,71.2068 75,72.5C 67.6437,75.1786 60.477,74.8453 53.5,71.5C 56.5448,71.5079 59.5448,71.8413 62.5,72.5C 62.7576,61.5913 62.7576,50.5913 62.5,39.5C 57.3334,39.2272 52.3334,39.2272 47.5,39.5C 47.5,41.8333 47.5,44.1667 47.5,46.5C 53.8895,46.637 55.5562,49.3036 52.5,54.5C 53.5749,50.062 51.9083,48.062 47.5,48.5C 44.3132,47.1944 40.9798,47.1944 37.5,48.5C 38.6888,49.4287 40.0222,49.762 41.5,49.5C 41.3924,52.3819 40.2257,54.7153 38,56.5C 37.2825,55.5494 36.4491,55.3828 35.5,56C 35.9582,58.3977 37.2915,60.0644 39.5,61C 38.6195,61.7083 37.9528,62.5416 37.5,63.5C 32.9717,61.3185 28.9717,58.3185 25.5,54.5C 24.479,55.0016 24.3123,55.6683 25,56.5C 40.9104,73.0452 60.0771,79.0452 82.5,74.5C 77.7285,76.535 72.7285,78.2016 67.5,79.5C 66.5581,79.3918 65.7247,79.0585 65,78.5C 63.8563,80.7094 63.023,83.0428 62.5,85.5C 61.2502,85.5774 60.4169,86.244 60,87.5C 59.5026,90.146 59.3359,92.8127 59.5,95.5C 56.4816,95.6646 53.4816,95.498 50.5,95C 52.5535,93.9197 54.7202,93.0864 57,92.5C 57.557,90.4141 56.7236,89.0807 54.5,88.5C 53.3264,90.234 51.6597,91.234 49.5,91.5C 47.7956,90.9319 46.2956,90.9319 45,91.5C 44.3378,88.5834 42.5045,87.2501 39.5,87.5C 39.5,86.1667 39.5,84.8333 39.5,83.5C 48.2818,91.0042 55.6151,89.6709 61.5,79.5C 60.9984,78.479 60.3317,78.3123 59.5,79C 53.6746,88.3322 47.1746,88.8322 40,80.5C 38.1395,78.1123 36.8061,75.4456 36,72.5C 35.3292,71.7476 34.4959,71.4142 33.5,71.5C 34.4293,70.6851 35.4293,69.8518 36.5,69C 30.8967,66.7036 26.23,63.2036 22.5,58.5C 20.7826,59.6685 20.1159,61.3352 20.5,63.5C 21.8333,63.5 23.1667,63.5 24.5,63.5C 24.9366,68.3614 24.4366,73.0281 23,77.5C 22.196,76.1955 21.0293,75.5288 19.5,75.5C 16.7517,77.2889 15.085,76.6222 14.5,73.5C 16.7375,74.5366 19.0709,74.7033 21.5,74C 24.8293,69.4486 23.8293,66.6153 18.5,65.5C 18.2028,61.0888 19.3694,57.0888 22,53.5C 32.0181,41.4156 44.5181,33.2489 59.5,29C 58.2068,28.51 56.8734,28.3433 55.5,28.5C 56.8333,27.1667 58.1667,25.8333 59.5,24.5 Z"/></g>
<g><path style="opacity:1" fill="#2c2f3c" d="M 53.5,71.5 C 47.5696,69.8682 42.2363,67.2015 37.5,63.5C 37.9528,62.5416 38.6195,61.7083 39.5,61C 37.2915,60.0644 35.9582,58.3977 35.5,56C 36.4491,55.3828 37.2825,55.5494 38,56.5C 40.2257,54.7153 41.3924,52.3819 41.5,49.5C 40.0222,49.762 38.6888,49.4287 37.5,48.5C 40.9798,47.1944 44.3132,47.1944 47.5,48.5C 44.6375,51.3974 45.1375,53.7308 49,55.5C 50.1385,55.0109 51.3052,54.6775 52.5,54.5C 55.5562,49.3036 53.8895,46.637 47.5,46.5C 47.5,44.1667 47.5,41.8333 47.5,39.5C 52.3334,39.2272 57.3334,39.2272 62.5,39.5C 62.7576,50.5913 62.7576,61.5913 62.5,72.5C 59.5448,71.8413 56.5448,71.5079 53.5,71.5 Z"/></g>
<g><path style="opacity:1" fill="#a1d2e2" d="M 47.5,48.5 C 51.9083,48.062 53.5749,50.062 52.5,54.5C 51.3052,54.6775 50.1385,55.0109 49,55.5C 45.1375,53.7308 44.6375,51.3974 47.5,48.5 Z"/></g>
<g><path style="opacity:1" fill="#a5c8d5" d="M 33.5,71.5 C 34.4959,71.4142 35.3292,71.7476 36,72.5C 36.8061,75.4456 38.1395,78.1123 40,80.5C 47.1746,88.8322 53.6746,88.3322 59.5,79C 60.3317,78.3123 60.9984,78.479 61.5,79.5C 55.6151,89.6709 48.2818,91.0042 39.5,83.5C 36.9594,79.7522 34.9594,75.7522 33.5,71.5 Z"/></g>
</svg>
