<?xml version="1.0" encoding="UTF-8"?>
<!DOCTYPE svg PUBLIC "-//W3C//DTD SVG 1.1//EN" "http://www.w3.org/Graphics/SVG/1.1/DTD/svg11.dtd">
<svg xmlns="http://www.w3.org/2000/svg" version="1.1" width="100px" height="100px" style="shape-rendering:geometricPrecision; text-rendering:geometricPrecision; image-rendering:optimizeQuality; fill-rule:evenodd; clip-rule:evenodd" xmlns:xlink="http://www.w3.org/1999/xlink">
<g><path style="opacity:1" fill="#857dc2" d="M 59.5,2.5 C 61.2747,4.58421 63.6081,5.75088 66.5,6C 67.3366,7.01127 67.67,8.17793 67.5,9.5C 65.8008,9.33982 64.1341,9.50649 62.5,10C 64.0261,11.8871 66.0261,12.8871 68.5,13C 71.9549,17.0858 72.2882,21.2525 69.5,25.5C 71.8238,19.989 70.1572,16.1557 64.5,14C 57.9902,13.4465 51.6569,14.2799 45.5,16.5C 43.9731,16.427 42.9731,17.0937 42.5,18.5C 40.7706,19.2362 39.7706,20.5695 39.5,22.5C 36.8333,22.5 34.1667,22.5 31.5,22.5C 31.5,21.5 31.5,20.5 31.5,19.5C 32.8221,19.67 33.9887,19.3366 35,18.5C 35.4966,16.1902 35.6633,13.8568 35.5,11.5C 36.8333,11.5 38.1667,11.5 39.5,11.5C 39.5,10.5 39.5,9.5 39.5,8.5C 38.1266,8.65668 36.7932,8.49001 35.5,8C 34.1667,7 34.1667,6 35.5,5C 34.2068,4.50999 32.8734,4.34332 31.5,4.5C 40.5998,0.256104 49.9331,-0.410563 59.5,2.5 Z"/></g>
<g><path style="opacity:0.031" fill="#16063b" d="M 57.5,-0.5 C 59.8333,-0.5 62.1667,-0.5 64.5,-0.5C 69.9647,1.73207 74.9647,4.73207 79.5,8.5C 72.5495,4.35134 65.2162,1.35134 57.5,-0.5 Z"/></g>
<g><path style="opacity:0.055" fill="#190c36" d="M 33.5,-0.5 C 34.1667,-0.5 34.8333,-0.5 35.5,-0.5C 30.3163,3.26038 24.6496,6.26038 18.5,8.5C 23.0353,4.73207 28.0353,1.73207 33.5,-0.5 Z"/></g>
<g><path style="opacity:1" fill="#837fc2" d="M 31.5,4.5 C 32.8734,4.34332 34.2068,4.50999 35.5,5C 34.1667,6 34.1667,7 35.5,8C 36.7932,8.49001 38.1266,8.65668 39.5,8.5C 39.5,9.5 39.5,10.5 39.5,11.5C 38.1667,11.5 36.8333,11.5 35.5,11.5C 35.6633,13.8568 35.4966,16.1902 35,18.5C 33.9887,19.3366 32.8221,19.67 31.5,19.5C 31.5,20.5 31.5,21.5 31.5,22.5C 34.1667,22.5 36.8333,22.5 39.5,22.5C 39.5,22.8333 39.5,23.1667 39.5,23.5C 35.9464,24.2487 32.2797,25.082 28.5,26C 26.7769,26.7751 25.7769,28.1084 25.5,30C 28.9058,36.042 33.9058,40.2087 40.5,42.5C 41.1667,43.1667 41.8333,43.8333 42.5,44.5C 42.1667,45.1667 41.8333,45.8333 41.5,46.5C 35.0809,47.3785 29.0809,49.3785 23.5,52.5C 23.9371,50.9256 24.9371,49.7589 26.5,49C 26.1667,48.6667 25.8333,48.3333 25.5,48C 28.1691,46.1375 30.8358,44.1375 33.5,42C 32.0267,41.2904 31.3601,40.1238 31.5,38.5C 30.5,38.5 29.5,38.5 28.5,38.5C 26.1097,36.2661 24.2763,33.5994 23,30.5C 21.7143,34.1334 19.2143,35.6334 15.5,35C 16.9733,34.2904 17.6399,33.1238 17.5,31.5C 15.8008,31.3398 14.1341,31.5065 12.5,32C 10.0558,32.8036 8.2225,34.3036 7,36.5C 5.96141,35.7562 5.46141,34.7562 5.5,33.5C 5.5,32.1667 5.5,30.8333 5.5,29.5C 10.2325,17.1013 18.8992,8.76794 31.5,4.5 Z"/></g>
<g><path style="opacity:0.039" fill="#13052c" d="M 80.5,8.5 C 83.1667,10.5 85.5,12.8333 87.5,15.5C 84.1667,14.1667 81.8333,11.8333 80.5,8.5 Z"/></g>
<g><path style="opacity:0.055" fill="#170537" d="M 18.5,8.5 C 14.4718,12.8593 10.4718,17.1927 6.5,21.5C 9.11293,15.887 13.1129,11.5537 18.5,8.5 Z"/></g>
<g><path style="opacity:1" fill="#faf8fc" d="M 69.5,25.5 C 69.5,26.1667 69.1667,26.5 68.5,26.5C 59.1567,28.1514 49.8234,29.9847 40.5,32C 39.496,35.8646 41.1627,38.0312 45.5,38.5C 46.8333,39.5 48.1667,40.5 49.5,41.5C 48.5041,41.4142 47.6708,41.7476 47,42.5C 46.6121,41.572 45.9454,40.9054 45,40.5C 43.2725,40.899 41.7725,41.5657 40.5,42.5C 33.9058,40.2087 28.9058,36.042 25.5,30C 25.7769,28.1084 26.7769,26.7751 28.5,26C 32.2797,25.082 35.9464,24.2487 39.5,23.5C 45.9727,23.9194 52.306,23.2528 58.5,21.5C 59.3857,20.675 59.719,19.675 59.5,18.5C 58.1667,18.5 56.8333,18.5 55.5,18.5C 52.1667,17.8333 48.8333,17.1667 45.5,16.5C 51.6569,14.2799 57.9902,13.4465 64.5,14C 70.1572,16.1557 71.8238,19.989 69.5,25.5 Z"/></g>
<g><path style="opacity:1" fill="#857cb7" d="M 42.5,18.5 C 46.8333,18.5 51.1667,18.5 55.5,18.5C 56.8333,18.5 58.1667,18.5 59.5,18.5C 59.719,19.675 59.3857,20.675 58.5,21.5C 52.306,23.2528 45.9727,23.9194 39.5,23.5C 39.5,23.1667 39.5,22.8333 39.5,22.5C 39.7706,20.5695 40.7706,19.2362 42.5,18.5 Z"/></g>
<g><path style="opacity:0.678" fill="#29184d" d="M 87.5,15.5 C 90.2411,17.9754 92.2411,20.9754 93.5,24.5C 92.609,23.8902 91.609,23.5569 90.5,23.5C 89.5,23.1667 88.8333,22.5 88.5,21.5C 88.1667,20.8333 87.8333,20.1667 87.5,19.5C 87.5,18.1667 87.5,16.8333 87.5,15.5 Z"/></g>
<g><path style="opacity:1" fill="#7f60b7" d="M 85.5,18.5 C 86.1667,18.8333 86.8333,19.1667 87.5,19.5C 87.8333,20.1667 88.1667,20.8333 88.5,21.5C 87.5028,21.4701 86.8361,21.9701 86.5,23C 87.6542,25.4369 88.1542,27.9369 88,30.5C 87.6667,29.8333 87.3333,29.1667 87,28.5C 85.9887,29.3366 84.8221,29.67 83.5,29.5C 83.5,30.8333 83.5,32.1667 83.5,33.5C 80.8333,34.1667 78.1667,34.8333 75.5,35.5C 75.5,36.8333 75.5,38.1667 75.5,39.5C 74.1667,39.5 72.8333,39.5 71.5,39.5C 71.5,40.8333 71.5,42.1667 71.5,43.5C 70.1667,43.5 68.8333,43.5 67.5,43.5C 67.7593,45.9893 66.7593,47.656 64.5,48.5C 64.5,47.8333 64.1667,47.5 63.5,47.5C 63.5,46.5 63.5,45.5 63.5,44.5C 60.6567,44.0828 57.99,43.0828 55.5,41.5C 55.7093,40.914 56.0426,40.414 56.5,40C 58.8098,39.5034 61.1432,39.3367 63.5,39.5C 63.6741,37.139 64.0074,34.8056 64.5,32.5C 67.5,32.1667 69.1667,30.5 69.5,27.5C 70.552,27.3505 71.552,27.5172 72.5,28C 71.1118,28.8893 71.2785,29.3893 73,29.5C 74.6143,28.1834 75.7809,26.5167 76.5,24.5C 80.6218,24.5139 83.1218,22.5139 84,18.5C 84.69,19.7383 85.19,19.7383 85.5,18.5 Z"/></g>
<g><path style="opacity:0.031" fill="#160229" d="M 6.5,21.5 C 5.59025,24.9922 3.92358,27.9922 1.5,30.5C 2.40975,27.0078 4.07642,24.0078 6.5,21.5 Z"/></g>
<g><path style="opacity:1" fill="#816aba" d="M 59.5,2.5 C 70.4941,4.31755 79.1607,9.65089 85.5,18.5C 85.19,19.7383 84.69,19.7383 84,18.5C 83.1218,22.5139 80.6218,24.5139 76.5,24.5C 75.7809,26.5167 74.6143,28.1834 73,29.5C 71.2785,29.3893 71.1118,28.8893 72.5,28C 71.552,27.5172 70.552,27.3505 69.5,27.5C 69.1667,30.5 67.5,32.1667 64.5,32.5C 64.0074,34.8056 63.6741,37.139 63.5,39.5C 61.1432,39.3367 58.8098,39.5034 56.5,40C 56.0426,40.414 55.7093,40.914 55.5,41.5C 57.99,43.0828 60.6567,44.0828 63.5,44.5C 63.5,45.5 63.5,46.5 63.5,47.5C 59.5,45.5 55.5,43.5 51.5,41.5C 51.5,40.5 51.5,39.5 51.5,38.5C 49.1331,37.8363 47.1331,36.503 45.5,34.5C 46.5,33.6667 47.5,32.8333 48.5,32C 53.6835,31.8261 58.6835,31.3261 63.5,30.5C 66.3667,30.6308 68.0334,29.2974 68.5,26.5C 69.1667,26.5 69.5,26.1667 69.5,25.5C 72.2882,21.2525 71.9549,17.0858 68.5,13C 66.0261,12.8871 64.0261,11.8871 62.5,10C 64.1341,9.50649 65.8008,9.33982 67.5,9.5C 67.67,8.17793 67.3366,7.01127 66.5,6C 63.6081,5.75088 61.2747,4.58421 59.5,2.5 Z"/></g>
<g><path style="opacity:0.267" fill="#1f0d33" d="M 93.5,24.5 C 95.2927,26.4261 96.2927,28.7594 96.5,31.5C 94.1663,29.8243 93.1663,27.491 93.5,24.5 Z"/></g>
<g><path style="opacity:1" fill="#887baf" d="M 68.5,26.5 C 68.0334,29.2974 66.3667,30.6308 63.5,30.5C 56.7978,30.3357 50.1311,30.669 43.5,31.5C 43.1658,34.188 43.8325,36.5214 45.5,38.5C 41.1627,38.0312 39.496,35.8646 40.5,32C 49.8234,29.9847 59.1567,28.1514 68.5,26.5 Z"/></g>
<g><path style="opacity:1" fill="#8171b4" d="M 63.5,30.5 C 58.6835,31.3261 53.6835,31.8261 48.5,32C 47.5,32.8333 46.5,33.6667 45.5,34.5C 47.1331,36.503 49.1331,37.8363 51.5,38.5C 51.5,39.5 51.5,40.5 51.5,41.5C 50.8333,41.5 50.1667,41.5 49.5,41.5C 48.1667,40.5 46.8333,39.5 45.5,38.5C 43.8325,36.5214 43.1658,34.188 43.5,31.5C 50.1311,30.669 56.7978,30.3357 63.5,30.5 Z"/></g>
<g><path style="opacity:0.706" fill="#3d1a62" d="M 90.5,23.5 C 91.609,23.5569 92.609,23.8902 93.5,24.5C 93.1663,27.491 94.1663,29.8243 96.5,31.5C 96.446,34.9924 97.446,37.9924 99.5,40.5C 99.5,46.5 99.5,52.5 99.5,58.5C 98.609,59.1098 97.609,59.4431 96.5,59.5C 96.5,57.5 96.5,55.5 96.5,53.5C 97.8825,46.9937 97.2158,40.6604 94.5,34.5C 93.4519,30.7356 92.1185,27.069 90.5,23.5 Z"/></g>
<g><path style="opacity:1" fill="#827ac3" d="M 28.5,38.5 C 27.7659,39.7079 27.4326,41.0413 27.5,42.5C 26.325,42.281 25.325,42.6143 24.5,43.5C 23.8772,45.7105 22.8772,47.7105 21.5,49.5C 16.9764,50.9767 12.3098,51.9767 7.5,52.5C 6.98185,55.3157 6.14852,57.9824 5,60.5C 3.24471,57.4001 2.41138,54.0668 2.5,50.5C 3,45.5 3.5,40.5 4,35.5C 4.27842,34.5842 4.77842,33.9175 5.5,33.5C 5.46141,34.7562 5.96141,35.7562 7,36.5C 8.2225,34.3036 10.0558,32.8036 12.5,32C 14.1341,31.5065 15.8008,31.3398 17.5,31.5C 17.6399,33.1238 16.9733,34.2904 15.5,35C 19.2143,35.6334 21.7143,34.1334 23,30.5C 24.2763,33.5994 26.1097,36.2661 28.5,38.5 Z"/></g>
<g><path style="opacity:1" fill="#7e54b2" d="M 94.5,34.5 C 97.2158,40.6604 97.8825,46.9937 96.5,53.5C 96.6399,51.8762 95.9733,50.7096 94.5,50C 89.1707,48.1781 86.504,50.0115 86.5,55.5C 84.1667,55.5 81.8333,55.5 79.5,55.5C 79.5,56.8333 79.5,58.1667 79.5,59.5C 78.5,59.5 77.5,59.5 76.5,59.5C 76.8174,63.1716 75.1507,64.8383 71.5,64.5C 71.5,65.5 71.5,66.5 71.5,67.5C 66.5,67.5 61.5,67.5 56.5,67.5C 56.3893,66.8826 56.056,66.3826 55.5,66C 56.7932,65.51 58.1266,65.3433 59.5,65.5C 59.5079,62.4552 59.8413,59.4552 60.5,56.5C 62.8771,56.2155 65.0438,56.2155 67,56.5C 68.2692,55.0953 68.7692,53.4286 68.5,51.5C 69.5,51.5 70.5,51.5 71.5,51.5C 71.33,50.1779 71.6634,49.0113 72.5,48C 76.1704,47.4518 79.8371,46.9518 83.5,46.5C 83.5,45.5 83.5,44.5 83.5,43.5C 84.8333,43.5 86.1667,43.5 87.5,43.5C 87.5,42.1667 87.5,40.8333 87.5,39.5C 88.8333,39.5 90.1667,39.5 91.5,39.5C 91.3398,37.8008 91.5065,36.1341 92,34.5C 92.7697,35.5981 93.603,35.5981 94.5,34.5 Z"/></g>
<g><path style="opacity:0.055" fill="#180730" d="M 96.5,31.5 C 97.7972,33.3713 98.7972,35.3713 99.5,37.5C 99.5,38.5 99.5,39.5 99.5,40.5C 97.446,37.9924 96.446,34.9924 96.5,31.5 Z"/></g>
<g><path style="opacity:1" fill="#7d59b4" d="M 88.5,21.5 C 88.8333,22.5 89.5,23.1667 90.5,23.5C 92.1185,27.069 93.4519,30.7356 94.5,34.5C 93.603,35.5981 92.7697,35.5981 92,34.5C 91.5065,36.1341 91.3398,37.8008 91.5,39.5C 90.1667,39.5 88.8333,39.5 87.5,39.5C 87.5,40.8333 87.5,42.1667 87.5,43.5C 86.1667,43.5 84.8333,43.5 83.5,43.5C 83.5,44.5 83.5,45.5 83.5,46.5C 79.8371,46.9518 76.1704,47.4518 72.5,48C 71.6634,49.0113 71.33,50.1779 71.5,51.5C 70.5,51.5 69.5,51.5 68.5,51.5C 68.7692,53.4286 68.2692,55.0953 67,56.5C 65.0438,56.2155 62.8771,56.2155 60.5,56.5C 59.8413,59.4552 59.5079,62.4552 59.5,65.5C 58.1266,65.3433 56.7932,65.51 55.5,66C 56.056,66.3826 56.3893,66.8826 56.5,67.5C 51.9882,67.8514 47.6549,67.1848 43.5,65.5C 45.1282,63.6805 47.1282,62.3472 49.5,61.5C 50.7472,59.677 51.4139,57.677 51.5,55.5C 54.5682,55.4533 57.5682,54.9533 60.5,54C 59.8333,53.6667 59.1667,53.3333 58.5,53C 60.3978,51.583 62.0645,50.083 63.5,48.5C 63.8333,48.5 64.1667,48.5 64.5,48.5C 66.7593,47.656 67.7593,45.9893 67.5,43.5C 68.8333,43.5 70.1667,43.5 71.5,43.5C 71.5,42.1667 71.5,40.8333 71.5,39.5C 72.8333,39.5 74.1667,39.5 75.5,39.5C 75.5,38.1667 75.5,36.8333 75.5,35.5C 78.1667,34.8333 80.8333,34.1667 83.5,33.5C 83.5,32.1667 83.5,30.8333 83.5,29.5C 84.8221,29.67 85.9887,29.3366 87,28.5C 87.3333,29.1667 87.6667,29.8333 88,30.5C 88.1542,27.9369 87.6542,25.4369 86.5,23C 86.8361,21.9701 87.5028,21.4701 88.5,21.5 Z"/></g>
<g><path style="opacity:1" fill="#fbf8fc" d="M 49.5,41.5 C 50.1667,41.5 50.8333,41.5 51.5,41.5C 55.5,43.5 59.5,45.5 63.5,47.5C 64.1667,47.5 64.5,47.8333 64.5,48.5C 64.1667,48.5 63.8333,48.5 63.5,48.5C 60.9902,48.9267 58.6568,49.5933 56.5,50.5C 48.4462,51.4601 41.2795,54.4601 35,59.5C 33.4947,61.2983 33.3281,63.1316 34.5,65C 37.4381,67.2574 40.7715,68.424 44.5,68.5C 53.3178,69.4933 62.3178,69.8266 71.5,69.5C 72.7804,70.9313 74.4471,71.5979 76.5,71.5C 76.6085,73.5138 75.9418,75.1805 74.5,76.5C 70.3411,77.6641 66.3411,78.9974 62.5,80.5C 60.4352,80.5172 58.4352,80.8505 56.5,81.5C 54.2188,81.9227 52.5521,81.256 51.5,79.5C 54.7248,78.3503 58.0581,77.1836 61.5,76C 52.4669,75.7489 43.4669,75.2489 34.5,74.5C 29.804,72.6555 25.1373,70.4889 20.5,68C 15.8017,61.7192 16.8017,56.5525 23.5,52.5C 29.0809,49.3785 35.0809,47.3785 41.5,46.5C 48.6753,46.6286 49.0086,45.9619 42.5,44.5C 41.8333,43.8333 41.1667,43.1667 40.5,42.5C 41.7725,41.5657 43.2725,40.899 45,40.5C 45.9454,40.9054 46.6121,41.572 47,42.5C 47.6708,41.7476 48.5041,41.4142 49.5,41.5 Z"/></g>
<g><path style="opacity:1" fill="#87829b" d="M 42.5,44.5 C 49.0086,45.9619 48.6753,46.6286 41.5,46.5C 41.8333,45.8333 42.1667,45.1667 42.5,44.5 Z"/></g>
<g><path style="opacity:1" fill="#8373bd" d="M 5.5,29.5 C 5.5,30.8333 5.5,32.1667 5.5,33.5C 4.77842,33.9175 4.27842,34.5842 4,35.5C 3.5,40.5 3,45.5 2.5,50.5C 2.41138,54.0668 3.24471,57.4001 5,60.5C 6.14852,57.9824 6.98185,55.3157 7.5,52.5C 12.3098,51.9767 16.9764,50.9767 21.5,49.5C 22.8772,47.7105 23.8772,45.7105 24.5,43.5C 25.325,42.6143 26.325,42.281 27.5,42.5C 27.4326,41.0413 27.7659,39.7079 28.5,38.5C 29.5,38.5 30.5,38.5 31.5,38.5C 31.3601,40.1238 32.0267,41.2904 33.5,42C 30.8358,44.1375 28.1691,46.1375 25.5,48C 25.8333,48.3333 26.1667,48.6667 26.5,49C 24.9371,49.7589 23.9371,50.9256 23.5,52.5C 16.8017,56.5525 15.8017,61.7192 20.5,68C 25.1373,70.4889 29.804,72.6555 34.5,74.5C 31.7531,74.8134 29.0865,74.48 26.5,73.5C 22.7295,71.4169 19.0629,69.4169 15.5,67.5C 12.2955,68.3706 9.29554,69.7039 6.5,71.5C -1.0027,57.6464 -1.33603,43.6464 5.5,29.5 Z"/></g>
<g><path style="opacity:1" fill="#854db6" d="M 96.5,53.5 C 96.5,55.5 96.5,57.5 96.5,59.5C 96.5,59.8333 96.5,60.1667 96.5,60.5C 95.8333,61.5 95.1667,62.5 94.5,63.5C 94.6621,61.4727 94.4955,59.4727 94,57.5C 91.6255,59.539 89.6255,61.8723 88,64.5C 87.6667,63.5 87.3333,62.5 87,61.5C 86.5045,63.4727 86.3379,65.4727 86.5,67.5C 84.1667,67.5 81.8333,67.5 79.5,67.5C 79.5674,68.9587 79.2341,70.2921 78.5,71.5C 76.412,70.0605 74.0786,69.3939 71.5,69.5C 71.5,68.8333 71.5,68.1667 71.5,67.5C 71.5,66.5 71.5,65.5 71.5,64.5C 75.1507,64.8383 76.8174,63.1716 76.5,59.5C 77.5,59.5 78.5,59.5 79.5,59.5C 79.5,58.1667 79.5,56.8333 79.5,55.5C 81.8333,55.5 84.1667,55.5 86.5,55.5C 86.504,50.0115 89.1707,48.1781 94.5,50C 95.9733,50.7096 96.6399,51.8762 96.5,53.5 Z"/></g>
<g><path style="opacity:1" fill="#8061b2" d="M 63.5,48.5 C 62.0645,50.083 60.3978,51.583 58.5,53C 59.1667,53.3333 59.8333,53.6667 60.5,54C 57.5682,54.9533 54.5682,55.4533 51.5,55.5C 51.4139,57.677 50.7472,59.677 49.5,61.5C 47.1282,62.3472 45.1282,63.6805 43.5,65.5C 47.6549,67.1848 51.9882,67.8514 56.5,67.5C 61.5,67.5 66.5,67.5 71.5,67.5C 71.5,68.1667 71.5,68.8333 71.5,69.5C 62.3178,69.8266 53.3178,69.4933 44.5,68.5C 42.5939,67.5176 40.5939,66.5176 38.5,65.5C 37.6258,63.2534 37.2924,60.9201 37.5,58.5C 43.8084,55.5048 50.1418,52.8382 56.5,50.5C 58.6568,49.5933 60.9902,48.9267 63.5,48.5 Z"/></g>
<g><path style="opacity:1" fill="#8671af" d="M 56.5,50.5 C 50.1418,52.8382 43.8084,55.5048 37.5,58.5C 37.2924,60.9201 37.6258,63.2534 38.5,65.5C 40.5939,66.5176 42.5939,67.5176 44.5,68.5C 40.7715,68.424 37.4381,67.2574 34.5,65C 33.3281,63.1316 33.4947,61.2983 35,59.5C 41.2795,54.4601 48.4462,51.4601 56.5,50.5 Z"/></g>
<g><path style="opacity:0.047" fill="#150c35" d="M -0.5,62.5 C 1.21321,63.6354 1.87988,65.302 1.5,67.5C 0.833333,66.8333 0.166667,66.1667 -0.5,65.5C -0.5,64.5 -0.5,63.5 -0.5,62.5 Z"/></g>
<g><path style="opacity:0.969" fill="#4b206f" d="M 96.5,60.5 C 96.8294,63.2282 96.1628,65.5615 94.5,67.5C 94.5,66.1667 94.5,64.8333 94.5,63.5C 95.1667,62.5 95.8333,61.5 96.5,60.5 Z"/></g>
<g><path style="opacity:1" fill="#8b47b8" d="M 94.5,63.5 C 94.5,64.8333 94.5,66.1667 94.5,67.5C 92.8333,70.1667 91.1667,72.8333 89.5,75.5C 89.6633,73.1432 89.4966,70.8098 89,68.5C 86.4537,71.1856 83.287,72.1856 79.5,71.5C 79.0632,74.8066 79.7298,77.8066 81.5,80.5C 80.9984,81.521 80.3317,81.6877 79.5,81C 78,80.1667 76.8333,79 76,77.5C 75.195,80.2186 73.695,81.2186 71.5,80.5C 72.5,79.1667 73.5,77.8333 74.5,76.5C 76.9971,75.8707 78.3304,74.204 78.5,71.5C 79.2341,70.2921 79.5674,68.9587 79.5,67.5C 81.8333,67.5 84.1667,67.5 86.5,67.5C 86.3379,65.4727 86.5045,63.4727 87,61.5C 87.3333,62.5 87.6667,63.5 88,64.5C 89.6255,61.8723 91.6255,59.539 94,57.5C 94.4955,59.4727 94.6621,61.4727 94.5,63.5 Z"/></g>
<g><path style="opacity:0.984" fill="#482c75" d="M 35.5,-0.5 C 42.8333,-0.5 50.1667,-0.5 57.5,-0.5C 65.2162,1.35134 72.5495,4.35134 79.5,8.5C 79.8333,8.5 80.1667,8.5 80.5,8.5C 81.8333,11.8333 84.1667,14.1667 87.5,15.5C 87.5,16.8333 87.5,18.1667 87.5,19.5C 86.8333,19.1667 86.1667,18.8333 85.5,18.5C 79.1607,9.65089 70.4941,4.31755 59.5,2.5C 49.9331,-0.410563 40.5998,0.256104 31.5,4.5C 18.8992,8.76794 10.2325,17.1013 5.5,29.5C -1.33603,43.6464 -1.0027,57.6464 6.5,71.5C 7.24204,73.9798 8.24204,76.3131 9.5,78.5C 8.39105,78.4431 7.39105,78.1098 6.5,77.5C 5.83333,77.5 5.5,77.1667 5.5,76.5C 4.95793,73.0878 3.6246,70.0878 1.5,67.5C 1.87988,65.302 1.21321,63.6354 -0.5,62.5C -0.5,52.8333 -0.5,43.1667 -0.5,33.5C 0.40128,32.7095 1.06795,31.7095 1.5,30.5C 3.92358,27.9922 5.59025,24.9922 6.5,21.5C 10.4718,17.1927 14.4718,12.8593 18.5,8.5C 24.6496,6.26038 30.3163,3.26038 35.5,-0.5 Z"/></g>
<g><path style="opacity:1" fill="#b7b1dd" d="M 45.5,16.5 C 48.8333,17.1667 52.1667,17.8333 55.5,18.5C 51.1667,18.5 46.8333,18.5 42.5,18.5C 42.9731,17.0937 43.9731,16.427 45.5,16.5 Z"/></g>
<g><path style="opacity:1" fill="#7f60b1" d="M 34.5,74.5 C 43.4669,75.2489 52.4669,75.7489 61.5,76C 58.0581,77.1836 54.7248,78.3503 51.5,79.5C 46.7613,80.1848 42.0946,81.1848 37.5,82.5C 36.391,82.5569 35.391,82.8902 34.5,83.5C 34.5106,81.9826 35.1772,80.8159 36.5,80C 30.719,74.9586 26.3857,76.1252 23.5,83.5C 22.069,83.9766 20.7357,84.6433 19.5,85.5C 21.2882,86.2826 22.2882,87.6159 22.5,89.5C 21.391,89.4431 20.391,89.1098 19.5,88.5C 15.8333,85.5 12.5,82.1667 9.5,78.5C 8.24204,76.3131 7.24204,73.9798 6.5,71.5C 9.29554,69.7039 12.2955,68.3706 15.5,67.5C 19.0629,69.4169 22.7295,71.4169 26.5,73.5C 29.0865,74.48 31.7531,74.8134 34.5,74.5 Z"/></g>
<g><path style="opacity:1" fill="#8d5eae" d="M 71.5,69.5 C 74.0786,69.3939 76.412,70.0605 78.5,71.5C 78.3304,74.204 76.9971,75.8707 74.5,76.5C 75.9418,75.1805 76.6085,73.5138 76.5,71.5C 74.4471,71.5979 72.7804,70.9313 71.5,69.5 Z"/></g>
<g><path style="opacity:0.031" fill="#1a0b36" d="M 99.5,58.5 C 99.5,59.5 99.5,60.5 99.5,61.5C 97.7885,67.2947 95.1219,72.628 91.5,77.5C 93.0507,74.381 94.0507,71.0476 94.5,67.5C 96.1628,65.5615 96.8294,63.2282 96.5,60.5C 96.5,60.1667 96.5,59.8333 96.5,59.5C 97.609,59.4431 98.609,59.1098 99.5,58.5 Z"/></g>
<g><path style="opacity:0.063" fill="#13012a" d="M 1.5,67.5 C 3.6246,70.0878 4.95793,73.0878 5.5,76.5C 3.3754,73.9122 2.04207,70.9122 1.5,67.5 Z"/></g>
<g><path style="opacity:1" fill="#9141bc" d="M 89.5,75.5 C 85.7164,82.8819 80.0498,88.2152 72.5,91.5C 70.2133,91.7239 68.0466,92.3906 66,93.5C 62.2028,93.0794 61.7028,91.7461 64.5,89.5C 67.5394,88.4314 70.5394,87.2647 73.5,86C 72.1387,84.4157 71.472,82.5824 71.5,80.5C 73.695,81.2186 75.195,80.2186 76,77.5C 76.8333,79 78,80.1667 79.5,81C 80.3317,81.6877 80.9984,81.521 81.5,80.5C 79.7298,77.8066 79.0632,74.8066 79.5,71.5C 83.287,72.1856 86.4537,71.1856 89,68.5C 89.4966,70.8098 89.6633,73.1432 89.5,75.5 Z"/></g>
<g><path style="opacity:1" fill="#7d58b2" d="M 34.5,83.5 C 35.5202,84.7847 37.1869,84.7847 39.5,83.5C 45.4173,83.784 51.084,83.1173 56.5,81.5C 58.4352,80.8505 60.4352,80.5172 62.5,80.5C 60.6146,82.3115 58.2813,83.4782 55.5,84C 49.884,84.2702 44.5506,85.4368 39.5,87.5C 39.9086,90.8555 39.2419,93.8555 37.5,96.5C 31.8246,95.4942 26.8246,93.1609 22.5,89.5C 22.2882,87.6159 21.2882,86.2826 19.5,85.5C 20.7357,84.6433 22.069,83.9766 23.5,83.5C 26.3857,76.1252 30.719,74.9586 36.5,80C 35.1772,80.8159 34.5106,81.9826 34.5,83.5 Z"/></g>
<g><path style="opacity:0.945" fill="#441962" d="M 94.5,67.5 C 94.0507,71.0476 93.0507,74.381 91.5,77.5C 91.6716,78.4916 91.3382,79.1583 90.5,79.5C 87.0536,80.6118 85.0536,82.9452 84.5,86.5C 82.0194,86.774 80.3527,88.1073 79.5,90.5C 78.5637,91.9744 77.2303,92.9744 75.5,93.5C 73.4357,93.687 71.4357,94.187 69.5,95C 67.0071,96.4186 64.6737,97.9186 62.5,99.5C 54.5,99.5 46.5,99.5 38.5,99.5C 38.1667,98.8333 37.8333,98.1667 37.5,97.5C 41.4933,97.8316 45.4933,98.165 49.5,98.5C 53.1168,98.6019 56.4501,97.9352 59.5,96.5C 64.4295,96.1933 68.7629,94.5267 72.5,91.5C 80.0498,88.2152 85.7164,82.8819 89.5,75.5C 91.1667,72.8333 92.8333,70.1667 94.5,67.5 Z"/></g>
<g><path style="opacity:0.031" fill="#170b37" d="M 6.5,77.5 C 7.39105,78.1098 8.39105,78.4431 9.5,78.5C 10.3822,81.385 11.7155,84.0517 13.5,86.5C 10.027,84.3633 7.69363,81.3633 6.5,77.5 Z"/></g>
<g><path style="opacity:1" fill="#ebd9f3" d="M 51.5,79.5 C 52.5521,81.256 54.2188,81.9227 56.5,81.5C 51.084,83.1173 45.4173,83.784 39.5,83.5C 38.5084,83.6716 37.8417,83.3382 37.5,82.5C 42.0946,81.1848 46.7613,80.1848 51.5,79.5 Z"/></g>
<g><path style="opacity:1" fill="#8e48b9" d="M 71.5,80.5 C 71.472,82.5824 72.1387,84.4157 73.5,86C 70.5394,87.2647 67.5394,88.4314 64.5,89.5C 61.7028,91.7461 62.2028,93.0794 66,93.5C 68.0466,92.3906 70.2133,91.7239 72.5,91.5C 68.7629,94.5267 64.4295,96.1933 59.5,96.5C 56.6035,96.8747 53.9368,96.3747 51.5,95C 52.7234,92.9479 53.7234,90.7812 54.5,88.5C 58.5071,87.5146 61.5071,85.1812 63.5,81.5C 66.0865,80.52 68.7531,80.1866 71.5,80.5 Z"/></g>
<g><path style="opacity:1" fill="#c5a2ea" d="M 37.5,82.5 C 37.8417,83.3382 38.5084,83.6716 39.5,83.5C 37.1869,84.7847 35.5202,84.7847 34.5,83.5C 35.391,82.8902 36.391,82.5569 37.5,82.5 Z"/></g>
<g><path style="opacity:0.047" fill="#1b0c2e" d="M 90.5,79.5 C 89.2195,82.4474 87.2195,84.7807 84.5,86.5C 85.0536,82.9452 87.0536,80.6118 90.5,79.5 Z"/></g>
<g><path style="opacity:0.984" fill="#462671" d="M 9.5,78.5 C 12.5,82.1667 15.8333,85.5 19.5,88.5C 17.3146,88.2964 15.3146,87.6298 13.5,86.5C 11.7155,84.0517 10.3822,81.385 9.5,78.5 Z"/></g>
<g><path style="opacity:1" fill="#864eb5" d="M 74.5,76.5 C 73.5,77.8333 72.5,79.1667 71.5,80.5C 68.7531,80.1866 66.0865,80.52 63.5,81.5C 61.5071,85.1812 58.5071,87.5146 54.5,88.5C 53.7234,90.7812 52.7234,92.9479 51.5,95C 53.9368,96.3747 56.6035,96.8747 59.5,96.5C 56.4501,97.9352 53.1168,98.6019 49.5,98.5C 45.4933,98.165 41.4933,97.8316 37.5,97.5C 37.5,97.1667 37.5,96.8333 37.5,96.5C 39.2419,93.8555 39.9086,90.8555 39.5,87.5C 44.5506,85.4368 49.884,84.2702 55.5,84C 58.2813,83.4782 60.6146,82.3115 62.5,80.5C 66.3411,78.9974 70.3411,77.6641 74.5,76.5 Z"/></g>
<g><path style="opacity:0.008" fill="#120526" d="M 84.5,86.5 C 83.4154,88.5869 81.7488,89.9202 79.5,90.5C 80.3527,88.1073 82.0194,86.774 84.5,86.5 Z"/></g>
<g><path style="opacity:0.918" fill="#361b55" d="M 13.5,86.5 C 15.3146,87.6298 17.3146,88.2964 19.5,88.5C 20.391,89.1098 21.391,89.4431 22.5,89.5C 26.8246,93.1609 31.8246,95.4942 37.5,96.5C 37.5,96.8333 37.5,97.1667 37.5,97.5C 37.8333,98.1667 38.1667,98.8333 38.5,99.5C 36.8333,99.5 35.1667,99.5 33.5,99.5C 33.5,99.1667 33.5,98.8333 33.5,98.5C 31.1645,95.8352 28.1645,94.5018 24.5,94.5C 20.2679,92.5998 16.6012,89.9331 13.5,86.5 Z"/></g>
<g><path style="opacity:0.506" fill="#1b0f34" d="M 24.5,94.5 C 28.1645,94.5018 31.1645,95.8352 33.5,98.5C 30.0878,97.9579 27.0878,96.6246 24.5,94.5 Z"/></g>
<g><path style="opacity:0.051" fill="#18042c" d="M 75.5,93.5 C 71.9617,95.7685 68.295,97.7685 64.5,99.5C 63.8333,99.5 63.1667,99.5 62.5,99.5C 64.6737,97.9186 67.0071,96.4186 69.5,95C 71.4357,94.187 73.4357,93.687 75.5,93.5 Z"/></g>
</svg>
