<?xml version="1.0" encoding="UTF-8"?>
<!DOCTYPE svg PUBLIC "-//W3C//DTD SVG 1.1//EN" "http://www.w3.org/Graphics/SVG/1.1/DTD/svg11.dtd">
<svg xmlns="http://www.w3.org/2000/svg" version="1.1" width="100px" height="100px" style="shape-rendering:geometricPrecision; text-rendering:geometricPrecision; image-rendering:optimizeQuality; fill-rule:evenodd; clip-rule:evenodd" xmlns:xlink="http://www.w3.org/1999/xlink">
<g><path style="opacity:0.903" fill="#fab914" d="M 75.5,0.5 C 95.4132,0.000125296 101.746,9.00013 94.5,27.5C 93.5084,27.6716 92.8417,27.3382 92.5,26.5C 97.2417,10.9052 91.575,4.9052 75.5,8.5C 72.0581,7.82827 69.3914,8.82827 67.5,11.5C 66.5084,11.3284 65.8417,11.6618 65.5,12.5C 63.4458,12.3653 61.7791,13.032 60.5,14.5C 57.9885,14.838 55.6552,14.838 53.5,14.5C 57.4798,12.4554 60.8132,9.62208 63.5,6C 66.4453,5.861 68.7786,4.69434 70.5,2.5C 72.3057,1.97588 73.9724,1.30921 75.5,0.5 Z"/></g>
<g><path style="opacity:0.204" fill="#faf389" d="M 65.5,-0.5 C 68.5,-0.5 71.5,-0.5 74.5,-0.5C 74.5,0.166667 74.8333,0.5 75.5,0.5C 73.9724,1.30921 72.3057,1.97588 70.5,2.5C 66.4051,3.52432 62.4051,4.85766 58.5,6.5C 57.4756,7.85181 56.4756,9.18514 55.5,10.5C 54.8333,10.5 54.1667,10.5 53.5,10.5C 54.7345,8.60171 54.4011,6.93504 52.5,5.5C 56.664,3.11298 60.9973,1.11298 65.5,-0.5 Z"/></g>
<g><path style="opacity:0.953" fill="#c0ae45" d="M 75.5,8.5 C 74.7375,9.26791 73.7375,9.76791 72.5,10C 73.056,10.3826 73.3893,10.8826 73.5,11.5C 72.1667,11.5 70.8333,11.5 69.5,11.5C 68.8333,11.5 68.1667,11.5 67.5,11.5C 69.3914,8.82827 72.0581,7.82827 75.5,8.5 Z"/></g>
<g><path style="opacity:1" fill="#4299cb" d="M 44.5,8.5 C 42.9062,9.98305 41.2395,11.483 39.5,13C 37.1902,13.4966 34.8568,13.6633 32.5,13.5C 35.9132,10.688 39.9132,9.02131 44.5,8.5 Z"/></g>
<g><path style="opacity:1" fill="#d0e09e" d="M 52.5,5.5 C 54.4011,6.93504 54.7345,8.60171 53.5,10.5C 50.7334,11.432 48.0667,12.5986 45.5,14C 42.8707,17.1457 39.8707,19.6457 36.5,21.5C 33.253,22.4123 30.9197,24.4123 29.5,27.5C 28.4154,29.5869 26.7488,30.9202 24.5,31.5C 25.8333,29.8333 27.1667,28.1667 28.5,26.5C 29.4756,25.1851 30.4756,23.8518 31.5,22.5C 38.4432,18.2226 45.1099,13.556 51.5,8.5C 50.675,7.61432 49.675,7.28099 48.5,7.5C 49.5137,6.32627 50.847,5.6596 52.5,5.5 Z"/></g>
<g><path style="opacity:1" fill="#cbbd53" d="M 65.5,12.5 C 65.5,12.8333 65.5,13.1667 65.5,13.5C 63.8333,14.1667 62.1667,14.8333 60.5,15.5C 60.5,15.1667 60.5,14.8333 60.5,14.5C 61.7791,13.032 63.4458,12.3653 65.5,12.5 Z"/></g>
<g><path style="opacity:1" fill="#96b28c" d="M 67.5,11.5 C 68.1667,11.5 68.8333,11.5 69.5,11.5C 68.8333,12.1667 68.1667,12.8333 67.5,13.5C 66.8333,13.5 66.1667,13.5 65.5,13.5C 65.5,13.1667 65.5,12.8333 65.5,12.5C 65.8417,11.6618 66.5084,11.3284 67.5,11.5 Z"/></g>
<g><path style="opacity:1" fill="#f2c631" d="M 70.5,2.5 C 68.7786,4.69434 66.4453,5.861 63.5,6C 60.8132,9.62208 57.4798,12.4554 53.5,14.5C 55.6552,14.838 57.9885,14.838 60.5,14.5C 60.5,14.8333 60.5,15.1667 60.5,15.5C 57.5881,16.4289 54.9214,17.7622 52.5,19.5C 52.4747,15.7162 50.8081,14.7162 47.5,16.5C 50.3816,14.9742 53.0483,12.9742 55.5,10.5C 56.4756,9.18514 57.4756,7.85181 58.5,6.5C 62.4051,4.85766 66.4051,3.52432 70.5,2.5 Z"/></g>
<g><path style="opacity:1" fill="#7dc6c9" d="M 65.5,13.5 C 66.1667,13.5 66.8333,13.5 67.5,13.5C 66.6935,14.7281 65.6935,15.7281 64.5,16.5C 63.8333,16.5 63.5,16.8333 63.5,17.5C 62.1667,17.5 60.8333,17.5 59.5,17.5C 59.8333,16.8333 60.1667,16.1667 60.5,15.5C 62.1667,14.8333 63.8333,14.1667 65.5,13.5 Z"/></g>
<g><path style="opacity:1" fill="#4dadd9" d="M 44.5,8.5 C 44.8333,8.5 45.1667,8.5 45.5,8.5C 46.0431,8.55999 46.3764,8.89333 46.5,9.5C 44.6841,10.8149 43.0175,12.3149 41.5,14C 39.3921,14.3599 37.3921,15.0266 35.5,16C 31.6667,20.5 27.5,24.6667 23,28.5C 22.5172,29.448 22.3505,30.448 22.5,31.5C 21.5,33.1667 20.1667,34.5 18.5,35.5C 17.5041,35.4142 16.6708,35.7476 16,36.5C 15.0617,39.2565 13.5617,41.5899 11.5,43.5C 11.8364,38.3346 14.3364,34.6679 19,32.5C 19.4974,29.854 19.6641,27.1873 19.5,24.5C 20.766,23.9101 22.0993,23.4101 23.5,23C 26.0291,19.3064 29.0291,16.1397 32.5,13.5C 34.8568,13.6633 37.1902,13.4966 39.5,13C 41.2395,11.483 42.9062,9.98305 44.5,8.5 Z"/></g>
<g><path style="opacity:0.008" fill="#2876a9" d="M 82.5,17.5 C 85.8333,18.8333 88.1667,21.1667 89.5,24.5C 86.8333,22.5 84.5,20.1667 82.5,17.5 Z"/></g>
<g><path style="opacity:1" fill="#348bc8" d="M 32.5,13.5 C 29.0291,16.1397 26.0291,19.3064 23.5,23C 22.0993,23.4101 20.766,23.9101 19.5,24.5C 22.3724,19.2134 26.7057,15.5468 32.5,13.5 Z"/></g>
<g><path style="opacity:1" fill="#fadb5d" d="M 53.5,10.5 C 54.1667,10.5 54.8333,10.5 55.5,10.5C 53.0483,12.9742 50.3816,14.9742 47.5,16.5C 44.8615,19.621 41.5282,21.7877 37.5,23C 36.2567,24.1545 35.2567,25.4878 34.5,27C 33.552,27.4828 32.552,27.6495 31.5,27.5C 32.92,25.2911 34.5867,23.2911 36.5,21.5C 39.8707,19.6457 42.8707,17.1457 45.5,14C 48.0667,12.5986 50.7334,11.432 53.5,10.5 Z"/></g>
<g><path style="opacity:1" fill="#7cdaec" d="M 59.5,17.5 C 60.8333,17.5 62.1667,17.5 63.5,17.5C 63.5,18.8333 63.5,20.1667 63.5,21.5C 63.8426,28.0946 62.5093,28.7613 59.5,23.5C 57.7145,25.9224 56.0478,25.9224 54.5,23.5C 53.5832,24.1272 52.5832,24.4606 51.5,24.5C 51.8333,23.8333 52.1667,23.1667 52.5,22.5C 54.5496,20.4525 56.883,18.7859 59.5,17.5 Z"/></g>
<g><path style="opacity:1" fill="#bbc86d" d="M 60.5,15.5 C 60.1667,16.1667 59.8333,16.8333 59.5,17.5C 56.883,18.7859 54.5496,20.4525 52.5,22.5C 50.5887,23.075 48.922,24.075 47.5,25.5C 48.4499,22.8851 50.1165,20.8851 52.5,19.5C 54.9214,17.7622 57.5881,16.4289 60.5,15.5 Z"/></g>
<g><path style="opacity:1" fill="#7bc4c6" d="M 45.5,8.5 C 46.209,7.59603 47.209,7.26269 48.5,7.5C 49.675,7.28099 50.675,7.61432 51.5,8.5C 45.1099,13.556 38.4432,18.2226 31.5,22.5C 30.4756,23.8518 29.4756,25.1851 28.5,26.5C 25.8851,27.4499 23.8851,29.1165 22.5,31.5C 22.3505,30.448 22.5172,29.448 23,28.5C 27.5,24.6667 31.6667,20.5 35.5,16C 37.3921,15.0266 39.3921,14.3599 41.5,14C 43.0175,12.3149 44.6841,10.8149 46.5,9.5C 46.3764,8.89333 46.0431,8.55999 45.5,8.5 Z"/></g>
<g><path style="opacity:1" fill="#74d4f4" d="M 63.5,21.5 C 66.2646,21.7976 68.7646,22.7976 71,24.5C 71.7175,23.5494 72.5509,23.3828 73.5,24C 76.3804,28.2582 78.8804,32.7582 81,37.5C 81.0395,42.1572 80.7062,46.8239 80,51.5C 79.4921,53.9042 78.3255,54.5709 76.5,53.5C 75.5,54 74.5,54.5 73.5,55C 74.4158,55.2784 75.0825,55.7784 75.5,56.5C 72.8333,56.5 70.1667,56.5 67.5,56.5C 68.5676,55.5655 69.901,55.2322 71.5,55.5C 72.4237,52.4467 72.4237,49.4467 71.5,46.5C 72.4959,46.4142 73.3292,46.7476 74,47.5C 74.3095,46.2341 74.8095,45.0674 75.5,44C 74.9056,43.5357 74.2389,43.369 73.5,43.5C 72.596,42.791 72.2627,41.791 72.5,40.5C 72.539,37.911 71.539,35.911 69.5,34.5C 68.1667,33.8333 67.1667,32.8333 66.5,31.5C 66.0269,30.0937 65.0269,29.427 63.5,29.5C 62.0413,29.5674 60.7079,29.2341 59.5,28.5C 56.0381,27.5184 52.3714,27.185 48.5,27.5C 49.1667,26.1667 50.1667,25.1667 51.5,24.5C 52.5832,24.4606 53.5832,24.1272 54.5,23.5C 56.0478,25.9224 57.7145,25.9224 59.5,23.5C 62.5093,28.7613 63.8426,28.0946 63.5,21.5 Z"/></g>
<g><path style="opacity:1" fill="#f3c021" d="M 52.5,19.5 C 50.1165,20.8851 48.4499,22.8851 47.5,25.5C 43.9796,26.3528 41.3129,28.3528 39.5,31.5C 38.5,31.5 37.5,31.5 36.5,31.5C 36.7373,32.791 36.404,33.791 35.5,34.5C 35.8841,32.3352 35.2174,30.6685 33.5,29.5C 31.9713,30.7629 30.3046,31.7629 28.5,32.5C 29.075,30.5887 30.075,28.922 31.5,27.5C 32.552,27.6495 33.552,27.4828 34.5,27C 35.2567,25.4878 36.2567,24.1545 37.5,23C 41.5282,21.7877 44.8615,19.621 47.5,16.5C 50.8081,14.7162 52.4747,15.7162 52.5,19.5 Z"/></g>
<g><path style="opacity:1" fill="#e9e784" d="M 36.5,21.5 C 34.5867,23.2911 32.92,25.2911 31.5,27.5C 30.8333,27.5 30.1667,27.5 29.5,27.5C 30.9197,24.4123 33.253,22.4123 36.5,21.5 Z"/></g>
<g><path style="opacity:1" fill="#8ccec1" d="M 52.5,22.5 C 52.1667,23.1667 51.8333,23.8333 51.5,24.5C 50.1667,25.1667 49.1667,26.1667 48.5,27.5C 47.8333,28.1667 47.1667,28.8333 46.5,29.5C 46.1583,30.3382 45.4916,30.6716 44.5,30.5C 43.8333,30.5 43.1667,30.5 42.5,30.5C 43.973,28.6053 45.6397,26.9387 47.5,25.5C 48.922,24.075 50.5887,23.075 52.5,22.5 Z"/></g>
<g><path style="opacity:0.851" fill="#68937f" d="M 90.5,25.5 C 91.1667,25.8333 91.8333,26.1667 92.5,26.5C 92.8417,27.3382 93.5084,27.6716 94.5,27.5C 94.5,28.1667 94.1667,28.5 93.5,28.5C 93.1667,28.5 92.8333,28.5 92.5,28.5C 91.0937,28.0269 90.427,27.0269 90.5,25.5 Z"/></g>
<g><path style="opacity:0.196" fill="#256d9e" d="M 48.5,27.5 C 52.3714,27.185 56.0381,27.5184 59.5,28.5C 55.1186,28.3718 50.7853,28.7051 46.5,29.5C 47.1667,28.8333 47.8333,28.1667 48.5,27.5 Z"/></g>
<g><path style="opacity:1" fill="#c5c86b" d="M 47.5,25.5 C 45.6397,26.9387 43.973,28.6053 42.5,30.5C 41.5,30.8333 40.8333,31.5 40.5,32.5C 40.1667,32.5 39.8333,32.5 39.5,32.5C 39.5,32.1667 39.5,31.8333 39.5,31.5C 41.3129,28.3528 43.9796,26.3528 47.5,25.5 Z"/></g>
<g><path style="opacity:1" fill="#59bee5" d="M 69.5,11.5 C 70.8333,11.5 72.1667,11.5 73.5,11.5C 74.7784,12.7908 75.4451,14.7908 75.5,17.5C 78.5539,17.354 80.5539,18.6874 81.5,21.5C 81.685,26.5705 82.3517,31.5705 83.5,36.5C 80.8369,31.5217 78.1702,26.5217 75.5,21.5C 71.4726,20.6534 67.8059,18.9867 64.5,16.5C 65.6935,15.7281 66.6935,14.7281 67.5,13.5C 68.1667,12.8333 68.8333,12.1667 69.5,11.5 Z"/></g>
<g><path style="opacity:0.749" fill="#227c9b" d="M 63.5,29.5 C 65.0269,29.427 66.0269,30.0937 66.5,31.5C 64.9731,31.573 63.9731,30.9063 63.5,29.5 Z"/></g>
<g><path style="opacity:1" fill="#41a6dc" d="M 73.5,11.5 C 77.0246,12.7589 80.0246,14.7589 82.5,17.5C 84.5,20.1667 86.8333,22.5 89.5,24.5C 90.1667,24.5 90.5,24.8333 90.5,25.5C 90.427,27.0269 91.0937,28.0269 92.5,28.5C 92.0944,36.4507 91.9278,44.4507 92,52.5C 90.6443,54.4089 89.1443,56.0755 87.5,57.5C 84.8333,57.5 82.1667,57.5 79.5,57.5C 79.5,57.1667 79.5,56.8333 79.5,56.5C 81.7925,56.7564 83.9592,56.4231 86,55.5C 89.4543,45.7269 89.121,36.0602 85,26.5C 84.7805,24.0268 83.6138,22.3602 81.5,21.5C 80.5539,18.6874 78.5539,17.354 75.5,17.5C 75.4451,14.7908 74.7784,12.7908 73.5,11.5 Z"/></g>
<g><path style="opacity:1" fill="#378fcd" d="M 19.5,24.5 C 19.6641,27.1873 19.4974,29.854 19,32.5C 14.3364,34.6679 11.8364,38.3346 11.5,43.5C 11.5,44.1667 11.1667,44.5 10.5,44.5C 11.3531,36.799 14.3531,30.1324 19.5,24.5 Z"/></g>
<g><path style="opacity:0.89" fill="#58948c" d="M 42.5,30.5 C 43.1667,30.5 43.8333,30.5 44.5,30.5C 43.1667,32.5 41.5,34.1667 39.5,35.5C 39.5569,34.391 39.8902,33.391 40.5,32.5C 40.8333,31.5 41.5,30.8333 42.5,30.5 Z"/></g>
<g><path style="opacity:1" fill="#66caef" d="M 64.5,16.5 C 67.8059,18.9867 71.4726,20.6534 75.5,21.5C 78.1702,26.5217 80.8369,31.5217 83.5,36.5C 84.7878,42.4457 84.7878,48.4457 83.5,54.5C 81.9745,54.9943 80.6412,55.661 79.5,56.5C 78.1667,56.5 76.8333,56.5 75.5,56.5C 75.0825,55.7784 74.4158,55.2784 73.5,55C 74.5,54.5 75.5,54 76.5,53.5C 78.3255,54.5709 79.4921,53.9042 80,51.5C 80.7062,46.8239 81.0395,42.1572 81,37.5C 78.8804,32.7582 76.3804,28.2582 73.5,24C 72.5509,23.3828 71.7175,23.5494 71,24.5C 68.7646,22.7976 66.2646,21.7976 63.5,21.5C 63.5,20.1667 63.5,18.8333 63.5,17.5C 63.5,16.8333 63.8333,16.5 64.5,16.5 Z"/></g>
<g><path style="opacity:1" fill="#a2cfab" d="M 28.5,26.5 C 27.1667,28.1667 25.8333,29.8333 24.5,31.5C 24.5,31.8333 24.5,32.1667 24.5,32.5C 21.027,34.6367 18.6936,37.6367 17.5,41.5C 16.1667,42.8333 14.8333,44.1667 13.5,45.5C 15.1373,42.1835 16.8039,38.8501 18.5,35.5C 20.1667,34.5 21.5,33.1667 22.5,31.5C 23.8851,29.1165 25.8851,27.4499 28.5,26.5 Z"/></g>
<g><path style="opacity:1" fill="#dbbf3c" d="M 39.5,31.5 C 39.5,31.8333 39.5,32.1667 39.5,32.5C 36.9302,34.614 34.5968,36.9473 32.5,39.5C 32.1667,39.5 31.8333,39.5 31.5,39.5C 31.5,37.8333 31.5,36.1667 31.5,34.5C 32.8333,34.5 34.1667,34.5 35.5,34.5C 36.404,33.791 36.7373,32.791 36.5,31.5C 37.5,31.5 38.5,31.5 39.5,31.5 Z"/></g>
<g><path style="opacity:1" fill="#5ea6bb" d="M 18.5,35.5 C 16.8039,38.8501 15.1373,42.1835 13.5,45.5C 12.5,46.1667 11.5,46.8333 10.5,47.5C 10.5,46.5 10.5,45.5 10.5,44.5C 11.1667,44.5 11.5,44.1667 11.5,43.5C 13.5617,41.5899 15.0617,39.2565 16,36.5C 16.6708,35.7476 17.5041,35.4142 18.5,35.5 Z"/></g>
<g><path style="opacity:1" fill="#a2d5b3" d="M 39.5,32.5 C 39.8333,32.5 40.1667,32.5 40.5,32.5C 39.8902,33.391 39.5569,34.391 39.5,35.5C 38.8333,35.8333 38.1667,36.1667 37.5,36.5C 34.8605,39.8062 31.8605,42.8062 28.5,45.5C 29.4151,43.2459 30.7484,41.2459 32.5,39.5C 34.5968,36.9473 36.9302,34.614 39.5,32.5 Z"/></g>
<g><path style="opacity:0.361" fill="#287c9e" d="M 69.5,34.5 C 71.539,35.911 72.539,37.911 72.5,40.5C 70.9925,38.8185 69.9925,36.8185 69.5,34.5 Z"/></g>
<g><path style="opacity:1" fill="#dfe08b" d="M 24.5,32.5 C 22.5419,35.7915 20.2085,38.7915 17.5,41.5C 18.6936,37.6367 21.027,34.6367 24.5,32.5 Z"/></g>
<g><path style="opacity:1" fill="#f4bc1e" d="M 35.5,34.5 C 34.1667,34.5 32.8333,34.5 31.5,34.5C 31.5,36.1667 31.5,37.8333 31.5,39.5C 28.5293,41.4426 26.5293,44.1092 25.5,47.5C 23.1667,47.8333 21.8333,49.1667 21.5,51.5C 20.8333,52.5 20.1667,53.5 19.5,54.5C 17.4131,55.5846 16.0798,57.2512 15.5,59.5C 15.5,59.8333 15.5,60.1667 15.5,60.5C 13.2407,61.344 12.2407,63.0107 12.5,65.5C 12.5,66.5 12.5,67.5 12.5,68.5C 12.1667,68.5 11.8333,68.5 11.5,68.5C 11.335,65.1501 11.5017,61.8168 12,58.5C 12.414,58.9574 12.914,59.2907 13.5,59.5C 14.7475,56.9399 15.7475,54.2732 16.5,51.5C 19.6006,52.9033 20.7672,51.9033 20,48.5C 18.3845,49.8009 16.8845,49.8009 15.5,48.5C 18.4177,41.9872 22.7511,36.6539 28.5,32.5C 30.3046,31.7629 31.9713,30.7629 33.5,29.5C 35.2174,30.6685 35.8841,32.3352 35.5,34.5 Z"/></g>
<g><path style="opacity:0.227" fill="#297590" d="M 39.5,35.5 C 39.573,37.0269 38.9063,38.0269 37.5,38.5C 37.5,37.8333 37.5,37.1667 37.5,36.5C 38.1667,36.1667 38.8333,35.8333 39.5,35.5 Z"/></g>
<g><path style="opacity:1" fill="#58bbea" d="M 81.5,21.5 C 83.6138,22.3602 84.7805,24.0268 85,26.5C 89.121,36.0602 89.4543,45.7269 86,55.5C 83.9592,56.4231 81.7925,56.7564 79.5,56.5C 80.6412,55.661 81.9745,54.9943 83.5,54.5C 84.7878,48.4457 84.7878,42.4457 83.5,36.5C 82.3517,31.5705 81.685,26.5705 81.5,21.5 Z"/></g>
<g><path style="opacity:1" fill="#3498d7" d="M 92.5,28.5 C 92.8333,28.5 93.1667,28.5 93.5,28.5C 93.5,29.1667 93.5,29.8333 93.5,30.5C 93.9293,35.1486 94.9293,39.6486 96.5,44C 94.7286,48.3461 93.3953,52.8461 92.5,57.5C 90.8333,57.5 89.1667,57.5 87.5,57.5C 89.1443,56.0755 90.6443,54.4089 92,52.5C 91.9278,44.4507 92.0944,36.4507 92.5,28.5 Z"/></g>
<g><path style="opacity:1" fill="#c0c46c" d="M 31.5,39.5 C 31.8333,39.5 32.1667,39.5 32.5,39.5C 30.7484,41.2459 29.4151,43.2459 28.5,45.5C 27.5,46.1667 26.5,46.8333 25.5,47.5C 26.5293,44.1092 28.5293,41.4426 31.5,39.5 Z"/></g>
<g><path style="opacity:0.024" fill="#cbf2e8" d="M 10.5,44.5 C 10.5,45.5 10.5,46.5 10.5,47.5C 10.5,48.1667 10.1667,48.5 9.5,48.5C 9.5,47.8333 9.16667,47.5 8.5,47.5C 8.42702,45.9731 9.09368,44.9731 10.5,44.5 Z"/></g>
<g><path style="opacity:0.11" fill="#1d679f" d="M 36.5,41.5 C 36.5,42.5 36.5,43.5 36.5,44.5C 48.8333,44.5 61.1667,44.5 73.5,44.5C 61.011,45.4954 48.3443,45.8287 35.5,45.5C 35.2322,43.901 35.5655,42.5676 36.5,41.5 Z"/></g>
<g><path style="opacity:1" fill="#78cef7" d="M 73.5,43.5 C 74.2389,43.369 74.9056,43.5357 75.5,44C 74.8095,45.0674 74.3095,46.2341 74,47.5C 73.3292,46.7476 72.4959,46.4142 71.5,46.5C 60.5,46.5 49.5,46.5 38.5,46.5C 37.209,46.7373 36.209,46.404 35.5,45.5C 48.3443,45.8287 61.011,45.4954 73.5,44.5C 73.5,44.1667 73.5,43.8333 73.5,43.5 Z"/></g>
<g><path style="opacity:1" fill="#83e5fc" d="M 38.5,46.5 C 49.5,46.5 60.5,46.5 71.5,46.5C 72.4237,49.4467 72.4237,52.4467 71.5,55.5C 69.901,55.2322 68.5676,55.5655 67.5,56.5C 59.5,56.5 51.5,56.5 43.5,56.5C 40.6946,55.6805 37.6946,55.1805 34.5,55C 32.8866,52.7724 32.22,50.2724 32.5,47.5C 34.7354,47.7947 36.7354,47.4614 38.5,46.5 Z"/></g>
<g><path style="opacity:1" fill="#2484c8" d="M 93.5,30.5 C 97.1527,35.1288 98.8193,40.4621 98.5,46.5C 98.8503,50.0543 98.1837,53.3876 96.5,56.5C 95.3112,57.4287 93.9778,57.762 92.5,57.5C 93.3953,52.8461 94.7286,48.3461 96.5,44C 94.9293,39.6486 93.9293,35.1486 93.5,30.5 Z"/></g>
<g><path style="opacity:1" fill="#98ad77" d="M 13.5,45.5 C 12.8333,47.1667 12.1667,48.8333 11.5,50.5C 10.1667,50.5 9.5,49.8333 9.5,48.5C 10.1667,48.5 10.5,48.1667 10.5,47.5C 11.5,46.8333 12.5,46.1667 13.5,45.5 Z"/></g>
<g><path style="opacity:1" fill="#f2d455" d="M 29.5,27.5 C 30.1667,27.5 30.8333,27.5 31.5,27.5C 30.075,28.922 29.075,30.5887 28.5,32.5C 22.7511,36.6539 18.4177,41.9872 15.5,48.5C 14.8333,48.5 14.5,48.8333 14.5,49.5C 13.391,49.5569 12.391,49.8902 11.5,50.5C 12.1667,48.8333 12.8333,47.1667 13.5,45.5C 14.8333,44.1667 16.1667,42.8333 17.5,41.5C 20.2085,38.7915 22.5419,35.7915 24.5,32.5C 24.5,32.1667 24.5,31.8333 24.5,31.5C 26.7488,30.9202 28.4154,29.5869 29.5,27.5 Z"/></g>
<g><path style="opacity:1" fill="#bcc469" d="M 25.5,47.5 C 24.8333,48.5 24.1667,49.5 23.5,50.5C 22.8333,50.8333 22.1667,51.1667 21.5,51.5C 21.8333,49.1667 23.1667,47.8333 25.5,47.5 Z"/></g>
<g><path style="opacity:1" fill="#91b897" d="M 23.5,50.5 C 23.5,50.8333 23.5,51.1667 23.5,51.5C 22.5,53.1667 21.1667,54.5 19.5,55.5C 19.5,55.1667 19.5,54.8333 19.5,54.5C 20.1667,53.5 20.8333,52.5 21.5,51.5C 22.1667,51.1667 22.8333,50.8333 23.5,50.5 Z"/></g>
<g><path style="opacity:1" fill="#78d5ed" d="M 37.5,36.5 C 37.5,37.1667 37.5,37.8333 37.5,38.5C 37.7373,39.791 37.404,40.791 36.5,41.5C 35.5655,42.5676 35.2322,43.901 35.5,45.5C 36.209,46.404 37.209,46.7373 38.5,46.5C 36.7354,47.4614 34.7354,47.7947 32.5,47.5C 32.22,50.2724 32.8866,52.7724 34.5,55C 37.6946,55.1805 40.6946,55.6805 43.5,56.5C 38.258,56.9773 33.258,56.1439 28.5,54C 27.7511,52.2663 27.2511,50.433 27,48.5C 25.955,49.3734 25.1217,50.3734 24.5,51.5C 24.1667,51.5 23.8333,51.5 23.5,51.5C 23.5,51.1667 23.5,50.8333 23.5,50.5C 24.1667,49.5 24.8333,48.5 25.5,47.5C 26.5,46.8333 27.5,46.1667 28.5,45.5C 31.8605,42.8062 34.8605,39.8062 37.5,36.5 Z"/></g>
<g><path style="opacity:0.431" fill="#146caa" d="M 98.5,46.5 C 98.8333,46.5 99.1667,46.5 99.5,46.5C 99.5,50.1667 99.5,53.8333 99.5,57.5C 78.2421,58.4882 56.9088,58.8215 35.5,58.5C 49.9905,57.504 64.6572,57.1707 79.5,57.5C 82.1667,57.5 84.8333,57.5 87.5,57.5C 89.1667,57.5 90.8333,57.5 92.5,57.5C 93.9778,57.762 95.3112,57.4287 96.5,56.5C 98.1837,53.3876 98.8503,50.0543 98.5,46.5 Z"/></g>
<g><path style="opacity:0.961" fill="#f6c31c" d="M 14.5,49.5 C 13.7087,54.3985 11.8753,58.7319 9,62.5C 7.26364,65.7392 4.76364,68.0726 1.5,69.5C 4.08782,62.6526 7.42115,56.3193 11.5,50.5C 12.391,49.8902 13.391,49.5569 14.5,49.5 Z"/></g>
<g><path style="opacity:0.055" fill="#fcf27d" d="M 8.5,47.5 C 9.16667,47.5 9.5,47.8333 9.5,48.5C 9.5,49.8333 10.1667,50.5 11.5,50.5C 7.42115,56.3193 4.08782,62.6526 1.5,69.5C 0.833333,68.8333 0.166667,68.1667 -0.5,67.5C -0.5,66.8333 -0.5,66.1667 -0.5,65.5C 1.42991,58.9735 4.42991,52.9735 8.5,47.5 Z"/></g>
<g><path style="opacity:1" fill="#66c8f0" d="M 43.5,56.5 C 51.5,56.5 59.5,56.5 67.5,56.5C 70.1667,56.5 72.8333,56.5 75.5,56.5C 76.8333,56.5 78.1667,56.5 79.5,56.5C 79.5,56.8333 79.5,57.1667 79.5,57.5C 64.6572,57.1707 49.9905,57.504 35.5,58.5C 36.3007,60.0418 36.634,61.7085 36.5,63.5C 36.7947,65.7354 36.4614,67.7354 35.5,69.5C 33.9557,69.2969 32.6223,68.6302 31.5,67.5C 29.5101,64.5027 27.1767,61.8361 24.5,59.5C 23.3855,56.8438 23.3855,54.1771 24.5,51.5C 25.1217,50.3734 25.955,49.3734 27,48.5C 27.2511,50.433 27.7511,52.2663 28.5,54C 33.258,56.1439 38.258,56.9773 43.5,56.5 Z"/></g>
<g><path style="opacity:1" fill="#c0bc62" d="M 19.5,54.5 C 19.5,54.8333 19.5,55.1667 19.5,55.5C 19.1667,56.1667 18.8333,56.8333 18.5,57.5C 17.5,58.1667 16.5,58.8333 15.5,59.5C 16.0798,57.2512 17.4131,55.5846 19.5,54.5 Z"/></g>
<g><path style="opacity:0.914" fill="#fbb80c" d="M 15.5,48.5 C 16.8845,49.8009 18.3845,49.8009 20,48.5C 20.7672,51.9033 19.6006,52.9033 16.5,51.5C 15.7475,54.2732 14.7475,56.9399 13.5,59.5C 12.914,59.2907 12.414,58.9574 12,58.5C 11.5017,61.8168 11.335,65.1501 11.5,68.5C 8.54578,74.86 7.37911,81.5266 8,88.5C 10.4672,93.6196 14.6338,95.6196 20.5,94.5C 20.4431,95.609 20.1098,96.609 19.5,97.5C 10.5204,100.269 3.85373,97.6021 -0.5,89.5C -0.5,85.1667 -0.5,80.8333 -0.5,76.5C 0.611848,74.4006 1.27852,72.0673 1.5,69.5C 4.76364,68.0726 7.26364,65.7392 9,62.5C 11.8753,58.7319 13.7087,54.3985 14.5,49.5C 14.5,48.8333 14.8333,48.5 15.5,48.5 Z"/></g>
<g><path style="opacity:1" fill="#bfbb57" d="M 15.5,60.5 C 14.8333,62.1667 14.1667,63.8333 13.5,65.5C 13.1667,65.5 12.8333,65.5 12.5,65.5C 12.2407,63.0107 13.2407,61.344 15.5,60.5 Z"/></g>
<g><path style="opacity:1" fill="#538f87" d="M 18.5,57.5 C 18.5,58.1667 18.5,58.8333 18.5,59.5C 17.0937,59.9731 16.427,60.9731 16.5,62.5C 16.5,62.8333 16.5,63.1667 16.5,63.5C 15.5,64.1667 14.5,64.8333 13.5,65.5C 14.1667,63.8333 14.8333,62.1667 15.5,60.5C 15.5,60.1667 15.5,59.8333 15.5,59.5C 16.5,58.8333 17.5,58.1667 18.5,57.5 Z"/></g>
<g><path style="opacity:1" fill="#1c80c3" d="M 87.5,66.5 C 90.8499,66.335 94.1832,66.5017 97.5,67C 95.8502,70.4845 93.8502,73.6512 91.5,76.5C 91.7989,74.396 91.4656,72.396 90.5,70.5C 89.1509,74.1788 86.4842,75.8455 82.5,75.5C 83.3981,73.0948 84.8981,71.0948 87,69.5C 87.4828,68.552 87.6495,67.552 87.5,66.5 Z"/></g>
<g><path style="opacity:1" fill="#52b7e1" d="M 23.5,51.5 C 23.8333,51.5 24.1667,51.5 24.5,51.5C 23.3855,54.1771 23.3855,56.8438 24.5,59.5C 27.1767,61.8361 29.5101,64.5027 31.5,67.5C 32.6223,68.6302 33.9557,69.2969 35.5,69.5C 36.6354,71.2132 38.302,71.8799 40.5,71.5C 40.5,72.5 40.5,73.5 40.5,74.5C 37.8127,74.6641 35.146,74.4974 32.5,74C 27.7968,69.3226 23.9634,64.1559 21,58.5C 20.3292,59.2524 19.4959,59.5858 18.5,59.5C 18.5,58.8333 18.5,58.1667 18.5,57.5C 18.8333,56.8333 19.1667,56.1667 19.5,55.5C 21.1667,54.5 22.5,53.1667 23.5,51.5 Z"/></g>
<g><path style="opacity:1" fill="#4cacdc" d="M 35.5,69.5 C 36.4614,67.7354 36.7947,65.7354 36.5,63.5C 40.2068,71.5305 46.5401,75.8638 55.5,76.5C 53.8067,78.7664 51.6401,79.0997 49,77.5C 47.8904,79.0368 46.3904,79.7035 44.5,79.5C 39.557,79.7124 38.8903,78.7124 42.5,76.5C 42,76.1667 41.5,75.8333 41,75.5C 35.9223,77.3898 31.4223,76.5565 27.5,73C 28.4506,72.2825 28.6172,71.4491 28,70.5C 24.5873,66.8962 21.4206,63.8962 18.5,61.5C 17.8333,61.8333 17.1667,62.1667 16.5,62.5C 16.427,60.9731 17.0937,59.9731 18.5,59.5C 19.4959,59.5858 20.3292,59.2524 21,58.5C 23.9634,64.1559 27.7968,69.3226 32.5,74C 35.146,74.4974 37.8127,74.6641 40.5,74.5C 40.5,73.5 40.5,72.5 40.5,71.5C 38.302,71.8799 36.6354,71.2132 35.5,69.5 Z"/></g>
<g><path style="opacity:1" fill="#3aa3dd" d="M 44.5,79.5 C 51.6476,80.4916 58.9809,80.825 66.5,80.5C 65.6935,81.7281 64.6935,82.7281 63.5,83.5C 62.5,83.5 61.5,83.5 60.5,83.5C 47.4632,85.2188 35.9632,81.8855 26,73.5C 25.3828,72.5509 25.5494,71.7175 26.5,71C 21.8244,69.4935 19.1577,66.3268 18.5,61.5C 21.4206,63.8962 24.5873,66.8962 28,70.5C 28.6172,71.4491 28.4506,72.2825 27.5,73C 31.4223,76.5565 35.9223,77.3898 41,75.5C 41.5,75.8333 42,76.1667 42.5,76.5C 38.8903,78.7124 39.557,79.7124 44.5,79.5 Z"/></g>
<g><path style="opacity:1" fill="#49aee0" d="M 66.5,80.5 C 58.9809,80.825 51.6476,80.4916 44.5,79.5C 46.3904,79.7035 47.8904,79.0368 49,77.5C 51.6401,79.0997 53.8067,78.7664 55.5,76.5C 58.7263,75.5113 62.0596,74.5113 65.5,73.5C 68.0692,72.6044 70.0692,70.9377 71.5,68.5C 76.1667,67.1667 80.8333,67.1667 85.5,68.5C 83.5455,70.4304 81.8788,72.5971 80.5,75C 75.3538,75.9856 70.6871,77.8189 66.5,80.5 Z"/></g>
<g><path style="opacity:1" fill="#197bc3" d="M 16.5,63.5 C 15.962,65.1172 15.6287,66.7839 15.5,68.5C 17.7834,68.6079 19.7834,69.4412 21.5,71C 22.7946,73.7581 24.4612,76.2581 26.5,78.5C 30.9413,80.5234 35.2746,82.5234 39.5,84.5C 34.9832,85.3409 31.3166,84.0075 28.5,80.5C 29.3738,82.9036 29.3738,85.5703 28.5,88.5C 21.3586,83.3504 16.0253,76.6837 12.5,68.5C 12.5,67.5 12.5,66.5 12.5,65.5C 12.8333,65.5 13.1667,65.5 13.5,65.5C 14.5,64.8333 15.5,64.1667 16.5,63.5 Z"/></g>
<g><path style="opacity:1" fill="#2c95d6" d="M 18.5,61.5 C 19.1577,66.3268 21.8244,69.4935 26.5,71C 25.5494,71.7175 25.3828,72.5509 26,73.5C 35.9632,81.8855 47.4632,85.2188 60.5,83.5C 53.6866,84.4912 46.6866,84.8245 39.5,84.5C 35.2746,82.5234 30.9413,80.5234 26.5,78.5C 24.4612,76.2581 22.7946,73.7581 21.5,71C 19.7834,69.4412 17.7834,68.6079 15.5,68.5C 15.6287,66.7839 15.962,65.1172 16.5,63.5C 16.5,63.1667 16.5,62.8333 16.5,62.5C 17.1667,62.1667 17.8333,61.8333 18.5,61.5 Z"/></g>
<g><path style="opacity:1" fill="#2e94d2" d="M 87.5,66.5 C 87.6495,67.552 87.4828,68.552 87,69.5C 84.8981,71.0948 83.3981,73.0948 82.5,75.5C 82.2014,77.4553 81.2014,78.7886 79.5,79.5C 75.8945,79.3094 72.8945,80.4761 70.5,83C 68.1902,83.4966 65.8568,83.6633 63.5,83.5C 64.6935,82.7281 65.6935,81.7281 66.5,80.5C 70.6871,77.8189 75.3538,75.9856 80.5,75C 81.8788,72.5971 83.5455,70.4304 85.5,68.5C 80.8333,67.1667 76.1667,67.1667 71.5,68.5C 70.0692,70.9377 68.0692,72.6044 65.5,73.5C 67.1436,71.5193 68.8103,69.5193 70.5,67.5C 76.1278,66.5046 81.7945,66.1712 87.5,66.5 Z"/></g>
<g><path style="opacity:1" fill="#1377c6" d="M 91.5,76.5 C 86.1162,85.8709 78.1162,91.8709 67.5,94.5C 67.67,93.1779 67.3366,92.0113 66.5,91C 64.1667,90.6667 61.8333,90.3333 59.5,90C 62.2104,88.2532 65.2104,87.2532 68.5,87C 69.9423,86.6232 70.9423,85.7899 71.5,84.5C 75.1737,84.2928 77.8404,82.6262 79.5,79.5C 81.2014,78.7886 82.2014,77.4553 82.5,75.5C 86.4842,75.8455 89.1509,74.1788 90.5,70.5C 91.4656,72.396 91.7989,74.396 91.5,76.5 Z"/></g>
<g><path style="opacity:1" fill="#258ed5" d="M 79.5,79.5 C 77.8404,82.6262 75.1737,84.2928 71.5,84.5C 66.4758,85.673 61.4758,87.0063 56.5,88.5C 50.8201,87.8325 45.1534,87.1658 39.5,86.5C 39.5,85.8333 39.5,85.1667 39.5,84.5C 46.6866,84.8245 53.6866,84.4912 60.5,83.5C 61.5,83.5 62.5,83.5 63.5,83.5C 65.8568,83.6633 68.1902,83.4966 70.5,83C 72.8945,80.4761 75.8945,79.3094 79.5,79.5 Z"/></g>
<g><path style="opacity:1" fill="#1475c1" d="M 39.5,84.5 C 39.5,85.1667 39.5,85.8333 39.5,86.5C 39.4142,87.4959 39.7476,88.3292 40.5,89C 44.0704,90.3095 47.737,91.1428 51.5,91.5C 51.5,92.5 51.5,93.5 51.5,94.5C 56.8247,95.7612 62.158,95.7612 67.5,94.5C 53.5635,99.1227 40.5635,97.1227 28.5,88.5C 29.3738,85.5703 29.3738,82.9036 28.5,80.5C 31.3166,84.0075 34.9832,85.3409 39.5,84.5 Z"/></g>
<g><path style="opacity:1" fill="#127ac7" d="M 71.5,84.5 C 70.9423,85.7899 69.9423,86.6232 68.5,87C 65.2104,87.2532 62.2104,88.2532 59.5,90C 61.8333,90.3333 64.1667,90.6667 66.5,91C 67.3366,92.0113 67.67,93.1779 67.5,94.5C 62.158,95.7612 56.8247,95.7612 51.5,94.5C 51.5,93.5 51.5,92.5 51.5,91.5C 47.737,91.1428 44.0704,90.3095 40.5,89C 39.7476,88.3292 39.4142,87.4959 39.5,86.5C 45.1534,87.1658 50.8201,87.8325 56.5,88.5C 61.4758,87.0063 66.4758,85.673 71.5,84.5 Z"/></g>
<g><path style="opacity:0.612" fill="#f5c12c" d="M 19.5,97.5 C 20.1098,96.609 20.4431,95.609 20.5,94.5C 23.2962,93.6932 26.1295,92.6932 29,91.5C 31.0215,93.6512 30.5215,95.1512 27.5,96C 24.9373,97.0793 22.2706,97.5793 19.5,97.5 Z"/></g>
</svg>
