<?xml version="1.0" encoding="UTF-8"?>
<!DOCTYPE svg PUBLIC "-//W3C//DTD SVG 1.1//EN" "http://www.w3.org/Graphics/SVG/1.1/DTD/svg11.dtd">
<svg xmlns="http://www.w3.org/2000/svg" version="1.1" width="100px" height="100px" style="shape-rendering:geometricPrecision; text-rendering:geometricPrecision; image-rendering:optimizeQuality; fill-rule:evenodd; clip-rule:evenodd" xmlns:xlink="http://www.w3.org/1999/xlink">
<g><path style="opacity:0.994" fill="#ef4e1d" d="M 25.5,-0.5 C 33.1667,-0.5 40.8333,-0.5 48.5,-0.5C 48.5,9.83333 48.5,20.1667 48.5,30.5C 39.8333,30.5 31.1667,30.5 22.5,30.5C 19.4406,28.6026 17.2739,25.9359 16,22.5C 13.5042,12.2552 16.6709,4.58854 25.5,-0.5 Z"/></g>
<g><path style="opacity:0.996" fill="#fc7261" d="M 48.5,-0.5 C 56.5,-0.5 64.5,-0.5 72.5,-0.5C 82.1653,5.32561 84.9987,13.6589 81,24.5C 78.4665,28.5082 74.9665,31.1749 70.5,32.5C 64.9698,31.1968 59.6365,31.5301 54.5,33.5C 52.8333,33.5 51.1667,33.5 49.5,33.5C 42.6866,32.5088 35.6866,32.1755 28.5,32.5C 35.1667,31.8333 41.8333,31.1667 48.5,30.5C 48.5,20.1667 48.5,9.83333 48.5,-0.5 Z"/></g>
<g><path style="opacity:1" fill="#e55034" d="M 22.5,30.5 C 31.1667,30.5 39.8333,30.5 48.5,30.5C 41.8333,31.1667 35.1667,31.8333 28.5,32.5C 28.1667,32.5 27.8333,32.5 27.5,32.5C 25.597,32.2041 23.9303,31.5375 22.5,30.5 Z"/></g>
<g><path style="opacity:0.906" fill="#ab8e99" d="M 70.5,32.5 C 70.5,32.8333 70.5,33.1667 70.5,33.5C 66.1667,33.5 61.8333,33.5 57.5,33.5C 56.5,33.5 55.5,33.5 54.5,33.5C 59.6365,31.5301 64.9698,31.1968 70.5,32.5 Z"/></g>
<g><path style="opacity:1" fill="#bd59b9" d="M 27.5,32.5 C 27.8333,32.5 28.1667,32.5 28.5,32.5C 35.6866,32.1755 42.6866,32.5088 49.5,33.5C 49.5,34.1667 49.5,34.8333 49.5,35.5C 49.1667,35.5 48.8333,35.5 48.5,35.5C 40.6841,34.5076 32.6841,34.1743 24.5,34.5C 25.5,33.8333 26.5,33.1667 27.5,32.5 Z"/></g>
<g><path style="opacity:1" fill="#a259fe" d="M 24.5,34.5 C 32.6841,34.1743 40.6841,34.5076 48.5,35.5C 48.7253,40.0484 48.0587,44.3817 46.5,48.5C 46.6667,49.8333 46.8333,51.1667 47,52.5C 47.3826,53.056 47.8826,53.3893 48.5,53.5C 48.5,56.5 48.5,59.5 48.5,62.5C 40.8821,63.6001 33.2155,63.7668 25.5,63C 24.1322,61.6598 22.7989,60.3264 21.5,59C 22.7485,57.4615 22.5819,56.2948 21,55.5C 19.8484,57.5117 18.6817,57.6783 17.5,56C 18.4505,52.9433 18.7839,49.7766 18.5,46.5C 20.3307,47.0522 21.9974,47.0522 23.5,46.5C 21.5937,44.1112 20.2604,41.4445 19.5,38.5C 20.5387,36.4689 22.2054,35.1355 24.5,34.5 Z"/></g>
<g><path style="opacity:1" fill="#1bbbfc" d="M 73.5,34.5 C 79.371,37.719 82.371,42.719 82.5,49.5C 82.6164,58.0363 78.6164,63.3697 70.5,65.5C 67.8333,65.5 65.1667,65.5 62.5,65.5C 63.3635,59.5451 63.6968,53.5451 63.5,47.5C 64.8333,47.5 66.1667,47.5 67.5,47.5C 66.0929,41.3654 68.0929,37.0321 73.5,34.5 Z"/></g>
<g><path style="opacity:0.994" fill="#1ebbfb" d="M 57.5,33.5 C 61.8333,33.5 66.1667,33.5 70.5,33.5C 71.791,33.2627 72.791,33.596 73.5,34.5C 68.0929,37.0321 66.0929,41.3654 67.5,47.5C 66.1667,47.5 64.8333,47.5 63.5,47.5C 63.6968,53.5451 63.3635,59.5451 62.5,65.5C 65.1667,65.5 67.8333,65.5 70.5,65.5C 61.6162,67.9807 54.6162,65.3141 49.5,57.5C 49.5,53.5 49.5,49.5 49.5,45.5C 49.5,44.1667 49.5,42.8333 49.5,41.5C 51.8333,38.5 54.5,35.8333 57.5,33.5 Z"/></g>
<g><path style="opacity:1" fill="#8767fb" d="M 48.5,35.5 C 48.8333,35.5 49.1667,35.5 49.5,35.5C 49.5,37.5 49.5,39.5 49.5,41.5C 49.5,42.8333 49.5,44.1667 49.5,45.5C 48.5269,47.9479 48.1936,50.6146 48.5,53.5C 47.8826,53.3893 47.3826,53.056 47,52.5C 46.8333,51.1667 46.6667,49.8333 46.5,48.5C 48.0587,44.3817 48.7253,40.0484 48.5,35.5 Z"/></g>
<g><path style="opacity:0.916" fill="#a15cf7" d="M 19.5,38.5 C 20.2604,41.4445 21.5937,44.1112 23.5,46.5C 21.9974,47.0522 20.3307,47.0522 18.5,46.5C 18.7839,49.7766 18.4505,52.9433 17.5,56C 18.6817,57.6783 19.8484,57.5117 21,55.5C 22.5819,56.2948 22.7485,57.4615 21.5,59C 22.7989,60.3264 24.1322,61.6598 25.5,63C 33.2155,63.7668 40.8821,63.6001 48.5,62.5C 40.9032,64.4668 32.9032,65.1335 24.5,64.5C 15.8288,59.758 12.9955,52.4247 16,42.5C 16.9487,40.9069 18.1154,39.5736 19.5,38.5 Z"/></g>
<g><path style="opacity:1" fill="#7e73e4" d="M 49.5,45.5 C 49.5,49.5 49.5,53.5 49.5,57.5C 49.5,60.1667 49.5,62.8333 49.5,65.5C 41.8333,65.5 34.1667,65.5 26.5,65.5C 25.5084,65.6716 24.8417,65.3382 24.5,64.5C 32.9032,65.1335 40.9032,64.4668 48.5,62.5C 48.5,59.5 48.5,56.5 48.5,53.5C 48.1936,50.6146 48.5269,47.9479 49.5,45.5 Z"/></g>
<g><path style="opacity:1" fill="#46a6b3" d="M 26.5,66.5 C 26.5,66.1667 26.5,65.8333 26.5,65.5C 34.1667,65.5 41.8333,65.5 49.5,65.5C 49.5,66.1667 49.5,66.8333 49.5,67.5C 41.747,67.799 34.0804,67.4657 26.5,66.5 Z"/></g>
<g><path style="opacity:1" fill="#24bf91" d="M 26.5,66.5 C 34.0804,67.4657 41.747,67.799 49.5,67.5C 49.824,74.3543 49.4907,81.021 48.5,87.5C 48.5,81.1667 48.5,74.8333 48.5,68.5C 39.8333,68.5 31.1667,68.5 22.5,68.5C 23.6715,67.6554 25.0048,66.9887 26.5,66.5 Z"/></g>
<g><path style="opacity:0.996" fill="#0bce84" d="M 22.5,68.5 C 31.1667,68.5 39.8333,68.5 48.5,68.5C 48.5,74.8333 48.5,81.1667 48.5,87.5C 46.9532,93.0421 43.6199,97.0421 38.5,99.5C 34.1667,99.5 29.8333,99.5 25.5,99.5C 16.3489,94.5091 13.1822,86.8424 16,76.5C 17.2739,73.0641 19.4406,70.3974 22.5,68.5 Z"/></g>
</svg>
