<?xml version="1.0" encoding="UTF-8"?>
<!DOCTYPE svg PUBLIC "-//W3C//DTD SVG 1.1//EN" "http://www.w3.org/Graphics/SVG/1.1/DTD/svg11.dtd">
<svg xmlns="http://www.w3.org/2000/svg" version="1.1" width="100px" height="100px" style="shape-rendering:geometricPrecision; text-rendering:geometricPrecision; image-rendering:optimizeQuality; fill-rule:evenodd; clip-rule:evenodd" xmlns:xlink="http://www.w3.org/1999/xlink">
<g><path style="opacity:1" fill="#fca918" d="M 24.5,-0.5 C 26.1667,-0.5 27.8333,-0.5 29.5,-0.5C 33.3825,7.30786 37.5492,14.9745 42,22.5C 43.795,19.9007 45.295,17.2341 46.5,14.5C 48.099,14.2322 49.4324,14.5655 50.5,15.5C 47.4775,15.1052 46.4775,16.1052 47.5,18.5C 45.2381,19.3449 44.5714,20.6783 45.5,22.5C 41.914,24.9713 39.5807,23.9713 38.5,19.5C 37.5,19.5 36.5,19.5 35.5,19.5C 35.5,20.8333 35.5,22.1667 35.5,23.5C 32.8333,23.5 30.1667,23.5 27.5,23.5C 27.5,26.1667 27.5,28.8333 27.5,31.5C 28.5,31.5 29.5,31.5 30.5,31.5C 30.5,33.5 30.5,35.5 30.5,37.5C 28.5,37.5 26.5,37.5 24.5,37.5C 24.5,35.8333 24.5,34.1667 24.5,32.5C 23.5,32.5 22.5,32.5 21.5,32.5C 22.4937,35.3193 23.4937,38.1526 24.5,41C 24.6604,46.1603 24.6604,50.9936 24.5,55.5C 22.1606,60.8441 19.8273,66.1774 17.5,71.5C 15.9925,73.1815 14.9925,75.1815 14.5,77.5C 14.1583,78.3382 13.4916,78.6716 12.5,78.5C 16.3141,52.1344 20.3141,25.8011 24.5,-0.5 Z"/></g>
<g><path style="opacity:0.599" fill="#ebb653" d="M 46.5,14.5 C 47.0968,13.8614 47.9302,13.528 49,13.5C 50.3756,13.6842 51.2089,14.3509 51.5,15.5C 51.1667,15.5 50.8333,15.5 50.5,15.5C 49.4324,14.5655 48.099,14.2322 46.5,14.5 Z"/></g>
<g><path style="opacity:1" fill="#fdc93e" d="M 75.5,20.5 C 70.8411,21.524 68.8411,24.524 69.5,29.5C 67.095,29.8664 64.7617,30.5331 62.5,31.5C 61.5836,31.4573 60.9169,31.1239 60.5,30.5C 64.2976,27.2039 67.9643,23.7039 71.5,20C 73.0657,19.235 74.3991,19.4017 75.5,20.5 Z"/></g>
<g><path style="opacity:0.997" fill="#feca2e" d="M 75.5,20.5 C 78.1746,30.5389 79.8413,40.8722 80.5,51.5C 81.3961,55.9384 81.3961,60.2718 80.5,64.5C 84.6765,71.3056 84.3432,77.6389 79.5,83.5C 73.1623,87.6708 66.4956,91.3375 59.5,94.5C 56.8728,95.0916 54.2062,95.4249 51.5,95.5C 51.5,96.5 51.5,97.5 51.5,98.5C 48.9592,98.1501 46.6258,98.1501 44.5,98.5C 42.6675,97.7515 41.0009,96.7515 39.5,95.5C 38.39,91.6042 35.7234,89.7709 31.5,90C 27.5312,87.4704 23.5312,85.137 19.5,83C 18.6634,81.9887 18.33,80.8221 18.5,79.5C 16.4352,79.5172 14.4352,79.8505 12.5,80.5C 12.5,79.8333 12.5,79.1667 12.5,78.5C 13.4916,78.6716 14.1583,78.3382 14.5,77.5C 16.8333,75.8333 18.8333,73.8333 20.5,71.5C 28.1667,64.5 35.5,57.1667 42.5,49.5C 43.1667,49.5 43.5,49.1667 43.5,48.5C 46.1667,46.5 48.5,44.1667 50.5,41.5C 53.4901,39.0102 56.3235,36.3435 59,33.5C 59.4828,32.552 59.6495,31.552 59.5,30.5C 59.8333,30.5 60.1667,30.5 60.5,30.5C 60.9169,31.1239 61.5836,31.4573 62.5,31.5C 64.7617,30.5331 67.095,29.8664 69.5,29.5C 68.8411,24.524 70.8411,21.524 75.5,20.5 Z"/></g>
<g><path style="opacity:1" fill="#fda510" d="M 50.5,15.5 C 50.8333,15.5 51.1667,15.5 51.5,15.5C 54.4028,20.3019 57.0695,25.3019 59.5,30.5C 59.6495,31.552 59.4828,32.552 59,33.5C 56.3235,36.3435 53.4901,39.0102 50.5,41.5C 49.1385,35.4023 46.3052,30.0689 42,25.5C 40.5187,26.4709 39.6854,27.8042 39.5,29.5C 34.6391,38.2873 29.6391,46.9539 24.5,55.5C 24.6604,50.9936 24.6604,46.1603 24.5,41C 23.4937,38.1526 22.4937,35.3193 21.5,32.5C 22.5,32.5 23.5,32.5 24.5,32.5C 24.5,34.1667 24.5,35.8333 24.5,37.5C 26.5,37.5 28.5,37.5 30.5,37.5C 30.5,35.5 30.5,33.5 30.5,31.5C 29.5,31.5 28.5,31.5 27.5,31.5C 27.5,28.8333 27.5,26.1667 27.5,23.5C 30.1667,23.5 32.8333,23.5 35.5,23.5C 35.5,22.1667 35.5,20.8333 35.5,19.5C 36.5,19.5 37.5,19.5 38.5,19.5C 39.5807,23.9713 41.914,24.9713 45.5,22.5C 44.5714,20.6783 45.2381,19.3449 47.5,18.5C 46.4775,16.1052 47.4775,15.1052 50.5,15.5 Z"/></g>
<g><path style="opacity:1" fill="#f48909" d="M 50.5,41.5 C 48.5,44.1667 46.1667,46.5 43.5,48.5C 43.5,46.8333 43.5,45.1667 43.5,43.5C 46.2776,43.9783 48.2776,42.9783 49.5,40.5C 47.5102,40.1589 45.5102,39.8256 43.5,39.5C 43.5698,36.1985 43.2365,32.8651 42.5,29.5C 41.5,29.5 40.5,29.5 39.5,29.5C 39.6854,27.8042 40.5187,26.4709 42,25.5C 46.3052,30.0689 49.1385,35.4023 50.5,41.5 Z"/></g>
<g><path style="opacity:1" fill="#f5830c" d="M 39.5,29.5 C 40.5,29.5 41.5,29.5 42.5,29.5C 43.2365,32.8651 43.5698,36.1985 43.5,39.5C 45.5102,39.8256 47.5102,40.1589 49.5,40.5C 48.2776,42.9783 46.2776,43.9783 43.5,43.5C 43.5,45.1667 43.5,46.8333 43.5,48.5C 43.5,49.1667 43.1667,49.5 42.5,49.5C 40.4017,48.0857 39.4017,48.7524 39.5,51.5C 38.5,51.5 37.5,51.5 36.5,51.5C 36.3069,48.5253 37.3069,46.0253 39.5,44C 39.3286,39.0951 39.3286,34.2618 39.5,29.5 Z"/></g>
<g><path style="opacity:1" fill="#f4880b" d="M 39.5,29.5 C 39.3286,34.2618 39.3286,39.0951 39.5,44C 37.3069,46.0253 36.3069,48.5253 36.5,51.5C 37.5,51.5 38.5,51.5 39.5,51.5C 39.4017,48.7524 40.4017,48.0857 42.5,49.5C 35.5,57.1667 28.1667,64.5 20.5,71.5C 19.5,71.5 18.5,71.5 17.5,71.5C 19.8273,66.1774 22.1606,60.8441 24.5,55.5C 29.6391,46.9539 34.6391,38.2873 39.5,29.5 Z"/></g>
<g><path style="opacity:0.841" fill="#f7c63c" d="M 80.5,51.5 C 82.7562,60.0837 84.4229,68.917 85.5,78C 84.6248,80.9563 82.6248,82.7896 79.5,83.5C 84.3432,77.6389 84.6765,71.3056 80.5,64.5C 81.3961,60.2718 81.3961,55.9384 80.5,51.5 Z"/></g>
<g><path style="opacity:1" fill="#e98d03" d="M 17.5,71.5 C 18.5,71.5 19.5,71.5 20.5,71.5C 18.8333,73.8333 16.8333,75.8333 14.5,77.5C 14.9925,75.1815 15.9925,73.1815 17.5,71.5 Z"/></g>
<g><path style="opacity:0.875" fill="#eeba2f" d="M 39.5,95.5 C 30.2403,90.8929 21.2403,85.8929 12.5,80.5C 14.4352,79.8505 16.4352,79.5172 18.5,79.5C 18.33,80.8221 18.6634,81.9887 19.5,83C 23.5312,85.137 27.5312,87.4704 31.5,90C 35.7234,89.7709 38.39,91.6042 39.5,95.5 Z"/></g>
<g><path style="opacity:1" fill="#f4ba2a" d="M 59.5,94.5 C 56.9906,95.9213 54.6572,97.5879 52.5,99.5C 49.8333,99.5 47.1667,99.5 44.5,99.5C 44.5,99.1667 44.5,98.8333 44.5,98.5C 46.6258,98.1501 48.9592,98.1501 51.5,98.5C 51.5,97.5 51.5,96.5 51.5,95.5C 54.2062,95.4249 56.8728,95.0916 59.5,94.5 Z"/></g>
</svg>
