<?xml version="1.0" encoding="UTF-8"?>
<!DOCTYPE svg PUBLIC "-//W3C//DTD SVG 1.1//EN" "http://www.w3.org/Graphics/SVG/1.1/DTD/svg11.dtd">
<svg xmlns="http://www.w3.org/2000/svg" version="1.1" width="100px" height="100px" style="shape-rendering:geometricPrecision; text-rendering:geometricPrecision; image-rendering:optimizeQuality; fill-rule:evenodd; clip-rule:evenodd" xmlns:xlink="http://www.w3.org/1999/xlink">
<g><path style="opacity:0.999" fill="#feeb4c" d="M 62.5,-0.5 C 63.8333,-0.5 65.1667,-0.5 66.5,-0.5C 67.3994,2.39496 68.7328,5.06163 70.5,7.5C 69.1579,11.8233 66.1579,13.8233 61.5,13.5C 56.127,13.7455 54.4603,11.4122 56.5,6.5C 58.4545,4.17411 60.4545,1.84078 62.5,-0.5 Z"/></g>
<g><path style="opacity:1" fill="#fde446" d="M 56.5,6.5 C 54.4603,11.4122 56.127,13.7455 61.5,13.5C 66.1579,13.8233 69.1579,11.8233 70.5,7.5C 73.8482,10.8514 76.8482,14.5181 79.5,18.5C 79.7512,20.1703 80.4178,21.6703 81.5,23C 80.9056,23.4643 80.2389,23.631 79.5,23.5C 78.9217,21.5565 77.9217,21.2232 76.5,22.5C 69.8575,21.8684 63.1908,21.2017 56.5,20.5C 54.8281,18.3276 53.1614,16.3276 51.5,14.5C 52.1514,11.197 53.818,8.53033 56.5,6.5 Z"/></g>
<g><path style="opacity:1" fill="#f4a348" d="M 35.5,30.5 C 36.075,32.4113 37.075,34.078 38.5,35.5C 35.821,35.4754 34.4877,34.142 34.5,31.5C 32.1667,30.8333 29.8333,30.1667 27.5,29.5C 31.693,28.4208 32.3597,26.2542 29.5,23C 28.552,22.5172 27.552,22.3505 26.5,22.5C 28.2496,20.6023 30.4163,19.269 33,18.5C 33.3333,22.1667 33.6667,25.8333 34,29.5C 34.3826,30.056 34.8826,30.3893 35.5,30.5 Z"/></g>
<g><path style="opacity:1" fill="#fcdb3e" d="M 51.5,14.5 C 53.1614,16.3276 54.8281,18.3276 56.5,20.5C 63.1908,21.2017 69.8575,21.8684 76.5,22.5C 77.9217,21.2232 78.9217,21.5565 79.5,23.5C 79.4226,24.7498 78.756,25.5831 77.5,26C 79.9351,27.0034 79.6018,27.5034 76.5,27.5C 75.0055,27.2908 73.8388,26.6241 73,25.5C 69.7699,25.9963 66.6032,26.3297 63.5,26.5C 59.2368,25.1289 55.2368,22.9623 51.5,20C 50.6634,18.9887 50.33,17.8221 50.5,16.5C 50.3284,15.5084 50.6618,14.8417 51.5,14.5 Z"/></g>
<g><path style="opacity:1" fill="#ce7d86" d="M 47.5,26.5 C 47.5,25.8333 47.8333,25.5 48.5,25.5C 50.9496,25.298 53.283,25.6314 55.5,26.5C 55.5,26.8333 55.5,27.1667 55.5,27.5C 52.8333,27.1667 50.1667,26.8333 47.5,26.5 Z"/></g>
<g><path style="opacity:1" fill="#f5ae7f" d="M 55.5,27.5 C 55.5,27.1667 55.5,26.8333 55.5,26.5C 59.9099,26.2872 63.2432,27.9539 65.5,31.5C 65.1667,31.5 64.8333,31.5 64.5,31.5C 63.8333,31.1667 63.1667,30.8333 62.5,30.5C 61.4863,29.3263 60.153,28.6596 58.5,28.5C 57.791,27.596 56.791,27.2627 55.5,27.5 Z"/></g>
<g><path style="opacity:1" fill="#ac48a5" d="M 47.5,26.5 C 50.1667,26.8333 52.8333,27.1667 55.5,27.5C 56.791,27.2627 57.791,27.596 58.5,28.5C 55.1501,28.665 51.8168,28.4983 48.5,28C 47.944,27.6174 47.6107,27.1174 47.5,26.5 Z"/></g>
<g><path style="opacity:1" fill="#fdda46" d="M 79.5,18.5 C 81.5497,20.2368 83.383,22.2368 85,24.5C 84.7374,23.0494 84.9041,21.7161 85.5,20.5C 94.6594,27.4906 98.9927,36.8239 98.5,48.5C 94.9558,48.7612 93.1225,47.0945 93,43.5C 92.8078,45.5767 92.3078,47.5767 91.5,49.5C 90.8936,45.4839 90.3936,41.1505 90,36.5C 88.2141,33.6384 85.8808,32.9717 83,34.5C 81.5295,33.7334 80.0295,33.0668 78.5,32.5C 73.8375,29.6692 68.8375,27.6692 63.5,26.5C 66.6032,26.3297 69.7699,25.9963 73,25.5C 73.8388,26.6241 75.0055,27.2908 76.5,27.5C 79.6018,27.5034 79.9351,27.0034 77.5,26C 78.756,25.5831 79.4226,24.7498 79.5,23.5C 80.2389,23.631 80.9056,23.4643 81.5,23C 80.4178,21.6703 79.7512,20.1703 79.5,18.5 Z"/></g>
<g><path style="opacity:1" fill="#fc8b13" d="M 25.5,32.5 C 26.2543,35.091 27.921,36.9243 30.5,38C 29.2625,38.2321 28.2625,38.7321 27.5,39.5C 23.7852,39.423 20.1185,39.7564 16.5,40.5C 17.6002,39.4415 18.9336,38.6082 20.5,38C 18.578,36.5804 17.2446,34.7471 16.5,32.5C 12.5135,30.8658 10.8469,27.8658 11.5,23.5C 12.1174,23.3893 12.6174,23.056 13,22.5C 15.489,26.3912 18.489,29.7245 22,32.5C 22.3333,31.8333 22.6667,31.1667 23,30.5C 23.4169,31.756 24.2502,32.4226 25.5,32.5 Z"/></g>
<g><path style="opacity:1" fill="#fb9423" d="M 26.5,22.5 C 27.552,22.3505 28.552,22.5172 29.5,23C 32.3597,26.2542 31.693,28.4208 27.5,29.5C 26.448,29.3505 25.448,29.5172 24.5,30C 25.2524,30.6708 25.5858,31.5041 25.5,32.5C 24.2502,32.4226 23.4169,31.756 23,30.5C 22.6667,31.1667 22.3333,31.8333 22,32.5C 18.489,29.7245 15.489,26.3912 13,22.5C 12.6174,23.056 12.1174,23.3893 11.5,23.5C 11.1667,23.5 10.8333,23.5 10.5,23.5C 13.1059,19.2073 16.7725,16.5406 21.5,15.5C 21.3347,19.1817 21.5014,22.8484 22,26.5C 23.3712,24.9586 24.8712,23.6253 26.5,22.5 Z"/></g>
<g><path style="opacity:1" fill="#ad4890" d="M 58.5,28.5 C 60.153,28.6596 61.4863,29.3263 62.5,30.5C 61.8333,30.5 61.1667,30.5 60.5,30.5C 59.5,30.1667 58.8333,29.5 58.5,28.5 Z"/></g>
<g><path style="opacity:1" fill="#fdce45" d="M 50.5,16.5 C 50.33,17.8221 50.6634,18.9887 51.5,20C 55.2368,22.9623 59.2368,25.1289 63.5,26.5C 68.8375,27.6692 73.8375,29.6692 78.5,32.5C 78.1667,33.1667 77.8333,33.8333 77.5,34.5C 74.8333,33.5 72.1667,32.5 69.5,31.5C 68.1667,31.5 66.8333,31.5 65.5,31.5C 63.2432,27.9539 59.9099,26.2872 55.5,26.5C 53.283,25.6314 50.9496,25.298 48.5,25.5C 48.2153,22.1709 48.8819,19.1709 50.5,16.5 Z"/></g>
<g><path style="opacity:1" fill="#ae39dc" d="M 47.5,26.5 C 47.6107,27.1174 47.944,27.6174 48.5,28C 51.8168,28.4983 55.1501,28.665 58.5,28.5C 58.8333,29.5 59.5,30.1667 60.5,30.5C 59.8333,32.8333 59.1667,35.1667 58.5,37.5C 57.7611,37.631 57.0944,37.4643 56.5,37C 59.5843,33.5604 58.7509,31.3937 54,30.5C 50.5448,30.6298 48.3781,32.2964 47.5,35.5C 45.0971,35.552 42.7638,35.2186 40.5,34.5C 38.7497,33.3406 37.7497,31.674 37.5,29.5C 40.2882,27.0237 43.6215,26.0237 47.5,26.5 Z"/></g>
<g><path style="opacity:1" fill="#b24e90" d="M 37.5,29.5 C 37.7497,31.674 38.7497,33.3406 40.5,34.5C 41.1667,35.5 41.8333,36.5 42.5,37.5C 40.9382,37.2671 39.6049,36.6005 38.5,35.5C 37.075,34.078 36.075,32.4113 35.5,30.5C 36.1667,30.1667 36.8333,29.8333 37.5,29.5 Z"/></g>
<g><path style="opacity:1" fill="#b041c2" d="M 60.5,30.5 C 61.1667,30.5 61.8333,30.5 62.5,30.5C 63.1667,30.8333 63.8333,31.1667 64.5,31.5C 64.4142,32.4959 64.7476,33.3292 65.5,34C 64.5842,34.2784 63.9175,34.7784 63.5,35.5C 62.6236,35.3691 61.9569,35.7025 61.5,36.5C 62.1925,37.5178 62.8592,38.5178 63.5,39.5C 61.302,39.8799 59.6354,39.2132 58.5,37.5C 59.1667,35.1667 59.8333,32.8333 60.5,30.5 Z"/></g>
<g><path style="opacity:1" fill="#fdcd47" d="M 78.5,32.5 C 80.0295,33.0668 81.5295,33.7334 83,34.5C 85.8808,32.9717 88.2141,33.6384 90,36.5C 90.3936,41.1505 90.8936,45.4839 91.5,49.5C 92.3078,47.5767 92.8078,45.5767 93,43.5C 93.1225,47.0945 94.9558,48.7612 98.5,48.5C 98.5,50.8333 98.5,53.1667 98.5,55.5C 96.3742,55.8499 94.0408,55.8499 91.5,55.5C 89.8658,50.5627 88.8658,45.2294 88.5,39.5C 87.7132,38.7579 87.0465,37.9246 86.5,37C 83.322,36.3405 80.322,35.5072 77.5,34.5C 77.8333,33.8333 78.1667,33.1667 78.5,32.5 Z"/></g>
<g><path style="opacity:1" fill="#fd7b20" d="M 10.5,23.5 C 10.8333,23.5 11.1667,23.5 11.5,23.5C 10.8469,27.8658 12.5135,30.8658 16.5,32.5C 17.2446,34.7471 18.578,36.5804 20.5,38C 18.9336,38.6082 17.6002,39.4415 16.5,40.5C 15.4017,41.6009 15.235,42.9343 16,44.5C 17.3756,45.7051 18.5423,47.0384 19.5,48.5C 17.9557,48.2969 16.6223,47.6302 15.5,46.5C 14.6786,43.5535 14.1786,40.5535 14,37.5C 12.2368,34.9804 10.2368,32.6471 8,30.5C 7.31001,31.7383 6.81001,31.7383 6.5,30.5C 7.0787,27.6689 8.41203,25.3356 10.5,23.5 Z"/></g>
<g><path style="opacity:1" fill="#b047c9" d="M 40.5,34.5 C 42.7638,35.2186 45.0971,35.552 47.5,35.5C 47.5,36.8333 47.5,38.1667 47.5,39.5C 45.8333,38.8333 44.1667,38.1667 42.5,37.5C 41.8333,36.5 41.1667,35.5 40.5,34.5 Z"/></g>
<g><path style="opacity:1" fill="#b041e9" d="M 58.5,37.5 C 59.6354,39.2132 61.302,39.8799 63.5,39.5C 63.8333,39.5 64.1667,39.5 64.5,39.5C 64.3653,41.5542 65.032,43.2209 66.5,44.5C 66.5,45.8333 66.5,47.1667 66.5,48.5C 63.237,48.3257 61.5704,46.659 61.5,43.5C 58.1667,42.8333 54.8333,42.1667 51.5,41.5C 50.4863,40.3263 49.153,39.6596 47.5,39.5C 47.5,38.1667 47.5,36.8333 47.5,35.5C 48.3781,32.2964 50.5448,30.6298 54,30.5C 58.7509,31.3937 59.5843,33.5604 56.5,37C 57.0944,37.4643 57.7611,37.631 58.5,37.5 Z"/></g>
<g><path style="opacity:1" fill="#a9506b" d="M 64.5,31.5 C 64.8333,31.5 65.1667,31.5 65.5,31.5C 66.4577,32.9616 67.6244,34.2949 69,35.5C 69.6917,36.4368 69.525,37.1034 68.5,37.5C 66.9724,36.6908 65.3057,36.0241 63.5,35.5C 63.9175,34.7784 64.5842,34.2784 65.5,34C 64.7476,33.3292 64.4142,32.4959 64.5,31.5 Z"/></g>
<g><path style="opacity:1" fill="#f3b861" d="M 65.5,31.5 C 66.8333,31.5 68.1667,31.5 69.5,31.5C 70.5664,33.7014 71.233,36.0347 71.5,38.5C 69.8008,38.3398 68.1341,38.5065 66.5,39C 67.3366,40.0113 67.67,41.1779 67.5,42.5C 66.0937,42.0269 65.427,41.0269 65.5,39.5C 65.8212,37.9519 66.8212,37.2852 68.5,37.5C 69.525,37.1034 69.6917,36.4368 69,35.5C 67.6244,34.2949 66.4577,32.9616 65.5,31.5 Z"/></g>
<g><path style="opacity:1" fill="#fdc944" d="M 69.5,31.5 C 72.1667,32.5 74.8333,33.5 77.5,34.5C 80.322,35.5072 83.322,36.3405 86.5,37C 87.0465,37.9246 87.7132,38.7579 88.5,39.5C 88.8658,45.2294 89.8658,50.5627 91.5,55.5C 91.5,56.1667 91.5,56.8333 91.5,57.5C 89.9657,58.2029 88.299,58.0363 86.5,57C 88.0223,52.6614 88.6889,48.1614 88.5,43.5C 86.1579,43.4959 84.1579,42.6625 82.5,41C 80.1902,40.5034 77.8568,40.3367 75.5,40.5C 77.3374,45.4625 78.004,50.4625 77.5,55.5C 75.5,55.5 73.5,55.5 71.5,55.5C 71.7947,53.2646 71.4614,51.2646 70.5,49.5C 70.5,48.8333 70.1667,48.5 69.5,48.5C 69.5,48.1667 69.5,47.8333 69.5,47.5C 69.8799,45.302 69.2132,43.6354 67.5,42.5C 67.67,41.1779 67.3366,40.0113 66.5,39C 68.1341,38.5065 69.8008,38.3398 71.5,38.5C 71.233,36.0347 70.5664,33.7014 69.5,31.5 Z"/></g>
<g><path style="opacity:1" fill="#f5b0a9" d="M 63.5,35.5 C 65.3057,36.0241 66.9724,36.6908 68.5,37.5C 66.8212,37.2852 65.8212,37.9519 65.5,39.5C 65.1667,39.5 64.8333,39.5 64.5,39.5C 64.1667,39.5 63.8333,39.5 63.5,39.5C 62.8592,38.5178 62.1925,37.5178 61.5,36.5C 61.9569,35.7025 62.6236,35.3691 63.5,35.5 Z"/></g>
<g><path style="opacity:1" fill="#fca219" d="M 27.5,29.5 C 29.8333,30.1667 32.1667,30.8333 34.5,31.5C 34.4877,34.142 35.821,35.4754 38.5,35.5C 39.6049,36.6005 40.9382,37.2671 42.5,37.5C 43.5274,39.1942 44.8608,40.5275 46.5,41.5C 46.5,41.8333 46.5,42.1667 46.5,42.5C 46.1667,42.5 45.8333,42.5 45.5,42.5C 40.3021,41.7412 34.9687,41.0746 29.5,40.5C 29.1583,39.6618 28.4916,39.3284 27.5,39.5C 28.2625,38.7321 29.2625,38.2321 30.5,38C 27.921,36.9243 26.2543,35.091 25.5,32.5C 25.5858,31.5041 25.2524,30.6708 24.5,30C 25.448,29.5172 26.448,29.3505 27.5,29.5 Z"/></g>
<g><path style="opacity:1" fill="#e18f82" d="M 42.5,37.5 C 44.1667,38.1667 45.8333,38.8333 47.5,39.5C 47.8333,40.1667 48.1667,40.8333 48.5,41.5C 47.8333,41.5 47.1667,41.5 46.5,41.5C 44.8608,40.5275 43.5274,39.1942 42.5,37.5 Z"/></g>
<g><path style="opacity:1" fill="#fdab27" d="M 27.5,39.5 C 28.4916,39.3284 29.1583,39.6618 29.5,40.5C 28.7611,40.369 28.0944,40.5357 27.5,41C 28.8333,41.6667 28.8333,42.3333 27.5,43C 29.1412,44.129 30.1412,45.629 30.5,47.5C 30.5,48.5 30.5,49.5 30.5,50.5C 30.1667,51.1667 29.8333,51.8333 29.5,52.5C 28.2719,53.3065 27.2719,54.3065 26.5,55.5C 25.8271,51.4937 23.4937,49.1604 19.5,48.5C 18.5423,47.0384 17.3756,45.7051 16,44.5C 15.235,42.9343 15.4017,41.6009 16.5,40.5C 20.1185,39.7564 23.7852,39.423 27.5,39.5 Z"/></g>
<g><path style="opacity:1" fill="#fab927" d="M 29.5,40.5 C 34.9687,41.0746 40.3021,41.7412 45.5,42.5C 40.7707,44.2988 35.7707,45.9654 30.5,47.5C 30.1412,45.629 29.1412,44.129 27.5,43C 28.8333,42.3333 28.8333,41.6667 27.5,41C 28.0944,40.5357 28.7611,40.369 29.5,40.5 Z"/></g>
<g><path style="opacity:1" fill="#f8bd8b" d="M 46.5,41.5 C 47.1667,41.5 47.8333,41.5 48.5,41.5C 49.4728,43.2916 48.8061,44.625 46.5,45.5C 46.5,44.5 46.5,43.5 46.5,42.5C 46.5,42.1667 46.5,41.8333 46.5,41.5 Z"/></g>
<g><path style="opacity:1" fill="#fe5c2d" d="M 4.5,38.5 C 5.76597,39.0899 7.0993,39.5899 8.5,40C 13.3152,47.6464 19.3152,54.1464 26.5,59.5C 27.1667,59.5 27.5,59.8333 27.5,60.5C 27.5,61.5 27.5,62.5 27.5,63.5C 25.1525,61.163 22.4858,59.163 19.5,57.5C 18.1468,56.4763 17.4802,55.143 17.5,53.5C 13.3688,52.5433 10.2021,50.2099 8,46.5C 6.85252,47.4581 5.85252,47.1247 5,45.5C 4.6892,43.444 4.1892,41.444 3.5,39.5C 3.62358,38.8933 3.95691,38.56 4.5,38.5 Z"/></g>
<g><path style="opacity:1" fill="#ab5599" d="M 64.5,39.5 C 64.8333,39.5 65.1667,39.5 65.5,39.5C 65.427,41.0269 66.0937,42.0269 67.5,42.5C 67.5,43.1667 67.5,43.8333 67.5,44.5C 67.1667,44.5 66.8333,44.5 66.5,44.5C 65.032,43.2209 64.3653,41.5542 64.5,39.5 Z"/></g>
<g><path style="opacity:1" fill="#9b4df4" d="M 51.5,41.5 C 54.8333,42.1667 58.1667,42.8333 61.5,43.5C 61.5704,46.659 63.237,48.3257 66.5,48.5C 66.5,50.8333 66.5,53.1667 66.5,55.5C 64.0363,58.2155 61.8696,57.8822 60,54.5C 58.6439,55.3802 57.1439,55.7135 55.5,55.5C 53.2113,53.552 50.878,51.552 48.5,49.5C 49.1272,48.5832 49.4606,47.5832 49.5,46.5C 50.4408,44.9505 51.1075,43.2838 51.5,41.5 Z"/></g>
<g><path style="opacity:1" fill="#f0b291" d="M 67.5,42.5 C 69.2132,43.6354 69.8799,45.302 69.5,47.5C 68.8333,46.5 68.1667,45.5 67.5,44.5C 67.5,43.8333 67.5,43.1667 67.5,42.5 Z"/></g>
<g><path style="opacity:1" fill="#a961bd" d="M 47.5,39.5 C 49.153,39.6596 50.4863,40.3263 51.5,41.5C 51.1075,43.2838 50.4408,44.9505 49.5,46.5C 48.0413,46.4326 46.7079,46.7659 45.5,47.5C 45.3284,46.5084 45.6618,45.8417 46.5,45.5C 48.8061,44.625 49.4728,43.2916 48.5,41.5C 48.1667,40.8333 47.8333,40.1667 47.5,39.5 Z"/></g>
<g><path style="opacity:1" fill="#f1b75e" d="M 45.5,42.5 C 45.8333,42.5 46.1667,42.5 46.5,42.5C 46.5,43.5 46.5,44.5 46.5,45.5C 45.6618,45.8417 45.3284,46.5084 45.5,47.5C 42.3915,47.2641 39.3915,47.5975 36.5,48.5C 34.4214,48.9707 32.4214,49.6373 30.5,50.5C 30.5,49.5 30.5,48.5 30.5,47.5C 35.7707,45.9654 40.7707,44.2988 45.5,42.5 Z"/></g>
<g><path style="opacity:1" fill="#8d60ae" d="M 45.5,47.5 C 42.1138,48.1347 38.7804,49.1347 35.5,50.5C 35.8333,49.8333 36.1667,49.1667 36.5,48.5C 39.3915,47.5975 42.3915,47.2641 45.5,47.5 Z"/></g>
<g><path style="opacity:1" fill="#a1626f" d="M 36.5,48.5 C 36.1667,49.1667 35.8333,49.8333 35.5,50.5C 35.1667,50.5 34.8333,50.5 34.5,50.5C 32.5887,51.075 30.922,52.075 29.5,53.5C 29.5,53.1667 29.5,52.8333 29.5,52.5C 29.8333,51.8333 30.1667,51.1667 30.5,50.5C 32.4214,49.6373 34.4214,48.9707 36.5,48.5 Z"/></g>
<g><path style="opacity:1" fill="#973ec8" d="M 66.5,44.5 C 66.8333,44.5 67.1667,44.5 67.5,44.5C 68.8333,50.5 68.8333,56.5 67.5,62.5C 66.8333,62.8333 66.1667,63.1667 65.5,63.5C 66.0916,60.8728 66.4249,58.2062 66.5,55.5C 66.5,53.1667 66.5,50.8333 66.5,48.5C 66.5,47.1667 66.5,45.8333 66.5,44.5 Z"/></g>
<g><path style="opacity:1" fill="#fcb940" d="M 91.5,57.5 C 91.3921,59.7834 90.5588,61.7834 89,63.5C 86.6742,63.12 84.8409,62.12 83.5,60.5C 83.4021,58.4471 84.0687,56.7804 85.5,55.5C 86.3432,53.5128 87.0098,51.3461 87.5,49C 85.198,47.1756 82.8647,45.3422 80.5,43.5C 79.914,43.7093 79.414,44.0426 79,44.5C 78.8227,48.3563 78.3227,52.023 77.5,55.5C 78.004,50.4625 77.3374,45.4625 75.5,40.5C 77.8568,40.3367 80.1902,40.5034 82.5,41C 84.1579,42.6625 86.1579,43.4959 88.5,43.5C 88.6889,48.1614 88.0223,52.6614 86.5,57C 88.299,58.0363 89.9657,58.2029 91.5,57.5 Z"/></g>
<g><path style="opacity:1" fill="#fb6a26" d="M 6.5,30.5 C 6.81001,31.7383 7.31001,31.7383 8,30.5C 10.2368,32.6471 12.2368,34.9804 14,37.5C 14.1786,40.5535 14.6786,43.5535 15.5,46.5C 16.6223,47.6302 17.9557,48.2969 19.5,48.5C 23.4937,49.1604 25.8271,51.4937 26.5,55.5C 26.5,56.8333 26.5,58.1667 26.5,59.5C 19.3152,54.1464 13.3152,47.6464 8.5,40C 7.0993,39.5899 5.76597,39.0899 4.5,38.5C 4.5,37.1667 4.5,35.8333 4.5,34.5C 4.6596,32.847 5.32627,31.5137 6.5,30.5 Z"/></g>
<g><path style="opacity:1" fill="#7b55e8" d="M 49.5,46.5 C 49.4606,47.5832 49.1272,48.5832 48.5,49.5C 50.878,51.552 53.2113,53.552 55.5,55.5C 51.8153,54.9963 48.1486,54.3296 44.5,53.5C 42.4861,53.4365 40.8194,54.1032 39.5,55.5C 38.8333,55.5 38.1667,55.5 37.5,55.5C 35.8561,55.2865 34.3561,55.6198 33,56.5C 32.5172,55.552 32.3505,54.552 32.5,53.5C 33.1667,52.5 33.8333,51.5 34.5,50.5C 34.8333,50.5 35.1667,50.5 35.5,50.5C 38.7804,49.1347 42.1138,48.1347 45.5,47.5C 46.7079,46.7659 48.0413,46.4326 49.5,46.5 Z"/></g>
<g><path style="opacity:1" fill="#9a4490" d="M 67.5,44.5 C 68.1667,45.5 68.8333,46.5 69.5,47.5C 69.5,47.8333 69.5,48.1667 69.5,48.5C 69.6653,52.1817 69.4986,55.8484 69,59.5C 68.7679,60.7375 68.2679,61.7375 67.5,62.5C 68.8333,56.5 68.8333,50.5 67.5,44.5 Z"/></g>
<g><path style="opacity:1" fill="#fc5534" d="M 4.5,34.5 C 4.5,35.8333 4.5,37.1667 4.5,38.5C 3.95691,38.56 3.62358,38.8933 3.5,39.5C 4.1892,41.444 4.6892,43.444 5,45.5C 5.85252,47.1247 6.85252,47.4581 8,46.5C 10.2021,50.2099 13.3688,52.5433 17.5,53.5C 17.4802,55.143 18.1468,56.4763 19.5,57.5C 22.4858,59.163 25.1525,61.163 27.5,63.5C 25.3282,64.4215 23.6615,63.5882 22.5,61C 17.1236,59.642 12.7903,56.642 9.5,52C 8.55085,51.3828 7.71752,51.5494 7,52.5C 6.24109,50.9371 5.07442,49.9371 3.5,49.5C 3.16667,49.5 2.83333,49.5 2.5,49.5C 2.16667,49.5 1.83333,49.5 1.5,49.5C 0.981626,44.073 1.98163,39.073 4.5,34.5 Z"/></g>
<g><path style="opacity:1" fill="#f6964d" d="M 85.5,55.5 C 84.0687,56.7804 83.4021,58.4471 83.5,60.5C 81.7697,61.0256 80.4363,62.0256 79.5,63.5C 78.1667,63.5 77.5,62.8333 77.5,61.5C 79.3584,57.4731 80.0251,53.1398 79.5,48.5C 84.3731,48.373 86.3731,50.7064 85.5,55.5 Z"/></g>
<g><path style="opacity:1" fill="#6d5fe7" d="M 55.5,55.5 C 55.5,58.1667 55.5,60.8333 55.5,63.5C 53.1667,63.5 50.8333,63.5 48.5,63.5C 48.3808,58.7883 46.0474,57.1216 41.5,58.5C 40.5748,57.6431 39.9081,56.6431 39.5,55.5C 40.8194,54.1032 42.4861,53.4365 44.5,53.5C 48.1486,54.3296 51.8153,54.9963 55.5,55.5 Z"/></g>
<g><path style="opacity:1" fill="#fca946" d="M 91.5,55.5 C 94.0408,55.8499 96.3742,55.8499 98.5,55.5C 98.8016,58.0593 98.4682,60.3926 97.5,62.5C 95.9139,63.4132 94.4139,63.4132 93,62.5C 91.6343,64.3617 90.1343,66.0283 88.5,67.5C 85.5,67.5 82.5,67.5 79.5,67.5C 79.5,66.1667 79.5,64.8333 79.5,63.5C 80.4363,62.0256 81.7697,61.0256 83.5,60.5C 84.8409,62.12 86.6742,63.12 89,63.5C 90.5588,61.7834 91.3921,59.7834 91.5,57.5C 91.5,56.8333 91.5,56.1667 91.5,55.5 Z"/></g>
<g><path style="opacity:1" fill="#713786" d="M 34.5,50.5 C 33.8333,51.5 33.1667,52.5 32.5,53.5C 30.3843,55.0881 30.051,57.0881 31.5,59.5C 33.7127,63.3708 36.3794,66.7042 39.5,69.5C 38.609,68.8902 37.609,68.5569 36.5,68.5C 34.8333,67.1667 33.1667,65.8333 31.5,64.5C 30.1221,62.0403 29.1221,59.3736 28.5,56.5C 28.685,55.4163 29.0183,54.4163 29.5,53.5C 30.922,52.075 32.5887,51.075 34.5,50.5 Z"/></g>
<g><path style="opacity:1" fill="#fb503b" d="M 3.5,49.5 C 5.07442,49.9371 6.24109,50.9371 7,52.5C 7.71752,51.5494 8.55085,51.3828 9.5,52C 12.7903,56.642 17.1236,59.642 22.5,61C 23.6615,63.5882 25.3282,64.4215 27.5,63.5C 27.5,62.5 27.5,61.5 27.5,60.5C 28.2828,62.328 29.6161,63.6613 31.5,64.5C 32.4151,66.7541 33.7484,68.7541 35.5,70.5C 33.3373,73.2686 31.3373,73.1019 29.5,70C 26.4055,69.2862 23.4055,68.2862 20.5,67C 19.6634,65.9887 19.33,64.8221 19.5,63.5C 17.7839,63.3713 16.1172,63.038 14.5,62.5C 12.9826,62.4894 11.8159,61.8228 11,60.5C 9.5619,59.0997 8.72857,57.433 8.5,55.5C 7.04125,55.5674 5.70792,55.2341 4.5,54.5C 4.37133,52.7839 4.038,51.1172 3.5,49.5 Z"/></g>
<g><path style="opacity:1" fill="#fda63d" d="M 85.5,55.5 C 86.3731,50.7064 84.3731,48.373 79.5,48.5C 80.0251,53.1398 79.3584,57.4731 77.5,61.5C 75.5992,61.4332 73.7659,61.7665 72,62.5C 70.9701,62.1639 70.4701,61.4972 70.5,60.5C 70.5,56.8333 70.5,53.1667 70.5,49.5C 71.4614,51.2646 71.7947,53.2646 71.5,55.5C 73.5,55.5 75.5,55.5 77.5,55.5C 78.3227,52.023 78.8227,48.3563 79,44.5C 79.414,44.0426 79.914,43.7093 80.5,43.5C 82.8647,45.3422 85.198,47.1756 87.5,49C 87.0098,51.3461 86.3432,53.5128 85.5,55.5 Z"/></g>
<g><path style="opacity:1" fill="#e88662" d="M 29.5,52.5 C 29.5,52.8333 29.5,53.1667 29.5,53.5C 29.0183,54.4163 28.685,55.4163 28.5,56.5C 29.1221,59.3736 30.1221,62.0403 31.5,64.5C 29.6161,63.6613 28.2828,62.328 27.5,60.5C 27.5,59.8333 27.1667,59.5 26.5,59.5C 26.5,58.1667 26.5,56.8333 26.5,55.5C 27.2719,54.3065 28.2719,53.3065 29.5,52.5 Z"/></g>
<g><path style="opacity:1" fill="#6040b9" d="M 32.5,53.5 C 32.3505,54.552 32.5172,55.552 33,56.5C 34.3561,55.6198 35.8561,55.2865 37.5,55.5C 39.0507,57.9128 39.7174,60.5794 39.5,63.5C 40.5,63.5 41.5,63.5 42.5,63.5C 42.4208,64.9305 42.7542,66.2638 43.5,67.5C 45.3413,68.2304 47.1746,68.8971 49,69.5C 50.7542,67.75 52.9208,67.0833 55.5,67.5C 55.5,66.5 55.5,65.5 55.5,64.5C 56.404,65.209 56.7373,66.209 56.5,67.5C 58.861,67.3259 61.1944,66.9926 63.5,66.5C 63.5,66.8333 63.5,67.1667 63.5,67.5C 63.5,68.1667 63.1667,68.5 62.5,68.5C 58.639,69.3443 54.8057,70.3443 51,71.5C 47.5101,71.0013 44.0101,70.668 40.5,70.5C 39.8333,70.5 39.5,70.1667 39.5,69.5C 36.3794,66.7042 33.7127,63.3708 31.5,59.5C 30.051,57.0881 30.3843,55.0881 32.5,53.5 Z"/></g>
<g><path style="opacity:1" fill="#de896d" d="M 69.5,48.5 C 70.1667,48.5 70.5,48.8333 70.5,49.5C 70.5,53.1667 70.5,56.8333 70.5,60.5C 69.6554,61.6715 68.9887,63.0048 68.5,64.5C 68.1667,64.5 67.8333,64.5 67.5,64.5C 67.5,63.8333 67.5,63.1667 67.5,62.5C 68.2679,61.7375 68.7679,60.7375 69,59.5C 69.4986,55.8484 69.6653,52.1817 69.5,48.5 Z"/></g>
<g><path style="opacity:1" fill="#7e45dd" d="M 66.5,55.5 C 66.4249,58.2062 66.0916,60.8728 65.5,63.5C 64.8333,64.5 64.1667,65.5 63.5,66.5C 61.1944,66.9926 58.861,67.3259 56.5,67.5C 56.7373,66.209 56.404,65.209 55.5,64.5C 55.5,64.1667 55.5,63.8333 55.5,63.5C 55.5,60.8333 55.5,58.1667 55.5,55.5C 57.1439,55.7135 58.6439,55.3802 60,54.5C 61.8696,57.8822 64.0363,58.2155 66.5,55.5 Z"/></g>
<g><path style="opacity:1" fill="#5c51c9" d="M 37.5,55.5 C 38.1667,55.5 38.8333,55.5 39.5,55.5C 39.9081,56.6431 40.5748,57.6431 41.5,58.5C 46.0474,57.1216 48.3808,58.7883 48.5,63.5C 50.8333,63.5 53.1667,63.5 55.5,63.5C 55.5,63.8333 55.5,64.1667 55.5,64.5C 55.5,65.5 55.5,66.5 55.5,67.5C 52.9208,67.0833 50.7542,67.75 49,69.5C 47.1746,68.8971 45.3413,68.2304 43.5,67.5C 42.7542,66.2638 42.4208,64.9305 42.5,63.5C 41.5,63.5 40.5,63.5 39.5,63.5C 39.7174,60.5794 39.0507,57.9128 37.5,55.5 Z"/></g>
<g><path style="opacity:1" fill="#933b8a" d="M 67.5,62.5 C 67.5,63.1667 67.5,63.8333 67.5,64.5C 66.1667,65.5 64.8333,66.5 63.5,67.5C 63.5,67.1667 63.5,66.8333 63.5,66.5C 64.1667,65.5 64.8333,64.5 65.5,63.5C 66.1667,63.1667 66.8333,62.8333 67.5,62.5 Z"/></g>
<g><path style="opacity:1" fill="#f99551" d="M 97.5,62.5 C 97.3713,64.2161 97.038,65.8828 96.5,67.5C 93.8333,67.5 91.1667,67.5 88.5,67.5C 90.1343,66.0283 91.6343,64.3617 93,62.5C 94.4139,63.4132 95.9139,63.4132 97.5,62.5 Z"/></g>
<g><path style="opacity:1" fill="#ca6477" d="M 31.5,64.5 C 33.1667,65.8333 34.8333,67.1667 36.5,68.5C 37.1667,69.5 37.8333,70.5 38.5,71.5C 37.391,71.4431 36.391,71.1098 35.5,70.5C 33.7484,68.7541 32.4151,66.7541 31.5,64.5 Z"/></g>
<g><path style="opacity:1" fill="#fb723a" d="M 67.5,64.5 C 67.8333,64.5 68.1667,64.5 68.5,64.5C 69.1264,67.3149 70.4598,69.8149 72.5,72C 76.4302,72.2415 80.0968,73.0749 83.5,74.5C 83.5,75.8333 82.8333,76.5 81.5,76.5C 78.2139,75.7929 74.8806,75.4595 71.5,75.5C 70.8333,73.5 70.1667,71.5 69.5,69.5C 67.4352,69.5172 65.4352,69.8505 63.5,70.5C 65.2516,68.7541 66.5849,66.7541 67.5,64.5 Z"/></g>
<g><path style="opacity:1" fill="#fe8a38" d="M 70.5,60.5 C 70.4701,61.4972 70.9701,62.1639 72,62.5C 73.7659,61.7665 75.5992,61.4332 77.5,61.5C 77.5,62.8333 78.1667,63.5 79.5,63.5C 79.5,64.8333 79.5,66.1667 79.5,67.5C 82.5,67.5 85.5,67.5 88.5,67.5C 88.1667,68.8333 87.8333,70.1667 87.5,71.5C 86.1667,72.5 84.8333,73.5 83.5,74.5C 80.0968,73.0749 76.4302,72.2415 72.5,72C 70.4598,69.8149 69.1264,67.3149 68.5,64.5C 68.9887,63.0048 69.6554,61.6715 70.5,60.5 Z"/></g>
<g><path style="opacity:1" fill="#f98256" d="M 88.5,67.5 C 91.1667,67.5 93.8333,67.5 96.5,67.5C 95.5592,69.0495 94.8925,70.7162 94.5,72.5C 92.2362,71.7814 89.9029,71.448 87.5,71.5C 87.8333,70.1667 88.1667,68.8333 88.5,67.5 Z"/></g>
<g><path style="opacity:1" fill="#943572" d="M 36.5,68.5 C 37.609,68.5569 38.609,68.8902 39.5,69.5C 39.5,70.1667 39.8333,70.5 40.5,70.5C 41.5,71.1667 42.5,71.8333 43.5,72.5C 42.8333,72.5 42.1667,72.5 41.5,72.5C 40.391,72.4431 39.391,72.1098 38.5,71.5C 37.8333,70.5 37.1667,69.5 36.5,68.5 Z"/></g>
<g><path style="opacity:1" fill="#75388e" d="M 62.5,68.5 C 60.572,70.4741 58.2387,71.9741 55.5,73C 51.3112,73.8119 47.3112,73.6453 43.5,72.5C 42.5,71.8333 41.5,71.1667 40.5,70.5C 44.0101,70.668 47.5101,71.0013 51,71.5C 54.8057,70.3443 58.639,69.3443 62.5,68.5 Z"/></g>
<g><path style="opacity:1" fill="#fd3f43" d="M 4.5,54.5 C 5.70792,55.2341 7.04125,55.5674 8.5,55.5C 8.72857,57.433 9.5619,59.0997 11,60.5C 11.8159,61.8228 12.9826,62.4894 14.5,62.5C 16.6213,65.4597 18.9546,68.293 21.5,71C 25.5126,70.6661 28.1793,72.3327 29.5,76C 30.1667,76.6667 30.8333,76.6667 31.5,76C 30.3044,75.3457 30.3044,74.8457 31.5,74.5C 34.5539,75.3466 37.5539,76.3466 40.5,77.5C 39.7542,78.7362 39.4208,80.0695 39.5,81.5C 36.9205,80.7724 34.2538,80.2724 31.5,80C 29.3228,78.4851 27.1561,76.9851 25,75.5C 23.8382,76.1868 22.6716,76.3534 21.5,76C 17.4674,73.3225 15.1341,69.6559 14.5,65C 13.5838,64.6258 12.7504,64.1258 12,63.5C 10.6043,65.5268 8.93764,65.8602 7,64.5C 5.72246,61.2794 4.88913,57.946 4.5,54.5 Z"/></g>
<g><path style="opacity:1" fill="#d85c65" d="M 67.5,64.5 C 66.5849,66.7541 65.2516,68.7541 63.5,70.5C 60.8732,72.6007 57.8732,73.9341 54.5,74.5C 50.4862,74.6655 46.4862,74.4988 42.5,74C 41.944,73.6174 41.6107,73.1174 41.5,72.5C 42.1667,72.5 42.8333,72.5 43.5,72.5C 47.3112,73.6453 51.3112,73.8119 55.5,73C 58.2387,71.9741 60.572,70.4741 62.5,68.5C 63.1667,68.5 63.5,68.1667 63.5,67.5C 64.8333,66.5 66.1667,65.5 67.5,64.5 Z"/></g>
<g><path style="opacity:0.994" fill="#f56955" d="M 87.5,71.5 C 89.9029,71.448 92.2362,71.7814 94.5,72.5C 93.2485,74.0009 92.2485,75.6675 91.5,77.5C 88.0613,77.2529 84.728,77.5863 81.5,78.5C 81.5,77.8333 81.5,77.1667 81.5,76.5C 82.8333,76.5 83.5,75.8333 83.5,74.5C 84.8333,73.5 86.1667,72.5 87.5,71.5 Z"/></g>
<g><path style="opacity:1" fill="#fb6136" d="M 81.5,76.5 C 81.5,77.1667 81.5,77.8333 81.5,78.5C 81.1583,79.3382 80.4916,79.6716 79.5,79.5C 75.0219,79.5629 71.0219,78.2295 67.5,75.5C 63.2607,75.8172 58.9273,75.8172 54.5,75.5C 54.5,75.1667 54.5,74.8333 54.5,74.5C 57.8732,73.9341 60.8732,72.6007 63.5,70.5C 65.4352,69.8505 67.4352,69.5172 69.5,69.5C 70.1667,71.5 70.8333,73.5 71.5,75.5C 74.8806,75.4595 78.2139,75.7929 81.5,76.5 Z"/></g>
<g><path style="opacity:1" fill="#fc3949" d="M 2.5,49.5 C 2.83333,49.5 3.16667,49.5 3.5,49.5C 4.038,51.1172 4.37133,52.7839 4.5,54.5C 4.88913,57.946 5.72246,61.2794 7,64.5C 8.93764,65.8602 10.6043,65.5268 12,63.5C 12.7504,64.1258 13.5838,64.6258 14.5,65C 15.1341,69.6559 17.4674,73.3225 21.5,76C 22.6716,76.3534 23.8382,76.1868 25,75.5C 27.1561,76.9851 29.3228,78.4851 31.5,80C 34.2538,80.2724 36.9205,80.7724 39.5,81.5C 50.354,83.9369 61.354,84.9369 72.5,84.5C 71.8902,85.391 71.5569,86.391 71.5,87.5C 67.5,88.1667 63.5,88.8333 59.5,89.5C 53.9847,88.0831 48.318,87.0831 42.5,86.5C 41.1054,87.8146 40.1054,87.4812 39.5,85.5C 37.2338,84.6858 34.9005,84.1858 32.5,84C 31.8333,83.3333 31.1667,82.6667 30.5,82C 24.1154,80.4866 18.1154,78.32 12.5,75.5C 11.3272,72.9332 10.1606,70.2666 9,67.5C 7.88732,66.695 6.72065,66.0283 5.5,65.5C 2.93095,60.5456 1.93095,55.2123 2.5,49.5 Z"/></g>
<g><path style="opacity:1" fill="#fe5139" d="M 54.5,75.5 C 58.9273,75.8172 63.2607,75.8172 67.5,75.5C 71.0219,78.2295 75.0219,79.5629 79.5,79.5C 78.5637,80.9744 77.2303,81.9744 75.5,82.5C 71.2759,81.2846 66.9426,80.4512 62.5,80C 60.7406,77.1437 58.5739,76.977 56,79.5C 53.9525,78.4553 51.9525,78.4553 50,79.5C 48.3488,78.2576 46.5155,77.4243 44.5,77C 47.8796,76.6614 51.2129,76.1614 54.5,75.5 Z"/></g>
<g><path style="opacity:1" fill="#fd4640" d="M 14.5,62.5 C 16.1172,63.038 17.7839,63.3713 19.5,63.5C 19.33,64.8221 19.6634,65.9887 20.5,67C 23.4055,68.2862 26.4055,69.2862 29.5,70C 31.3373,73.1019 33.3373,73.2686 35.5,70.5C 36.391,71.1098 37.391,71.4431 38.5,71.5C 39.391,72.1098 40.391,72.4431 41.5,72.5C 41.6107,73.1174 41.944,73.6174 42.5,74C 46.4862,74.4988 50.4862,74.6655 54.5,74.5C 54.5,74.8333 54.5,75.1667 54.5,75.5C 51.2129,76.1614 47.8796,76.6614 44.5,77C 46.5155,77.4243 48.3488,78.2576 50,79.5C 51.9525,78.4553 53.9525,78.4553 56,79.5C 58.5739,76.977 60.7406,77.1437 62.5,80C 66.9426,80.4512 71.2759,81.2846 75.5,82.5C 74.7095,83.4013 73.7095,84.0679 72.5,84.5C 61.354,84.9369 50.354,83.9369 39.5,81.5C 39.4208,80.0695 39.7542,78.7362 40.5,77.5C 37.5539,76.3466 34.5539,75.3466 31.5,74.5C 30.3044,74.8457 30.3044,75.3457 31.5,76C 30.8333,76.6667 30.1667,76.6667 29.5,76C 28.1793,72.3327 25.5126,70.6661 21.5,71C 18.9546,68.293 16.6213,65.4597 14.5,62.5 Z"/></g>
<g><path style="opacity:0.763" fill="#dc1264" d="M 1.5,49.5 C 1.83333,49.5 2.16667,49.5 2.5,49.5C 1.93095,55.2123 2.93095,60.5456 5.5,65.5C 7.71198,71.0333 11.0453,75.7 15.5,79.5C 17.0283,83.692 20.0283,86.0253 24.5,86.5C 25.4618,88.6258 25.1284,90.6258 23.5,92.5C 8.21009,82.3316 0.876757,67.9983 1.5,49.5 Z"/></g>
<g><path style="opacity:0.979" fill="#ef405a" d="M 91.5,77.5 C 89.1758,80.823 86.5092,83.823 83.5,86.5C 81.3037,86.41 79.137,86.0767 77,85.5C 75.0614,85.9543 73.228,86.621 71.5,87.5C 71.5569,86.391 71.8902,85.391 72.5,84.5C 73.7095,84.0679 74.7095,83.4013 75.5,82.5C 77.2303,81.9744 78.5637,80.9744 79.5,79.5C 80.4916,79.6716 81.1583,79.3382 81.5,78.5C 84.728,77.5863 88.0613,77.2529 91.5,77.5 Z"/></g>
<g><path style="opacity:1" fill="#f93250" d="M 5.5,65.5 C 6.72065,66.0283 7.88732,66.695 9,67.5C 10.1606,70.2666 11.3272,72.9332 12.5,75.5C 18.1154,78.32 24.1154,80.4866 30.5,82C 31.1667,82.6667 31.8333,83.3333 32.5,84C 34.9005,84.1858 37.2338,84.6858 39.5,85.5C 40.1054,87.4812 41.1054,87.8146 42.5,86.5C 48.318,87.0831 53.9847,88.0831 59.5,89.5C 56.3509,90.1651 53.0175,90.4984 49.5,90.5C 43.0235,90.2207 36.6902,89.2207 30.5,87.5C 29.2876,86.7701 28.2876,85.7701 27.5,84.5C 23.2194,83.1195 19.2194,81.4528 15.5,79.5C 11.0453,75.7 7.71198,71.0333 5.5,65.5 Z"/></g>
<g><path style="opacity:0.998" fill="#e21261" d="M 15.5,79.5 C 19.2194,81.4528 23.2194,83.1195 27.5,84.5C 28.2876,85.7701 29.2876,86.7701 30.5,87.5C 32.2094,89.813 34.5428,91.313 37.5,92C 49.4354,93.6841 60.7687,92.1841 71.5,87.5C 73.228,86.621 75.0614,85.9543 77,85.5C 79.137,86.0767 81.3037,86.41 83.5,86.5C 81.5574,89.4707 78.8908,91.4707 75.5,92.5C 72.9707,89.7861 70.6374,89.9528 68.5,93C 71.0635,93.763 71.0635,94.263 68.5,94.5C 66.5,93.8333 64.5,93.1667 62.5,92.5C 61.09,92.8678 60.09,93.7011 59.5,95C 52.1667,95.6667 44.8333,95.6667 37.5,95C 35.3246,91.9554 32.3246,90.7887 28.5,91.5C 28.5,92.5 28.5,93.5 28.5,94.5C 26.4862,94.6085 24.8195,93.9418 23.5,92.5C 25.1284,90.6258 25.4618,88.6258 24.5,86.5C 20.0283,86.0253 17.0283,83.692 15.5,79.5 Z"/></g>
<g><path style="opacity:1" fill="#ec2057" d="M 30.5,87.5 C 36.6902,89.2207 43.0235,90.2207 49.5,90.5C 53.0175,90.4984 56.3509,90.1651 59.5,89.5C 63.5,88.8333 67.5,88.1667 71.5,87.5C 60.7687,92.1841 49.4354,93.6841 37.5,92C 34.5428,91.313 32.2094,89.813 30.5,87.5 Z"/></g>
<g><path style="opacity:0.905" fill="#e20c6d" d="M 75.5,92.5 C 70.9669,95.791 65.9669,98.1243 60.5,99.5C 53.5,99.5 46.5,99.5 39.5,99.5C 35.4706,98.6523 31.8039,96.9856 28.5,94.5C 28.5,93.5 28.5,92.5 28.5,91.5C 32.3246,90.7887 35.3246,91.9554 37.5,95C 44.8333,95.6667 52.1667,95.6667 59.5,95C 60.09,93.7011 61.09,92.8678 62.5,92.5C 64.5,93.1667 66.5,93.8333 68.5,94.5C 71.0635,94.263 71.0635,93.763 68.5,93C 70.6374,89.9528 72.9707,89.7861 75.5,92.5 Z"/></g>
</svg>
