<?xml version="1.0" encoding="UTF-8"?>
<!DOCTYPE svg PUBLIC "-//W3C//DTD SVG 1.1//EN" "http://www.w3.org/Graphics/SVG/1.1/DTD/svg11.dtd">
<svg xmlns="http://www.w3.org/2000/svg" version="1.1" width="100px" height="100px" style="shape-rendering:geometricPrecision; text-rendering:geometricPrecision; image-rendering:optimizeQuality; fill-rule:evenodd; clip-rule:evenodd" xmlns:xlink="http://www.w3.org/1999/xlink">
<g><path style="opacity:0.993" fill="#46d1fc" d="M 57.5,-0.5 C 68.1667,-0.5 78.8333,-0.5 89.5,-0.5C 79.8063,10.5271 69.4729,20.8604 58.5,30.5C 56.5895,32.2838 54.2562,33.2838 51.5,33.5C 51.5,35.1667 51.5,36.8333 51.5,38.5C 42.5441,47.7874 33.2108,56.7874 23.5,65.5C 18.6418,60.1426 13.6418,54.976 8.5,50C 24.688,32.9794 41.0213,16.1461 57.5,-0.5 Z"/></g>
<g><path style="opacity:1" fill="#50d3ee" d="M 58.5,30.5 C 56.3657,33.3861 54.0323,36.0528 51.5,38.5C 51.5,36.8333 51.5,35.1667 51.5,33.5C 54.2562,33.2838 56.5895,32.2838 58.5,30.5 Z"/></g>
<g><path style="opacity:0.997" fill="#46d1fc" d="M 63.5,71.5 C 62.0222,71.762 60.6888,71.4287 59.5,70.5C 55.4773,65.8138 51.4773,61.1472 47.5,56.5C 50.5829,52.2203 54.2496,48.387 58.5,45C 68.8494,44.1677 79.1828,44.3344 89.5,45.5C 81.1457,54.521 72.479,63.1877 63.5,71.5 Z"/></g>
<g><path style="opacity:1" fill="#22bcfa" d="M 47.5,56.5 C 51.4773,61.1472 55.4773,65.8138 59.5,70.5C 60.6888,71.4287 62.0222,71.762 63.5,71.5C 63.5,71.8333 63.5,72.1667 63.5,72.5C 57.7586,77.2377 52.0919,82.2377 46.5,87.5C 41.1816,82.8483 36.1816,77.8483 31.5,72.5C 32.7692,70.9355 33.9359,69.2688 35,67.5C 38.9485,63.465 43.1151,59.7984 47.5,56.5 Z"/></g>
<g><path style="opacity:0.995" fill="#08599d" d="M 63.5,72.5 C 72.1667,81.5 80.8333,90.5 89.5,99.5C 78.8333,99.5 68.1667,99.5 57.5,99.5C 53.8051,95.4741 50.1384,91.4741 46.5,87.5C 52.0919,82.2377 57.7586,77.2377 63.5,72.5 Z"/></g>
</svg>
