<?xml version="1.0" encoding="UTF-8"?>
<!DOCTYPE svg PUBLIC "-//W3C//DTD SVG 1.1//EN" "http://www.w3.org/Graphics/SVG/1.1/DTD/svg11.dtd">
<svg xmlns="http://www.w3.org/2000/svg" version="1.1" width="100px" height="100px" style="shape-rendering:geometricPrecision; text-rendering:geometricPrecision; image-rendering:optimizeQuality; fill-rule:evenodd; clip-rule:evenodd" xmlns:xlink="http://www.w3.org/1999/xlink">
<g><path style="opacity:0.982" fill="#ee5033" d="M 45.5,-0.5 C 48.1667,-0.5 50.8333,-0.5 53.5,-0.5C 64.1667,10.5 74.8333,21.5 85.5,32.5C 83.6565,34.2789 82.9898,36.6122 83.5,39.5C 81.7231,39.7863 80.0564,40.4529 78.5,41.5C 76.1625,40.1255 74.4959,40.7922 73.5,43.5C 71.4727,43.6621 69.4727,43.4955 67.5,43C 64,39.5 60.5,36 57,32.5C 57.5,25 54,21.5 46.5,22C 43,18.5 39.5,15 36,11.5C 35.3333,10.8333 35.3333,10.1667 36,9.5C 39.3709,6.29747 42.5375,2.96414 45.5,-0.5 Z"/></g>
<g><path style="opacity:1" fill="#e8552c" d="M 43.5,3.5 C 49.7245,3.44938 50.0578,4.78271 44.5,7.5C 43.5713,6.31116 43.238,4.97782 43.5,3.5 Z"/></g>
<g><path style="opacity:0.996" fill="#ee5032" d="M 42.5,30.5 C 41.5244,31.8149 40.5244,33.1482 39.5,34.5C 41.6841,33.8919 43.6841,34.5586 45.5,36.5C 46.4287,37.6888 46.762,39.0222 46.5,40.5C 42.9957,40.0726 39.329,40.0726 35.5,40.5C 35.5,42.8333 35.5,45.1667 35.5,47.5C 37.2624,47.6427 38.9291,47.3094 40.5,46.5C 41.4776,46.9767 42.3109,47.6433 43,48.5C 43.5654,55.5181 43.3988,62.5181 42.5,69.5C 42.706,74.7052 45.3727,77.7052 50.5,78.5C 51.7791,79.968 53.4458,80.6347 55.5,80.5C 55.2161,83.7766 55.5495,86.9433 56.5,90C 53.9865,91.2525 51.3198,91.7525 48.5,91.5C 48.297,93.6382 47.297,95.3049 45.5,96.5C 46.9935,97.1411 47.9935,98.1411 48.5,99.5C 47.8333,99.5 47.1667,99.5 46.5,99.5C 30.8601,84.194 15.1934,68.8607 -0.5,53.5C -0.5,50.8333 -0.5,48.1667 -0.5,45.5C 10.146,35.188 20.8127,24.8547 31.5,14.5C 35.4849,17.9844 39.3182,21.651 43,25.5C 42.9813,27.1075 42.8146,28.7741 42.5,30.5 Z"/></g>
<g><path style="opacity:1" fill="#dd583d" d="M 42.5,30.5 C 43.1255,32.6263 44.4589,34.293 46.5,35.5C 47.8225,45.3254 47.8225,54.992 46.5,64.5C 46.5,56.5 46.5,48.5 46.5,40.5C 46.762,39.0222 46.4287,37.6888 45.5,36.5C 43.6841,34.5586 41.6841,33.8919 39.5,34.5C 40.5244,33.1482 41.5244,31.8149 42.5,30.5 Z"/></g>
<g><path style="opacity:1" fill="#eb5232" d="M 46.5,40.5 C 46.5,48.5 46.5,56.5 46.5,64.5C 44.461,65.6718 43.1276,67.3384 42.5,69.5C 43.3988,62.5181 43.5654,55.5181 43,48.5C 42.3109,47.6433 41.4776,46.9767 40.5,46.5C 38.9291,47.3094 37.2624,47.6427 35.5,47.5C 35.5,45.1667 35.5,42.8333 35.5,40.5C 39.329,40.0726 42.9957,40.0726 46.5,40.5 Z"/></g>
<g><path style="opacity:0.977" fill="#ee5131" d="M 85.5,32.5 C 90.5271,36.8604 95.1938,41.5271 99.5,46.5C 99.5,48.8333 99.5,51.1667 99.5,53.5C 83.8333,68.5 68.5,83.8333 53.5,99.5C 51.8333,99.5 50.1667,99.5 48.5,99.5C 47.9935,98.1411 46.9935,97.1411 45.5,96.5C 47.297,95.3049 48.297,93.6382 48.5,91.5C 51.3198,91.7525 53.9865,91.2525 56.5,90C 55.5495,86.9433 55.2161,83.7766 55.5,80.5C 56.3686,78.283 56.702,75.9496 56.5,73.5C 57.2114,69.7193 56.0447,66.7193 53,64.5C 52.1679,55.1489 52.3346,45.8155 53.5,36.5C 56.8544,39.1877 59.8544,42.1877 62.5,45.5C 61.325,45.281 60.325,45.6143 59.5,46.5C 60.0894,49.6404 60.7561,52.6404 61.5,55.5C 59.9194,59.6934 60.2527,63.6934 62.5,67.5C 63.2432,66.0921 64.0766,64.7588 65,63.5C 66.0495,64.5171 67.2161,64.6838 68.5,64C 69.3128,62.6861 70.3128,61.5195 71.5,60.5C 70.7573,59.8182 70.0906,59.1515 69.5,58.5C 71.1788,58.7148 72.1788,58.0481 72.5,56.5C 74.0618,56.2671 75.3951,55.6005 76.5,54.5C 77.7251,53.8478 78.3917,52.6811 78.5,51C 78.4857,49.6153 78.1524,48.4486 77.5,47.5C 76.4726,45.8058 75.1392,44.4725 73.5,43.5C 74.4959,40.7922 76.1625,40.1255 78.5,41.5C 80.0564,40.4529 81.7231,39.7863 83.5,39.5C 82.9898,36.6122 83.6565,34.2789 85.5,32.5 Z"/></g>
<g><path style="opacity:1" fill="#ee4f3b" d="M 62.5,45.5 C 61.7929,48.7861 61.4595,52.1194 61.5,55.5C 60.7561,52.6404 60.0894,49.6404 59.5,46.5C 60.325,45.6143 61.325,45.281 62.5,45.5 Z"/></g>
<g><path style="opacity:1" fill="#df563b" d="M 62.5,45.5 C 63.3171,47.9686 63.8171,50.6353 64,53.5C 65.045,54.3734 65.8783,55.3734 66.5,56.5C 64.8828,55.962 63.2161,55.6287 61.5,55.5C 61.4595,52.1194 61.7929,48.7861 62.5,45.5 Z"/></g>
<g><path style="opacity:0.749" fill="#d65a3f" d="M 77.5,47.5 C 78.1524,48.4486 78.4857,49.6153 78.5,51C 78.3917,52.6811 77.7251,53.8478 76.5,54.5C 77.3686,52.283 77.702,49.9496 77.5,47.5 Z"/></g>
<g><path style="opacity:1" fill="#f0502d" d="M 61.5,55.5 C 63.2161,55.6287 64.8828,55.962 66.5,56.5C 67.1667,56.5 67.8333,56.5 68.5,56.5C 68.3284,57.4916 68.6618,58.1583 69.5,58.5C 70.0906,59.1515 70.7573,59.8182 71.5,60.5C 70.3128,61.5195 69.3128,62.6861 68.5,64C 67.2161,64.6838 66.0495,64.5171 65,63.5C 64.0766,64.7588 63.2432,66.0921 62.5,67.5C 60.2527,63.6934 59.9194,59.6934 61.5,55.5 Z"/></g>
<g><path style="opacity:0.867" fill="#de563c" d="M 68.5,56.5 C 69.8333,57.8333 71.1667,57.8333 72.5,56.5C 72.1788,58.0481 71.1788,58.7148 69.5,58.5C 68.6618,58.1583 68.3284,57.4916 68.5,56.5 Z"/></g>
<g><path style="opacity:1" fill="#e65536" d="M 56.5,73.5 C 56.702,75.9496 56.3686,78.283 55.5,80.5C 53.4458,80.6347 51.7791,79.968 50.5,78.5C 53.0857,77.5847 55.0857,75.918 56.5,73.5 Z"/></g>
</svg>
