<?xml version="1.0" encoding="UTF-8"?>
<!DOCTYPE svg PUBLIC "-//W3C//DTD SVG 1.1//EN" "http://www.w3.org/Graphics/SVG/1.1/DTD/svg11.dtd">
<svg xmlns="http://www.w3.org/2000/svg" version="1.1" width="100px" height="100px" style="shape-rendering:geometricPrecision; text-rendering:geometricPrecision; image-rendering:optimizeQuality; fill-rule:evenodd; clip-rule:evenodd" xmlns:xlink="http://www.w3.org/1999/xlink">
<g><path style="opacity:0.927" fill="#171515" d="M 99.5,37.5 C 99.5,46.1667 99.5,54.8333 99.5,63.5C 96.0788,73.7583 90.4121,82.5917 82.5,90C 78.1361,93.1824 73.4694,95.8491 68.5,98C 66.0982,98.8141 63.7649,98.6474 61.5,97.5C 60.7019,90.5496 60.2019,83.5496 60,76.5C 59.5348,75.0692 58.7014,73.9025 57.5,73C 79.8544,67.4514 85.8544,54.2847 75.5,33.5C 77.0614,29.2087 76.5614,25.2087 74,21.5C 69.874,23.7306 65.5407,25.3973 61,26.5C 53.3333,25.1667 45.6667,25.1667 38,26.5C 33.4593,25.3973 29.126,23.7306 25,21.5C 23.4806,23.5563 22.6472,25.8896 22.5,28.5C 23.1725,30.8322 23.3392,33.1656 23,35.5C 17.162,44.8132 17.162,54.1465 23,63.5C 27.5164,69.0076 33.3497,71.6743 40.5,71.5C 39.0949,75.3852 38.0949,79.3852 37.5,83.5C 34.1348,83.1826 30.8014,83.1826 27.5,83.5C 25.6529,81.7082 23.6529,80.0416 21.5,78.5C 20.479,79.0016 20.3123,79.6683 21,80.5C 22.5,82 24,83.5 25.5,85C 29.5,85.3333 33.5,85.6667 37.5,86C 38.8061,89.8021 38.8061,93.6354 37.5,97.5C 36.3333,97.8333 35.1667,98.1667 34,98.5C 24.5516,95.7779 16.5516,90.7779 10,83.5C 5.66534,77.1598 2.16534,70.4931 -0.5,63.5C -0.5,54.8333 -0.5,46.1667 -0.5,37.5C 10.2688,8.42866 31.2688,-3.73801 62.5,1C 75.3574,5.06467 85.524,12.5647 93,23.5C 95.0681,28.3437 97.2348,33.0103 99.5,37.5 Z M 14.5,71.5 C 15.0768,70.2267 15.7435,70.2267 16.5,71.5C 16.0302,72.463 15.3635,72.463 14.5,71.5 Z"/></g>
</svg>
