<?xml version="1.0" encoding="UTF-8"?>
<!DOCTYPE svg PUBLIC "-//W3C//DTD SVG 1.1//EN" "http://www.w3.org/Graphics/SVG/1.1/DTD/svg11.dtd">
<svg xmlns="http://www.w3.org/2000/svg" version="1.1" width="100px" height="100px" style="shape-rendering:geometricPrecision; text-rendering:geometricPrecision; image-rendering:optimizeQuality; fill-rule:evenodd; clip-rule:evenodd" xmlns:xlink="http://www.w3.org/1999/xlink">
<g><path style="opacity:0.686" fill="#bd503d" d="M 20.5,4.5 C 18.7085,4.36596 17.0418,4.69929 15.5,5.5C 17.0418,4.69929 18.7085,4.36596 20.5,4.5 Z"/></g>
<g><path style="opacity:0.992" fill="#e14328" d="M 92.5,35.5 C 91.5,35.5 90.5,35.5 89.5,35.5C 89.5,36.5 89.5,37.5 89.5,38.5C 82.8333,38.5 76.1667,38.5 69.5,38.5C 68.8902,37.609 68.5569,36.609 68.5,35.5C 71.0792,24.9543 74.4126,14.6209 78.5,4.5C 80.6741,3.10684 82.5074,3.44018 84,5.5C 87.347,15.3718 90.1803,25.3718 92.5,35.5 Z"/></g>
<g><path style="opacity:1" fill="#de442b" d="M 20.5,4.5 C 23.3004,10.5686 25.3004,16.9019 26.5,23.5C 24.087,22.3202 23.087,20.3202 23.5,17.5C 21.4305,17.5514 19.5971,16.8847 18,15.5C 17.0497,16.0223 16.2164,16.689 15.5,17.5C 14.4822,16.8075 13.4822,16.1408 12.5,15.5C 12.8993,11.8835 13.8993,8.55021 15.5,5.5C 17.0418,4.69929 18.7085,4.36596 20.5,4.5 Z"/></g>
<g><path style="opacity:0.98" fill="#e04327" d="M 12.5,15.5 C 13.4822,16.1408 14.4822,16.8075 15.5,17.5C 16.2164,16.689 17.0497,16.0223 18,15.5C 19.5971,16.8847 21.4305,17.5514 23.5,17.5C 23.087,20.3202 24.087,22.3202 26.5,23.5C 28.0951,26.2854 29.0951,29.2854 29.5,32.5C 29.5,33.5 29.5,34.5 29.5,35.5C 28.1667,35.5 26.8333,35.5 25.5,35.5C 25.719,34.325 25.3857,33.325 24.5,32.5C 22.0732,36.6295 18.5732,37.6295 14,35.5C 10.8957,35.3623 8.06239,36.0289 5.5,37.5C 7.03388,29.8989 9.36722,22.5656 12.5,15.5 Z"/></g>
<g><path style="opacity:0.024" fill="#d15840" d="M 68.5,35.5 C 68.5569,36.609 68.8902,37.609 69.5,38.5C 68.1667,38.5 66.8333,38.5 65.5,38.5C 53.9877,38.8281 42.6544,38.4948 31.5,37.5C 44.0832,38.1155 56.4165,37.4489 68.5,35.5 Z"/></g>
<g><path style="opacity:0.967" fill="#e14625" d="M 29.5,32.5 C 30.5375,33.9303 31.2041,35.597 31.5,37.5C 42.6544,38.4948 53.9877,38.8281 65.5,38.5C 65.5,40.8333 65.5,43.1667 65.5,45.5C 62.1479,56.859 58.8146,68.1923 55.5,79.5C 53.589,83.233 52.2556,87.233 51.5,91.5C 50.8485,92.0906 50.1818,92.7573 49.5,93.5C 48.1993,91.556 47.1993,89.556 46.5,87.5C 44.5838,82.3272 43.2504,76.9939 42.5,71.5C 44.2225,73.2528 45.7225,75.2528 47,77.5C 48.3419,74.2057 50.8419,72.8724 54.5,73.5C 54.5513,70.4585 55.5513,67.7918 57.5,65.5C 56.2455,63.6663 55.5789,61.6663 55.5,59.5C 56.8333,59.5 58.1667,59.5 59.5,59.5C 59.5,52.8333 59.5,46.1667 59.5,39.5C 55.5,39.5 51.5,39.5 47.5,39.5C 47.5,43.5 47.5,47.5 47.5,51.5C 45.1432,51.6633 42.8098,51.4966 40.5,51C 40.0653,48.1331 38.8986,45.6331 37,43.5C 36.6667,43.8333 36.3333,44.1667 36,44.5C 36.8695,50.9257 38.0362,57.259 39.5,63.5C 37.8321,59.4881 36.1655,55.4881 34.5,51.5C 33.5,47.5 32.5,43.5 31.5,39.5C 23.5,39.5 15.5,39.5 7.5,39.5C 6.5,39.5 5.5,39.5 4.5,39.5C 4.32842,38.5084 4.66175,37.8417 5.5,37.5C 8.06239,36.0289 10.8957,35.3623 14,35.5C 18.5732,37.6295 22.0732,36.6295 24.5,32.5C 25.3857,33.325 25.719,34.325 25.5,35.5C 26.8333,35.5 28.1667,35.5 29.5,35.5C 29.5,34.5 29.5,33.5 29.5,32.5 Z"/></g>
<g><path style="opacity:0.961" fill="#e35024" d="M 92.5,35.5 C 93.4013,36.2905 94.0679,37.2905 94.5,38.5C 93.0413,38.4326 91.7079,38.7659 90.5,39.5C 82.8045,39.1692 75.1378,39.5025 67.5,40.5C 66.9724,42.3361 66.3058,44.0028 65.5,45.5C 65.5,43.1667 65.5,40.8333 65.5,38.5C 66.8333,38.5 68.1667,38.5 69.5,38.5C 76.1667,38.5 82.8333,38.5 89.5,38.5C 89.5,37.5 89.5,36.5 89.5,35.5C 90.5,35.5 91.5,35.5 92.5,35.5 Z"/></g>
<g><path style="opacity:1" fill="#e24328" d="M 42.5,71.5 C 40.9028,69.1522 39.9028,66.4855 39.5,63.5C 38.0362,57.259 36.8695,50.9257 36,44.5C 36.3333,44.1667 36.6667,43.8333 37,43.5C 38.8986,45.6331 40.0653,48.1331 40.5,51C 42.8098,51.4966 45.1432,51.6633 47.5,51.5C 47.5,47.5 47.5,43.5 47.5,39.5C 51.5,39.5 55.5,39.5 59.5,39.5C 59.5,46.1667 59.5,52.8333 59.5,59.5C 58.1667,59.5 56.8333,59.5 55.5,59.5C 55.5789,61.6663 56.2455,63.6663 57.5,65.5C 55.5513,67.7918 54.5513,70.4585 54.5,73.5C 50.8419,72.8724 48.3419,74.2057 47,77.5C 45.7225,75.2528 44.2225,73.2528 42.5,71.5 Z"/></g>
<g><path style="opacity:1" fill="#fb6d24" d="M 89.5,40.5 C 87.6878,42.4605 86.6878,44.7939 86.5,47.5C 85.5,47.5 84.5,47.5 83.5,47.5C 82.1667,49.8333 80.8333,52.1667 79.5,54.5C 78.325,54.281 77.325,54.6143 76.5,55.5C 75.0091,59.3318 73.3424,62.9985 71.5,66.5C 71.5,66.8333 71.5,67.1667 71.5,67.5C 68.4281,67.1826 65.4281,67.5159 62.5,68.5C 60.7989,73.2687 59.7989,77.9353 59.5,82.5C 58.3995,83.6049 57.7329,84.9382 57.5,86.5C 56.0351,87.4057 55.0351,88.739 54.5,90.5C 53.675,91.3857 52.675,91.719 51.5,91.5C 52.2556,87.233 53.589,83.233 55.5,79.5C 58.3586,75.3215 60.3586,70.6548 61.5,65.5C 64.2283,63.2188 65.2283,60.2188 64.5,56.5C 66.9115,56.8633 68.4115,55.8633 69,53.5C 69.7161,50.5818 69.2161,47.9151 67.5,45.5C 67.9224,43.3368 69.2557,42.0034 71.5,41.5C 77.4632,40.5041 83.4632,40.1707 89.5,40.5 Z"/></g>
<g><path style="opacity:1" fill="#f0731d" d="M 94.5,38.5 C 94.5,38.8333 94.5,39.1667 94.5,39.5C 93.7611,39.369 93.0944,39.5357 92.5,40C 90.636,42.6877 88.636,45.1877 86.5,47.5C 86.6878,44.7939 87.6878,42.4605 89.5,40.5C 90.1667,40.5 90.5,40.1667 90.5,39.5C 91.7079,38.7659 93.0413,38.4326 94.5,38.5 Z"/></g>
<g><path style="opacity:1" fill="#f6781d" d="M 8.5,42.5 C 11.7046,43.1299 13.3712,45.1299 13.5,48.5C 10.3538,47.6905 8.68712,45.6905 8.5,42.5 Z"/></g>
<g><path style="opacity:1" fill="#fc6d25" d="M 7.5,39.5 C 15.5,39.5 23.5,39.5 31.5,39.5C 32.5,43.5 33.5,47.5 34.5,51.5C 34.3452,55.3884 35.3452,58.8884 37.5,62C 34.8366,64.8114 34.17,67.978 35.5,71.5C 34.1667,71.5 32.8333,71.5 31.5,71.5C 30.5,71.1667 29.8333,70.5 29.5,69.5C 27.201,65.6672 25.0343,61.6672 23,57.5C 20.8943,54.8823 18.3943,52.8823 15.5,51.5C 14.0937,51.0269 13.427,50.0269 13.5,48.5C 13.3712,45.1299 11.7046,43.1299 8.5,42.5C 7.89022,41.609 7.55688,40.609 7.5,39.5 Z"/></g>
<g><path style="opacity:0.905" fill="#fc9f2a" d="M 94.5,39.5 C 96.1848,43.5713 97.8515,47.5713 99.5,51.5C 99.5,53.8333 99.5,56.1667 99.5,58.5C 97.5648,59.1495 95.5648,59.4828 93.5,59.5C 93.6646,56.4816 93.498,53.4816 93,50.5C 90.6895,47.8445 88.5228,48.0112 86.5,51C 87.7472,52.4936 87.7472,53.9936 86.5,55.5C 84.8014,54.1854 83.1347,54.1854 81.5,55.5C 83.14,52.8508 84.8067,50.1841 86.5,47.5C 88.636,45.1877 90.636,42.6877 92.5,40C 93.0944,39.5357 93.7611,39.369 94.5,39.5 Z"/></g>
<g><path style="opacity:1" fill="#fba327" d="M 4.5,40.5 C 7.29779,46.4108 11.2978,51.4108 16.5,55.5C 16.7465,60.0275 18.9131,63.0275 23,64.5C 23.4955,66.4727 23.6621,68.4727 23.5,70.5C 21.8008,70.3398 20.1341,70.5065 18.5,71C 17.8288,71.9862 17.8288,73.1529 18.5,74.5C 12.3402,69.9196 6.00689,65.5862 -0.5,61.5C -0.5,58.1667 -0.5,54.8333 -0.5,51.5C 0.972887,47.7492 2.63955,44.0825 4.5,40.5 Z"/></g>
<g><path style="opacity:1" fill="#fba224" d="M 99.5,58.5 C 99.5,59.5 99.5,60.5 99.5,61.5C 96.4968,62.6662 93.8302,64.3328 91.5,66.5C 89.549,66.2267 88.049,66.8934 87,68.5C 86.1074,67.9186 85.1074,67.5852 84,67.5C 81.9274,68.7484 79.7607,69.7484 77.5,70.5C 77.1826,67.4281 77.5159,64.4281 78.5,61.5C 80.0896,59.8543 81.0896,57.8543 81.5,55.5C 83.1347,54.1854 84.8014,54.1854 86.5,55.5C 87.7472,53.9936 87.7472,52.4936 86.5,51C 88.5228,48.0112 90.6895,47.8445 93,50.5C 93.498,53.4816 93.6646,56.4816 93.5,59.5C 95.5648,59.4828 97.5648,59.1495 99.5,58.5 Z"/></g>
<g><path style="opacity:1" fill="#f47322" d="M 86.5,47.5 C 84.8067,50.1841 83.14,52.8508 81.5,55.5C 78.2455,59.095 74.9122,62.7616 71.5,66.5C 73.3424,62.9985 75.0091,59.3318 76.5,55.5C 77.325,54.6143 78.325,54.281 79.5,54.5C 80.8333,52.1667 82.1667,49.8333 83.5,47.5C 84.5,47.5 85.5,47.5 86.5,47.5 Z"/></g>
<g><path style="opacity:1" fill="#fa682b" d="M 90.5,39.5 C 90.5,40.1667 90.1667,40.5 89.5,40.5C 83.4632,40.1707 77.4632,40.5041 71.5,41.5C 69.2557,42.0034 67.9224,43.3368 67.5,45.5C 69.2161,47.9151 69.7161,50.5818 69,53.5C 68.4115,55.8633 66.9115,56.8633 64.5,56.5C 65.2283,60.2188 64.2283,63.2188 61.5,65.5C 60.3586,70.6548 58.3586,75.3215 55.5,79.5C 58.8146,68.1923 62.1479,56.859 65.5,45.5C 66.3058,44.0028 66.9724,42.3361 67.5,40.5C 75.1378,39.5025 82.8045,39.1692 90.5,39.5 Z"/></g>
<g><path style="opacity:1" fill="#fc692a" d="M 34.5,51.5 C 36.1655,55.4881 37.8321,59.4881 39.5,63.5C 39.9028,66.4855 40.9028,69.1522 42.5,71.5C 43.2504,76.9939 44.5838,82.3272 46.5,87.5C 45.8333,87.1667 45.1667,86.8333 44.5,86.5C 40.7674,81.8911 38.6007,76.5578 38,70.5C 37.3292,71.2524 36.4959,71.5858 35.5,71.5C 34.17,67.978 34.8366,64.8114 37.5,62C 35.3452,58.8884 34.3452,55.3884 34.5,51.5 Z"/></g>
<g><path style="opacity:0.992" fill="#f3741d" d="M 15.5,51.5 C 18.3943,52.8823 20.8943,54.8823 23,57.5C 25.0343,61.6672 27.201,65.6672 29.5,69.5C 24.3511,63.8654 19.6844,57.8654 15.5,51.5 Z"/></g>
<g><path style="opacity:1" fill="#fc9f2b" d="M 81.5,55.5 C 81.0896,57.8543 80.0896,59.8543 78.5,61.5C 77.5159,64.4281 77.1826,67.4281 77.5,70.5C 75.5905,71.9746 74.4238,73.9746 74,76.5C 73.6667,76.1667 73.3333,75.8333 73,75.5C 71.9264,76.6184 70.7598,77.6184 69.5,78.5C 70.2458,79.7362 70.5792,81.0695 70.5,82.5C 63.8043,87.1764 57.1376,91.843 50.5,96.5C 51.038,94.8828 51.3713,93.2161 51.5,91.5C 52.675,91.719 53.675,91.3857 54.5,90.5C 55.0351,88.739 56.0351,87.4057 57.5,86.5C 59.5869,85.4154 60.9202,83.7488 61.5,81.5C 64.8179,76.8808 68.1512,72.2141 71.5,67.5C 71.5,67.1667 71.5,66.8333 71.5,66.5C 74.9122,62.7616 78.2455,59.095 81.5,55.5 Z"/></g>
<g><path style="opacity:1" fill="#f87221" d="M 44.5,86.5 C 45.038,88.1172 45.3713,89.7839 45.5,91.5C 41.9699,85.7873 37.8032,80.4539 33,75.5C 32.5899,74.0993 32.0899,72.766 31.5,71.5C 32.8333,71.5 34.1667,71.5 35.5,71.5C 36.4959,71.5858 37.3292,71.2524 38,70.5C 38.6007,76.5578 40.7674,81.8911 44.5,86.5 Z"/></g>
<g><path style="opacity:1" fill="#f7a52b" d="M 91.5,66.5 C 84.5239,71.8022 77.5239,77.1355 70.5,82.5C 70.5792,81.0695 70.2458,79.7362 69.5,78.5C 70.7598,77.6184 71.9264,76.6184 73,75.5C 73.3333,75.8333 73.6667,76.1667 74,76.5C 74.4238,73.9746 75.5905,71.9746 77.5,70.5C 79.7607,69.7484 81.9274,68.7484 84,67.5C 85.1074,67.5852 86.1074,67.9186 87,68.5C 88.049,66.8934 89.549,66.2267 91.5,66.5 Z"/></g>
<g><path style="opacity:0.991" fill="#f9a32b" d="M 31.5,83.5 C 30.0783,83.2914 28.745,82.7914 27.5,82C 24.7985,79.0047 21.7985,76.5047 18.5,74.5C 20.3977,73.9107 22.3977,73.744 24.5,74C 25.0465,73.0754 25.7132,72.2421 26.5,71.5C 27.7362,72.2458 29.0695,72.5792 30.5,72.5C 30.0136,75.7553 31.0136,78.422 33.5,80.5C 32.624,81.2508 31.624,81.7508 30.5,82C 31.056,82.3826 31.3893,82.8826 31.5,83.5 Z"/></g>
<g><path style="opacity:1" fill="#f6701d" d="M 71.5,67.5 C 68.1512,72.2141 64.8179,76.8808 61.5,81.5C 60.8333,81.8333 60.1667,82.1667 59.5,82.5C 59.7989,77.9353 60.7989,73.2687 62.5,68.5C 65.4281,67.5159 68.4281,67.1826 71.5,67.5 Z"/></g>
<g><path style="opacity:0.864" fill="#f5a72d" d="M 36.5,87.5 C 34.2512,86.9202 32.5846,85.5869 31.5,83.5C 33.1439,83.7135 34.6439,83.3802 36,82.5C 37.4544,84.2439 37.6211,85.9106 36.5,87.5 Z"/></g>
<g><path style="opacity:1" fill="#fd9c2a" d="M 4.5,39.5 C 5.5,39.5 6.5,39.5 7.5,39.5C 7.55688,40.609 7.89022,41.609 8.5,42.5C 8.68712,45.6905 10.3538,47.6905 13.5,48.5C 13.427,50.0269 14.0937,51.0269 15.5,51.5C 19.6844,57.8654 24.3511,63.8654 29.5,69.5C 29.8333,70.5 30.5,71.1667 31.5,71.5C 32.0899,72.766 32.5899,74.0993 33,75.5C 37.8032,80.4539 41.9699,85.7873 45.5,91.5C 46.2341,92.7079 46.5674,94.0413 46.5,95.5C 42.8536,93.1829 39.5203,90.5162 36.5,87.5C 37.6211,85.9106 37.4544,84.2439 36,82.5C 34.6439,83.3802 33.1439,83.7135 31.5,83.5C 31.3893,82.8826 31.056,82.3826 30.5,82C 31.624,81.7508 32.624,81.2508 33.5,80.5C 31.0136,78.422 30.0136,75.7553 30.5,72.5C 29.0695,72.5792 27.7362,72.2458 26.5,71.5C 25.7132,72.2421 25.0465,73.0754 24.5,74C 22.3977,73.744 20.3977,73.9107 18.5,74.5C 17.8288,73.1529 17.8288,71.9862 18.5,71C 20.1341,70.5065 21.8008,70.3398 23.5,70.5C 23.6621,68.4727 23.4955,66.4727 23,64.5C 18.9131,63.0275 16.7465,60.0275 16.5,55.5C 11.2978,51.4108 7.29779,46.4108 4.5,40.5C 4.5,40.1667 4.5,39.8333 4.5,39.5 Z"/></g>
<g><path style="opacity:0.976" fill="#fd8d28" d="M 61.5,81.5 C 60.9202,83.7488 59.5869,85.4154 57.5,86.5C 57.7329,84.9382 58.3995,83.6049 59.5,82.5C 60.1667,82.1667 60.8333,81.8333 61.5,81.5 Z"/></g>
<g><path style="opacity:0.996" fill="#f46d2e" d="M 44.5,86.5 C 45.1667,86.8333 45.8333,87.1667 46.5,87.5C 47.1993,89.556 48.1993,91.556 49.5,93.5C 50.1818,92.7573 50.8485,92.0906 51.5,91.5C 51.3713,93.2161 51.038,94.8828 50.5,96.5C 49.0379,97.4709 47.7046,97.1376 46.5,95.5C 46.5674,94.0413 46.2341,92.7079 45.5,91.5C 45.3713,89.7839 45.038,88.1172 44.5,86.5 Z"/></g>
</svg>
