<?xml version="1.0" encoding="UTF-8"?>
<!DOCTYPE svg PUBLIC "-//W3C//DTD SVG 1.1//EN" "http://www.w3.org/Graphics/SVG/1.1/DTD/svg11.dtd">
<svg xmlns="http://www.w3.org/2000/svg" version="1.1" width="100px" height="100px" style="shape-rendering:geometricPrecision; text-rendering:geometricPrecision; image-rendering:optimizeQuality; fill-rule:evenodd; clip-rule:evenodd" xmlns:xlink="http://www.w3.org/1999/xlink">
<g><path style="opacity:0.997" fill="#488cbe" d="M 99.5,29.5 C 99.5,30.8333 99.5,32.1667 99.5,33.5C 97.5,35.8333 95.5,38.1667 93.5,40.5C 92.4168,40.4606 91.4168,40.1272 90.5,39.5C 90.1667,40 89.8333,40.5 89.5,41C 91.3895,48.3979 91.8895,55.8979 91,63.5C 86.385,65.3669 81.2183,66.5336 75.5,67C 74.6634,68.0113 74.33,69.1779 74.5,70.5C 73.8501,70.1961 73.1835,69.8627 72.5,69.5C 71.7564,70.9905 71.0897,72.4905 70.5,74C 67.905,74.2256 65.405,74.7256 63,75.5C 62.6966,73.1116 61.8633,70.9449 60.5,69C 53.2529,68.1877 46.0862,68.3544 39,69.5C 37.513,68.7471 37.3463,67.9138 38.5,67C 45.5503,65.4854 52.5503,64.6521 59.5,64.5C 57.8068,63.7717 56.3068,62.7717 55,61.5C 54.0671,56.641 53.2338,51.8076 52.5,47C 49.5706,46.2228 46.7372,46.3895 44,47.5C 43.6667,46.8333 43.3333,46.1667 43,45.5C 41.9086,48.7554 40.9086,52.0887 40,55.5C 39.6258,54.5838 39.1258,53.7504 38.5,53C 39.5536,51.6124 39.7203,50.1124 39,48.5C 38.0228,47.2264 37.1894,47.2264 36.5,48.5C 32.6266,41.29 26.9599,39.6233 19.5,43.5C 17.8762,43.3601 16.7096,44.0267 16,45.5C 15.6283,51.1742 15.7949,56.6742 16.5,62C 13.6644,64.5843 10.3311,65.7509 6.5,65.5C 6.82572,57.3159 6.49239,49.3159 5.5,41.5C 3.85325,38.5265 1.85325,35.8599 -0.5,33.5C -0.5,32.1667 -0.5,30.8333 -0.5,29.5C 2.44178,25.9469 5.60845,22.6135 9,19.5C 11.8184,20.91 14.4851,22.5766 17,24.5C 20,22.1667 23,19.8333 26,17.5C 25.5948,13.8794 25.5948,10.2128 26,6.5C 30.5343,3.6548 35.3676,2.6548 40.5,3.5C 41.7061,6.07937 43.0394,8.57937 44.5,11C 47.8333,11.6667 51.1667,11.6667 54.5,11C 55.9606,8.57937 57.2939,6.07937 58.5,3.5C 63.3581,2.70792 68.0248,3.54125 72.5,6C 73.7611,9.28757 73.7611,12.6209 72.5,16C 72.7591,17.2613 73.4258,18.2613 74.5,19C 77.2664,20.4669 79.7664,22.3002 82,24.5C 84.8432,21.9915 88.0099,20.4915 91.5,20C 94.0312,23.3575 96.6979,26.5242 99.5,29.5 Z"/></g>
<g><path style="opacity:1" fill="#e6eff2" d="M 36.5,48.5 C 36.4961,58.0036 31.8294,61.8369 22.5,60C 15.94,55.471 14.94,49.971 19.5,43.5C 26.9599,39.6233 32.6266,41.29 36.5,48.5 Z"/></g>
<g><path style="opacity:1" fill="#e7f2f4" d="M 68.5,41.5 C 76.4524,39.9682 81.119,43.1349 82.5,51C 81.1199,59.0269 76.4532,62.0269 68.5,60C 60.5654,53.8375 60.5654,47.6709 68.5,41.5 Z"/></g>
<g><path style="opacity:1" fill="#404544" d="M 68.5,45.5 C 77.3508,45.3683 79.6841,49.2017 75.5,57C 65.3538,57.8717 63.0205,54.0383 68.5,45.5 Z"/></g>
<g><path style="opacity:1" fill="#4d8dba" d="M 5.5,41.5 C 6.49239,49.3159 6.82572,57.3159 6.5,65.5C 10.3311,65.7509 13.6644,64.5843 16.5,62C 15.7949,56.6742 15.6283,51.1742 16,45.5C 16.7096,44.0267 17.8762,43.3601 19.5,43.5C 14.94,49.971 15.94,55.471 22.5,60C 31.8294,61.8369 36.4961,58.0036 36.5,48.5C 37.1894,47.2264 38.0228,47.2264 39,48.5C 39.7203,50.1124 39.5536,51.6124 38.5,53C 39.1258,53.7504 39.6258,54.5838 40,55.5C 40.9086,52.0887 41.9086,48.7554 43,45.5C 43.3333,46.1667 43.6667,46.8333 44,47.5C 46.7372,46.3895 49.5706,46.2228 52.5,47C 53.2338,51.8076 54.0671,56.641 55,61.5C 56.3068,62.7717 57.8068,63.7717 59.5,64.5C 52.5503,64.6521 45.5503,65.4854 38.5,67C 37.3463,67.9138 37.513,68.7471 39,69.5C 46.0862,68.3544 53.2529,68.1877 60.5,69C 61.8633,70.9449 62.6966,73.1116 63,75.5C 65.405,74.7256 67.905,74.2256 70.5,74C 71.0897,72.4905 71.7564,70.9905 72.5,69.5C 73.1835,69.8627 73.8501,70.1961 74.5,70.5C 73.6586,72.3792 73.3253,74.3792 73.5,76.5C 69.5,76.5 65.5,76.5 61.5,76.5C 61.7678,74.901 61.4345,73.5676 60.5,72.5C 60.0472,71.5416 59.3805,70.7083 58.5,70C 52.5,69.3333 46.5,69.3333 40.5,70C 38.7215,72.1354 38.0548,74.6354 38.5,77.5C 33.8215,77.6658 29.1548,77.4992 24.5,77C 24.1047,73.7327 23.1047,70.7327 21.5,68C 16.1771,67.5006 10.8437,67.334 5.5,67.5C 5.5,58.8333 5.5,50.1667 5.5,41.5 Z"/></g>
<g><path style="opacity:1" fill="#edfdfe" d="M 47.5,47.5 C 49.1439,47.2865 50.6439,47.6198 52,48.5C 52.6667,52.5 52.6667,56.5 52,60.5C 50.3333,61.8333 48.6667,61.8333 47,60.5C 46.2316,56.0804 46.3982,51.7471 47.5,47.5 Z"/></g>
<g><path style="opacity:1" fill="#444244" d="M 24.5,45.5 C 33.0244,45.3448 35.3578,49.0115 31.5,56.5C 23.5519,59.3815 20.3852,56.7148 22,48.5C 22.6979,47.3094 23.5313,46.3094 24.5,45.5 Z"/></g>
<g><path style="opacity:1" fill="#5b8fb3" d="M 93.5,40.5 C 93.5,49.1667 93.5,57.8333 93.5,66.5C 87.5101,67.2396 81.5101,67.9063 75.5,68.5C 75.7771,71.4475 75.4438,74.2809 74.5,77C 69.8452,77.4992 65.1785,77.6658 60.5,77.5C 60.5,75.8333 60.5,74.1667 60.5,72.5C 61.4345,73.5676 61.7678,74.901 61.5,76.5C 65.5,76.5 69.5,76.5 73.5,76.5C 73.3253,74.3792 73.6586,72.3792 74.5,70.5C 74.33,69.1779 74.6634,68.0113 75.5,67C 81.2183,66.5336 86.385,65.3669 91,63.5C 91.8895,55.8979 91.3895,48.3979 89.5,41C 89.8333,40.5 90.1667,40 90.5,39.5C 91.4168,40.1272 92.4168,40.4606 93.5,40.5 Z"/></g>
<g><path style="opacity:0.984" fill="#4b8dbc" d="M 5.5,69.5 C 10.482,70.0534 15.482,70.3867 20.5,70.5C 19.3026,79.191 23.136,82.5243 32,80.5C 34.8333,80.3333 37.6667,80.1667 40.5,80C 41.2272,77.876 41.8938,75.7094 42.5,73.5C 47.1313,72.3384 51.798,72.1717 56.5,73C 57.1667,75.3333 57.8333,77.6667 58.5,80C 64.8907,80.7578 71.2241,80.4245 77.5,79C 78.4438,76.2809 78.7771,73.4475 78.5,70.5C 83.4725,69.8363 88.4725,69.5029 93.5,69.5C 94.4423,78.781 90.7756,85.6143 82.5,90C 60.5,98.6667 38.5,98.6667 16.5,90C 8.2244,85.6143 4.55774,78.781 5.5,69.5 Z"/></g>
<g><path style="opacity:1" fill="#dcf5fa" d="M 93.5,66.5 C 93.5,67.5 93.5,68.5 93.5,69.5C 88.4725,69.5029 83.4725,69.8363 78.5,70.5C 78.7771,73.4475 78.4438,76.2809 77.5,79C 71.2241,80.4245 64.8907,80.7578 58.5,80C 57.8333,77.6667 57.1667,75.3333 56.5,73C 51.798,72.1717 47.1313,72.3384 42.5,73.5C 41.8938,75.7094 41.2272,77.876 40.5,80C 37.6667,80.1667 34.8333,80.3333 32,80.5C 23.136,82.5243 19.3026,79.191 20.5,70.5C 15.482,70.3867 10.482,70.0534 5.5,69.5C 5.5,68.8333 5.5,68.1667 5.5,67.5C 10.8437,67.334 16.1771,67.5006 21.5,68C 23.1047,70.7327 24.1047,73.7327 24.5,77C 29.1548,77.4992 33.8215,77.6658 38.5,77.5C 38.0548,74.6354 38.7215,72.1354 40.5,70C 46.5,69.3333 52.5,69.3333 58.5,70C 59.3805,70.7083 60.0472,71.5416 60.5,72.5C 60.5,74.1667 60.5,75.8333 60.5,77.5C 65.1785,77.6658 69.8452,77.4992 74.5,77C 75.4438,74.2809 75.7771,71.4475 75.5,68.5C 81.5101,67.9063 87.5101,67.2396 93.5,66.5 Z"/></g>
</svg>
