<?xml version="1.0" encoding="UTF-8"?>
<!DOCTYPE svg PUBLIC "-//W3C//DTD SVG 1.1//EN" "http://www.w3.org/Graphics/SVG/1.1/DTD/svg11.dtd">
<svg xmlns="http://www.w3.org/2000/svg" version="1.1" width="100px" height="100px" style="shape-rendering:geometricPrecision; text-rendering:geometricPrecision; image-rendering:optimizeQuality; fill-rule:evenodd; clip-rule:evenodd" xmlns:xlink="http://www.w3.org/1999/xlink">
<g><path style="opacity:0.997" fill="#7e63fc" d="M 23.5,-0.5 C 27.1667,-0.5 30.8333,-0.5 34.5,-0.5C 35.2655,3.03529 36.5988,6.36862 38.5,9.5C 39.086,9.29069 39.586,8.95735 40,8.5C 41.4321,10.4388 43.2654,11.7721 45.5,12.5C 45.5,13.8333 44.8333,14.5 43.5,14.5C 40.7531,14.8134 38.0865,14.48 35.5,13.5C 32.997,12.0357 30.3303,10.869 27.5,10C 24.1295,7.30272 22.7962,3.80272 23.5,-0.5 Z"/></g>
<g><path style="opacity:0.999" fill="#ae52fc" d="M 34.5,-0.5 C 43.8333,-0.5 53.1667,-0.5 62.5,-0.5C 63.01,2.53941 63.6766,5.53941 64.5,8.5C 64.5,10.1667 64.5,11.8333 64.5,13.5C 58.1082,13.7513 51.7748,13.418 45.5,12.5C 43.2654,11.7721 41.4321,10.4388 40,8.5C 39.586,8.95735 39.086,9.29069 38.5,9.5C 36.5988,6.36862 35.2655,3.03529 34.5,-0.5 Z"/></g>
<g><path style="opacity:1" fill="#5d70f5" d="M 21.5,-0.5 C 22.1667,-0.5 22.8333,-0.5 23.5,-0.5C 22.7962,3.80272 24.1295,7.30272 27.5,10C 30.3303,10.869 32.997,12.0357 35.5,13.5C 38.0865,14.48 40.7531,14.8134 43.5,14.5C 43.5,14.8333 43.5,15.1667 43.5,15.5C 34.1045,14.8623 25.1045,15.5289 16.5,17.5C 16.1667,17.5 15.8333,17.5 15.5,17.5C 14.1054,18.8146 13.1054,18.4812 12.5,16.5C 15.2475,10.6704 18.2475,5.00375 21.5,-0.5 Z"/></g>
<g><path style="opacity:1" fill="#a85aea" d="M 64.5,8.5 C 65.4067,10.6568 66.0733,12.9902 66.5,15.5C 58.8333,15.5 51.1667,15.5 43.5,15.5C 43.5,15.1667 43.5,14.8333 43.5,14.5C 44.8333,14.5 45.5,13.8333 45.5,12.5C 51.7748,13.418 58.1082,13.7513 64.5,13.5C 64.5,11.8333 64.5,10.1667 64.5,8.5 Z"/></g>
<g><path style="opacity:0.994" fill="#050607" d="M 66.5,15.5 C 72.1667,15.5 77.8333,15.5 83.5,15.5C 83.5,18.1667 83.5,20.8333 83.5,23.5C 82.5447,29.4093 82.2114,35.4093 82.5,41.5C 82.5,48.8333 82.5,56.1667 82.5,63.5C 81.8142,69.2339 81.1476,75.0672 80.5,81C 70.991,81.1701 61.6577,81.6701 52.5,82.5C 51.8333,82.5 51.1667,82.5 50.5,82.5C 44.1667,82.5 37.8333,82.5 31.5,82.5C 30.5,82.5 29.5,82.5 28.5,82.5C 25.1027,81.8018 21.6027,81.1352 18,80.5C 17.2124,59.4759 17.3791,38.4759 18.5,17.5C 33.5037,17.6666 48.5037,17.4999 63.5,17C 64.7375,16.7679 65.7375,16.2679 66.5,15.5 Z"/></g>
<g><path style="opacity:1" fill="#f1f1f1" d="M 40.5,45.5 C 41.4511,44.0813 41.7845,42.4147 41.5,40.5C 39.5,40.5 37.5,40.5 35.5,40.5C 35.5,38.8333 35.5,37.1667 35.5,35.5C 39.1667,35.5 42.8333,35.5 46.5,35.5C 49.4806,49.0198 44.1472,54.5198 30.5,52C 21.7191,47.2615 18.8858,40.0948 22,30.5C 28.5203,21.5919 36.3536,20.2586 45.5,26.5C 44.3333,28.1667 43.1667,29.8333 42,31.5C 36.5216,26.9981 31.8549,27.6648 28,33.5C 26.143,43.81 30.3097,47.81 40.5,45.5 Z"/></g>
<g><path style="opacity:1" fill="#f1f1f1" d="M 60.5,22.5 C 74.9859,23.1484 80.4859,30.4817 77,44.5C 71.4998,52.6643 64.3332,54.4976 55.5,50C 50.0481,44.9724 48.2147,38.8058 50,31.5C 52.4888,27.1675 55.9888,24.1675 60.5,22.5 Z"/></g>
<g><path style="opacity:1" fill="#0e0e0e" d="M 60.5,28.5 C 69.3447,28.1755 73.0114,32.3422 71.5,41C 68.4197,46.6514 64.0864,47.818 58.5,44.5C 54.1552,38.5647 54.8218,33.2314 60.5,28.5 Z"/></g>
<g><path style="opacity:1" fill="#42e164" d="M 99.5,20.5 C 99.5,21.1667 99.5,21.8333 99.5,22.5C 95.3523,27.4484 91.6856,32.7817 88.5,38.5C 86.9468,40.385 84.9468,41.385 82.5,41.5C 82.2114,35.4093 82.5447,29.4093 83.5,23.5C 88.7536,22.0824 94.0869,21.0824 99.5,20.5 Z"/></g>
<g><path style="opacity:0.996" fill="#0c8ef6" d="M 12.5,16.5 C 13.1054,18.4812 14.1054,18.8146 15.5,17.5C 15.6666,33.8367 15.4999,50.1701 15,66.5C 10.6811,68.1271 9.01446,71.1271 10,75.5C 13.0073,78.8307 15.8406,82.3307 18.5,86C 17.6195,86.7083 16.9528,87.5416 16.5,88.5C 10.7497,86.1262 5.08307,83.4595 -0.5,80.5C -0.5,79.5 -0.5,78.5 -0.5,77.5C 2.36133,72.4396 4.69467,67.1063 6.5,61.5C 4.95759,54.7721 2.62425,48.4388 -0.5,42.5C -0.5,40.5 -0.5,38.5 -0.5,36.5C 3.83333,29.8333 8.16667,23.1667 12.5,16.5 Z"/></g>
<g><path style="opacity:1" fill="#141b43" d="M 43.5,15.5 C 51.1667,15.5 58.8333,15.5 66.5,15.5C 65.7375,16.2679 64.7375,16.7679 63.5,17C 48.5037,17.4999 33.5037,17.6666 18.5,17.5C 17.3791,38.4759 17.2124,59.4759 18,80.5C 21.6027,81.1352 25.1027,81.8018 28.5,82.5C 25.1667,82.5 21.8333,82.5 18.5,82.5C 16.511,61.1924 15.8443,39.5258 16.5,17.5C 25.1045,15.5289 34.1045,14.8623 43.5,15.5 Z"/></g>
<g><path style="opacity:1" fill="#757575" d="M 35.5,35.5 C 35.5,37.1667 35.5,38.8333 35.5,40.5C 37.5,40.5 39.5,40.5 41.5,40.5C 41.7845,42.4147 41.4511,44.0813 40.5,45.5C 40.5,44.1667 40.5,42.8333 40.5,41.5C 38.5,41.5 36.5,41.5 34.5,41.5C 34.2053,39.2646 34.5386,37.2646 35.5,35.5 Z"/></g>
<g><path style="opacity:1" fill="#2a82b2" d="M 88.5,38.5 C 88.8333,39.1667 89.1667,39.8333 89.5,40.5C 88.5041,40.4142 87.6708,40.7476 87,41.5C 83.8312,48.4611 82.6646,55.7944 83.5,63.5C 83.1667,63.5 82.8333,63.5 82.5,63.5C 82.5,56.1667 82.5,48.8333 82.5,41.5C 84.9468,41.385 86.9468,40.385 88.5,38.5 Z"/></g>
<g><path style="opacity:1" fill="#1b88fa" d="M 96.5,56.5 C 97.2632,58.3684 98.2632,60.0351 99.5,61.5C 99.5,63.1667 99.5,64.8333 99.5,66.5C 97.4159,68.5764 95.7492,70.9097 94.5,73.5C 94.0764,69.7318 92.0764,67.0651 88.5,65.5C 87.135,66.8069 85.8016,66.8069 84.5,65.5C 84.5,64.8333 84.5,64.1667 84.5,63.5C 84.5102,58.0849 85.1769,52.7516 86.5,47.5C 88.2705,48.0354 88.6039,48.8687 87.5,50C 88.9506,49.7374 90.2839,49.9041 91.5,50.5C 90.1111,53.3418 90.7778,55.6751 93.5,57.5C 94.4168,56.8728 95.4168,56.5394 96.5,56.5 Z"/></g>
<g><path style="opacity:0.966" fill="#168cf0" d="M 89.5,40.5 C 91.8414,45.8676 94.1748,51.2009 96.5,56.5C 95.4168,56.5394 94.4168,56.8728 93.5,57.5C 90.7778,55.6751 90.1111,53.3418 91.5,50.5C 90.2839,49.9041 88.9506,49.7374 87.5,50C 88.6039,48.8687 88.2705,48.0354 86.5,47.5C 85.1769,52.7516 84.5102,58.0849 84.5,63.5C 84.1667,63.5 83.8333,63.5 83.5,63.5C 82.6646,55.7944 83.8312,48.4611 87,41.5C 87.6708,40.7476 88.5041,40.4142 89.5,40.5 Z"/></g>
<g><path style="opacity:1" fill="#4c75fa" d="M 84.5,65.5 C 85.8016,66.8069 87.135,66.8069 88.5,65.5C 92.0764,67.0651 94.0764,69.7318 94.5,73.5C 94.0679,74.7095 93.4013,75.7095 92.5,76.5C 91.3176,70.5886 88.651,69.9219 84.5,74.5C 84.5,71.5 84.5,68.5 84.5,65.5 Z"/></g>
<g><path style="opacity:1" fill="#2894d5" d="M 15.5,17.5 C 15.8333,17.5 16.1667,17.5 16.5,17.5C 15.8443,39.5258 16.511,61.1924 18.5,82.5C 22.6479,86.4751 26.3146,90.8085 29.5,95.5C 24.8899,93.5272 20.5566,91.1938 16.5,88.5C 16.9528,87.5416 17.6195,86.7083 18.5,86C 15.8406,82.3307 13.0073,78.8307 10,75.5C 9.01446,71.1271 10.6811,68.1271 15,66.5C 15.4999,50.1701 15.6666,33.8367 15.5,17.5 Z"/></g>
<g><path style="opacity:1" fill="#f5f5f5" d="M 23.5,71.5 C 31.5,71.5 39.5,71.5 47.5,71.5C 47.5,72.8333 47.5,74.1667 47.5,75.5C 39.5,75.5 31.5,75.5 23.5,75.5C 23.5,74.1667 23.5,72.8333 23.5,71.5 Z"/></g>
<g><path style="opacity:1" fill="#6063ca" d="M 82.5,63.5 C 82.8333,63.5 83.1667,63.5 83.5,63.5C 83.8333,63.5 84.1667,63.5 84.5,63.5C 84.5,64.1667 84.5,64.8333 84.5,65.5C 84.5,68.5 84.5,71.5 84.5,74.5C 84.6621,76.5273 84.4955,78.5273 84,80.5C 83.6174,81.056 83.1174,81.3893 82.5,81.5C 82.5,75.5 82.5,69.5 82.5,63.5 Z"/></g>
<g><path style="opacity:0.933" fill="#7267f5" d="M 92.5,76.5 C 90.9998,80.173 88.9998,83.5063 86.5,86.5C 86.1077,84.8211 85.6077,83.1545 85,81.5C 83.5557,83.1554 81.7224,83.822 79.5,83.5C 79.5,83.1667 79.5,82.8333 79.5,82.5C 80.791,82.7373 81.791,82.404 82.5,81.5C 83.1174,81.3893 83.6174,81.056 84,80.5C 84.4955,78.5273 84.6621,76.5273 84.5,74.5C 88.651,69.9219 91.3176,70.5886 92.5,76.5 Z"/></g>
<g><path style="opacity:1" fill="#180133" d="M 82.5,63.5 C 82.5,69.5 82.5,75.5 82.5,81.5C 81.791,82.404 80.791,82.7373 79.5,82.5C 70.5,82.5 61.5,82.5 52.5,82.5C 61.6577,81.6701 70.991,81.1701 80.5,81C 81.1476,75.0672 81.8142,69.2339 82.5,63.5 Z"/></g>
<g><path style="opacity:1" fill="#926ec5" d="M 50.5,82.5 C 51.1667,82.5 51.8333,82.5 52.5,82.5C 61.5,82.5 70.5,82.5 79.5,82.5C 79.5,82.8333 79.5,83.1667 79.5,83.5C 70.8269,83.3336 62.1603,83.5002 53.5,84C 52.035,85.7742 50.7017,87.6075 49.5,89.5C 48.8333,89.5 48.5,89.1667 48.5,88.5C 50.0808,86.8583 50.7475,84.8583 50.5,82.5 Z"/></g>
<g><path style="opacity:1" fill="#2dc29d" d="M 47.5,88.5 C 45.5103,91.4883 43.1769,94.1549 40.5,96.5C 39.8333,96.5 39.5,96.1667 39.5,95.5C 38.1242,91.8785 36.4575,88.3785 34.5,85C 38.9719,83.5634 43.6386,83.0634 48.5,83.5C 48.3713,85.2161 48.038,86.8828 47.5,88.5 Z"/></g>
<g><path style="opacity:1" fill="#b650f9" d="M 86.5,86.5 C 84.5973,91.0683 82.264,95.4016 79.5,99.5C 78.8333,99.5 78.1667,99.5 77.5,99.5C 68.3014,95.9879 58.9681,92.6545 49.5,89.5C 50.7017,87.6075 52.035,85.7742 53.5,84C 62.1603,83.5002 70.8269,83.3336 79.5,83.5C 81.7224,83.822 83.5557,83.1554 85,81.5C 85.6077,83.1545 86.1077,84.8211 86.5,86.5 Z"/></g>
<g><path style="opacity:1" fill="#22a3c9" d="M 18.5,82.5 C 21.8333,82.5 25.1667,82.5 28.5,82.5C 29.5,82.5 30.5,82.5 31.5,82.5C 31.5,82.8333 31.5,83.1667 31.5,83.5C 30.1667,83.5 28.8333,83.5 27.5,83.5C 29.0783,87.0069 30.4117,90.6736 31.5,94.5C 31.3764,95.1067 31.0431,95.44 30.5,95.5C 30.1667,95.5 29.8333,95.5 29.5,95.5C 26.3146,90.8085 22.6479,86.4751 18.5,82.5 Z"/></g>
<g><path style="opacity:1" fill="#3fb0a7" d="M 31.5,82.5 C 37.8333,82.5 44.1667,82.5 50.5,82.5C 50.7475,84.8583 50.0808,86.8583 48.5,88.5C 48.1667,88.5 47.8333,88.5 47.5,88.5C 48.038,86.8828 48.3713,85.2161 48.5,83.5C 43.6386,83.0634 38.9719,83.5634 34.5,85C 36.4575,88.3785 38.1242,91.8785 39.5,95.5C 38.1851,94.5244 36.8518,93.5244 35.5,92.5C 34.5402,89.2694 33.2069,86.2694 31.5,83.5C 31.5,83.1667 31.5,82.8333 31.5,82.5 Z"/></g>
<g><path style="opacity:0.306" fill="#19afc0" d="M 31.5,83.5 C 33.2069,86.2694 34.5402,89.2694 35.5,92.5C 36.8518,93.5244 38.1851,94.5244 39.5,95.5C 39.5,96.1667 39.8333,96.5 40.5,96.5C 39.8333,97.5 39.1667,98.5 38.5,99.5C 37.5,99.5 36.5,99.5 35.5,99.5C 33.6508,98.407 31.9842,97.0737 30.5,95.5C 31.0431,95.44 31.3764,95.1067 31.5,94.5C 30.4117,90.6736 29.0783,87.0069 27.5,83.5C 28.8333,83.5 30.1667,83.5 31.5,83.5 Z"/></g>
</svg>
