<?xml version="1.0" encoding="UTF-8"?>
<!DOCTYPE svg PUBLIC "-//W3C//DTD SVG 1.1//EN" "http://www.w3.org/Graphics/SVG/1.1/DTD/svg11.dtd">
<svg xmlns="http://www.w3.org/2000/svg" version="1.1" width="100px" height="100px" style="shape-rendering:geometricPrecision; text-rendering:geometricPrecision; image-rendering:optimizeQuality; fill-rule:evenodd; clip-rule:evenodd" xmlns:xlink="http://www.w3.org/1999/xlink">
<g><path style="opacity:0.958" fill="#04aad7" d="M 89.5,32.5 C 87.31,33.3745 86.31,35.0411 86.5,37.5C 89.142,37.5123 90.4754,36.179 90.5,33.5C 92.0269,33.427 93.0269,34.0937 93.5,35.5C 93.5,37.1667 93.5,38.8333 93.5,40.5C 95.1667,40.5 96.8333,40.5 98.5,40.5C 98.5,41.1667 98.8333,41.5 99.5,41.5C 99.5,46.1667 99.5,50.8333 99.5,55.5C 95.494,63.1535 89.1607,67.8202 80.5,69.5C 80.3573,67.7376 80.6906,66.0709 81.5,64.5C 77.6646,63.0035 77.6646,62.0035 81.5,61.5C 81.5,60.5 81.5,59.5 81.5,58.5C 88.292,55.268 90.292,50.268 87.5,43.5C 87.67,42.1779 87.3366,41.0113 86.5,40C 83.5488,39.904 80.8822,39.0707 78.5,37.5C 77.8333,38.1667 77.1667,38.8333 76.5,39.5C 75.4763,38.1468 74.143,37.4802 72.5,37.5C 71.0937,37.0269 70.427,36.0269 70.5,34.5C 76.5821,31.4653 82.9154,30.7987 89.5,32.5 Z"/></g>
<g><path style="opacity:1" fill="#0aaada" d="M 55.5,33.5 C 55.7214,34.7348 56.3881,35.7348 57.5,36.5C 55.2338,37.3142 52.9005,37.8142 50.5,38C 53.1873,39.1951 55.854,39.3618 58.5,38.5C 59.521,39.0016 59.6877,39.6683 59,40.5C 55.9433,41.4505 52.7766,41.7839 49.5,41.5C 48.8333,41.5 48.1667,41.5 47.5,41.5C 47.5,41.1667 47.5,40.8333 47.5,40.5C 48.7383,40.19 48.7383,39.69 47.5,39C 44.0801,38.483 40.7468,37.6497 37.5,36.5C 38.6302,35.3777 39.2969,34.0443 39.5,32.5C 44.4158,31.3889 49.4158,31.2223 54.5,32C 55.056,32.3826 55.3893,32.8826 55.5,33.5 Z"/></g>
<g><path style="opacity:1" fill="#06a7de" d="M 89.5,32.5 C 90.1667,32.5 90.5,32.8333 90.5,33.5C 90.4754,36.179 89.142,37.5123 86.5,37.5C 86.31,35.0411 87.31,33.3745 89.5,32.5 Z"/></g>
<g><path style="opacity:0.991" fill="#04acd6" d="M 55.5,33.5 C 59.3619,34.5237 62.1952,36.8571 64,40.5C 65.7106,37.9541 67.8773,35.9541 70.5,34.5C 70.427,36.0269 71.0937,37.0269 72.5,37.5C 73.9331,39.5582 74.5997,41.8915 74.5,44.5C 73.2594,46.5683 72.2594,48.735 71.5,51C 72.0329,53.2261 72.6996,55.3927 73.5,57.5C 71.0122,59.3878 68.0122,60.0545 64.5,59.5C 64.5,58.1667 64.5,56.8333 64.5,55.5C 62.6096,55.2965 61.1096,55.9632 60,57.5C 58.984,56.3659 58.3173,56.6992 58,58.5C 57.6012,58.2716 57.4346,57.9382 57.5,57.5C 57.719,56.325 57.3857,55.325 56.5,54.5C 53.5353,54.2018 50.5353,54.2018 47.5,54.5C 47.762,53.0222 47.4287,51.6888 46.5,50.5C 45.2638,51.2458 43.9305,51.5792 42.5,51.5C 42.7512,49.8297 43.4178,48.3297 44.5,47C 50.1569,46.5006 55.8236,46.3339 61.5,46.5C 61.5,45.5 61.5,44.5 61.5,43.5C 58.4545,43.3418 55.6212,44.0085 53,45.5C 51.6244,44.2949 50.4577,42.9616 49.5,41.5C 52.7766,41.7839 55.9433,41.4505 59,40.5C 59.6877,39.6683 59.521,39.0016 58.5,38.5C 55.854,39.3618 53.1873,39.1951 50.5,38C 52.9005,37.8142 55.2338,37.3142 57.5,36.5C 56.3881,35.7348 55.7214,34.7348 55.5,33.5 Z"/></g>
<g><path style="opacity:1" fill="#02add6" d="M 39.5,32.5 C 39.2969,34.0443 38.6302,35.3777 37.5,36.5C 40.7468,37.6497 44.0801,38.483 47.5,39C 48.7383,39.69 48.7383,40.19 47.5,40.5C 45.5992,40.5668 43.7659,40.2335 42,39.5C 41.5,39.8333 41,40.1667 40.5,40.5C 41.1272,41.4168 41.4606,42.4168 41.5,43.5C 40.8333,43.8333 40.1667,44.1667 39.5,44.5C 39.2407,40.9319 37.2407,39.5985 33.5,40.5C 33.5,39.1667 33.5,37.8333 33.5,36.5C 34.8527,34.2621 36.8527,32.9287 39.5,32.5 Z"/></g>
<g><path style="opacity:0.99" fill="#03abdb" d="M 33.5,36.5 C 33.5,37.8333 33.5,39.1667 33.5,40.5C 37.2407,39.5985 39.2407,40.9319 39.5,44.5C 39.1667,45.1667 38.8333,45.8333 38.5,46.5C 37.5041,46.5858 36.6708,46.2524 36,45.5C 34.6011,48.3634 33.6011,51.3634 33,54.5C 32.1004,56.3975 30.9337,58.0642 29.5,59.5C 29.1667,59 28.8333,58.5 28.5,58C 29.3091,56.2158 29.9757,54.3825 30.5,52.5C 29.3655,50.4624 29.3655,48.4624 30.5,46.5C 29.9953,45.0815 28.9953,44.4148 27.5,44.5C 28.5293,41.1092 30.5293,38.4426 33.5,36.5 Z"/></g>
<g><path style="opacity:1" fill="#11abc4" d="M 47.5,40.5 C 47.5,40.8333 47.5,41.1667 47.5,41.5C 45.1417,41.2525 43.1417,41.9192 41.5,43.5C 41.4606,42.4168 41.1272,41.4168 40.5,40.5C 41,40.1667 41.5,39.8333 42,39.5C 43.7659,40.2335 45.5992,40.5668 47.5,40.5 Z"/></g>
<g><path style="opacity:0.91" fill="#0bacd1" d="M 72.5,37.5 C 74.143,37.4802 75.4763,38.1468 76.5,39.5C 77.1667,38.8333 77.8333,38.1667 78.5,37.5C 80.8822,39.0707 83.5488,39.904 86.5,40C 87.3366,41.0113 87.67,42.1779 87.5,43.5C 82.9442,40.6466 78.6109,40.9799 74.5,44.5C 74.5997,41.8915 73.9331,39.5582 72.5,37.5 Z"/></g>
<g><path style="opacity:1" fill="#12a8c7" d="M 93.5,35.5 C 95.8116,36.4782 97.4782,38.1448 98.5,40.5C 96.8333,40.5 95.1667,40.5 93.5,40.5C 93.5,38.8333 93.5,37.1667 93.5,35.5 Z"/></g>
<g><path style="opacity:0.773" fill="#01acd1" d="M 8.5,40.5 C 14.69,40.1771 20.69,40.5104 26.5,41.5C 23.0343,42.0315 19.5343,42.3648 16,42.5C 13.0706,42.4752 10.5706,41.8086 8.5,40.5 Z"/></g>
<g><path style="opacity:0.268" fill="#1aa3c2" d="M 8.5,40.5 C 10.5706,41.8086 13.0706,42.4752 16,42.5C 19.5343,42.3648 23.0343,42.0315 26.5,41.5C 26.3893,42.1174 26.056,42.6174 25.5,43C 19.1405,43.8306 12.8072,43.6639 6.5,42.5C 6.85549,41.4777 7.52216,40.811 8.5,40.5 Z"/></g>
<g><path style="opacity:0.662" fill="#3399b0" d="M -0.5,45.5 C 2.16667,45.5 4.83333,45.5 7.5,45.5C 7.5,46.1667 7.5,46.8333 7.5,47.5C 4.83333,47.5 2.16667,47.5 -0.5,47.5C -0.5,46.8333 -0.5,46.1667 -0.5,45.5 Z"/></g>
<g><path style="opacity:0.814" fill="#3199b9" d="M 7.5,45.5 C 13.1764,45.3339 18.8431,45.5006 24.5,46C 19.0187,47.4494 13.352,47.9494 7.5,47.5C 7.5,46.8333 7.5,46.1667 7.5,45.5 Z"/></g>
<g><path style="opacity:0.951" fill="#06abd3" d="M 27.5,44.5 C 28.9953,44.4148 29.9953,45.0815 30.5,46.5C 29.3655,48.4624 29.3655,50.4624 30.5,52.5C 29.9757,54.3825 29.3091,56.2158 28.5,58C 28.8333,58.5 29.1667,59 29.5,59.5C 30.9337,58.0642 32.1004,56.3975 33,54.5C 33.6011,51.3634 34.6011,48.3634 36,45.5C 36.6708,46.2524 37.5041,46.5858 38.5,46.5C 35.627,53.1614 37.627,57.1614 44.5,58.5C 46.8541,58.4889 48.8541,57.6556 50.5,56C 48.8659,55.5065 47.1992,55.3398 45.5,55.5C 45.8417,54.6618 46.5084,54.3284 47.5,54.5C 50.5353,54.2018 53.5353,54.2018 56.5,54.5C 57.3857,55.325 57.719,56.325 57.5,57.5C 56.325,57.281 55.325,57.6143 54.5,58.5C 56.2156,59.5487 57.5489,60.882 58.5,62.5C 50.4588,70.24 41.4588,71.4067 31.5,66C 25.3077,59.6347 23.9743,52.468 27.5,44.5 Z"/></g>
<g><path style="opacity:0.983" fill="#10a7ca" d="M 11.5,49.5 C 15.5,49.5 19.5,49.5 23.5,49.5C 23.5,50.5 23.5,51.5 23.5,52.5C 19.1161,52.8256 14.7828,52.4922 10.5,51.5C 10.8627,50.8165 11.1961,50.1499 11.5,49.5 Z"/></g>
<g><path style="opacity:0.928" fill="#0ea9c8" d="M 47.5,54.5 C 46.5084,54.3284 45.8417,54.6618 45.5,55.5C 44.1667,55.5 42.8333,55.5 41.5,55.5C 41.2322,53.901 41.5655,52.5676 42.5,51.5C 43.9305,51.5792 45.2638,51.2458 46.5,50.5C 47.4287,51.6888 47.762,53.0222 47.5,54.5 Z"/></g>
<g><path style="opacity:0.912" fill="#02abdb" d="M 73.5,57.5 C 74.4916,57.3284 75.1583,57.6618 75.5,58.5C 75.6107,59.1174 75.944,59.6174 76.5,60C 74.7254,61.4389 72.7254,62.4389 70.5,63C 70.0257,64.7286 69.0257,65.8953 67.5,66.5C 64.8947,64.663 62.728,62.3297 61,59.5C 60.1482,60.5707 59.3149,61.5707 58.5,62.5C 57.5489,60.882 56.2156,59.5487 54.5,58.5C 55.325,57.6143 56.325,57.281 57.5,57.5C 57.4346,57.9382 57.6012,58.2716 58,58.5C 58.3173,56.6992 58.984,56.3659 60,57.5C 61.1096,55.9632 62.6096,55.2965 64.5,55.5C 64.5,56.8333 64.5,58.1667 64.5,59.5C 68.0122,60.0545 71.0122,59.3878 73.5,57.5 Z"/></g>
<g><path style="opacity:0.939" fill="#05abd0" d="M 75.5,58.5 C 77.6119,59.2751 79.6119,59.2751 81.5,58.5C 81.5,59.5 81.5,60.5 81.5,61.5C 77.6646,62.0035 77.6646,63.0035 81.5,64.5C 80.6906,66.0709 80.3573,67.7376 80.5,69.5C 75.6882,70.0355 71.3548,69.0355 67.5,66.5C 69.0257,65.8953 70.0257,64.7286 70.5,63C 72.7254,62.4389 74.7254,61.4389 76.5,60C 75.944,59.6174 75.6107,59.1174 75.5,58.5 Z"/></g>
<g><path style="opacity:1" fill="#00abdd" d="M 51.5,59.5 C 53.2798,60.9899 53.9465,62.9899 53.5,65.5C 47.4632,65.8293 41.4632,65.4959 35.5,64.5C 40.456,63.5059 45.456,63.1725 50.5,63.5C 50.4326,62.0413 50.7659,60.7079 51.5,59.5 Z"/></g>
</svg>
