<?xml version="1.0" encoding="UTF-8"?>
<!DOCTYPE svg PUBLIC "-//W3C//DTD SVG 1.1//EN" "http://www.w3.org/Graphics/SVG/1.1/DTD/svg11.dtd">
<svg xmlns="http://www.w3.org/2000/svg" version="1.1" width="100px" height="100px" style="shape-rendering:geometricPrecision; text-rendering:geometricPrecision; image-rendering:optimizeQuality; fill-rule:evenodd; clip-rule:evenodd" xmlns:xlink="http://www.w3.org/1999/xlink">
<g><path style="opacity:0.957" fill="#e235a9" d="M 43.5,-0.5 C 47.1667,-0.5 50.8333,-0.5 54.5,-0.5C 57.5961,2.456 59.0961,6.12267 59,10.5C 63.5444,13.6003 68.0444,16.6003 72.5,19.5C 70.9611,20.7671 69.2944,21.7671 67.5,22.5C 64.7264,20.7411 61.8931,19.0744 59,17.5C 58.8333,17.8333 58.6667,18.1667 58.5,18.5C 60.9633,22.2886 62.9633,26.2886 64.5,30.5C 65.8333,33.8333 65.8333,37.1667 64.5,40.5C 59.8154,33.6463 55.4821,26.4796 51.5,19C 47.2772,17.7213 44.6105,19.2213 43.5,23.5C 41.2188,23.9227 39.5521,23.256 38.5,21.5C 38.5106,19.9826 39.1772,18.8159 40.5,18C 37.1651,19.1611 33.8317,20.6611 30.5,22.5C 30.2041,20.597 29.5375,18.9303 28.5,17.5C 31.6894,14.7365 35.356,12.7365 39.5,11.5C 39.0562,6.8311 40.3895,2.8311 43.5,-0.5 Z"/></g>
<g><path style="opacity:0.975" fill="#e038a9" d="M 72.5,19.5 C 74.4835,19.3832 76.1502,20.0499 77.5,21.5C 89.2275,16.7446 94.5608,20.5779 93.5,33C 92.2174,35.4118 90.3841,37.2451 88,38.5C 87.5004,45.4921 87.3337,52.4921 87.5,59.5C 86.5655,58.4324 86.2322,57.099 86.5,55.5C 84.8333,55.5 83.1667,55.5 81.5,55.5C 81.6661,49.8236 81.4994,44.1569 81,38.5C 76.0044,36.0665 74.1711,32.0665 75.5,26.5C 72.632,25.6473 69.9653,24.314 67.5,22.5C 69.2944,21.7671 70.9611,20.7671 72.5,19.5 Z"/></g>
<g><path style="opacity:0.975" fill="#e435ab" d="M 28.5,17.5 C 29.5375,18.9303 30.2041,20.597 30.5,22.5C 28.2615,23.5419 26.0948,24.8753 24,26.5C 23.7056,31.7638 21.3723,35.7638 17,38.5C 16.18,45.0137 16.3467,51.3471 17.5,57.5C 17.0704,60.0473 17.0704,62.7139 17.5,65.5C 17.1788,67.0481 16.1788,67.7148 14.5,67.5C 14.0882,69.9726 15.0882,71.3059 17.5,71.5C 14.7131,72.4767 11.7131,72.81 8.5,72.5C 8.84316,74.4832 8.17649,75.8166 6.5,76.5C 5.88258,76.3893 5.38258,76.056 5,75.5C 4.33333,71.8333 4.33333,68.1667 5,64.5C 6.66667,63.1667 8.33333,61.8333 10,60.5C 10.6667,53.1667 10.6667,45.8333 10,38.5C 8.04485,37.5467 6.37818,36.2134 5,34.5C 2.66176,21.4993 7.66176,17.166 20,21.5C 22.8326,20.0613 25.6659,18.728 28.5,17.5 Z"/></g>
<g><path style="opacity:0.847" fill="#df38a4" d="M 38.5,21.5 C 39.5521,23.256 41.2188,23.9227 43.5,23.5C 41.0516,28.8656 38.0516,33.8656 34.5,38.5C 33.0476,37.2869 31.7143,37.6203 30.5,39.5C 29.7084,38.3002 29.7084,36.9669 30.5,35.5C 32.7422,30.591 35.4089,25.9244 38.5,21.5 Z"/></g>
<g><path style="opacity:0.927" fill="#e135aa" d="M 30.5,35.5 C 29.7084,36.9669 29.7084,38.3002 30.5,39.5C 31.7143,37.6203 33.0476,37.2869 34.5,38.5C 30.306,46.8902 25.6394,55.0569 20.5,63C 21.305,64.1127 21.9717,65.2794 22.5,66.5C 20.7085,66.634 19.0418,66.3007 17.5,65.5C 17.0704,62.7139 17.0704,60.0473 17.5,57.5C 21.8392,50.1209 26.1725,42.7876 30.5,35.5 Z"/></g>
<g><path style="opacity:0.998" fill="#e237a1" d="M 64.5,30.5 C 67.3346,34.1638 69.668,38.1638 71.5,42.5C 70.4336,44.7014 69.767,47.0347 69.5,49.5C 67.5832,46.669 65.9166,43.669 64.5,40.5C 65.8333,37.1667 65.8333,33.8333 64.5,30.5 Z"/></g>
<g><path style="opacity:0.914" fill="#df399f" d="M 74.5,47.5 C 76.9236,50.0078 78.5903,53.0078 79.5,56.5C 78.2921,57.2341 76.9587,57.5674 75.5,57.5C 74.9886,54.9716 74.3219,52.4716 73.5,50C 73.528,48.9302 73.8614,48.0968 74.5,47.5 Z"/></g>
<g><path style="opacity:0.934" fill="#e136aa" d="M 71.5,42.5 C 73.2503,43.6594 74.2503,45.326 74.5,47.5C 73.8614,48.0968 73.528,48.9302 73.5,50C 74.3219,52.4716 74.9886,54.9716 75.5,57.5C 76.9587,57.5674 78.2921,57.2341 79.5,56.5C 80.9245,58.0311 81.5912,57.6977 81.5,55.5C 83.1667,55.5 84.8333,55.5 86.5,55.5C 86.2322,57.099 86.5655,58.4324 87.5,59.5C 94.4021,63.7097 95.9021,69.3764 92,76.5C 87.4465,80.06 82.6132,80.3933 77.5,77.5C 75.4734,78.5133 73.4734,79.5133 71.5,80.5C 71.0472,79.5416 70.3805,78.7083 69.5,78C 70.3366,76.9887 70.67,75.8221 70.5,74.5C 57.2164,73.4982 42.5497,73.1649 26.5,73.5C 25.8485,74.0906 25.1818,74.7573 24.5,75.5C 22.9617,73.7567 21.9617,71.7567 21.5,69.5C 31.4018,70.4142 41.4018,70.7475 51.5,70.5C 57.8512,70.4364 64.0179,69.4364 70,67.5C 72.4276,69.13 74.261,68.7967 75.5,66.5C 75.5106,64.9826 76.1772,63.8159 77.5,63C 74.2406,58.8944 71.574,54.3944 69.5,49.5C 69.767,47.0347 70.4336,44.7014 71.5,42.5 Z"/></g>
<g><path style="opacity:0.949" fill="#e331ae" d="M 17.5,65.5 C 19.0418,66.3007 20.7085,66.634 22.5,66.5C 40.1667,66.5 57.8333,66.5 75.5,66.5C 74.261,68.7967 72.4276,69.13 70,67.5C 64.0179,69.4364 57.8512,70.4364 51.5,70.5C 41.4018,70.7475 31.4018,70.4142 21.5,69.5C 19.5168,69.1568 18.1834,69.8235 17.5,71.5C 15.0882,71.3059 14.0882,69.9726 14.5,67.5C 16.1788,67.7148 17.1788,67.0481 17.5,65.5 Z"/></g>
<g><path style="opacity:0.945" fill="#e236a9" d="M 21.5,69.5 C 21.9617,71.7567 22.9617,73.7567 24.5,75.5C 25.1818,74.7573 25.8485,74.0906 26.5,73.5C 30.4783,76.784 34.8116,79.6174 39.5,82C 42.6571,82.2398 45.8238,82.0731 49,81.5C 51.59,81.3757 53.9233,82.0423 56,83.5C 60.9452,80.6143 65.7785,77.6143 70.5,74.5C 70.67,75.8221 70.3366,76.9887 69.5,78C 70.3805,78.7083 71.0472,79.5416 71.5,80.5C 67.2395,82.9091 63.0728,85.5757 59,88.5C 59.2457,93.3428 57.4124,97.0094 53.5,99.5C 50.5,99.5 47.5,99.5 44.5,99.5C 40.8881,96.8931 39.0547,93.2264 39,88.5C 32.9617,84.3145 26.6283,80.6478 20,77.5C 15.101,80.483 10.601,80.1496 6.5,76.5C 8.17649,75.8166 8.84316,74.4832 8.5,72.5C 11.7131,72.81 14.7131,72.4767 17.5,71.5C 18.1834,69.8235 19.5168,69.1568 21.5,69.5 Z"/></g>
</svg>
