<?xml version="1.0" encoding="UTF-8"?>
<!DOCTYPE svg PUBLIC "-//W3C//DTD SVG 1.1//EN" "http://www.w3.org/Graphics/SVG/1.1/DTD/svg11.dtd">
<svg xmlns="http://www.w3.org/2000/svg" version="1.1" width="100px" height="100px" style="shape-rendering:geometricPrecision; text-rendering:geometricPrecision; image-rendering:optimizeQuality; fill-rule:evenodd; clip-rule:evenodd" xmlns:xlink="http://www.w3.org/1999/xlink">
<g><path style="opacity:0.954" fill="#413428" d="M 68.5,38.5 C 65.1501,38.335 61.8168,38.5017 58.5,39C 60.9759,39.4236 63.3093,40.2569 65.5,41.5C 66.6473,41.1822 67.4806,40.5156 68,39.5C 68.7263,42.4605 70.5596,44.4605 73.5,45.5C 75.3022,44.7251 75.9689,43.7251 75.5,42.5C 78.7843,44.117 81.4509,46.4503 83.5,49.5C 79.4857,51.1797 78.819,53.513 81.5,56.5C 83.1667,55.8333 84.8333,55.1667 86.5,54.5C 87.3857,53.675 87.719,52.675 87.5,51.5C 90.3667,51.6308 92.0334,50.2974 92.5,47.5C 94.8056,47.0074 97.139,46.6741 99.5,46.5C 99.5,49.5 99.5,52.5 99.5,55.5C 94.4563,61.3481 88.123,63.3481 80.5,61.5C 80.4938,59.1556 79.3271,57.8223 77,57.5C 75.175,57.9434 73.3417,58.2767 71.5,58.5C 71.5,57.5 71.5,56.5 71.5,55.5C 67.8333,54.8333 64.1667,54.1667 60.5,53.5C 55.2965,51.7464 49.9631,51.2464 44.5,52C 37.9223,54.0816 31.589,56.7483 25.5,60C 19.2578,62.6084 12.9245,62.9418 6.5,61C 3.37935,60.0332 1.04602,58.1999 -0.5,55.5C -0.5,51.8333 -0.5,48.1667 -0.5,44.5C 0.833333,43.5 2.16667,42.5 3.5,41.5C 4.50895,44.7198 6.50895,45.3865 9.5,43.5C 9.16667,44.1667 8.83333,44.8333 8.5,45.5C 6.30997,46.7476 5.97663,48.4143 7.5,50.5C 8.01369,55.4236 10.347,56.5903 14.5,54C 13.2888,53.1072 13.2888,52.2739 14.5,51.5C 15.8333,52.5 17.1667,53.5 18.5,54.5C 19.9333,51.754 19.2666,49.754 16.5,48.5C 18.2344,45.7997 20.5677,43.7997 23.5,42.5C 23.2488,44.1703 22.5822,45.6703 21.5,47C 23.1066,48.049 23.7733,49.549 23.5,51.5C 24.8221,51.67 25.9887,51.3366 27,50.5C 27.4966,48.1902 27.6633,45.8568 27.5,43.5C 28.8333,43.5 30.1667,43.5 31.5,43.5C 31.5,44.8333 31.5,46.1667 31.5,47.5C 32.8333,47.5 34.1667,47.5 35.5,47.5C 35.5,45.5 35.5,43.5 35.5,41.5C 33.0706,41.1156 30.7373,40.449 28.5,39.5C 28.9175,38.7784 29.5842,38.2784 30.5,38C 34.5,37.3333 38.5,37.3333 42.5,38C 45.5755,38.911 47.9089,40.7443 49.5,43.5C 51.0911,40.7443 53.4245,38.911 56.5,38C 60.6888,37.1881 64.6888,37.3547 68.5,38.5 Z"/></g>
<g><path style="opacity:0.912" fill="#423423" d="M 68.5,38.5 C 71.3311,39.0787 73.6644,40.412 75.5,42.5C 75.9689,43.7251 75.3022,44.7251 73.5,45.5C 70.5596,44.4605 68.7263,42.4605 68,39.5C 67.4806,40.5156 66.6473,41.1822 65.5,41.5C 63.3093,40.2569 60.9759,39.4236 58.5,39C 61.8168,38.5017 65.1501,38.335 68.5,38.5 Z"/></g>
<g><path style="opacity:0.956" fill="#423424" d="M 28.5,39.5 C 30.7373,40.449 33.0706,41.1156 35.5,41.5C 35.5,43.5 35.5,45.5 35.5,47.5C 34.1667,47.5 32.8333,47.5 31.5,47.5C 31.5,46.1667 31.5,44.8333 31.5,43.5C 30.1667,43.5 28.8333,43.5 27.5,43.5C 27.6633,45.8568 27.4966,48.1902 27,50.5C 25.9887,51.3366 24.8221,51.67 23.5,51.5C 23.7733,49.549 23.1066,48.049 21.5,47C 22.5822,45.6703 23.2488,44.1703 23.5,42.5C 24.6594,40.7497 26.326,39.7497 28.5,39.5 Z"/></g>
<g><path style="opacity:0.612" fill="#3a342e" d="M 97.5,43.5 C 94.5701,42.701 91.5701,42.3677 88.5,42.5C 88.5,42.1667 88.5,41.8333 88.5,41.5C 92.056,39.877 95.056,40.5437 97.5,43.5 Z"/></g>
<g><path style="opacity:0.951" fill="#3d3723" d="M 9.5,41.5 C 9.5,42.1667 9.5,42.8333 9.5,43.5C 6.50895,45.3865 4.50895,44.7198 3.5,41.5C 5.61121,40.2584 7.61121,40.2584 9.5,41.5 Z"/></g>
<g><path style="opacity:0.702" fill="#3c352e" d="M 9.5,41.5 C 11.4387,42.0138 12.4387,43.3472 12.5,45.5C 11.2408,49.4562 9.90747,49.4562 8.5,45.5C 8.83333,44.8333 9.16667,44.1667 9.5,43.5C 9.5,42.8333 9.5,42.1667 9.5,41.5 Z"/></g>
<g><path style="opacity:0.874" fill="#3c3428" d="M 88.5,42.5 C 91.5701,42.3677 94.5701,42.701 97.5,43.5C 98.1667,43.8333 98.8333,44.1667 99.5,44.5C 99.5,45.1667 99.5,45.8333 99.5,46.5C 97.139,46.6741 94.8056,47.0074 92.5,47.5C 91.0327,45.1569 89.6994,45.4903 88.5,48.5C 86.8888,47.6798 86.2222,46.3464 86.5,44.5C 87.5,44.1667 88.1667,43.5 88.5,42.5 Z"/></g>
<g><path style="opacity:0.29" fill="#4a2e25" d="M 88.5,41.5 C 88.5,41.8333 88.5,42.1667 88.5,42.5C 88.1667,43.5 87.5,44.1667 86.5,44.5C 86.427,42.9731 87.0937,41.9731 88.5,41.5 Z"/></g>
<g><path style="opacity:1" fill="#423425" d="M 39.5,45.5 C 44.8333,45.5 50.1667,45.5 55.5,45.5C 55.5,46.5 55.5,47.5 55.5,48.5C 50.1667,48.5 44.8333,48.5 39.5,48.5C 39.5,47.5 39.5,46.5 39.5,45.5 Z"/></g>
<g><path style="opacity:0.925" fill="#403424" d="M 16.5,48.5 C 19.2666,49.754 19.9333,51.754 18.5,54.5C 17.1667,53.5 15.8333,52.5 14.5,51.5C 13.2888,52.2739 13.2888,53.1072 14.5,54C 10.347,56.5903 8.01369,55.4236 7.5,50.5C 10.9038,51.9004 13.9038,51.2337 16.5,48.5 Z"/></g>
<g><path style="opacity:0.957" fill="#403523" d="M 83.5,49.5 C 84.8333,50.1667 86.1667,50.8333 87.5,51.5C 87.719,52.675 87.3857,53.675 86.5,54.5C 84.8333,55.1667 83.1667,55.8333 81.5,56.5C 78.819,53.513 79.4857,51.1797 83.5,49.5 Z"/></g>
<g><path style="opacity:0.722" fill="#3f342d" d="M 60.5,53.5 C 64.1667,54.1667 67.8333,54.8333 71.5,55.5C 71.5,56.5 71.5,57.5 71.5,58.5C 67.6456,57.0698 63.9789,55.4031 60.5,53.5 Z"/></g>
<g><path style="opacity:0.661" fill="#3b3727" d="M 80.5,61.5 C 77.0836,61.4725 74.0836,60.4725 71.5,58.5C 73.3417,58.2767 75.175,57.9434 77,57.5C 79.3271,57.8223 80.4938,59.1556 80.5,61.5 Z"/></g>
</svg>
