<?xml version="1.0" encoding="UTF-8"?>
<!DOCTYPE svg PUBLIC "-//W3C//DTD SVG 1.1//EN" "http://www.w3.org/Graphics/SVG/1.1/DTD/svg11.dtd">
<svg xmlns="http://www.w3.org/2000/svg" version="1.1" width="100px" height="100px" style="shape-rendering:geometricPrecision; text-rendering:geometricPrecision; image-rendering:optimizeQuality; fill-rule:evenodd; clip-rule:evenodd" xmlns:xlink="http://www.w3.org/1999/xlink">
<g><path style="opacity:0.985" fill="#625186" d="M 50.5,28.5 C 50.5,29.8333 50.5,31.1667 50.5,32.5C 49.6851,31.5707 48.8518,30.5707 48,29.5C 46.596,32.5438 45.096,35.5438 43.5,38.5C 41.9547,39.4519 40.288,39.7852 38.5,39.5C 33.1769,31.5286 27.8435,23.5286 22.5,15.5C 29.1667,14.1667 35.8333,14.1667 42.5,15.5C 45.1935,19.8507 47.8602,24.1841 50.5,28.5 Z"/></g>
<g><path style="opacity:0.736" fill="#62547e" d="M 50.5,28.5 C 53.5792,31.6505 55.9125,35.3171 57.5,39.5C 55.8853,37.6258 53.8853,36.2925 51.5,35.5C 51.7373,34.209 51.404,33.209 50.5,32.5C 50.5,31.1667 50.5,29.8333 50.5,28.5 Z"/></g>
<g><path style="opacity:0.992" fill="#463862" d="M -0.5,14.5 C 5.84209,14.3338 12.1754,14.5005 18.5,15C 26.1819,26.677 33.8486,38.3437 41.5,50C 41.4301,50.7648 41.0967,51.2648 40.5,51.5C 39.2209,50.032 37.5542,49.3653 35.5,49.5C 35.7989,51.604 35.4656,53.604 34.5,55.5C 33.8333,55.1667 33.1667,54.8333 32.5,54.5C 29.655,54.8328 27.155,55.8328 25,57.5C 24.7122,54.7135 23.2122,53.0468 20.5,52.5C 21.7784,50.4558 21.6117,48.4558 20,46.5C 13.6395,36.4254 6.80619,26.7587 -0.5,17.5C -0.5,16.5 -0.5,15.5 -0.5,14.5 Z"/></g>
<g><path style="opacity:0.818" fill="#9f4d8c" d="M 99.5,34.5 C 99.5,38.8333 99.5,43.1667 99.5,47.5C 88.6536,47.8278 77.9869,47.4944 67.5,46.5C 67.2289,44.1789 67.8955,42.1789 69.5,40.5C 72.1667,39.8333 74.8333,39.1667 77.5,38.5C 72.8804,37.5067 68.2137,37.1734 63.5,37.5C 63.5,38.5 63.5,39.5 63.5,40.5C 61.3655,39.2965 60.0322,37.4632 59.5,35C 72.8292,34.5001 86.1625,34.3334 99.5,34.5 Z"/></g>
<g><path style="opacity:0.943" fill="#a44992" d="M 67.5,46.5 C 65.6736,44.8525 64.3403,42.8525 63.5,40.5C 63.5,39.5 63.5,38.5 63.5,37.5C 68.2137,37.1734 72.8804,37.5067 77.5,38.5C 74.8333,39.1667 72.1667,39.8333 69.5,40.5C 67.8955,42.1789 67.2289,44.1789 67.5,46.5 Z"/></g>
<g><path style="opacity:0.992" fill="#634f88" d="M 50.5,32.5 C 51.404,33.209 51.7373,34.209 51.5,35.5C 53.8853,36.2925 55.8853,37.6258 57.5,39.5C 60.5792,42.2565 62.9125,45.5899 64.5,49.5C 61.8753,50.4577 61.8753,51.6243 64.5,53C 61.3905,55.3047 61.0571,57.8047 63.5,60.5C 60.8333,62.5 60.8333,64.5 63.5,66.5C 63.1667,68.5 62.8333,70.5 62.5,72.5C 64.0453,73.4519 65.712,73.7852 67.5,73.5C 67.552,75.9029 67.2186,78.2362 66.5,80.5C 62.6102,75.7452 58.9436,70.7452 55.5,65.5C 53.8253,67.5309 52.1586,69.5309 50.5,71.5C 44.6177,71.9506 42.2843,69.2839 43.5,63.5C 42.5,63.5 41.5,63.5 40.5,63.5C 40.5,61.5 40.5,59.5 40.5,57.5C 42.0324,54.9426 43.6991,52.4426 45.5,50C 43.2805,46.3854 40.9472,42.8854 38.5,39.5C 40.288,39.7852 41.9547,39.4519 43.5,38.5C 45.096,35.5438 46.596,32.5438 48,29.5C 48.8518,30.5707 49.6851,31.5707 50.5,32.5 Z"/></g>
<g><path style="opacity:0.949" fill="#a04d8c" d="M 99.5,52.5 C 99.5,56.8333 99.5,61.1667 99.5,65.5C 92.825,65.6663 86.1583,65.4996 79.5,65C 76.2488,61.5806 73.5821,57.7473 71.5,53.5C 80.8096,52.5017 90.1429,52.1684 99.5,52.5 Z"/></g>
<g><path style="opacity:0.956" fill="#473865" d="M 40.5,51.5 C 36.0683,58.7089 31.4016,65.7089 26.5,72.5C 25.6827,70.1691 25.0161,67.6691 24.5,65C 24.8964,63.1026 25.8964,61.6026 27.5,60.5C 26.7579,59.7132 25.9246,59.0465 25,58.5C 23.8869,59.7111 22.7202,59.7111 21.5,58.5C 20.5481,56.9547 20.2148,55.288 20.5,53.5C 20.5,53.1667 20.5,52.8333 20.5,52.5C 23.2122,53.0468 24.7122,54.7135 25,57.5C 27.155,55.8328 29.655,54.8328 32.5,54.5C 33.1667,54.8333 33.8333,55.1667 34.5,55.5C 35.4656,53.604 35.7989,51.604 35.5,49.5C 37.5542,49.3653 39.2209,50.032 40.5,51.5 Z"/></g>
<g><path style="opacity:0.755" fill="#42395a" d="M 19.5,54.5 C 19.5,56.8333 19.5,59.1667 19.5,61.5C 17.1417,61.2525 15.1417,61.9192 13.5,63.5C 14.7589,59.9754 16.7589,56.9754 19.5,54.5 Z"/></g>
<g><path style="opacity:0.991" fill="#64508b" d="M 64.5,49.5 C 68.5746,53.9756 71.9079,58.9756 74.5,64.5C 73.5,64.5 72.5,64.5 71.5,64.5C 71.0443,72.987 72.7109,73.6537 76.5,66.5C 77.8611,68.8505 79.1944,71.1838 80.5,73.5C 81.0084,76.8515 82.3418,79.8515 84.5,82.5C 84,82.8333 83.5,83.1667 83,83.5C 79.351,81.648 75.5177,81.148 71.5,82C 70.1667,82.6667 70.1667,83.3333 71.5,84C 70.552,84.4828 69.552,84.6495 68.5,84.5C 67.8333,83.1667 67.1667,81.8333 66.5,80.5C 67.2186,78.2362 67.552,75.9029 67.5,73.5C 65.712,73.7852 64.0453,73.4519 62.5,72.5C 62.8333,70.5 63.1667,68.5 63.5,66.5C 60.8333,64.5 60.8333,62.5 63.5,60.5C 61.0571,57.8047 61.3905,55.3047 64.5,53C 61.8753,51.6243 61.8753,50.4577 64.5,49.5 Z"/></g>
<g><path style="opacity:0.971" fill="#614f85" d="M 40.5,57.5 C 40.5,59.5 40.5,61.5 40.5,63.5C 41.5,63.5 42.5,63.5 43.5,63.5C 42.2843,69.2839 44.6177,71.9506 50.5,71.5C 47.8573,76.1321 44.8573,80.4654 41.5,84.5C 39.3523,84.6106 39.019,83.944 40.5,82.5C 35.2079,81.5052 29.8746,81.1718 24.5,81.5C 29.4744,73.2051 34.8077,65.2051 40.5,57.5 Z"/></g>
<g><path style="opacity:0.955" fill="#675183" d="M 74.5,64.5 C 75.5,64.8333 76.1667,65.5 76.5,66.5C 72.7109,73.6537 71.0443,72.987 71.5,64.5C 72.5,64.5 73.5,64.5 74.5,64.5 Z"/></g>
<g><path style="opacity:0.996" fill="#453861" d="M 20.5,53.5 C 20.2148,55.288 20.5481,56.9547 21.5,58.5C 22.7202,59.7111 23.8869,59.7111 25,58.5C 25.9246,59.0465 26.7579,59.7132 27.5,60.5C 25.8964,61.6026 24.8964,63.1026 24.5,65C 25.0161,67.6691 25.6827,70.1691 26.5,72.5C 26.1667,73.5 25.5,74.1667 24.5,74.5C 23.7002,72.2591 22.0336,71.2591 19.5,71.5C 19.6602,69.8008 19.4935,68.1341 19,66.5C 18.6667,66.8333 18.3333,67.1667 18,67.5C 17.7508,66.376 17.2508,65.376 16.5,64.5C 15.5159,67.4281 15.1826,70.4281 15.5,73.5C 16.8333,73.5 18.1667,73.5 19.5,73.5C 19.5792,74.9305 19.2458,76.2638 18.5,77.5C 14.8016,78.3939 11.1349,79.3939 7.5,80.5C 10.627,80.98 13.4604,81.98 16,83.5C 17.0407,81.6885 18.2073,81.3552 19.5,82.5C 19.6716,83.4916 19.3382,84.1583 18.5,84.5C 14.4862,84.6655 10.4862,84.4988 6.5,84C 6.83333,83.6667 7.16667,83.3333 7.5,83C 5.61562,81.9513 4.28229,80.4513 3.5,78.5C 6.10415,72.9419 9.43748,67.9419 13.5,63.5C 15.1417,61.9192 17.1417,61.2525 19.5,61.5C 19.5,59.1667 19.5,56.8333 19.5,54.5C 19.5,53.8333 19.8333,53.5 20.5,53.5 Z"/></g>
<g><path style="opacity:0.949" fill="#463766" d="M 24.5,74.5 C 23.6167,77.7043 21.9501,80.3709 19.5,82.5C 18.2073,81.3552 17.0407,81.6885 16,83.5C 13.4604,81.98 10.627,80.98 7.5,80.5C 11.1349,79.3939 14.8016,78.3939 18.5,77.5C 19.2458,76.2638 19.5792,74.9305 19.5,73.5C 18.1667,73.5 16.8333,73.5 15.5,73.5C 15.1826,70.4281 15.5159,67.4281 16.5,64.5C 17.2508,65.376 17.7508,66.376 18,67.5C 18.3333,67.1667 18.6667,66.8333 19,66.5C 19.4935,68.1341 19.6602,69.8008 19.5,71.5C 22.0336,71.2591 23.7002,72.2591 24.5,74.5 Z"/></g>
<g><path style="opacity:0.607" fill="#615380" d="M 80.5,73.5 C 83.3899,76.9221 86.0566,80.5888 88.5,84.5C 81.6778,85.8181 75.0112,85.8181 68.5,84.5C 69.552,84.6495 70.552,84.4828 71.5,84C 70.1667,83.3333 70.1667,82.6667 71.5,82C 75.5177,81.148 79.351,81.648 83,83.5C 83.5,83.1667 84,82.8333 84.5,82.5C 82.3418,79.8515 81.0084,76.8515 80.5,73.5 Z"/></g>
<g><path style="opacity:0.999" fill="#46395a" d="M 3.5,78.5 C 4.28229,80.4513 5.61562,81.9513 7.5,83C 7.16667,83.3333 6.83333,83.6667 6.5,84C 10.4862,84.4988 14.4862,84.6655 18.5,84.5C 12.3554,85.4902 6.02207,85.8235 -0.5,85.5C -0.5,84.5 -0.5,83.5 -0.5,82.5C 0.833333,81.1667 2.16667,79.8333 3.5,78.5 Z"/></g>
<g><path style="opacity:0.998" fill="#60507e" d="M 24.5,81.5 C 29.8746,81.1718 35.2079,81.5052 40.5,82.5C 39.019,83.944 39.3523,84.6106 41.5,84.5C 35.3217,85.8174 28.9883,85.8174 22.5,84.5C 23.1925,83.4822 23.8592,82.4822 24.5,81.5 Z"/></g>
</svg>
