<?xml version="1.0" encoding="UTF-8"?>
<!DOCTYPE svg PUBLIC "-//W3C//DTD SVG 1.1//EN" "http://www.w3.org/Graphics/SVG/1.1/DTD/svg11.dtd">
<svg xmlns="http://www.w3.org/2000/svg" version="1.1" width="100px" height="100px" style="shape-rendering:geometricPrecision; text-rendering:geometricPrecision; image-rendering:optimizeQuality; fill-rule:evenodd; clip-rule:evenodd" xmlns:xlink="http://www.w3.org/1999/xlink">
<g><path style="opacity:1" fill="#e14f26" d="M 5.5,-0.5 C 35.1667,-0.5 64.8333,-0.5 94.5,-0.5C 91.8333,29.8333 89.1667,60.1667 86.5,90.5C 78.7154,91.8898 71.0487,93.7232 63.5,96C 60.6907,97.0934 58.024,98.2601 55.5,99.5C 51.5,99.5 47.5,99.5 43.5,99.5C 40.5,98.1667 37.5,96.8333 34.5,95.5C 39.3606,96.4046 42.0273,94.4046 42.5,89.5C 44.6255,88.1707 46.6255,86.8374 48.5,85.5C 49.1646,87.3691 49.8313,89.3691 50.5,91.5C 57.421,89.4555 64.421,87.6222 71.5,86C 74.2581,84.8659 76.7581,83.3659 79,81.5C 81.3875,56.5321 83.5542,31.5321 85.5,6.5C 73.5,6.5 61.5,6.5 49.5,6.5C 49.5,9.5 49.5,12.5 49.5,15.5C 40.1667,16.1667 30.8333,16.8333 21.5,17.5C 21.5,17.8333 21.5,18.1667 21.5,18.5C 20.5064,27.6517 20.1731,36.985 20.5,46.5C 17.8333,46.8333 15.1667,47.1667 12.5,47.5C 12.4613,44.6786 11.7946,42.0119 10.5,39.5C 9.82434,40.6016 9.15767,41.6016 8.5,42.5C 6.83857,28.2135 5.83857,13.8802 5.5,-0.5 Z"/></g>
<g><path style="opacity:1" fill="#f2b399" d="M 21.5,17.5 C 40.1667,17.5 58.8333,17.5 77.5,17.5C 77.7947,19.7354 77.4614,21.7354 76.5,23.5C 76.5,21.8333 76.5,20.1667 76.5,18.5C 67.5,18.5 58.5,18.5 49.5,18.5C 40.5,18.5 31.5,18.5 22.5,18.5C 22.5,20.8333 22.5,23.1667 22.5,25.5C 21.5318,23.3926 21.1984,21.0593 21.5,18.5C 21.5,18.1667 21.5,17.8333 21.5,17.5 Z"/></g>
<g><path style="opacity:1" fill="#edebea" d="M 49.5,20.5 C 49.5,22.5 49.5,24.5 49.5,26.5C 44.1667,26.5 38.8333,26.5 33.5,26.5C 33.1818,31.0323 33.5151,35.3656 34.5,39.5C 34.4142,40.4959 34.7476,41.3292 35.5,42C 40.1548,42.4992 44.8215,42.6658 49.5,42.5C 49.5,44.8333 49.5,47.1667 49.5,49.5C 41.7911,49.7311 34.1244,49.3978 26.5,48.5C 25.5024,39.1943 24.8357,29.861 24.5,20.5C 32.8333,20.5 41.1667,20.5 49.5,20.5 Z"/></g>
<g><path style="opacity:1" fill="#fdfdfa" d="M 49.5,19.5 C 58.1667,19.5 66.8333,19.5 75.5,19.5C 75.5,22.1667 75.5,24.8333 75.5,27.5C 66.6506,27.8264 57.9839,27.493 49.5,26.5C 49.5,24.5 49.5,22.5 49.5,20.5C 49.5,20.1667 49.5,19.8333 49.5,19.5 Z"/></g>
<g><path style="opacity:1" fill="#dd693c" d="M 49.5,15.5 C 59.1724,15.3335 68.8391,15.5002 78.5,16C 79.6219,19.4085 79.7886,22.9085 79,26.5C 78.7645,28.1193 77.9311,29.1193 76.5,29.5C 76.5,29.1667 76.5,28.8333 76.5,28.5C 76.5,26.8333 76.5,25.1667 76.5,23.5C 77.4614,21.7354 77.7947,19.7354 77.5,17.5C 58.8333,17.5 40.1667,17.5 21.5,17.5C 30.8333,16.8333 40.1667,16.1667 49.5,15.5 Z"/></g>
<g><path style="opacity:1" fill="#ee632b" d="M 48.5,85.5 C 48.3601,83.8762 49.0267,82.7096 50.5,82C 49.2625,81.7679 48.2625,81.2679 47.5,80.5C 50.3854,80.8064 53.0521,80.4731 55.5,79.5C 61.7406,79.181 67.7406,77.8477 73.5,75.5C 74.4512,70.2302 74.7846,64.8968 74.5,59.5C 75.1621,55.5341 75.4955,51.5341 75.5,47.5C 76.0356,44.3019 75.369,41.6353 73.5,39.5C 65.6841,38.5076 57.6841,38.1743 49.5,38.5C 49.5,35.8333 49.5,33.1667 49.5,30.5C 58.0168,30.8261 66.3501,30.4927 74.5,29.5C 75.1667,29.5 75.8333,29.5 76.5,29.5C 77.9311,29.1193 78.7645,28.1193 79,26.5C 79.7886,22.9085 79.6219,19.4085 78.5,16C 68.8391,15.5002 59.1724,15.3335 49.5,15.5C 49.5,12.5 49.5,9.5 49.5,6.5C 61.5,6.5 73.5,6.5 85.5,6.5C 83.5542,31.5321 81.3875,56.5321 79,81.5C 76.7581,83.3659 74.2581,84.8659 71.5,86C 64.421,87.6222 57.421,89.4555 50.5,91.5C 49.8313,89.3691 49.1646,87.3691 48.5,85.5 Z"/></g>
<g><path style="opacity:1" fill="#feebdd" d="M 49.5,19.5 C 49.5,19.1667 49.5,18.8333 49.5,18.5C 58.5,18.5 67.5,18.5 76.5,18.5C 76.5,20.1667 76.5,21.8333 76.5,23.5C 76.5,25.1667 76.5,26.8333 76.5,28.5C 62.5,28.5 48.5,28.5 34.5,28.5C 34.5,32.1667 34.5,35.8333 34.5,39.5C 33.5151,35.3656 33.1818,31.0323 33.5,26.5C 38.8333,26.5 44.1667,26.5 49.5,26.5C 57.9839,27.493 66.6506,27.8264 75.5,27.5C 75.5,24.8333 75.5,22.1667 75.5,19.5C 66.8333,19.5 58.1667,19.5 49.5,19.5 Z"/></g>
<g><path style="opacity:1" fill="#da997c" d="M 76.5,28.5 C 76.5,28.8333 76.5,29.1667 76.5,29.5C 75.8333,29.5 75.1667,29.5 74.5,29.5C 61.5,29.5 48.5,29.5 35.5,29.5C 35.5,32.8333 35.5,36.1667 35.5,39.5C 35.1667,39.5 34.8333,39.5 34.5,39.5C 34.5,35.8333 34.5,32.1667 34.5,28.5C 48.5,28.5 62.5,28.5 76.5,28.5 Z"/></g>
<g><path style="opacity:1" fill="#e05027" d="M 49.5,30.5 C 49.5,33.1667 49.5,35.8333 49.5,38.5C 45.1667,38.5 40.8333,38.5 36.5,38.5C 36.5,35.8333 36.5,33.1667 36.5,30.5C 40.8333,30.5 45.1667,30.5 49.5,30.5 Z"/></g>
<g><path style="opacity:1" fill="#d0643a" d="M 74.5,29.5 C 66.3501,30.4927 58.0168,30.8261 49.5,30.5C 45.1667,30.5 40.8333,30.5 36.5,30.5C 36.5,33.1667 36.5,35.8333 36.5,38.5C 40.8333,38.5 45.1667,38.5 49.5,38.5C 57.6841,38.1743 65.6841,38.5076 73.5,39.5C 60.8333,39.5 48.1667,39.5 35.5,39.5C 35.5,36.1667 35.5,32.8333 35.5,29.5C 48.5,29.5 61.5,29.5 74.5,29.5 Z"/></g>
<g><path style="opacity:1" fill="#e09e82" d="M 35.5,39.5 C 48.1667,39.5 60.8333,39.5 73.5,39.5C 75.369,41.6353 76.0356,44.3019 75.5,47.5C 75.1667,47.5 74.8333,47.5 74.5,47.5C 74.5,45.1667 74.5,42.8333 74.5,40.5C 61.3226,40.8288 48.3226,40.4955 35.5,39.5 Z"/></g>
<g><path style="opacity:1" fill="#fefdfa" d="M 71.5,71.5 C 71.5,72.5 71.5,73.5 71.5,74.5C 70.1667,74.8333 68.8333,75.1667 67.5,75.5C 65.139,75.6741 62.8056,76.0074 60.5,76.5C 56.8455,76.9422 53.1788,77.2756 49.5,77.5C 49.5,75.1667 49.5,72.8333 49.5,70.5C 48.209,70.7373 47.209,70.404 46.5,69.5C 49.5184,69.6646 52.5184,69.498 55.5,69C 57.9088,67.2932 60.5755,66.4598 63.5,66.5C 63.5,64.1667 63.5,61.8333 63.5,59.5C 63.5,56.5 63.5,53.5 63.5,50.5C 58.8333,50.5 54.1667,50.5 49.5,50.5C 49.5,50.1667 49.5,49.8333 49.5,49.5C 49.5,47.1667 49.5,44.8333 49.5,42.5C 57.3225,41.3439 65.3225,41.1772 73.5,42C 72.5697,43.1939 71.9031,44.5272 71.5,46C 71.9017,54.4532 71.9017,62.9532 71.5,71.5 Z"/></g>
<g><path style="opacity:1" fill="#fbe4dc" d="M 49.5,18.5 C 49.5,18.8333 49.5,19.1667 49.5,19.5C 49.5,19.8333 49.5,20.1667 49.5,20.5C 41.1667,20.5 32.8333,20.5 24.5,20.5C 24.8357,29.861 25.5024,39.1943 26.5,48.5C 34.1244,49.3978 41.7911,49.7311 49.5,49.5C 49.5,49.8333 49.5,50.1667 49.5,50.5C 41.5,50.5 33.5,50.5 25.5,50.5C 24.445,42.8393 23.445,35.1726 22.5,27.5C 22.5,26.8333 22.5,26.1667 22.5,25.5C 22.5,23.1667 22.5,20.8333 22.5,18.5C 31.5,18.5 40.5,18.5 49.5,18.5 Z"/></g>
<g><path style="opacity:1" fill="#fac7b6" d="M 25.5,50.5 C 33.5,50.5 41.5,50.5 49.5,50.5C 54.1667,50.5 58.8333,50.5 63.5,50.5C 63.5,53.5 63.5,56.5 63.5,59.5C 63.1667,59.5 62.8333,59.5 62.5,59.5C 62.5,56.8333 62.5,54.1667 62.5,51.5C 49.9887,51.8286 37.6554,51.4952 25.5,50.5 Z"/></g>
<g><path style="opacity:1" fill="#feeedf" d="M 34.5,39.5 C 34.8333,39.5 35.1667,39.5 35.5,39.5C 48.3226,40.4955 61.3226,40.8288 74.5,40.5C 74.5,42.8333 74.5,45.1667 74.5,47.5C 73.8379,51.4659 73.5045,55.4659 73.5,59.5C 73.5,60.1667 73.5,60.8333 73.5,61.5C 72.8333,64.8333 72.1667,68.1667 71.5,71.5C 71.9017,62.9532 71.9017,54.4532 71.5,46C 71.9031,44.5272 72.5697,43.1939 73.5,42C 65.3225,41.1772 57.3225,41.3439 49.5,42.5C 44.8215,42.6658 40.1548,42.4992 35.5,42C 34.7476,41.3292 34.4142,40.4959 34.5,39.5 Z"/></g>
<g><path style="opacity:1" fill="#d36a49" d="M 22.5,27.5 C 23.445,35.1726 24.445,42.8393 25.5,50.5C 37.6554,51.4952 49.9887,51.8286 62.5,51.5C 62.5,54.1667 62.5,56.8333 62.5,59.5C 61.5386,61.2646 61.2053,63.2646 61.5,65.5C 59.4352,65.5172 57.4352,65.8505 55.5,66.5C 56.5521,64.744 58.2188,64.0773 60.5,64.5C 63.0648,54.7326 59.3982,50.7326 49.5,52.5C 43.5,52.5 37.5,52.5 31.5,52.5C 29.5,52.5 27.5,52.5 25.5,52.5C 24.8826,52.3893 24.3826,52.056 24,51.5C 22.8359,43.5415 22.3359,35.5415 22.5,27.5 Z"/></g>
<g><path style="opacity:1" fill="#ce5630" d="M 25.5,52.5 C 27.5,52.5 29.5,52.5 31.5,52.5C 30.3915,53.29 29.0581,53.79 27.5,54C 30.1667,54.3333 32.8333,54.6667 35.5,55C 36.056,55.3826 36.3893,55.8826 36.5,56.5C 32.8333,56.5 29.1667,56.5 25.5,56.5C 25.1786,62.0262 25.5119,67.3595 26.5,72.5C 26.5,73.1667 26.5,73.8333 26.5,74.5C 25.8826,74.3893 25.3826,74.056 25,73.5C 24.7361,68.1368 24.2361,62.8035 23.5,57.5C 23.9024,55.6998 24.5691,54.0332 25.5,52.5 Z"/></g>
<g><path style="opacity:1" fill="#df5127" d="M 31.5,52.5 C 37.5,52.5 43.5,52.5 49.5,52.5C 50.6131,57.2317 50.9465,61.8984 50.5,66.5C 46.753,66.6076 43.0863,66.1076 39.5,65C 39.1537,62.0597 38.1537,59.5597 36.5,57.5C 36.5,57.1667 36.5,56.8333 36.5,56.5C 36.3893,55.8826 36.056,55.3826 35.5,55C 32.8333,54.6667 30.1667,54.3333 27.5,54C 29.0581,53.79 30.3915,53.29 31.5,52.5 Z"/></g>
<g><path style="opacity:1" fill="#f1ae93" d="M 36.5,56.5 C 36.5,56.8333 36.5,57.1667 36.5,57.5C 36.5,57.8333 36.5,58.1667 36.5,58.5C 33.272,57.5863 29.9387,57.2529 26.5,57.5C 26.5,62.5 26.5,67.5 26.5,72.5C 25.5119,67.3595 25.1786,62.0262 25.5,56.5C 29.1667,56.5 32.8333,56.5 36.5,56.5 Z"/></g>
<g><path style="opacity:1" fill="#d6875d" d="M 74.5,47.5 C 74.8333,47.5 75.1667,47.5 75.5,47.5C 75.4955,51.5341 75.1621,55.5341 74.5,59.5C 74.1667,59.5 73.8333,59.5 73.5,59.5C 73.5045,55.4659 73.8379,51.4659 74.5,47.5 Z"/></g>
<g><path style="opacity:0.998" fill="#e15027" d="M 21.5,18.5 C 21.1984,21.0593 21.5318,23.3926 22.5,25.5C 22.5,26.1667 22.5,26.8333 22.5,27.5C 22.3359,35.5415 22.8359,43.5415 24,51.5C 24.3826,52.056 24.8826,52.3893 25.5,52.5C 24.5691,54.0332 23.9024,55.6998 23.5,57.5C 24.2361,62.8035 24.7361,68.1368 25,73.5C 25.3826,74.056 25.8826,74.3893 26.5,74.5C 27.5736,75.8846 28.9069,77.0513 30.5,78C 36.3295,78.4403 41.9962,79.2736 47.5,80.5C 48.2625,81.2679 49.2625,81.7679 50.5,82C 49.0267,82.7096 48.3601,83.8762 48.5,85.5C 46.6255,86.8374 44.6255,88.1707 42.5,89.5C 42.0273,94.4046 39.3606,96.4046 34.5,95.5C 27.1511,94.2041 19.9844,92.2041 13,89.5C 11.3095,73.7931 9.80946,58.1265 8.5,42.5C 9.15767,41.6016 9.82434,40.6016 10.5,39.5C 11.7946,42.0119 12.4613,44.6786 12.5,47.5C 15.1667,47.1667 17.8333,46.8333 20.5,46.5C 20.1731,36.985 20.5064,27.6517 21.5,18.5 Z"/></g>
<g><path style="opacity:1" fill="#eb6327" d="M 49.5,52.5 C 59.3982,50.7326 63.0648,54.7326 60.5,64.5C 58.2188,64.0773 56.5521,64.744 55.5,66.5C 53.8333,66.5 52.1667,66.5 50.5,66.5C 50.9465,61.8984 50.6131,57.2317 49.5,52.5 Z"/></g>
<g><path style="opacity:1" fill="#fadccc" d="M 62.5,59.5 C 62.8333,59.5 63.1667,59.5 63.5,59.5C 63.5,61.8333 63.5,64.1667 63.5,66.5C 60.5755,66.4598 57.9088,67.2932 55.5,69C 52.5184,69.498 49.5184,69.6646 46.5,69.5C 43.4221,69.3803 40.7554,68.3803 38.5,66.5C 42.0532,66.8439 45.5532,67.5106 49,68.5C 51.3461,68.0098 53.5128,67.3432 55.5,66.5C 57.4352,65.8505 59.4352,65.5172 61.5,65.5C 61.2053,63.2646 61.5386,61.2646 62.5,59.5 Z"/></g>
<g><path style="opacity:1" fill="#ca6a49" d="M 36.5,57.5 C 38.1537,59.5597 39.1537,62.0597 39.5,65C 43.0863,66.1076 46.753,66.6076 50.5,66.5C 52.1667,66.5 53.8333,66.5 55.5,66.5C 53.5128,67.3432 51.3461,68.0098 49,68.5C 45.5532,67.5106 42.0532,66.8439 38.5,66.5C 36.7739,64.1799 36.1072,61.5133 36.5,58.5C 36.5,58.1667 36.5,57.8333 36.5,57.5 Z"/></g>
<g><path style="opacity:1" fill="#eeeae8" d="M 38.5,66.5 C 40.7554,68.3803 43.4221,69.3803 46.5,69.5C 47.209,70.404 48.209,70.7373 49.5,70.5C 49.5,72.8333 49.5,75.1667 49.5,77.5C 53.1788,77.2756 56.8455,76.9422 60.5,76.5C 60.5,76.8333 60.5,77.1667 60.5,77.5C 58.7839,77.6287 57.1172,77.962 55.5,78.5C 46.603,77.9439 37.9363,76.1105 29.5,73C 28.5083,68.2509 27.8417,63.4175 27.5,58.5C 29.8568,58.3367 32.1902,58.5034 34.5,59C 35.2638,61.0693 35.7638,63.236 36,65.5C 36.6708,66.2524 37.5041,66.5858 38.5,66.5 Z"/></g>
<g><path style="opacity:1" fill="#da8f6b" d="M 73.5,61.5 C 73.6655,65.5138 73.4988,69.5138 73,73.5C 72.6174,74.056 72.1174,74.3893 71.5,74.5C 71.5,73.5 71.5,72.5 71.5,71.5C 72.1667,68.1667 72.8333,64.8333 73.5,61.5 Z"/></g>
<g><path style="opacity:1" fill="#de9678" d="M 67.5,75.5 C 65.4855,76.9238 63.1522,77.5905 60.5,77.5C 60.5,77.1667 60.5,76.8333 60.5,76.5C 62.8056,76.0074 65.139,75.6741 67.5,75.5 Z"/></g>
<g><path style="opacity:1" fill="#d66c3e" d="M 73.5,59.5 C 73.8333,59.5 74.1667,59.5 74.5,59.5C 74.7846,64.8968 74.4512,70.2302 73.5,75.5C 67.7406,77.8477 61.7406,79.181 55.5,79.5C 55.5,79.1667 55.5,78.8333 55.5,78.5C 57.1172,77.962 58.7839,77.6287 60.5,77.5C 63.1522,77.5905 65.4855,76.9238 67.5,75.5C 68.8333,75.1667 70.1667,74.8333 71.5,74.5C 72.1174,74.3893 72.6174,74.056 73,73.5C 73.4988,69.5138 73.6655,65.5138 73.5,61.5C 73.5,60.8333 73.5,60.1667 73.5,59.5 Z"/></g>
<g><path style="opacity:1" fill="#d56140" d="M 26.5,74.5 C 35.9935,77.3599 45.6602,79.0265 55.5,79.5C 53.0521,80.4731 50.3854,80.8064 47.5,80.5C 41.9962,79.2736 36.3295,78.4403 30.5,78C 28.9069,77.0513 27.5736,75.8846 26.5,74.5 Z"/></g>
<g><path style="opacity:1" fill="#fcd8c8" d="M 36.5,58.5 C 36.1072,61.5133 36.7739,64.1799 38.5,66.5C 37.5041,66.5858 36.6708,66.2524 36,65.5C 35.7638,63.236 35.2638,61.0693 34.5,59C 32.1902,58.5034 29.8568,58.3367 27.5,58.5C 27.8417,63.4175 28.5083,68.2509 29.5,73C 37.9363,76.1105 46.603,77.9439 55.5,78.5C 55.5,78.8333 55.5,79.1667 55.5,79.5C 45.6602,79.0265 35.9935,77.3599 26.5,74.5C 26.5,73.8333 26.5,73.1667 26.5,72.5C 26.5,67.5 26.5,62.5 26.5,57.5C 29.9387,57.2529 33.272,57.5863 36.5,58.5 Z"/></g>
</svg>
