<?xml version="1.0" encoding="UTF-8"?>
<!DOCTYPE svg PUBLIC "-//W3C//DTD SVG 1.1//EN" "http://www.w3.org/Graphics/SVG/1.1/DTD/svg11.dtd">
<svg xmlns="http://www.w3.org/2000/svg" version="1.1" width="100px" height="100px" style="shape-rendering:geometricPrecision; text-rendering:geometricPrecision; image-rendering:optimizeQuality; fill-rule:evenodd; clip-rule:evenodd" xmlns:xlink="http://www.w3.org/1999/xlink">
<g><path style="opacity:1" fill="#2283a3" d="M 11.5,24.5 C 23.9955,23.8334 36.6622,23.5001 49.5,23.5C 62.5181,23.5009 75.1847,24.1675 87.5,25.5C 87.1667,25.5 86.8333,25.5 86.5,25.5C 61.6722,24.5023 36.6722,24.169 11.5,24.5 Z"/></g>
<g><path style="opacity:1" fill="#005b9c" d="M 84.5,31.5 C 87.3126,37.6229 89.9792,43.7896 92.5,50C 91.1111,54.0157 89.4445,57.849 87.5,61.5C 86.5272,62.7914 85.5272,62.7914 84.5,61.5C 83.5344,59.604 83.2011,57.604 83.5,55.5C 82.5,55.5 81.5,55.5 80.5,55.5C 80.5,54.5 80.5,53.5 80.5,52.5C 81.1875,47.6126 80.0209,43.2792 77,39.5C 76.3109,40.3567 75.4776,41.0233 74.5,41.5C 71.6341,40.2054 68.8007,40.2054 66,41.5C 64.7009,40.0203 63.0342,39.3536 61,39.5C 53.6701,40.7862 46.3368,40.7862 39,39.5C 35.8947,41.1757 33.0614,41.1757 30.5,39.5C 29.6143,40.325 29.281,41.325 29.5,42.5C 28.6993,44.0418 28.366,45.7085 28.5,47.5C 27.1667,47.5 25.8333,47.5 24.5,47.5C 24.3713,45.7839 24.038,44.1172 23.5,42.5C 23.2089,41.3509 22.3756,40.6842 21,40.5C 19.175,40.9434 17.3417,41.2767 15.5,41.5C 15.5,43.5 15.5,45.5 15.5,47.5C 13.5328,47.2606 11.6995,47.5939 10,48.5C 9.66667,50.8333 9.33333,53.1667 9,55.5C 7.93628,54.0559 7.43628,52.3893 7.5,50.5C 10.2836,43.7199 12.6169,36.7199 14.5,29.5C 25.4797,28.1677 36.8131,27.5011 48.5,27.5C 59.8333,27.6667 71.1667,27.8333 82.5,28C 83.0848,29.3024 83.7515,30.469 84.5,31.5 Z"/></g>
<g><path style="opacity:0.885" fill="#0789c2" d="M 11.5,24.5 C 36.6722,24.169 61.6722,24.5023 86.5,25.5C 85.8333,27.5 85.1667,29.5 84.5,31.5C 83.7515,30.469 83.0848,29.3024 82.5,28C 71.1667,27.8333 59.8333,27.6667 48.5,27.5C 36.8131,27.5011 25.4797,28.1677 14.5,29.5C 10.7786,35.9122 7.44524,42.5789 4.5,49.5C 6.02489,52.7381 7.35823,56.0715 8.5,59.5C 6.83333,59.5 5.16667,59.5 3.5,59.5C 2.34715,57.364 1.01382,55.364 -0.5,53.5C -0.5,51.5 -0.5,49.5 -0.5,47.5C 3.42894,39.8748 7.42894,32.2082 11.5,24.5 Z"/></g>
<g><path style="opacity:0.956" fill="#068ac2" d="M 86.5,25.5 C 86.8333,25.5 87.1667,25.5 87.5,25.5C 91.9349,32.6002 95.9349,39.9335 99.5,47.5C 99.5,49.5 99.5,51.5 99.5,53.5C 95.2765,60.9433 91.2765,68.61 87.5,76.5C 62.5,76.5 37.5,76.5 12.5,76.5C 12.8333,74.5 13.1667,72.5 13.5,70.5C 13.8333,70.5 14.1667,70.5 14.5,70.5C 25.4797,71.8323 36.8131,72.4989 48.5,72.5C 59.8333,72.3333 71.1667,72.1667 82.5,72C 84.0498,68.4021 85.7164,64.9021 87.5,61.5C 89.4445,57.849 91.1111,54.0157 92.5,50C 89.9792,43.7896 87.3126,37.6229 84.5,31.5C 85.1667,29.5 85.8333,27.5 86.5,25.5 Z"/></g>
<g><path style="opacity:1" fill="#135d92" d="M 80.5,52.5 C 79.8333,52.5 79.1667,52.5 78.5,52.5C 79.3897,50.2181 79.5564,47.8848 79,45.5C 78.1841,44.1772 77.0174,43.5106 75.5,43.5C 72.3752,42.5206 69.0419,42.1872 65.5,42.5C 65.5,47.5 65.5,52.5 65.5,57.5C 63.9826,57.4894 62.8159,56.8228 62,55.5C 60.7622,58.572 58.9288,61.2387 56.5,63.5C 55.5481,61.9547 55.2148,60.288 55.5,58.5C 56.5,58.5 57.5,58.5 58.5,58.5C 59.4834,54.7016 59.8168,50.7016 59.5,46.5C 61.099,46.7678 62.4324,46.4345 63.5,45.5C 63.5,44.8333 63.5,44.1667 63.5,43.5C 54.1667,42.1667 44.8333,42.1667 35.5,43.5C 36.5521,45.256 38.2188,45.9227 40.5,45.5C 40.5,49.8333 40.5,54.1667 40.5,58.5C 41.8333,58.5 43.1667,58.5 44.5,58.5C 43.5994,60.7271 41.9328,61.7271 39.5,61.5C 38.8168,57.12 37.8168,52.7867 36.5,48.5C 35.6786,51.4465 35.1786,54.4465 35,57.5C 34.6174,58.056 34.1174,58.3893 33.5,58.5C 33.5,53.1667 33.5,47.8333 33.5,42.5C 32.5,42.5 31.5,42.5 30.5,42.5C 30.1667,42.5 29.8333,42.5 29.5,42.5C 29.281,41.325 29.6143,40.325 30.5,39.5C 33.0614,41.1757 35.8947,41.1757 39,39.5C 46.3368,40.7862 53.6701,40.7862 61,39.5C 63.0342,39.3536 64.7009,40.0203 66,41.5C 68.8007,40.2054 71.6341,40.2054 74.5,41.5C 75.4776,41.0233 76.3109,40.3567 77,39.5C 80.0209,43.2792 81.1875,47.6126 80.5,52.5 Z"/></g>
<g><path style="opacity:1" fill="#a7ddf9" d="M 35.5,43.5 C 44.8333,42.1667 54.1667,42.1667 63.5,43.5C 58.706,42.9031 54.3727,43.5698 50.5,45.5C 50.1667,45.5 49.8333,45.5 49.5,45.5C 45.2853,43.5636 40.6186,42.8969 35.5,43.5 Z"/></g>
<g><path style="opacity:1" fill="#e8fafd" d="M 75.5,43.5 C 77.0174,43.5106 78.1841,44.1772 79,45.5C 79.5564,47.8848 79.3897,50.2181 78.5,52.5C 75.7543,54.1264 72.7543,54.7931 69.5,54.5C 69.5,55.8333 69.5,57.1667 69.5,58.5C 68.5,58.5 67.5,58.5 66.5,58.5C 66.5,53.5 66.5,48.5 66.5,43.5C 69.5,43.5 72.5,43.5 75.5,43.5 Z"/></g>
<g><path style="opacity:1" fill="#4b8cb3" d="M 44.5,46.5 C 45.9187,45.5489 47.5853,45.2155 49.5,45.5C 49.8333,45.5 50.1667,45.5 50.5,45.5C 52.1667,45.5 53.8333,45.5 55.5,45.5C 55.5,49.8333 55.5,54.1667 55.5,58.5C 54.5166,54.7016 54.1832,50.7016 54.5,46.5C 51.1667,46.5 47.8333,46.5 44.5,46.5 Z"/></g>
<g><path style="opacity:1" fill="#e6feff" d="M 63.5,43.5 C 63.5,44.1667 63.5,44.8333 63.5,45.5C 61.8333,45.5 60.1667,45.5 58.5,45.5C 58.5,49.8333 58.5,54.1667 58.5,58.5C 57.5,58.5 56.5,58.5 55.5,58.5C 55.5,54.1667 55.5,49.8333 55.5,45.5C 53.8333,45.5 52.1667,45.5 50.5,45.5C 54.3727,43.5698 58.706,42.9031 63.5,43.5 Z"/></g>
<g><path style="opacity:1" fill="#2e6790" d="M 69.5,45.5 C 74.6673,44.4919 76.334,46.3252 74.5,51C 72.8659,51.4935 71.1992,51.6602 69.5,51.5C 69.5,49.5 69.5,47.5 69.5,45.5 Z"/></g>
<g><path style="opacity:1" fill="#dffcfe" d="M 35.5,43.5 C 40.6186,42.8969 45.2853,43.5636 49.5,45.5C 47.5853,45.2155 45.9187,45.5489 44.5,46.5C 44.5,50.5 44.5,54.5 44.5,58.5C 43.1667,58.5 41.8333,58.5 40.5,58.5C 40.5,54.1667 40.5,49.8333 40.5,45.5C 38.2188,45.9227 36.5521,45.256 35.5,43.5 Z"/></g>
<g><path style="opacity:1" fill="#e7fdfe" d="M 22.5,42.5 C 22.5,44.8333 22.5,47.1667 22.5,49.5C 28.9271,51.2382 31.5938,48.9049 30.5,42.5C 31.5,42.5 32.5,42.5 33.5,42.5C 33.5,47.8333 33.5,53.1667 33.5,58.5C 32.5,58.5 31.5,58.5 30.5,58.5C 30.5,56.1667 30.5,53.8333 30.5,51.5C 27.6146,51.1936 24.9479,51.5269 22.5,52.5C 22.5,54.5 22.5,56.5 22.5,58.5C 21.5,58.5 20.5,58.5 19.5,58.5C 19.5,53.1667 19.5,47.8333 19.5,42.5C 20.5,42.5 21.5,42.5 22.5,42.5 Z"/></g>
<g><path style="opacity:1" fill="#3e769f" d="M 22.5,42.5 C 22.8333,42.5 23.1667,42.5 23.5,42.5C 24.038,44.1172 24.3713,45.7839 24.5,47.5C 25.8333,47.5 27.1667,47.5 28.5,47.5C 28.366,45.7085 28.6993,44.0418 29.5,42.5C 29.8333,42.5 30.1667,42.5 30.5,42.5C 31.5938,48.9049 28.9271,51.2382 22.5,49.5C 22.5,47.1667 22.5,44.8333 22.5,42.5 Z"/></g>
<g><path style="opacity:1" fill="#5086a0" d="M 63.5,45.5 C 62.4324,46.4345 61.099,46.7678 59.5,46.5C 59.8168,50.7016 59.4834,54.7016 58.5,58.5C 58.5,54.1667 58.5,49.8333 58.5,45.5C 60.1667,45.5 61.8333,45.5 63.5,45.5 Z"/></g>
<g><path style="opacity:1" fill="#afd8f4" d="M 75.5,43.5 C 72.5,43.5 69.5,43.5 66.5,43.5C 66.5,48.5 66.5,53.5 66.5,58.5C 65.8333,58.5 65.5,58.1667 65.5,57.5C 65.5,52.5 65.5,47.5 65.5,42.5C 69.0419,42.1872 72.3752,42.5206 75.5,43.5 Z"/></g>
<g><path style="opacity:1" fill="#0a5e9d" d="M 14.5,29.5 C 12.6169,36.7199 10.2836,43.7199 7.5,50.5C 7.43628,52.3893 7.93628,54.0559 9,55.5C 9.33333,53.1667 9.66667,50.8333 10,48.5C 11.6995,47.5939 13.5328,47.2606 15.5,47.5C 15.5,45.5 15.5,43.5 15.5,41.5C 17.3417,41.2767 19.175,40.9434 21,40.5C 22.3756,40.6842 23.2089,41.3509 23.5,42.5C 23.1667,42.5 22.8333,42.5 22.5,42.5C 21.5,42.5 20.5,42.5 19.5,42.5C 19.5,47.8333 19.5,53.1667 19.5,58.5C 20.5,58.5 21.5,58.5 22.5,58.5C 22.5,56.5 22.5,54.5 22.5,52.5C 24.8333,52.5 27.1667,52.5 29.5,52.5C 29.2053,54.7354 29.5386,56.7354 30.5,58.5C 31.5,58.5 32.5,58.5 33.5,58.5C 34.1174,58.3893 34.6174,58.056 35,57.5C 35.1786,54.4465 35.6786,51.4465 36.5,48.5C 37.8168,52.7867 38.8168,57.12 39.5,61.5C 39.719,62.675 39.3857,63.675 38.5,64.5C 37.5745,63.3595 36.7412,63.3595 36,64.5C 35.5045,66.4727 35.3379,68.4727 35.5,70.5C 28.5242,69.5773 21.5242,69.5773 14.5,70.5C 14.1667,70.5 13.8333,70.5 13.5,70.5C 12.2829,66.6367 10.6162,62.97 8.5,59.5C 7.35823,56.0715 6.02489,52.7381 4.5,49.5C 7.44524,42.5789 10.7786,35.9122 14.5,29.5 Z"/></g>
<g><path style="opacity:1" fill="#94c5de" d="M 22.5,52.5 C 24.9479,51.5269 27.6146,51.1936 30.5,51.5C 30.5,53.8333 30.5,56.1667 30.5,58.5C 29.5386,56.7354 29.2053,54.7354 29.5,52.5C 27.1667,52.5 24.8333,52.5 22.5,52.5 Z"/></g>
<g><path style="opacity:1" fill="#015d9b" d="M 44.5,46.5 C 47.8333,46.5 51.1667,46.5 54.5,46.5C 54.1832,50.7016 54.5166,54.7016 55.5,58.5C 55.2148,60.288 55.5481,61.9547 56.5,63.5C 58.9288,61.2387 60.7622,58.572 62,55.5C 62.8159,56.8228 63.9826,57.4894 65.5,57.5C 65.5,58.1667 65.8333,58.5 66.5,58.5C 67.5,58.5 68.5,58.5 69.5,58.5C 69.5,57.1667 69.5,55.8333 69.5,54.5C 72.7543,54.7931 75.7543,54.1264 78.5,52.5C 79.1667,52.5 79.8333,52.5 80.5,52.5C 80.5,53.5 80.5,54.5 80.5,55.5C 81.5,55.5 82.5,55.5 83.5,55.5C 83.2011,57.604 83.5344,59.604 84.5,61.5C 85.5272,62.7914 86.5272,62.7914 87.5,61.5C 85.7164,64.9021 84.0498,68.4021 82.5,72C 71.1667,72.1667 59.8333,72.3333 48.5,72.5C 36.8131,72.4989 25.4797,71.8323 14.5,70.5C 21.5242,69.5773 28.5242,69.5773 35.5,70.5C 35.3379,68.4727 35.5045,66.4727 36,64.5C 36.7412,63.3595 37.5745,63.3595 38.5,64.5C 39.3857,63.675 39.719,62.675 39.5,61.5C 41.9328,61.7271 43.5994,60.7271 44.5,58.5C 44.5,54.5 44.5,50.5 44.5,46.5 Z"/></g>
<g><path style="opacity:0.494" fill="#1888b2" d="M 3.5,59.5 C 5.16667,59.5 6.83333,59.5 8.5,59.5C 10.6162,62.97 12.2829,66.6367 13.5,70.5C 13.1667,72.5 12.8333,74.5 12.5,76.5C 37.5,76.5 62.5,76.5 87.5,76.5C 62.3301,77.829 36.9968,77.829 11.5,76.5C 8.56497,70.9631 5.8983,65.2964 3.5,59.5 Z"/></g>
</svg>
