<?xml version="1.0" encoding="UTF-8"?>
<!DOCTYPE svg PUBLIC "-//W3C//DTD SVG 1.1//EN" "http://www.w3.org/Graphics/SVG/1.1/DTD/svg11.dtd">
<svg xmlns="http://www.w3.org/2000/svg" version="1.1" width="100px" height="100px" style="shape-rendering:geometricPrecision; text-rendering:geometricPrecision; image-rendering:optimizeQuality; fill-rule:evenodd; clip-rule:evenodd" xmlns:xlink="http://www.w3.org/1999/xlink">
<g><path style="opacity:1" fill="#e54cab" d="M 21.5,0.5 C 39.9955,1.33173 58.6622,1.83173 77.5,2C 80.5224,2.09842 83.1891,2.93175 85.5,4.5C 84.0821,6.30794 82.0821,6.97461 79.5,6.5C 59.1639,6.33338 38.8306,6.50004 18.5,7C 17.2625,7.23209 16.2625,7.73209 15.5,8.5C 13.2163,8.97516 11.2163,9.97516 9.5,11.5C 7.94381,10.7091 6.61047,10.3758 5.5,10.5C 6.17444,8.80452 6.8411,7.13785 7.5,5.5C 7.93709,3.92558 8.93709,2.75891 10.5,2C 14.0601,0.763257 17.7267,0.263257 21.5,0.5 Z"/></g>
<g><path style="opacity:1" fill="#c53187" d="M 21.5,0.5 C 43.1692,0.333373 64.8359,0.500039 86.5,1C 90.0418,2.71256 92.7085,5.21256 94.5,8.5C 96.8105,11.1108 97.9771,14.1108 98,17.5C 96.503,13.8351 94.503,10.5017 92,7.5C 90.1295,5.78113 87.9628,4.78113 85.5,4.5C 83.1891,2.93175 80.5224,2.09842 77.5,2C 58.6622,1.83173 39.9955,1.33173 21.5,0.5 Z"/></g>
<g><path style="opacity:1" fill="#e2539f" d="M 85.5,4.5 C 87.9628,4.78113 90.1295,5.78113 92,7.5C 94.503,10.5017 96.503,13.8351 98,17.5C 97.9771,14.1108 96.8105,11.1108 94.5,8.5C 97.1999,9.19978 98.8666,10.8664 99.5,13.5C 99.5,15.1667 99.5,16.8333 99.5,18.5C 98.8343,21.0277 98.1676,23.6944 97.5,26.5C 96.7174,24.7118 95.3841,23.7118 93.5,23.5C 93.1799,14.1853 88.5132,8.51868 79.5,6.5C 82.0821,6.97461 84.0821,6.30794 85.5,4.5 Z"/></g>
<g><path style="opacity:1" fill="#230616" d="M 79.5,6.5 C 88.5132,8.51868 93.1799,14.1853 93.5,23.5C 93.5,31.5 93.5,39.5 93.5,47.5C 93.5,55.5 93.5,63.5 93.5,71.5C 93.8064,74.3854 93.4731,77.0521 92.5,79.5C 92.833,59.4889 92.4996,39.4889 91.5,19.5C 89.7826,18.3315 89.1159,16.6648 89.5,14.5C 87.8561,14.2865 86.3561,14.6198 85,15.5C 84.5439,14.2559 85.0439,13.4226 86.5,13C 83.8333,11.6667 81.1667,10.3333 78.5,9C 57.5026,8.50004 36.5026,8.33338 15.5,8.5C 16.2625,7.73209 17.2625,7.23209 18.5,7C 38.8306,6.50004 59.1639,6.33338 79.5,6.5 Z"/></g>
<g><path style="opacity:1" fill="#020101" d="M 15.5,8.5 C 36.5026,8.33338 57.5026,8.50004 78.5,9C 81.1667,10.3333 83.8333,11.6667 86.5,13C 85.0439,13.4226 84.5439,14.2559 85,15.5C 86.3561,14.6198 87.8561,14.2865 89.5,14.5C 89.1159,16.6648 89.7826,18.3315 91.5,19.5C 92.4996,39.4889 92.833,59.4889 92.5,79.5C 91.6062,82.9566 89.9395,85.9566 87.5,88.5C 85.0763,89.0305 82.743,89.8638 80.5,91C 58.8027,91.8004 37.136,91.6337 15.5,90.5C 14.205,89.5116 12.8717,88.5116 11.5,87.5C 9.32577,83.8178 7.82577,79.8178 7,75.5C 6.16704,58.1571 6.3337,40.8237 7.5,23.5C 8.8687,17.7602 11.5354,12.7602 15.5,8.5 Z"/></g>
<g><path style="opacity:1" fill="#e0549f" d="M 7.5,5.5 C 6.8411,7.13785 6.17444,8.80452 5.5,10.5C 6.61047,10.3758 7.94381,10.7091 9.5,11.5C 6.07616,16.2714 4.74283,21.6047 5.5,27.5C 5.16667,27.5 4.83333,27.5 4.5,27.5C 3.81658,25.8235 2.48324,25.1568 0.5,25.5C 0.767809,23.901 0.434475,22.5676 -0.5,21.5C -0.5,19.1667 -0.5,16.8333 -0.5,14.5C 0.374833,12.4319 1.5415,10.4319 3,8.5C 4.12901,6.85883 5.62901,5.85883 7.5,5.5 Z"/></g>
<g><path style="opacity:1" fill="#efefef" d="M 30.5,18.5 C 30.4201,21.7748 29.4201,25.1082 27.5,28.5C 29.2827,30.2316 31.2827,31.7316 33.5,33C 29.6334,37.2016 25.4668,41.0349 21,44.5C 21.3869,41.3188 22.2203,38.1521 23.5,35C 22.0033,33.3379 20.3366,31.8379 18.5,30.5C 22.2148,26.1185 26.2148,22.1185 30.5,18.5 Z"/></g>
<g><path style="opacity:1" fill="#e45d8d" d="M -0.5,21.5 C 0.434475,22.5676 0.767809,23.901 0.5,25.5C 2.48324,25.1568 3.81658,25.8235 4.5,27.5C 4.66409,30.1873 4.49742,32.854 4,35.5C 1.37919,36.7469 -0.120807,38.7469 -0.5,41.5C -0.5,34.8333 -0.5,28.1667 -0.5,21.5 Z"/></g>
<g><path style="opacity:1" fill="#dc6488" d="M 99.5,18.5 C 99.5,24.5 99.5,30.5 99.5,36.5C 98.5184,39.9619 98.185,43.6286 98.5,47.5C 96.8333,47.5 95.1667,47.5 93.5,47.5C 93.5,39.5 93.5,31.5 93.5,23.5C 95.3841,23.7118 96.7174,24.7118 97.5,26.5C 98.1676,23.6944 98.8343,21.0277 99.5,18.5 Z"/></g>
<g><path style="opacity:1" fill="#200507" d="M 15.5,8.5 C 11.5354,12.7602 8.8687,17.7602 7.5,23.5C 6.3337,40.8237 6.16704,58.1571 7,75.5C 7.82577,79.8178 9.32577,83.8178 11.5,87.5C 7.36076,83.0958 5.36076,77.7625 5.5,71.5C 5.5,60.8333 5.5,50.1667 5.5,39.5C 5.5,35.5 5.5,31.5 5.5,27.5C 4.74283,21.6047 6.07616,16.2714 9.5,11.5C 11.2163,9.97516 13.2163,8.97516 15.5,8.5 Z"/></g>
<g><path style="opacity:1" fill="#f9f9f9" d="M 39.5,41.5 C 44.8333,41.5 50.1667,41.5 55.5,41.5C 55.5,42.5 55.5,43.5 55.5,44.5C 50.1667,44.5 44.8333,44.5 39.5,44.5C 39.5,43.5 39.5,42.5 39.5,41.5 Z"/></g>
<g><path style="opacity:1" fill="#ec757f" d="M 4.5,27.5 C 4.83333,27.5 5.16667,27.5 5.5,27.5C 5.5,31.5 5.5,35.5 5.5,39.5C 4.51192,44.6405 4.17859,49.9738 4.5,55.5C 2.70848,55.634 1.04181,55.3007 -0.5,54.5C -0.5,50.1667 -0.5,45.8333 -0.5,41.5C -0.120807,38.7469 1.37919,36.7469 4,35.5C 4.49742,32.854 4.66409,30.1873 4.5,27.5 Z"/></g>
<g><path style="opacity:1" fill="#d37571" d="M 99.5,36.5 C 99.5,42.8333 99.5,49.1667 99.5,55.5C 97.8333,55.5 96.1667,55.5 94.5,55.5C 94.5,60.8333 94.5,66.1667 94.5,71.5C 94.1667,71.5 93.8333,71.5 93.5,71.5C 93.5,63.5 93.5,55.5 93.5,47.5C 95.1667,47.5 96.8333,47.5 98.5,47.5C 98.185,43.6286 98.5184,39.9619 99.5,36.5 Z"/></g>
<g><path style="opacity:1" fill="#e78c6b" d="M 5.5,39.5 C 5.5,50.1667 5.5,60.8333 5.5,71.5C 4.02218,71.238 2.68884,71.5713 1.5,72.5C 1.00569,74.0255 0.339027,75.3588 -0.5,76.5C -0.5,69.1667 -0.5,61.8333 -0.5,54.5C 1.04181,55.3007 2.70848,55.634 4.5,55.5C 4.17859,49.9738 4.51192,44.6405 5.5,39.5 Z"/></g>
<g><path style="opacity:1" fill="#e3875f" d="M 99.5,55.5 C 99.5,63.5 99.5,71.5 99.5,79.5C 99.1667,79.5 98.8333,79.5 98.5,79.5C 98.8242,75.4454 98.4909,71.4454 97.5,67.5C 96.1408,68.6243 95.1408,69.9577 94.5,71.5C 94.5,66.1667 94.5,60.8333 94.5,55.5C 96.1667,55.5 97.8333,55.5 99.5,55.5 Z"/></g>
<g><path style="opacity:1" fill="#f0a361" d="M 98.5,79.5 C 97.4415,80.6002 96.6082,81.9336 96,83.5C 95.6667,81.8333 95.3333,80.1667 95,78.5C 94.1567,83.2314 91.6567,86.5647 87.5,88.5C 89.9395,85.9566 91.6062,82.9566 92.5,79.5C 93.4731,77.0521 93.8064,74.3854 93.5,71.5C 93.8333,71.5 94.1667,71.5 94.5,71.5C 95.1408,69.9577 96.1408,68.6243 97.5,67.5C 98.4909,71.4454 98.8242,75.4454 98.5,79.5 Z"/></g>
<g><path style="opacity:1" fill="#dd994d" d="M 5.5,71.5 C 5.36076,77.7625 7.36076,83.0958 11.5,87.5C 12.8717,88.5116 14.205,89.5116 15.5,90.5C 12.538,90.1167 11.538,91.1167 12.5,93.5C 16.0613,94.7607 19.7279,95.594 23.5,96C 42.1637,96.4999 60.8304,96.6666 79.5,96.5C 79.5,96.8333 79.5,97.1667 79.5,97.5C 57.4918,98.9223 35.4918,98.7557 13.5,97C 6.98101,94.3127 2.31434,89.8127 -0.5,83.5C -0.5,81.1667 -0.5,78.8333 -0.5,76.5C 0.339027,75.3588 1.00569,74.0255 1.5,72.5C 2.68884,71.5713 4.02218,71.238 5.5,71.5 Z"/></g>
<g><path style="opacity:1" fill="#e0a54b" d="M 98.5,79.5 C 98.8333,79.5 99.1667,79.5 99.5,79.5C 99.5,81.1667 99.5,82.8333 99.5,84.5C 96.3811,89.7831 92.0477,93.9497 86.5,97C 84.1902,97.4966 81.8568,97.6633 79.5,97.5C 79.5,97.1667 79.5,96.8333 79.5,96.5C 82.5827,95.851 85.2494,94.351 87.5,92C 86.552,91.5172 85.552,91.3505 84.5,91.5C 85.6935,90.7281 86.6935,89.7281 87.5,88.5C 91.6567,86.5647 94.1567,83.2314 95,78.5C 95.3333,80.1667 95.6667,81.8333 96,83.5C 96.6082,81.9336 97.4415,80.6002 98.5,79.5 Z"/></g>
<g><path style="opacity:1" fill="#e6b86d" d="M 87.5,88.5 C 86.6935,89.7281 85.6935,90.7281 84.5,91.5C 62.1972,92.6347 39.8639,92.8014 17.5,92C 16.5842,91.7216 15.9175,91.2216 15.5,90.5C 37.136,91.6337 58.8027,91.8004 80.5,91C 82.743,89.8638 85.0763,89.0305 87.5,88.5 Z"/></g>
<g><path style="opacity:1" fill="#f9b94f" d="M 15.5,90.5 C 15.9175,91.2216 16.5842,91.7216 17.5,92C 39.8639,92.8014 62.1972,92.6347 84.5,91.5C 85.552,91.3505 86.552,91.5172 87.5,92C 85.2494,94.351 82.5827,95.851 79.5,96.5C 60.8304,96.6666 42.1637,96.4999 23.5,96C 19.7279,95.594 16.0613,94.7607 12.5,93.5C 11.538,91.1167 12.538,90.1167 15.5,90.5 Z"/></g>
</svg>
