<?xml version="1.0" encoding="UTF-8"?>
<!DOCTYPE svg PUBLIC "-//W3C//DTD SVG 1.1//EN" "http://www.w3.org/Graphics/SVG/1.1/DTD/svg11.dtd">
<svg xmlns="http://www.w3.org/2000/svg" version="1.1" width="100px" height="100px" style="shape-rendering:geometricPrecision; text-rendering:geometricPrecision; image-rendering:optimizeQuality; fill-rule:evenodd; clip-rule:evenodd" xmlns:xlink="http://www.w3.org/1999/xlink">
<g><path style="opacity:0.977" fill="#fa325f" d="M 13.5,-0.5 C 17.1667,-0.5 20.8333,-0.5 24.5,-0.5C 31.3311,0.873358 38.3311,2.04002 45.5,3C 47.345,4.67796 49.0116,6.51129 50.5,8.5C 49.6314,10.717 49.298,13.0504 49.5,15.5C 39.5202,16.1993 29.5202,16.6993 19.5,17C 18.944,17.3826 18.6107,17.8826 18.5,18.5C 16.8018,21.0343 15.4685,23.8676 14.5,27C 11.4465,27.1786 8.44651,27.6786 5.5,28.5C 6.89379,29.6869 6.72712,30.3535 5,30.5C 4.5,30.1667 4,29.8333 3.5,29.5C 4.30937,27.9291 4.64271,26.2624 4.5,24.5C 7.22432,16.0546 10.2243,7.72122 13.5,-0.5 Z"/></g>
<g><path style="opacity:0.99" fill="#1577f1" d="M 86.5,15.5 C 85.8496,17.4467 84.683,19.1134 83,20.5C 82.5776,18.5743 81.4109,17.5743 79.5,17.5C 72.1591,17.6663 64.8258,17.4997 57.5,17C 56.9558,16.2828 56.2891,15.7828 55.5,15.5C 55.5,15.1667 55.5,14.8333 55.5,14.5C 59.8115,9.85358 64.1449,5.18691 68.5,0.5C 74.9403,5.04198 80.9403,10.042 86.5,15.5 Z"/></g>
<g><path style="opacity:0.928" fill="#d7416a" d="M 50.5,8.5 C 52.6326,10.0905 54.2993,12.0905 55.5,14.5C 55.5,14.8333 55.5,15.1667 55.5,15.5C 55.5,16.5 55.5,17.5 55.5,18.5C 43.1667,18.5 30.8333,18.5 18.5,18.5C 18.6107,17.8826 18.944,17.3826 19.5,17C 29.5202,16.6993 39.5202,16.1993 49.5,15.5C 49.298,13.0504 49.6314,10.717 50.5,8.5 Z"/></g>
<g><path style="opacity:1" fill="#436fbe" d="M 55.5,15.5 C 56.2891,15.7828 56.9558,16.2828 57.5,17C 64.8258,17.4997 72.1591,17.6663 79.5,17.5C 79.5,17.8333 79.5,18.1667 79.5,18.5C 71.8333,18.5 64.1667,18.5 56.5,18.5C 56.1667,18.5 55.8333,18.5 55.5,18.5C 55.5,17.5 55.5,16.5 55.5,15.5 Z"/></g>
<g><path style="opacity:1" fill="#030303" d="M 56.5,19.5 C 64.3516,19.1746 72.0182,19.508 79.5,20.5C 79.5,40.1667 79.5,59.8333 79.5,79.5C 59.5,79.5 39.5,79.5 19.5,79.5C 19.5,75.1667 19.5,70.8333 19.5,66.5C 19.5,50.8333 19.5,35.1667 19.5,19.5C 31.8333,19.5 44.1667,19.5 56.5,19.5 Z"/></g>
<g><path style="opacity:1" fill="#396ed9" d="M 86.5,15.5 C 90.9786,18.2435 95.312,21.2435 99.5,24.5C 99.5,25.8333 99.5,27.1667 99.5,28.5C 98.1667,28.5 96.8333,28.5 95.5,28.5C 95.6602,30.1992 95.4935,31.8659 95,33.5C 89.655,36.7228 85.155,40.7228 81.5,45.5C 81.6664,36.8269 81.4998,28.1603 81,19.5C 80.6174,18.944 80.1174,18.6107 79.5,18.5C 79.5,18.1667 79.5,17.8333 79.5,17.5C 81.4109,17.5743 82.5776,18.5743 83,20.5C 84.683,19.1134 85.8496,17.4467 86.5,15.5 Z"/></g>
<g><path style="opacity:1" fill="#ebebeb" d="M 28.5,26.5 C 32.8333,26.5 37.1667,26.5 41.5,26.5C 41.5,28.1667 41.5,29.8333 41.5,31.5C 40.5,31.5 39.5,31.5 38.5,31.5C 38.5,36.8333 38.5,42.1667 38.5,47.5C 39.5,47.5 40.5,47.5 41.5,47.5C 41.5,49.1667 41.5,50.8333 41.5,52.5C 37.1667,52.5 32.8333,52.5 28.5,52.5C 28.5,50.8333 28.5,49.1667 28.5,47.5C 29.8333,47.5 31.1667,47.5 32.5,47.5C 32.5,42.1667 32.5,36.8333 32.5,31.5C 31.1667,31.5 29.8333,31.5 28.5,31.5C 28.5,29.8333 28.5,28.1667 28.5,26.5 Z"/></g>
<g><path style="opacity:1" fill="#ebebea" d="M 56.5,26.5 C 58.5,26.5 60.5,26.5 62.5,26.5C 62.6663,33.8409 62.4997,41.1742 62,48.5C 56.7134,53.6596 51.2134,53.8263 45.5,49C 46.6853,47.647 48.0186,46.4803 49.5,45.5C 51.4515,47.533 53.6182,47.8663 56,46.5C 56.4996,39.8417 56.6663,33.175 56.5,26.5 Z"/></g>
<g><path style="opacity:1" fill="#6f2331" d="M 18.5,18.5 C 30.8333,18.5 43.1667,18.5 55.5,18.5C 55.8333,18.5 56.1667,18.5 56.5,18.5C 56.5,18.8333 56.5,19.1667 56.5,19.5C 44.1667,19.5 31.8333,19.5 19.5,19.5C 19.5,35.1667 19.5,50.8333 19.5,66.5C 18.8333,66.5 18.5,66.8333 18.5,67.5C 17.391,67.5569 16.391,67.8902 15.5,68.5C 18.0565,61.0679 19.0565,53.4012 18.5,45.5C 18.5,37.1667 18.5,28.8333 18.5,20.5C 18.5,19.8333 18.5,19.1667 18.5,18.5 Z"/></g>
<g><path style="opacity:1" fill="#ee3863" d="M 18.5,18.5 C 18.5,19.1667 18.5,19.8333 18.5,20.5C 17.4825,25.9845 16.8158,31.6511 16.5,37.5C 14.3652,37.147 13.0319,37.9803 12.5,40C 13.0439,41.585 13.7106,43.085 14.5,44.5C 12.1944,44.0074 9.86105,43.6741 7.5,43.5C 5.08985,41.8754 2.42318,40.542 -0.5,39.5C -0.5,38.1667 -0.5,36.8333 -0.5,35.5C 1.01609,31.7776 2.68275,28.1109 4.5,24.5C 4.64271,26.2624 4.30937,27.9291 3.5,29.5C 4,29.8333 4.5,30.1667 5,30.5C 6.72712,30.3535 6.89379,29.6869 5.5,28.5C 8.44651,27.6786 11.4465,27.1786 14.5,27C 15.4685,23.8676 16.8018,21.0343 18.5,18.5 Z"/></g>
<g><path style="opacity:1" fill="#d34370" d="M 18.5,20.5 C 18.5,28.8333 18.5,37.1667 18.5,45.5C 17.0413,45.5674 15.7079,45.2341 14.5,44.5C 13.7106,43.085 13.0439,41.585 12.5,40C 13.0319,37.9803 14.3652,37.147 16.5,37.5C 16.8158,31.6511 17.4825,25.9845 18.5,20.5 Z"/></g>
<g><path style="opacity:1" fill="#2f497e" d="M 56.5,19.5 C 56.5,19.1667 56.5,18.8333 56.5,18.5C 64.1667,18.5 71.8333,18.5 79.5,18.5C 80.1174,18.6107 80.6174,18.944 81,19.5C 81.4998,28.1603 81.6664,36.8269 81.5,45.5C 81.8281,57.0123 81.4948,68.3456 80.5,79.5C 80.8304,59.6596 80.4971,39.9929 79.5,20.5C 72.0182,19.508 64.3516,19.1746 56.5,19.5 Z"/></g>
<g><path style="opacity:1" fill="#237ae0" d="M 99.5,28.5 C 99.5,32.1667 99.5,35.8333 99.5,39.5C 98.5,39.5 97.5,39.5 96.5,39.5C 95.2978,43.0483 94.6311,46.715 94.5,50.5C 93.5,50.5 92.5,50.5 91.5,50.5C 91.5,48.1667 91.5,45.8333 91.5,43.5C 89.5165,43.3832 87.8498,44.0499 86.5,45.5C 82.8018,57.3161 81.6352,69.3161 83,81.5C 82.5,82 82,82.5 81.5,83C 75.8005,83.3116 70.1339,83.8116 64.5,84.5C 64.3505,85.552 64.5172,86.552 65,87.5C 71.0612,85.3969 72.8945,87.3969 70.5,93.5C 70.9569,94.2975 71.6236,94.6309 72.5,94.5C 69.1667,96.1667 65.8333,97.8333 62.5,99.5C 60.5,99.5 58.5,99.5 56.5,99.5C 56.5,99.1667 56.5,98.8333 56.5,98.5C 55.8262,96.9755 54.8262,95.6422 53.5,94.5C 53.8333,93.8333 54.1667,93.1667 54.5,92.5C 53.1468,91.4763 52.4802,90.143 52.5,88.5C 56.2496,88.1286 58.583,86.1286 59.5,82.5C 66.1667,81.8333 72.8333,81.1667 79.5,80.5C 80.1667,80.5 80.5,80.1667 80.5,79.5C 81.4948,68.3456 81.8281,57.0123 81.5,45.5C 85.155,40.7228 89.655,36.7228 95,33.5C 95.4935,31.8659 95.6602,30.1992 95.5,28.5C 96.8333,28.5 98.1667,28.5 99.5,28.5 Z"/></g>
<g><path style="opacity:1" fill="#f37a19" d="M 7.5,43.5 C 9.86105,43.6741 12.1944,44.0074 14.5,44.5C 15.5931,51.4505 15.7598,58.4505 15,65.5C 14.7645,67.1193 13.9311,68.1193 12.5,68.5C 8.16667,65.1667 3.83333,61.8333 -0.5,58.5C -0.5,58.1667 -0.5,57.8333 -0.5,57.5C 2.6551,53.1991 5.32177,48.5325 7.5,43.5 Z"/></g>
<g><path style="opacity:1" fill="#d8793e" d="M 14.5,44.5 C 15.7079,45.2341 17.0413,45.5674 18.5,45.5C 19.0565,53.4012 18.0565,61.0679 15.5,68.5C 15.5,69.1667 15.1667,69.5 14.5,69.5C 13.5084,69.6716 12.8417,69.3382 12.5,68.5C 13.9311,68.1193 14.7645,67.1193 15,65.5C 15.7598,58.4505 15.5931,51.4505 14.5,44.5 Z"/></g>
<g><path style="opacity:1" fill="#117cf1" d="M 99.5,39.5 C 99.5,48.8333 99.5,58.1667 99.5,67.5C 98.6728,72.9851 98.1728,78.6518 98,84.5C 89.6115,88.1293 81.1115,91.4626 72.5,94.5C 71.6236,94.6309 70.9569,94.2975 70.5,93.5C 72.8945,87.3969 71.0612,85.3969 65,87.5C 64.5172,86.552 64.3505,85.552 64.5,84.5C 70.1339,83.8116 75.8005,83.3116 81.5,83C 82,82.5 82.5,82 83,81.5C 81.6352,69.3161 82.8018,57.3161 86.5,45.5C 87.8498,44.0499 89.5165,43.3832 91.5,43.5C 91.5,45.8333 91.5,48.1667 91.5,50.5C 92.5,50.5 93.5,50.5 94.5,50.5C 94.6311,46.715 95.2978,43.0483 96.5,39.5C 97.5,39.5 98.5,39.5 99.5,39.5 Z"/></g>
<g><path style="opacity:0.959" fill="#985294" d="M 18.5,67.5 C 18.1818,72.0323 18.5151,76.3656 19.5,80.5C 18.0473,80.9293 16.3806,81.096 14.5,81C 13.2949,82.3756 11.9616,83.5423 10.5,84.5C 11.8333,79.5 13.1667,74.5 14.5,69.5C 15.1667,69.5 15.5,69.1667 15.5,68.5C 16.391,67.8902 17.391,67.5569 18.5,67.5 Z"/></g>
<g><path style="opacity:1" fill="#0f1132" d="M 79.5,20.5 C 80.4971,39.9929 80.8304,59.6596 80.5,79.5C 80.5,80.1667 80.1667,80.5 79.5,80.5C 68.5,80.5 57.5,80.5 46.5,80.5C 37.5,80.5 28.5,80.5 19.5,80.5C 18.5151,76.3656 18.1818,72.0323 18.5,67.5C 18.5,66.8333 18.8333,66.5 19.5,66.5C 19.5,70.8333 19.5,75.1667 19.5,79.5C 39.5,79.5 59.5,79.5 79.5,79.5C 79.5,59.8333 79.5,40.1667 79.5,20.5 Z"/></g>
<g><path style="opacity:1" fill="#9e9e9e" d="M 47.5,72.5 C 47.5,71.5 47.5,70.5 47.5,69.5C 40.1667,69.5 32.8333,69.5 25.5,69.5C 25.5,70.5 25.5,71.5 25.5,72.5C 24.5655,71.4324 24.2322,70.099 24.5,68.5C 32.5,68.5 40.5,68.5 48.5,68.5C 48.7678,70.099 48.4345,71.4324 47.5,72.5 Z"/></g>
<g><path style="opacity:1" fill="#fdfdfd" d="M 47.5,72.5 C 40.1667,72.5 32.8333,72.5 25.5,72.5C 25.5,71.5 25.5,70.5 25.5,69.5C 32.8333,69.5 40.1667,69.5 47.5,69.5C 47.5,70.5 47.5,71.5 47.5,72.5 Z"/></g>
<g><path style="opacity:1" fill="#4b72b3" d="M 46.5,80.5 C 57.5,80.5 68.5,80.5 79.5,80.5C 72.8333,81.1667 66.1667,81.8333 59.5,82.5C 56.1016,82.1796 52.7683,82.513 49.5,83.5C 47.8131,86.0236 46.4798,88.6903 45.5,91.5C 43.3295,89.9138 40.9962,88.5804 38.5,87.5C 40.5726,84.4235 43.2392,82.0902 46.5,80.5 Z"/></g>
<g><path style="opacity:1" fill="#337ccb" d="M 59.5,82.5 C 58.583,86.1286 56.2496,88.1286 52.5,88.5C 52.4802,90.143 53.1468,91.4763 54.5,92.5C 54.1667,93.1667 53.8333,93.8333 53.5,94.5C 54.8262,95.6422 55.8262,96.9755 56.5,98.5C 52.6641,96.4164 48.9974,94.083 45.5,91.5C 46.4798,88.6903 47.8131,86.0236 49.5,83.5C 52.7683,82.513 56.1016,82.1796 59.5,82.5 Z"/></g>
<g><path style="opacity:1" fill="#7f57a4" d="M 19.5,80.5 C 28.5,80.5 37.5,80.5 46.5,80.5C 43.2392,82.0902 40.5726,84.4235 38.5,87.5C 28.0791,90.5428 17.7457,93.8762 7.5,97.5C 7.88844,93.0068 8.88844,88.6734 10.5,84.5C 11.9616,83.5423 13.2949,82.3756 14.5,81C 16.3806,81.096 18.0473,80.9293 19.5,80.5 Z"/></g>
</svg>
