<?xml version="1.0" encoding="UTF-8"?>
<!DOCTYPE svg PUBLIC "-//W3C//DTD SVG 1.1//EN" "http://www.w3.org/Graphics/SVG/1.1/DTD/svg11.dtd">
<svg xmlns="http://www.w3.org/2000/svg" version="1.1" width="100px" height="100px" style="shape-rendering:geometricPrecision; text-rendering:geometricPrecision; image-rendering:optimizeQuality; fill-rule:evenodd; clip-rule:evenodd" xmlns:xlink="http://www.w3.org/1999/xlink">
<g><path style="opacity:0.946" fill="#8a4183" d="M 37.5,-0.5 C 45.5,-0.5 53.5,-0.5 61.5,-0.5C 61.5,0.166667 61.8333,0.5 62.5,0.5C 63.0677,3.95858 64.401,6.95858 66.5,9.5C 64.4471,9.40206 62.7804,10.0687 61.5,11.5C 55.1961,10.7403 48.8627,10.407 42.5,10.5C 40.5,10.5 38.5,10.5 36.5,10.5C 36.4208,9.06953 36.7542,7.73619 37.5,6.5C 36.6086,5.41043 35.6086,5.41043 34.5,6.5C 33.5,6.16667 32.8333,5.5 32.5,4.5C 33.9935,3.85892 34.9935,2.85892 35.5,1.5C 36.1667,0.833333 36.8333,0.166667 37.5,-0.5 Z"/></g>
<g><path style="opacity:0.972" fill="#874180" d="M 35.5,1.5 C 34.9935,2.85892 33.9935,3.85892 32.5,4.5C 32.8333,5.5 33.5,6.16667 34.5,6.5C 35.6086,5.41043 36.6086,5.41043 37.5,6.5C 36.7542,7.73619 36.4208,9.06953 36.5,10.5C 38.5,10.5 40.5,10.5 42.5,10.5C 37.6525,11.8997 32.9858,13.8997 28.5,16.5C 26.9916,15.2536 25.4916,13.9203 24,12.5C 23.2797,10.8876 23.4464,9.38762 24.5,8C 23.552,7.51722 22.552,7.35055 21.5,7.5C 21.8417,6.66175 22.5084,6.32842 23.5,6.5C 26.6393,6.40124 28.9726,5.06791 30.5,2.5C 32.0418,1.69929 33.7085,1.36596 35.5,1.5 Z"/></g>
<g><path style="opacity:1" fill="#8a417d" d="M 62.5,0.5 C 66.1122,1.31205 69.4456,2.64539 72.5,4.5C 70.8967,4.31181 69.5634,4.81181 68.5,6C 70.4096,6.40826 71.4096,7.57493 71.5,9.5C 70.8586,11.8147 69.5253,13.4814 67.5,14.5C 65.2504,13.8698 63.2504,12.8698 61.5,11.5C 62.7804,10.0687 64.4471,9.40206 66.5,9.5C 64.401,6.95858 63.0677,3.95858 62.5,0.5 Z"/></g>
<g><path style="opacity:0.988" fill="#7f4576" d="M 30.5,2.5 C 28.9726,5.06791 26.6393,6.40124 23.5,6.5C 25.3495,4.42841 27.6829,3.09508 30.5,2.5 Z"/></g>
<g><path style="opacity:1" fill="#874183" d="M 72.5,4.5 C 75.4686,5.46584 77.802,7.13251 79.5,9.5C 79.0825,10.2216 78.4158,10.7216 77.5,11C 78.807,12.9435 78.807,14.7768 77.5,16.5C 76.0527,15.1148 75.0527,15.4482 74.5,17.5C 73.609,16.8902 72.609,16.5569 71.5,16.5C 69.847,16.3404 68.5137,15.6737 67.5,14.5C 69.5253,13.4814 70.8586,11.8147 71.5,9.5C 71.4096,7.57493 70.4096,6.40826 68.5,6C 69.5634,4.81181 70.8967,4.31181 72.5,4.5 Z"/></g>
<g><path style="opacity:1" fill="#8a3f84" d="M 21.5,7.5 C 22.552,7.35055 23.552,7.51722 24.5,8C 23.4464,9.38762 23.2797,10.8876 24,12.5C 25.4916,13.9203 26.9916,15.2536 28.5,16.5C 26.816,17.5272 25.1494,18.5272 23.5,19.5C 22.5041,19.5858 21.6708,19.2524 21,18.5C 20.79,16.9419 20.29,15.6085 19.5,14.5C 18.1667,13.8333 16.8333,13.1667 15.5,12.5C 17.1217,10.359 19.1217,8.69238 21.5,7.5 Z"/></g>
<g><path style="opacity:0.977" fill="#8b4081" d="M 79.5,9.5 C 83.1002,11.4302 86.1002,14.0969 88.5,17.5C 88.1601,20.1441 88.8267,22.4775 90.5,24.5C 88.9547,25.4519 87.288,25.7852 85.5,25.5C 85.5,26.8333 85.5,28.1667 85.5,29.5C 87.1667,29.5 88.8333,29.5 90.5,29.5C 90.5,30.5 90.5,31.5 90.5,32.5C 88.8333,32.5 87.1667,32.5 85.5,32.5C 83.7497,31.3406 82.7497,29.674 82.5,27.5C 82.5394,26.4168 82.8728,25.4168 83.5,24.5C 79.9655,22.9677 77.9655,20.3011 77.5,16.5C 78.807,14.7768 78.807,12.9435 77.5,11C 78.4158,10.7216 79.0825,10.2216 79.5,9.5 Z"/></g>
<g><path style="opacity:1" fill="#89437b" d="M 15.5,12.5 C 16.8333,13.1667 18.1667,13.8333 19.5,14.5C 18.4987,16.9432 16.6654,18.6099 14,19.5C 13.79,17.9419 13.29,16.6085 12.5,15.5C 13.1667,14.1667 14.1667,13.1667 15.5,12.5 Z"/></g>
<g><path style="opacity:0.963" fill="#87437e" d="M 43.5,16.5 C 47.5,16.5 51.5,16.5 55.5,16.5C 55.6664,24.1739 55.4997,31.8406 55,39.5C 53.4747,40.7201 51.6413,41.3868 49.5,41.5C 47.3587,41.3868 45.5253,40.7201 44,39.5C 43.5003,31.8406 43.3336,24.1739 43.5,16.5 Z"/></g>
<g><path style="opacity:0.478" fill="#823489" d="M 71.5,16.5 C 72.609,16.5569 73.609,16.8902 74.5,17.5C 74.5,18.1667 74.1667,18.5 73.5,18.5C 72.5,18.1667 71.8333,17.5 71.5,16.5 Z"/></g>
<g><path style="opacity:1" fill="#834580" d="M 77.5,16.5 C 77.9655,20.3011 79.9655,22.9677 83.5,24.5C 82.8728,25.4168 82.5394,26.4168 82.5,27.5C 79.8333,24.1667 76.8333,21.1667 73.5,18.5C 74.1667,18.5 74.5,18.1667 74.5,17.5C 75.0527,15.4482 76.0527,15.1148 77.5,16.5 Z"/></g>
<g><path style="opacity:0.968" fill="#884281" d="M 19.5,14.5 C 20.29,15.6085 20.79,16.9419 21,18.5C 21.6708,19.2524 22.5041,19.5858 23.5,19.5C 18.4823,24.8825 14.4823,30.8825 11.5,37.5C 11.2485,34.3347 9.58182,32.3347 6.5,31.5C 6.87229,34.3912 6.87229,37.3912 6.5,40.5C 4.70258,38.8689 3.53592,36.8689 3,34.5C 2.61742,35.056 2.11742,35.3893 1.5,35.5C 3.0839,27.6638 6.75057,20.9971 12.5,15.5C 13.29,16.6085 13.79,17.9419 14,19.5C 16.6654,18.6099 18.4987,16.9432 19.5,14.5 Z"/></g>
<g><path style="opacity:0.955" fill="#884280" d="M 88.5,17.5 C 89.8776,18.5451 90.8776,19.8784 91.5,21.5C 90.9162,24.285 91.9162,25.9517 94.5,26.5C 96.3172,30.1109 97.9839,33.7776 99.5,37.5C 99.5,45.1667 99.5,52.8333 99.5,60.5C 97.6555,65.6931 95.3221,70.6931 92.5,75.5C 92.4993,71.7482 90.8326,70.7482 87.5,72.5C 90.0643,74.3159 90.0643,76.1492 87.5,78C 88.448,78.4828 89.448,78.6495 90.5,78.5C 90.5,79.1667 90.1667,79.5 89.5,79.5C 88.5,79.8333 87.8333,80.5 87.5,81.5C 86.8333,81.8333 86.1667,82.1667 85.5,82.5C 85.6882,80.8967 85.1882,79.5634 84,78.5C 80.933,83.7354 78.433,83.402 76.5,77.5C 88.583,64.4187 91.583,49.4187 85.5,32.5C 87.1667,32.5 88.8333,32.5 90.5,32.5C 90.5,31.5 90.5,30.5 90.5,29.5C 88.8333,29.5 87.1667,29.5 85.5,29.5C 85.5,28.1667 85.5,26.8333 85.5,25.5C 87.288,25.7852 88.9547,25.4519 90.5,24.5C 88.8267,22.4775 88.1601,20.1441 88.5,17.5 Z"/></g>
<g><path style="opacity:0.923" fill="#85437a" d="M 37.5,28.5 C 37.427,30.0269 38.0937,31.0269 39.5,31.5C 42.2841,33.5528 41.9508,35.2195 38.5,36.5C 34.9358,32.3857 31.6025,28.0524 28.5,23.5C 28.9996,22.1195 29.9996,21.4528 31.5,21.5C 34.2128,23.2135 36.2128,25.5468 37.5,28.5 Z"/></g>
<g><path style="opacity:0.165" fill="#7c4880" d="M 91.5,21.5 C 92.7368,22.9649 93.7368,24.6316 94.5,26.5C 91.9162,25.9517 90.9162,24.285 91.5,21.5 Z"/></g>
<g><path style="opacity:0.529" fill="#943691" d="M 67.5,28.5 C 66.5,29.5 65.5,30.5 64.5,31.5C 64.5,30.5 64.5,29.5 64.5,28.5C 65.5,28.5 66.5,28.5 67.5,28.5 Z"/></g>
<g><path style="opacity:0.506" fill="#7d5179" d="M 37.5,28.5 C 38.9063,28.9731 39.573,29.9731 39.5,31.5C 38.0937,31.0269 37.427,30.0269 37.5,28.5 Z"/></g>
<g><path style="opacity:0.926" fill="#8b4182" d="M 11.5,37.5 C 10.8354,43.477 10.502,49.477 10.5,55.5C 9.34793,56.8336 8.34793,58.3336 7.5,60C 9.00283,61.9214 9.6695,64.088 9.5,66.5C 7.32599,66.0798 5.32599,66.0798 3.5,66.5C 2.82434,65.3984 2.15767,64.3984 1.5,63.5C 0.833333,62.5 0.166667,61.5 -0.5,60.5C -0.5,52.8333 -0.5,45.1667 -0.5,37.5C 0.166667,36.8333 0.833333,36.1667 1.5,35.5C 2.11742,35.3893 2.61742,35.056 3,34.5C 3.53592,36.8689 4.70258,38.8689 6.5,40.5C 6.87229,37.3912 6.87229,34.3912 6.5,31.5C 9.58182,32.3347 11.2485,34.3347 11.5,37.5 Z"/></g>
<g><path style="opacity:0.838" fill="#834383" d="M 67.5,28.5 C 66.5,28.5 65.5,28.5 64.5,28.5C 64.5,29.5 64.5,30.5 64.5,31.5C 63.3496,36.0679 61.0162,37.0679 57.5,34.5C 60.1297,29.548 63.4631,25.2146 67.5,21.5C 69.0004,21.4528 70.0004,22.1195 70.5,23.5C 69.7401,25.3604 68.7401,27.027 67.5,28.5 Z"/></g>
<g><path style="opacity:0.047" fill="#7f467a" d="M 25.5,34.5 C 23.8828,35.038 22.2161,35.3713 20.5,35.5C 20.7911,34.3509 21.6244,33.6842 23,33.5C 24.0698,33.528 24.9032,33.8614 25.5,34.5 Z"/></g>
<g><path style="opacity:0.943" fill="#85447f" d="M 79.5,39.5 C 75.7393,37.8773 71.7393,36.8773 67.5,36.5C 70.1944,35.4171 73.0277,34.4171 76,33.5C 78.906,34.3833 80.0727,36.3833 79.5,39.5 Z"/></g>
<g><path style="opacity:1" fill="#8c3e87" d="M 25.5,34.5 C 25.8333,34.5 26.1667,34.5 26.5,34.5C 26.046,37.1398 24.8793,39.4732 23,41.5C 22.2904,40.0267 21.1238,39.3601 19.5,39.5C 19.2322,37.901 19.5655,36.5676 20.5,35.5C 22.2161,35.3713 23.8828,35.038 25.5,34.5 Z"/></g>
<g><path style="opacity:0.997" fill="#8b4181" d="M 26.5,34.5 C 27.1667,34.8333 27.8333,35.1667 28.5,35.5C 31.1726,38.8425 34.5059,39.8425 38.5,38.5C 43.0351,39.5701 44.3684,42.2368 42.5,46.5C 41.5,46.5 40.5,46.5 39.5,46.5C 39.7709,48.3797 39.1042,49.713 37.5,50.5C 36.9114,46.7035 35.9114,46.7035 34.5,50.5C 29.4262,49.031 24.4262,47.3643 19.5,45.5C 19.1667,44.1667 18.8333,42.8333 18.5,41.5C 18.3284,40.5084 18.6618,39.8417 19.5,39.5C 21.1238,39.3601 22.2904,40.0267 23,41.5C 24.8793,39.4732 26.046,37.1398 26.5,34.5 Z"/></g>
<g><path style="opacity:0.98" fill="#8a4081" d="M 67.5,36.5 C 71.7393,36.8773 75.7393,37.8773 79.5,39.5C 80.3382,39.8417 80.6716,40.5084 80.5,41.5C 80.1667,42.8333 79.8333,44.1667 79.5,45.5C 74.3152,47.5611 68.9818,49.2278 63.5,50.5C 61.0586,50.2501 59.0586,49.2501 57.5,47.5C 55.42,45.4901 55.0866,43.1568 56.5,40.5C 59.7589,38.1 63.4256,36.7667 67.5,36.5 Z"/></g>
<g><path style="opacity:1" fill="#884579" d="M 28.5,35.5 C 32.0477,36.1301 35.3811,37.1301 38.5,38.5C 34.5059,39.8425 31.1726,38.8425 28.5,35.5 Z"/></g>
<g><path style="opacity:0.11" fill="#755071" d="M 18.5,41.5 C 18.8333,42.8333 19.1667,44.1667 19.5,45.5C 18.4138,45.38 17.7472,44.7133 17.5,43.5C 17.5427,42.5836 17.8761,41.9169 18.5,41.5 Z"/></g>
<g><path style="opacity:0.345" fill="#7f4973" d="M 80.5,41.5 C 81.1239,41.9169 81.4573,42.5836 81.5,43.5C 81.2528,44.7133 80.5862,45.38 79.5,45.5C 79.8333,44.1667 80.1667,42.8333 80.5,41.5 Z"/></g>
<g><path style="opacity:1" fill="#8e3c8b" d="M 37.5,50.5 C 36.8333,50.5 36.1667,50.5 35.5,50.5C 35.1667,50.5 34.8333,50.5 34.5,50.5C 35.9114,46.7035 36.9114,46.7035 37.5,50.5 Z"/></g>
<g><path style="opacity:0.867" fill="#844677" d="M 57.5,47.5 C 59.0586,49.2501 61.0586,50.2501 63.5,50.5C 60.2564,52.1792 58.2564,51.1792 57.5,47.5 Z"/></g>
<g><path style="opacity:0.18" fill="#82457e" d="M 42.5,46.5 C 41.5933,50.7808 39.26,52.1141 35.5,50.5C 36.1667,50.5 36.8333,50.5 37.5,50.5C 39.1042,49.713 39.7709,48.3797 39.5,46.5C 40.5,46.5 41.5,46.5 42.5,46.5 Z"/></g>
<g><path style="opacity:0.952" fill="#8a4181" d="M 63.5,57.5 C 63.461,60.089 64.461,62.089 66.5,63.5C 66.3573,65.2624 66.6906,66.9291 67.5,68.5C 64.9728,69.2136 62.4728,69.8803 60,70.5C 59.8119,68.9387 60.6453,68.272 62.5,68.5C 63.1535,62.8501 61.3202,62.1834 57,66.5C 56.2352,66.4301 55.7352,66.0967 55.5,65.5C 56.9221,65.2504 57.9221,64.417 58.5,63C 59.7932,62.51 61.1266,62.3433 62.5,62.5C 62.5,60.8333 62.5,59.1667 62.5,57.5C 60.3502,57.0948 58.3502,56.5948 56.5,56C 55.5759,58.8646 54.5759,61.698 53.5,64.5C 50.8562,62.484 50.0228,59.8173 51,56.5C 52.7713,55.6959 54.2713,54.5292 55.5,53C 59.5345,52.1816 62.2011,53.6816 63.5,57.5 Z"/></g>
<g><path style="opacity:0.959" fill="#85447f" d="M 30.5,52.5 C 33.4947,50.9827 34.6614,51.9827 34,55.5C 31.3617,57.0351 28.5283,58.0351 25.5,58.5C 23.712,58.7852 22.0453,58.4519 20.5,57.5C 22.1836,56.8503 23.5169,55.8503 24.5,54.5C 26.0276,53.6908 27.6943,53.0241 29.5,52.5C 29.5,53.5 29.5,54.5 29.5,55.5C 30.5,55.5 31.5,55.5 32.5,55.5C 32.7148,53.8212 32.0481,52.8212 30.5,52.5 Z"/></g>
<g><path style="opacity:1" fill="#8c3d83" d="M 29.5,52.5 C 29.8333,52.5 30.1667,52.5 30.5,52.5C 32.0481,52.8212 32.7148,53.8212 32.5,55.5C 31.5,55.5 30.5,55.5 29.5,55.5C 29.5,54.5 29.5,53.5 29.5,52.5 Z"/></g>
<g><path style="opacity:0.996" fill="#8c3f84" d="M 55.5,65.5 C 54.8333,65.5 54.1667,65.5 53.5,65.5C 53.5,65.1667 53.5,64.8333 53.5,64.5C 54.5759,61.698 55.5759,58.8646 56.5,56C 58.3502,56.5948 60.3502,57.0948 62.5,57.5C 62.5,59.1667 62.5,60.8333 62.5,62.5C 61.1266,62.3433 59.7932,62.51 58.5,63C 57.9221,64.417 56.9221,65.2504 55.5,65.5 Z"/></g>
<g><path style="opacity:0.982" fill="#84437e" d="M 80.5,56.5 C 78.7211,58.3435 76.3878,59.0102 73.5,58.5C 70.5394,57.6766 67.5394,57.01 64.5,56.5C 64.1159,54.3352 64.7826,52.6685 66.5,51.5C 71.192,53.1833 75.8587,54.85 80.5,56.5 Z"/></g>
<g><path style="opacity:0.758" fill="#83457d" d="M 24.5,54.5 C 23.5169,55.8503 22.1836,56.8503 20.5,57.5C 22.0453,58.4519 23.712,58.7852 25.5,58.5C 23.8632,59.3796 22.0299,60.0463 20,60.5C 17.5,59.6667 17,58.1667 18.5,56C 20.5183,55.4954 22.5183,54.9954 24.5,54.5 Z"/></g>
<g><path style="opacity:0.884" fill="#824676" d="M 80.5,56.5 C 81.9284,58.3773 81.4284,59.7106 79,60.5C 76.9701,60.0463 75.1368,59.3796 73.5,58.5C 76.3878,59.0102 78.7211,58.3435 80.5,56.5 Z"/></g>
<g><path style="opacity:0.79" fill="#854577" d="M 63.5,57.5 C 65.3264,59.1475 66.6597,61.1475 67.5,63.5C 67.1667,63.5 66.8333,63.5 66.5,63.5C 64.461,62.089 63.461,60.089 63.5,57.5 Z"/></g>
<g><path style="opacity:0.987" fill="#884181" d="M 37.5,75.5 C 36.2921,76.2341 34.9587,76.5674 33.5,76.5C 30.5691,74.9092 27.9024,72.9092 25.5,70.5C 29.6575,64.1848 34.3242,58.3515 39.5,53C 49.1867,53.9847 51.02,58.4847 45,66.5C 42.4816,69.5707 39.9816,72.5707 37.5,75.5 Z"/></g>
<g><path style="opacity:0.973" fill="#89437e" d="M 66.5,63.5 C 66.8333,63.5 67.1667,63.5 67.5,63.5C 70.1435,65.1533 72.1435,67.4867 73.5,70.5C 70.4766,73.3392 67.1433,75.6725 63.5,77.5C 59.8264,73.8225 56.493,69.8225 53.5,65.5C 54.1667,65.5 54.8333,65.5 55.5,65.5C 55.7352,66.0967 56.2352,66.4301 57,66.5C 61.3202,62.1834 63.1535,62.8501 62.5,68.5C 60.6453,68.272 59.8119,68.9387 60,70.5C 62.4728,69.8803 64.9728,69.2136 67.5,68.5C 66.6906,66.9291 66.3573,65.2624 66.5,63.5 Z"/></g>
<g><path style="opacity:0.958" fill="#884280" d="M 10.5,55.5 C 12.5284,65.8771 17.8618,74.2104 26.5,80.5C 26.33,81.8221 26.6634,82.9887 27.5,84C 30.7769,85.1434 34.1102,85.9767 37.5,86.5C 38.4916,86.3284 39.1583,86.6618 39.5,87.5C 40.5676,88.4345 41.901,88.7678 43.5,88.5C 43.5,90.8333 43.5,93.1667 43.5,95.5C 44.8333,95.5 46.1667,95.5 47.5,95.5C 47.5,96.8333 47.5,98.1667 47.5,99.5C 45.5,99.5 43.5,99.5 41.5,99.5C 34.3191,97.6611 27.6524,94.6611 21.5,90.5C 21.3059,88.0882 19.9726,87.0882 17.5,87.5C 9.18234,81.5429 3.84901,73.5429 1.5,63.5C 2.15767,64.3984 2.82434,65.3984 3.5,66.5C 5.32599,66.0798 7.32599,66.0798 9.5,66.5C 9.6695,64.088 9.00283,61.9214 7.5,60C 8.34793,58.3336 9.34793,56.8336 10.5,55.5 Z"/></g>
<g><path style="opacity:0.999" fill="#82447f" d="M 48.5,64.5 C 49.5,64.5 50.5,64.5 51.5,64.5C 51.5,66.1667 51.5,67.8333 51.5,69.5C 50.8337,73.0208 50.1671,76.6875 49.5,80.5C 48.5052,75.2079 48.1718,69.8746 48.5,64.5 Z"/></g>
<g><path style="opacity:0.471" fill="#784b78" d="M 48.5,64.5 C 48.1718,69.8746 48.5052,75.2079 49.5,80.5C 50.1671,76.6875 50.8337,73.0208 51.5,69.5C 51.5,73.5 51.5,77.5 51.5,81.5C 50.1667,81.5 48.8333,81.5 47.5,81.5C 47.1778,75.642 47.5111,69.9753 48.5,64.5 Z"/></g>
<g><path style="opacity:0.016" fill="#7b4b73" d="M 37.5,75.5 C 37.38,76.5862 36.7133,77.2528 35.5,77.5C 34.5836,77.4573 33.9169,77.1239 33.5,76.5C 34.9587,76.5674 36.2921,76.2341 37.5,75.5 Z"/></g>
<g><path style="opacity:0.976" fill="#8b3f85" d="M 92.5,75.5 C 92.0679,76.7095 91.4013,77.7095 90.5,78.5C 89.448,78.6495 88.448,78.4828 87.5,78C 90.0643,76.1492 90.0643,74.3159 87.5,72.5C 90.8326,70.7482 92.4993,71.7482 92.5,75.5 Z"/></g>
<g><path style="opacity:0.993" fill="#8a4082" d="M 76.5,77.5 C 78.433,83.402 80.933,83.7354 84,78.5C 85.1882,79.5634 85.6882,80.8967 85.5,82.5C 83.4131,83.5846 82.0798,85.2512 81.5,87.5C 80.5,87.5 79.5,87.5 78.5,87.5C 78.5,88.5 78.5,89.5 78.5,90.5C 76.1667,91.8333 73.8333,93.1667 71.5,94.5C 68.8333,94.5 66.1667,94.5 63.5,94.5C 63.6349,91.5825 62.9682,88.9158 61.5,86.5C 66.9288,84.2826 71.9288,81.2826 76.5,77.5 Z"/></g>
<g><path style="opacity:0.008" fill="#7f4c6d" d="M 89.5,79.5 C 89.5,80.8333 88.8333,81.5 87.5,81.5C 87.8333,80.5 88.5,79.8333 89.5,79.5 Z"/></g>
<g><path style="opacity:0.592" fill="#7d4a75" d="M 87.5,81.5 C 86.1667,84.1667 84.1667,86.1667 81.5,87.5C 82.0798,85.2512 83.4131,83.5846 85.5,82.5C 86.1667,82.1667 86.8333,81.8333 87.5,81.5 Z"/></g>
<g><path style="opacity:0.582" fill="#7f4778" d="M 26.5,80.5 C 30.0732,82.7845 33.7399,84.7845 37.5,86.5C 34.1102,85.9767 30.7769,85.1434 27.5,84C 26.6634,82.9887 26.33,81.8221 26.5,80.5 Z"/></g>
<g><path style="opacity:0.988" fill="#85437f" d="M 61.5,86.5 C 62.9682,88.9158 63.6349,91.5825 63.5,94.5C 66.1667,94.5 68.8333,94.5 71.5,94.5C 67.2068,96.7438 62.5401,98.0771 57.5,98.5C 57.5,95.1667 57.5,91.8333 57.5,88.5C 52.8333,88.5 48.1667,88.5 43.5,88.5C 41.901,88.7678 40.5676,88.4345 39.5,87.5C 46.8896,87.7637 54.2229,87.4304 61.5,86.5 Z"/></g>
<g><path style="opacity:0.575" fill="#7f4878" d="M 81.5,87.5 C 80.8333,88.8333 79.8333,89.8333 78.5,90.5C 78.5,89.5 78.5,88.5 78.5,87.5C 79.5,87.5 80.5,87.5 81.5,87.5 Z"/></g>
<g><path style="opacity:0.663" fill="#834676" d="M 17.5,87.5 C 19.9726,87.0882 21.3059,88.0882 21.5,90.5C 19.5956,90.2624 18.2623,89.2624 17.5,87.5 Z"/></g>
<g><path style="opacity:0.923" fill="#8b4083" d="M 43.5,88.5 C 48.1667,88.5 52.8333,88.5 57.5,88.5C 57.5,91.8333 57.5,95.1667 57.5,98.5C 57.5,98.8333 57.5,99.1667 57.5,99.5C 54.1667,99.5 50.8333,99.5 47.5,99.5C 47.5,98.1667 47.5,96.8333 47.5,95.5C 46.1667,95.5 44.8333,95.5 43.5,95.5C 43.5,93.1667 43.5,90.8333 43.5,88.5 Z"/></g>
</svg>
