<?xml version="1.0" encoding="UTF-8"?>
<!DOCTYPE svg PUBLIC "-//W3C//DTD SVG 1.1//EN" "http://www.w3.org/Graphics/SVG/1.1/DTD/svg11.dtd">
<svg xmlns="http://www.w3.org/2000/svg" version="1.1" width="100px" height="100px" style="shape-rendering:geometricPrecision; text-rendering:geometricPrecision; image-rendering:optimizeQuality; fill-rule:evenodd; clip-rule:evenodd" xmlns:xlink="http://www.w3.org/1999/xlink">
<g><path style="opacity:0.997" fill="#f6df1e" d="M 6.5,-0.5 C 35.1667,-0.5 63.8333,-0.5 92.5,-0.5C 95.1667,1.5 97.5,3.83333 99.5,6.5C 99.5,35.1667 99.5,63.8333 99.5,92.5C 97.5,95.1667 95.1667,97.5 92.5,99.5C 63.8333,99.5 35.1667,99.5 6.5,99.5C 3.83333,97.5 1.5,95.1667 -0.5,92.5C -0.5,63.8333 -0.5,35.1667 -0.5,6.5C 1.5,3.83333 3.83333,1.5 6.5,-0.5 Z"/></g>
<g><path style="opacity:1" fill="#0c0701" d="M 79.5,45.5 C 83.578,46.2029 86.578,48.3696 88.5,52C 86.5947,53.87 84.4281,55.37 82,56.5C 79.4406,53.6508 76.2739,52.8175 72.5,54C 71.4238,55.7261 71.2571,57.5594 72,59.5C 77.611,62.7189 83.111,66.0523 88.5,69.5C 92.7947,76.3599 92.128,82.8599 86.5,89C 79.9607,91.8866 73.294,92.2199 66.5,90C 63.5532,87.5644 61.2199,84.7311 59.5,81.5C 61.5806,80.3773 63.7473,79.3773 66,78.5C 68.1124,79.608 69.9458,81.108 71.5,83C 74.1667,83.6667 76.8333,83.6667 79.5,83C 83.5,80 83.5,77 79.5,74C 72.7958,71.9909 67.1291,68.4909 62.5,63.5C 60.6169,50.3829 66.2836,44.3829 79.5,45.5 Z"/></g>
<g><path style="opacity:1" fill="#0d0a01" d="M 35.5,91.5 C 31.4358,90.2684 28.4358,87.7684 26.5,84C 28.3065,81.0376 30.9732,79.5376 34.5,79.5C 34.8333,80.1667 35.1667,80.8333 35.5,81.5C 36.3121,82.9931 37.6455,83.6598 39.5,83.5C 40.7261,83.4805 41.7261,83.1471 42.5,82.5C 43.2216,82.0825 43.7216,81.4158 44,80.5C 44.4999,68.8381 44.6665,57.1714 44.5,45.5C 47.5,45.5 50.5,45.5 53.5,45.5C 53.9444,58.9071 53.4444,72.2404 52,85.5C 47.7052,90.3252 42.2052,92.3252 35.5,91.5 Z"/></g>
<g><path style="opacity:1" fill="#e9d731" d="M 71.5,44.5 C 76.6894,43.2984 82.0227,43.2984 87.5,44.5C 87.7151,46.7743 88.3818,48.941 89.5,51C 88.9233,53.137 88.59,55.3037 88.5,57.5C 87.325,57.281 86.325,57.6143 85.5,58.5C 85.8457,59.6956 86.3457,59.6956 87,58.5C 87.5639,60.5618 87.0639,62.3951 85.5,64C 86.741,65.7309 87.741,67.5642 88.5,69.5C 83.111,66.0523 77.611,62.7189 72,59.5C 71.2571,57.5594 71.4238,55.7261 72.5,54C 76.2739,52.8175 79.4406,53.6508 82,56.5C 84.4281,55.37 86.5947,53.87 88.5,52C 86.578,48.3696 83.578,46.2029 79.5,45.5C 77.0521,44.5269 74.3854,44.1936 71.5,44.5 Z"/></g>
<g><path style="opacity:1" fill="#d7c535" d="M 71.5,44.5 C 74.3854,44.1936 77.0521,44.5269 79.5,45.5C 66.2836,44.3829 60.6169,50.3829 62.5,63.5C 60.7629,60.992 59.9296,57.992 60,54.5C 58.6667,55.1667 57.6667,56.1667 57,57.5C 56.6667,65.1667 56.3333,72.8333 56,80.5C 52.534,90.4861 45.7006,94.1527 35.5,91.5C 42.2052,92.3252 47.7052,90.3252 52,85.5C 53.4444,72.2404 53.9444,58.9071 53.5,45.5C 50.5,45.5 47.5,45.5 44.5,45.5C 44.6665,57.1714 44.4999,68.8381 44,80.5C 43.7216,81.4158 43.2216,82.0825 42.5,82.5C 40.0971,82.552 37.7638,82.2186 35.5,81.5C 35.1667,80.8333 34.8333,80.1667 34.5,79.5C 37.0961,80.2653 39.7628,80.5987 42.5,80.5C 42.6238,68.4171 42.4571,56.4171 42,44.5C 45.5414,43.5084 49.0414,42.6751 52.5,42C 53.4162,42.3742 54.2496,42.8742 55,43.5C 55.8035,46.4404 57.1369,49.1071 59,51.5C 59.2734,49.8988 59.7734,48.3988 60.5,47C 63.907,45.0651 67.5736,44.2318 71.5,44.5 Z"/></g>
<g><path style="opacity:1" fill="#e3cf3b" d="M 62.5,63.5 C 67.1291,68.4909 72.7958,71.9909 79.5,74C 83.5,77 83.5,80 79.5,83C 76.8333,83.6667 74.1667,83.6667 71.5,83C 69.9458,81.108 68.1124,79.608 66,78.5C 63.7473,79.3773 61.5806,80.3773 59.5,81.5C 61.1524,79.529 62.3191,77.1956 63,74.5C 64.8254,75.1029 66.6587,75.7696 68.5,76.5C 68.968,78.1338 69.968,79.3005 71.5,80C 74.146,80.4974 76.8127,80.6641 79.5,80.5C 79.5,79.1667 79.5,77.8333 79.5,76.5C 75.11,75.3701 70.7767,74.0368 66.5,72.5C 66.7093,71.914 67.0426,71.414 67.5,71C 64.6023,69.248 62.9357,66.748 62.5,63.5 Z"/></g>
<g><path style="opacity:1" fill="#978c35" d="M 35.5,81.5 C 37.7638,82.2186 40.0971,82.552 42.5,82.5C 41.7261,83.1471 40.7261,83.4805 39.5,83.5C 37.6455,83.6598 36.3121,82.9931 35.5,81.5 Z"/></g>
</svg>
