<?xml version="1.0" encoding="UTF-8"?>
<!DOCTYPE svg PUBLIC "-//W3C//DTD SVG 1.1//EN" "http://www.w3.org/Graphics/SVG/1.1/DTD/svg11.dtd">
<svg xmlns="http://www.w3.org/2000/svg" version="1.1" width="100px" height="100px" style="shape-rendering:geometricPrecision; text-rendering:geometricPrecision; image-rendering:optimizeQuality; fill-rule:evenodd; clip-rule:evenodd" xmlns:xlink="http://www.w3.org/1999/xlink">
<g><path style="opacity:0.929" fill="#db3812" d="M 56.5,-0.5 C 57.8333,-0.5 59.1667,-0.5 60.5,-0.5C 64.4829,10.5873 61.4829,19.254 51.5,25.5C 51.5,24.5 51.5,23.5 51.5,22.5C 49.5165,22.3832 47.8498,23.0499 46.5,24.5C 45.6114,22.993 44.6114,21.6597 43.5,20.5C 48.8902,17.2778 53.0569,12.9444 56,7.5C 56.4974,4.85397 56.6641,2.1873 56.5,-0.5 Z"/></g>
<g><path style="opacity:1" fill="#d93910" d="M 55.5,56.5 C 54.5,55.8333 53.5,55.1667 52.5,54.5C 52.2508,50.3863 50.7508,46.7197 48,43.5C 47.3333,39.5 47.3333,35.5 48,31.5C 53.733,25.5526 60.5664,21.5526 68.5,19.5C 68.6495,20.552 68.4828,21.552 68,22.5C 62.9781,26.0216 58.8115,30.355 55.5,35.5C 58.1414,39.1259 59.8081,43.1259 60.5,47.5C 60.1132,51.218 58.4465,54.218 55.5,56.5 Z"/></g>
<g><path style="opacity:0.83" fill="#d93910" d="M 43.5,20.5 C 44.6114,21.6597 45.6114,22.993 46.5,24.5C 47.8498,23.0499 49.5165,22.3832 51.5,22.5C 51.5,23.5 51.5,24.5 51.5,25.5C 48.8959,27.6 46.3959,29.9334 44,32.5C 43.3333,35.8333 43.3333,39.1667 44,42.5C 46.0556,46.2677 47.2223,50.2677 47.5,54.5C 44.0406,53.564 41.2072,51.564 39,48.5C 30.6509,37.5942 32.1509,28.2609 43.5,20.5 Z"/></g>
<g><path style="opacity:0.904" fill="#75a1f1" d="M 31.5,56.5 C 31.44,55.9569 31.1067,55.6236 30.5,55.5C 29.5344,57.396 29.2011,59.396 29.5,61.5C 30.5,61.5 31.5,61.5 32.5,61.5C 32.5,62.5 32.5,63.5 32.5,64.5C 38.1667,64.5 43.8333,64.5 49.5,64.5C 44.3187,65.1665 38.9853,65.8332 33.5,66.5C 41.892,67.8007 50.2253,67.8007 58.5,66.5C 51.5762,68.4633 44.2428,69.1299 36.5,68.5C 33.2288,68.3542 30.8955,69.6875 29.5,72.5C 24.1908,70.1979 24.1908,67.6979 29.5,65C 26.8333,64.3333 24.1667,63.6667 21.5,63C 17.103,58.9193 17.7696,55.9193 23.5,54C 28.202,53.1717 32.8687,53.3384 37.5,54.5C 35.9775,56.2825 33.9775,56.9492 31.5,56.5 Z"/></g>
<g><path style="opacity:0.878" fill="#739ff6" d="M 31.5,56.5 C 31.6107,57.1174 31.944,57.6174 32.5,58C 39.0137,58.82 45.3471,58.6533 51.5,57.5C 52.5,57.5 53.5,57.5 54.5,57.5C 59.5068,57.2491 64.5068,56.9157 69.5,56.5C 69.6495,57.552 69.4828,58.552 69,59.5C 63.0186,62.9192 56.5186,64.5859 49.5,64.5C 43.8333,64.5 38.1667,64.5 32.5,64.5C 32.5,63.5 32.5,62.5 32.5,61.5C 31.5,61.5 30.5,61.5 29.5,61.5C 29.2011,59.396 29.5344,57.396 30.5,55.5C 31.1067,55.6236 31.44,55.9569 31.5,56.5 Z"/></g>
<g><path style="opacity:1" fill="#be4430" d="M 52.5,54.5 C 53.5,55.1667 54.5,55.8333 55.5,56.5C 54.8333,56.5 54.5,56.8333 54.5,57.5C 53.5,57.5 52.5,57.5 51.5,57.5C 51.2627,56.209 51.596,55.209 52.5,54.5 Z"/></g>
<g><path style="opacity:0.905" fill="#759ff4" d="M 69.5,56.5 C 69.5608,53.9505 70.8941,52.4505 73.5,52C 84.5935,51.0091 88.4268,55.8424 85,66.5C 80.1124,70.4082 74.6124,73.0749 68.5,74.5C 68.3433,73.1266 68.51,71.7932 69,70.5C 73.0243,67.9758 76.191,64.6425 78.5,60.5C 76.5393,56.993 73.5393,55.6597 69.5,56.5 Z"/></g>
<g><path style="opacity:0.818" fill="#74a0f7" d="M 58.5,66.5 C 61.9967,65.8906 64.6634,67.0573 66.5,70C 63.7172,72.4881 60.3839,73.8214 56.5,74C 49.8417,74.4996 43.175,74.6663 36.5,74.5C 35.8501,74.8039 35.1835,75.1373 34.5,75.5C 33.5481,73.9547 33.2148,72.288 33.5,70.5C 35.1788,70.7148 36.1788,70.0481 36.5,68.5C 44.2428,69.1299 51.5762,68.4633 58.5,66.5 Z"/></g>
<g><path style="opacity:0.934" fill="#74a0f5" d="M 36.5,68.5 C 36.1788,70.0481 35.1788,70.7148 33.5,70.5C 33.2148,72.288 33.5481,73.9547 34.5,75.5C 35.1835,75.1373 35.8501,74.8039 36.5,74.5C 36.5,75.5 36.5,76.5 36.5,77.5C 43.7428,79.0086 50.9095,78.6753 58,76.5C 68.0904,79.7646 67.9237,82.5979 57.5,85C 50.1667,85.6667 42.8333,85.6667 35.5,85C 30.1052,84.3431 28.1052,81.5098 29.5,76.5C 30.376,75.7492 31.376,75.2492 32.5,75C 31.4293,74.1482 30.4293,73.3149 29.5,72.5C 30.8955,69.6875 33.2288,68.3542 36.5,68.5 Z"/></g>
<g><path style="opacity:0.785" fill="#739ff5" d="M 31.5,88.5 C 31.6837,92.0794 31.017,95.4127 29.5,98.5C 26.5,98.8333 25.1667,97.5 25.5,94.5C 21.3776,94.3031 17.3776,93.4698 13.5,92C 10.8333,89.3333 10.8333,86.6667 13.5,84C 18.3628,82.3274 23.3628,81.494 28.5,81.5C 28.67,82.8221 28.3366,83.9887 27.5,85C 25.2852,85.1705 23.2852,85.8372 21.5,87C 24.7568,88.0429 28.0901,88.5429 31.5,88.5 Z"/></g>
<g><path style="opacity:0.792" fill="#72a0f9" d="M 31.5,88.5 C 42.5,88.5 53.5,88.5 64.5,88.5C 65.5,88.5 66.5,88.5 67.5,88.5C 67.5,89.8333 67.5,91.1667 67.5,92.5C 68.5676,93.4345 69.901,93.7678 71.5,93.5C 73.5492,93.7058 73.8825,94.5391 72.5,96C 73.756,96.4169 74.4226,97.2502 74.5,98.5C 73.209,98.2627 72.209,98.596 71.5,99.5C 58.1667,99.5 44.8333,99.5 31.5,99.5C 31.1583,98.6618 30.4916,98.3284 29.5,98.5C 31.017,95.4127 31.6837,92.0794 31.5,88.5 Z"/></g>
<g><path style="opacity:0.809" fill="#73a2f3" d="M 74.5,98.5 C 74.4226,97.2502 73.756,96.4169 72.5,96C 73.8825,94.5391 73.5492,93.7058 71.5,93.5C 70.4324,92.5655 69.099,92.2322 67.5,92.5C 67.5,91.1667 67.5,89.8333 67.5,88.5C 66.5,88.5 65.5,88.5 64.5,88.5C 68.6151,87.0566 72.9484,86.0566 77.5,85.5C 77.5,84.5 77.5,83.5 77.5,82.5C 81.0681,82.7593 82.4015,84.7593 81.5,88.5C 82.8333,88.5 84.1667,88.5 85.5,88.5C 85.415,90.9288 84.415,92.9288 82.5,94.5C 79.8157,95.8422 77.149,97.1755 74.5,98.5 Z"/></g>
</svg>
