<?xml version="1.0" encoding="UTF-8"?>
<!DOCTYPE svg PUBLIC "-//W3C//DTD SVG 1.1//EN" "http://www.w3.org/Graphics/SVG/1.1/DTD/svg11.dtd">
<svg xmlns="http://www.w3.org/2000/svg" version="1.1" width="100px" height="100px" style="shape-rendering:geometricPrecision; text-rendering:geometricPrecision; image-rendering:optimizeQuality; fill-rule:evenodd; clip-rule:evenodd" xmlns:xlink="http://www.w3.org/1999/xlink">
<g><path style="opacity:0.886" fill="#1b6597" d="M 58.5,14.5 C 57.4246,15.5624 56.4246,15.5624 55.5,14.5C 56.7757,11.6969 56.7757,9.03026 55.5,6.5C 56.0312,4.45592 57.1978,2.78925 59,1.5C 59.1667,1.83333 59.3333,2.16667 59.5,2.5C 57.4609,6.41748 57.1275,10.4175 58.5,14.5 Z"/></g>
<g><path style="opacity:0.398" fill="#205f97" d="M 36.5,11.5 C 35.8333,11.1667 35.1667,10.8333 34.5,10.5C 38.5726,3.71221 39.2392,4.04554 36.5,11.5 Z"/></g>
<g><path style="opacity:0.78" fill="#225ea5" d="M 10.5,20.5 C 10.5,19.5 10.5,18.5 10.5,17.5C 11.0024,15.9153 12.0024,15.4153 13.5,16C 12.6006,17.6516 11.6006,19.1516 10.5,20.5 Z"/></g>
<g><path style="opacity:1" fill="#1d5cb8" d="M 10.5,17.5 C 10.5,18.5 10.5,19.5 10.5,20.5C 9.83333,20.5 9.16667,20.5 8.5,20.5C 8.93205,19.2905 9.59872,18.2905 10.5,17.5 Z"/></g>
<g><path style="opacity:0.962" fill="#1365a8" d="M 34.5,10.5 C 35.1667,10.8333 35.8333,11.1667 36.5,11.5C 34.3774,21.0713 35.7107,30.0713 40.5,38.5C 40.5,39.5 40.5,40.5 40.5,41.5C 37.0977,41.3424 33.7644,41.6758 30.5,42.5C 26.79,31.1139 28.1233,20.4472 34.5,10.5 Z"/></g>
<g><path style="opacity:1" fill="#1f629a" d="M 52.5,18.5 C 54.0898,18.6282 55.4231,19.2949 56.5,20.5C 57.2496,22.6835 57.2496,25.0169 56.5,27.5C 54.4214,24.8887 53.0881,21.8887 52.5,18.5 Z"/></g>
<g><path style="opacity:1" fill="#1664a3" d="M 8.5,20.5 C 9.16667,20.5 9.83333,20.5 10.5,20.5C 10.1491,24.6836 9.48242,28.6836 8.5,32.5C 8.44001,31.9569 8.10667,31.6236 7.5,31.5C 6.57131,32.6888 6.23798,34.0222 6.5,35.5C 4.5,35.5 2.5,35.5 0.5,35.5C 1.35463,29.4533 4.0213,24.4533 8.5,20.5 Z"/></g>
<g><path style="opacity:0.95" fill="#1665a5" d="M 55.5,6.5 C 56.7757,9.03026 56.7757,11.6969 55.5,14.5C 56.4246,15.5624 57.4246,15.5624 58.5,14.5C 62.9818,27.7558 72.3152,34.0891 86.5,33.5C 87.1001,34.9002 88.1001,35.9002 89.5,36.5C 88.158,37.793 86.4913,38.6264 84.5,39C 79.7481,39.7734 75.0815,39.6068 70.5,38.5C 70.0046,36.5183 69.5046,34.5183 69,32.5C 67.0517,33.1094 65.2184,33.776 63.5,34.5C 60.1886,33.1886 57.8552,30.8553 56.5,27.5C 57.2496,25.0169 57.2496,22.6835 56.5,20.5C 55.4231,19.2949 54.0898,18.6282 52.5,18.5C 52.2724,14.076 53.2724,10.076 55.5,6.5 Z"/></g>
<g><path style="opacity:1" fill="#1a629c" d="M 92.5,33.5 C 92.1583,32.6618 91.4916,32.3284 90.5,32.5C 92.4559,30.8861 94.4559,29.2194 96.5,27.5C 96.2988,29.8242 94.9655,31.8242 92.5,33.5 Z"/></g>
<g><path style="opacity:0.932" fill="#1464ad" d="M 86.5,33.5 C 87.5676,32.5655 88.901,32.2322 90.5,32.5C 91.4916,32.3284 92.1583,32.6618 92.5,33.5C 91.8333,34.8333 90.8333,35.8333 89.5,36.5C 88.1001,35.9002 87.1001,34.9002 86.5,33.5 Z"/></g>
<g><path style="opacity:0.976" fill="#1366a9" d="M 8.5,32.5 C 9.09457,40.5454 11.0946,48.2121 14.5,55.5C 12.7846,55.5977 10.9513,55.5977 9,55.5C 6.62154,56.9669 4.12154,57.9669 1.5,58.5C 0.833333,57.1667 0.166667,55.8333 -0.5,54.5C -0.5,48.1667 -0.5,41.8333 -0.5,35.5C -0.166667,35.5 0.166667,35.5 0.5,35.5C 2.5,35.5 4.5,35.5 6.5,35.5C 6.23798,34.0222 6.57131,32.6888 7.5,31.5C 8.10667,31.6236 8.44001,31.9569 8.5,32.5 Z"/></g>
<g><path style="opacity:1" fill="#1268a2" d="M 70.5,38.5 C 67.6689,37.9213 65.3356,36.588 63.5,34.5C 65.2184,33.776 67.0517,33.1094 69,32.5C 69.5046,34.5183 70.0046,36.5183 70.5,38.5 Z"/></g>
<g><path style="opacity:1" fill="#1068a8" d="M 50.5,49.5 C 52.0269,49.427 53.0269,50.0937 53.5,51.5C 53.5,52.1667 53.5,52.8333 53.5,53.5C 52.5,53.5 51.5,53.5 50.5,53.5C 50.5,52.1667 50.5,50.8333 50.5,49.5 Z"/></g>
<g><path style="opacity:1" fill="#1165b0" d="M 49.5,48.5 C 50.1667,48.5 50.5,48.8333 50.5,49.5C 50.5,50.8333 50.5,52.1667 50.5,53.5C 51.5,53.5 52.5,53.5 53.5,53.5C 53.5,54.1667 53.5,54.8333 53.5,55.5C 51.5,55.1667 49.5,54.8333 47.5,54.5C 47.2587,52.1137 47.9254,50.1137 49.5,48.5 Z"/></g>
<g><path style="opacity:1" fill="#19669b" d="M 53.5,51.5 C 55.8185,51.9925 57.8185,52.9925 59.5,54.5C 58.1779,54.67 57.0113,54.3366 56,53.5C 55.5831,54.756 54.7498,55.4226 53.5,55.5C 53.5,54.8333 53.5,54.1667 53.5,53.5C 53.5,52.8333 53.5,52.1667 53.5,51.5 Z"/></g>
<g><path style="opacity:0.986" fill="#1366a7" d="M 40.5,38.5 C 43.4715,41.8076 46.4715,45.141 49.5,48.5C 47.9254,50.1137 47.2587,52.1137 47.5,54.5C 49.5,54.8333 51.5,55.1667 53.5,55.5C 54.7498,55.4226 55.5831,54.756 56,53.5C 57.0113,54.3366 58.1779,54.67 59.5,54.5C 65.3618,56.2721 71.3618,57.2721 77.5,57.5C 77.5,58.8333 76.8333,59.5 75.5,59.5C 74.1696,60.8321 72.5029,61.6655 70.5,62C 66.8484,62.4986 63.1817,62.6653 59.5,62.5C 59.7373,63.791 59.404,64.791 58.5,65.5C 45.5763,62.2463 36.243,54.5796 30.5,42.5C 33.7644,41.6758 37.0977,41.3424 40.5,41.5C 40.5,40.5 40.5,39.5 40.5,38.5 Z"/></g>
<g><path style="opacity:0.942" fill="#1565a1" d="M 99.5,45.5 C 99.5,46.5 99.5,47.5 99.5,48.5C 97.9202,51.263 96.0869,53.9297 94,56.5C 92.7292,57.8825 91.2292,58.8825 89.5,59.5C 88.4975,57.9891 87.8308,56.3224 87.5,54.5C 92.0657,52.2695 96.0657,49.2695 99.5,45.5 Z"/></g>
<g><path style="opacity:1" fill="#1762b4" d="M 80.5,56.5 C 79.2129,58.8048 77.8796,61.1382 76.5,63.5C 75.5713,62.3112 75.238,60.9778 75.5,59.5C 76.8333,59.5 77.5,58.8333 77.5,57.5C 78.609,57.4431 79.609,57.1098 80.5,56.5 Z"/></g>
<g><path style="opacity:0.982" fill="#1464aa" d="M 87.5,54.5 C 87.8308,56.3224 88.4975,57.9891 89.5,59.5C 85.9008,62.8827 81.5674,65.0494 76.5,66C 70.3188,66.8192 64.3188,66.6525 58.5,65.5C 59.404,64.791 59.7373,63.791 59.5,62.5C 63.1817,62.6653 66.8484,62.4986 70.5,62C 72.5029,61.6655 74.1696,60.8321 75.5,59.5C 75.238,60.9778 75.5713,62.3112 76.5,63.5C 77.8796,61.1382 79.2129,58.8048 80.5,56.5C 82.9653,56.233 85.2986,55.5664 87.5,54.5 Z"/></g>
<g><path style="opacity:1" fill="#1466a6" d="M 14.5,55.5 C 16.7349,58.2911 18.7349,61.2911 20.5,64.5C 18.9519,64.8212 18.2852,65.8212 18.5,67.5C 17.325,67.281 16.325,67.6143 15.5,68.5C 16.1925,69.5178 16.8592,70.5178 17.5,71.5C 18.6089,72.8787 19.2755,74.5453 19.5,76.5C 19.163,79.1764 18.8297,81.843 18.5,84.5C 15.5,82.1667 12.8333,79.5 10.5,76.5C 12.5,77.1667 14.5,77.8333 16.5,78.5C 16.6972,74.6579 14.8639,72.3246 11,71.5C 9.62439,71.6842 8.79106,72.3509 8.5,73.5C 4.84775,69.1916 2.51442,64.1916 1.5,58.5C 4.12154,57.9669 6.62154,56.9669 9,55.5C 10.9513,55.5977 12.7846,55.5977 14.5,55.5 Z"/></g>
<g><path style="opacity:1" fill="#1165b1" d="M 20.5,64.5 C 20.4142,65.4959 20.7476,66.3292 21.5,67C 20.2593,68.6985 18.926,70.1985 17.5,71.5C 16.8592,70.5178 16.1925,69.5178 15.5,68.5C 16.325,67.6143 17.325,67.281 18.5,67.5C 18.2852,65.8212 18.9519,64.8212 20.5,64.5 Z"/></g>
<g><path style="opacity:0.984" fill="#1266a9" d="M 20.5,64.5 C 24.8974,68.9037 29.5641,72.9037 34.5,76.5C 33.6016,77.1577 32.6016,77.8243 31.5,78.5C 33.5156,79.6942 35.5156,79.6942 37.5,78.5C 36.0318,80.9158 35.3651,83.5825 35.5,86.5C 31.6163,86.4238 27.9496,87.0905 24.5,88.5C 22.2228,87.5514 20.2228,86.2181 18.5,84.5C 18.8297,81.843 19.163,79.1764 19.5,76.5C 19.2755,74.5453 18.6089,72.8787 17.5,71.5C 18.926,70.1985 20.2593,68.6985 21.5,67C 20.7476,66.3292 20.4142,65.4959 20.5,64.5 Z"/></g>
<g><path style="opacity:1" fill="#1166ac" d="M 10.5,76.5 C 9.83333,75.5 9.16667,74.5 8.5,73.5C 8.79106,72.3509 9.62439,71.6842 11,71.5C 14.8639,72.3246 16.6972,74.6579 16.5,78.5C 14.5,77.8333 12.5,77.1667 10.5,76.5 Z"/></g>
<g><path style="opacity:0.974" fill="#1564a0" d="M 87.5,84.5 C 87.4456,82.368 86.4456,81.0347 84.5,80.5C 88.8385,77.6513 92.8385,74.318 96.5,70.5C 96.8333,70.8333 97.1667,71.1667 97.5,71.5C 94.8772,76.4466 91.5439,80.7799 87.5,84.5 Z"/></g>
<g><path style="opacity:1" fill="#1561b3" d="M 34.5,76.5 C 35.7095,76.9321 36.7095,77.5987 37.5,78.5C 35.5156,79.6942 33.5156,79.6942 31.5,78.5C 32.6016,77.8243 33.6016,77.1577 34.5,76.5 Z"/></g>
<g><path style="opacity:1" fill="#1367a5" d="M 37.5,78.5 C 39.153,78.6596 40.4863,79.3263 41.5,80.5C 42.4629,82.2984 41.7962,83.6317 39.5,84.5C 41.9935,86.2478 41.8268,87.9144 39,89.5C 37.1936,87.0481 35.6936,87.3814 34.5,90.5C 33.2638,89.7542 31.9305,89.4208 30.5,89.5C 30.5,90.5 30.5,91.5 30.5,92.5C 28.1184,91.6493 26.1184,90.316 24.5,88.5C 27.9496,87.0905 31.6163,86.4238 35.5,86.5C 35.3651,83.5825 36.0318,80.9158 37.5,78.5 Z"/></g>
<g><path style="opacity:0.967" fill="#1165aa" d="M 84.5,80.5 C 86.4456,81.0347 87.4456,82.368 87.5,84.5C 86.8333,85.8333 85.8333,86.8333 84.5,87.5C 82.6954,86.7629 81.0287,85.7629 79.5,84.5C 80.6119,83.7348 81.2786,82.7348 81.5,81.5C 82.391,80.8902 83.391,80.5569 84.5,80.5 Z"/></g>
<g><path style="opacity:1" fill="#1565a5" d="M 81.5,81.5 C 81.2786,82.7348 80.6119,83.7348 79.5,84.5C 81.0287,85.7629 82.6954,86.7629 84.5,87.5C 82.0536,90.2307 79.0536,92.2307 75.5,93.5C 76.1495,91.5648 76.4828,89.5648 76.5,87.5C 74.0672,87.7271 72.4006,86.7271 71.5,84.5C 74.817,83.5033 78.1503,82.5033 81.5,81.5 Z"/></g>
<g><path style="opacity:0.961" fill="#1365a9" d="M 41.5,80.5 C 44.8376,81.5009 48.1709,82.5009 51.5,83.5C 51.62,84.5862 52.2867,85.2528 53.5,85.5C 54.4164,85.4573 55.0831,85.1239 55.5,84.5C 60.8333,84.5 66.1667,84.5 71.5,84.5C 72.4006,86.7271 74.0672,87.7271 76.5,87.5C 76.4828,89.5648 76.1495,91.5648 75.5,93.5C 74.2921,94.2341 72.9587,94.5674 71.5,94.5C 70.6586,92.6208 70.3253,90.6208 70.5,88.5C 66.1667,88.5 61.8333,88.5 57.5,88.5C 57.5,90.5 57.5,92.5 57.5,94.5C 60.6981,93.9644 63.3647,94.631 65.5,96.5C 53.3728,98.7799 41.7061,97.4465 30.5,92.5C 30.5,91.5 30.5,90.5 30.5,89.5C 31.9305,89.4208 33.2638,89.7542 34.5,90.5C 35.6936,87.3814 37.1936,87.0481 39,89.5C 41.8268,87.9144 41.9935,86.2478 39.5,84.5C 41.7962,83.6317 42.4629,82.2984 41.5,80.5 Z"/></g>
<g><path style="opacity:1" fill="#1b6398" d="M 51.5,83.5 C 53.099,83.2322 54.4324,83.5655 55.5,84.5C 55.0831,85.1239 54.4164,85.4573 53.5,85.5C 52.2867,85.2528 51.62,84.5862 51.5,83.5 Z"/></g>
<g><path style="opacity:0.995" fill="#1266a7" d="M 71.5,94.5 C 69.7857,95.7384 67.7857,96.405 65.5,96.5C 63.3647,94.631 60.6981,93.9644 57.5,94.5C 57.5,92.5 57.5,90.5 57.5,88.5C 61.8333,88.5 66.1667,88.5 70.5,88.5C 70.3253,90.6208 70.6586,92.6208 71.5,94.5 Z"/></g>
</svg>
