<?xml version="1.0" encoding="UTF-8"?>
<!DOCTYPE svg PUBLIC "-//W3C//DTD SVG 1.1//EN" "http://www.w3.org/Graphics/SVG/1.1/DTD/svg11.dtd">
<svg xmlns="http://www.w3.org/2000/svg" version="1.1" width="100px" height="100px" style="shape-rendering:geometricPrecision; text-rendering:geometricPrecision; image-rendering:optimizeQuality; fill-rule:evenodd; clip-rule:evenodd" xmlns:xlink="http://www.w3.org/1999/xlink">
<g><path style="opacity:1" fill="#7870e2" d="M 24.5,-0.5 C 30.1667,-0.5 35.8333,-0.5 41.5,-0.5C 38.6024,1.77251 38.9358,3.27251 42.5,4C 41.552,4.48278 40.552,4.64945 39.5,4.5C 39.5,5.5 39.5,6.5 39.5,7.5C 38.5,7.5 37.5,7.5 36.5,7.5C 35.788,8.73874 34.788,9.23874 33.5,9C 30.989,6.15698 28.1557,3.65698 25,1.5C 24.5357,0.905578 24.369,0.238911 24.5,-0.5 Z"/></g>
<g><path style="opacity:0.995" fill="#f7890a" d="M 55.5,-0.5 C 70.1667,-0.5 84.8333,-0.5 99.5,-0.5C 99.5,0.166667 99.5,0.833333 99.5,1.5C 91.486,8.91199 83.486,16.2453 75.5,23.5C 72.0489,23.4618 68.7156,22.7951 65.5,21.5C 64.1667,22.1667 62.8333,22.8333 61.5,23.5C 59.8653,22.9537 58.1986,22.6204 56.5,22.5C 56.2625,19.7884 56.2625,17.2884 56.5,15C 55.991,12.3069 54.991,9.80688 53.5,7.5C 55.223,5.13245 55.8897,2.46578 55.5,-0.5 Z"/></g>
<g><path style="opacity:1" fill="#8270d6" d="M 41.5,-0.5 C 43.1667,-0.5 44.8333,-0.5 46.5,-0.5C 45.588,1.5952 44.4213,3.5952 43,5.5C 42.1841,6.82277 41.0174,7.48944 39.5,7.5C 39.5,6.5 39.5,5.5 39.5,4.5C 40.552,4.64945 41.552,4.48278 42.5,4C 38.9358,3.27251 38.6024,1.77251 41.5,-0.5 Z"/></g>
<g><path style="opacity:1" fill="#ab768a" d="M 46.5,-0.5 C 47.1667,-0.5 47.8333,-0.5 48.5,-0.5C 47.1667,1.83333 45.8333,4.16667 44.5,6.5C 43.5,7.16667 42.5,7.83333 41.5,8.5C 40.1667,9.5 38.8333,10.5 37.5,11.5C 37.7329,9.93819 38.3995,8.60486 39.5,7.5C 41.0174,7.48944 42.1841,6.82277 43,5.5C 44.4213,3.5952 45.588,1.5952 46.5,-0.5 Z"/></g>
<g><path style="opacity:1" fill="#d98744" d="M 48.5,-0.5 C 48.8333,-0.5 49.1667,-0.5 49.5,-0.5C 49.0387,2.30327 47.7053,4.6366 45.5,6.5C 45.1667,6.5 44.8333,6.5 44.5,6.5C 45.8333,4.16667 47.1667,1.83333 48.5,-0.5 Z"/></g>
<g><path style="opacity:1" fill="#5e77de" d="M 15.5,-0.5 C 18.5,-0.5 21.5,-0.5 24.5,-0.5C 24.369,0.238911 24.5357,0.905578 25,1.5C 28.1557,3.65698 30.989,6.15698 33.5,9C 34.788,9.23874 35.788,8.73874 36.5,7.5C 36.5,8.83333 36.5,10.1667 36.5,11.5C 34.901,11.2322 33.5676,11.5655 32.5,12.5C 27.171,12.2693 24.0043,9.60268 23,4.5C 20.9285,3.47521 18.7619,2.64188 16.5,2C 15.7476,1.32924 15.4142,0.495904 15.5,-0.5 Z"/></g>
<g><path style="opacity:1" fill="#3983dc" d="M 5.5,-0.5 C 7.5,-0.5 9.5,-0.5 11.5,-0.5C 11.3505,0.551975 11.5172,1.55198 12,2.5C 17.0878,6.00955 21.7545,10.0095 26,14.5C 26.6917,15.4368 26.525,16.1034 25.5,16.5C 22.4369,15.2706 20.1035,13.1039 18.5,10C 17.1667,9.66667 15.8333,9.33333 14.5,9C 12.3007,4.97008 9.30073,1.80341 5.5,-0.5 Z"/></g>
<g><path style="opacity:1" fill="#7d73c6" d="M 36.5,7.5 C 37.5,7.5 38.5,7.5 39.5,7.5C 38.3995,8.60486 37.7329,9.93819 37.5,11.5C 37.1667,11.5 36.8333,11.5 36.5,11.5C 36.5,10.1667 36.5,8.83333 36.5,7.5 Z"/></g>
<g><path style="opacity:0.999" fill="#f5880f" d="M 49.5,-0.5 C 51.5,-0.5 53.5,-0.5 55.5,-0.5C 55.8897,2.46578 55.223,5.13245 53.5,7.5C 54.991,9.80688 55.991,12.3069 56.5,15C 56.2625,17.2884 56.2625,19.7884 56.5,22.5C 58.1986,22.6204 59.8653,22.9537 61.5,23.5C 62.8333,22.8333 64.1667,22.1667 65.5,21.5C 68.7156,22.7951 72.0489,23.4618 75.5,23.5C 72.9662,27.2199 69.9662,30.5532 66.5,33.5C 65.1667,33.5 63.8333,33.5 62.5,33.5C 62.5,30.5 62.5,27.5 62.5,24.5C 59.3799,24.1559 56.5466,24.8225 54,26.5C 49.1912,22.7872 47.3579,17.7872 48.5,11.5C 47.5,11.5 46.5,11.5 45.5,11.5C 45.5,9.83333 45.5,8.16667 45.5,6.5C 47.7053,4.6366 49.0387,2.30327 49.5,-0.5 Z"/></g>
<g><path style="opacity:1" fill="#2889d8" d="M -0.5,-0.5 C 1.5,-0.5 3.5,-0.5 5.5,-0.5C 9.30073,1.80341 12.3007,4.97008 14.5,9C 15.8333,9.33333 17.1667,9.66667 18.5,10C 20.1035,13.1039 22.4369,15.2706 25.5,16.5C 27.3059,19.3382 28.3059,19.0048 28.5,15.5C 29.5,15.5 30.5,15.5 31.5,15.5C 31.5,16.1667 31.5,16.8333 31.5,17.5C 30.5,18.1667 29.5,18.8333 28.5,19.5C 26.8333,19.5 25.1667,19.5 23.5,19.5C 23.6495,20.552 23.4828,21.552 23,22.5C 20.793,19.9221 18.9596,17.0887 17.5,14C 12.8205,13.6626 9.48714,11.3293 7.5,7C 4.964,4.96185 2.29733,3.12851 -0.5,1.5C -0.5,0.833333 -0.5,0.166667 -0.5,-0.5 Z"/></g>
<g><path style="opacity:1" fill="#477fde" d="M 11.5,-0.5 C 12.8333,-0.5 14.1667,-0.5 15.5,-0.5C 15.4142,0.495904 15.7476,1.32924 16.5,2C 18.7619,2.64188 20.9285,3.47521 23,4.5C 24.0043,9.60268 27.171,12.2693 32.5,12.5C 32.4431,13.609 32.1098,14.609 31.5,15.5C 30.5,15.5 29.5,15.5 28.5,15.5C 28.3059,19.0048 27.3059,19.3382 25.5,16.5C 26.525,16.1034 26.6917,15.4368 26,14.5C 21.7545,10.0095 17.0878,6.00955 12,2.5C 11.5172,1.55198 11.3505,0.551975 11.5,-0.5 Z"/></g>
<g><path style="opacity:1" fill="#cf815f" d="M 41.5,8.5 C 40.9202,10.7488 39.5869,12.4154 37.5,13.5C 37.5,12.8333 37.5,12.1667 37.5,11.5C 38.8333,10.5 40.1667,9.5 41.5,8.5 Z"/></g>
<g><path style="opacity:1" fill="#f48617" d="M 44.5,6.5 C 44.8333,6.5 45.1667,6.5 45.5,6.5C 45.5,8.16667 45.5,9.83333 45.5,11.5C 46.5,11.5 47.5,11.5 48.5,11.5C 47.3579,17.7872 49.1912,22.7872 54,26.5C 56.5466,24.8225 59.3799,24.1559 62.5,24.5C 62.5,27.5 62.5,30.5 62.5,33.5C 59.1194,33.4595 55.7861,33.7929 52.5,34.5C 52.3601,32.8762 53.0267,31.7096 54.5,31C 52.633,28.4128 50.133,26.9128 47,26.5C 46.5034,24.1902 46.3367,21.8568 46.5,19.5C 44.1667,19.5 41.8333,19.5 39.5,19.5C 39.8432,21.4832 39.1765,22.8166 37.5,23.5C 37.5,20.5 37.5,17.5 37.5,14.5C 37.5,14.1667 37.5,13.8333 37.5,13.5C 39.5869,12.4154 40.9202,10.7488 41.5,8.5C 42.5,7.83333 43.5,7.16667 44.5,6.5 Z"/></g>
<g><path style="opacity:1" fill="#6f79c0" d="M 36.5,11.5 C 35.1938,12.4674 34.5271,13.8007 34.5,15.5C 33.5,15.8333 32.8333,16.5 32.5,17.5C 32.1667,17.5 31.8333,17.5 31.5,17.5C 31.5,16.8333 31.5,16.1667 31.5,15.5C 32.1098,14.609 32.4431,13.609 32.5,12.5C 33.5676,11.5655 34.901,11.2322 36.5,11.5 Z"/></g>
<g><path style="opacity:1" fill="#957994" d="M 36.5,11.5 C 36.8333,11.5 37.1667,11.5 37.5,11.5C 37.5,12.1667 37.5,12.8333 37.5,13.5C 36.1667,13.5 35.5,14.1667 35.5,15.5C 35.1667,15.5 34.8333,15.5 34.5,15.5C 34.5271,13.8007 35.1938,12.4674 36.5,11.5 Z"/></g>
<g><path style="opacity:1" fill="#c7886a" d="M 37.5,13.5 C 37.5,13.8333 37.5,14.1667 37.5,14.5C 36.8333,14.8333 36.1667,15.1667 35.5,15.5C 35.5,14.1667 36.1667,13.5 37.5,13.5 Z"/></g>
<g><path style="opacity:1" fill="#0294d5" d="M -0.5,3.5 C 3.73723,6.22815 7.57056,9.56148 11,13.5C 11.7514,17.2657 13.7514,20.2657 17,22.5C 17.0496,24.744 17.8829,26.4107 19.5,27.5C 19.5,27.8333 19.5,28.1667 19.5,28.5C 18.4274,29.6579 17.2607,29.6579 16,28.5C 15,29.1667 14,29.8333 13,30.5C 9.6105,29.6445 7.1105,30.9779 5.5,34.5C 6.24585,35.7362 6.57918,37.0695 6.5,38.5C 5.17793,38.67 4.01127,38.3366 3,37.5C 2.24109,39.0629 1.07442,40.0629 -0.5,40.5C -0.5,28.1667 -0.5,15.8333 -0.5,3.5 Z"/></g>
<g><path style="opacity:1" fill="#767c91" d="M 31.5,17.5 C 31.8333,17.5 32.1667,17.5 32.5,17.5C 30.1667,20.5 27.5,23.1667 24.5,25.5C 24.5,25.1667 24.5,24.8333 24.5,24.5C 25.8333,22.8333 27.1667,21.1667 28.5,19.5C 29.5,18.8333 30.5,18.1667 31.5,17.5 Z"/></g>
<g><path style="opacity:1" fill="#c28769" d="M 34.5,15.5 C 34.8333,15.5 35.1667,15.5 35.5,15.5C 34.2485,17.0009 33.2485,18.6675 32.5,20.5C 30.1667,22.1667 28.1667,24.1667 26.5,26.5C 25.5,27.1667 24.5,27.8333 23.5,28.5C 23.5,28.1667 23.5,27.8333 23.5,27.5C 23.8333,26.8333 24.1667,26.1667 24.5,25.5C 27.5,23.1667 30.1667,20.5 32.5,17.5C 32.8333,16.5 33.5,15.8333 34.5,15.5 Z"/></g>
<g><path style="opacity:1" fill="#1b8ed5" d="M -0.5,1.5 C 2.29733,3.12851 4.964,4.96185 7.5,7C 9.48714,11.3293 12.8205,13.6626 17.5,14C 18.9596,17.0887 20.793,19.9221 23,22.5C 23.4828,21.552 23.6495,20.552 23.5,19.5C 25.1667,19.5 26.8333,19.5 28.5,19.5C 27.1667,21.1667 25.8333,22.8333 24.5,24.5C 22.326,24.7497 20.6594,25.7497 19.5,27.5C 17.8829,26.4107 17.0496,24.744 17,22.5C 13.7514,20.2657 11.7514,17.2657 11,13.5C 7.57056,9.56148 3.73723,6.22815 -0.5,3.5C -0.5,2.83333 -0.5,2.16667 -0.5,1.5 Z"/></g>
<g><path style="opacity:1" fill="#ed8028" d="M 37.5,14.5 C 37.5,17.5 37.5,20.5 37.5,23.5C 38.0283,24.7206 38.695,25.8873 39.5,27C 37.0147,28.2227 36.848,29.7227 39,31.5C 43.5727,30.5443 46.7394,32.3776 48.5,37C 50.792,38.2899 52.792,39.9565 54.5,42C 55.448,42.4828 56.448,42.6495 57.5,42.5C 57.1583,43.3382 56.4916,43.6716 55.5,43.5C 53.4947,44.1236 51.8281,43.2903 50.5,41C 49.2068,40.51 47.8734,40.3433 46.5,40.5C 45.9954,36.988 43.9954,34.6546 40.5,33.5C 39.7065,33.9312 38.8732,34.2645 38,34.5C 36.3558,32.3384 34.1891,31.0051 31.5,30.5C 30.3915,29.71 29.0581,29.21 27.5,29C 28.624,28.7508 29.624,28.2508 30.5,27.5C 31.3249,25.1987 31.9916,22.8654 32.5,20.5C 33.2485,18.6675 34.2485,17.0009 35.5,15.5C 36.1667,15.1667 36.8333,14.8333 37.5,14.5 Z"/></g>
<g><path style="opacity:1" fill="#3b8aac" d="M 24.5,24.5 C 24.5,24.8333 24.5,25.1667 24.5,25.5C 24.1667,26.1667 23.8333,26.8333 23.5,27.5C 22.0937,27.9731 21.427,28.9731 21.5,30.5C 20.8333,30.5 20.1667,30.5 19.5,30.5C 19.5,29.8333 19.5,29.1667 19.5,28.5C 19.5,28.1667 19.5,27.8333 19.5,27.5C 20.6594,25.7497 22.326,24.7497 24.5,24.5 Z"/></g>
<g><path style="opacity:1" fill="#1491cc" d="M 19.5,28.5 C 19.5,29.1667 19.5,29.8333 19.5,30.5C 18.1667,32.1667 16.8333,33.8333 15.5,35.5C 12.5,35.1667 11.1667,36.5 11.5,39.5C 9.10731,40.3527 7.77398,42.0194 7.5,44.5C 6.16667,45.5 4.83333,46.5 3.5,47.5C 2.16667,48.1667 0.833333,48.8333 -0.5,49.5C -0.5,46.5 -0.5,43.5 -0.5,40.5C 1.07442,40.0629 2.24109,39.0629 3,37.5C 4.01127,38.3366 5.17793,38.67 6.5,38.5C 6.57918,37.0695 6.24585,35.7362 5.5,34.5C 7.1105,30.9779 9.6105,29.6445 13,30.5C 14,29.8333 15,29.1667 16,28.5C 17.2607,29.6579 18.4274,29.6579 19.5,28.5 Z"/></g>
<g><path style="opacity:1" fill="#9f8e7c" d="M 23.5,27.5 C 23.5,27.8333 23.5,28.1667 23.5,28.5C 23.1667,29.5 22.5,30.1667 21.5,30.5C 21.427,28.9731 22.0937,27.9731 23.5,27.5 Z"/></g>
<g><path style="opacity:1" fill="#e97b3b" d="M 27.5,31.5 C 28.4959,31.4142 29.3292,31.7476 30,32.5C 30.3333,33.8333 30.6667,35.1667 31,36.5C 34.9867,39.4869 38.6533,42.8203 42,46.5C 43.0299,46.1639 43.5299,45.4972 43.5,44.5C 46.6297,46.0226 49.963,46.6893 53.5,46.5C 52.8333,47.1667 52.1667,47.8333 51.5,48.5C 49.6203,48.2291 48.287,48.8958 47.5,50.5C 46.0413,50.4326 44.7079,50.7659 43.5,51.5C 42.6236,51.6309 41.9569,51.2975 41.5,50.5C 42.376,49.7492 43.376,49.2492 44.5,49C 42.7148,47.8372 40.7148,47.1705 38.5,47C 37.2101,44.708 35.5435,42.708 33.5,41C 32.2559,40.5439 31.4226,41.0439 31,42.5C 30.3333,41.8333 29.6667,41.1667 29,40.5C 28.7411,37.4133 28.2411,34.4133 27.5,31.5 Z"/></g>
<g><path style="opacity:0.951" fill="#f1831f" d="M 62.5,33.5 C 63.8333,33.5 65.1667,33.5 66.5,33.5C 63.8333,36.8333 60.8333,39.8333 57.5,42.5C 56.448,42.6495 55.448,42.4828 54.5,42C 52.792,39.9565 50.792,38.2899 48.5,37C 46.7394,32.3776 43.5727,30.5443 39,31.5C 36.848,29.7227 37.0147,28.2227 39.5,27C 38.695,25.8873 38.0283,24.7206 37.5,23.5C 39.1765,22.8166 39.8432,21.4832 39.5,19.5C 41.8333,19.5 44.1667,19.5 46.5,19.5C 46.3367,21.8568 46.5034,24.1902 47,26.5C 50.133,26.9128 52.633,28.4128 54.5,31C 53.0267,31.7096 52.3601,32.8762 52.5,34.5C 55.7861,33.7929 59.1194,33.4595 62.5,33.5 Z"/></g>
<g><path style="opacity:1" fill="#ea7c35" d="M 32.5,20.5 C 31.9916,22.8654 31.3249,25.1987 30.5,27.5C 29.624,28.2508 28.624,28.7508 27.5,29C 29.0581,29.21 30.3915,29.71 31.5,30.5C 33.5463,35.2564 36.8796,37.9231 41.5,38.5C 41.1667,39.1667 40.8333,39.8333 40.5,40.5C 41.5244,41.8518 42.5244,43.1851 43.5,44.5C 43.5299,45.4972 43.0299,46.1639 42,46.5C 38.6533,42.8203 34.9867,39.4869 31,36.5C 30.6667,35.1667 30.3333,33.8333 30,32.5C 29.3292,31.7476 28.4959,31.4142 27.5,31.5C 26.8333,31.5 26.1667,31.5 25.5,31.5C 25.6287,29.7839 25.962,28.1172 26.5,26.5C 28.1667,24.1667 30.1667,22.1667 32.5,20.5 Z"/></g>
<g><path style="opacity:1" fill="#ed7e2e" d="M 31.5,30.5 C 34.1891,31.0051 36.3558,32.3384 38,34.5C 38.8732,34.2645 39.7065,33.9312 40.5,33.5C 43.9954,34.6546 45.9954,36.988 46.5,40.5C 47.8734,40.3433 49.2068,40.51 50.5,41C 51.8281,43.2903 53.4947,44.1236 55.5,43.5C 55.573,45.0269 54.9063,46.0269 53.5,46.5C 49.963,46.6893 46.6297,46.0226 43.5,44.5C 42.5244,43.1851 41.5244,41.8518 40.5,40.5C 40.8333,39.8333 41.1667,39.1667 41.5,38.5C 36.8796,37.9231 33.5463,35.2564 31.5,30.5 Z"/></g>
<g><path style="opacity:1" fill="#958b84" d="M 19.5,30.5 C 20.1667,30.5 20.8333,30.5 21.5,30.5C 21.1667,31.1667 20.8333,31.8333 20.5,32.5C 18.8333,33.5 17.5,34.8333 16.5,36.5C 16.1667,36.5 15.8333,36.5 15.5,36.5C 15.5,36.1667 15.5,35.8333 15.5,35.5C 16.8333,33.8333 18.1667,32.1667 19.5,30.5 Z"/></g>
<g><path style="opacity:1" fill="#c78263" d="M 20.5,32.5 C 20.2671,34.0618 19.6005,35.3951 18.5,36.5C 17.8333,36.5 17.1667,36.5 16.5,36.5C 17.5,34.8333 18.8333,33.5 20.5,32.5 Z"/></g>
<g><path style="opacity:1" fill="#4988a0" d="M 15.5,35.5 C 15.5,35.8333 15.5,36.1667 15.5,36.5C 14.1667,37.1667 13.1667,38.1667 12.5,39.5C 12.1667,39.5 11.8333,39.5 11.5,39.5C 11.1667,36.5 12.5,35.1667 15.5,35.5 Z"/></g>
<g><path style="opacity:1" fill="#ab8778" d="M 15.5,36.5 C 15.8333,36.5 16.1667,36.5 16.5,36.5C 16.5,36.8333 16.5,37.1667 16.5,37.5C 15.1667,38.1667 14.1667,39.1667 13.5,40.5C 13.1667,40.5 12.8333,40.5 12.5,40.5C 12.5,40.1667 12.5,39.8333 12.5,39.5C 13.1667,38.1667 14.1667,37.1667 15.5,36.5 Z"/></g>
<g><path style="opacity:1" fill="#e5784b" d="M 26.5,26.5 C 25.962,28.1172 25.6287,29.7839 25.5,31.5C 26.5604,36.4154 27.3938,41.4154 28,46.5C 28.5613,47.0219 29.228,47.3552 30,47.5C 31.1681,46.4911 32.3348,45.4911 33.5,44.5C 34.8023,47.4273 36.4689,50.094 38.5,52.5C 37.5263,54.0853 36.0263,55.0853 34,55.5C 33.6667,54.5 33.3333,53.5 33,52.5C 32.3333,51.1667 31.6667,51.1667 31,52.5C 29.3258,48.9114 26.4925,47.2447 22.5,47.5C 22.5645,43.301 21.2311,39.6343 18.5,36.5C 19.6005,35.3951 20.2671,34.0618 20.5,32.5C 20.8333,31.8333 21.1667,31.1667 21.5,30.5C 22.5,30.1667 23.1667,29.5 23.5,28.5C 24.5,27.8333 25.5,27.1667 26.5,26.5 Z"/></g>
<g><path style="opacity:1" fill="#e67940" d="M 25.5,31.5 C 26.1667,31.5 26.8333,31.5 27.5,31.5C 28.2411,34.4133 28.7411,37.4133 29,40.5C 29.6667,41.1667 30.3333,41.8333 31,42.5C 31.4226,41.0439 32.2559,40.5439 33.5,41C 35.5435,42.708 37.2101,44.708 38.5,47C 40.7148,47.1705 42.7148,47.8372 44.5,49C 43.376,49.2492 42.376,49.7492 41.5,50.5C 41.9569,51.2975 42.6236,51.6309 43.5,51.5C 42.0813,52.4511 40.4147,52.7845 38.5,52.5C 36.4689,50.094 34.8023,47.4273 33.5,44.5C 32.3348,45.4911 31.1681,46.4911 30,47.5C 29.228,47.3552 28.5613,47.0219 28,46.5C 27.3938,41.4154 26.5604,36.4154 25.5,31.5 Z"/></g>
<g><path style="opacity:1" fill="#718598" d="M 11.5,39.5 C 11.8333,39.5 12.1667,39.5 12.5,39.5C 12.5,39.8333 12.5,40.1667 12.5,40.5C 10.8333,41.5 9.5,42.8333 8.5,44.5C 8.16667,44.5 7.83333,44.5 7.5,44.5C 7.77398,42.0194 9.10731,40.3527 11.5,39.5 Z"/></g>
<g><path style="opacity:1" fill="#c47876" d="M 12.5,40.5 C 12.8333,40.5 13.1667,40.5 13.5,40.5C 13.1667,41.1667 12.8333,41.8333 12.5,42.5C 11.1667,43.1667 10.1667,44.1667 9.5,45.5C 9.16667,45.5 8.83333,45.5 8.5,45.5C 8.5,45.1667 8.5,44.8333 8.5,44.5C 9.5,42.8333 10.8333,41.5 12.5,40.5 Z"/></g>
<g><path style="opacity:1" fill="#df735e" d="M 16.5,37.5 C 16.7496,38.9221 17.583,39.9221 19,40.5C 18.8743,44.4618 20.2076,47.7952 23,50.5C 23.7175,49.5494 24.5509,49.3828 25.5,50C 27.3333,52.5 29.1667,55 31,57.5C 31.3333,57.1667 31.6667,56.8333 32,56.5C 33.129,58.1412 34.629,59.1412 36.5,59.5C 35.8902,60.391 35.5569,61.391 35.5,62.5C 30.365,63.5738 26.5317,61.9072 24,57.5C 19.6541,54.9018 15.3208,51.5684 11,47.5C 11.1343,45.8107 11.6343,44.144 12.5,42.5C 12.8333,41.8333 13.1667,41.1667 13.5,40.5C 14.1667,39.1667 15.1667,38.1667 16.5,37.5 Z"/></g>
<g><path style="opacity:1" fill="#dc6d6f" d="M 8.5,45.5 C 8.83333,45.5 9.16667,45.5 9.5,45.5C 12.5194,53.5267 17.8528,59.5267 25.5,63.5C 23.9069,64.3479 22.7403,65.6813 22,67.5C 20.581,65.6641 19.4143,63.6641 18.5,61.5C 15.698,60.288 13.198,58.6213 11,56.5C 9.49774,53.9816 7.99774,51.4816 6.5,49C 7.82277,48.1841 8.48944,47.0174 8.5,45.5 Z"/></g>
<g><path style="opacity:1" fill="#a18094" d="M 7.5,44.5 C 7.83333,44.5 8.16667,44.5 8.5,44.5C 8.5,44.8333 8.5,45.1667 8.5,45.5C 6.13942,47.1939 4.13942,49.1939 2.5,51.5C 2.16667,51.5 1.83333,51.5 1.5,51.5C 2.60048,50.3951 3.26714,49.0618 3.5,47.5C 4.83333,46.5 6.16667,45.5 7.5,44.5 Z"/></g>
<g><path style="opacity:1" fill="#5681aa" d="M 3.5,47.5 C 3.26714,49.0618 2.60048,50.3951 1.5,51.5C 0.833333,51.5 0.166667,51.5 -0.5,51.5C -0.5,50.8333 -0.5,50.1667 -0.5,49.5C 0.833333,48.8333 2.16667,48.1667 3.5,47.5 Z"/></g>
<g><path style="opacity:0.984" fill="#be7a72" d="M 51.5,48.5 C 51.5,48.8333 51.5,49.1667 51.5,49.5C 49.9731,49.427 48.9731,50.0937 48.5,51.5C 48.1667,51.5 47.8333,51.5 47.5,51.5C 47.5,51.1667 47.5,50.8333 47.5,50.5C 48.287,48.8958 49.6203,48.2291 51.5,48.5 Z"/></g>
<g><path style="opacity:0.992" fill="#9d71aa" d="M 51.5,49.5 C 51.5,49.8333 51.5,50.1667 51.5,50.5C 50.609,51.1098 49.609,51.4431 48.5,51.5C 48.9731,50.0937 49.9731,49.427 51.5,49.5 Z"/></g>
<g><path style="opacity:1" fill="#dc6f68" d="M 12.5,42.5 C 11.6343,44.144 11.1343,45.8107 11,47.5C 15.3208,51.5684 19.6541,54.9018 24,57.5C 26.5317,61.9072 30.365,63.5738 35.5,62.5C 35.5,62.8333 35.5,63.1667 35.5,63.5C 33.2459,64.4151 31.2459,65.7484 29.5,67.5C 28.8333,67.5 28.1667,67.5 27.5,67.5C 25.8958,66.713 25.2291,65.3797 25.5,63.5C 17.8528,59.5267 12.5194,53.5267 9.5,45.5C 10.1667,44.1667 11.1667,43.1667 12.5,42.5 Z"/></g>
<g><path style="opacity:1" fill="#946faa" d="M 47.5,51.5 C 47.8333,51.5 48.1667,51.5 48.5,51.5C 47.9744,53.2303 46.9744,54.5637 45.5,55.5C 44.8333,55.8333 44.1667,56.1667 43.5,56.5C 44.2112,54.9699 45.2112,53.6366 46.5,52.5C 46.5,51.8333 46.8333,51.5 47.5,51.5 Z"/></g>
<g><path style="opacity:1" fill="#e37753" d="M 16.5,36.5 C 17.1667,36.5 17.8333,36.5 18.5,36.5C 21.2311,39.6343 22.5645,43.301 22.5,47.5C 26.4925,47.2447 29.3258,48.9114 31,52.5C 31.6667,51.1667 32.3333,51.1667 33,52.5C 33.3333,53.5 33.6667,54.5 34,55.5C 36.0263,55.0853 37.5263,54.0853 38.5,52.5C 40.4147,52.7845 42.0813,52.4511 43.5,51.5C 44.7079,50.7659 46.0413,50.4326 47.5,50.5C 47.5,50.8333 47.5,51.1667 47.5,51.5C 46.8333,51.5 46.5,51.8333 46.5,52.5C 45.4168,52.5394 44.4168,52.8728 43.5,53.5C 41.4689,55.3101 39.8022,57.3101 38.5,59.5C 37.8333,59.5 37.1667,59.5 36.5,59.5C 34.629,59.1412 33.129,58.1412 32,56.5C 31.6667,56.8333 31.3333,57.1667 31,57.5C 29.1667,55 27.3333,52.5 25.5,50C 24.5509,49.3828 23.7175,49.5494 23,50.5C 20.2076,47.7952 18.8743,44.4618 19,40.5C 17.583,39.9221 16.7496,38.9221 16.5,37.5C 16.5,37.1667 16.5,36.8333 16.5,36.5 Z"/></g>
<g><path style="opacity:1" fill="#c57981" d="M 46.5,52.5 C 45.2112,53.6366 44.2112,54.9699 43.5,56.5C 41.6675,57.2485 40.0009,58.2485 38.5,59.5C 39.8022,57.3101 41.4689,55.3101 43.5,53.5C 44.4168,52.8728 45.4168,52.5394 46.5,52.5 Z"/></g>
<g><path style="opacity:1" fill="#7671e2" d="M 45.5,55.5 C 46.8333,58.1667 46.8333,60.8333 45.5,63.5C 50.4247,63.4073 53.7581,65.7406 55.5,70.5C 58.1636,71.4978 60.497,72.9978 62.5,75C 62.1667,75.3333 61.8333,75.6667 61.5,76C 67.917,80.9115 73.917,86.4115 79.5,92.5C 83.0117,93.5297 86.6784,93.5297 90.5,92.5C 90.5,91.5 90.5,90.5 90.5,89.5C 93.5,92.1667 96.5,94.8333 99.5,97.5C 99.5,98.1667 99.5,98.8333 99.5,99.5C 92.8333,99.5 86.1667,99.5 79.5,99.5C 79.5,98.1667 79.5,96.8333 79.5,95.5C 76.5,95.8333 75.1667,94.5 75.5,91.5C 74.448,91.6495 73.448,91.4828 72.5,91C 71.6667,88.8333 70.1667,87.3333 68,86.5C 67.5172,85.552 67.3505,84.552 67.5,83.5C 66.448,83.6495 65.448,83.4828 64.5,83C 63.6667,80.8333 62.1667,79.3333 60,78.5C 59.5172,77.552 59.3505,76.552 59.5,75.5C 58.448,75.6495 57.448,75.4828 56.5,75C 54.5,72.3333 52.5,69.6667 50.5,67C 48.3225,65.7978 45.9892,65.2978 43.5,65.5C 43.5,63.1667 43.5,60.8333 43.5,58.5C 43.5,57.8333 43.5,57.1667 43.5,56.5C 44.1667,56.1667 44.8333,55.8333 45.5,55.5 Z"/></g>
<g><path style="opacity:1" fill="#6d73e1" d="M 43.5,58.5 C 43.5,60.8333 43.5,63.1667 43.5,65.5C 45.9892,65.2978 48.3225,65.7978 50.5,67C 52.5,69.6667 54.5,72.3333 56.5,75C 57.448,75.4828 58.448,75.6495 59.5,75.5C 59.3505,76.552 59.5172,77.552 60,78.5C 62.1667,79.3333 63.6667,80.8333 64.5,83C 65.448,83.4828 66.448,83.6495 67.5,83.5C 67.3505,84.552 67.5172,85.552 68,86.5C 70.1667,87.3333 71.6667,88.8333 72.5,91C 73.448,91.4828 74.448,91.6495 75.5,91.5C 75.1667,94.5 76.5,95.8333 79.5,95.5C 79.5,96.8333 79.5,98.1667 79.5,99.5C 78.1667,99.5 76.8333,99.5 75.5,99.5C 69.0642,90.219 61.2308,81.8856 52,74.5C 50.3009,68.6306 46.4676,66.2973 40.5,67.5C 39.7659,66.2921 39.4326,64.9587 39.5,63.5C 40.1098,62.609 40.4431,61.609 40.5,60.5C 40.9731,59.0937 41.9731,58.427 43.5,58.5 Z"/></g>
<g><path style="opacity:0.82" fill="#7f6eec" d="M 57.5,56.5 C 59.5,57.8333 61.1667,59.5 62.5,61.5C 62.3893,62.1174 62.056,62.6174 61.5,63C 59.5273,63.4955 57.5273,63.6621 55.5,63.5C 56.1383,61.54 56.1383,59.7067 55.5,58C 56.0442,57.2828 56.7109,56.7828 57.5,56.5 Z"/></g>
<g><path style="opacity:1" fill="#c47979" d="M 36.5,59.5 C 37.1667,59.5 37.8333,59.5 38.5,59.5C 37.8333,60.8333 36.8333,61.8333 35.5,62.5C 35.5569,61.391 35.8902,60.391 36.5,59.5 Z"/></g>
<g><path style="opacity:1" fill="#9772a2" d="M 43.5,56.5 C 43.5,57.1667 43.5,57.8333 43.5,58.5C 41.9731,58.427 40.9731,59.0937 40.5,60.5C 38.8333,61.8333 37.1667,63.1667 35.5,64.5C 35.5,64.1667 35.5,63.8333 35.5,63.5C 35.5,63.1667 35.5,62.8333 35.5,62.5C 36.8333,61.8333 37.8333,60.8333 38.5,59.5C 40.0009,58.2485 41.6675,57.2485 43.5,56.5 Z"/></g>
<g><path style="opacity:1" fill="#d06393" d="M -0.5,61.5 C 1.906,64.2561 4.23933,67.2561 6.5,70.5C 7.16667,69.8333 7.83333,69.1667 8.5,68.5C 10.7558,72.0831 12.9225,75.7498 15,79.5C 15.2355,77.8807 16.0689,76.8807 17.5,76.5C 18.4916,76.6716 19.1583,76.3382 19.5,75.5C 19.8333,75.5 20.1667,75.5 20.5,75.5C 21.1667,75.5 21.8333,75.5 22.5,75.5C 22.1667,76.1667 21.8333,76.8333 21.5,77.5C 18.3189,78.3485 15.6523,80.0152 13.5,82.5C 13.7373,81.209 13.404,80.209 12.5,79.5C 8.19475,74.8594 3.86142,70.1927 -0.5,65.5C -0.5,64.1667 -0.5,62.8333 -0.5,61.5 Z"/></g>
<g><path style="opacity:1" fill="#d56688" d="M -0.5,51.5 C 0.166667,51.5 0.833333,51.5 1.5,51.5C 1.83333,51.5 2.16667,51.5 2.5,51.5C 2.32842,52.4916 2.66175,53.1583 3.5,53.5C 2.97169,54.8474 2.80503,56.1807 3,57.5C 9.6879,62.6475 15.1879,68.6475 19.5,75.5C 19.1583,76.3382 18.4916,76.6716 17.5,76.5C 17.5599,72.6727 16.3932,72.006 14,74.5C 13.2385,70.6355 11.2385,67.6355 8,65.5C 7.58605,65.9574 7.08605,66.2907 6.5,66.5C 5.4032,64.771 4.23653,63.1044 3,61.5C 2.18405,60.1772 1.01739,59.5106 -0.5,59.5C -0.5,56.8333 -0.5,54.1667 -0.5,51.5 Z"/></g>
<g><path style="opacity:1" fill="#d86881" d="M 3.5,53.5 C 5.04814,53.8212 5.71481,54.8212 5.5,56.5C 8.6136,57.0913 11.1136,58.758 13,61.5C 14.7495,65.1183 16.9162,68.4516 19.5,71.5C 19.8333,72.8333 20.1667,74.1667 20.5,75.5C 20.1667,75.5 19.8333,75.5 19.5,75.5C 15.1879,68.6475 9.6879,62.6475 3,57.5C 2.80503,56.1807 2.97169,54.8474 3.5,53.5 Z"/></g>
<g><path style="opacity:1" fill="#d96b78" d="M 8.5,45.5 C 8.48944,47.0174 7.82277,48.1841 6.5,49C 7.99774,51.4816 9.49774,53.9816 11,56.5C 13.198,58.6213 15.698,60.288 18.5,61.5C 19.4143,63.6641 20.581,65.6641 22,67.5C 22.7403,65.6813 23.9069,64.3479 25.5,63.5C 25.2291,65.3797 25.8958,66.713 27.5,67.5C 26.1497,71.0951 23.483,72.4285 19.5,71.5C 16.9162,68.4516 14.7495,65.1183 13,61.5C 11.1136,58.758 8.6136,57.0913 5.5,56.5C 5.71481,54.8212 5.04814,53.8212 3.5,53.5C 2.66175,53.1583 2.32842,52.4916 2.5,51.5C 4.13942,49.1939 6.13942,47.1939 8.5,45.5 Z"/></g>
<g><path style="opacity:1" fill="#7c6fe4" d="M 51.5,50.5 C 53.8333,52.1667 55.8333,54.1667 57.5,56.5C 56.7109,56.7828 56.0442,57.2828 55.5,58C 56.1383,59.7067 56.1383,61.54 55.5,63.5C 57.5273,63.6621 59.5273,63.4955 61.5,63C 62.056,62.6174 62.3893,62.1174 62.5,61.5C 72.1937,70.5271 81.5271,79.8604 90.5,89.5C 90.5,90.5 90.5,91.5 90.5,92.5C 86.6784,93.5297 83.0117,93.5297 79.5,92.5C 73.917,86.4115 67.917,80.9115 61.5,76C 61.8333,75.6667 62.1667,75.3333 62.5,75C 60.497,72.9978 58.1636,71.4978 55.5,70.5C 53.7581,65.7406 50.4247,63.4073 45.5,63.5C 46.8333,60.8333 46.8333,58.1667 45.5,55.5C 46.9744,54.5637 47.9744,53.2303 48.5,51.5C 49.609,51.4431 50.609,51.1098 51.5,50.5 Z"/></g>
<g><path style="opacity:0.992" fill="#ac749b" d="M 35.5,63.5 C 35.5,63.8333 35.5,64.1667 35.5,64.5C 34.1667,65.1667 33.1667,66.1667 32.5,67.5C 31.1667,68.5 29.8333,69.5 28.5,70.5C 28.5569,69.391 28.8902,68.391 29.5,67.5C 31.2459,65.7484 33.2459,64.4151 35.5,63.5 Z"/></g>
<g><path style="opacity:1" fill="#d15f99" d="M -0.5,65.5 C 3.86142,70.1927 8.19475,74.8594 12.5,79.5C 10.0401,79.3015 7.70674,78.6348 5.5,77.5C 4.38621,74.1271 2.38621,71.4605 -0.5,69.5C -0.5,68.1667 -0.5,66.8333 -0.5,65.5 Z"/></g>
<g><path style="opacity:1" fill="#d5638d" d="M -0.5,59.5 C 1.01739,59.5106 2.18405,60.1772 3,61.5C 4.23653,63.1044 5.4032,64.771 6.5,66.5C 7.08605,66.2907 7.58605,65.9574 8,65.5C 11.2385,67.6355 13.2385,70.6355 14,74.5C 16.3932,72.006 17.5599,72.6727 17.5,76.5C 16.0689,76.8807 15.2355,77.8807 15,79.5C 12.9225,75.7498 10.7558,72.0831 8.5,68.5C 7.83333,69.1667 7.16667,69.8333 6.5,70.5C 4.23933,67.2561 1.906,64.2561 -0.5,61.5C -0.5,60.8333 -0.5,60.1667 -0.5,59.5 Z"/></g>
<g><path style="opacity:1" fill="#6378d1" d="M 40.5,60.5 C 40.4431,61.609 40.1098,62.609 39.5,63.5C 38.7109,63.7828 38.0442,64.2828 37.5,65C 39.8858,67.4894 39.8858,69.6561 37.5,71.5C 37.5,70.5 37.5,69.5 37.5,68.5C 36.1667,68.5 34.8333,68.5 33.5,68.5C 32.3608,71.0037 31.6941,73.6703 31.5,76.5C 29.4986,76.1166 27.1652,75.7833 24.5,75.5C 26.2528,73.7775 28.2528,72.2775 30.5,71C 31.8228,70.1841 32.4894,69.0174 32.5,67.5C 33.1667,66.1667 34.1667,65.1667 35.5,64.5C 37.1667,63.1667 38.8333,61.8333 40.5,60.5 Z"/></g>
<g><path style="opacity:1" fill="#ca6f89" d="M 27.5,67.5 C 28.1667,67.5 28.8333,67.5 29.5,67.5C 28.8902,68.391 28.5569,69.391 28.5,70.5C 26.0887,71.517 24.422,73.1837 23.5,75.5C 23.1667,75.5 22.8333,75.5 22.5,75.5C 21.8333,75.5 21.1667,75.5 20.5,75.5C 20.1667,74.1667 19.8333,72.8333 19.5,71.5C 23.483,72.4285 26.1497,71.0951 27.5,67.5 Z"/></g>
<g><path style="opacity:1" fill="#8272b4" d="M 32.5,67.5 C 32.4894,69.0174 31.8228,70.1841 30.5,71C 28.2528,72.2775 26.2528,73.7775 24.5,75.5C 24.1667,75.5 23.8333,75.5 23.5,75.5C 24.422,73.1837 26.0887,71.517 28.5,70.5C 29.8333,69.5 31.1667,68.5 32.5,67.5 Z"/></g>
<g><path style="opacity:1" fill="#c95cad" d="M -0.5,74.5 C 0.92654,76.1484 1.75987,78.1484 2,80.5C 4.16933,84.1905 7.336,85.8571 11.5,85.5C 11.5,85.8333 11.5,86.1667 11.5,86.5C 10.8333,86.5 10.5,86.8333 10.5,87.5C 9.39105,87.5569 8.39105,87.8902 7.5,88.5C 4.28552,88.05 1.61885,86.7166 -0.5,84.5C -0.5,81.1667 -0.5,77.8333 -0.5,74.5 Z"/></g>
<g><path style="opacity:1" fill="#cd5fa1" d="M -0.5,69.5 C 2.38621,71.4605 4.38621,74.1271 5.5,77.5C 7.70674,78.6348 10.0401,79.3015 12.5,79.5C 13.404,80.209 13.7373,81.209 13.5,82.5C 12.8333,83.5 12.1667,84.5 11.5,85.5C 7.336,85.8571 4.16933,84.1905 2,80.5C 1.75987,78.1484 0.92654,76.1484 -0.5,74.5C -0.5,72.8333 -0.5,71.1667 -0.5,69.5 Z"/></g>
<g><path style="opacity:1" fill="#457fdc" d="M 24.5,75.5 C 27.1652,75.7833 29.4986,76.1166 31.5,76.5C 34.6352,76.5482 36.3019,78.2148 36.5,81.5C 38.2104,82.6873 39.7104,82.354 41,80.5C 43.3413,81.0069 43.8413,82.1735 42.5,84C 45.3455,85.3996 45.6789,86.8996 43.5,88.5C 45.522,91.3557 48.022,93.689 51,95.5C 51.49,96.7932 51.6567,98.1266 51.5,99.5C 49.8333,99.5 48.1667,99.5 46.5,99.5C 45.0167,95.0057 42.0167,91.6724 37.5,89.5C 36.316,87.9539 35.316,86.2873 34.5,84.5C 28.8969,84.4881 25.5636,81.4881 24.5,75.5 Z"/></g>
<g><path style="opacity:1" fill="#5c78df" d="M 39.5,63.5 C 39.4326,64.9587 39.7659,66.2921 40.5,67.5C 40.5,68.5 40.5,69.5 40.5,70.5C 42.8333,70.5 45.1667,70.5 47.5,70.5C 48.0837,75.287 50.5837,78.9537 55,81.5C 58.2362,86.1469 62.2362,90.1469 67,93.5C 67.4955,95.4727 67.6621,97.4727 67.5,99.5C 65.5,99.5 63.5,99.5 61.5,99.5C 61.6495,98.448 61.4828,97.448 61,96.5C 58.8333,95.6667 57.3333,94.1667 56.5,92C 54.7444,91.7978 53.0777,91.2978 51.5,90.5C 50.1871,87.7523 49.1871,84.919 48.5,82C 43.406,80.9381 39.2394,78.4381 36,74.5C 35.3333,73.5 35.3333,72.5 36,71.5C 36.69,72.7383 37.19,72.7383 37.5,71.5C 39.8858,69.6561 39.8858,67.4894 37.5,65C 38.0442,64.2828 38.7109,63.7828 39.5,63.5 Z"/></g>
<g><path style="opacity:1" fill="#517bdd" d="M 37.5,71.5 C 37.19,72.7383 36.69,72.7383 36,71.5C 35.3333,72.5 35.3333,73.5 36,74.5C 39.2394,78.4381 43.406,80.9381 48.5,82C 49.1871,84.919 50.1871,87.7523 51.5,90.5C 53.0777,91.2978 54.7444,91.7978 56.5,92C 57.3333,94.1667 58.8333,95.6667 61,96.5C 61.4828,97.448 61.6495,98.448 61.5,99.5C 58.1667,99.5 54.8333,99.5 51.5,99.5C 51.6567,98.1266 51.49,96.7932 51,95.5C 48.022,93.689 45.522,91.3557 43.5,88.5C 45.6789,86.8996 45.3455,85.3996 42.5,84C 43.8413,82.1735 43.3413,81.0069 41,80.5C 39.7104,82.354 38.2104,82.6873 36.5,81.5C 36.3019,78.2148 34.6352,76.5482 31.5,76.5C 31.6941,73.6703 32.3608,71.0037 33.5,68.5C 34.8333,68.5 36.1667,68.5 37.5,68.5C 37.5,69.5 37.5,70.5 37.5,71.5 Z"/></g>
<g><path style="opacity:1" fill="#6478c2" d="M 22.5,75.5 C 22.8333,75.5 23.1667,75.5 23.5,75.5C 23.3426,78.3176 22.0092,80.3176 19.5,81.5C 17.8333,82.5 16.5,83.8333 15.5,85.5C 14.5,85.8333 13.8333,86.5 13.5,87.5C 10.5211,89.8123 7.8544,92.4789 5.5,95.5C 3.5,96.5 1.5,97.5 -0.5,98.5C -0.5,97.8333 -0.5,97.1667 -0.5,96.5C 1.06181,96.2671 2.39514,95.6005 3.5,94.5C 6.02701,92.3946 8.36035,90.0613 10.5,87.5C 10.5,86.8333 10.8333,86.5 11.5,86.5C 14.859,83.4715 18.1924,80.4715 21.5,77.5C 21.8333,76.8333 22.1667,76.1667 22.5,75.5 Z"/></g>
<g><path style="opacity:1" fill="#3a82db" d="M 23.5,75.5 C 23.8333,75.5 24.1667,75.5 24.5,75.5C 25.5636,81.4881 28.8969,84.4881 34.5,84.5C 35.316,86.2873 36.316,87.9539 37.5,89.5C 42.0167,91.6724 45.0167,95.0057 46.5,99.5C 44.1667,99.5 41.8333,99.5 39.5,99.5C 39.5,98.1667 39.5,96.8333 39.5,95.5C 32.9901,94.1499 28.1568,90.4832 25,84.5C 23.3005,85.4061 21.4672,85.7394 19.5,85.5C 19.5,84.1667 19.5,82.8333 19.5,81.5C 22.0092,80.3176 23.3426,78.3176 23.5,75.5 Z"/></g>
<g><path style="opacity:1" fill="#6676e1" d="M 40.5,67.5 C 46.4676,66.2973 50.3009,68.6306 52,74.5C 61.2308,81.8856 69.0642,90.219 75.5,99.5C 72.8333,99.5 70.1667,99.5 67.5,99.5C 67.6621,97.4727 67.4955,95.4727 67,93.5C 62.2362,90.1469 58.2362,86.1469 55,81.5C 50.5837,78.9537 48.0837,75.287 47.5,70.5C 45.1667,70.5 42.8333,70.5 40.5,70.5C 40.5,69.5 40.5,68.5 40.5,67.5 Z"/></g>
<g><path style="opacity:1" fill="#a770ae" d="M 21.5,77.5 C 18.1924,80.4715 14.859,83.4715 11.5,86.5C 11.5,86.1667 11.5,85.8333 11.5,85.5C 12.1667,84.5 12.8333,83.5 13.5,82.5C 15.6523,80.0152 18.3189,78.3485 21.5,77.5 Z"/></g>
<g><path style="opacity:1" fill="#c35aba" d="M -0.5,84.5 C 1.61885,86.7166 4.28552,88.05 7.5,88.5C 6.68512,89.8366 5.51845,90.8366 4,91.5C 3.51722,92.448 3.35055,93.448 3.5,94.5C 2.39514,95.6005 1.06181,96.2671 -0.5,96.5C -0.5,92.5 -0.5,88.5 -0.5,84.5 Z"/></g>
<g><path style="opacity:1" fill="#2b88da" d="M 19.5,81.5 C 19.5,82.8333 19.5,84.1667 19.5,85.5C 21.4672,85.7394 23.3005,85.4061 25,84.5C 28.1568,90.4832 32.9901,94.1499 39.5,95.5C 39.5,96.8333 39.5,98.1667 39.5,99.5C 35.5,99.5 31.5,99.5 27.5,99.5C 27.6633,97.1432 27.4966,94.8098 27,92.5C 23.5928,91.8029 22.4262,89.9696 23.5,87C 21.9651,86.5038 20.4651,86.6705 19,87.5C 17.9231,86.5705 16.7564,85.9038 15.5,85.5C 16.5,83.8333 17.8333,82.5 19.5,81.5 Z"/></g>
<g><path style="opacity:1" fill="#1e8cd8" d="M 15.5,85.5 C 16.7564,85.9038 17.9231,86.5705 19,87.5C 20.4651,86.6705 21.9651,86.5038 23.5,87C 22.4262,89.9696 23.5928,91.8029 27,92.5C 27.4966,94.8098 27.6633,97.1432 27.5,99.5C 24.8333,99.5 22.1667,99.5 19.5,99.5C 19.6633,97.1432 19.4966,94.8098 19,92.5C 17.1562,90.6924 15.3228,89.0257 13.5,87.5C 13.8333,86.5 14.5,85.8333 15.5,85.5 Z"/></g>
<g><path style="opacity:1" fill="#9d6bc5" d="M 10.5,87.5 C 8.36035,90.0613 6.02701,92.3946 3.5,94.5C 3.35055,93.448 3.51722,92.448 4,91.5C 5.51845,90.8366 6.68512,89.8366 7.5,88.5C 8.39105,87.8902 9.39105,87.5569 10.5,87.5 Z"/></g>
<g><path style="opacity:1" fill="#0d91d3" d="M 13.5,87.5 C 15.3228,89.0257 17.1562,90.6924 19,92.5C 19.4966,94.8098 19.6633,97.1432 19.5,99.5C 13.8333,99.5 8.16667,99.5 2.5,99.5C 3.5,98.1667 4.5,96.8333 5.5,95.5C 7.8544,92.4789 10.5211,89.8123 13.5,87.5 Z"/></g>
<g><path style="opacity:1" fill="#3880ca" d="M 5.5,95.5 C 4.5,96.8333 3.5,98.1667 2.5,99.5C 1.5,99.5 0.5,99.5 -0.5,99.5C -0.5,99.1667 -0.5,98.8333 -0.5,98.5C 1.5,97.5 3.5,96.5 5.5,95.5 Z"/></g>
</svg>
