<?xml version="1.0" encoding="UTF-8"?>
<!DOCTYPE svg PUBLIC "-//W3C//DTD SVG 1.1//EN" "http://www.w3.org/Graphics/SVG/1.1/DTD/svg11.dtd">
<svg xmlns="http://www.w3.org/2000/svg" version="1.1" width="100px" height="100px" style="shape-rendering:geometricPrecision; text-rendering:geometricPrecision; image-rendering:optimizeQuality; fill-rule:evenodd; clip-rule:evenodd" xmlns:xlink="http://www.w3.org/1999/xlink">
<g><path style="opacity:0.825" fill="#fb2d1c" d="M 17.5,-0.5 C 19.5,-0.5 21.5,-0.5 23.5,-0.5C 25.4632,0.820176 27.4632,2.15351 29.5,3.5C 28.4479,5.25605 26.7812,5.92271 24.5,5.5C 21.4862,3.43043 18.4862,3.76377 15.5,6.5C 15.5,4.83333 15.5,3.16667 15.5,1.5C 16.5,1.16667 17.1667,0.5 17.5,-0.5 Z"/></g>
<g><path style="opacity:0.772" fill="#f12f27" d="M 29.5,3.5 C 31.3684,4.26315 33.0351,5.26315 34.5,6.5C 32.8235,7.18342 32.1568,8.51676 32.5,10.5C 29.5634,9.19671 26.8968,7.53004 24.5,5.5C 26.7812,5.92271 28.4479,5.25605 29.5,3.5 Z"/></g>
<g><path style="opacity:0.953" fill="#f43124" d="M 15.5,1.5 C 15.5,3.16667 15.5,4.83333 15.5,6.5C 13.5,7.83333 11.5,9.16667 9.5,10.5C 9.71901,9.32496 9.38568,8.32496 8.5,7.5C 7.26381,8.24585 5.93047,8.57918 4.5,8.5C 7.96104,5.93076 11.6277,3.59743 15.5,1.5 Z"/></g>
<g><path style="opacity:0.992" fill="#ea3624" d="M 38.5,8.5 C 40.2624,9.26231 41.2624,10.5956 41.5,12.5C 39.4677,11.9522 38.4677,10.6188 38.5,8.5 Z"/></g>
<g><path style="opacity:0.877" fill="#f82f1e" d="M 85.5,14.5 C 84.8166,16.1765 83.4832,16.8432 81.5,16.5C 79.9505,15.5592 78.2838,14.8925 76.5,14.5C 75.7611,14.631 75.0944,14.4643 74.5,14C 75.1712,13.0138 75.1712,11.8471 74.5,10.5C 75.7382,9.58761 77.0715,9.42094 78.5,10C 80.9929,11.4186 83.3263,12.9186 85.5,14.5 Z"/></g>
<g><path style="opacity:0.829" fill="#fd2b1e" d="M 34.5,6.5 C 36.0618,6.73286 37.3951,7.39952 38.5,8.5C 38.4677,10.6188 39.4677,11.9522 41.5,12.5C 41.5,25.1667 41.5,37.8333 41.5,50.5C 39.6863,40.5486 38.8529,30.2152 39,19.5C 38.7216,18.5842 38.2216,17.9175 37.5,17.5C 37.6716,16.5084 37.3382,15.8417 36.5,15.5C 36.7709,13.6203 36.1042,12.287 34.5,11.5C 33.8333,11.1667 33.1667,10.8333 32.5,10.5C 32.1568,8.51676 32.8235,7.18342 34.5,6.5 Z"/></g>
<g><path style="opacity:0.921" fill="#f23121" d="M 74.5,10.5 C 75.1712,11.8471 75.1712,13.0138 74.5,14C 75.0944,14.4643 75.7611,14.631 76.5,14.5C 74.3649,16.0709 72.0316,17.4043 69.5,18.5C 67.302,18.8799 65.6354,18.2132 64.5,16.5C 67.7651,14.5279 71.0985,12.5279 74.5,10.5 Z"/></g>
<g><path style="opacity:1" fill="#f22f28" d="M 85.5,14.5 C 88.3311,15.0787 90.6644,16.412 92.5,18.5C 90.5168,18.1568 89.1834,18.8235 88.5,20.5C 85.9684,19.4043 83.6351,18.0709 81.5,16.5C 83.4832,16.8432 84.8166,16.1765 85.5,14.5 Z"/></g>
<g><path style="opacity:1" fill="#f43528" d="M 13.5,15.5 C 14.8717,16.5116 16.205,17.5116 17.5,18.5C 16.5,18.5 15.5,18.5 14.5,18.5C 14.5,19.5 14.5,20.5 14.5,21.5C 12.6316,20.7368 10.9649,19.7368 9.5,18.5C 10.8333,18.5 12.1667,18.5 13.5,18.5C 13.5,17.5 13.5,16.5 13.5,15.5 Z"/></g>
<g><path style="opacity:0.984" fill="#f33028" d="M 64.5,16.5 C 65.6354,18.2132 67.302,18.8799 69.5,18.5C 67.5654,19.81 65.5654,21.1433 63.5,22.5C 65.5654,23.8567 67.5654,25.19 69.5,26.5C 64.7823,26.3099 61.1156,24.3099 58.5,20.5C 60.2048,18.8079 62.2048,17.4746 64.5,16.5 Z"/></g>
<g><path style="opacity:0.608" fill="#f43426" d="M 34.5,11.5 C 36.1042,12.287 36.7709,13.6203 36.5,15.5C 32.8224,18.7659 28.6557,21.4326 24,23.5C 23.5001,35.4954 23.3335,47.4954 23.5,59.5C 22.5076,51.6841 22.1743,43.6841 22.5,35.5C 22.6657,31.1539 22.499,26.8206 22,22.5C 21.2514,25.5026 20.0848,28.1693 18.5,30.5C 19.5071,26.2205 18.1737,23.2205 14.5,21.5C 14.5,20.5 14.5,19.5 14.5,18.5C 15.5,18.5 16.5,18.5 17.5,18.5C 19.0683,19.4731 20.735,19.6397 22.5,19C 26.7324,16.7254 30.7324,14.2254 34.5,11.5 Z"/></g>
<g><path style="opacity:0.72" fill="#fd2a1d" d="M 9.5,10.5 C 8.52656,10.9867 7.52656,11.4867 6.5,12C 8.85989,13.1799 11.1932,14.3466 13.5,15.5C 13.5,16.5 13.5,17.5 13.5,18.5C 12.1667,18.5 10.8333,18.5 9.5,18.5C 8.19322,17.8466 6.85989,17.1799 5.5,16.5C 4.16667,36.1667 4.16667,55.8333 5.5,75.5C 6.5223,75.8555 7.18897,76.5222 7.5,77.5C 7.71481,79.1788 7.04814,80.1788 5.5,80.5C 4.19322,79.8466 2.85989,79.1799 1.5,78.5C 0.166667,55.5 0.166667,32.5 1.5,9.5C 2.41683,8.87277 3.41683,8.53944 4.5,8.5C 5.93047,8.57918 7.26381,8.24585 8.5,7.5C 9.38568,8.32496 9.71901,9.32496 9.5,10.5 Z"/></g>
<g><path style="opacity:0.8" fill="#fb2e1e" d="M 92.5,18.5 C 94.679,18.84 96.5123,19.84 98,21.5C 98.4997,29.1594 98.6664,36.8261 98.5,44.5C 97.2921,43.7659 95.9587,43.4326 94.5,43.5C 94.8222,37.642 94.4889,31.9753 93.5,26.5C 93.1667,26.5 92.8333,26.5 92.5,26.5C 90.2646,26.7947 88.2646,26.4614 86.5,25.5C 88.0423,24.8592 89.3757,23.8592 90.5,22.5C 89.7573,21.8182 89.0906,21.1515 88.5,20.5C 89.1834,18.8235 90.5168,18.1568 92.5,18.5 Z"/></g>
<g><path style="opacity:0.971" fill="#ee3424" d="M 86.5,25.5 C 88.2646,26.4614 90.2646,26.7947 92.5,26.5C 89.039,29.0692 85.3723,31.4026 81.5,33.5C 81.4802,31.857 82.1468,30.5237 83.5,29.5C 83.0431,28.7025 82.3764,28.3691 81.5,28.5C 82.9649,27.2632 84.6316,26.2632 86.5,25.5 Z"/></g>
<g><path style="opacity:0.752" fill="#fc2d1d" d="M 22.5,35.5 C 21.8207,44.2349 21.154,53.0682 20.5,62C 26.0623,67.2616 25.3956,68.4283 18.5,65.5C 18.5,53.8333 18.5,42.1667 18.5,30.5C 20.0848,28.1693 21.2514,25.5026 22,22.5C 22.499,26.8206 22.6657,31.1539 22.5,35.5 Z"/></g>
<g><path style="opacity:0.851" fill="#f72e20" d="M 58.5,20.5 C 61.1156,24.3099 64.7823,26.3099 69.5,26.5C 72.0682,27.7008 74.5682,29.0342 77,30.5C 78.585,29.9561 80.085,29.2894 81.5,28.5C 82.3764,28.3691 83.0431,28.7025 83.5,29.5C 82.1468,30.5237 81.4802,31.857 81.5,33.5C 80.8826,33.6107 80.3826,33.944 80,34.5C 79.1705,39.8643 79.3372,45.1977 80.5,50.5C 84.7337,47.924 88.9004,45.2574 93,42.5C 93.4994,37.1771 93.666,31.8437 93.5,26.5C 94.4889,31.9753 94.8222,37.642 94.5,43.5C 95.9587,43.4326 97.2921,43.7659 98.5,44.5C 92.6656,48.9209 86.3322,52.5876 79.5,55.5C 78.8826,55.6107 78.3826,55.944 78,56.5C 76.4157,55.1387 74.5824,54.472 72.5,54.5C 67.596,52.2658 62.9293,49.5991 58.5,46.5C 59.9303,45.4625 61.597,44.7959 63.5,44.5C 67.0607,46.0478 70.394,48.0478 73.5,50.5C 74.4954,44.8722 74.8288,39.2055 74.5,33.5C 69.7035,31.8509 65.2035,29.5176 61,26.5C 60.5006,31.8229 60.334,37.1563 60.5,42.5C 59.1667,43.8333 57.8333,43.8333 56.5,42.5C 55.8701,34.7572 56.5367,27.4238 58.5,20.5 Z M 92.5,26.5 C 92.8333,26.5 93.1667,26.5 93.5,26.5C 93.666,31.8437 93.4994,37.1771 93,42.5C 88.9004,45.2574 84.7337,47.924 80.5,50.5C 79.3372,45.1977 79.1705,39.8643 80,34.5C 80.3826,33.944 80.8826,33.6107 81.5,33.5C 85.3723,31.4026 89.039,29.0692 92.5,26.5 Z"/></g>
<g><path style="opacity:0.789" fill="#f8302b" d="M 56.5,42.5 C 57.8333,43.8333 59.1667,43.8333 60.5,42.5C 61.7095,42.9321 62.7095,43.5987 63.5,44.5C 61.597,44.7959 59.9303,45.4625 58.5,46.5C 57.5,47.1667 56.5,47.8333 55.5,48.5C 55.5,47.5 55.5,46.5 55.5,45.5C 54.1667,45.5 52.8333,45.5 51.5,45.5C 52.9649,44.2632 54.6316,43.2632 56.5,42.5 Z"/></g>
<g><path style="opacity:0.992" fill="#fa2d19" d="M 51.5,45.5 C 52.8333,45.5 54.1667,45.5 55.5,45.5C 55.5,46.5 55.5,47.5 55.5,48.5C 52.8333,49.8333 50.1667,51.1667 47.5,52.5C 45.2188,52.9227 43.5521,52.256 42.5,50.5C 45.6612,49.0869 48.6612,47.4203 51.5,45.5 Z"/></g>
<g><path style="opacity:0.914" fill="#ef3325" d="M 37.5,17.5 C 38.2216,17.9175 38.7216,18.5842 39,19.5C 38.8529,30.2152 39.6863,40.5486 41.5,50.5C 41.8333,50.5 42.1667,50.5 42.5,50.5C 43.5521,52.256 45.2188,52.9227 47.5,52.5C 42.0334,56.0706 36.3668,59.4039 30.5,62.5C 30.5674,61.0413 30.2341,59.7079 29.5,58.5C 31.6761,56.4848 34.1761,54.8181 37,53.5C 37.4999,41.5046 37.6665,29.5046 37.5,17.5 Z"/></g>
<g><path style="opacity:1" fill="#e33229" d="M 70.5,56.5 C 69.8166,58.1765 68.4832,58.8432 66.5,58.5C 67.6715,57.6554 69.0048,56.9887 70.5,56.5 Z"/></g>
<g><path style="opacity:0.637" fill="#fe2924" d="M 74.5,59.5 C 75.5,59.5 76.5,59.5 77.5,59.5C 77.5,64.8333 77.5,70.1667 77.5,75.5C 76.5,75.5 75.5,75.5 74.5,75.5C 74.5,70.1667 74.5,64.8333 74.5,59.5 Z"/></g>
<g><path style="opacity:0.884" fill="#fa2c22" d="M 22.5,35.5 C 22.1743,43.6841 22.5076,51.6841 23.5,59.5C 23.369,60.2389 23.5357,60.9056 24,61.5C 25.4877,59.84 27.321,58.84 29.5,58.5C 30.2341,59.7079 30.5674,61.0413 30.5,62.5C 28.8624,63.657 27.1957,64.8236 25.5,66C 27.3197,66.2004 28.653,67.0337 29.5,68.5C 28.8166,70.1765 27.4832,70.8432 25.5,70.5C 22.5314,69.5342 20.198,67.8675 18.5,65.5C 25.3956,68.4283 26.0623,67.2616 20.5,62C 21.154,53.0682 21.8207,44.2349 22.5,35.5 Z"/></g>
<g><path style="opacity:1" fill="#f43122" d="M 72.5,54.5 C 74.5824,54.472 76.4157,55.1387 78,56.5C 78.3826,55.944 78.8826,55.6107 79.5,55.5C 79.6663,62.8409 79.4997,70.1742 79,77.5C 74.0583,80.9716 68.8916,83.9716 63.5,86.5C 62.448,86.6495 61.448,86.4828 60.5,86C 61.6988,84.3057 63.0322,82.8057 64.5,81.5C 67.4937,79.0002 70.827,77.0002 74.5,75.5C 75.5,75.5 76.5,75.5 77.5,75.5C 77.5,70.1667 77.5,64.8333 77.5,59.5C 76.5,59.5 75.5,59.5 74.5,59.5C 67.3377,62.9139 60.3377,66.5806 53.5,70.5C 53.5,69.1667 53.5,67.8333 53.5,66.5C 57.6301,63.5968 61.9634,60.9301 66.5,58.5C 68.4832,58.8432 69.8166,58.1765 70.5,56.5C 71.1667,55.8333 71.8333,55.1667 72.5,54.5 Z"/></g>
<g><path style="opacity:0.827" fill="#ef3225" d="M 53.5,66.5 C 53.5,67.8333 53.5,69.1667 53.5,70.5C 51.2063,72.653 48.5396,74.3197 45.5,75.5C 45.7512,73.8297 46.4178,72.3297 47.5,71C 46.9056,70.5357 46.2389,70.369 45.5,70.5C 47.8485,68.659 50.5152,67.3257 53.5,66.5 Z"/></g>
<g><path style="opacity:0.988" fill="#ef3322" d="M 29.5,68.5 C 32.4366,69.4718 35.1033,70.8052 37.5,72.5C 36.1001,73.0998 35.1001,74.0998 34.5,75.5C 31.331,74.0834 28.331,72.4168 25.5,70.5C 27.4832,70.8432 28.8166,70.1765 29.5,68.5 Z"/></g>
<g><path style="opacity:0.567" fill="#f52f23" d="M 7.5,77.5 C 12.3195,79.0741 16.6528,81.4074 20.5,84.5C 17.7524,84.4017 17.0857,85.4017 18.5,87.5C 13.6805,85.9259 9.34716,83.5926 5.5,80.5C 7.04814,80.1788 7.71481,79.1788 7.5,77.5 Z"/></g>
<g><path style="opacity:0.976" fill="#f13128" d="M 64.5,81.5 C 63.0322,82.8057 61.6988,84.3057 60.5,86C 61.448,86.4828 62.448,86.6495 63.5,86.5C 61.8185,88.0075 59.8185,89.0075 57.5,89.5C 57.2178,88.2223 56.5511,87.2223 55.5,86.5C 58.2622,84.4042 61.2622,82.7375 64.5,81.5 Z"/></g>
<g><path style="opacity:0.995" fill="#f5311e" d="M 55.5,86.5 C 56.5511,87.2223 57.2178,88.2223 57.5,89.5C 56.5637,90.9744 55.2303,91.9744 53.5,92.5C 52.0473,92.0707 50.3806,91.904 48.5,92C 49.2524,91.3292 49.5858,90.4959 49.5,89.5C 51.5168,88.4706 53.5168,87.4706 55.5,86.5 Z"/></g>
<g><path style="opacity:0.895" fill="#f72f21" d="M 45.5,70.5 C 46.2389,70.369 46.9056,70.5357 47.5,71C 46.4178,72.3297 45.7512,73.8297 45.5,75.5C 44.5178,76.1408 43.5178,76.8075 42.5,77.5C 41.1667,82.8333 41.1667,88.1667 42.5,93.5C 43.4168,92.8728 44.4168,92.5394 45.5,92.5C 45.5,93.8333 45.5,95.1667 45.5,96.5C 44.4097,97.8571 43.0764,98.8571 41.5,99.5C 40.1667,99.5 38.8333,99.5 37.5,99.5C 30.9979,95.75 24.6645,91.75 18.5,87.5C 17.0857,85.4017 17.7524,84.4017 20.5,84.5C 25.7788,87.476 31.1121,90.476 36.5,93.5C 37.6628,88.1977 37.8295,82.8643 37,77.5C 36.0053,76.9341 35.172,76.2674 34.5,75.5C 35.1001,74.0998 36.1001,73.0998 37.5,72.5C 40.3155,73.1305 42.9822,72.4638 45.5,70.5 Z"/></g>
<g><path style="opacity:1" fill="#f23429" d="M 49.5,89.5 C 49.5858,90.4959 49.2524,91.3292 48.5,92C 50.3806,91.904 52.0473,92.0707 53.5,92.5C 51.0616,94.2672 48.395,95.6006 45.5,96.5C 45.5,95.1667 45.5,93.8333 45.5,92.5C 46.795,91.5116 48.1283,90.5116 49.5,89.5 Z"/></g>
</svg>
