<?xml version="1.0" encoding="UTF-8"?>
<!DOCTYPE svg PUBLIC "-//W3C//DTD SVG 1.1//EN" "http://www.w3.org/Graphics/SVG/1.1/DTD/svg11.dtd">
<svg xmlns="http://www.w3.org/2000/svg" version="1.1" width="100px" height="100px" style="shape-rendering:geometricPrecision; text-rendering:geometricPrecision; image-rendering:optimizeQuality; fill-rule:evenodd; clip-rule:evenodd" xmlns:xlink="http://www.w3.org/1999/xlink">
<g><path style="opacity:0.956" fill="#0b0909" d="M 57.5,-0.5 C 58.8333,-0.5 60.1667,-0.5 61.5,-0.5C 65.0771,1.85771 66.2437,5.19105 65,9.5C 61.6291,12.7025 58.4625,16.0359 55.5,19.5C 50.226,23.1047 45.5593,27.438 41.5,32.5C 35.5361,38.9648 29.3694,45.2981 23,51.5C 19.6667,56.5 19.6667,61.5 23,66.5C 29.0362,72.3686 34.8695,78.3686 40.5,84.5C 42.885,91.117 40.5516,94.4503 33.5,94.5C 26.2018,87.7026 19.0351,80.7026 12,73.5C 6,63.8333 6,54.1667 12,44.5C 27.0617,29.271 42.2284,14.271 57.5,-0.5 Z"/></g>
<g><path style="opacity:1" fill="#f6a123" d="M 55.5,19.5 C 64.6687,24.1694 71.6687,31.0027 76.5,40C 75.0186,46.2387 71.352,47.9054 65.5,45C 61.527,41.027 57.527,37.027 53.5,33C 49.5719,31.284 45.5719,31.1173 41.5,32.5C 45.5593,27.438 50.226,23.1047 55.5,19.5 Z"/></g>
<g><path style="opacity:0.992" fill="#b3b2b0" d="M 43.5,52.5 C 57.8372,52.3334 72.1705,52.5001 86.5,53C 92.7531,56.5786 93.0865,60.5786 87.5,65C 72.5,65.6667 57.5,65.6667 42.5,65C 38.2099,62.4693 37.3765,58.9693 40,54.5C 41.3024,53.9152 42.469,53.2485 43.5,52.5 Z"/></g>
<g><path style="opacity:0.992" fill="#f6a122" d="M 52.5,99.5 C 49.1667,99.5 45.8333,99.5 42.5,99.5C 39.3707,98.1012 36.3707,96.4345 33.5,94.5C 40.5516,94.4503 42.885,91.117 40.5,84.5C 45.5551,87.2177 50.5551,87.0511 55.5,84C 58.5209,79.9824 61.8542,76.3157 65.5,73C 74.6667,70.1667 77.8333,73.3333 75,82.5C 70.52,87.311 65.6867,91.811 60.5,96C 57.8421,97.478 55.1755,98.6446 52.5,99.5 Z"/></g>
</svg>
