<?xml version="1.0" encoding="UTF-8"?>
<!DOCTYPE svg PUBLIC "-//W3C//DTD SVG 1.1//EN" "http://www.w3.org/Graphics/SVG/1.1/DTD/svg11.dtd">
<svg xmlns="http://www.w3.org/2000/svg" version="1.1" width="100px" height="100px" style="shape-rendering:geometricPrecision; text-rendering:geometricPrecision; image-rendering:optimizeQuality; fill-rule:evenodd; clip-rule:evenodd" xmlns:xlink="http://www.w3.org/1999/xlink">
<g><path style="opacity:0.883" fill="#090708" d="M 42.5,-0.5 C 47.1667,-0.5 51.8333,-0.5 56.5,-0.5C 59.1041,1.60004 61.6041,3.93337 64,6.5C 65.6158,15.1857 67.2825,23.8524 69,32.5C 74.1207,38.6274 78.454,45.2941 82,52.5C 83.7312,58.5024 84.2312,64.5024 83.5,70.5C 82.8333,70.5 82.1667,70.5 81.5,70.5C 81.5858,69.5041 81.2524,68.6708 80.5,68C 78.3686,67.4569 76.3686,66.6236 74.5,65.5C 75.6055,61.223 75.7722,56.8897 75,52.5C 74.2681,50.0768 72.7681,48.9101 70.5,49C 71.1667,49.6667 71.8333,50.3333 72.5,51C 68.3371,53.4657 68.5038,54.299 73,53.5C 74.8817,57.9974 74.715,62.4974 72.5,67C 76.6018,67.367 78.9351,69.5336 79.5,73.5C 77.089,76.4504 74.089,77.1171 70.5,75.5C 69.6143,74.675 69.281,73.675 69.5,72.5C 69.5,71.1667 69.5,69.8333 69.5,68.5C 69.9492,62.6415 69.2825,56.9748 67.5,51.5C 64.6525,47.8933 62.6525,43.8933 61.5,39.5C 61.1075,37.7162 60.4408,36.0495 59.5,34.5C 59.573,32.9731 58.9063,31.9731 57.5,31.5C 57.5,28.8333 57.5,26.1667 57.5,23.5C 59.0808,19.9057 58.4142,16.739 55.5,14C 49.9457,13.7171 47.9457,16.2171 49.5,21.5C 47.8333,21.5 46.1667,21.5 44.5,21.5C 45.4728,16.9943 43.8061,14.8276 39.5,15C 37.2495,17.9277 36.9162,21.0944 38.5,24.5C 37.1667,26.8333 37.1667,29.1667 38.5,31.5C 38.552,33.9029 38.2186,36.2362 37.5,38.5C 35.8267,39.343 34.66,40.6763 34,42.5C 31.5695,49.0404 29.4029,55.7071 27.5,62.5C 26.7972,64.6287 25.7972,66.6287 24.5,68.5C 22.5487,67.3586 20.5487,67.3586 18.5,68.5C 18.3379,66.4727 18.5045,64.4727 19,62.5C 22.1501,57.1959 24.4834,51.5292 26,45.5C 28.97,41.858 31.97,38.1913 35,34.5C 35.5549,28.8202 35.3882,23.1536 34.5,17.5C 33.9204,9.85493 36.5871,3.85493 42.5,-0.5 Z"/></g>
<g><path style="opacity:1" fill="#252525" d="M 55.5,23.5 C 54.0413,23.5674 52.7079,23.2341 51.5,22.5C 51.5,20.8333 51.5,19.1667 51.5,17.5C 56.2602,17.2007 57.5936,19.2007 55.5,23.5 Z"/></g>
<g><path style="opacity:1" fill="#afada6" d="M 44.5,21.5 C 43.8333,21.1667 43.1667,20.8333 42.5,20.5C 42.5852,19.0047 41.9185,18.0047 40.5,17.5C 39.2121,19.2985 39.2121,20.9652 40.5,22.5C 40.6716,23.4916 40.3382,24.1583 39.5,24.5C 39.1667,24.5 38.8333,24.5 38.5,24.5C 36.9162,21.0944 37.2495,17.9277 39.5,15C 43.8061,14.8276 45.4728,16.9943 44.5,21.5 Z"/></g>
<g><path style="opacity:1" fill="#cfcdcc" d="M 57.5,23.5 C 57.1667,23.5 56.8333,23.5 56.5,23.5C 56.1667,23.5 55.8333,23.5 55.5,23.5C 57.5936,19.2007 56.2602,17.2007 51.5,17.5C 51.5,19.1667 51.5,20.8333 51.5,22.5C 50.5084,22.6716 49.8417,22.3382 49.5,21.5C 47.9457,16.2171 49.9457,13.7171 55.5,14C 58.4142,16.739 59.0808,19.9057 57.5,23.5 Z"/></g>
<g><path style="opacity:1" fill="#1c1c18" d="M 42.5,20.5 C 42.5,21.8333 41.8333,22.5 40.5,22.5C 39.2121,20.9652 39.2121,19.2985 40.5,17.5C 41.9185,18.0047 42.5852,19.0047 42.5,20.5 Z"/></g>
<g><path style="opacity:1" fill="#f0cc2a" d="M 43.5,31.5 C 42.8333,31.1667 42.1667,30.8333 41.5,30.5C 41.0807,27.6755 42.0807,25.5088 44.5,24C 48.3374,23.2387 52.0041,23.7387 55.5,25.5C 52.4143,29.203 48.4143,31.203 43.5,31.5 Z"/></g>
<g><path style="opacity:1" fill="#cea129" d="M 42.5,20.5 C 43.1667,20.8333 43.8333,21.1667 44.5,21.5C 46.1667,21.5 47.8333,21.5 49.5,21.5C 49.8417,22.3382 50.5084,22.6716 51.5,22.5C 52.7079,23.2341 54.0413,23.5674 55.5,23.5C 55.8333,23.5 56.1667,23.5 56.5,23.5C 56.8076,25.924 56.4742,28.2573 55.5,30.5C 52.5842,31.7932 49.5842,32.7932 46.5,33.5C 44.9704,33.3601 43.9704,32.6935 43.5,31.5C 48.4143,31.203 52.4143,29.203 55.5,25.5C 52.0041,23.7387 48.3374,23.2387 44.5,24C 42.0807,25.5088 41.0807,27.6755 41.5,30.5C 39.7202,29.0101 39.0535,27.0101 39.5,24.5C 40.3382,24.1583 40.6716,23.4916 40.5,22.5C 41.8333,22.5 42.5,21.8333 42.5,20.5 Z"/></g>
<g><path style="opacity:1" fill="#676968" d="M 61.5,29.5 C 63.3841,29.7118 64.7174,30.7118 65.5,32.5C 62.9364,33.5644 61.6031,32.5644 61.5,29.5 Z"/></g>
<g><path style="opacity:1" fill="#a78738" d="M 56.5,23.5 C 56.8333,23.5 57.1667,23.5 57.5,23.5C 57.5,26.1667 57.5,28.8333 57.5,31.5C 53.8339,32.8323 50.1672,34.1656 46.5,35.5C 43.6074,34.6047 40.9407,33.2713 38.5,31.5C 37.1667,29.1667 37.1667,26.8333 38.5,24.5C 38.8333,24.5 39.1667,24.5 39.5,24.5C 39.0535,27.0101 39.7202,29.0101 41.5,30.5C 42.1667,30.8333 42.8333,31.1667 43.5,31.5C 43.9704,32.6935 44.9704,33.3601 46.5,33.5C 49.5842,32.7932 52.5842,31.7932 55.5,30.5C 56.4742,28.2573 56.8076,25.924 56.5,23.5 Z"/></g>
<g><path style="opacity:1" fill="#f9f9f6" d="M 59.5,34.5 C 60.4408,36.0495 61.1075,37.7162 61.5,39.5C 61.5198,41.143 60.8532,42.4763 59.5,43.5C 57.5,44.1667 55.5,44.8333 53.5,45.5C 57.9352,48.0512 62.6018,50.0512 67.5,51.5C 69.2825,56.9748 69.9492,62.6415 69.5,68.5C 67.9582,69.3007 66.2915,69.634 64.5,69.5C 64.5,73.1667 64.5,76.8333 64.5,80.5C 63.5,80.8333 62.8333,81.5 62.5,82.5C 56.1234,89.2384 48.4567,91.2384 39.5,88.5C 37.31,87.6255 36.31,85.9589 36.5,83.5C 39.9019,82.4423 40.4019,80.4423 38,77.5C 34.9556,74.9491 31.7889,72.6158 28.5,70.5C 27.612,67.9455 27.2786,65.2788 27.5,62.5C 29.4029,55.7071 31.5695,49.0404 34,42.5C 34.66,40.6763 35.8267,39.343 37.5,38.5C 39.1026,37.3228 40.436,37.4894 41.5,39C 43.5,39.6667 45.5,39.6667 47.5,39C 50.0925,36.7875 52.9258,34.9542 56,33.5C 57.2559,33.6483 58.4226,33.9816 59.5,34.5 Z"/></g>
<g><path style="opacity:1" fill="#cbc4b9" d="M 38.5,31.5 C 40.9407,33.2713 43.6074,34.6047 46.5,35.5C 50.1672,34.1656 53.8339,32.8323 57.5,31.5C 58.9063,31.9731 59.573,32.9731 59.5,34.5C 58.4226,33.9816 57.2559,33.6483 56,33.5C 52.9258,34.9542 50.0925,36.7875 47.5,39C 45.5,39.6667 43.5,39.6667 41.5,39C 40.436,37.4894 39.1026,37.3228 37.5,38.5C 38.2186,36.2362 38.552,33.9029 38.5,31.5 Z"/></g>
<g><path style="opacity:1" fill="#d6d6d3" d="M 61.5,39.5 C 62.6525,43.8933 64.6525,47.8933 67.5,51.5C 62.6018,50.0512 57.9352,48.0512 53.5,45.5C 55.5,44.8333 57.5,44.1667 59.5,43.5C 60.8532,42.4763 61.5198,41.143 61.5,39.5 Z"/></g>
<g><path style="opacity:1" fill="#31302f" d="M 81.5,70.5 C 80.8902,71.391 80.5569,72.391 80.5,73.5C 80.1667,73.5 79.8333,73.5 79.5,73.5C 78.9351,69.5336 76.6018,67.367 72.5,67C 74.715,62.4974 74.8817,57.9974 73,53.5C 68.5038,54.299 68.3371,53.4657 72.5,51C 71.8333,50.3333 71.1667,49.6667 70.5,49C 72.7681,48.9101 74.2681,50.0768 75,52.5C 75.7722,56.8897 75.6055,61.223 74.5,65.5C 76.3686,66.6236 78.3686,67.4569 80.5,68C 81.2524,68.6708 81.5858,69.5041 81.5,70.5 Z"/></g>
<g><path style="opacity:1" fill="#504427" d="M 27.5,62.5 C 27.2786,65.2788 27.612,67.9455 28.5,70.5C 27.8333,70.5 27.5,70.8333 27.5,71.5C 26.5,70.8333 25.5,70.1667 24.5,69.5C 24.5,69.1667 24.5,68.8333 24.5,68.5C 25.7972,66.6287 26.7972,64.6287 27.5,62.5 Z"/></g>
<g><path style="opacity:0.594" fill="#c18c10" d="M 24.5,68.5 C 24.5,68.8333 24.5,69.1667 24.5,69.5C 23.1266,69.3433 21.7932,69.51 20.5,70C 18.4894,73.7139 15.3228,75.5472 11,75.5C 10.7095,79.8632 10.2095,84.1965 9.5,88.5C 9.83333,89.1667 10.1667,89.8333 10.5,90.5C 17.3494,92.7329 24.3494,94.3995 31.5,95.5C 33.0293,95.4712 34.196,94.8045 35,93.5C 35.4955,91.5273 35.6621,89.5273 35.5,87.5C 36.9468,88.1342 37.6134,89.3009 37.5,91C 37.2272,92.5328 36.8938,94.0328 36.5,95.5C 34.5477,95.9949 32.5477,96.3282 30.5,96.5C 23.9473,94.9191 17.2807,93.9191 10.5,93.5C 9.5041,93.5858 8.67076,93.2524 8,92.5C 8.30885,87.2638 8.14218,82.0971 7.5,77C 9.2226,73.1921 12.2226,71.5254 16.5,72C 17.8228,71.1841 18.4894,70.0174 18.5,68.5C 20.5487,67.3586 22.5487,67.3586 24.5,68.5 Z"/></g>
<g><path style="opacity:1" fill="#ae8a32" d="M 69.5,68.5 C 69.5,69.8333 69.5,71.1667 69.5,72.5C 68.5326,71.1938 67.1993,70.5271 65.5,70.5C 65.5,77.8333 65.5,85.1667 65.5,92.5C 64.5166,88.7016 64.1832,84.7016 64.5,80.5C 64.5,76.8333 64.5,73.1667 64.5,69.5C 66.2915,69.634 67.9582,69.3007 69.5,68.5 Z"/></g>
<g><path style="opacity:1" fill="#13110b" d="M 28.5,70.5 C 31.7889,72.6158 34.9556,74.9491 38,77.5C 40.4019,80.4423 39.9019,82.4423 36.5,83.5C 34.4727,82.1394 32.806,80.4727 31.5,78.5C 30.4314,76.0313 29.0981,73.6979 27.5,71.5C 27.5,70.8333 27.8333,70.5 28.5,70.5 Z"/></g>
<g><path style="opacity:1" fill="#efb910" d="M 24.5,69.5 C 25.5,70.1667 26.5,70.8333 27.5,71.5C 29.0981,73.6979 30.4314,76.0313 31.5,78.5C 32.6893,81.4815 34.0226,84.4815 35.5,87.5C 35.6621,89.5273 35.4955,91.5273 35,93.5C 34.196,94.8045 33.0293,95.4712 31.5,95.5C 24.3494,94.3995 17.3494,92.7329 10.5,90.5C 10.1667,89.8333 9.83333,89.1667 9.5,88.5C 10.2095,84.1965 10.7095,79.8632 11,75.5C 15.3228,75.5472 18.4894,73.7139 20.5,70C 21.7932,69.51 23.1266,69.3433 24.5,69.5 Z"/></g>
<g><path style="opacity:0.812" fill="#d8a31d" d="M 81.5,70.5 C 82.1667,70.5 82.8333,70.5 83.5,70.5C 84.9459,72.5796 85.9459,74.9129 86.5,77.5C 88.9202,79.5782 90.9202,81.9115 92.5,84.5C 89.3955,87.0341 85.7288,88.2008 81.5,88C 79.8542,89.8205 77.8542,90.9872 75.5,91.5C 78.4962,86.975 82.8295,84.975 88.5,85.5C 86.6445,81.1591 84.4778,76.8257 82,72.5C 81.6174,73.056 81.1174,73.3893 80.5,73.5C 80.5569,72.391 80.8902,71.391 81.5,70.5 Z"/></g>
<g><path style="opacity:1" fill="#d4a427" d="M 69.5,72.5 C 69.281,73.675 69.6143,74.675 70.5,75.5C 74.089,77.1171 77.089,76.4504 79.5,73.5C 79.8333,73.5 80.1667,73.5 80.5,73.5C 79.631,79.3974 76.2977,81.564 70.5,80C 69.2125,78.5905 68.0458,77.0905 67,75.5C 66.5006,81.1569 66.3339,86.8236 66.5,92.5C 66.1667,92.5 65.8333,92.5 65.5,92.5C 65.5,85.1667 65.5,77.8333 65.5,70.5C 67.1993,70.5271 68.5326,71.1938 69.5,72.5 Z"/></g>
<g><path style="opacity:1" fill="#f2bc21" d="M 75.5,91.5 C 74.0539,92.9402 72.2206,93.6068 70,93.5C 68.6153,93.4857 67.4486,93.1524 66.5,92.5C 66.3339,86.8236 66.5006,81.1569 67,75.5C 68.0458,77.0905 69.2125,78.5905 70.5,80C 76.2977,81.564 79.631,79.3974 80.5,73.5C 81.1174,73.3893 81.6174,73.056 82,72.5C 84.4778,76.8257 86.6445,81.1591 88.5,85.5C 82.8295,84.975 78.4962,86.975 75.5,91.5 Z"/></g>
<g><path style="opacity:1" fill="#a48228" d="M 31.5,78.5 C 32.806,80.4727 34.4727,82.1394 36.5,83.5C 36.31,85.9589 37.31,87.6255 39.5,88.5C 39.0826,91.1589 38.0826,93.4922 36.5,95.5C 36.8938,94.0328 37.2272,92.5328 37.5,91C 37.6134,89.3009 36.9468,88.1342 35.5,87.5C 34.0226,84.4815 32.6893,81.4815 31.5,78.5 Z"/></g>
<g><path style="opacity:0.894" fill="#0c0a0a" d="M 62.5,82.5 C 62.9144,86.9688 62.9144,91.6355 62.5,96.5C 54.8752,94.5579 47.2085,94.2246 39.5,95.5C 39.5,93.1667 39.5,90.8333 39.5,88.5C 48.4567,91.2384 56.1234,89.2384 62.5,82.5 Z"/></g>
<g><path style="opacity:0.705" fill="#906602" d="M 10.5,93.5 C 17.2807,93.9191 23.9473,94.9191 30.5,96.5C 32.5477,96.3282 34.5477,95.9949 36.5,95.5C 35.8333,96.8333 35.1667,98.1667 34.5,99.5C 32.1667,99.5 29.8333,99.5 27.5,99.5C 21.8813,97.3951 16.2146,95.3951 10.5,93.5 Z"/></g>
<g><path style="opacity:1" fill="#a8760b" d="M 92.5,84.5 C 92.4894,86.0174 91.8228,87.1841 90.5,88C 86.3037,90.2606 82.3037,92.7606 78.5,95.5C 75.4682,95.505 72.4682,95.8384 69.5,96.5C 66.8245,96.4693 65.4912,95.1359 65.5,92.5C 65.8333,92.5 66.1667,92.5 66.5,92.5C 67.4486,93.1524 68.6153,93.4857 70,93.5C 72.2206,93.6068 74.0539,92.9402 75.5,91.5C 77.8542,90.9872 79.8542,89.8205 81.5,88C 85.7288,88.2008 89.3955,87.0341 92.5,84.5 Z"/></g>
<g><path style="opacity:0.98" fill="#614007" d="M 64.5,80.5 C 64.1832,84.7016 64.5166,88.7016 65.5,92.5C 65.4912,95.1359 66.8245,96.4693 69.5,96.5C 72.4682,95.8384 75.4682,95.505 78.5,95.5C 76.8608,96.4725 75.5274,97.8058 74.5,99.5C 71.1667,99.5 67.8333,99.5 64.5,99.5C 63.8333,98.5 63.1667,97.5 62.5,96.5C 62.9144,91.6355 62.9144,86.9688 62.5,82.5C 62.8333,81.5 63.5,80.8333 64.5,80.5 Z"/></g>
<g><path style="opacity:0.024" fill="#5d3b04" d="M 39.5,88.5 C 39.5,90.8333 39.5,93.1667 39.5,95.5C 39.2671,97.0618 38.6005,98.3951 37.5,99.5C 36.5,99.5 35.5,99.5 34.5,99.5C 35.1667,98.1667 35.8333,96.8333 36.5,95.5C 38.0826,93.4922 39.0826,91.1589 39.5,88.5 Z"/></g>
</svg>
