<?xml version="1.0" encoding="UTF-8"?>
<!DOCTYPE svg PUBLIC "-//W3C//DTD SVG 1.1//EN" "http://www.w3.org/Graphics/SVG/1.1/DTD/svg11.dtd">
<svg xmlns="http://www.w3.org/2000/svg" version="1.1" width="100px" height="100px" style="shape-rendering:geometricPrecision; text-rendering:geometricPrecision; image-rendering:optimizeQuality; fill-rule:evenodd; clip-rule:evenodd" xmlns:xlink="http://www.w3.org/1999/xlink">
<g><path style="opacity:0.747" fill="#7f7f7f" d="M 40.5,-0.5 C 43.1667,-0.5 45.8333,-0.5 48.5,-0.5C 48.67,0.822066 48.3366,1.98873 47.5,3C 44.854,3.49742 42.1873,3.66409 39.5,3.5C 39.4326,2.04125 39.7659,0.707917 40.5,-0.5 Z"/></g>
<g><path style="opacity:0.708" fill="#828282" d="M 51.5,-0.5 C 54.1667,-0.5 56.8333,-0.5 59.5,-0.5C 60.2341,0.707917 60.5674,2.04125 60.5,3.5C 56.6983,4.11966 53.365,3.28633 50.5,1C 51.056,0.617425 51.3893,0.117425 51.5,-0.5 Z"/></g>
<g><path style="opacity:0.655" fill="#808080" d="M 32.5,1.5 C 33.8734,1.34332 35.2068,1.50999 36.5,2C 37.4506,2.71752 37.6172,3.55085 37,4.5C 34.32,6.10348 31.4867,6.93682 28.5,7C 27.5494,6.28248 27.3828,5.44915 28,4.5C 29.6516,3.60064 31.1516,2.60064 32.5,1.5 Z"/></g>
<g><path style="opacity:0.682" fill="#80817e" d="M 63.5,1.5 C 66.4245,1.45982 69.0912,2.29315 71.5,4C 72.8413,5.82646 72.3413,6.99313 70,7.5C 67.8887,6.52791 65.7221,5.69458 63.5,5C 62.3157,3.85453 62.3157,2.68787 63.5,1.5 Z"/></g>
<g><path style="opacity:0.975" fill="#02017d" d="M 82.5,1.5 C 95.1834,0.674084 100.017,6.34075 97,18.5C 90.3333,25.1667 83.6667,25.1667 77,18.5C 74.1496,11.2192 75.983,5.55254 82.5,1.5 Z"/></g>
<g><path style="opacity:0.655" fill="#808180" d="M 22.5,6.5 C 25.1662,6.06577 26.3329,7.06577 26,9.5C 23.6745,12.0108 20.8411,13.3441 17.5,13.5C 17.3505,12.448 17.5172,11.448 18,10.5C 19.6667,9.26683 21.1667,7.9335 22.5,6.5 Z"/></g>
<g><path style="opacity:0.995" fill="#03027d" d="M 70.5,18.5 C 70.33,19.8221 70.6634,20.9887 71.5,22C 68.3054,22.1805 65.3054,22.6805 62.5,23.5C 58.8333,25.1667 56.1667,27.8333 54.5,31.5C 52.1425,33.3215 51.8092,35.6548 53.5,38.5C 50.9798,42.2671 50.9798,46.1004 53.5,50C 50.7744,53.6383 49.2744,57.8049 49,62.5C 48.2983,58.566 47.1316,54.8993 45.5,51.5C 44.5,51.5 43.5,51.5 42.5,51.5C 42.5,56.8333 42.5,62.1667 42.5,67.5C 42.4142,68.4959 42.7476,69.3292 43.5,70C 48.9543,70.7546 54.2876,70.2546 59.5,68.5C 60.3081,68.8076 60.9747,69.3076 61.5,70C 66.8229,70.4994 72.1563,70.666 77.5,70.5C 76.669,63.8689 76.3357,57.2022 76.5,50.5C 74.8333,50.5 73.1667,50.5 71.5,50.5C 71.6107,49.8826 71.944,49.3826 72.5,49C 67.3962,47.2811 67.7295,45.7811 73.5,44.5C 74.7412,45.0372 75.9079,45.7039 77,46.5C 79.8193,45.3688 80.1526,43.7021 78,41.5C 77.3333,37.8333 77.3333,34.1667 78,30.5C 78.4652,31.9308 79.2986,33.0975 80.5,34C 79.6634,35.0113 79.33,36.1779 79.5,37.5C 81.5,38.1667 83.5,38.8333 85.5,39.5C 90.4468,63.0929 81.4468,78.9263 58.5,87C 39.1156,90.2219 24.6156,83.3885 15,66.5C 6.47512,40.3871 14.9751,22.5538 40.5,13C 51.3657,10.9742 61.3657,12.8075 70.5,18.5 Z"/></g>
<g><path style="opacity:0.654" fill="#818180" d="M 14.5,13.5 C 15.6266,14.1217 16.6266,14.955 17.5,16C 15.8256,19.5187 13.159,21.6854 9.5,22.5C 9.87699,18.7882 11.5437,15.7882 14.5,13.5 Z"/></g>
<g><path style="opacity:0.692" fill="#808080" d="M 6.5,23.5 C 7.5,23.5 8.5,23.5 9.5,23.5C 9.54018,26.4245 8.70685,29.0912 7,31.5C 5.98873,32.3366 4.82207,32.67 3.5,32.5C 3.64687,29.2084 4.64687,26.2084 6.5,23.5 Z"/></g>
<g><path style="opacity:1" fill="#f8f9fc" d="M 62.5,23.5 C 73.1225,23.7336 77.2891,29.067 75,39.5C 68.9358,46.907 62.6025,47.2403 56,40.5C 54.7114,37.6492 54.2114,34.6492 54.5,31.5C 56.1667,27.8333 58.8333,25.1667 62.5,23.5 Z"/></g>
<g><path style="opacity:0.608" fill="#828282" d="M 92.5,27.5 C 94.9115,27.1367 96.4115,28.1367 97,30.5C 97.5,32 98,33.5 98.5,35C 98.3865,36.2798 97.7199,37.1131 96.5,37.5C 93.5236,34.873 92.1902,31.5397 92.5,27.5 Z"/></g>
<g><path style="opacity:0.687" fill="#808080" d="M 1.5,34.5 C 3.6348,34.147 4.96813,34.9803 5.5,37C 4.90973,39.1956 4.24306,41.3622 3.5,43.5C 2.67504,44.3857 1.67504,44.719 0.5,44.5C 0.459541,41.1194 0.792874,37.7861 1.5,34.5 Z"/></g>
<g><path style="opacity:1" fill="#100a74" d="M 70.5,18.5 C 78.2132,23.5489 83.2132,30.5489 85.5,39.5C 83.5,38.8333 81.5,38.1667 79.5,37.5C 79.33,36.1779 79.6634,35.0113 80.5,34C 79.2986,33.0975 78.4652,31.9308 78,30.5C 77.3333,34.1667 77.3333,37.8333 78,41.5C 80.1526,43.7021 79.8193,45.3688 77,46.5C 75.9079,45.7039 74.7412,45.0372 73.5,44.5C 67.7295,45.7811 67.3962,47.2811 72.5,49C 71.944,49.3826 71.6107,49.8826 71.5,50.5C 73.1667,50.5 74.8333,50.5 76.5,50.5C 76.3357,57.2022 76.669,63.8689 77.5,70.5C 72.1563,70.666 66.8229,70.4994 61.5,70C 60.9747,69.3076 60.3081,68.8076 59.5,68.5C 54.2876,70.2546 48.9543,70.7546 43.5,70C 42.7476,69.3292 42.4142,68.4959 42.5,67.5C 45.9316,70.1315 49.4316,70.1315 53,67.5C 54.0113,68.3366 55.1779,68.67 56.5,68.5C 56.5,62.8333 56.5,57.1667 56.5,51.5C 55.5,51.5 54.5,51.5 53.5,51.5C 53.6655,55.5138 53.4988,59.5138 53,63.5C 51.4192,66.5534 49.0859,67.22 46,65.5C 45.5008,60.8452 45.3342,56.1785 45.5,51.5C 47.1316,54.8993 48.2983,58.566 49,62.5C 49.2744,57.8049 50.7744,53.6383 53.5,50C 50.9798,46.1004 50.9798,42.2671 53.5,38.5C 51.8092,35.6548 52.1425,33.3215 54.5,31.5C 54.2114,34.6492 54.7114,37.6492 56,40.5C 62.6025,47.2403 68.9358,46.907 75,39.5C 77.2891,29.067 73.1225,23.7336 62.5,23.5C 65.3054,22.6805 68.3054,22.1805 71.5,22C 70.6634,20.9887 70.33,19.8221 70.5,18.5 Z"/></g>
<g><path style="opacity:0.829" fill="#7e8080" d="M 99.5,39.5 C 99.5,42.5 99.5,45.5 99.5,48.5C 98.5,48.5 97.5,48.5 96.5,48.5C 96.4921,45.4552 96.1587,42.4552 95.5,39.5C 96.8333,39.5 98.1667,39.5 99.5,39.5 Z"/></g>
<g><path style="opacity:0.699" fill="#828282" d="M -0.5,46.5 C 0.833333,46.5 2.16667,46.5 3.5,46.5C 3.5,49.8333 3.5,53.1667 3.5,56.5C 2.04125,56.5674 0.707917,56.2341 -0.5,55.5C -0.5,52.5 -0.5,49.5 -0.5,46.5 Z"/></g>
<g><path style="opacity:1" fill="#dbdcef" d="M 26.5,44.5 C 26.5,51.8333 26.5,59.1667 26.5,66.5C 30.8333,66.5 35.1667,66.5 39.5,66.5C 34.6042,68.4461 29.2709,69.1128 23.5,68.5C 23.5,60.5 23.5,52.5 23.5,44.5C 24.5,44.5 25.5,44.5 26.5,44.5 Z"/></g>
<g><path style="opacity:0.755" fill="#807f80" d="M 99.5,51.5 C 99.5,54.5 99.5,57.5 99.5,60.5C 98.1667,60.5 96.8333,60.5 95.5,60.5C 95.7038,57.4824 96.0371,54.4824 96.5,51.5C 97.5,51.5 98.5,51.5 99.5,51.5 Z"/></g>
<g><path style="opacity:1" fill="#a5a4d5" d="M 26.5,44.5 C 27.4912,51.3134 27.8245,58.3134 27.5,65.5C 31.7016,65.1832 35.7016,65.5166 39.5,66.5C 35.1667,66.5 30.8333,66.5 26.5,66.5C 26.5,59.1667 26.5,51.8333 26.5,44.5 Z"/></g>
<g><path style="opacity:0.733" fill="#828182" d="M 1.5,58.5 C 2.67504,58.281 3.67504,58.6143 4.5,59.5C 5.48224,62.0956 6.14891,64.7623 6.5,67.5C 5.02218,67.762 3.68884,67.4287 2.5,66.5C 1.1412,63.8059 0.807862,61.1393 1.5,58.5 Z"/></g>
<g><path style="opacity:1" fill="#e1e3f6" d="M 71.5,50.5 C 72.172,51.2674 73.0053,51.9341 74,52.5C 74.3333,57.1667 74.6667,61.8333 75,66.5C 76.7844,67.6675 76.7844,68.6675 75,69.5C 73.7147,69.0496 72.548,68.3829 71.5,67.5C 68.7107,69.2982 65.7107,69.7982 62.5,69C 59.8333,66 59.8333,63 62.5,60C 65.3508,58.7114 68.3508,58.2114 71.5,58.5C 71.5,56.8333 71.5,55.1667 71.5,53.5C 67.9202,52.9228 64.9202,53.9228 62.5,56.5C 61.2747,54.1567 61.9414,52.3234 64.5,51C 66.8098,50.5034 69.1432,50.3367 71.5,50.5 Z"/></g>
<g><path style="opacity:1" fill="#140e6b" d="M 66.5,60.5 C 68.1667,60.5 69.8333,60.5 71.5,60.5C 71.7394,62.4672 71.4061,64.3005 70.5,66C 68.1902,66.4966 65.8568,66.6633 63.5,66.5C 63.0283,63.6421 64.0283,61.6421 66.5,60.5 Z"/></g>
<g><path style="opacity:0.638" fill="#7f7f81" d="M 94.5,62.5 C 95.5,62.5 96.5,62.5 97.5,62.5C 98.2502,66.7411 96.9169,70.0745 93.5,72.5C 92.5,72.1667 91.8333,71.5 91.5,70.5C 92.5134,67.8122 93.5134,65.1456 94.5,62.5 Z"/></g>
<g><path style="opacity:1" fill="#dbddf5" d="M 45.5,51.5 C 45.3342,56.1785 45.5008,60.8452 46,65.5C 49.0859,67.22 51.4192,66.5534 53,63.5C 53.4988,59.5138 53.6655,55.5138 53.5,51.5C 54.5,51.5 55.5,51.5 56.5,51.5C 56.5,57.1667 56.5,62.8333 56.5,68.5C 55.1779,68.67 54.0113,68.3366 53,67.5C 49.4316,70.1315 45.9316,70.1315 42.5,67.5C 42.5,62.1667 42.5,56.8333 42.5,51.5C 43.5,51.5 44.5,51.5 45.5,51.5 Z"/></g>
<g><path style="opacity:0.671" fill="#808180" d="M 5.5,69.5 C 6.67504,69.281 7.67504,69.6143 8.5,70.5C 10.4935,72.8157 11.4935,75.4824 11.5,78.5C 7.6459,77.8644 5.31256,75.5311 4.5,71.5C 4.86273,70.8165 5.19607,70.1499 5.5,69.5 Z"/></g>
<g><path style="opacity:0.61" fill="#7f817e" d="M 89.5,73.5 C 90.5,73.5 91.5,73.5 92.5,73.5C 92.7225,78.5999 90.3892,81.5999 85.5,82.5C 85.3433,81.1266 85.51,79.7932 86,78.5C 87.6692,77.1537 88.8358,75.487 89.5,73.5 Z"/></g>
<g><path style="opacity:0.739" fill="#838383" d="M 11.5,79.5 C 12.8734,79.3433 14.2068,79.51 15.5,80C 17.8394,81.9893 19.1727,84.4893 19.5,87.5C 14.6152,87.0711 11.9486,84.4044 11.5,79.5 Z"/></g>
<g><path style="opacity:0.6" fill="#7f807e" d="M 82.5,82.5 C 84.6859,82.5106 85.5192,83.5106 85,85.5C 83.1422,88.4122 80.6422,89.9122 77.5,90C 76.5494,89.2825 76.3828,88.4491 77,87.5C 78.7297,85.5981 80.563,83.9314 82.5,82.5 Z"/></g>
<g><path style="opacity:0.688" fill="#828182" d="M 20.5,87.5 C 23.5176,87.5065 26.1843,88.5065 28.5,90.5C 29.4287,91.6888 29.762,93.0222 29.5,94.5C 26.7743,94.7361 24.441,93.9028 22.5,92C 20.9632,90.8904 20.2965,89.3904 20.5,87.5 Z"/></g>
<g><path style="opacity:0.622" fill="#818181" d="M 72.5,89.5 C 75.0764,89.7218 75.9098,91.0551 75,93.5C 72.4125,95.1958 69.5792,96.1958 66.5,96.5C 66.238,95.0222 66.5713,93.6888 67.5,92.5C 69.3964,91.7255 71.063,90.7255 72.5,89.5 Z"/></g>
<g><path style="opacity:0.673" fill="#808080" d="M 32.5,92.5 C 34.9925,93.7736 37.6592,94.4403 40.5,94.5C 40.5,95.8333 40.5,97.1667 40.5,98.5C 37.7294,98.5793 35.0627,98.0793 32.5,97C 31.2721,95.5098 31.2721,94.0098 32.5,92.5 Z"/></g>
<g><path style="opacity:0.654" fill="#808080" d="M 60.5,99.5 C 58.8333,99.5 57.1667,99.5 55.5,99.5C 54.3157,98.3121 54.3157,97.1455 55.5,96C 58.4318,95.0467 61.4318,94.5467 64.5,94.5C 64.5922,97.4 63.2589,99.0667 60.5,99.5 Z"/></g>
<g><path style="opacity:0.742" fill="#808080" d="M 52.5,99.5 C 49.5,99.5 46.5,99.5 43.5,99.5C 42.1223,96.3606 43.289,95.0273 47,95.5C 50.2928,95.0465 52.1261,96.3798 52.5,99.5 Z"/></g>
</svg>
