<?xml version="1.0" encoding="UTF-8"?>
<!DOCTYPE svg PUBLIC "-//W3C//DTD SVG 1.1//EN" "http://www.w3.org/Graphics/SVG/1.1/DTD/svg11.dtd">
<svg xmlns="http://www.w3.org/2000/svg" version="1.1" width="100px" height="100px" style="shape-rendering:geometricPrecision; text-rendering:geometricPrecision; image-rendering:optimizeQuality; fill-rule:evenodd; clip-rule:evenodd" xmlns:xlink="http://www.w3.org/1999/xlink">
<g><path style="opacity:0.978" fill="#4eac51" d="M 34.5,-0.5 C 44.5,-0.5 54.5,-0.5 64.5,-0.5C 70.9652,0.633843 77.2986,2.30051 83.5,4.5C 79.9576,5.86515 79.7909,7.53182 83,9.5C 84.0495,8.48288 85.2161,8.31621 86.5,9C 86.1667,9.33333 85.8333,9.66667 85.5,10C 82.1508,10.3876 78.8175,10.2209 75.5,9.5C 73.2603,8.7356 70.9269,7.90226 68.5,7C 58.6578,6.17537 48.9911,6.34204 39.5,7.5C 36.6146,7.1936 33.9479,7.52693 31.5,8.5C 26.456,8.17252 21.456,8.50585 16.5,9.5C 15.8728,10.4168 15.5394,11.4168 15.5,12.5C 12.6448,12.8422 11.1448,14.5088 11,17.5C 10.3333,27.1667 10.3333,36.8333 11,46.5C 12.1046,49.5189 13.2713,52.5189 14.5,55.5C 13.8444,57.4534 13.5111,59.4534 13.5,61.5C 15.099,61.2322 16.4324,61.5655 17.5,62.5C 17.0074,64.8056 16.6741,67.139 16.5,69.5C 15.5,69.5 14.5,69.5 13.5,69.5C 9.19595,62.0918 6.36261,54.0918 5,45.5C 4.09408,34.4409 4.42741,23.4409 6,12.5C 7.36036,9.26476 9.52703,6.76476 12.5,5C 19.8796,2.83019 27.2129,0.996861 34.5,-0.5 Z"/></g>
<g><path style="opacity:1" fill="#54a255" d="M 83.5,4.5 C 89.4835,5.65258 92.9835,9.31924 94,15.5C 94.4955,17.4727 94.6621,19.4727 94.5,21.5C 93.5416,21.0472 92.7083,20.3805 92,19.5C 91.4888,17.1218 90.8221,14.7885 90,12.5C 88.9887,11.6634 87.8221,11.33 86.5,11.5C 88.4904,22.7338 88.9904,34.0672 88,45.5C 87.5831,46.756 86.7498,47.4226 85.5,47.5C 85.5,46.1667 85.5,44.8333 85.5,43.5C 86.29,42.3915 86.79,41.0581 87,39.5C 87.8633,31.4357 87.53,23.4357 86,15.5C 84.871,13.8588 83.371,12.8588 81.5,12.5C 79.2488,11.9851 77.2488,10.9851 75.5,9.5C 78.8175,10.2209 82.1508,10.3876 85.5,10C 85.8333,9.66667 86.1667,9.33333 86.5,9C 85.2161,8.31621 84.0495,8.48288 83,9.5C 79.7909,7.53182 79.9576,5.86515 83.5,4.5 Z"/></g>
<g><path style="opacity:1" fill="#5c9450" d="M 39.5,7.5 C 48.9911,6.34204 58.6578,6.17537 68.5,7C 70.9269,7.90226 73.2603,8.7356 75.5,9.5C 71.4659,9.49546 67.4659,9.16213 63.5,8.5C 55.6841,7.50761 47.6841,7.17428 39.5,7.5 Z"/></g>
<g><path style="opacity:1" fill="#4b5332" d="M 39.5,7.5 C 47.6841,7.17428 55.6841,7.50761 63.5,8.5C 52.8018,8.26309 42.1351,8.59643 31.5,9.5C 31.5,9.16667 31.5,8.83333 31.5,8.5C 33.9479,7.52693 36.6146,7.1936 39.5,7.5 Z"/></g>
<g><path style="opacity:1" fill="#589d56" d="M 31.5,8.5 C 31.5,8.83333 31.5,9.16667 31.5,9.5C 25.898,9.23568 20.5646,10.2357 15.5,12.5C 15.5394,11.4168 15.8728,10.4168 16.5,9.5C 21.456,8.50585 26.456,8.17252 31.5,8.5 Z"/></g>
<g><path style="opacity:1" fill="#5b4237" d="M 63.5,8.5 C 63.6107,9.11742 63.944,9.61742 64.5,10C 70.3295,10.4403 75.9962,11.2736 81.5,12.5C 82.5,13.8333 83.5,15.1667 84.5,16.5C 84.6661,22.1764 84.4994,27.8431 84,33.5C 83.6667,29.5 83.3333,25.5 83,21.5C 82.6258,22.4162 82.1258,23.2496 81.5,24C 82.4325,29.1632 83.4325,34.3299 84.5,39.5C 83.8501,39.1961 83.1835,38.8627 82.5,38.5C 81.7561,33.4795 80.9228,28.4795 80,23.5C 79.4844,27.5628 78.6511,31.5628 77.5,35.5C 77.837,38.1764 78.1703,40.843 78.5,43.5C 77.5,43.5 76.5,43.5 75.5,43.5C 75.5,42.1667 75.5,40.8333 75.5,39.5C 74.1667,39.5 72.8333,39.5 71.5,39.5C 71.5,36.8333 71.5,34.1667 71.5,31.5C 69.1667,31.5 66.8333,31.5 64.5,31.5C 64.5,34.1667 64.5,36.8333 64.5,39.5C 63.5655,38.4324 63.2322,37.099 63.5,35.5C 62.7505,31.2393 61.2505,27.2393 59,23.5C 58.3292,22.7476 57.4959,22.4142 56.5,22.5C 56.5,22.1667 56.5,21.8333 56.5,21.5C 57.045,13.9657 53.7117,11.4657 46.5,14C 44.5614,14.9078 43.5614,16.4078 43.5,18.5C 41.8333,18.5 40.1667,18.5 38.5,18.5C 38.0915,24.2548 37.0915,29.9214 35.5,35.5C 34.7784,35.9175 34.2784,36.5842 34,37.5C 33.1609,44.5667 33.4942,51.5667 35,58.5C 35.7403,60.3187 36.9069,61.6521 38.5,62.5C 40.9816,65.4293 43.4816,68.4293 46,71.5C 46.1829,74.3647 46.6829,77.0314 47.5,79.5C 48.8333,79.5 50.1667,79.5 51.5,79.5C 51.5,76.8333 51.5,74.1667 51.5,71.5C 52.1667,71.5 52.8333,71.5 53.5,71.5C 54.1667,71.1667 54.8333,70.8333 55.5,70.5C 55.5988,73.6727 54.9322,76.6727 53.5,79.5C 53.8178,80.6473 54.4844,81.4806 55.5,82C 52.6815,84.8692 53.3482,86.3692 57.5,86.5C 56.7095,87.4013 55.7095,88.0679 54.5,88.5C 50.8019,88.4476 47.1352,88.1143 43.5,87.5C 43.1667,87.5 42.8333,87.5 42.5,87.5C 41.4154,85.4131 39.7488,84.0798 37.5,83.5C 36.4154,81.4131 34.7488,80.0798 32.5,79.5C 31.8333,79.5 31.5,79.1667 31.5,78.5C 27.6025,73.7037 23.9359,68.7037 20.5,63.5C 15.3149,48.3551 13.3149,32.6885 14.5,16.5C 15.2899,15.2058 16.2899,14.0391 17.5,13C 22.3737,12.1424 27.0403,10.9757 31.5,9.5C 42.1351,8.59643 52.8018,8.26309 63.5,8.5 Z"/></g>
<g><path style="opacity:1" fill="#4c4f30" d="M 63.5,8.5 C 67.4659,9.16213 71.4659,9.49546 75.5,9.5C 77.2488,10.9851 79.2488,11.9851 81.5,12.5C 75.9962,11.2736 70.3295,10.4403 64.5,10C 63.944,9.61742 63.6107,9.11742 63.5,8.5 Z"/></g>
<g><path style="opacity:1" fill="#554834" d="M 56.5,21.5 C 55.5,20.8333 54.5,20.1667 53.5,19.5C 53.5,17.5 52.5,16.5 50.5,16.5C 49.5,15.1667 48.5,15.1667 47.5,16.5C 42.6687,20.815 39.3353,26.1484 37.5,32.5C 36.8333,33.5 36.1667,34.5 35.5,35.5C 37.0915,29.9214 38.0915,24.2548 38.5,18.5C 40.1667,18.5 41.8333,18.5 43.5,18.5C 43.5614,16.4078 44.5614,14.9078 46.5,14C 53.7117,11.4657 57.045,13.9657 56.5,21.5 Z"/></g>
<g><path style="opacity:1" fill="#544833" d="M 84.5,16.5 C 85.4933,25.3178 85.8266,34.3178 85.5,43.5C 85.5,44.8333 85.5,46.1667 85.5,47.5C 85.5,48.1667 85.5,48.8333 85.5,49.5C 84.5,51.5 83.5,53.5 82.5,55.5C 82.6888,50.0375 83.3555,44.7041 84.5,39.5C 83.4325,34.3299 82.4325,29.1632 81.5,24C 82.1258,23.2496 82.6258,22.4162 83,21.5C 83.3333,25.5 83.6667,29.5 84,33.5C 84.4994,27.8431 84.6661,22.1764 84.5,16.5 Z"/></g>
<g><path style="opacity:1" fill="#534932" d="M 14.5,16.5 C 13.3149,32.6885 15.3149,48.3551 20.5,63.5C 17.8872,60.3552 16.2205,56.6886 15.5,52.5C 13.4934,40.3937 13.1601,28.3937 14.5,16.5 Z"/></g>
<g><path style="opacity:1" fill="#4eb050" d="M 53.5,21.5 C 54.29,22.6085 54.79,23.9419 55,25.5C 55.6667,24.1667 56.3333,24.1667 57,25.5C 58.7853,29.0956 60.2853,32.7622 61.5,36.5C 58.8062,45.119 56.3062,53.7857 54,62.5C 52.9887,63.3366 51.8221,63.67 50.5,63.5C 50.1674,49.1512 50.5007,34.8179 51.5,20.5C 52.1835,20.8627 52.8501,21.1961 53.5,21.5 Z"/></g>
<g><path style="opacity:1" fill="#4e5d37" d="M 81.5,12.5 C 83.371,12.8588 84.871,13.8588 86,15.5C 87.53,23.4357 87.8633,31.4357 87,39.5C 86.79,41.0581 86.29,42.3915 85.5,43.5C 85.8266,34.3178 85.4933,25.3178 84.5,16.5C 83.5,15.1667 82.5,13.8333 81.5,12.5 Z"/></g>
<g><path style="opacity:1" fill="#82c685" d="M 50.5,16.5 C 49.1763,33.0688 49.1763,49.7355 50.5,66.5C 49.1667,66.5 48.5,67.1667 48.5,68.5C 47.448,68.6495 46.448,68.4828 45.5,68C 44.3333,66.1667 42.8333,64.6667 41,63.5C 40.1723,60.3531 38.6723,57.6864 36.5,55.5C 36.3536,47.8044 36.6869,40.1377 37.5,32.5C 38.8699,32.1435 39.8699,31.3102 40.5,30C 42.1901,25.1496 44.5234,20.6496 47.5,16.5C 48.5,15.1667 49.5,15.1667 50.5,16.5 Z"/></g>
<g><path style="opacity:1" fill="#8bb683" d="M 47.5,16.5 C 44.5234,20.6496 42.1901,25.1496 40.5,30C 39.8699,31.3102 38.8699,32.1435 37.5,32.5C 39.3353,26.1484 42.6687,20.815 47.5,16.5 Z"/></g>
<g><path style="opacity:1" fill="#465431" d="M 56.5,22.5 C 57.4959,22.4142 58.3292,22.7476 59,23.5C 61.2505,27.2393 62.7505,31.2393 63.5,35.5C 60.9886,31.3322 58.6552,26.9989 56.5,22.5 Z"/></g>
<g><path style="opacity:1" fill="#5c4137" d="M 84.5,39.5 C 83.3555,44.7041 82.6888,50.0375 82.5,55.5C 82.5,55.8333 82.5,56.1667 82.5,56.5C 80.461,57.911 79.461,59.911 79.5,62.5C 79.5,62.8333 79.5,63.1667 79.5,63.5C 76.9394,65.1505 75.2727,67.4838 74.5,70.5C 73.5,70.5 72.5,70.5 71.5,70.5C 68.5028,73.2259 66.1695,76.5592 64.5,80.5C 62.8561,80.7135 61.3561,80.3802 60,79.5C 57.629,81.5327 57.129,83.8661 58.5,86.5C 58.1667,86.5 57.8333,86.5 57.5,86.5C 53.3482,86.3692 52.6815,84.8692 55.5,82C 54.4844,81.4806 53.8178,80.6473 53.5,79.5C 54.9322,76.6727 55.5988,73.6727 55.5,70.5C 57.2906,67.6789 59.7906,65.6789 63,64.5C 64.8441,58.973 66.0108,53.3063 66.5,47.5C 66.4783,44.4098 65.8117,41.7432 64.5,39.5C 64.5,36.8333 64.5,34.1667 64.5,31.5C 66.8333,31.5 69.1667,31.5 71.5,31.5C 71.5,34.1667 71.5,36.8333 71.5,39.5C 72.8333,39.5 74.1667,39.5 75.5,39.5C 75.5,40.8333 75.5,42.1667 75.5,43.5C 76.5,43.5 77.5,43.5 78.5,43.5C 78.1703,40.843 77.837,38.1764 77.5,35.5C 78.6511,31.5628 79.4844,27.5628 80,23.5C 80.9228,28.4795 81.7561,33.4795 82.5,38.5C 83.1835,38.8627 83.8501,39.1961 84.5,39.5 Z"/></g>
<g><path style="opacity:1" fill="#4a5330" d="M 31.5,9.5 C 27.0403,10.9757 22.3737,12.1424 17.5,13C 16.2899,14.0391 15.2899,15.2058 14.5,16.5C 13.1601,28.3937 13.4934,40.3937 15.5,52.5C 14.037,49.7974 13.2037,46.7974 13,43.5C 12.3333,34.1667 12.3333,24.8333 13,15.5C 14.045,14.6266 14.8783,13.6266 15.5,12.5C 20.5646,10.2357 25.898,9.23568 31.5,9.5 Z"/></g>
<g><path style="opacity:1" fill="#51ac53" d="M 50.5,16.5 C 52.5,16.5 53.5,17.5 53.5,19.5C 53.5,20.1667 53.5,20.8333 53.5,21.5C 52.8501,21.1961 52.1835,20.8627 51.5,20.5C 50.5007,34.8179 50.1674,49.1512 50.5,63.5C 51.8221,63.67 52.9887,63.3366 54,62.5C 56.3062,53.7857 58.8062,45.119 61.5,36.5C 62.7796,43.7044 62.7796,51.0377 61.5,58.5C 61.6495,59.552 61.4828,60.552 61,61.5C 58.2589,64.7289 55.7589,68.0622 53.5,71.5C 52.8333,71.5 52.1667,71.5 51.5,71.5C 51.3713,69.7839 51.038,68.1172 50.5,66.5C 49.1763,49.7355 49.1763,33.0688 50.5,16.5 Z"/></g>
<g><path style="opacity:1" fill="#629c57" d="M 53.5,19.5 C 54.5,20.1667 55.5,20.8333 56.5,21.5C 56.5,21.8333 56.5,22.1667 56.5,22.5C 58.6552,26.9989 60.9886,31.3322 63.5,35.5C 63.2322,37.099 63.5655,38.4324 64.5,39.5C 64.6657,43.8461 64.499,48.1794 64,52.5C 63.9633,54.9739 63.13,56.9739 61.5,58.5C 62.7796,51.0377 62.7796,43.7044 61.5,36.5C 60.2853,32.7622 58.7853,29.0956 57,25.5C 56.3333,24.1667 55.6667,24.1667 55,25.5C 54.79,23.9419 54.29,22.6085 53.5,21.5C 53.5,20.8333 53.5,20.1667 53.5,19.5 Z"/></g>
<g><path style="opacity:1" fill="#8fb586" d="M 37.5,32.5 C 36.6869,40.1377 36.3536,47.8044 36.5,55.5C 34.9942,52.644 34.3275,49.4774 34.5,46C 34.7067,42.4774 35.04,38.9774 35.5,35.5C 36.1667,34.5 36.8333,33.5 37.5,32.5 Z"/></g>
<g><path style="opacity:1" fill="#5b9b56" d="M 15.5,12.5 C 14.8783,13.6266 14.045,14.6266 13,15.5C 12.3333,24.8333 12.3333,34.1667 13,43.5C 13.2037,46.7974 14.037,49.7974 15.5,52.5C 16.2205,56.6886 17.8872,60.3552 20.5,63.5C 20.7036,65.6854 21.3702,67.6854 22.5,69.5C 19.6864,67.9489 18.0198,65.6156 17.5,62.5C 16.4324,61.5655 15.099,61.2322 13.5,61.5C 13.5111,59.4534 13.8444,57.4534 14.5,55.5C 13.2713,52.5189 12.1046,49.5189 11,46.5C 10.3333,36.8333 10.3333,27.1667 11,17.5C 11.1448,14.5088 12.6448,12.8422 15.5,12.5 Z"/></g>
<g><path style="opacity:1" fill="#609455" d="M 85.5,49.5 C 85.323,53.7076 83.9897,57.3743 81.5,60.5C 81.8333,59.1667 82.1667,57.8333 82.5,56.5C 82.5,56.1667 82.5,55.8333 82.5,55.5C 83.5,53.5 84.5,51.5 85.5,49.5 Z"/></g>
<g><path style="opacity:1" fill="#525139" d="M 35.5,35.5 C 35.04,38.9774 34.7067,42.4774 34.5,46C 34.3275,49.4774 34.9942,52.644 36.5,55.5C 36.8782,57.921 37.5448,60.2543 38.5,62.5C 36.9069,61.6521 35.7403,60.3187 35,58.5C 33.4942,51.5667 33.1609,44.5667 34,37.5C 34.2784,36.5842 34.7784,35.9175 35.5,35.5 Z"/></g>
<g><path style="opacity:1" fill="#4f4d30" d="M 64.5,39.5 C 65.8117,41.7432 66.4783,44.4098 66.5,47.5C 66.0108,53.3063 64.8441,58.973 63,64.5C 59.7906,65.6789 57.2906,67.6789 55.5,70.5C 54.8333,70.8333 54.1667,71.1667 53.5,71.5C 55.7589,68.0622 58.2589,64.7289 61,61.5C 61.4828,60.552 61.6495,59.552 61.5,58.5C 63.13,56.9739 63.9633,54.9739 64,52.5C 64.499,48.1794 64.6657,43.8461 64.5,39.5 Z"/></g>
<g><path style="opacity:1" fill="#46562f" d="M 82.5,56.5 C 82.1667,57.8333 81.8333,59.1667 81.5,60.5C 80.8333,61.1667 80.1667,61.8333 79.5,62.5C 79.461,59.911 80.461,57.911 82.5,56.5 Z"/></g>
<g><path style="opacity:1" fill="#4b5a34" d="M 79.5,63.5 C 78.8333,65.1667 78.1667,66.8333 77.5,68.5C 76.5,69.1667 75.5,69.8333 74.5,70.5C 75.2727,67.4838 76.9394,65.1505 79.5,63.5 Z"/></g>
<g><path style="opacity:1" fill="#91b287" d="M 36.5,55.5 C 38.6723,57.6864 40.1723,60.3531 41,63.5C 42.8333,64.6667 44.3333,66.1667 45.5,68C 46.448,68.4828 47.448,68.6495 48.5,68.5C 47.5773,72.0641 47.244,75.7307 47.5,79.5C 46.6829,77.0314 46.1829,74.3647 46,71.5C 43.4816,68.4293 40.9816,65.4293 38.5,62.5C 37.5448,60.2543 36.8782,57.921 36.5,55.5 Z"/></g>
<g><path style="opacity:1" fill="#dbecca" d="M 50.5,66.5 C 51.038,68.1172 51.3713,69.7839 51.5,71.5C 51.5,74.1667 51.5,76.8333 51.5,79.5C 50.1667,79.5 48.8333,79.5 47.5,79.5C 47.244,75.7307 47.5773,72.0641 48.5,68.5C 48.5,67.1667 49.1667,66.5 50.5,66.5 Z"/></g>
<g><path style="opacity:1" fill="#495330" d="M 20.5,63.5 C 23.9359,68.7037 27.6025,73.7037 31.5,78.5C 28.1395,75.8062 25.1395,72.8062 22.5,69.5C 21.3702,67.6854 20.7036,65.6854 20.5,63.5 Z"/></g>
<g><path style="opacity:1" fill="#66965a" d="M 77.5,68.5 C 75.9775,72.564 73.3109,75.564 69.5,77.5C 71.5547,75.4451 73.2213,73.1117 74.5,70.5C 75.5,69.8333 76.5,69.1667 77.5,68.5 Z"/></g>
<g><path style="opacity:1" fill="#4dae4e" d="M 27.5,86.5 C 26.8333,86.5 26.5,86.1667 26.5,85.5C 23.5749,81.2197 20.5749,76.8864 17.5,72.5C 21.4349,71.0515 23.9349,72.3848 25,76.5C 30.0234,77.5843 31.69,80.5843 30,85.5C 29.3292,86.2524 28.4959,86.5858 27.5,86.5 Z"/></g>
<g><path style="opacity:1" fill="#4b5531" d="M 32.5,79.5 C 34.7488,80.0798 36.4154,81.4131 37.5,83.5C 35.2512,82.9202 33.5846,81.5869 32.5,79.5 Z"/></g>
<g><path style="opacity:1" fill="#534a33" d="M 74.5,70.5 C 73.2213,73.1117 71.5547,75.4451 69.5,77.5C 66.1239,80.8782 62.4572,83.8782 58.5,86.5C 57.129,83.8661 57.629,81.5327 60,79.5C 61.3561,80.3802 62.8561,80.7135 64.5,80.5C 66.1695,76.5592 68.5028,73.2259 71.5,70.5C 72.5,70.5 73.5,70.5 74.5,70.5 Z"/></g>
<g><path style="opacity:1" fill="#4d613a" d="M 37.5,83.5 C 39.7488,84.0798 41.4154,85.4131 42.5,87.5C 41.8333,87.5 41.1667,87.5 40.5,87.5C 39.5,86.1667 38.5,84.8333 37.5,83.5 Z"/></g>
<g><path style="opacity:1" fill="#56a655" d="M 17.5,62.5 C 18.0198,65.6156 19.6864,67.9489 22.5,69.5C 25.1395,72.8062 28.1395,75.8062 31.5,78.5C 31.5,79.1667 31.8333,79.5 32.5,79.5C 33.5846,81.5869 35.2512,82.9202 37.5,83.5C 38.5,84.8333 39.5,86.1667 40.5,87.5C 38.2537,87.0639 36.0871,86.3972 34,85.5C 33.5,86.6667 32.6667,87.5 31.5,88C 32.2524,88.6708 32.5858,89.5041 32.5,90.5C 30.8089,89.1363 29.1423,87.803 27.5,86.5C 28.4959,86.5858 29.3292,86.2524 30,85.5C 31.69,80.5843 30.0234,77.5843 25,76.5C 23.9349,72.3848 21.4349,71.0515 17.5,72.5C 20.5749,76.8864 23.5749,81.2197 26.5,85.5C 21.4393,80.7712 17.106,75.4378 13.5,69.5C 14.5,69.5 15.5,69.5 16.5,69.5C 16.6741,67.139 17.0074,64.8056 17.5,62.5 Z"/></g>
<g><path style="opacity:1" fill="#4eac50" d="M 94.5,21.5 C 97.2269,43.607 91.7269,63.2737 78,80.5C 74.1866,85.1603 69.6866,88.827 64.5,91.5C 63.5,91.5 62.5,91.5 61.5,91.5C 61.3433,90.1266 61.51,88.7932 62,87.5C 64.7411,84.2711 67.2411,80.9378 69.5,77.5C 73.3109,75.564 75.9775,72.564 77.5,68.5C 78.1667,66.8333 78.8333,65.1667 79.5,63.5C 79.5,63.1667 79.5,62.8333 79.5,62.5C 80.1667,61.8333 80.8333,61.1667 81.5,60.5C 83.9897,57.3743 85.323,53.7076 85.5,49.5C 85.5,48.8333 85.5,48.1667 85.5,47.5C 86.7498,47.4226 87.5831,46.756 88,45.5C 88.9904,34.0672 88.4904,22.7338 86.5,11.5C 87.8221,11.33 88.9887,11.6634 90,12.5C 90.8221,14.7885 91.4888,17.1218 92,19.5C 92.7083,20.3805 93.5416,21.0472 94.5,21.5 Z"/></g>
<g><path style="opacity:1" fill="#4dad50" d="M 40.5,87.5 C 44.9909,93.1633 50.4909,94.1633 57,90.5C 58.8921,91.6174 59.7254,93.2841 59.5,95.5C 56.9684,96.5957 54.6351,97.9291 52.5,99.5C 50.5,99.5 48.5,99.5 46.5,99.5C 41.4936,96.9987 36.8269,93.9987 32.5,90.5C 32.5858,89.5041 32.2524,88.6708 31.5,88C 32.6667,87.5 33.5,86.6667 34,85.5C 36.0871,86.3972 38.2537,87.0639 40.5,87.5 Z"/></g>
<g><path style="opacity:1" fill="#56a658" d="M 69.5,77.5 C 67.2411,80.9378 64.7411,84.2711 62,87.5C 61.51,88.7932 61.3433,90.1266 61.5,91.5C 62.5,91.5 63.5,91.5 64.5,91.5C 63.0552,93.0627 61.3885,94.396 59.5,95.5C 59.7254,93.2841 58.8921,91.6174 57,90.5C 50.4909,94.1633 44.9909,93.1633 40.5,87.5C 41.1667,87.5 41.8333,87.5 42.5,87.5C 42.8333,87.5 43.1667,87.5 43.5,87.5C 46.8567,91.1037 50.5233,91.437 54.5,88.5C 55.7095,88.0679 56.7095,87.4013 57.5,86.5C 57.8333,86.5 58.1667,86.5 58.5,86.5C 62.4572,83.8782 66.1239,80.8782 69.5,77.5 Z"/></g>
<g><path style="opacity:1" fill="#445432" d="M 43.5,87.5 C 47.1352,88.1143 50.8019,88.4476 54.5,88.5C 50.5233,91.437 46.8567,91.1037 43.5,87.5 Z"/></g>
</svg>
