<?xml version="1.0" encoding="UTF-8"?>
<!DOCTYPE svg PUBLIC "-//W3C//DTD SVG 1.1//EN" "http://www.w3.org/Graphics/SVG/1.1/DTD/svg11.dtd">
<svg xmlns="http://www.w3.org/2000/svg" version="1.1" width="100px" height="100px" style="shape-rendering:geometricPrecision; text-rendering:geometricPrecision; image-rendering:optimizeQuality; fill-rule:evenodd; clip-rule:evenodd" xmlns:xlink="http://www.w3.org/1999/xlink">
<g><path style="opacity:0.757" fill="#6cb776" d="M 27.5,-0.5 C 27.8333,-0.5 28.1667,-0.5 28.5,-0.5C 25.8706,5.05464 22.0373,9.72131 17,13.5C 16.6155,15.1966 16.7822,16.8632 17.5,18.5C 16.8333,18.1667 16.1667,17.8333 15.5,17.5C 14.8902,16.609 14.5569,15.609 14.5,14.5C 19.2294,9.77573 23.5627,4.77573 27.5,-0.5 Z"/></g>
<g><path style="opacity:0.966" fill="#6bb761" d="M 28.5,-0.5 C 28.8333,-0.5 29.1667,-0.5 29.5,-0.5C 29.6695,1.91196 29.0028,4.07863 27.5,6C 29.3513,11.6479 30.018,17.4813 29.5,23.5C 29.9195,25.0936 30.5862,26.5936 31.5,28C 29.8891,30.2097 29.2224,32.7097 29.5,35.5C 28.7794,32.7331 27.1128,30.7331 24.5,29.5C 24.4353,25.8931 22.7686,23.5597 19.5,22.5C 19.1667,21.5 18.5,20.8333 17.5,20.5C 17.5,19.8333 17.5,19.1667 17.5,18.5C 16.7822,16.8632 16.6155,15.1966 17,13.5C 22.0373,9.72131 25.8706,5.05464 28.5,-0.5 Z"/></g>
<g><path style="opacity:0.973" fill="#70ac40" d="M 68.5,-0.5 C 69.5,-0.5 70.5,-0.5 71.5,-0.5C 78.0757,6.28619 84.409,13.2862 90.5,20.5C 89.1667,20.5 87.8333,20.5 86.5,20.5C 86.5,21.5 86.5,22.5 86.5,23.5C 80.5,23.5 74.5,23.5 68.5,23.5C 68.5,15.5 68.5,7.5 68.5,-0.5 Z"/></g>
<g><path style="opacity:0.843" fill="#3d958f" d="M 15.5,17.5 C 16.1667,17.8333 16.8333,18.1667 17.5,18.5C 17.5,19.1667 17.5,19.8333 17.5,20.5C 16.0937,20.0269 15.427,19.0269 15.5,17.5 Z"/></g>
<g><path style="opacity:0.812" fill="#7cbd4c" d="M 29.5,-0.5 C 30.1667,-0.5 30.8333,-0.5 31.5,-0.5C 36.0013,7.84118 41.0013,15.8412 46.5,23.5C 40.3928,23.9443 34.7261,23.9443 29.5,23.5C 30.018,17.4813 29.3513,11.6479 27.5,6C 29.0028,4.07863 29.6695,1.91196 29.5,-0.5 Z"/></g>
<g><path style="opacity:0.827" fill="#258ba8" d="M 14.5,14.5 C 14.5569,15.609 14.8902,16.609 15.5,17.5C 15.427,19.0269 16.0937,20.0269 17.5,20.5C 17.5,21.1667 17.5,21.8333 17.5,22.5C 14.8881,20.9478 13.5548,18.6145 13.5,15.5C 13.5,14.8333 13.8333,14.5 14.5,14.5 Z"/></g>
<g><path style="opacity:0.859" fill="#2f9691" d="M 17.5,20.5 C 18.5,20.8333 19.1667,21.5 19.5,22.5C 19.5,22.8333 19.5,23.1667 19.5,23.5C 18.8333,23.1667 18.1667,22.8333 17.5,22.5C 17.5,21.8333 17.5,21.1667 17.5,20.5 Z"/></g>
<g><path style="opacity:0.969" fill="#59af7d" d="M 19.5,23.5 C 19.5,23.1667 19.5,22.8333 19.5,22.5C 22.7686,23.5597 24.4353,25.8931 24.5,29.5C 23.1667,28.8333 22.1667,27.8333 21.5,26.5C 21.573,24.9731 20.9063,23.9731 19.5,23.5 Z"/></g>
<g><path style="opacity:0.805" fill="#1597d8" d="M 13.5,15.5 C 13.5548,18.6145 14.8881,20.9478 17.5,22.5C 18.1667,22.8333 18.8333,23.1667 19.5,23.5C 19.5,24.1667 19.5,24.8333 19.5,25.5C 19.5,26.1667 19.5,26.8333 19.5,27.5C 20.9264,33.3493 18.9264,35.3493 13.5,33.5C 11.9436,34.5471 10.2769,35.2137 8.5,35.5C 8.33398,30.1563 8.50065,24.8229 9,19.5C 10.3712,17.9586 11.8712,16.6253 13.5,15.5 Z"/></g>
<g><path style="opacity:0.875" fill="#379a91" d="M 19.5,23.5 C 20.9063,23.9731 21.573,24.9731 21.5,26.5C 20.8333,26.1667 20.1667,25.8333 19.5,25.5C 19.5,24.8333 19.5,24.1667 19.5,23.5 Z"/></g>
<g><path style="opacity:0.808" fill="#73b547" d="M 46.5,23.5 C 49.083,26.9974 51.4164,30.6641 53.5,34.5C 52.7784,34.9175 52.2784,35.5842 52,36.5C 49.9783,35.0091 48.3117,35.3424 47,37.5C 41.6128,34.3192 36.1128,33.6525 30.5,35.5C 30.1667,35.5 29.8333,35.5 29.5,35.5C 29.2224,32.7097 29.8891,30.2097 31.5,28C 30.5862,26.5936 29.9195,25.0936 29.5,23.5C 34.7261,23.9443 40.3928,23.9443 46.5,23.5 Z"/></g>
<g><path style="opacity:0.969" fill="#59a87a" d="M 24.5,29.5 C 27.1128,30.7331 28.7794,32.7331 29.5,35.5C 29.5,36.1667 29.5,36.8333 29.5,37.5C 27.0499,35.3709 25.3833,32.7043 24.5,29.5 Z"/></g>
<g><path style="opacity:1" fill="#67a33f" d="M 90.5,20.5 C 90.5,24.1667 90.5,27.8333 90.5,31.5C 88.8958,32.287 88.2291,33.6203 88.5,35.5C 82.5457,35.5237 76.7124,34.8571 71,33.5C 70.6582,35.6192 69.8249,35.9526 68.5,34.5C 68.5,30.8333 68.5,27.1667 68.5,23.5C 74.5,23.5 80.5,23.5 86.5,23.5C 86.5,22.5 86.5,21.5 86.5,20.5C 87.8333,20.5 89.1667,20.5 90.5,20.5 Z"/></g>
<g><path style="opacity:0.827" fill="#2186a3" d="M 19.5,25.5 C 20.1667,25.8333 20.8333,26.1667 21.5,26.5C 22.1667,27.8333 23.1667,28.8333 24.5,29.5C 25.3833,32.7043 27.0499,35.3709 29.5,37.5C 29.5,38.5 29.5,39.5 29.5,40.5C 28.5,40.5 27.5,40.5 26.5,40.5C 26.7852,38.712 26.4519,37.0453 25.5,35.5C 23.673,32.6144 21.673,29.9477 19.5,27.5C 19.5,26.8333 19.5,26.1667 19.5,25.5 Z"/></g>
<g><path style="opacity:0.817" fill="#6ab045" d="M 53.5,34.5 C 54.7368,35.9649 55.7368,37.6316 56.5,39.5C 56.6773,42.8367 57.6773,45.8367 59.5,48.5C 58.1667,48.5 56.8333,48.5 55.5,48.5C 55.5,50.5 55.5,52.5 55.5,54.5C 53.1432,54.3367 50.8098,54.5034 48.5,55C 47.3826,56.8921 45.7159,57.7254 43.5,57.5C 43.5,56.5 43.5,55.5 43.5,54.5C 44.8333,54.5 46.1667,54.5 47.5,54.5C 47.5,51.1667 47.5,47.8333 47.5,44.5C 46.1667,44.5 44.8333,44.5 43.5,44.5C 43.5,45.5 43.5,46.5 43.5,47.5C 41.5,48.1667 39.5,48.8333 37.5,49.5C 37.3832,47.5165 38.0499,45.8498 39.5,44.5C 38.3112,43.5713 36.9778,43.238 35.5,43.5C 35.7678,45.099 35.4345,46.4324 34.5,47.5C 33.3995,46.3951 32.7329,45.0618 32.5,43.5C 32.8685,40.4669 32.2018,37.8002 30.5,35.5C 36.1128,33.6525 41.6128,34.3192 47,37.5C 48.3117,35.3424 49.9783,35.0091 52,36.5C 52.2784,35.5842 52.7784,34.9175 53.5,34.5 Z"/></g>
<g><path style="opacity:0.82" fill="#66b25b" d="M 29.5,35.5 C 29.8333,35.5 30.1667,35.5 30.5,35.5C 32.2018,37.8002 32.8685,40.4669 32.5,43.5C 31.8333,43.5 31.5,43.1667 31.5,42.5C 31.2041,40.597 30.5375,38.9303 29.5,37.5C 29.5,36.8333 29.5,36.1667 29.5,35.5 Z"/></g>
<g><path style="opacity:1" fill="#609c3c" d="M 90.5,31.5 C 90.6669,35.6699 90.0003,39.6699 88.5,43.5C 83.1511,43.8553 77.8178,44.022 72.5,44C 71.9288,42.7949 71.2621,41.6283 70.5,40.5C 69.8243,41.6016 69.1577,42.6016 68.5,43.5C 68.5,40.5 68.5,37.5 68.5,34.5C 69.8249,35.9526 70.6582,35.6192 71,33.5C 76.7124,34.8571 82.5457,35.5237 88.5,35.5C 88.2291,33.6203 88.8958,32.287 90.5,31.5 Z"/></g>
<g><path style="opacity:0.757" fill="#41967a" d="M 29.5,37.5 C 30.5375,38.9303 31.2041,40.597 31.5,42.5C 31.1667,42.5 30.8333,42.5 30.5,42.5C 30.1667,41.8333 29.8333,41.1667 29.5,40.5C 29.5,39.5 29.5,38.5 29.5,37.5 Z"/></g>
<g><path style="opacity:0.82" fill="#148ed3" d="M 19.5,27.5 C 21.673,29.9477 23.673,32.6144 25.5,35.5C 26.4519,37.0453 26.7852,38.712 26.5,40.5C 27.5,40.5 28.5,40.5 29.5,40.5C 29.8333,41.1667 30.1667,41.8333 30.5,42.5C 30.5,44.5 30.5,46.5 30.5,48.5C 28.5329,46.5113 26.1996,45.0113 23.5,44C 18.4682,43.6643 13.4682,43.1643 8.5,42.5C 8.5,40.1667 8.5,37.8333 8.5,35.5C 10.2769,35.2137 11.9436,34.5471 13.5,33.5C 18.9264,35.3493 20.9264,33.3493 19.5,27.5 Z"/></g>
<g><path style="opacity:0.772" fill="#1283cf" d="M 8.5,42.5 C 13.4682,43.1643 18.4682,43.6643 23.5,44C 26.1996,45.0113 28.5329,46.5113 30.5,48.5C 30.5,50.5 30.5,52.5 30.5,54.5C 23.1667,54.5 15.8333,54.5 8.5,54.5C 8.5,50.5 8.5,46.5 8.5,42.5 Z"/></g>
<g><path style="opacity:0.999" fill="#579439" d="M 88.5,43.5 C 88.8254,48.5988 88.3254,53.5988 87,58.5C 85.2458,56.75 83.0792,56.0833 80.5,56.5C 79.2821,59.5195 78.2821,62.6862 77.5,66C 78.773,68.216 78.773,70.3827 77.5,72.5C 76.5,71.1667 75.5,69.8333 74.5,68.5C 73.9305,65.6655 72.2639,63.9988 69.5,63.5C 68.7814,61.2362 68.448,58.9029 68.5,56.5C 68.5,52.1667 68.5,47.8333 68.5,43.5C 69.1577,42.6016 69.8243,41.6016 70.5,40.5C 71.2621,41.6283 71.9288,42.7949 72.5,44C 77.8178,44.022 83.1511,43.8553 88.5,43.5 Z"/></g>
<g><path style="opacity:0.821" fill="#61a744" d="M 56.5,39.5 C 60.4706,45.1455 64.4706,50.8121 68.5,56.5C 68.448,58.9029 68.7814,61.2362 69.5,63.5C 68.009,63.9014 66.3423,64.068 64.5,64C 63.3313,66.0065 62.6646,68.1732 62.5,70.5C 59.6257,70.4511 56.7923,70.7844 54,71.5C 52.3933,70.9265 50.8933,70.2598 49.5,69.5C 44.0184,62.5505 39.0184,55.2172 34.5,47.5C 35.4345,46.4324 35.7678,45.099 35.5,43.5C 36.9778,43.238 38.3112,43.5713 39.5,44.5C 38.0499,45.8498 37.3832,47.5165 37.5,49.5C 39.5,48.8333 41.5,48.1667 43.5,47.5C 43.5,46.5 43.5,45.5 43.5,44.5C 44.8333,44.5 46.1667,44.5 47.5,44.5C 47.5,47.8333 47.5,51.1667 47.5,54.5C 46.1667,54.5 44.8333,54.5 43.5,54.5C 43.5,55.5 43.5,56.5 43.5,57.5C 45.7159,57.7254 47.3826,56.8921 48.5,55C 50.8098,54.5034 53.1432,54.3367 55.5,54.5C 55.5,52.5 55.5,50.5 55.5,48.5C 56.8333,48.5 58.1667,48.5 59.5,48.5C 57.6773,45.8367 56.6773,42.8367 56.5,39.5 Z"/></g>
<g><path style="opacity:0.799" fill="#117cc9" d="M 8.5,54.5 C 15.8333,54.5 23.1667,54.5 30.5,54.5C 30.5,57.5 30.5,60.5 30.5,63.5C 25.5,63.5 20.5,63.5 15.5,63.5C 15.5,64.5 15.5,65.5 15.5,66.5C 13.139,66.3259 10.8056,65.9926 8.5,65.5C 8.5,61.8333 8.5,58.1667 8.5,54.5 Z"/></g>
<g><path style="opacity:1" fill="#518b3c" d="M 90.5,20.5 C 91.8279,40.0041 91.8279,59.6707 90.5,79.5C 88.8394,81.8272 86.8394,83.8272 84.5,85.5C 83.8704,81.5739 82.2037,78.2406 79.5,75.5C 79.573,73.9731 78.9063,72.9731 77.5,72.5C 78.773,70.3827 78.773,68.216 77.5,66C 78.2821,62.6862 79.2821,59.5195 80.5,56.5C 83.0792,56.0833 85.2458,56.75 87,58.5C 88.3254,53.5988 88.8254,48.5988 88.5,43.5C 90.0003,39.6699 90.6669,35.6699 90.5,31.5C 90.5,27.8333 90.5,24.1667 90.5,20.5 Z"/></g>
<g><path style="opacity:0.797" fill="#1074c4" d="M 30.5,63.5 C 30.5,66.1667 30.5,68.8333 30.5,71.5C 25.4889,71.3341 20.4889,71.5007 15.5,72C 13.6975,74.1025 11.3641,74.9358 8.5,74.5C 8.5,71.5 8.5,68.5 8.5,65.5C 10.8056,65.9926 13.139,66.3259 15.5,66.5C 15.5,65.5 15.5,64.5 15.5,63.5C 20.5,63.5 25.5,63.5 30.5,63.5 Z"/></g>
<g><path style="opacity:0.818" fill="#549f3f" d="M 69.5,63.5 C 72.2639,63.9988 73.9305,65.6655 74.5,68.5C 74.5858,69.4959 74.2524,70.3292 73.5,71C 71.8333,71.3333 70.1667,71.6667 68.5,72C 69.1359,74.3938 69.1359,76.8938 68.5,79.5C 66.076,79.1924 63.7427,79.5258 61.5,80.5C 62.9501,81.8498 63.6168,83.5165 63.5,85.5C 62.1667,85.5 60.8333,85.5 59.5,85.5C 55.7709,80.4326 52.4376,75.0993 49.5,69.5C 50.8933,70.2598 52.3933,70.9265 54,71.5C 56.7923,70.7844 59.6257,70.4511 62.5,70.5C 62.6646,68.1732 63.3313,66.0065 64.5,64C 66.3423,64.068 68.009,63.9014 69.5,63.5 Z"/></g>
<g><path style="opacity:0.786" fill="#116cbe" d="M 30.5,71.5 C 30.5,75.1667 30.5,78.8333 30.5,82.5C 25.9696,82.9261 21.803,81.9261 18,79.5C 14.7448,80.2279 13.5781,81.8946 14.5,84.5C 10.375,82.3882 8.37498,79.0549 8.5,74.5C 11.3641,74.9358 13.6975,74.1025 15.5,72C 20.4889,71.5007 25.4889,71.3341 30.5,71.5 Z"/></g>
<g><path style="opacity:0.913" fill="#4f9841" d="M 74.5,68.5 C 75.5,69.8333 76.5,71.1667 77.5,72.5C 78.9063,72.9731 79.573,73.9731 79.5,75.5C 79.5,78.1667 79.5,80.8333 79.5,83.5C 76.1667,83.5 72.8333,83.5 69.5,83.5C 69.3414,86.155 68.3414,88.4883 66.5,90.5C 64.8333,89.5 63.5,88.1667 62.5,86.5C 61.913,87.2334 61.913,88.2334 62.5,89.5C 61.0256,88.5637 60.0256,87.2303 59.5,85.5C 60.8333,85.5 62.1667,85.5 63.5,85.5C 63.6168,83.5165 62.9501,81.8498 61.5,80.5C 63.7427,79.5258 66.076,79.1924 68.5,79.5C 69.1359,76.8938 69.1359,74.3938 68.5,72C 70.1667,71.6667 71.8333,71.3333 73.5,71C 74.2524,70.3292 74.5858,69.4959 74.5,68.5 Z"/></g>
<g><path style="opacity:0.776" fill="#1064b7" d="M 30.5,82.5 C 30.5,88.1667 30.5,93.8333 30.5,99.5C 29.8333,99.5 29.1667,99.5 28.5,99.5C 26.8333,97.5 25.1667,95.5 23.5,93.5C 23.5,91.5 23.5,89.5 23.5,87.5C 21.0971,87.552 18.7638,87.2186 16.5,86.5C 15.5,86.1667 14.8333,85.5 14.5,84.5C 13.5781,81.8946 14.7448,80.2279 18,79.5C 21.803,81.9261 25.9696,82.9261 30.5,82.5 Z"/></g>
<g><path style="opacity:1" fill="#4a943f" d="M 79.5,75.5 C 82.2037,78.2406 83.8704,81.5739 84.5,85.5C 80.1667,90.1667 75.8333,94.8333 71.5,99.5C 70.5,99.5 69.5,99.5 68.5,99.5C 66.3134,96.2663 64.3134,92.9329 62.5,89.5C 61.913,88.2334 61.913,87.2334 62.5,86.5C 63.5,88.1667 64.8333,89.5 66.5,90.5C 68.3414,88.4883 69.3414,86.155 69.5,83.5C 72.8333,83.5 76.1667,83.5 79.5,83.5C 79.5,80.8333 79.5,78.1667 79.5,75.5 Z"/></g>
<g><path style="opacity:0.835" fill="#1062a8" d="M 16.5,86.5 C 18.7638,87.2186 21.0971,87.552 23.5,87.5C 23.5,89.5 23.5,91.5 23.5,93.5C 20.8333,91.5 18.5,89.1667 16.5,86.5 Z"/></g>
</svg>
