<?xml version="1.0" encoding="UTF-8"?>
<!DOCTYPE svg PUBLIC "-//W3C//DTD SVG 1.1//EN" "http://www.w3.org/Graphics/SVG/1.1/DTD/svg11.dtd">
<svg xmlns="http://www.w3.org/2000/svg" version="1.1" width="100px" height="100px" style="shape-rendering:geometricPrecision; text-rendering:geometricPrecision; image-rendering:optimizeQuality; fill-rule:evenodd; clip-rule:evenodd" xmlns:xlink="http://www.w3.org/1999/xlink">
<g><path style="opacity:0.776" fill="#d32952" d="M 68.5,1.5 C 70.4341,2.11028 72.1007,3.11028 73.5,4.5C 70.9664,4.74085 69.2998,3.74085 68.5,1.5 Z"/></g>
<g><path style="opacity:0.988" fill="#df234e" d="M 68.5,1.5 C 69.2998,3.74085 70.9664,4.74085 73.5,4.5C 74.1667,4.5 74.5,4.83333 74.5,5.5C 74.4226,6.74975 73.756,7.58309 72.5,8C 74.089,11.4237 74.4223,14.9237 73.5,18.5C 77.3779,19.8847 77.3779,21.0514 73.5,22C 75.1341,22.4935 76.8008,22.6602 78.5,22.5C 76.7204,28.7799 72.7204,32.9466 66.5,35C 75.9364,35.1123 81.9364,30.6123 84.5,21.5C 85.7079,22.2341 87.0413,22.5674 88.5,22.5C 91.8389,25.8349 94.1722,29.8349 95.5,34.5C 95.0773,36.7812 95.744,38.4479 97.5,39.5C 98.0241,41.3057 98.6908,42.9724 99.5,44.5C 99.5,50.8333 99.5,57.1667 99.5,63.5C 98.6618,63.8417 98.3284,64.5084 98.5,65.5C 97.5041,65.4142 96.6708,65.7476 96,66.5C 95.1785,69.1168 94.6785,71.7835 94.5,74.5C 93.9524,76.3936 92.9524,78.0603 91.5,79.5C 90.6816,76.8929 90.1816,74.2263 90,71.5C 89.3923,73.1545 88.8923,74.8211 88.5,76.5C 87.1529,75.8288 85.9862,75.8288 85,76.5C 83.698,79.3751 82.8647,82.3751 82.5,85.5C 82.573,87.0269 81.9063,88.0269 80.5,88.5C 78.9938,87.7699 77.6605,87.4366 76.5,87.5C 77.0283,86.1526 77.195,84.8193 77,83.5C 73.2059,88.1367 68.7059,91.8034 63.5,94.5C 63.0831,93.8761 62.4164,93.5427 61.5,93.5C 58.6944,95.0638 55.6944,95.7305 52.5,95.5C 54.9938,93.4013 57.3271,91.068 59.5,88.5C 59.3333,88.1667 59.1667,87.8333 59,87.5C 57.2745,88.464 55.4412,89.1307 53.5,89.5C 52.8333,88.8333 52.1667,88.1667 51.5,87.5C 57.3686,82.0989 60.2019,75.4323 60,67.5C 52.5022,83.5475 40.5022,88.2142 24,81.5C 23.5439,80.2559 24.0439,79.4226 25.5,79C 24.944,78.6174 24.6107,78.1174 24.5,77.5C 24.5946,74.3033 23.9279,71.3033 22.5,68.5C 23.7302,63.3005 26.8968,61.6338 32,63.5C 32.6514,65.235 32.4847,66.9017 31.5,68.5C 33.9112,73.1202 36.5778,73.4536 39.5,69.5C 40.1667,69.5 40.8333,69.5 41.5,69.5C 41.4346,69.9382 41.6012,70.2716 42,70.5C 43.0514,68.3732 44.5514,66.7065 46.5,65.5C 47.4419,65.6082 48.2753,65.9415 49,66.5C 49.3845,64.8034 49.2178,63.1368 48.5,61.5C 49.2071,58.2139 49.5405,54.8806 49.5,51.5C 46.0666,49.9119 42.7333,48.0786 39.5,46C 38.0715,45.4209 36.7382,45.5876 35.5,46.5C 28.6561,43.6659 21.6561,42.9992 14.5,44.5C 12.0971,44.552 9.76375,44.2186 7.5,43.5C 7.5,42.8333 7.16667,42.5 6.5,42.5C 6.40775,40.1523 5.40775,38.4856 3.5,37.5C 1.93819,37.2671 0.60486,36.6005 -0.5,35.5C -0.5,33.1667 -0.5,30.8333 -0.5,28.5C -0.166667,28.5 0.166667,28.5 0.5,28.5C 2.43406,27.8897 4.10072,26.8897 5.5,25.5C 11.3148,24.0878 15.9814,20.9211 19.5,16C 30.6764,10.1782 42.3431,9.01154 54.5,12.5C 55.5521,14.256 57.2188,14.9227 59.5,14.5C 60.9525,11.0137 61.6192,7.34699 61.5,3.5C 62.5,3.5 63.5,3.5 64.5,3.5C 64.4346,3.93822 64.6012,4.27155 65,4.5C 65.5831,2.99842 66.4164,1.66508 67.5,0.5C 68.1067,0.62358 68.44,0.956913 68.5,1.5 Z"/></g>
<g><path style="opacity:0.925" fill="#d7274a" d="M 55.5,-0.5 C 57.5,-0.5 59.5,-0.5 61.5,-0.5C 62.853,0.526127 63.853,1.85946 64.5,3.5C 63.5,3.5 62.5,3.5 61.5,3.5C 61.6192,7.34699 60.9525,11.0137 59.5,14.5C 57.2188,14.9227 55.5521,14.256 54.5,12.5C 56.1959,14.129 57.1959,13.7957 57.5,11.5C 58.4511,10.0813 58.7845,8.41467 58.5,6.5C 58.8504,3.54661 57.8504,1.21328 55.5,-0.5 Z"/></g>
<g><path style="opacity:1" fill="#dd225d" d="M 58.5,6.5 C 58.7845,8.41467 58.4511,10.0813 57.5,11.5C 56.3217,9.66213 56.655,7.99546 58.5,6.5 Z"/></g>
<g><path style="opacity:0.991" fill="#dc2353" d="M 74.5,5.5 C 78.8139,10.4243 80.1473,16.091 78.5,22.5C 76.8008,22.6602 75.1341,22.4935 73.5,22C 77.3779,21.0514 77.3779,19.8847 73.5,18.5C 74.4223,14.9237 74.089,11.4237 72.5,8C 73.756,7.58309 74.4226,6.74975 74.5,5.5 Z"/></g>
<g><path style="opacity:1" fill="#d1285a" d="M 88.5,22.5 C 87.0413,22.5674 85.7079,22.2341 84.5,21.5C 84.3505,20.448 84.5172,19.448 85,18.5C 86.3756,19.7051 87.5423,21.0384 88.5,22.5 Z"/></g>
<g><path style="opacity:0.953" fill="#c72e58" d="M 5.5,25.5 C 4.10072,26.8897 2.43406,27.8897 0.5,28.5C 1.40058,26.2729 3.06725,25.2729 5.5,25.5 Z"/></g>
<g><path style="opacity:0.958" fill="#cc2d4e" d="M 3.5,37.5 C 5.40775,38.4856 6.40775,40.1523 6.5,42.5C 4.2729,41.5994 3.2729,39.9328 3.5,37.5 Z"/></g>
<g><path style="opacity:0.996" fill="#d0295c" d="M 95.5,34.5 C 96.5375,35.9303 97.2041,37.597 97.5,39.5C 95.744,38.4479 95.0773,36.7812 95.5,34.5 Z"/></g>
<g><path style="opacity:0.622" fill="#d3285c" d="M 7.5,43.5 C 9.76375,44.2186 12.0971,44.552 14.5,44.5C 13.2673,47.5729 11.7673,47.9062 10,45.5C 8.18703,46.6091 7.35369,45.9424 7.5,43.5 Z"/></g>
<g><path style="opacity:0.975" fill="#da2553" d="M 48.5,61.5 C 45.2581,55.5888 40.9247,50.5888 35.5,46.5C 36.7382,45.5876 38.0715,45.4209 39.5,46C 42.7333,48.0786 46.0666,49.9119 49.5,51.5C 49.5405,54.8806 49.2071,58.2139 48.5,61.5 Z"/></g>
<g><path style="opacity:0.625" fill="#d82b54" d="M 98.5,65.5 C 97.5371,68.7442 96.2038,71.7442 94.5,74.5C 94.6785,71.7835 95.1785,69.1168 96,66.5C 96.6708,65.7476 97.5041,65.4142 98.5,65.5 Z"/></g>
<g><path style="opacity:0.875" fill="#be3353" d="M 41.5,69.5 C 40.8333,69.5 40.1667,69.5 39.5,69.5C 40.6953,65.7139 41.362,65.7139 41.5,69.5 Z"/></g>
<g><path style="opacity:1" fill="#d52855" d="M 22.5,68.5 C 23.9279,71.3033 24.5946,74.3033 24.5,77.5C 22.9821,75.3193 21.9821,72.8193 21.5,70C 21.5699,69.2352 21.9033,68.7352 22.5,68.5 Z"/></g>
<g><path style="opacity:0.904" fill="#d82654" d="M 88.5,76.5 C 87.2307,80.0536 85.2307,83.0536 82.5,85.5C 82.8647,82.3751 83.698,79.3751 85,76.5C 85.9862,75.8288 87.1529,75.8288 88.5,76.5 Z"/></g>
<g><path style="opacity:0.943" fill="#d62754" d="M 76.5,87.5 C 77.6605,87.4366 78.9938,87.7699 80.5,88.5C 79.5,90.1667 78.1667,91.5 76.5,92.5C 76.1583,91.6618 75.4916,91.3284 74.5,91.5C 74.6596,89.847 75.3263,88.5137 76.5,87.5 Z"/></g>
<g><path style="opacity:0.408" fill="#ae3a53" d="M 51.5,87.5 C 52.1667,88.1667 52.8333,88.8333 53.5,89.5C 52.1266,89.6567 50.7932,89.49 49.5,89C 50.0442,88.2828 50.7109,87.7828 51.5,87.5 Z"/></g>
<g><path style="opacity:0.816" fill="#e02449" d="M 74.5,91.5 C 75.4916,91.3284 76.1583,91.6618 76.5,92.5C 75.2058,93.2899 74.0391,94.2899 73,95.5C 72.2274,93.6476 72.7274,92.3143 74.5,91.5 Z"/></g>
<g><path style="opacity:0.931" fill="#d5254e" d="M 63.5,94.5 C 59.6509,96.5599 55.6509,98.2266 51.5,99.5C 49.5,99.5 47.5,99.5 45.5,99.5C 47.6626,97.9172 49.9959,96.5839 52.5,95.5C 55.6944,95.7305 58.6944,95.0638 61.5,93.5C 62.4164,93.5427 63.0831,93.8761 63.5,94.5 Z"/></g>
</svg>
