<?xml version="1.0" encoding="UTF-8"?>
<!DOCTYPE svg PUBLIC "-//W3C//DTD SVG 1.1//EN" "http://www.w3.org/Graphics/SVG/1.1/DTD/svg11.dtd">
<svg xmlns="http://www.w3.org/2000/svg" version="1.1" width="100px" height="100px" style="shape-rendering:geometricPrecision; text-rendering:geometricPrecision; image-rendering:optimizeQuality; fill-rule:evenodd; clip-rule:evenodd" xmlns:xlink="http://www.w3.org/1999/xlink">
<g><path style="opacity:0.989" fill="#089806" d="M 45.5,-0.5 C 47.8333,-0.5 50.1667,-0.5 52.5,-0.5C 65.8024,7.48735 79.1357,15.4874 92.5,23.5C 93.8189,40.8678 93.8189,58.2011 92.5,75.5C 79.0058,83.5657 65.6724,91.5657 52.5,99.5C 50.1667,99.5 47.8333,99.5 45.5,99.5C 32.8402,91.5616 19.8402,83.895 6.5,76.5C 5.33369,58.8428 5.16702,41.1761 6,23.5C 19.3048,15.5827 32.4715,7.58267 45.5,-0.5 Z"/></g>
<g><path style="opacity:1" fill="#fdfdfd" d="M 35.5,28.5 C 36.8333,29.5 38.1667,30.5 39.5,31.5C 39.3573,33.2624 39.6906,34.9291 40.5,36.5C 39.1182,38.5486 37.4516,40.2153 35.5,41.5C 35.1667,41.5 34.8333,41.5 34.5,41.5C 33.8826,41.6107 33.3826,41.944 33,42.5C 32.8321,51.8511 32.3321,61.1845 31.5,70.5C 30.1585,72.0049 28.4918,72.6715 26.5,72.5C 26.3334,58.8293 26.5001,45.1626 27,31.5C 28.9562,31.2155 31.1229,31.2155 33.5,31.5C 33.2852,29.8212 33.9519,28.8212 35.5,28.5 Z"/></g>
<g><path style="opacity:1" fill="#fbfdfb" d="M 72.5,71.5 C 69.2356,72.3242 65.9023,72.6576 62.5,72.5C 59.8161,68.4882 57.1495,64.4882 54.5,60.5C 54.0338,58.7988 54.0338,57.2988 54.5,56C 55.5,55.3333 56.5,55.3333 57.5,56C 59.5961,58.8901 61.5961,59.0567 63.5,56.5C 64.3068,47.2437 64.8068,37.9104 65,28.5C 67.0749,26.3517 69.4082,26.0183 72,27.5C 72.4999,42.1629 72.6666,56.8295 72.5,71.5 Z"/></g>
<g><path style="opacity:1" fill="#cafdc9" d="M 39.5,31.5 C 38.1667,30.5 36.8333,29.5 35.5,28.5C 31.9135,24.9281 28.4135,24.9281 25,28.5C 24.5001,42.8295 24.3334,57.1628 24.5,71.5C 23.8333,71.5 23.5,71.1667 23.5,70.5C 23.3334,56.1628 23.5001,41.8295 24,27.5C 24.7172,26.9558 25.2172,26.2891 25.5,25.5C 31.9819,23.4341 36.6486,25.4341 39.5,31.5 Z"/></g>
<g><path style="opacity:1" fill="#d7fbd8" d="M 72.5,71.5 C 72.6666,56.8295 72.4999,42.1629 72,27.5C 69.4082,26.0183 67.0749,26.3517 65,28.5C 64.8068,37.9104 64.3068,47.2437 63.5,56.5C 63.1667,56.5 62.8333,56.5 62.5,56.5C 62.1926,46.4176 62.5259,36.4176 63.5,26.5C 66.5962,23.8752 69.7629,23.8752 73,26.5C 73.8277,41.6723 73.6611,56.6723 72.5,71.5 Z"/></g>
<g><path style="opacity:1" fill="#41b33c" d="M 25.5,25.5 C 25.2172,26.2891 24.7172,26.9558 24,27.5C 23.5001,41.8295 23.3334,56.1628 23.5,70.5C 22.5039,55.676 22.1706,40.676 22.5,25.5C 23.5,25.5 24.5,25.5 25.5,25.5 Z"/></g>
<g><path style="opacity:1" fill="#f3fdf2" d="M 39.5,31.5 C 43.5246,34.5579 46.8579,38.2245 49.5,42.5C 49.427,44.0269 50.0937,45.0269 51.5,45.5C 52.3163,48.1073 53.9829,50.1073 56.5,51.5C 58.5497,53.2368 60.383,55.2368 62,57.5C 62.3988,57.2716 62.5654,56.9382 62.5,56.5C 62.8333,56.5 63.1667,56.5 63.5,56.5C 61.5961,59.0567 59.5961,58.8901 57.5,56C 56.5,55.3333 55.5,55.3333 54.5,56C 54.0338,57.2988 54.0338,58.7988 54.5,60.5C 52.8726,58.5363 50.8726,57.203 48.5,56.5C 45.5095,53.2077 42.5095,49.8743 39.5,46.5C 38.1667,44.8333 36.8333,43.1667 35.5,41.5C 37.4516,40.2153 39.1182,38.5486 40.5,36.5C 39.6906,34.9291 39.3573,33.2624 39.5,31.5 Z"/></g>
<g><path style="opacity:1" fill="#b4f0b2" d="M 49.5,42.5 C 50.1667,42.8333 50.8333,43.1667 51.5,43.5C 51.5,44.1667 51.5,44.8333 51.5,45.5C 50.0937,45.0269 49.427,44.0269 49.5,42.5 Z"/></g>
<g><path style="opacity:1" fill="#eafeeb" d="M 35.5,28.5 C 33.9519,28.8212 33.2852,29.8212 33.5,31.5C 31.1229,31.2155 28.9562,31.2155 27,31.5C 26.5001,45.1626 26.3334,58.8293 26.5,72.5C 28.4918,72.6715 30.1585,72.0049 31.5,70.5C 32.3321,61.1845 32.8321,51.8511 33,42.5C 33.3826,41.944 33.8826,41.6107 34.5,41.5C 34.5,51.1667 34.5,60.8333 34.5,70.5C 33.488,72.876 31.6546,73.876 29,73.5C 26.9919,73.6932 25.4919,73.0265 24.5,71.5C 24.3334,57.1628 24.5001,42.8295 25,28.5C 28.4135,24.9281 31.9135,24.9281 35.5,28.5 Z"/></g>
<g><path style="opacity:1" fill="#1b931b" d="M 63.5,26.5 C 62.5259,36.4176 62.1926,46.4176 62.5,56.5C 62.5654,56.9382 62.3988,57.2716 62,57.5C 60.383,55.2368 58.5497,53.2368 56.5,51.5C 55.5806,48.9108 53.914,46.9108 51.5,45.5C 51.5,44.8333 51.5,44.1667 51.5,43.5C 52.9778,43.238 54.3112,43.5713 55.5,44.5C 54.3595,45.4255 54.3595,46.2588 55.5,47C 57.1341,47.4935 58.8008,47.6602 60.5,47.5C 60.3338,41.1579 60.5005,34.8246 61,28.5C 61.4169,27.244 62.2502,26.5774 63.5,26.5 Z"/></g>
<g><path style="opacity:1" fill="#c8f1cd" d="M 51.5,45.5 C 53.914,46.9108 55.5806,48.9108 56.5,51.5C 53.9829,50.1073 52.3163,48.1073 51.5,45.5 Z"/></g>
<g><path style="opacity:1" fill="#4da94c" d="M 34.5,41.5 C 34.8333,41.5 35.1667,41.5 35.5,41.5C 36.8333,43.1667 38.1667,44.8333 39.5,46.5C 38.1779,46.67 37.0113,46.3366 36,45.5C 35.8294,54.0101 35.3294,62.3434 34.5,70.5C 34.5,60.8333 34.5,51.1667 34.5,41.5 Z"/></g>
<g><path style="opacity:1" fill="#d8fcd9" d="M 48.5,56.5 C 50.8726,57.203 52.8726,58.5363 54.5,60.5C 57.1495,64.4882 59.8161,68.4882 62.5,72.5C 56.9282,68.0696 52.2616,62.7363 48.5,56.5 Z"/></g>
<g><path style="opacity:1" fill="#cffed3" d="M 72.5,71.5 C 69.4476,74.9795 66.1143,75.3128 62.5,72.5C 65.9023,72.6576 69.2356,72.3242 72.5,71.5 Z"/></g>
</svg>
