<?xml version="1.0" encoding="UTF-8"?>
<!DOCTYPE svg PUBLIC "-//W3C//DTD SVG 1.1//EN" "http://www.w3.org/Graphics/SVG/1.1/DTD/svg11.dtd">
<svg xmlns="http://www.w3.org/2000/svg" version="1.1" width="100px" height="100px" style="shape-rendering:geometricPrecision; text-rendering:geometricPrecision; image-rendering:optimizeQuality; fill-rule:evenodd; clip-rule:evenodd" xmlns:xlink="http://www.w3.org/1999/xlink">
<g><path style="opacity:1" fill="#ca3936" d="M -0.5,30.5 C 32.8333,30.5 66.1667,30.5 99.5,30.5C 99.5,30.8333 99.5,31.1667 99.5,31.5C 96.1016,31.1796 92.7683,31.513 89.5,32.5C 89.1373,33.1835 88.8039,33.8501 88.5,34.5C 73.2838,34.8533 58.1171,34.1866 43,32.5C 39.6826,33.4412 36.5159,34.4412 33.5,35.5C 33.1667,35.5 32.8333,35.5 32.5,35.5C 25.9435,34.6055 25.9435,33.6055 32.5,32.5C 31.5,32.1667 30.5,31.8333 29.5,31.5C 21.1987,32.6526 13.1987,33.986 5.5,35.5C 4.83333,35.5 4.5,35.8333 4.5,36.5C 3.17237,44.5683 3.17237,52.735 4.5,61C 6.76317,60.976 9.0965,60.8093 11.5,60.5C 13.8244,60.7293 15.9911,61.396 18,62.5C 21.4669,61.3728 24.6336,60.0394 27.5,58.5C 27.5,58.1667 27.5,57.8333 27.5,57.5C 28.5,57.5 29.5,57.5 30.5,57.5C 30.2739,60.2492 30.6072,62.9159 31.5,65.5C 30.3315,67.2174 28.6648,67.8841 26.5,67.5C 26.5,66.5 26.5,65.5 26.5,64.5C 17.5,64.5 8.5,64.5 -0.5,64.5C -0.5,53.1667 -0.5,41.8333 -0.5,30.5 Z"/></g>
<g><path style="opacity:1" fill="#fcfcfc" d="M 22.5,41.5 C 22.1667,41.5 21.8333,41.5 21.5,41.5C 19.8333,41.5 18.1667,41.5 16.5,41.5C 15.5119,46.6405 15.1786,51.9738 15.5,57.5C 11.6707,58.069 8.33732,57.4023 5.5,55.5C 6.18575,49.7661 6.85242,43.9328 7.5,38C 13.5,37.3333 19.5,37.3333 25.5,38C 24.1667,39 24.1667,40 25.5,41C 24.552,41.4828 23.552,41.6495 22.5,41.5 Z"/></g>
<g><path style="opacity:1" fill="#fefafb" d="M 88.5,42.5 C 86.7354,41.5386 84.7354,41.2053 82.5,41.5C 82.5,46.8333 82.5,52.1667 82.5,57.5C 81.9032,58.1386 81.0698,58.472 80,58.5C 78.6244,58.3158 77.7911,57.6491 77.5,56.5C 77.5,51.5 77.5,46.5 77.5,41.5C 75.2646,41.2053 73.2646,41.5386 71.5,42.5C 70.5139,46.97 70.1805,51.6367 70.5,56.5C 67.8333,56.5 65.1667,56.5 62.5,56.5C 62.3338,50.1579 62.5005,43.8246 63,37.5C 72.6667,38.8333 82.3333,38.8333 92,37.5C 92.6667,42.5 92.6667,47.5 92,52.5C 91.7508,53.624 91.2508,54.624 90.5,55.5C 89.8331,51.0178 89.1664,46.6845 88.5,42.5 Z"/></g>
<g><path style="opacity:1" fill="#e8979b" d="M 5.5,35.5 C 13.0191,35.175 20.3524,35.5084 27.5,36.5C 27.1667,36.5 26.8333,36.5 26.5,36.5C 19.5,36.5 12.5,36.5 5.5,36.5C 5.5,42.8333 5.5,49.1667 5.5,55.5C 8.33732,57.4023 11.6707,58.069 15.5,57.5C 15.1786,51.9738 15.5119,46.6405 16.5,41.5C 16.5,46.1667 16.5,50.8333 16.5,55.5C 16.5,56.5 16.5,57.5 16.5,58.5C 12.5,58.5 8.5,58.5 4.5,58.5C 4.5,51.1667 4.5,43.8333 4.5,36.5C 4.5,35.8333 4.83333,35.5 5.5,35.5 Z"/></g>
<g><path style="opacity:1" fill="#f8c2c4" d="M 26.5,36.5 C 26.8333,36.5 27.1667,36.5 27.5,36.5C 27.5,43.5 27.5,50.5 27.5,57.5C 27.5,57.8333 27.5,58.1667 27.5,58.5C 25.5,58.5 23.5,58.5 21.5,58.5C 21.5,52.8333 21.5,47.1667 21.5,41.5C 21.8333,41.5 22.1667,41.5 22.5,41.5C 22.5,46.8333 22.5,52.1667 22.5,57.5C 23.8333,57.5 25.1667,57.5 26.5,57.5C 26.5,50.5 26.5,43.5 26.5,36.5 Z"/></g>
<g><path style="opacity:1" fill="#ba4140" d="M 88.5,34.5 C 90.4147,34.2155 92.0813,34.5489 93.5,35.5C 82.5,35.5 71.5,35.5 60.5,35.5C 60.5,43.1667 60.5,50.8333 60.5,58.5C 64.1667,58.5 67.8333,58.5 71.5,58.5C 67.9707,60.4228 63.9707,61.0894 59.5,60.5C 58.8968,52.8574 58.2301,45.1907 57.5,37.5C 56.8333,44.3214 56.1666,50.9881 55.5,57.5C 55.5,50.1667 55.5,42.8333 55.5,35.5C 48.1667,35.5 40.8333,35.5 33.5,35.5C 36.5159,34.4412 39.6826,33.4412 43,32.5C 58.1171,34.1866 73.2838,34.8533 88.5,34.5 Z"/></g>
<g><path style="opacity:1" fill="#fef1f3" d="M 93.5,36.5 C 93.5,43.5 93.5,50.5 93.5,57.5C 91.8333,57.5 90.1667,57.5 88.5,57.5C 88.5,52.5 88.5,47.5 88.5,42.5C 89.1664,46.6845 89.8331,51.0178 90.5,55.5C 91.2508,54.624 91.7508,53.624 92,52.5C 92.6667,47.5 92.6667,42.5 92,37.5C 82.3333,38.8333 72.6667,38.8333 63,37.5C 62.5005,43.8246 62.3338,50.1579 62.5,56.5C 65.1667,56.5 67.8333,56.5 70.5,56.5C 70.1805,51.6367 70.5139,46.97 71.5,42.5C 71.5,47.5 71.5,52.5 71.5,57.5C 68.1667,57.5 64.8333,57.5 61.5,57.5C 61.5,50.5 61.5,43.5 61.5,36.5C 72.1667,36.5 82.8333,36.5 93.5,36.5 Z"/></g>
<g><path style="opacity:1" fill="#fff4f5" d="M 26.5,36.5 C 26.5,43.5 26.5,50.5 26.5,57.5C 25.1667,57.5 23.8333,57.5 22.5,57.5C 22.5,52.1667 22.5,46.8333 22.5,41.5C 23.552,41.6495 24.552,41.4828 25.5,41C 24.1667,40 24.1667,39 25.5,38C 19.5,37.3333 13.5,37.3333 7.5,38C 6.85242,43.9328 6.18575,49.7661 5.5,55.5C 5.5,49.1667 5.5,42.8333 5.5,36.5C 12.5,36.5 19.5,36.5 26.5,36.5 Z"/></g>
<g><path style="opacity:1" fill="#bd403d" d="M 32.5,35.5 C 32.1731,45.015 32.5064,54.3483 33.5,63.5C 36.8333,63.5 40.1667,63.5 43.5,63.5C 44.4511,62.0813 44.7845,60.4147 44.5,58.5C 48.1667,58.5 51.8333,58.5 55.5,58.5C 55.3893,59.1174 55.056,59.6174 54.5,60C 51.5184,60.498 48.5184,60.6646 45.5,60.5C 45.33,61.8221 45.6634,62.9887 46.5,64C 44.1667,65 41.8333,66 39.5,67C 42.9582,68.4155 46.6249,68.9155 50.5,68.5C 46.6812,69.1656 42.6812,69.4989 38.5,69.5C 34.107,69.4907 30.107,68.824 26.5,67.5C 28.6648,67.8841 30.3315,67.2174 31.5,65.5C 30.6072,62.9159 30.2739,60.2492 30.5,57.5C 29.5,57.5 28.5,57.5 27.5,57.5C 27.5,50.5 27.5,43.5 27.5,36.5C 20.3524,35.5084 13.0191,35.175 5.5,35.5C 13.1987,33.986 21.1987,32.6526 29.5,31.5C 30.5,31.8333 31.5,32.1667 32.5,32.5C 25.9435,33.6055 25.9435,34.6055 32.5,35.5 Z"/></g>
<g><path style="opacity:1" fill="#c46d6c" d="M 77.5,56.5 C 76.5139,52.03 76.1805,47.3633 76.5,42.5C 75.1667,42.5 73.8333,42.5 72.5,42.5C 72.8214,48.0262 72.4881,53.3595 71.5,58.5C 71.5,58.1667 71.5,57.8333 71.5,57.5C 71.5,52.5 71.5,47.5 71.5,42.5C 73.2646,41.5386 75.2646,41.2053 77.5,41.5C 77.5,46.5 77.5,51.5 77.5,56.5 Z"/></g>
<g><path style="opacity:1" fill="#b3534d" d="M 88.5,42.5 C 88.5,47.5 88.5,52.5 88.5,57.5C 86.7195,53.2726 85.8862,48.6059 86,43.5C 84.8896,48.1723 84.0563,52.839 83.5,57.5C 83.1667,57.5 82.8333,57.5 82.5,57.5C 82.5,52.1667 82.5,46.8333 82.5,41.5C 84.7354,41.2053 86.7354,41.5386 88.5,42.5 Z"/></g>
<g><path style="opacity:1" fill="#c83938" d="M 99.5,31.5 C 99.5,42.5 99.5,53.5 99.5,64.5C 90.1667,64.5 80.8333,64.5 71.5,64.5C 71.5,64.1667 71.5,63.8333 71.5,63.5C 73.5,63.5 75.5,63.5 77.5,63.5C 77.5,62.5 77.5,61.5 77.5,60.5C 79.1992,60.6602 80.8659,60.4935 82.5,60C 83.2524,59.3292 83.5858,58.4959 83.5,57.5C 84.0563,52.839 84.8896,48.1723 86,43.5C 85.8862,48.6059 86.7195,53.2726 88.5,57.5C 90.2646,58.4614 92.2646,58.7947 94.5,58.5C 94.825,50.9809 94.4916,43.6476 93.5,36.5C 93.5,36.1667 93.5,35.8333 93.5,35.5C 92.0813,34.5489 90.4147,34.2155 88.5,34.5C 88.8039,33.8501 89.1373,33.1835 89.5,32.5C 92.7683,31.513 96.1016,31.1796 99.5,31.5 Z"/></g>
<g><path style="opacity:1" fill="#f1b0b3" d="M 93.5,35.5 C 93.5,35.8333 93.5,36.1667 93.5,36.5C 82.8333,36.5 72.1667,36.5 61.5,36.5C 61.5,43.5 61.5,50.5 61.5,57.5C 64.8333,57.5 68.1667,57.5 71.5,57.5C 71.5,57.8333 71.5,58.1667 71.5,58.5C 67.8333,58.5 64.1667,58.5 60.5,58.5C 60.5,50.8333 60.5,43.1667 60.5,35.5C 71.5,35.5 82.5,35.5 93.5,35.5 Z"/></g>
<g><path style="opacity:1" fill="#ec9796" d="M 93.5,36.5 C 94.4916,43.6476 94.825,50.9809 94.5,58.5C 92.2646,58.7947 90.2646,58.4614 88.5,57.5C 90.1667,57.5 91.8333,57.5 93.5,57.5C 93.5,50.5 93.5,43.5 93.5,36.5 Z"/></g>
<g><path style="opacity:1" fill="#ae4547" d="M 16.5,41.5 C 18.1667,41.5 19.8333,41.5 21.5,41.5C 21.5,47.1667 21.5,52.8333 21.5,58.5C 20.5128,53.6946 20.1795,48.6946 20.5,43.5C 19.5,43.5 18.5,43.5 17.5,43.5C 17.8168,47.7016 17.4834,51.7016 16.5,55.5C 16.5,50.8333 16.5,46.1667 16.5,41.5 Z"/></g>
<g><path style="opacity:1" fill="#ebaba8" d="M 32.5,35.5 C 32.8333,35.5 33.1667,35.5 33.5,35.5C 40.8333,35.5 48.1667,35.5 55.5,35.5C 55.5,42.8333 55.5,50.1667 55.5,57.5C 55.5,57.8333 55.5,58.1667 55.5,58.5C 51.8333,58.5 48.1667,58.5 44.5,58.5C 44.7845,60.4147 44.4511,62.0813 43.5,63.5C 43.5,61.8333 43.5,60.1667 43.5,58.5C 43.8417,57.6618 44.5084,57.3284 45.5,57.5C 48.5,57.5 51.5,57.5 54.5,57.5C 54.5,50.5 54.5,43.5 54.5,36.5C 47.5,36.5 40.5,36.5 33.5,36.5C 33.5,45.5 33.5,54.5 33.5,63.5C 32.5064,54.3483 32.1731,45.015 32.5,35.5 Z"/></g>
<g><path style="opacity:1" fill="#fefcfc" d="M 49.5,41.5 C 47.5,41.5 45.5,41.5 43.5,41.5C 43.5,45.1667 43.5,48.8333 43.5,52.5C 44.3984,53.1577 45.3984,53.8243 46.5,54.5C 45.8728,55.4168 45.5394,56.4168 45.5,57.5C 44.5084,57.3284 43.8417,57.6618 43.5,58.5C 42.5655,59.5676 42.2322,60.901 42.5,62.5C 39.8333,62.5 37.1667,62.5 34.5,62.5C 34.5,54.5 34.5,46.5 34.5,38.5C 40.1296,37.4793 45.7963,37.3127 51.5,38C 53.7971,40.7788 53.9637,43.6121 52,46.5C 51.6264,44.5087 50.793,42.842 49.5,41.5 Z"/></g>
<g><path style="opacity:1" fill="#c73a37" d="M 59.5,60.5 C 63.1529,62.4032 67.1529,63.4032 71.5,63.5C 71.5,63.8333 71.5,64.1667 71.5,64.5C 64.5,64.5 57.5,64.5 50.5,64.5C 50.5,65.8333 50.5,67.1667 50.5,68.5C 46.6249,68.9155 42.9582,68.4155 39.5,67C 41.8333,66 44.1667,65 46.5,64C 45.6634,62.9887 45.33,61.8221 45.5,60.5C 48.5184,60.6646 51.5184,60.498 54.5,60C 55.056,59.6174 55.3893,59.1174 55.5,58.5C 55.5,58.1667 55.5,57.8333 55.5,57.5C 56.1666,50.9881 56.8333,44.3214 57.5,37.5C 58.2301,45.1907 58.8968,52.8574 59.5,60.5 Z"/></g>
<g><path style="opacity:1" fill="#bf3d3d" d="M 4.5,36.5 C 4.5,43.8333 4.5,51.1667 4.5,58.5C 8.5,58.5 12.5,58.5 16.5,58.5C 16.5,57.5 16.5,56.5 16.5,55.5C 17.4834,51.7016 17.8168,47.7016 17.5,43.5C 18.5,43.5 19.5,43.5 20.5,43.5C 20.1795,48.6946 20.5128,53.6946 21.5,58.5C 23.5,58.5 25.5,58.5 27.5,58.5C 24.6336,60.0394 21.4669,61.3728 18,62.5C 15.9911,61.396 13.8244,60.7293 11.5,60.5C 9.0965,60.8093 6.76317,60.976 4.5,61C 3.17237,52.735 3.17237,44.5683 4.5,36.5 Z"/></g>
<g><path style="opacity:1" fill="#c53b3a" d="M 77.5,56.5 C 77.7911,57.6491 78.6244,58.3158 80,58.5C 81.0698,58.472 81.9032,58.1386 82.5,57.5C 82.8333,57.5 83.1667,57.5 83.5,57.5C 83.5858,58.4959 83.2524,59.3292 82.5,60C 80.8659,60.4935 79.1992,60.6602 77.5,60.5C 77.5,61.5 77.5,62.5 77.5,63.5C 75.5,63.5 73.5,63.5 71.5,63.5C 67.1529,63.4032 63.1529,62.4032 59.5,60.5C 63.9707,61.0894 67.9707,60.4228 71.5,58.5C 72.4881,53.3595 72.8214,48.0262 72.5,42.5C 73.8333,42.5 75.1667,42.5 76.5,42.5C 76.1805,47.3633 76.5139,52.03 77.5,56.5 Z"/></g>
<g><path style="opacity:1" fill="#fff2f2" d="M 45.5,57.5 C 45.5394,56.4168 45.8728,55.4168 46.5,54.5C 45.3984,53.8243 44.3984,53.1577 43.5,52.5C 45.5,52.5 47.5,52.5 49.5,52.5C 49.5,48.8333 49.5,45.1667 49.5,41.5C 50.793,42.842 51.6264,44.5087 52,46.5C 53.9637,43.6121 53.7971,40.7788 51.5,38C 45.7963,37.3127 40.1296,37.4793 34.5,38.5C 34.5,46.5 34.5,54.5 34.5,62.5C 37.1667,62.5 39.8333,62.5 42.5,62.5C 42.2322,60.901 42.5655,59.5676 43.5,58.5C 43.5,60.1667 43.5,61.8333 43.5,63.5C 40.1667,63.5 36.8333,63.5 33.5,63.5C 33.5,54.5 33.5,45.5 33.5,36.5C 40.5,36.5 47.5,36.5 54.5,36.5C 54.5,43.5 54.5,50.5 54.5,57.5C 51.5,57.5 48.5,57.5 45.5,57.5 Z"/></g>
<g><path style="opacity:1" fill="#c26a6a" d="M 49.5,41.5 C 49.5,45.1667 49.5,48.8333 49.5,52.5C 47.5,52.5 45.5,52.5 43.5,52.5C 43.5,48.8333 43.5,45.1667 43.5,41.5C 45.5,41.5 47.5,41.5 49.5,41.5 Z"/></g>
<g><path style="opacity:1" fill="#ba3f40" d="M 44.5,42.5 C 45.8333,42.5 47.1667,42.5 48.5,42.5C 48.5,45.5 48.5,48.5 48.5,51.5C 47.1667,51.5 45.8333,51.5 44.5,51.5C 44.5,48.5 44.5,45.5 44.5,42.5 Z"/></g>
</svg>
