<?xml version="1.0" encoding="UTF-8"?>
<!DOCTYPE svg PUBLIC "-//W3C//DTD SVG 1.1//EN" "http://www.w3.org/Graphics/SVG/1.1/DTD/svg11.dtd">
<svg xmlns="http://www.w3.org/2000/svg" version="1.1" width="100px" height="100px" style="shape-rendering:geometricPrecision; text-rendering:geometricPrecision; image-rendering:optimizeQuality; fill-rule:evenodd; clip-rule:evenodd" xmlns:xlink="http://www.w3.org/1999/xlink">
<g><path style="opacity:0.689" fill="#58a850" d="M 45.5,-0.5 C 46.1667,-0.5 46.8333,-0.5 47.5,-0.5C 47.6621,1.5273 47.4955,3.5273 47,5.5C 46.6174,4.94404 46.1174,4.61071 45.5,4.5C 44.1667,4.5 42.8333,4.5 41.5,4.5C 42.1667,3.5 42.8333,2.5 43.5,1.5C 44.1667,0.833333 44.8333,0.166667 45.5,-0.5 Z"/></g>
<g><path style="opacity:0.835" fill="#6ba047" d="M 43.5,1.5 C 42.8333,2.5 42.1667,3.5 41.5,4.5C 40.5,4.5 39.5,4.5 38.5,4.5C 39.8993,3.11028 41.5659,2.11028 43.5,1.5 Z"/></g>
<g><path style="opacity:0.999" fill="#4d9842" d="M 63.5,6.5 C 65.153,6.6596 66.4863,7.32627 67.5,8.5C 65.744,9.55213 65.0773,11.2188 65.5,13.5C 67.5273,13.6621 69.5273,13.4955 71.5,13C 69.6243,12.0816 68.6243,10.5816 68.5,8.5C 71.7089,10.2651 74.7089,12.2651 77.5,14.5C 75.7581,17.1445 75.0914,20.1445 75.5,23.5C 78.5,23.1667 79.8333,24.5 79.5,27.5C 80.8333,27.5 82.1667,27.5 83.5,27.5C 83.3398,29.1992 83.5065,30.8659 84,32.5C 85.0113,31.6634 86.1779,31.33 87.5,31.5C 84.5917,35.9831 82.2584,40.6498 80.5,45.5C 79.7109,45.2172 79.0442,44.7172 78.5,44C 79.3802,42.6439 79.7135,41.1439 79.5,39.5C 78.1667,39.5 76.8333,39.5 75.5,39.5C 75.5,38.1667 75.5,36.8333 75.5,35.5C 73.8333,35.5 72.1667,35.5 70.5,35.5C 68.854,51.24 67.854,67.0733 67.5,83C 67.9172,85.4979 68.2505,87.9979 68.5,90.5C 65.8068,91.8466 63.1401,93.1799 60.5,94.5C 60.7214,93.2652 61.3881,92.2652 62.5,91.5C 61.1468,90.4763 60.4802,89.143 60.5,87.5C 61.5,87.5 62.5,87.5 63.5,87.5C 63.6666,65.8308 63.5,44.1641 63,22.5C 61.3838,20.2867 60.2172,17.9534 59.5,15.5C 59.5,14.1667 59.5,12.8333 59.5,11.5C 60.5,11.5 61.5,11.5 62.5,11.5C 62.366,9.70848 62.6993,8.04181 63.5,6.5 Z"/></g>
<g><path style="opacity:1" fill="#4b9a3e" d="M 51.5,-0.5 C 52.1667,-0.5 52.8333,-0.5 53.5,-0.5C 56.8333,1.83333 60.1667,4.16667 63.5,6.5C 62.6993,8.04181 62.366,9.70848 62.5,11.5C 61.5,11.5 60.5,11.5 59.5,11.5C 59.5,12.8333 59.5,14.1667 59.5,15.5C 59.1667,15.5 58.8333,15.5 58.5,15.5C 57.3242,11.8067 55.4908,8.47335 53,5.5C 52.187,3.56429 51.687,1.56429 51.5,-0.5 Z"/></g>
<g><path style="opacity:1" fill="#5cac47" d="M 45.5,4.5 C 45.6355,7.55138 45.3022,10.5514 44.5,13.5C 46.1362,19.0186 46.9695,24.6853 47,30.5C 47.6667,49.5 47.6667,68.5 47,87.5C 46.6667,88.1667 46.3333,88.8333 46,89.5C 44.8372,87.7148 44.1705,85.7148 44,83.5C 42.9887,82.6634 41.8221,82.33 40.5,82.5C 39.6876,80.0554 38.6876,77.7221 37.5,75.5C 39.2869,73.5259 40.2869,71.0259 40.5,68C 40.1753,50.2436 39.6753,32.4102 39,14.5C 36.6194,15.435 34.1194,15.7683 31.5,15.5C 31.5,13.8333 31.5,12.1667 31.5,10.5C 30.5,10.5 29.5,10.5 28.5,10.5C 31.242,7.57871 34.5753,5.57871 38.5,4.5C 39.5,4.5 40.5,4.5 41.5,4.5C 42.8333,4.5 44.1667,4.5 45.5,4.5 Z"/></g>
<g><path style="opacity:1" fill="#499e3c" d="M 67.5,8.5 C 67.8333,8.5 68.1667,8.5 68.5,8.5C 68.6243,10.5816 69.6243,12.0816 71.5,13C 69.5273,13.4955 67.5273,13.6621 65.5,13.5C 65.0773,11.2188 65.744,9.55213 67.5,8.5 Z"/></g>
<g><path style="opacity:1" fill="#61b247" d="M 37.5,75.5 C 36.3263,74.4863 35.6596,73.153 35.5,71.5C 34.3205,66.3543 31.6538,62.0209 27.5,58.5C 27.5,58.1667 27.5,57.8333 27.5,57.5C 28.5832,57.4606 29.5832,57.1272 30.5,56.5C 31.4954,50.8722 31.8288,45.2055 31.5,39.5C 31.5,31.5 31.5,23.5 31.5,15.5C 34.1194,15.7683 36.6194,15.435 39,14.5C 39.6753,32.4102 40.1753,50.2436 40.5,68C 40.2869,71.0259 39.2869,73.5259 37.5,75.5 Z"/></g>
<g><path style="opacity:1" fill="#65b949" d="M 31.5,15.5 C 31.5,23.5 31.5,31.5 31.5,39.5C 29.8762,39.3601 28.7096,40.0267 28,41.5C 27.2904,40.0267 26.1238,39.3601 24.5,39.5C 24.2035,29.791 23.3701,29.4577 22,38.5C 21.7508,37.376 21.2508,36.376 20.5,35.5C 19.7022,37.0777 19.2022,38.7444 19,40.5C 17.4947,38.7017 17.3281,36.8684 18.5,35C 17.7894,33.7453 16.956,32.5786 16,31.5C 15.6667,31.8333 15.3333,32.1667 15,32.5C 13.9371,30.0838 13.1037,27.5838 12.5,25C 13.697,23.4801 15.197,22.3134 17,21.5C 17.1922,23.5767 17.6922,25.5767 18.5,27.5C 19.4892,23.8927 19.8226,20.226 19.5,16.5C 22.0146,15.836 24.1813,14.5026 26,12.5C 27.1861,14.6766 29.0194,15.6766 31.5,15.5 Z"/></g>
<g><path style="opacity:1" fill="#57a645" d="M 47.5,-0.5 C 48.8333,-0.5 50.1667,-0.5 51.5,-0.5C 51.687,1.56429 52.187,3.56429 53,5.5C 55.4908,8.47335 57.3242,11.8067 58.5,15.5C 56.1667,15.5 53.8333,15.5 51.5,15.5C 51.5,43.5 51.5,71.5 51.5,99.5C 50.8333,99.5 50.1667,99.5 49.5,99.5C 48.9512,97.0987 48.1178,94.7654 47,92.5C 44.0758,89.6497 41.9092,86.3164 40.5,82.5C 41.8221,82.33 42.9887,82.6634 44,83.5C 44.1705,85.7148 44.8372,87.7148 46,89.5C 46.3333,88.8333 46.6667,88.1667 47,87.5C 47.6667,68.5 47.6667,49.5 47,30.5C 46.9695,24.6853 46.1362,19.0186 44.5,13.5C 45.3022,10.5514 45.6355,7.55138 45.5,4.5C 46.1174,4.61071 46.6174,4.94404 47,5.5C 47.4955,3.5273 47.6621,1.5273 47.5,-0.5 Z"/></g>
<g><path style="opacity:0.994" fill="#54a343" d="M 58.5,15.5 C 57.9271,18.1466 57.2604,20.8133 56.5,23.5C 55.3336,44.4921 55.1669,65.4921 56,86.5C 56.6708,87.2524 57.5041,87.5858 58.5,87.5C 59.4731,89.9479 59.8064,92.6146 59.5,95.5C 57.2048,96.4746 55.2048,97.8079 53.5,99.5C 52.8333,99.5 52.1667,99.5 51.5,99.5C 51.5,71.5 51.5,43.5 51.5,15.5C 53.8333,15.5 56.1667,15.5 58.5,15.5 Z"/></g>
<g><path style="opacity:1" fill="#4da23b" d="M 87.5,20.5 C 89.674,20.7497 91.3406,21.7497 92.5,23.5C 92.1667,23.5 91.8333,23.5 91.5,23.5C 88.7284,22.6285 86.0618,22.6285 83.5,23.5C 83.5,22.5 83.5,21.5 83.5,20.5C 84.8333,20.5 86.1667,20.5 87.5,20.5 Z"/></g>
<g><path style="opacity:1" fill="#519e44" d="M 77.5,14.5 C 81.173,16.0002 84.5063,18.0002 87.5,20.5C 86.1667,20.5 84.8333,20.5 83.5,20.5C 83.5,21.5 83.5,22.5 83.5,23.5C 86.0618,22.6285 88.7284,22.6285 91.5,23.5C 91.5,23.8333 91.5,24.1667 91.5,24.5C 89.7945,26.612 88.4611,28.9453 87.5,31.5C 86.1779,31.33 85.0113,31.6634 84,32.5C 83.5065,30.8659 83.3398,29.1992 83.5,27.5C 82.1667,27.5 80.8333,27.5 79.5,27.5C 79.8333,24.5 78.5,23.1667 75.5,23.5C 75.0914,20.1445 75.7581,17.1445 77.5,14.5 Z"/></g>
<g><path style="opacity:1" fill="#4f9d43" d="M 59.5,15.5 C 60.2172,17.9534 61.3838,20.2867 63,22.5C 63.5,44.1641 63.6666,65.8308 63.5,87.5C 62.5,87.5 61.5,87.5 60.5,87.5C 60.4802,89.143 61.1468,90.4763 62.5,91.5C 61.3881,92.2652 60.7214,93.2652 60.5,94.5C 60.5,95.1667 60.1667,95.5 59.5,95.5C 59.8064,92.6146 59.4731,89.9479 58.5,87.5C 58.3573,63.4909 58.6906,39.4909 59.5,15.5 Z"/></g>
<g><path style="opacity:1" fill="#42913d" d="M 6.5,22.5 C 6.83333,22.5 7.16667,22.5 7.5,22.5C 9.5595,25.2402 11.2262,28.2402 12.5,31.5C 13.8565,38.1555 12.5231,38.8222 8.5,33.5C 7.82434,34.6016 7.15767,35.6016 6.5,36.5C 6.5,31.8333 6.5,27.1667 6.5,22.5 Z"/></g>
<g><path style="opacity:1" fill="#65b94c" d="M 28.5,10.5 C 29.5,10.5 30.5,10.5 31.5,10.5C 31.5,12.1667 31.5,13.8333 31.5,15.5C 29.0194,15.6766 27.1861,14.6766 26,12.5C 24.1813,14.5026 22.0146,15.836 19.5,16.5C 19.8226,20.226 19.4892,23.8927 18.5,27.5C 17.6922,25.5767 17.1922,23.5767 17,21.5C 15.197,22.3134 13.697,23.4801 12.5,25C 13.1037,27.5838 13.9371,30.0838 15,32.5C 15.3333,32.1667 15.6667,31.8333 16,31.5C 16.956,32.5786 17.7894,33.7453 18.5,35C 17.3281,36.8684 17.4947,38.7017 19,40.5C 19.2022,38.7444 19.7022,37.0777 20.5,35.5C 21.2508,36.376 21.7508,37.376 22,38.5C 23.3701,29.4577 24.2035,29.791 24.5,39.5C 26.1238,39.3601 27.2904,40.0267 28,41.5C 28.7096,40.0267 29.8762,39.3601 31.5,39.5C 31.8288,45.2055 31.4954,50.8722 30.5,56.5C 29.5832,57.1272 28.5832,57.4606 27.5,57.5C 26.3472,55.364 25.0138,53.364 23.5,51.5C 23.6716,50.5084 23.3382,49.8417 22.5,49.5C 22.1667,48.5 21.5,47.8333 20.5,47.5C 19.3622,43.8911 17.6956,40.5578 15.5,37.5C 15.0075,35.1815 14.0075,33.1815 12.5,31.5C 11.2262,28.2402 9.5595,25.2402 7.5,22.5C 14.0035,17.7448 21.0035,13.7448 28.5,10.5 Z"/></g>
<g><path style="opacity:1" fill="#3e8841" d="M 91.5,23.5 C 91.8333,23.5 92.1667,23.5 92.5,23.5C 91.723,34.1482 91.3897,44.8149 91.5,55.5C 90.6715,49.0008 90.0048,42.3341 89.5,35.5C 89.9133,31.7686 90.5799,28.102 91.5,24.5C 91.5,24.1667 91.5,23.8333 91.5,23.5 Z"/></g>
<g><path style="opacity:0.999" fill="#479241" d="M 80.5,45.5 C 80.5299,46.4972 80.0299,47.1639 79,47.5C 77.779,46.7282 76.779,45.7282 76,44.5C 75.6667,45.5 75.3333,46.5 75,47.5C 74.3333,58.8333 74.3333,70.1667 75,81.5C 76.3342,82.8779 76.5009,84.2113 75.5,85.5C 73.3805,87.3998 71.0472,89.0664 68.5,90.5C 68.2505,87.9979 67.9172,85.4979 67.5,83C 67.854,67.0733 68.854,51.24 70.5,35.5C 72.1667,35.5 73.8333,35.5 75.5,35.5C 75.5,36.8333 75.5,38.1667 75.5,39.5C 76.8333,39.5 78.1667,39.5 79.5,39.5C 79.7135,41.1439 79.3802,42.6439 78.5,44C 79.0442,44.7172 79.7109,45.2172 80.5,45.5 Z"/></g>
<g><path style="opacity:1" fill="#3e9338" d="M 12.5,31.5 C 14.0075,33.1815 15.0075,35.1815 15.5,37.5C 15.3512,40.6074 15.8512,43.6074 17,46.5C 18.0113,47.3366 19.1779,47.67 20.5,47.5C 21.5,47.8333 22.1667,48.5 22.5,49.5C 19.895,49.3603 17.895,50.6937 16.5,53.5C 16.0522,48.007 13.0522,46.007 7.5,47.5C 7.8064,50.3854 7.47307,53.0521 6.5,55.5C 6.5,49.1667 6.5,42.8333 6.5,36.5C 7.15767,35.6016 7.82434,34.6016 8.5,33.5C 12.5231,38.8222 13.8565,38.1555 12.5,31.5 Z"/></g>
<g><path style="opacity:1" fill="#52a145" d="M 58.5,15.5 C 58.8333,15.5 59.1667,15.5 59.5,15.5C 58.6906,39.4909 58.3573,63.4909 58.5,87.5C 57.5041,87.5858 56.6708,87.2524 56,86.5C 55.1669,65.4921 55.3336,44.4921 56.5,23.5C 57.2604,20.8133 57.9271,18.1466 58.5,15.5 Z"/></g>
<g><path style="opacity:1" fill="#40952d" d="M 15.5,37.5 C 17.6956,40.5578 19.3622,43.8911 20.5,47.5C 19.1779,47.67 18.0113,47.3366 17,46.5C 15.8512,43.6074 15.3512,40.6074 15.5,37.5 Z"/></g>
<g><path style="opacity:1" fill="#409936" d="M 16.5,53.5 C 15.6993,55.0418 15.366,56.7085 15.5,58.5C 14.0167,62.9572 12.35,67.2905 10.5,71.5C 8.80072,71.5271 7.46739,72.1938 6.5,73.5C 6.5,67.5 6.5,61.5 6.5,55.5C 7.47307,53.0521 7.8064,50.3854 7.5,47.5C 13.0522,46.007 16.0522,48.007 16.5,53.5 Z"/></g>
<g><path style="opacity:1" fill="#408a3d" d="M 91.5,24.5 C 90.5799,28.102 89.9133,31.7686 89.5,35.5C 90.0048,42.3341 90.6715,49.0008 91.5,55.5C 91.5,58.1667 91.5,60.8333 91.5,63.5C 90.6426,66.5491 90.6426,69.5491 91.5,72.5C 89.9798,73.8499 89.3131,75.1832 89.5,76.5C 89.79,69.473 89.1233,62.473 87.5,55.5C 84.0696,54.7553 82.403,56.0886 82.5,59.5C 83.8333,64.8333 83.8333,70.1667 82.5,75.5C 82.5307,78.1755 83.8641,79.5088 86.5,79.5C 83.0012,81.7505 79.3346,83.7505 75.5,85.5C 76.5009,84.2113 76.3342,82.8779 75,81.5C 74.3333,70.1667 74.3333,58.8333 75,47.5C 75.3333,46.5 75.6667,45.5 76,44.5C 76.779,45.7282 77.779,46.7282 79,47.5C 80.0299,47.1639 80.5299,46.4972 80.5,45.5C 82.2584,40.6498 84.5917,35.9831 87.5,31.5C 88.4611,28.9453 89.7945,26.612 91.5,24.5 Z"/></g>
<g><path style="opacity:1" fill="#488247" d="M 92.5,23.5 C 93.8333,40.8333 93.8333,58.1667 92.5,75.5C 92.8168,71.2984 92.4834,67.2984 91.5,63.5C 91.5,60.8333 91.5,58.1667 91.5,55.5C 91.3897,44.8149 91.723,34.1482 92.5,23.5 Z"/></g>
<g><path style="opacity:1" fill="#40923c" d="M 22.5,49.5 C 23.3382,49.8417 23.6716,50.5084 23.5,51.5C 22.448,51.3505 21.448,51.5172 20.5,52C 19.7314,54.9263 18.0647,57.0929 15.5,58.5C 15.366,56.7085 15.6993,55.0418 16.5,53.5C 17.895,50.6937 19.895,49.3603 22.5,49.5 Z"/></g>
<g><path style="opacity:1" fill="#3f8e39" d="M 23.5,51.5 C 25.0138,53.364 26.3472,55.364 27.5,57.5C 27.5,57.8333 27.5,58.1667 27.5,58.5C 27.5,58.8333 27.5,59.1667 27.5,59.5C 26.5041,59.5858 25.6708,59.2524 25,58.5C 24.023,56.26 23.523,53.9267 23.5,51.5 Z"/></g>
<g><path style="opacity:0.988" fill="#3e8840" d="M 91.5,63.5 C 92.4834,67.2984 92.8168,71.2984 92.5,75.5C 90.8816,77.316 88.8816,78.6493 86.5,79.5C 83.8641,79.5088 82.5307,78.1755 82.5,75.5C 83.8333,70.1667 83.8333,64.8333 82.5,59.5C 82.403,56.0886 84.0696,54.7553 87.5,55.5C 89.1233,62.473 89.79,69.473 89.5,76.5C 89.3131,75.1832 89.9798,73.8499 91.5,72.5C 90.6426,69.5491 90.6426,66.5491 91.5,63.5 Z"/></g>
<g><path style="opacity:1" fill="#5eac4c" d="M 27.5,58.5 C 31.6538,62.0209 34.3205,66.3543 35.5,71.5C 35.1667,71.5 34.8333,71.5 34.5,71.5C 32.6713,67.1718 30.338,63.1718 27.5,59.5C 27.5,59.1667 27.5,58.8333 27.5,58.5 Z"/></g>
<g><path style="opacity:1" fill="#3ea131" d="M 8.5,58.5 C 12.4553,62.3923 12.4553,66.3923 8.5,70.5C 7.30225,66.4885 7.30225,62.4885 8.5,58.5 Z"/></g>
<g><path style="opacity:1" fill="#3d873d" d="M 23.5,51.5 C 23.523,53.9267 24.023,56.26 25,58.5C 25.6708,59.2524 26.5041,59.5858 27.5,59.5C 30.338,63.1718 32.6713,67.1718 34.5,71.5C 34.2104,74.7847 34.877,77.7847 36.5,80.5C 35.2794,79.9717 34.1127,79.305 33,78.5C 33.3513,76.1141 33.1847,73.7808 32.5,71.5C 30.8888,72.3202 30.2222,73.6536 30.5,75.5C 28.8333,75.5 27.1667,75.5 25.5,75.5C 25.67,76.8221 25.3366,77.9887 24.5,79C 21.4304,79.0782 18.4304,78.5782 15.5,77.5C 15.8633,75.0885 14.8633,73.5885 12.5,73C 13.9871,67.9666 13.3205,67.4666 10.5,71.5C 12.35,67.2905 14.0167,62.9572 15.5,58.5C 18.0647,57.0929 19.7314,54.9263 20.5,52C 21.448,51.5172 22.448,51.3505 23.5,51.5 Z"/></g>
<g><path style="opacity:0.995" fill="#428842" d="M 6.5,22.5 C 6.5,27.1667 6.5,31.8333 6.5,36.5C 6.5,42.8333 6.5,49.1667 6.5,55.5C 6.5,61.5 6.5,67.5 6.5,73.5C 7.18342,75.1765 8.51676,75.8432 10.5,75.5C 10.5,74.1667 10.5,72.8333 10.5,71.5C 13.3205,67.4666 13.9871,67.9666 12.5,73C 14.8633,73.5885 15.8633,75.0885 15.5,77.5C 18.4304,78.5782 21.4304,79.0782 24.5,79C 25.3366,77.9887 25.67,76.8221 25.5,75.5C 27.1667,75.5 28.8333,75.5 30.5,75.5C 30.2222,73.6536 30.8888,72.3202 32.5,71.5C 33.1847,73.7808 33.3513,76.1141 33,78.5C 34.1127,79.305 35.2794,79.9717 36.5,80.5C 36.0632,83.8066 36.7298,86.8066 38.5,89.5C 39.2811,88.2713 39.7811,86.938 40,85.5C 41.1628,87.2852 41.8295,89.2852 42,91.5C 43.3662,93.4881 44.8662,94.4881 46.5,94.5C 45.1468,95.5237 44.4802,96.857 44.5,98.5C 43.8333,98.5 43.5,98.1667 43.5,97.5C 43.5,96.5 43.5,95.5 43.5,94.5C 41.8333,94.5 40.1667,94.5 38.5,94.5C 37.5084,94.6716 36.8417,94.3382 36.5,93.5C 36.9382,93.5654 37.2716,93.3988 37.5,93C 36.3816,91.9264 35.3816,90.7598 34.5,89.5C 33.5832,90.1272 32.5832,90.4606 31.5,90.5C 22.9151,85.9582 14.4151,81.2915 6,76.5C 5.17132,58.3286 5.33799,40.3286 6.5,22.5 Z"/></g>
<g><path style="opacity:1" fill="#3d8c38" d="M 10.5,71.5 C 10.5,72.8333 10.5,74.1667 10.5,75.5C 8.51676,75.8432 7.18342,75.1765 6.5,73.5C 7.46739,72.1938 8.80072,71.5271 10.5,71.5 Z"/></g>
<g><path style="opacity:1" fill="#3f8a3c" d="M 34.5,71.5 C 34.8333,71.5 35.1667,71.5 35.5,71.5C 35.6596,73.153 36.3263,74.4863 37.5,75.5C 38.6876,77.7221 39.6876,80.0554 40.5,82.5C 41.9092,86.3164 44.0758,89.6497 47,92.5C 48.1178,94.7654 48.9512,97.0987 49.5,99.5C 48.1667,99.5 46.8333,99.5 45.5,99.5C 45.5,98.8333 45.1667,98.5 44.5,98.5C 44.4802,96.857 45.1468,95.5237 46.5,94.5C 44.8662,94.4881 43.3662,93.4881 42,91.5C 41.8295,89.2852 41.1628,87.2852 40,85.5C 39.7811,86.938 39.2811,88.2713 38.5,89.5C 36.7298,86.8066 36.0632,83.8066 36.5,80.5C 34.877,77.7847 34.2104,74.7847 34.5,71.5 Z"/></g>
<g><path style="opacity:0.329" fill="#368e33" d="M 36.5,93.5 C 34.6316,92.7368 32.9649,91.7368 31.5,90.5C 32.5832,90.4606 33.5832,90.1272 34.5,89.5C 35.3816,90.7598 36.3816,91.9264 37.5,93C 37.2716,93.3988 36.9382,93.5654 36.5,93.5 Z"/></g>
<g><path style="opacity:0.902" fill="#48834a" d="M 38.5,94.5 C 40.1667,94.5 41.8333,94.5 43.5,94.5C 43.5,95.5 43.5,96.5 43.5,97.5C 41.8869,96.3077 40.2202,95.3077 38.5,94.5 Z"/></g>
</svg>
