<?xml version="1.0" encoding="UTF-8"?>
<!DOCTYPE svg PUBLIC "-//W3C//DTD SVG 1.1//EN" "http://www.w3.org/Graphics/SVG/1.1/DTD/svg11.dtd">
<svg xmlns="http://www.w3.org/2000/svg" version="1.1" width="100px" height="100px" style="shape-rendering:geometricPrecision; text-rendering:geometricPrecision; image-rendering:optimizeQuality; fill-rule:evenodd; clip-rule:evenodd" xmlns:xlink="http://www.w3.org/1999/xlink">
<g><path style="opacity:0.935" fill="#8bc74c" d="M 44.5,-0.5 C 47.5,-0.5 50.5,-0.5 53.5,-0.5C 53.8333,0.5 54.5,1.16667 55.5,1.5C 56.368,6.97866 54.368,8.64533 49.5,6.5C 47.9505,7.4408 46.2838,8.10746 44.5,8.5C 43.1266,8.65668 41.7932,8.49001 40.5,8C 41.6853,6.64699 43.0186,5.48032 44.5,4.5C 43.0508,3.82811 41.7175,3.16145 40.5,2.5C 41.8717,1.48837 43.205,0.488369 44.5,-0.5 Z"/></g>
<g><path style="opacity:1" fill="#8dc651" d="M 55.5,1.5 C 57.5,2.5 59.5,3.5 61.5,4.5C 60.962,6.11723 60.6287,7.7839 60.5,9.5C 58.0065,9.13068 57.3398,9.79734 58.5,11.5C 55.2402,10.2262 52.2402,8.5595 49.5,6.5C 54.368,8.64533 56.368,6.97866 55.5,1.5 Z"/></g>
<g><path style="opacity:1" fill="#8dc54f" d="M 40.5,2.5 C 41.7175,3.16145 43.0508,3.82811 44.5,4.5C 43.0186,5.48032 41.6853,6.64699 40.5,8C 41.7932,8.49001 43.1266,8.65668 44.5,8.5C 41.5342,10.9884 38.2009,12.9884 34.5,14.5C 34.5,14.1667 34.5,13.8333 34.5,13.5C 34.5,12.8333 34.5,12.1667 34.5,11.5C 35.9778,11.762 37.3112,11.4287 38.5,10.5C 37.675,9.61432 36.675,9.28099 35.5,9.5C 35.7148,7.82124 35.0481,6.82124 33.5,6.5C 35.6351,4.92908 37.9684,3.59575 40.5,2.5 Z"/></g>
<g><path style="opacity:1" fill="#88ca41" d="M 34.5,11.5 C 34.5,12.1667 34.5,12.8333 34.5,13.5C 30.4588,13.4261 29.7921,12.0928 32.5,9.5C 33.1818,10.2427 33.8485,10.9094 34.5,11.5 Z"/></g>
<g><path style="opacity:0.986" fill="#8dc74e" d="M 61.5,4.5 C 67.1667,7.83333 72.8333,11.1667 78.5,14.5C 78.8212,16.0481 79.8212,16.7148 81.5,16.5C 83.153,16.6596 84.4863,17.3263 85.5,18.5C 83.1375,17.6427 80.8042,17.3093 78.5,17.5C 76.2038,18.3683 75.5371,19.7016 76.5,21.5C 70.1698,18.6704 64.1698,15.337 58.5,11.5C 57.3398,9.79734 58.0065,9.13068 60.5,9.5C 60.6287,7.7839 60.962,6.11723 61.5,4.5 Z"/></g>
<g><path style="opacity:1" fill="#92c259" d="M 28.5,9.5 C 27.9517,12.0838 26.285,13.0838 23.5,12.5C 24.8993,11.1103 26.5659,10.1103 28.5,9.5 Z"/></g>
<g><path style="opacity:1" fill="#8ac74b" d="M 33.5,6.5 C 35.0481,6.82124 35.7148,7.82124 35.5,9.5C 36.675,9.28099 37.675,9.61432 38.5,10.5C 37.3112,11.4287 35.9778,11.762 34.5,11.5C 33.8485,10.9094 33.1818,10.2427 32.5,9.5C 29.7921,12.0928 30.4588,13.4261 34.5,13.5C 34.5,13.8333 34.5,14.1667 34.5,14.5C 30.9663,16.7664 27.2996,18.7664 23.5,20.5C 23.5,18.8333 23.5,17.1667 23.5,15.5C 21.0065,15.8693 20.3398,15.2027 21.5,13.5C 21.8417,12.6618 22.5084,12.3284 23.5,12.5C 26.285,13.0838 27.9517,12.0838 28.5,9.5C 29.9649,8.26315 31.6316,7.26315 33.5,6.5 Z"/></g>
<g><path style="opacity:0.125" fill="#8dc262" d="M 78.5,14.5 C 79.7095,14.9321 80.7095,15.5987 81.5,16.5C 79.8212,16.7148 78.8212,16.0481 78.5,14.5 Z"/></g>
<g><path style="opacity:1" fill="#8bc848" d="M 15.5,16.5 C 16.3984,17.1577 17.3984,17.8243 18.5,18.5C 15.3823,21.215 12.049,21.8817 8.5,20.5C 10.6705,18.9138 13.0038,17.5804 15.5,16.5 Z"/></g>
<g><path style="opacity:1" fill="#8aca46" d="M 85.5,18.5 C 86.1667,18.5 86.5,18.8333 86.5,19.5C 85.1984,20.8069 83.865,20.8069 82.5,19.5C 80.739,20.0351 79.4057,21.0351 78.5,22.5C 77.5084,22.6716 76.8417,22.3382 76.5,21.5C 75.5371,19.7016 76.2038,18.3683 78.5,17.5C 80.8042,17.3093 83.1375,17.6427 85.5,18.5 Z"/></g>
<g><path style="opacity:1" fill="#8fc354" d="M 21.5,13.5 C 20.3398,15.2027 21.0065,15.8693 23.5,15.5C 23.5,17.1667 23.5,18.8333 23.5,20.5C 21.8185,22.0075 19.8185,23.0075 17.5,23.5C 14.0901,23.4571 10.7568,23.9571 7.5,25C 7.83333,25.3333 8.16667,25.6667 8.5,26C 6.99627,27.4907 6.16294,29.324 6,31.5C 5.50008,46.4963 5.33342,61.4963 5.5,76.5C 4.77842,76.0825 4.27842,75.4158 4,74.5C 3.33333,57.8333 3.33333,41.1667 4,24.5C 4.79208,22.3563 6.29208,21.023 8.5,20.5C 12.049,21.8817 15.3823,21.215 18.5,18.5C 17.3984,17.8243 16.3984,17.1577 15.5,16.5C 17.2163,14.9752 19.2163,13.9752 21.5,13.5 Z"/></g>
<g><path style="opacity:1" fill="#8ac750" d="M 86.5,19.5 C 89.1979,19.8449 91.1979,21.1782 92.5,23.5C 91.7354,23.9234 90.9021,24.2568 90,24.5C 88.5212,23.244 86.8546,22.244 85,21.5C 84.1667,21.6667 83.3333,21.8333 82.5,22C 84.1166,23.0915 85.1166,24.5915 85.5,26.5C 82.6689,25.9213 80.3356,24.588 78.5,22.5C 79.4057,21.0351 80.739,20.0351 82.5,19.5C 83.865,20.8069 85.1984,20.8069 86.5,19.5 Z"/></g>
<g><path style="opacity:0.991" fill="#8cc64d" d="M 31.5,30.5 C 33.1667,30.5 34.8333,30.5 36.5,30.5C 35.9181,31.9311 35.0848,33.2644 34,34.5C 33.6821,38.1954 33.1821,41.8621 32.5,45.5C 34.6505,56.4184 35.9838,67.4184 36.5,78.5C 36.3304,81.204 34.9971,82.8707 32.5,83.5C 32.631,82.7611 32.4643,82.0944 32,81.5C 29.2053,82.7825 26.3719,82.7825 23.5,81.5C 25.0792,80.3331 26.4125,78.9998 27.5,77.5C 29.0808,75.8583 29.7475,73.8583 29.5,71.5C 30.1174,71.3893 30.6174,71.056 31,70.5C 31.4999,57.1708 31.6666,43.8375 31.5,30.5 Z"/></g>
<g><path style="opacity:1" fill="#8dc651" d="M 77.5,39.5 C 75.7179,38.2804 73.7179,37.6138 71.5,37.5C 71.3713,39.2161 71.038,40.8828 70.5,42.5C 69.6618,42.1583 69.3284,41.4916 69.5,40.5C 69.5861,38.323 70.2528,36.323 71.5,34.5C 71.0233,33.5224 70.3567,32.6891 69.5,32C 67.6575,32.5788 65.6575,33.0788 63.5,33.5C 60.8599,32.9049 58.1933,32.5715 55.5,32.5C 55.5,33.5 55.5,34.5 55.5,35.5C 54.5,35.8333 53.8333,36.5 53.5,37.5C 52.8333,37.8333 52.1667,38.1667 51.5,38.5C 51.44,37.9569 51.1067,37.6236 50.5,37.5C 49.4096,38.727 48.0762,39.5604 46.5,40C 47.2744,42.405 47.7744,44.905 48,47.5C 50.3938,48.1359 52.8938,48.1359 55.5,47.5C 55.5,48.5 55.5,49.5 55.5,50.5C 59.5092,50.1417 63.5092,49.6417 67.5,49C 66.5842,48.7216 65.9175,48.2216 65.5,47.5C 67.8056,47.9926 70.139,48.3259 72.5,48.5C 75.2921,48.6225 77.2921,49.9558 78.5,52.5C 77.1667,52.5 75.8333,52.5 74.5,52.5C 74.5,51.5 74.5,50.5 74.5,49.5C 70.1453,49.5495 68.8119,51.5495 70.5,55.5C 62.3708,54.3194 54.3708,52.6527 46.5,50.5C 46.5391,48.6412 45.7058,47.3079 44,46.5C 43.8333,45 43.6667,43.5 43.5,42C 44.1554,38.6968 45.1554,35.5301 46.5,32.5C 47.842,31.207 49.5087,30.3736 51.5,30C 58.6976,28.9456 65.6976,29.6122 72.5,32C 75.1998,33.8567 76.8665,36.3567 77.5,39.5 Z"/></g>
<g><path style="opacity:1" fill="#8bc74b" d="M 17.5,23.5 C 15.4922,25.2676 13.3256,26.9343 11,28.5C 10.5172,29.448 10.3505,30.448 10.5,31.5C 9.00691,32.3121 8.34024,33.6455 8.5,35.5C 9.32386,48.0181 9.6572,60.5181 9.5,73C 9.17772,75.3271 7.84439,76.4938 5.5,76.5C 5.33342,61.4963 5.50008,46.4963 6,31.5C 6.16294,29.324 6.99627,27.4907 8.5,26C 8.16667,25.6667 7.83333,25.3333 7.5,25C 10.7568,23.9571 14.0901,23.4571 17.5,23.5 Z"/></g>
<g><path style="opacity:1" fill="#8cc948" d="M 69.5,40.5 C 68.1667,39.5 66.8333,38.5 65.5,37.5C 62.6627,35.5977 59.3293,34.931 55.5,35.5C 55.5,34.5 55.5,33.5 55.5,32.5C 58.1933,32.5715 60.8599,32.9049 63.5,33.5C 65.6575,33.0788 67.6575,32.5788 69.5,32C 70.3567,32.6891 71.0233,33.5224 71.5,34.5C 70.2528,36.323 69.5861,38.323 69.5,40.5 Z"/></g>
<g><path style="opacity:1" fill="#90c25a" d="M 31.5,30.5 C 31.6666,43.8375 31.4999,57.1708 31,70.5C 30.6174,71.056 30.1174,71.3893 29.5,71.5C 28.8514,57.4591 29.5181,43.7924 31.5,30.5 Z"/></g>
<g><path style="opacity:1" fill="#8fc359" d="M 87.5,29.5 C 88.3382,29.8417 88.6716,30.5084 88.5,31.5C 90.1989,45.1199 90.5322,58.7865 89.5,72.5C 89.6309,73.3764 89.2975,74.0431 88.5,74.5C 87.7348,73.3881 86.7348,72.7214 85.5,72.5C 85.7828,71.7109 86.2828,71.0442 87,70.5C 87.4999,56.8374 87.6666,43.1707 87.5,29.5 Z"/></g>
<g><path style="opacity:1" fill="#91c355" d="M 36.5,30.5 C 37.8333,46.5 37.8333,62.5 36.5,78.5C 35.9838,67.4184 34.6505,56.4184 32.5,45.5C 33.1821,41.8621 33.6821,38.1954 34,34.5C 35.0848,33.2644 35.9181,31.9311 36.5,30.5 Z"/></g>
<g><path style="opacity:0.815" fill="#91c453" d="M 55.5,35.5 C 59.3293,34.931 62.6627,35.5977 65.5,37.5C 61.5,36.1667 57.5,36.1667 53.5,37.5C 53.8333,36.5 54.5,35.8333 55.5,35.5 Z"/></g>
<g><path style="opacity:1" fill="#8dc749" d="M 77.5,39.5 C 77.5569,40.609 77.8902,41.609 78.5,42.5C 76.9731,42.427 75.9731,43.0937 75.5,44.5C 73.2188,44.9227 71.5521,44.256 70.5,42.5C 71.038,40.8828 71.3713,39.2161 71.5,37.5C 73.7179,37.6138 75.7179,38.2804 77.5,39.5 Z"/></g>
<g><path style="opacity:0.851" fill="#8cc847" d="M 92.5,23.5 C 93.1174,23.6107 93.6174,23.944 94,24.5C 94.6667,41.1667 94.6667,57.8333 94,74.5C 92.9609,75.7101 91.7942,76.7101 90.5,77.5C 85.7308,78.3779 83.7308,76.7112 84.5,72.5C 84.8333,72.5 85.1667,72.5 85.5,72.5C 86.7348,72.7214 87.7348,73.3881 88.5,74.5C 89.2975,74.0431 89.6309,73.3764 89.5,72.5C 90.4584,72.0472 91.2917,71.3805 92,70.5C 92.7382,68.0472 93.2382,65.5472 93.5,63C 92.7646,53.8506 92.2646,44.6839 92,35.5C 91.9428,33.0898 90.7761,31.7565 88.5,31.5C 88.6716,30.5084 88.3382,29.8417 87.5,29.5C 86.8333,28.5 86.1667,27.5 85.5,26.5C 85.1166,24.5915 84.1166,23.0915 82.5,22C 83.3333,21.8333 84.1667,21.6667 85,21.5C 86.8546,22.244 88.5212,23.244 90,24.5C 90.9021,24.2568 91.7354,23.9234 92.5,23.5 Z"/></g>
<g><path style="opacity:0.863" fill="#8ec551" d="M 10.5,31.5 C 10.3334,44.5043 10.5001,57.5043 11,70.5C 15.8466,74.5478 21.3466,76.8811 27.5,77.5C 26.4125,78.9998 25.0792,80.3331 23.5,81.5C 26.3719,82.7825 29.2053,82.7825 32,81.5C 32.4643,82.0944 32.631,82.7611 32.5,83.5C 30.7103,84.9973 28.5437,85.664 26,85.5C 24.2933,85.4915 22.7933,85.1582 21.5,84.5C 21.8885,80.3139 20.2219,77.3139 16.5,75.5C 14.7175,77.0225 14.0508,79.0225 14.5,81.5C 11.2402,80.2262 8.24015,78.5595 5.5,76.5C 7.84439,76.4938 9.17772,75.3271 9.5,73C 9.6572,60.5181 9.32386,48.0181 8.5,35.5C 8.34024,33.6455 9.00691,32.3121 10.5,31.5 Z"/></g>
<g><path style="opacity:0.959" fill="#91c15b" d="M 46.5,32.5 C 45.1554,35.5301 44.1554,38.6968 43.5,42C 43.6667,43.5 43.8333,45 44,46.5C 45.7058,47.3079 46.5391,48.6412 46.5,50.5C 41.3711,46.5484 40.2044,41.5484 43,35.5C 44.0391,34.2899 45.2058,33.2899 46.5,32.5 Z"/></g>
<g><path style="opacity:0.118" fill="#96bd62" d="M 78.5,42.5 C 78.0269,43.9063 77.0269,44.573 75.5,44.5C 75.9731,43.0937 76.9731,42.427 78.5,42.5 Z"/></g>
<g><path style="opacity:1" fill="#8ac949" d="M 51.5,38.5 C 49.7801,39.7507 49.4468,41.2507 50.5,43C 55.364,44.766 60.364,45.9326 65.5,46.5C 65.5,46.8333 65.5,47.1667 65.5,47.5C 65.9175,48.2216 66.5842,48.7216 67.5,49C 63.5092,49.6417 59.5092,50.1417 55.5,50.5C 55.5,49.5 55.5,48.5 55.5,47.5C 52.8938,48.1359 50.3938,48.1359 48,47.5C 47.7744,44.905 47.2744,42.405 46.5,40C 48.0762,39.5604 49.4096,38.727 50.5,37.5C 51.1067,37.6236 51.44,37.9569 51.5,38.5 Z"/></g>
<g><path style="opacity:0.353" fill="#8fc359" d="M 65.5,47.5 C 65.5,47.1667 65.5,46.8333 65.5,46.5C 68.1522,46.4095 70.4855,47.0762 72.5,48.5C 70.139,48.3259 67.8056,47.9926 65.5,47.5 Z"/></g>
<g><path style="opacity:1" fill="#8dc74d" d="M 88.5,31.5 C 90.7761,31.7565 91.9428,33.0898 92,35.5C 92.2646,44.6839 92.7646,53.8506 93.5,63C 93.2382,65.5472 92.7382,68.0472 92,70.5C 91.2917,71.3805 90.4584,72.0472 89.5,72.5C 90.5322,58.7865 90.1989,45.1199 88.5,31.5 Z"/></g>
<g><path style="opacity:0.997" fill="#8ec64c" d="M 78.5,52.5 C 79.8363,56.5095 79.6697,60.5095 78,64.5C 76.871,66.1412 75.371,67.1412 73.5,67.5C 70.1016,67.8204 66.7683,67.487 63.5,66.5C 64.6119,65.7348 65.2786,64.7348 65.5,63.5C 67.1887,62.6963 68.8554,61.6963 70.5,60.5C 71.5353,58.8716 71.5353,57.205 70.5,55.5C 68.8119,51.5495 70.1453,49.5495 74.5,49.5C 74.5,50.5 74.5,51.5 74.5,52.5C 75.8333,52.5 77.1667,52.5 78.5,52.5 Z"/></g>
<g><path style="opacity:1" fill="#8cc74c" d="M 54.5,63.5 C 54.6138,66.216 53.6138,68.216 51.5,69.5C 43.3555,68.3552 39.6888,63.6885 40.5,55.5C 42.8568,55.3367 45.1902,55.5034 47.5,56C 48.6858,59.6825 51.0191,62.1825 54.5,63.5 Z"/></g>
<g><path style="opacity:0.98" fill="#90c450" d="M 54.5,63.5 C 58.1667,63.5 61.8333,63.5 65.5,63.5C 65.2786,64.7348 64.6119,65.7348 63.5,66.5C 66.7683,67.487 70.1016,67.8204 73.5,67.5C 72.158,68.793 70.4913,69.6264 68.5,70C 62.6513,70.8184 56.9846,70.6517 51.5,69.5C 53.6138,68.216 54.6138,66.216 54.5,63.5 Z"/></g>
<g><path style="opacity:0.999" fill="#8bc752" d="M 84.5,72.5 C 83.7308,76.7112 85.7308,78.3779 90.5,77.5C 87.8695,79.1526 85.2028,80.8193 82.5,82.5C 81.7529,79.6385 80.0862,77.6385 77.5,76.5C 79.6351,74.9291 81.9684,73.5957 84.5,72.5 Z"/></g>
<g><path style="opacity:0.695" fill="#8bc74b" d="M 21.5,84.5 C 18.7594,84.2927 16.4261,83.2927 14.5,81.5C 14.0508,79.0225 14.7175,77.0225 16.5,75.5C 20.2219,77.3139 21.8885,80.3139 21.5,84.5 Z"/></g>
<g><path style="opacity:1" fill="#8cc84a" d="M 77.5,76.5 C 80.0862,77.6385 81.7529,79.6385 82.5,82.5C 81.609,83.1098 80.609,83.4431 79.5,83.5C 76.5,83.5 73.5,83.5 70.5,83.5C 70.5,82.5 70.5,81.5 70.5,80.5C 72.6351,78.9291 74.9684,77.5957 77.5,76.5 Z"/></g>
<g><path style="opacity:1" fill="#8dc64d" d="M 70.5,80.5 C 70.5,81.5 70.5,82.5 70.5,83.5C 73.5,83.5 76.5,83.5 79.5,83.5C 75.8362,86.3346 71.8362,88.668 67.5,90.5C 63.5069,87.1579 62.1735,87.8245 63.5,92.5C 63.1583,93.3382 62.4916,93.6716 61.5,93.5C 61.7254,91.2841 60.8921,89.6174 59,88.5C 55.3999,91.5179 55.8999,93.5179 60.5,94.5C 57.9906,95.9213 55.6572,97.5879 53.5,99.5C 51.5,99.5 49.5,99.5 47.5,99.5C 47.5,98.1667 47.5,96.8333 47.5,95.5C 50.2476,95.5983 50.9143,94.5983 49.5,92.5C 50.6948,92.6775 51.8615,93.0109 53,93.5C 53.5,93.1667 54,92.8333 54.5,92.5C 53.7573,91.8182 53.0906,91.1515 52.5,90.5C 58.2452,86.7657 64.2452,83.4323 70.5,80.5 Z"/></g>
<g><path style="opacity:1" fill="#88cb46" d="M 61.5,93.5 C 61.5,94.1667 61.1667,94.5 60.5,94.5C 55.8999,93.5179 55.3999,91.5179 59,88.5C 60.8921,89.6174 61.7254,91.2841 61.5,93.5 Z"/></g>
<g><path style="opacity:0.918" fill="#8cc556" d="M 67.5,90.5 C 66.4863,91.6737 65.153,92.3404 63.5,92.5C 62.1735,87.8245 63.5069,87.1579 67.5,90.5 Z"/></g>
<g><path style="opacity:1" fill="#8bc84b" d="M 44.5,90.5 C 43.448,90.3505 42.448,90.5172 41.5,91C 42.1383,92.7067 42.1383,94.54 41.5,96.5C 37.2294,95.3643 33.5627,93.1977 30.5,90C 32.9398,88.6966 35.4398,87.53 38,86.5C 40.5942,87.2848 42.7608,88.6182 44.5,90.5 Z"/></g>
<g><path style="opacity:1" fill="#90c258" d="M 52.5,90.5 C 53.0906,91.1515 53.7573,91.8182 54.5,92.5C 54,92.8333 53.5,93.1667 53,93.5C 51.8615,93.0109 50.6948,92.6775 49.5,92.5C 50.2905,91.5987 51.2905,90.9321 52.5,90.5 Z"/></g>
<g><path style="opacity:1" fill="#8cc845" d="M 44.5,90.5 C 46.2838,90.8925 47.9505,91.5592 49.5,92.5C 50.9143,94.5983 50.2476,95.5983 47.5,95.5C 47.5,96.8333 47.5,98.1667 47.5,99.5C 46.5,99.5 45.5,99.5 44.5,99.5C 43.3065,98.7281 42.3065,97.7281 41.5,96.5C 42.1383,94.54 42.1383,92.7067 41.5,91C 42.448,90.5172 43.448,90.3505 44.5,90.5 Z"/></g>
</svg>
