<?xml version="1.0" encoding="UTF-8"?>
<!DOCTYPE svg PUBLIC "-//W3C//DTD SVG 1.1//EN" "http://www.w3.org/Graphics/SVG/1.1/DTD/svg11.dtd">
<svg xmlns="http://www.w3.org/2000/svg" version="1.1" width="100px" height="100px" style="shape-rendering:geometricPrecision; text-rendering:geometricPrecision; image-rendering:optimizeQuality; fill-rule:evenodd; clip-rule:evenodd" xmlns:xlink="http://www.w3.org/1999/xlink">
<g><path style="opacity:0.188" fill="#7f3237" d="M 92.5,-0.5 C 93.5,-0.5 94.5,-0.5 95.5,-0.5C 97.783,1.72557 97.783,4.0589 95.5,6.5C 94.3303,4.72145 92.6636,3.72145 90.5,3.5C 91.1667,2.16667 91.8333,0.833333 92.5,-0.5 Z"/></g>
<g><path style="opacity:0.353" fill="#887f7a" d="M 90.5,3.5 C 92.6636,3.72145 94.3303,4.72145 95.5,6.5C 95.539,9.08896 94.539,11.089 92.5,12.5C 90.8506,11.5272 89.184,10.5272 87.5,9.5C 87.9752,7.21632 88.9752,5.21632 90.5,3.5 Z"/></g>
<g><path style="opacity:0.995" fill="#f1f1f2" d="M 4.5,8.5 C 12.8333,8.5 21.1667,8.5 29.5,8.5C 30.1515,9.09065 30.8182,9.75731 31.5,10.5C 32.6868,9.34732 33.6868,9.34732 34.5,10.5C 35.3007,12.0418 35.634,13.7085 35.5,15.5C 37.1992,15.3398 38.8659,15.5065 40.5,16C 40.1667,16.3333 39.8333,16.6667 39.5,17C 32.7004,17.815 26.0337,17.315 19.5,15.5C 19.2865,13.8561 19.6198,12.3561 20.5,11C 18.8988,10.7266 17.3988,10.2266 16,9.5C 15.5045,11.4727 15.3379,13.4727 15.5,15.5C 12.1016,15.8204 8.76829,15.487 5.5,14.5C 5.9312,13.7065 6.26454,12.8732 6.5,12C 5.57051,10.9231 4.90384,9.75644 4.5,8.5 Z"/></g>
<g><path style="opacity:1" fill="#f3f3f6" d="M 3.5,8.5 C 3.83333,8.5 4.16667,8.5 4.5,8.5C 4.90384,9.75644 5.57051,10.9231 6.5,12C 6.26454,12.8732 5.9312,13.7065 5.5,14.5C 8.76829,15.487 12.1016,15.8204 15.5,15.5C 15.3379,13.4727 15.5045,11.4727 16,9.5C 17.3988,10.2266 18.8988,10.7266 20.5,11C 19.6198,12.3561 19.2865,13.8561 19.5,15.5C 26.0337,17.315 32.7004,17.815 39.5,17C 39.8333,16.6667 40.1667,16.3333 40.5,16C 38.8659,15.5065 37.1992,15.3398 35.5,15.5C 35.634,13.7085 35.3007,12.0418 34.5,10.5C 37.0131,10.0263 39.5131,9.69297 42,9.5C 44.3222,11.6568 46.4889,13.9901 48.5,16.5C 45.5589,17.522 42.5589,18.3554 39.5,19C 42.2263,19.1816 44.8929,19.6816 47.5,20.5C 32.8485,21.4993 18.1818,21.8326 3.5,21.5C 3.5,17.1667 3.5,12.8333 3.5,8.5 Z"/></g>
<g><path style="opacity:1" fill="#af8d52" d="M 87.5,9.5 C 89.184,10.5272 90.8506,11.5272 92.5,12.5C 92.6716,13.4916 92.3382,14.1583 91.5,14.5C 90.205,13.5116 88.8717,12.5116 87.5,11.5C 87.5,10.8333 87.5,10.1667 87.5,9.5 Z"/></g>
<g><path style="opacity:0.165" fill="#666769" d="M 55.5,13.5 C 57.7488,14.0798 59.4154,15.4131 60.5,17.5C 58.2512,16.9202 56.5846,15.5869 55.5,13.5 Z"/></g>
<g><path style="opacity:1" fill="#d79514" d="M 87.5,11.5 C 88.8717,12.5116 90.205,13.5116 91.5,14.5C 91.6567,15.8734 91.49,17.2068 91,18.5C 86.2497,28.2792 81.4164,37.9459 76.5,47.5C 76.6068,45.6214 76.1068,45.2881 75,46.5C 74.3333,45.5 74.3333,44.5 75,43.5C 79.4261,33.6205 83.9261,23.7872 88.5,14C 87.4232,13.5304 86.4232,13.6971 85.5,14.5C 85.427,12.9731 86.0937,11.9731 87.5,11.5 Z"/></g>
<g><path style="opacity:0.008" fill="#5a5b5d" d="M 60.5,17.5 C 62.7488,18.0798 64.4154,19.4131 65.5,21.5C 63.2512,20.9202 61.5846,19.5869 60.5,17.5 Z"/></g>
<g><path style="opacity:1" fill="#e4e5e7" d="M 29.5,8.5 C 35.2764,8.3368 41.2764,8.3368 47.5,8.5C 48.3602,10.6138 50.0268,11.7805 52.5,12C 51.3418,13.0086 50.6752,14.3419 50.5,16C 50.7885,18.187 51.1218,20.3537 51.5,22.5C 53.1667,22.5 54.8333,22.5 56.5,22.5C 39.0289,22.5934 21.3622,22.5934 3.5,22.5C 3.5,22.1667 3.5,21.8333 3.5,21.5C 18.1818,21.8326 32.8485,21.4993 47.5,20.5C 44.8929,19.6816 42.2263,19.1816 39.5,19C 42.5589,18.3554 45.5589,17.522 48.5,16.5C 46.4889,13.9901 44.3222,11.6568 42,9.5C 39.5131,9.69297 37.0131,10.0263 34.5,10.5C 33.6868,9.34732 32.6868,9.34732 31.5,10.5C 30.8182,9.75731 30.1515,9.09065 29.5,8.5 Z"/></g>
<g><path style="opacity:1" fill="#babcbe" d="M 47.5,8.5 C 51.1407,8.65156 53.8073,10.3182 55.5,13.5C 56.5846,15.5869 58.2512,16.9202 60.5,17.5C 61.5846,19.5869 63.2512,20.9202 65.5,21.5C 66.5,21.8333 67.1667,22.5 67.5,23.5C 67.5,24.8333 67.5,26.1667 67.5,27.5C 66.5655,26.4324 66.2322,25.099 66.5,23.5C 63.7938,23.4249 61.1272,23.0916 58.5,22.5C 57.8333,22.5 57.1667,22.5 56.5,22.5C 54.8333,22.5 53.1667,22.5 51.5,22.5C 51.1218,20.3537 50.7885,18.187 50.5,16C 50.6752,14.3419 51.3418,13.0086 52.5,12C 50.0268,11.7805 48.3602,10.6138 47.5,8.5 Z"/></g>
<g><path style="opacity:1" fill="#d5d7d9" d="M 3.5,8.5 C 3.5,12.8333 3.5,17.1667 3.5,21.5C 3.5,21.8333 3.5,22.1667 3.5,22.5C 12.4752,23.8317 21.8086,24.4984 31.5,24.5C 40.8333,24.3333 50.1667,24.1667 59.5,24C 58.944,23.6174 58.6107,23.1174 58.5,22.5C 61.1272,23.0916 63.7938,23.4249 66.5,23.5C 66.2322,25.099 66.5655,26.4324 67.5,27.5C 68.9813,32.0117 69.648,36.6784 69.5,41.5C 68.3882,39.4006 67.7215,37.0673 67.5,34.5C 58.4161,34.1956 49.4161,34.5289 40.5,35.5C 39.6618,35.1583 39.3284,34.4916 39.5,33.5C 48.8571,33.8316 58.1904,33.4983 67.5,32.5C 66.7542,31.2638 66.4208,29.9305 66.5,28.5C 64.0576,28.6463 63.3909,27.813 64.5,26C 54.3333,25.8333 44.1667,25.6667 34,25.5C 23.4773,25.5013 13.3107,26.168 3.5,27.5C 3.5,27.8333 3.5,28.1667 3.5,28.5C 3.5,35.1667 3.5,41.8333 3.5,48.5C 3.5,50.1667 3.5,51.8333 3.5,53.5C 3.16667,53.5 2.83333,53.5 2.5,53.5C 2.17056,38.324 2.50389,23.324 3.5,8.5 Z"/></g>
<g><path style="opacity:1" fill="#f3f5f8" d="M 3.5,22.5 C 21.3622,22.5934 39.0289,22.5934 56.5,22.5C 57.1667,22.5 57.8333,22.5 58.5,22.5C 58.6107,23.1174 58.944,23.6174 59.5,24C 50.1667,24.1667 40.8333,24.3333 31.5,24.5C 21.8086,24.4984 12.4752,23.8317 3.5,22.5 Z"/></g>
<g><path style="opacity:1" fill="#e6e8ec" d="M 39.5,33.5 C 38.0387,32.3143 36.7054,32.3143 35.5,33.5C 34.1667,33.8333 32.8333,34.1667 31.5,34.5C 30.4673,31.4008 28.4673,30.7341 25.5,32.5C 25.0825,31.7784 24.4158,31.2784 23.5,31C 31.8842,30.8311 40.2175,30.1645 48.5,29C 33.5037,28.5001 18.5037,28.3334 3.5,28.5C 3.5,28.1667 3.5,27.8333 3.5,27.5C 18.1855,27.7662 32.8522,27.4329 47.5,26.5C 50.2263,26.6816 52.8929,27.1816 55.5,28C 54.1509,28.7724 53.3176,29.9391 53,31.5C 52.1932,27.551 51.6932,27.551 51.5,31.5C 47.1829,31.0834 43.1829,31.7501 39.5,33.5 Z"/></g>
<g><path style="opacity:1" fill="#eceff3" d="M 39.5,33.5 C 43.1829,31.7501 47.1829,31.0834 51.5,31.5C 51.6932,27.551 52.1932,27.551 53,31.5C 53.3176,29.9391 54.1509,28.7724 55.5,28C 52.8929,27.1816 50.2263,26.6816 47.5,26.5C 32.8522,27.4329 18.1855,27.7662 3.5,27.5C 13.3107,26.168 23.4773,25.5013 34,25.5C 44.1667,25.6667 54.3333,25.8333 64.5,26C 63.3909,27.813 64.0576,28.6463 66.5,28.5C 66.4208,29.9305 66.7542,31.2638 67.5,32.5C 58.1904,33.4983 48.8571,33.8316 39.5,33.5 Z"/></g>
<g><path style="opacity:1" fill="#eff2f2" d="M 3.5,28.5 C 18.5037,28.3334 33.5037,28.5001 48.5,29C 40.2175,30.1645 31.8842,30.8311 23.5,31C 24.4158,31.2784 25.0825,31.7784 25.5,32.5C 25.1436,34.1898 24.1436,35.1898 22.5,35.5C 17.3152,36.3473 13.9819,39.3473 12.5,44.5C 10.1432,44.3367 7.80982,44.5034 5.5,45C 4.9152,46.3024 4.24853,47.469 3.5,48.5C 3.5,41.8333 3.5,35.1667 3.5,28.5 Z"/></g>
<g><path style="opacity:0.024" fill="#5b584e" d="M 67.5,23.5 C 69.9334,29.4778 71.2667,35.8112 71.5,42.5C 71.7845,44.4147 71.4511,46.0813 70.5,47.5C 70.7678,45.901 70.4345,44.5676 69.5,43.5C 69.5,42.8333 69.5,42.1667 69.5,41.5C 69.648,36.6784 68.9813,32.0117 67.5,27.5C 67.5,26.1667 67.5,24.8333 67.5,23.5 Z"/></g>
<g><path style="opacity:1" fill="#eef5eb" d="M 31.5,34.5 C 32.3686,36.717 32.702,39.0504 32.5,41.5C 29.2222,43.1809 27.2222,42.1809 26.5,38.5C 26.8333,38.5 27.1667,38.5 27.5,38.5C 28.0768,39.7733 28.7435,39.7733 29.5,38.5C 29.0431,37.7025 28.3764,37.3691 27.5,37.5C 25.9497,32.7184 27.2831,31.7184 31.5,34.5 Z"/></g>
<g><path style="opacity:1" fill="#e9edea" d="M 35.5,33.5 C 38.8258,33.9672 39.1591,35.1339 36.5,37C 38.7823,38.0842 39.1157,39.5842 37.5,41.5C 33.2292,39.6472 32.5626,36.9805 35.5,33.5 Z"/></g>
<g><path style="opacity:1" fill="#8f9890" d="M 31.5,34.5 C 27.2831,31.7184 25.9497,32.7184 27.5,37.5C 27.5,37.8333 27.5,38.1667 27.5,38.5C 27.1667,38.5 26.8333,38.5 26.5,38.5C 26.1667,38.5 25.8333,38.5 25.5,38.5C 24.9002,37.1001 23.9002,36.1001 22.5,35.5C 24.1436,35.1898 25.1436,34.1898 25.5,32.5C 28.4673,30.7341 30.4673,31.4008 31.5,34.5 Z"/></g>
<g><path style="opacity:1" fill="#8a8d89" d="M 35.5,33.5 C 36.7054,32.3143 38.0387,32.3143 39.5,33.5C 39.3284,34.4916 39.6618,35.1583 40.5,35.5C 40.5,36.5 40.5,37.5 40.5,38.5C 39.4625,39.9303 38.7959,41.597 38.5,43.5C 37.6618,43.1583 37.3284,42.4916 37.5,41.5C 39.1157,39.5842 38.7823,38.0842 36.5,37C 39.1591,35.1339 38.8258,33.9672 35.5,33.5 Z"/></g>
<g><path style="opacity:1" fill="#e4e9de" d="M 69.5,41.5 C 69.5,42.1667 69.5,42.8333 69.5,43.5C 68.8333,43.1667 68.1667,42.8333 67.5,42.5C 67.7035,40.6096 67.0368,39.1096 65.5,38C 58.2911,37.6293 51.1244,38.1293 44,39.5C 42.6153,39.4857 41.4486,39.1524 40.5,38.5C 40.5,37.5 40.5,36.5 40.5,35.5C 49.4161,34.5289 58.4161,34.1956 67.5,34.5C 67.7215,37.0673 68.3882,39.4006 69.5,41.5 Z"/></g>
<g><path style="opacity:1" fill="#597a57" d="M 22.5,35.5 C 23.9002,36.1001 24.9002,37.1001 25.5,38.5C 17.26,37.0591 13.26,40.7258 13.5,49.5C 13.1667,49.5 12.8333,49.5 12.5,49.5C 12.5,47.8333 12.5,46.1667 12.5,44.5C 13.9819,39.3473 17.3152,36.3473 22.5,35.5 Z"/></g>
<g><path style="opacity:1" fill="#443f41" d="M 27.5,37.5 C 28.3764,37.3691 29.0431,37.7025 29.5,38.5C 28.7435,39.7733 28.0768,39.7733 27.5,38.5C 27.5,38.1667 27.5,37.8333 27.5,37.5 Z"/></g>
<g><path style="opacity:1" fill="#4d6f3c" d="M 25.5,38.5 C 25.8333,38.5 26.1667,38.5 26.5,38.5C 27.2222,42.1809 29.2222,43.1809 32.5,41.5C 32.2089,42.6491 31.3756,43.3158 30,43.5C 26.918,43.2515 25.418,41.5849 25.5,38.5 Z"/></g>
<g><path style="opacity:1" fill="#99da80" d="M 25.5,38.5 C 25.418,41.5849 26.918,43.2515 30,43.5C 31.3756,43.3158 32.2089,42.6491 32.5,41.5C 37.2434,42.1409 37.5768,43.6409 33.5,46C 29.7862,47.4081 26.1195,47.9081 22.5,47.5C 20.4075,47.5142 18.5741,46.8476 17,45.5C 15.5952,46.7305 14.4286,48.0639 13.5,49.5C 13.26,40.7258 17.26,37.0591 25.5,38.5 Z"/></g>
<g><path style="opacity:1" fill="#e6ecc9" d="M 67.5,42.5 C 66.8444,41.7222 66.0111,41.0556 65,40.5C 56.2385,42.116 47.4052,43.116 38.5,43.5C 38.7959,41.597 39.4625,39.9303 40.5,38.5C 41.4486,39.1524 42.6153,39.4857 44,39.5C 51.1244,38.1293 58.2911,37.6293 65.5,38C 67.0368,39.1096 67.7035,40.6096 67.5,42.5 Z"/></g>
<g><path style="opacity:1" fill="#e4e9a5" d="M 67.5,42.5 C 68.1667,42.8333 68.8333,43.1667 69.5,43.5C 70.4345,44.5676 70.7678,45.901 70.5,47.5C 60.6337,45.9453 50.967,46.2786 41.5,48.5C 38.4816,48.6646 35.4816,48.498 32.5,48C 35.1767,47.1864 37.1767,45.6864 38.5,43.5C 47.4052,43.116 56.2385,42.116 65,40.5C 66.0111,41.0556 66.8444,41.7222 67.5,42.5 Z"/></g>
<g><path style="opacity:1" fill="#e3ecc1" d="M 12.5,44.5 C 12.5,46.1667 12.5,47.8333 12.5,49.5C 12.1583,50.3382 11.4916,50.6716 10.5,50.5C 9.5,50.5 8.5,50.5 7.5,50.5C 7.44001,49.9569 7.10667,49.6236 6.5,49.5C 5.93476,51.5435 4.93476,53.2102 3.5,54.5C 3.5,54.1667 3.5,53.8333 3.5,53.5C 3.5,51.8333 3.5,50.1667 3.5,48.5C 4.24853,47.469 4.9152,46.3024 5.5,45C 7.80982,44.5034 10.1432,44.3367 12.5,44.5 Z"/></g>
<g><path style="opacity:1" fill="#dba31a" d="M 76.5,47.5 C 75.2504,50.006 74.5838,52.6726 74.5,55.5C 73.8333,55.5 73.1667,55.5 72.5,55.5C 70.7085,55.634 69.0418,55.3007 67.5,54.5C 68.3007,52.9582 68.634,51.2915 68.5,49.5C 69.5,49.1667 70.1667,48.5 70.5,47.5C 71.4511,46.0813 71.7845,44.4147 71.5,42.5C 76.6939,33.4455 81.3606,24.1122 85.5,14.5C 86.4232,13.6971 87.4232,13.5304 88.5,14C 83.9261,23.7872 79.4261,33.6205 75,43.5C 74.3333,44.5 74.3333,45.5 75,46.5C 76.1068,45.2881 76.6068,45.6214 76.5,47.5 Z"/></g>
<g><path style="opacity:1" fill="#dbe47a" d="M 70.5,47.5 C 70.1667,48.5 69.5,49.1667 68.5,49.5C 67.4693,48.645 66.3026,47.9783 65,47.5C 59.2043,48.2688 53.3709,48.7688 47.5,49C 45.6107,50.7641 43.6107,52.2641 41.5,53.5C 40.791,54.404 39.791,54.7373 38.5,54.5C 38.1667,54.5 37.8333,54.5 37.5,54.5C 36.5084,54.6716 35.8417,54.3382 35.5,53.5C 36.8014,52.36 37.9681,51.0267 39,49.5C 39.4226,50.9561 40.2559,51.4561 41.5,51C 42.5981,50.2303 42.5981,49.397 41.5,48.5C 50.967,46.2786 60.6337,45.9453 70.5,47.5 Z"/></g>
<g><path style="opacity:1" fill="#586934" d="M 35.5,33.5 C 32.5626,36.9805 33.2292,39.6472 37.5,41.5C 37.3284,42.4916 37.6618,43.1583 38.5,43.5C 37.1767,45.6864 35.1767,47.1864 32.5,48C 35.4816,48.498 38.4816,48.6646 41.5,48.5C 42.5981,49.397 42.5981,50.2303 41.5,51C 40.2559,51.4561 39.4226,50.9561 39,49.5C 37.9681,51.0267 36.8014,52.36 35.5,53.5C 34.1667,53.5 32.8333,53.5 31.5,53.5C 30.962,51.8828 30.6287,50.2161 30.5,48.5C 28.549,48.2267 27.049,48.8934 26,50.5C 25.2904,49.0267 24.1238,48.3601 22.5,48.5C 22.5,49.5 22.5,50.5 22.5,51.5C 24.7805,51.2537 26.7805,51.2537 28.5,51.5C 25.6944,52.1676 23.0277,52.8343 20.5,53.5C 19.5,53.5 18.5,53.5 17.5,53.5C 15.8805,51.7615 13.8805,51.2615 11.5,52C 12.1667,52.3333 12.8333,52.6667 13.5,53C 13.2716,53.3988 12.9382,53.5654 12.5,53.5C 10.9519,53.1788 10.2852,52.1788 10.5,50.5C 11.4916,50.6716 12.1583,50.3382 12.5,49.5C 12.8333,49.5 13.1667,49.5 13.5,49.5C 14.4286,48.0639 15.5952,46.7305 17,45.5C 18.5741,46.8476 20.4075,47.5142 22.5,47.5C 26.1195,47.9081 29.7862,47.4081 33.5,46C 37.5768,43.6409 37.2434,42.1409 32.5,41.5C 32.702,39.0504 32.3686,36.717 31.5,34.5C 32.8333,34.1667 34.1667,33.8333 35.5,33.5 Z"/></g>
<g><path style="opacity:1" fill="#dde961" d="M 68.5,49.5 C 68.634,51.2915 68.3007,52.9582 67.5,54.5C 67.5,55.1667 67.1667,55.5 66.5,55.5C 65.5,55.5 64.5,55.5 63.5,55.5C 63.5,54.5 63.5,53.5 63.5,52.5C 56.1869,53.1875 48.8536,53.5208 41.5,53.5C 43.6107,52.2641 45.6107,50.7641 47.5,49C 53.3709,48.7688 59.2043,48.2688 65,47.5C 66.3026,47.9783 67.4693,48.645 68.5,49.5 Z"/></g>
<g><path style="opacity:1" fill="#9a8d59" d="M 7.5,50.5 C 8.5,50.5 9.5,50.5 10.5,50.5C 10.2852,52.1788 10.9519,53.1788 12.5,53.5C 12.5,53.8333 12.5,54.1667 12.5,54.5C 10.8008,54.6602 9.13414,54.4935 7.5,54C 6.3157,52.8545 6.3157,51.6879 7.5,50.5 Z"/></g>
<g><path style="opacity:1" fill="#98a060" d="M 31.5,53.5 C 28.6146,53.1936 25.9479,53.5269 23.5,54.5C 22.5,54.5 21.5,54.5 20.5,54.5C 20.5,54.1667 20.5,53.8333 20.5,53.5C 23.0277,52.8343 25.6944,52.1676 28.5,51.5C 26.7805,51.2537 24.7805,51.2537 22.5,51.5C 22.5,50.5 22.5,49.5 22.5,48.5C 24.1238,48.3601 25.2904,49.0267 26,50.5C 27.049,48.8934 28.549,48.2267 30.5,48.5C 30.6287,50.2161 30.962,51.8828 31.5,53.5 Z"/></g>
<g><path style="opacity:1" fill="#c3da73" d="M 17.5,53.5 C 18.5,53.5 19.5,53.5 20.5,53.5C 20.5,53.8333 20.5,54.1667 20.5,54.5C 19.2003,55.601 18.7003,56.9343 19,58.5C 20.6524,59.217 22.1524,59.5504 23.5,59.5C 23.1131,60.7199 22.2798,61.3865 21,61.5C 18.3567,60.0638 16.5234,57.8972 15.5,55C 15.8361,53.9701 16.5028,53.4701 17.5,53.5 Z"/></g>
<g><path style="opacity:1" fill="#c5df4f" d="M 66.5,55.5 C 66.5,57.1667 66.5,58.8333 66.5,60.5C 65.2749,60.0311 64.2749,60.6978 63.5,62.5C 62.4763,61.1468 61.143,60.4802 59.5,60.5C 59.8076,58.076 59.4742,55.7427 58.5,53.5C 57.8338,54.8313 57.8338,56.3313 58.5,58C 58.1382,59.4343 57.4715,60.6009 56.5,61.5C 55.8333,61.5 55.1667,61.5 54.5,61.5C 54.5,61.1667 54.5,60.8333 54.5,60.5C 57.7198,59.491 58.3865,57.491 56.5,54.5C 53.4816,54.3354 50.4816,54.502 47.5,55C 45.6975,57.1025 43.3641,57.9358 40.5,57.5C 40.5,58.5 40.5,59.5 40.5,60.5C 40.1667,60.5 39.8333,60.5 39.5,60.5C 39.1667,58.5 38.8333,56.5 38.5,54.5C 39.791,54.7373 40.791,54.404 41.5,53.5C 48.8536,53.5208 56.1869,53.1875 63.5,52.5C 63.5,53.5 63.5,54.5 63.5,55.5C 64.5,55.5 65.5,55.5 66.5,55.5 Z"/></g>
<g><path style="opacity:1" fill="#a89b39" d="M 67.5,54.5 C 69.0418,55.3007 70.7085,55.634 72.5,55.5C 72.5,55.8333 72.5,56.1667 72.5,56.5C 71.8333,56.5 71.5,56.8333 71.5,57.5C 70.1667,58.5 68.8333,59.5 67.5,60.5C 67.1667,60.5 66.8333,60.5 66.5,60.5C 66.5,58.8333 66.5,57.1667 66.5,55.5C 67.1667,55.5 67.5,55.1667 67.5,54.5 Z"/></g>
<g><path style="opacity:1" fill="#c3da5d" d="M 31.5,53.5 C 32.8333,53.5 34.1667,53.5 35.5,53.5C 35.8417,54.3382 36.5084,54.6716 37.5,54.5C 37.6658,59.1785 37.4992,63.8452 37,68.5C 36.5045,66.5273 36.3379,64.5273 36.5,62.5C 34.8561,62.7135 33.3561,62.3802 32,61.5C 31.5045,59.5273 31.3379,57.5273 31.5,55.5C 28.0897,55.3838 26.7564,57.0504 27.5,60.5C 26.8333,60.8333 26.1667,61.1667 25.5,61.5C 25.8342,58.812 25.1675,56.4786 23.5,54.5C 25.9479,53.5269 28.6146,53.1936 31.5,53.5 Z"/></g>
<g><path style="opacity:1" fill="#c5e44a" d="M 54.5,60.5 C 53.209,60.2627 52.209,60.596 51.5,61.5C 50.8333,61.5 50.1667,61.5 49.5,61.5C 48.209,61.2627 47.209,61.596 46.5,62.5C 45.8333,62.5 45.1667,62.5 44.5,62.5C 43.5,61.1667 42.5,61.1667 41.5,62.5C 40.6618,62.1583 40.3284,61.4916 40.5,60.5C 40.5,59.5 40.5,58.5 40.5,57.5C 43.3641,57.9358 45.6975,57.1025 47.5,55C 50.4816,54.502 53.4816,54.3354 56.5,54.5C 58.3865,57.491 57.7198,59.491 54.5,60.5 Z"/></g>
<g><path style="opacity:1" fill="#566e1d" d="M 17.5,53.5 C 16.5028,53.4701 15.8361,53.9701 15.5,55C 16.5234,57.8972 18.3567,60.0638 21,61.5C 22.2798,61.3865 23.1131,60.7199 23.5,59.5C 22.1524,59.5504 20.6524,59.217 19,58.5C 18.7003,56.9343 19.2003,55.601 20.5,54.5C 21.5,54.5 22.5,54.5 23.5,54.5C 25.1675,56.4786 25.8342,58.812 25.5,61.5C 23.2046,63.385 20.538,63.885 17.5,63C 15.6113,60.6182 13.9447,58.1182 12.5,55.5C 12.5,55.1667 12.5,54.8333 12.5,54.5C 12.5,54.1667 12.5,53.8333 12.5,53.5C 12.9382,53.5654 13.2716,53.3988 13.5,53C 12.8333,52.6667 12.1667,52.3333 11.5,52C 13.8805,51.2615 15.8805,51.7615 17.5,53.5 Z"/></g>
<g><path style="opacity:1" fill="#577913" d="M 66.5,60.5 C 66.8333,60.5 67.1667,60.5 67.5,60.5C 67.1141,63.2617 65.7808,64.2617 63.5,63.5C 62.4593,65.9913 61.6259,65.9913 61,63.5C 60.5034,65.8098 60.3367,68.1432 60.5,70.5C 59.1779,70.67 58.0113,70.3366 57,69.5C 56.5026,66.854 56.3359,64.1873 56.5,61.5C 57.4715,60.6009 58.1382,59.4343 58.5,58C 57.8338,56.3313 57.8338,54.8313 58.5,53.5C 59.4742,55.7427 59.8076,58.076 59.5,60.5C 61.143,60.4802 62.4763,61.1468 63.5,62.5C 64.2749,60.6978 65.2749,60.0311 66.5,60.5 Z"/></g>
<g><path style="opacity:1" fill="#d2e28b" d="M 7.5,50.5 C 6.3157,51.6879 6.3157,52.8545 7.5,54C 9.13414,54.4935 10.8008,54.6602 12.5,54.5C 12.5,54.8333 12.5,55.1667 12.5,55.5C 9.83333,55.5 7.16667,55.5 4.5,55.5C 4.5,59.5 4.5,63.5 4.5,67.5C 4.16667,67.5 3.83333,67.5 3.5,67.5C 3.5,63.1667 3.5,58.8333 3.5,54.5C 4.93476,53.2102 5.93476,51.5435 6.5,49.5C 7.10667,49.6236 7.44001,49.9569 7.5,50.5 Z"/></g>
<g><path style="opacity:1" fill="#567519" d="M 37.5,54.5 C 37.8333,54.5 38.1667,54.5 38.5,54.5C 38.8333,56.5 39.1667,58.5 39.5,60.5C 39.5,64.5 39.5,68.5 39.5,72.5C 39.5654,72.9382 39.3988,73.2716 39,73.5C 38.6667,72.8333 38.3333,72.1667 38,71.5C 36.2111,73.229 34.0444,73.8957 31.5,73.5C 30.3376,50.8743 29.5043,50.8743 29,73.5C 28.8227,69.6437 28.3227,65.977 27.5,62.5C 27.5,61.8333 27.5,61.1667 27.5,60.5C 26.7564,57.0504 28.0897,55.3838 31.5,55.5C 31.3379,57.5273 31.5045,59.5273 32,61.5C 33.3561,62.3802 34.8561,62.7135 36.5,62.5C 36.3379,64.5273 36.5045,66.5273 37,68.5C 37.4992,63.8452 37.6658,59.1785 37.5,54.5 Z"/></g>
<g><path style="opacity:1" fill="#3a6102" d="M 44.5,62.5 C 44.3068,66.449 43.8068,66.449 43,62.5C 42.1368,64.7489 42.6368,66.5822 44.5,68C 42.5946,68.8261 42.2612,69.9928 43.5,71.5C 45.0046,68.8694 45.6713,69.2027 45.5,72.5C 44.1667,72.5 42.8333,72.5 41.5,72.5C 41.5,69.1667 41.5,65.8333 41.5,62.5C 42.5,61.1667 43.5,61.1667 44.5,62.5 Z"/></g>
<g><path style="opacity:1" fill="#93bc51" d="M 49.5,61.5 C 50.1667,61.5 50.8333,61.5 51.5,61.5C 51.369,62.2389 51.5357,62.9056 52,63.5C 52.6543,62.3044 53.1543,62.3044 53.5,63.5C 51.2367,65.8923 50.9034,68.559 52.5,71.5C 51.8333,71.5 51.1667,71.5 50.5,71.5C 50.7471,68.0613 50.4137,64.728 49.5,61.5 Z"/></g>
<g><path style="opacity:0.021" fill="#040201" d="M 74.5,61.5 C 82.8715,63.0758 91.2048,64.7424 99.5,66.5C 99.5,67.8333 99.5,69.1667 99.5,70.5C 91.8502,69.37 84.1835,68.37 76.5,67.5C 74.9192,65.8583 74.2525,63.8583 74.5,61.5 Z"/></g>
<g><path style="opacity:1" fill="#b8e34d" d="M 12.5,55.5 C 13.9447,58.1182 15.6113,60.6182 17.5,63C 20.538,63.885 23.2046,63.385 25.5,61.5C 26.1667,61.1667 26.8333,60.8333 27.5,60.5C 27.5,61.1667 27.5,61.8333 27.5,62.5C 27.5,64.8333 27.5,67.1667 27.5,69.5C 26.8333,69.5 26.5,69.1667 26.5,68.5C 26.6567,67.1266 26.49,65.7932 26,64.5C 19.6327,65.9922 13.1327,66.8256 6.5,67C 5.61983,68.3561 5.28649,69.8561 5.5,71.5C 5.5,72.5 5.5,73.5 5.5,74.5C 5.5,75.5 5.5,76.5 5.5,77.5C 5.16667,77.5 4.83333,77.5 4.5,77.5C 4.5,74.1667 4.5,70.8333 4.5,67.5C 4.5,63.5 4.5,59.5 4.5,55.5C 7.16667,55.5 9.83333,55.5 12.5,55.5 Z"/></g>
<g><path style="opacity:1" fill="#a2dc3c" d="M 26.5,68.5 C 25.6906,69.4687 24.6906,70.3021 23.5,71C 17.5092,71.4995 11.5092,71.6662 5.5,71.5C 5.28649,69.8561 5.61983,68.3561 6.5,67C 13.1327,66.8256 19.6327,65.9922 26,64.5C 26.49,65.7932 26.6567,67.1266 26.5,68.5 Z"/></g>
<g><path style="opacity:1" fill="#91bf49" d="M 71.5,57.5 C 71.5,59.8333 71.5,62.1667 71.5,64.5C 68.0272,64.5758 64.6939,65.2424 61.5,66.5C 61.366,68.2915 61.6993,69.9582 62.5,71.5C 60.1667,71.5 57.8333,71.5 55.5,71.5C 55.7471,68.0613 55.4137,64.728 54.5,61.5C 55.1667,61.5 55.8333,61.5 56.5,61.5C 56.3359,64.1873 56.5026,66.854 57,69.5C 58.0113,70.3366 59.1779,70.67 60.5,70.5C 60.3367,68.1432 60.5034,65.8098 61,63.5C 61.6259,65.9913 62.4593,65.9913 63.5,63.5C 65.7808,64.2617 67.1141,63.2617 67.5,60.5C 68.8333,59.5 70.1667,58.5 71.5,57.5 Z"/></g>
<g><path style="opacity:0.835" fill="#b1cba2" d="M 2.5,53.5 C 2.83333,53.5 3.16667,53.5 3.5,53.5C 3.5,53.8333 3.5,54.1667 3.5,54.5C 3.5,58.8333 3.5,63.1667 3.5,67.5C 3.5,76.8333 3.5,86.1667 3.5,95.5C 5.83333,95.5 8.16667,95.5 10.5,95.5C 8.0521,96.4731 5.38544,96.8064 2.5,96.5C 2.5,82.1667 2.5,67.8333 2.5,53.5 Z"/></g>
<g><path style="opacity:1" fill="#547f1d" d="M 54.5,60.5 C 54.5,60.8333 54.5,61.1667 54.5,61.5C 55.4137,64.728 55.7471,68.0613 55.5,71.5C 54.5,71.5 53.5,71.5 52.5,71.5C 50.9034,68.559 51.2367,65.8923 53.5,63.5C 53.1543,62.3044 52.6543,62.3044 52,63.5C 51.5357,62.9056 51.369,62.2389 51.5,61.5C 52.209,60.596 53.209,60.2627 54.5,60.5 Z"/></g>
<g><path style="opacity:1" fill="#558819" d="M 49.5,61.5 C 50.4137,64.728 50.7471,68.0613 50.5,71.5C 48.744,72.5521 48.0773,74.2188 48.5,76.5C 47.8333,75.8333 47.1667,75.1667 46.5,74.5C 46.5,74.1667 46.5,73.8333 46.5,73.5C 46.5,69.8333 46.5,66.1667 46.5,62.5C 47.209,61.596 48.209,61.2627 49.5,61.5 Z"/></g>
<g><path style="opacity:1" fill="#83b542" d="M 31.5,73.5 C 30.5284,75.4931 29.1951,75.8264 27.5,74.5C 27.5,72.8333 27.5,71.1667 27.5,69.5C 27.5,67.1667 27.5,64.8333 27.5,62.5C 28.3227,65.977 28.8227,69.6437 29,73.5C 29.5043,50.8743 30.3376,50.8743 31.5,73.5 Z"/></g>
<g><path style="opacity:1" fill="#8ed43a" d="M 71.5,64.5 C 71.5,66.5 71.5,68.5 71.5,70.5C 71.5,70.8333 71.5,71.1667 71.5,71.5C 68.5,71.5 65.5,71.5 62.5,71.5C 61.6993,69.9582 61.366,68.2915 61.5,66.5C 64.6939,65.2424 68.0272,64.5758 71.5,64.5 Z"/></g>
<g><path style="opacity:1" fill="#8fbd7a" d="M 72.5,56.5 C 73.368,64.5119 74.368,72.5119 75.5,80.5C 75.5,80.8333 75.5,81.1667 75.5,81.5C 75.1667,81.5 74.8333,81.5 74.5,81.5C 73.9035,78.0588 73.2368,74.7254 72.5,71.5C 72.5,70.8333 72.1667,70.5 71.5,70.5C 71.5,68.5 71.5,66.5 71.5,64.5C 71.5,62.1667 71.5,59.8333 71.5,57.5C 71.5,56.8333 71.8333,56.5 72.5,56.5 Z"/></g>
<g><path style="opacity:1" fill="#82b644" d="M 39.5,60.5 C 39.8333,60.5 40.1667,60.5 40.5,60.5C 40.3284,61.4916 40.6618,62.1583 41.5,62.5C 41.5,65.8333 41.5,69.1667 41.5,72.5C 42.8333,72.5 44.1667,72.5 45.5,72.5C 45.6713,69.2027 45.0046,68.8694 43.5,71.5C 42.2612,69.9928 42.5946,68.8261 44.5,68C 42.6368,66.5822 42.1368,64.7489 43,62.5C 43.8068,66.449 44.3068,66.449 44.5,62.5C 45.1667,62.5 45.8333,62.5 46.5,62.5C 46.5,66.1667 46.5,69.8333 46.5,73.5C 44.0504,73.702 41.717,73.3686 39.5,72.5C 39.5,68.5 39.5,64.5 39.5,60.5 Z"/></g>
<g><path style="opacity:1" fill="#5cc72f" d="M 50.5,71.5 C 51.1667,71.5 51.8333,71.5 52.5,71.5C 53.5,71.5 54.5,71.5 55.5,71.5C 57.8333,71.5 60.1667,71.5 62.5,71.5C 65.5,71.5 68.5,71.5 71.5,71.5C 71.9746,74.0821 71.3079,76.0821 69.5,77.5C 66.741,77.5484 63.9076,77.8817 61,78.5C 60.7787,75.0569 59.7787,74.7236 58,77.5C 57,77.1667 56,76.8333 55,76.5C 53.7581,77.8721 52.2581,78.8721 50.5,79.5C 49.0815,78.9953 48.4148,77.9953 48.5,76.5C 48.0773,74.2188 48.744,72.5521 50.5,71.5 Z"/></g>
<g><path style="opacity:1" fill="#74d131" d="M 26.5,68.5 C 26.5,69.1667 26.8333,69.5 27.5,69.5C 27.5,71.1667 27.5,72.8333 27.5,74.5C 23.1961,76.0616 18.6961,77.3949 14,78.5C 11.7991,77.1449 10.1325,77.4783 9,79.5C 7.71367,77.8172 6.547,76.1506 5.5,74.5C 5.5,73.5 5.5,72.5 5.5,71.5C 11.5092,71.6662 17.5092,71.4995 23.5,71C 24.6906,70.3021 25.6906,69.4687 26.5,68.5 Z"/></g>
<g><path style="opacity:1" fill="#57c42e" d="M 39.5,72.5 C 41.717,73.3686 44.0504,73.702 46.5,73.5C 46.5,73.8333 46.5,74.1667 46.5,74.5C 46.33,75.8221 46.6634,76.9887 47.5,78C 46.5838,78.3742 45.7504,78.8742 45,79.5C 44.6924,78.6919 44.1924,78.0253 43.5,77.5C 41.9991,78.7515 40.3325,79.7515 38.5,80.5C 35.5541,80.9811 32.7207,80.3144 30,78.5C 29.0331,79.6776 28.5331,81.011 28.5,82.5C 26.5679,81.8545 25.4012,80.5212 25,78.5C 24.6012,78.7284 24.4346,79.0618 24.5,79.5C 19.3203,79.4889 14.3203,79.8222 9.5,80.5C 8.13307,79.7745 6.79974,79.1079 5.5,78.5C 5.5,78.1667 5.5,77.8333 5.5,77.5C 5.5,76.5 5.5,75.5 5.5,74.5C 6.547,76.1506 7.71367,77.8172 9,79.5C 10.1325,77.4783 11.7991,77.1449 14,78.5C 18.6961,77.3949 23.1961,76.0616 27.5,74.5C 29.1951,75.8264 30.5284,75.4931 31.5,73.5C 34.0444,73.8957 36.2111,73.229 38,71.5C 38.3333,72.1667 38.6667,72.8333 39,73.5C 39.3988,73.2716 39.5654,72.9382 39.5,72.5 Z"/></g>
<g><path style="opacity:1" fill="#3db52b" d="M 46.5,74.5 C 47.1667,75.1667 47.8333,75.8333 48.5,76.5C 48.4148,77.9953 49.0815,78.9953 50.5,79.5C 52.2581,78.8721 53.7581,77.8721 55,76.5C 56,76.8333 57,77.1667 58,77.5C 59.7787,74.7236 60.7787,75.0569 61,78.5C 63.9076,77.8817 66.741,77.5484 69.5,77.5C 67.9773,79.2818 65.9773,80.6152 63.5,81.5C 61.5896,80.4519 59.7562,80.4519 58,81.5C 57.2613,80.4258 56.2613,79.7591 55,79.5C 53.0067,81.3329 50.6734,82.6662 48,83.5C 46.984,82.3659 46.3173,82.6992 46,84.5C 45,83.1667 44,83.1667 43,84.5C 41.9563,83.3774 41.2896,82.0441 41,80.5C 40.6827,82.3008 40.016,82.6341 39,81.5C 36.962,83.0722 34.6287,84.0722 32,84.5C 31.6667,83.8333 31.3333,83.1667 31,82.5C 29.6288,84.0414 28.1288,85.3747 26.5,86.5C 25.0605,84.412 24.3939,82.0786 24.5,79.5C 24.4346,79.0618 24.6012,78.7284 25,78.5C 25.4012,80.5212 26.5679,81.8545 28.5,82.5C 28.5331,81.011 29.0331,79.6776 30,78.5C 32.7207,80.3144 35.5541,80.9811 38.5,80.5C 40.3325,79.7515 41.9991,78.7515 43.5,77.5C 44.1924,78.0253 44.6924,78.6919 45,79.5C 45.7504,78.8742 46.5838,78.3742 47.5,78C 46.6634,76.9887 46.33,75.8221 46.5,74.5 Z"/></g>
<g><path style="opacity:1" fill="#2ba826" d="M 71.5,70.5 C 72.1667,70.5 72.5,70.8333 72.5,71.5C 72.3575,75.5453 72.3575,79.3786 72.5,83C 71.1815,84.9084 69.3482,85.7418 67,85.5C 64.1189,84.041 61.2856,83.3744 58.5,83.5C 57.6143,84.325 57.281,85.325 57.5,86.5C 54.4466,86.0893 51.4466,85.4226 48.5,84.5C 48.8914,85.8905 48.0581,86.8905 46,87.5C 45.586,87.0426 45.086,86.7093 44.5,86.5C 41.9607,87.1153 39.4607,87.7819 37,88.5C 33.8653,87.2006 30.6987,87.2006 27.5,88.5C 26.7025,88.0431 26.3691,87.3764 26.5,86.5C 28.1288,85.3747 29.6288,84.0414 31,82.5C 31.3333,83.1667 31.6667,83.8333 32,84.5C 34.6287,84.0722 36.962,83.0722 39,81.5C 40.016,82.6341 40.6827,82.3008 41,80.5C 41.2896,82.0441 41.9563,83.3774 43,84.5C 44,83.1667 45,83.1667 46,84.5C 46.3173,82.6992 46.984,82.3659 48,83.5C 50.6734,82.6662 53.0067,81.3329 55,79.5C 56.2613,79.7591 57.2613,80.4258 58,81.5C 59.7562,80.4519 61.5896,80.4519 63.5,81.5C 65.9773,80.6152 67.9773,79.2818 69.5,77.5C 71.3079,76.0821 71.9746,74.0821 71.5,71.5C 71.5,71.1667 71.5,70.8333 71.5,70.5 Z"/></g>
<g><path style="opacity:1" fill="#1e9622" d="M 72.5,71.5 C 73.2368,74.7254 73.9035,78.0588 74.5,81.5C 74.5,83.5 74.5,85.5 74.5,87.5C 58.2118,87.9256 41.8785,88.7589 25.5,90C 22.1901,91.5817 18.8568,92.7484 15.5,93.5C 12.1667,93.5 8.83333,93.5 5.5,93.5C 4.65762,88.213 4.32429,82.8797 4.5,77.5C 4.83333,77.5 5.16667,77.5 5.5,77.5C 5.5,77.8333 5.5,78.1667 5.5,78.5C 5.21083,82.1064 5.54416,85.6064 6.5,89C 8.80866,89.7562 10.8087,89.2562 12.5,87.5C 13.6226,88.5437 14.9559,89.2104 16.5,89.5C 18.4719,88.8433 20.3052,88.8433 22,89.5C 23.129,87.8588 24.629,86.8588 26.5,86.5C 26.3691,87.3764 26.7025,88.0431 27.5,88.5C 30.6987,87.2006 33.8653,87.2006 37,88.5C 39.4607,87.7819 41.9607,87.1153 44.5,86.5C 45.086,86.7093 45.586,87.0426 46,87.5C 48.0581,86.8905 48.8914,85.8905 48.5,84.5C 51.4466,85.4226 54.4466,86.0893 57.5,86.5C 57.281,85.325 57.6143,84.325 58.5,83.5C 61.2856,83.3744 64.1189,84.041 67,85.5C 69.3482,85.7418 71.1815,84.9084 72.5,83C 72.3575,79.3786 72.3575,75.5453 72.5,71.5 Z"/></g>
<g><path style="opacity:1" fill="#33ab25" d="M 5.5,78.5 C 6.79974,79.1079 8.13307,79.7745 9.5,80.5C 14.3203,79.8222 19.3203,79.4889 24.5,79.5C 24.3939,82.0786 25.0605,84.412 26.5,86.5C 24.629,86.8588 23.129,87.8588 22,89.5C 20.3052,88.8433 18.4719,88.8433 16.5,89.5C 14.9559,89.2104 13.6226,88.5437 12.5,87.5C 10.8087,89.2562 8.80866,89.7562 6.5,89C 5.54416,85.6064 5.21083,82.1064 5.5,78.5 Z"/></g>
<g><path style="opacity:1" fill="#22882a" d="M 74.5,81.5 C 74.8333,81.5 75.1667,81.5 75.5,81.5C 75.5,83.8333 75.5,86.1667 75.5,88.5C 65.6955,89.5484 56.0288,90.5484 46.5,91.5C 44.1667,91.5 41.8333,91.5 39.5,91.5C 33.8864,91.073 28.5531,91.7396 23.5,93.5C 22.5,93.5 21.5,93.5 20.5,93.5C 18.8333,93.5 17.1667,93.5 15.5,93.5C 18.8568,92.7484 22.1901,91.5817 25.5,90C 41.8785,88.7589 58.2118,87.9256 74.5,87.5C 74.5,85.5 74.5,83.5 74.5,81.5 Z"/></g>
<g><path style="opacity:0.961" fill="#8ab892" d="M 75.5,80.5 C 77.9011,83.7078 77.9011,86.8745 75.5,90C 67.5303,91.0217 59.5303,91.5217 51.5,91.5C 49.8333,91.5 48.1667,91.5 46.5,91.5C 56.0288,90.5484 65.6955,89.5484 75.5,88.5C 75.5,86.1667 75.5,83.8333 75.5,81.5C 75.5,81.1667 75.5,80.8333 75.5,80.5 Z"/></g>
<g><path style="opacity:1" fill="#297639" d="M 39.5,91.5 C 34.3673,92.6649 29.034,93.3315 23.5,93.5C 28.5531,91.7396 33.8864,91.073 39.5,91.5 Z"/></g>
<g><path style="opacity:1" fill="#509550" d="M 3.5,67.5 C 3.83333,67.5 4.16667,67.5 4.5,67.5C 4.5,70.8333 4.5,74.1667 4.5,77.5C 4.32429,82.8797 4.65762,88.213 5.5,93.5C 8.83333,93.5 12.1667,93.5 15.5,93.5C 17.1667,93.5 18.8333,93.5 20.5,93.5C 17.1667,94.1667 13.8333,94.8333 10.5,95.5C 8.16667,95.5 5.83333,95.5 3.5,95.5C 3.5,86.1667 3.5,76.8333 3.5,67.5 Z"/></g>
<g><path style="opacity:0.984" fill="#add8b8" d="M 39.5,91.5 C 41.8333,91.5 44.1667,91.5 46.5,91.5C 48.1667,91.5 49.8333,91.5 51.5,91.5C 38.0702,93.8093 24.4035,95.1427 10.5,95.5C 13.8333,94.8333 17.1667,94.1667 20.5,93.5C 21.5,93.5 22.5,93.5 23.5,93.5C 29.034,93.3315 34.3673,92.6649 39.5,91.5 Z"/></g>
<g><path style="opacity:0.196" fill="#656c69" d="M 72.5,55.5 C 73.1667,55.5 73.8333,55.5 74.5,55.5C 74.5,57.5 74.5,59.5 74.5,61.5C 74.2525,63.8583 74.9192,65.8583 76.5,67.5C 77.3896,74.5058 78.3896,81.5058 79.5,88.5C 79.4302,89.7716 79.0968,90.9383 78.5,92C 56.6959,94.6257 35.0292,97.1257 13.5,99.5C 9.83333,99.5 6.16667,99.5 2.5,99.5C 2.5,98.5 2.5,97.5 2.5,96.5C 5.38544,96.8064 8.0521,96.4731 10.5,95.5C 24.4035,95.1427 38.0702,93.8093 51.5,91.5C 59.5303,91.5217 67.5303,91.0217 75.5,90C 77.9011,86.8745 77.9011,83.7078 75.5,80.5C 74.368,72.5119 73.368,64.5119 72.5,56.5C 72.5,56.1667 72.5,55.8333 72.5,55.5 Z"/></g>
</svg>
