<?xml version="1.0" encoding="UTF-8"?>
<!DOCTYPE svg PUBLIC "-//W3C//DTD SVG 1.1//EN" "http://www.w3.org/Graphics/SVG/1.1/DTD/svg11.dtd">
<svg xmlns="http://www.w3.org/2000/svg" version="1.1" width="100px" height="100px" style="shape-rendering:geometricPrecision; text-rendering:geometricPrecision; image-rendering:optimizeQuality; fill-rule:evenodd; clip-rule:evenodd" xmlns:xlink="http://www.w3.org/1999/xlink">
<g><path style="opacity:0.844" fill="#f25a2a" d="M 38.5,-0.5 C 44.5,-0.5 50.5,-0.5 56.5,-0.5C 52.7886,1.72436 48.7886,2.05769 44.5,0.5C 42.6639,1.02756 40.9972,1.69423 39.5,2.5C 38.1667,2.5 37.5,1.83333 37.5,0.5C 38.1667,0.5 38.5,0.166667 38.5,-0.5 Z"/></g>
<g><path style="opacity:0.887" fill="#ef5b2f" d="M 56.5,-0.5 C 57.5,-0.5 58.5,-0.5 59.5,-0.5C 59.5,0.5 59.5,1.5 59.5,2.5C 52.8333,2.5 46.1667,2.5 39.5,2.5C 40.9972,1.69423 42.6639,1.02756 44.5,0.5C 48.7886,2.05769 52.7886,1.72436 56.5,-0.5 Z"/></g>
<g><path style="opacity:0.965" fill="#e35f35" d="M 37.5,0.5 C 37.5,1.83333 38.1667,2.5 39.5,2.5C 46.1667,2.5 52.8333,2.5 59.5,2.5C 59.5,2.83333 59.5,3.16667 59.5,3.5C 49.1178,2.51327 39.1178,3.84661 29.5,7.5C 30.3029,6.57683 30.4696,5.57683 30,4.5C 28.6439,5.38017 27.1439,5.71351 25.5,5.5C 28.9824,2.76366 32.9824,1.09699 37.5,0.5 Z"/></g>
<g><path style="opacity:1" fill="#ee5b2d" d="M 59.5,-0.5 C 59.8333,-0.5 60.1667,-0.5 60.5,-0.5C 65.1502,0.750844 69.4835,2.75084 73.5,5.5C 73.7148,7.17876 73.0481,8.17876 71.5,8.5C 67.5796,6.52671 63.5796,4.86005 59.5,3.5C 59.5,3.16667 59.5,2.83333 59.5,2.5C 59.5,1.5 59.5,0.5 59.5,-0.5 Z"/></g>
<g><path style="opacity:0.865" fill="#eb5d30" d="M 29.5,7.5 C 25.6641,9.58363 21.9974,11.917 18.5,14.5C 16.901,14.7678 15.5676,14.4345 14.5,13.5C 17.6012,10.0669 21.2679,7.40019 25.5,5.5C 27.1439,5.71351 28.6439,5.38017 30,4.5C 30.4696,5.57683 30.3029,6.57683 29.5,7.5 Z"/></g>
<g><path style="opacity:0.878" fill="#e5613c" d="M 73.5,5.5 C 75.4341,6.11028 77.1007,7.11028 78.5,8.5C 76.6203,8.22911 75.287,8.89578 74.5,10.5C 73.2905,10.0679 72.2905,9.40128 71.5,8.5C 73.0481,8.17876 73.7148,7.17876 73.5,5.5 Z"/></g>
<g><path style="opacity:1" fill="#ef5a33" d="M 78.5,8.5 C 81.4474,9.7805 83.7807,11.7805 85.5,14.5C 85.6138,16.7179 86.2804,18.7179 87.5,20.5C 86.8333,20.5 86.1667,20.5 85.5,20.5C 85.1667,19.8333 84.8333,19.1667 84.5,18.5C 84.5123,15.858 83.179,14.5246 80.5,14.5C 78.5,13.1667 76.5,11.8333 74.5,10.5C 75.287,8.89578 76.6203,8.22911 78.5,8.5 Z"/></g>
<g><path style="opacity:0.867" fill="#e85d36" d="M 14.5,13.5 C 15.5676,14.4345 16.901,14.7678 18.5,14.5C 17.1667,16.5 15.5,18.1667 13.5,19.5C 13.6309,18.6236 13.2975,17.9569 12.5,17.5C 11.1455,19.5212 9.47881,21.1879 7.5,22.5C 8.69363,18.6367 11.027,15.6367 14.5,13.5 Z"/></g>
<g><path style="opacity:1" fill="#e26336" d="M 80.5,14.5 C 83.179,14.5246 84.5123,15.858 84.5,18.5C 82.8333,17.5 81.5,16.1667 80.5,14.5 Z"/></g>
<g><path style="opacity:0.958" fill="#e95e2b" d="M 85.5,14.5 C 88.4707,16.4426 90.4707,19.1092 91.5,22.5C 90.0937,22.9731 89.427,23.9731 89.5,25.5C 88.6618,25.1583 88.3284,24.4916 88.5,23.5C 88.4431,22.391 88.1098,21.391 87.5,20.5C 86.2804,18.7179 85.6138,16.7179 85.5,14.5 Z"/></g>
<g><path style="opacity:0.739" fill="#eb5f26" d="M 13.5,19.5 C 12.5514,21.7772 11.2181,23.7772 9.5,25.5C 7.82124,25.7148 6.82124,25.0481 6.5,23.5C 6.5,22.8333 6.83333,22.5 7.5,22.5C 9.47881,21.1879 11.1455,19.5212 12.5,17.5C 13.2975,17.9569 13.6309,18.6236 13.5,19.5 Z"/></g>
<g><path style="opacity:0.686" fill="#d76825" d="M 85.5,20.5 C 86.1667,20.5 86.8333,20.5 87.5,20.5C 88.1098,21.391 88.4431,22.391 88.5,23.5C 87.1667,22.8333 86.1667,21.8333 85.5,20.5 Z"/></g>
<g><path style="opacity:0.974" fill="#e95d30" d="M 6.5,23.5 C 6.82124,25.0481 7.82124,25.7148 9.5,25.5C 8.31238,27.7221 7.31238,30.0554 6.5,32.5C 5.5,32.5 4.5,32.5 3.5,32.5C 3.5,31.5 3.5,30.5 3.5,29.5C 3.99249,27.1815 4.99249,25.1815 6.5,23.5 Z"/></g>
<g><path style="opacity:0.961" fill="#f0582f" d="M 91.5,22.5 C 92.1667,22.5 92.5,22.8333 92.5,23.5C 92.3874,26.0488 93.0541,28.3821 94.5,30.5C 94.3333,30.8333 94.1667,31.1667 94,31.5C 93.2917,30.6195 92.4584,29.9528 91.5,29.5C 90.3995,28.3951 89.7329,27.0618 89.5,25.5C 89.427,23.9731 90.0937,22.9731 91.5,22.5 Z"/></g>
<g><path style="opacity:0.995" fill="#e75d34" d="M 92.5,23.5 C 95.2461,26.9991 96.9127,30.9991 97.5,35.5C 96.209,35.2627 95.209,35.596 94.5,36.5C 93.6557,34.1572 92.6557,31.8239 91.5,29.5C 92.4584,29.9528 93.2917,30.6195 94,31.5C 94.1667,31.1667 94.3333,30.8333 94.5,30.5C 93.0541,28.3821 92.3874,26.0488 92.5,23.5 Z"/></g>
<g><path style="opacity:0.898" fill="#e16538" d="M 3.5,29.5 C 3.5,30.5 3.5,31.5 3.5,32.5C 4.5,32.5 5.5,32.5 6.5,32.5C 6.01131,33.9952 5.34464,35.3285 4.5,36.5C 4.30591,32.9952 3.30591,32.6618 1.5,35.5C 1.25939,33.1016 1.92606,31.1016 3.5,29.5 Z"/></g>
<g><path style="opacity:0.455" fill="#f25c25" d="M 10.5,34.5 C 13.1667,34.5 15.8333,34.5 18.5,34.5C 18.7678,36.099 18.4345,37.4324 17.5,38.5C 17.5,37.5 17.5,36.5 17.5,35.5C 15.0706,35.8844 12.7373,36.551 10.5,37.5C 10.5,36.5 10.5,35.5 10.5,34.5 Z"/></g>
<g><path style="opacity:1" fill="#eb5b2f" d="M 4.5,36.5 C 4.73731,37.791 4.40397,38.791 3.5,39.5C 3.16667,39.5 2.83333,39.5 2.5,39.5C 2.06795,38.2905 1.40128,37.2905 0.5,36.5C 0.5,35.8333 0.833333,35.5 1.5,35.5C 3.30591,32.6618 4.30591,32.9952 4.5,36.5 Z"/></g>
<g><path style="opacity:0.748" fill="#f45a2d" d="M 0.5,36.5 C 1.40128,37.2905 2.06795,38.2905 2.5,39.5C 2.66625,46.175 2.49958,52.8417 2,59.5C 1.76791,60.7375 1.26791,61.7375 0.5,62.5C 0.67158,61.5084 0.338246,60.8417 -0.5,60.5C -0.5,58.8333 -0.5,57.1667 -0.5,55.5C 0.747897,54.6661 1.41456,53.3328 1.5,51.5C 1.43242,48.5619 0.765755,45.8952 -0.5,43.5C -0.5,41.8333 -0.5,40.1667 -0.5,38.5C 0.338246,38.1583 0.67158,37.4916 0.5,36.5 Z"/></g>
<g><path style="opacity:1" fill="#f6643e" d="M 17.5,38.5 C 15.5349,45.7605 14.8682,53.4271 15.5,61.5C 14.8333,54.1667 14.1667,46.8333 13.5,39.5C 12.5,39.5 11.5,39.5 10.5,39.5C 10.5,38.8333 10.5,38.1667 10.5,37.5C 12.7373,36.551 15.0706,35.8844 17.5,35.5C 17.5,36.5 17.5,37.5 17.5,38.5 Z"/></g>
<g><path style="opacity:0.741" fill="#f15d2b" d="M 88.5,34.5 C 88.5,36.1667 88.5,37.8333 88.5,39.5C 88.1667,39.5 87.8333,39.5 87.5,39.5C 86.8333,39.5 86.1667,39.5 85.5,39.5C 85.1667,39.5 84.8333,39.5 84.5,39.5C 84.5,38.8333 84.1667,38.5 83.5,38.5C 82.5,38.5 81.5,38.5 80.5,38.5C 80.5,37.1667 80.5,35.8333 80.5,34.5C 83.1667,34.5 85.8333,34.5 88.5,34.5 Z"/></g>
<g><path style="opacity:0.716" fill="#f15b2d" d="M 97.5,35.5 C 98.1667,36.5 98.8333,37.5 99.5,38.5C 99.5,41.5 99.5,44.5 99.5,47.5C 98.5,47.5 97.5,47.5 96.5,47.5C 96.8064,44.6146 96.4731,41.9479 95.5,39.5C 94.596,38.791 94.2627,37.791 94.5,36.5C 95.209,35.596 96.209,35.2627 97.5,35.5 Z"/></g>
<g><path style="opacity:1" fill="#f1592c" d="M 10.5,39.5 C 11.5,39.5 12.5,39.5 13.5,39.5C 12.7257,43.0463 12.3923,46.3797 12.5,49.5C 11.6768,46.3162 11.0101,42.9828 10.5,39.5 Z"/></g>
<g><path style="opacity:0.361" fill="#d76540" d="M 28.5,40.5 C 29.9952,40.9887 31.3285,41.6554 32.5,42.5C 31.1667,42.5 29.8333,42.5 28.5,42.5C 28.5,41.8333 28.5,41.1667 28.5,40.5 Z"/></g>
<g><path style="opacity:0.698" fill="#f55831" d="M 45.5,41.5 C 45.7678,43.099 45.4345,44.4324 44.5,45.5C 44.1667,45.5 43.8333,45.5 43.5,45.5C 43.44,44.9569 43.1067,44.6236 42.5,44.5C 41.6143,45.325 41.281,46.325 41.5,47.5C 41.1667,47.5 40.8333,47.5 40.5,47.5C 39.1667,46.1667 37.8333,44.8333 36.5,43.5C 38.8196,40.5058 41.8196,39.8391 45.5,41.5 Z"/></g>
<g><path style="opacity:0.966" fill="#f15b2b" d="M 78.5,41.5 C 78.7373,42.791 78.404,43.791 77.5,44.5C 76.1667,44.5 74.8333,44.5 73.5,44.5C 73.4431,43.391 73.1098,42.391 72.5,41.5C 74.5,40.1667 76.5,40.1667 78.5,41.5 Z"/></g>
<g><path style="opacity:0.929" fill="#dd6a26" d="M 71.5,41.5 C 71.5,42.8333 70.8333,43.5 69.5,43.5C 69.5,42.1667 70.1667,41.5 71.5,41.5 Z"/></g>
<g><path style="opacity:0.169" fill="#f45b2d" d="M 28.5,40.5 C 28.5,41.1667 28.5,41.8333 28.5,42.5C 29.2625,43.2679 30.2625,43.7679 31.5,44C 30.944,44.3826 30.6107,44.8826 30.5,45.5C 28.9582,44.6993 27.2915,44.366 25.5,44.5C 23.8212,44.7148 22.8212,44.0481 22.5,42.5C 24.2143,41.2616 26.2143,40.595 28.5,40.5 Z"/></g>
<g><path style="opacity:0.938" fill="#ec5e32" d="M 45.5,41.5 C 47.4387,42.0138 48.4387,43.3472 48.5,45.5C 48.1543,46.8492 47.821,48.1825 47.5,49.5C 46.5,49.5 45.5,49.5 44.5,49.5C 44.5,48.1667 44.5,46.8333 44.5,45.5C 45.4345,44.4324 45.7678,43.099 45.5,41.5 Z"/></g>
<g><path style="opacity:0.992" fill="#e5602d" d="M 28.5,42.5 C 29.8333,42.5 31.1667,42.5 32.5,42.5C 33.9063,42.9731 34.573,43.9731 34.5,45.5C 32.9397,47.1561 31.9397,49.1561 31.5,51.5C 31.4828,49.4352 31.1495,47.4352 30.5,45.5C 30.6107,44.8826 30.944,44.3826 31.5,44C 30.2625,43.7679 29.2625,43.2679 28.5,42.5 Z"/></g>
<g><path style="opacity:0.996" fill="#e85f2e" d="M 71.5,41.5 C 71.8333,41.5 72.1667,41.5 72.5,41.5C 73.1098,42.391 73.4431,43.391 73.5,44.5C 72.3412,45.7403 71.3412,47.0736 70.5,48.5C 70.2056,45.5189 68.8722,44.8522 66.5,46.5C 66.8564,44.8102 67.8564,43.8102 69.5,43.5C 70.8333,43.5 71.5,42.8333 71.5,41.5 Z"/></g>
<g><path style="opacity:0.008" fill="#dc7355" d="M 78.5,41.5 C 79.782,42.7082 79.782,44.0416 78.5,45.5C 77.8933,45.3764 77.56,45.0431 77.5,44.5C 78.404,43.791 78.7373,42.791 78.5,41.5 Z"/></g>
<g><path style="opacity:0.835" fill="#f35a28" d="M -0.5,43.5 C 0.765755,45.8952 1.43242,48.5619 1.5,51.5C 1.41456,53.3328 0.747897,54.6661 -0.5,55.5C -0.5,51.5 -0.5,47.5 -0.5,43.5 Z"/></g>
<g><path style="opacity:0.455" fill="#cf6941" d="M 57.5,48.5 C 56.8365,46.9581 56.1698,45.2914 55.5,43.5C 54.5159,46.4281 54.1826,49.4281 54.5,52.5C 54.1667,52.5 53.8333,52.5 53.5,52.5C 53.5,48.8333 53.5,45.1667 53.5,41.5C 54.8333,41.5 56.1667,41.5 57.5,41.5C 57.5,43.8333 57.5,46.1667 57.5,48.5 Z"/></g>
<g><path style="opacity:0.849" fill="#f15c2a" d="M 96.5,47.5 C 97.5,47.5 98.5,47.5 99.5,47.5C 99.5,50.1667 99.5,52.8333 99.5,55.5C 98.5,55.5 97.5,55.5 96.5,55.5C 96.5,52.8333 96.5,50.1667 96.5,47.5 Z"/></g>
<g><path style="opacity:1" fill="#e85e33" d="M 22.5,42.5 C 22.8212,44.0481 23.8212,44.7148 25.5,44.5C 22.8333,47.8333 22.8333,51.1667 25.5,54.5C 27.2789,56.3435 29.6122,57.0102 32.5,56.5C 22.5159,60.0334 18.3492,56.3667 20,45.5C 20.3768,44.0577 21.2101,43.0577 22.5,42.5 Z"/></g>
<g><path style="opacity:0.737" fill="#ed5c2b" d="M 34.5,45.5 C 35.6341,47.9664 35.8007,50.633 35,53.5C 34.6232,54.9423 33.7899,55.9423 32.5,56.5C 29.6122,57.0102 27.2789,56.3435 25.5,54.5C 28.089,54.539 30.089,53.539 31.5,51.5C 31.9397,49.1561 32.9397,47.1561 34.5,45.5 Z"/></g>
<g><path style="opacity:0.716" fill="#ed5b2a" d="M 36.5,43.5 C 37.8333,44.8333 39.1667,46.1667 40.5,47.5C 40.1667,48.8333 39.8333,50.1667 39.5,51.5C 39.5,52.5 39.5,53.5 39.5,54.5C 38.5,54.5 37.5,54.5 36.5,54.5C 36.5,50.8333 36.5,47.1667 36.5,43.5 Z"/></g>
<g><path style="opacity:0.583" fill="#e85f2f" d="M 43.5,45.5 C 43.8333,45.5 44.1667,45.5 44.5,45.5C 44.5,46.8333 44.5,48.1667 44.5,49.5C 43.6618,49.8417 43.3284,50.5084 43.5,51.5C 42.1667,51.5 41.5,52.1667 41.5,53.5C 40.8333,52.8333 40.1667,52.1667 39.5,51.5C 39.8333,50.1667 40.1667,48.8333 40.5,47.5C 40.8333,47.5 41.1667,47.5 41.5,47.5C 42.8333,47.5 43.5,46.8333 43.5,45.5 Z"/></g>
<g><path style="opacity:0.884" fill="#f15b27" d="M 70.5,48.5 C 70.5,48.8333 70.5,49.1667 70.5,49.5C 69.3951,50.6005 68.0618,51.2671 66.5,51.5C 66.5,49.8333 66.5,48.1667 66.5,46.5C 68.8722,44.8522 70.2056,45.5189 70.5,48.5 Z"/></g>
<g><path style="opacity:1" fill="#f65633" d="M 44.5,49.5 C 45.5,49.5 46.5,49.5 47.5,49.5C 48.6737,50.5137 49.3404,51.847 49.5,53.5C 47.8333,53.5 46.1667,53.5 44.5,53.5C 44.6716,52.5084 44.3382,51.8417 43.5,51.5C 43.3284,50.5084 43.6618,49.8417 44.5,49.5 Z"/></g>
<g><path style="opacity:1" fill="#ed5c30" d="M 57.5,48.5 C 57.8016,51.0593 57.4682,53.3926 56.5,55.5C 56.2178,54.2223 55.5511,53.2223 54.5,52.5C 54.1826,49.4281 54.5159,46.4281 55.5,43.5C 56.1698,45.2914 56.8365,46.9581 57.5,48.5 Z"/></g>
<g><path style="opacity:0.843" fill="#e95d36" d="M 58.5,49.5 C 60.8333,49.5 63.1667,49.5 65.5,49.5C 65.5,50.8333 65.5,52.1667 65.5,53.5C 63.1667,53.5 60.8333,53.5 58.5,53.5C 58.5,52.1667 58.5,50.8333 58.5,49.5 Z"/></g>
<g><path style="opacity:1" fill="#f4582c" d="M 12.5,51.5 C 13.8333,54.1667 13.8333,56.8333 12.5,59.5C 11.1667,56.8333 11.1667,54.1667 12.5,51.5 Z"/></g>
<g><path style="opacity:0.725" fill="#f25929" d="M 13.5,39.5 C 14.1667,46.8333 14.8333,54.1667 15.5,61.5C 15.9731,62.9063 16.9731,63.573 18.5,63.5C 18.5,63.8333 18.5,64.1667 18.5,64.5C 16.1667,64.5 13.8333,64.5 11.5,64.5C 11.6287,62.7839 11.962,61.1172 12.5,59.5C 13.8333,56.8333 13.8333,54.1667 12.5,51.5C 12.5,50.8333 12.5,50.1667 12.5,49.5C 12.3923,46.3797 12.7257,43.0463 13.5,39.5 Z"/></g>
<g><path style="opacity:0.945" fill="#e65f32" d="M 70.5,49.5 C 71.0475,51.4847 72.0475,53.1514 73.5,54.5C 71.8762,54.6399 70.7096,53.9733 70,52.5C 69.51,53.7932 69.3433,55.1266 69.5,56.5C 67.7497,55.3406 66.7497,53.674 66.5,51.5C 68.0618,51.2671 69.3951,50.6005 70.5,49.5 Z"/></g>
<g><path style="opacity:0.805" fill="#ef5c2b" d="M 39.5,51.5 C 40.1667,52.1667 40.8333,52.8333 41.5,53.5C 42.3478,54.625 43.3478,54.625 44.5,53.5C 46.1667,53.5 47.8333,53.5 49.5,53.5C 51.1284,54.8528 52.4617,54.5195 53.5,52.5C 53.8333,52.5 54.1667,52.5 54.5,52.5C 55.5511,53.2223 56.2178,54.2223 56.5,55.5C 55.0272,58.2474 52.6939,59.0807 49.5,58C 48.8742,57.2496 48.3742,56.4162 48,55.5C 44.8779,58.0243 41.3779,58.6909 37.5,57.5C 36.6143,56.675 36.281,55.675 36.5,54.5C 37.5,54.5 38.5,54.5 39.5,54.5C 39.5,53.5 39.5,52.5 39.5,51.5 Z"/></g>
<g><path style="opacity:0.455" fill="#f45930" d="M 73.5,54.5 C 75.1667,54.5 76.8333,54.5 78.5,54.5C 77.6261,55.5251 76.4595,56.1918 75,56.5C 73.1739,55.3267 71.3405,55.3267 69.5,56.5C 69.3433,55.1266 69.51,53.7932 70,52.5C 70.7096,53.9733 71.8762,54.6399 73.5,54.5 Z"/></g>
<g><path style="opacity:0.716" fill="#f1592b" d="M 96.5,55.5 C 97.5,55.5 98.5,55.5 99.5,55.5C 99.5,57.1667 99.5,58.8333 99.5,60.5C 98.6618,60.8417 98.3284,61.5084 98.5,62.5C 96.6565,60.7211 95.9898,58.3878 96.5,55.5 Z"/></g>
<g><path style="opacity:0.829" fill="#ea6436" d="M 10.5,34.5 C 10.5,35.5 10.5,36.5 10.5,37.5C 10.5,38.1667 10.5,38.8333 10.5,39.5C 11.0101,42.9828 11.6768,46.3162 12.5,49.5C 12.5,50.1667 12.5,50.8333 12.5,51.5C 11.1667,54.1667 11.1667,56.8333 12.5,59.5C 11.962,61.1172 11.6287,62.7839 11.5,64.5C 13.8333,64.5 16.1667,64.5 18.5,64.5C 15.7699,65.8166 12.9365,65.8166 10,64.5C 9.17508,54.3247 9.34174,44.3247 10.5,34.5 Z"/></g>
<g><path style="opacity:0.165" fill="#e76038" d="M 78.5,54.5 C 79.8284,55.9097 79.4951,57.0764 77.5,58C 74.5178,58.7029 71.8512,58.2029 69.5,56.5C 71.3405,55.3267 73.1739,55.3267 75,56.5C 76.4595,56.1918 77.6261,55.5251 78.5,54.5 Z"/></g>
<g><path style="opacity:0.843" fill="#e26031" d="M 95.5,39.5 C 96.4731,41.9479 96.8064,44.6146 96.5,47.5C 96.5,50.1667 96.5,52.8333 96.5,55.5C 95.9898,58.3878 96.6565,60.7211 98.5,62.5C 97.9759,64.3057 97.3092,65.9724 96.5,67.5C 96.1788,65.9519 95.1788,65.2852 93.5,65.5C 95.2947,56.9597 95.9614,48.293 95.5,39.5 Z"/></g>
<g><path style="opacity:0.455" fill="#db6537" d="M 15.5,61.5 C 17.1788,61.2852 18.1788,61.9519 18.5,63.5C 16.9731,63.573 15.9731,62.9063 15.5,61.5 Z"/></g>
<g><path style="opacity:0.741" fill="#ec673e" d="M 88.5,34.5 C 89.6583,44.3247 89.8249,54.3247 89,64.5C 86.2809,65.4438 83.4475,65.7771 80.5,65.5C 80.5,64.1667 80.5,62.8333 80.5,61.5C 81.5,61.5 82.5,61.5 83.5,61.5C 83.5,53.8333 83.5,46.1667 83.5,38.5C 84.1667,38.5 84.5,38.8333 84.5,39.5C 84.5,45.8333 84.5,52.1667 84.5,58.5C 84.5,59.5 84.5,60.5 84.5,61.5C 85.8333,61.5 87.1667,61.5 88.5,61.5C 88.5,59.5 88.5,57.5 88.5,55.5C 88.5,50.1667 88.5,44.8333 88.5,39.5C 88.5,37.8333 88.5,36.1667 88.5,34.5 Z"/></g>
<g><path style="opacity:0.848" fill="#f5572c" d="M 88.5,55.5 C 88.5,57.5 88.5,59.5 88.5,61.5C 87.1667,61.5 85.8333,61.5 84.5,61.5C 84.5,60.5 84.5,59.5 84.5,58.5C 85.8333,57.5 87.1667,56.5 88.5,55.5 Z"/></g>
<g><path style="opacity:0.725" fill="#f55a2a" d="M 84.5,39.5 C 84.8333,39.5 85.1667,39.5 85.5,39.5C 86.1667,59.5 86.8333,59.5 87.5,39.5C 87.8333,39.5 88.1667,39.5 88.5,39.5C 88.5,44.8333 88.5,50.1667 88.5,55.5C 87.1667,56.5 85.8333,57.5 84.5,58.5C 84.5,52.1667 84.5,45.8333 84.5,39.5 Z"/></g>
<g><path style="opacity:1" fill="#f05824" d="M 85.5,39.5 C 86.1667,39.5 86.8333,39.5 87.5,39.5C 86.8333,59.5 86.1667,59.5 85.5,39.5 Z"/></g>
<g><path style="opacity:1" fill="#e55f39" d="M 2.5,39.5 C 2.83333,39.5 3.16667,39.5 3.5,39.5C 3.33375,46.175 3.50042,52.8417 4,59.5C 4.74361,61.8997 5.57695,64.233 6.5,66.5C 5.04125,66.4326 3.70792,66.7659 2.5,67.5C 1.69079,65.9724 1.02412,64.3057 0.5,62.5C 1.26791,61.7375 1.76791,60.7375 2,59.5C 2.49958,52.8417 2.66625,46.175 2.5,39.5 Z"/></g>
<g><path style="opacity:0.944" fill="#f15b2d" d="M 6.5,66.5 C 7.16667,68.1667 7.83333,69.8333 8.5,71.5C 6.67761,71.1692 5.01094,70.5025 3.5,69.5C 2.66175,69.1583 2.32842,68.4916 2.5,67.5C 3.70792,66.7659 5.04125,66.4326 6.5,66.5 Z"/></g>
<g><path style="opacity:0.937" fill="#ed5e2a" d="M 93.5,65.5 C 95.1788,65.2852 96.1788,65.9519 96.5,67.5C 96.1075,69.2838 95.4408,70.9505 94.5,72.5C 92.9731,72.573 91.9731,71.9063 91.5,70.5C 91.3915,68.4862 92.0582,66.8195 93.5,65.5 Z"/></g>
<g><path style="opacity:0.949" fill="#e76032" d="M 91.5,70.5 C 91.9731,71.9063 92.9731,72.573 94.5,72.5C 93.6493,74.8816 92.316,76.8816 90.5,78.5C 88.9519,78.1788 88.2852,77.1788 88.5,75.5C 88.7497,73.326 89.7497,71.6594 91.5,70.5 Z"/></g>
<g><path style="opacity:0.922" fill="#e95c35" d="M 3.5,69.5 C 5.01094,70.5025 6.67761,71.1692 8.5,71.5C 11.7419,77.4112 16.0753,82.4112 21.5,86.5C 19.1944,86.0074 16.861,85.6741 14.5,85.5C 9.3549,81.2185 5.68823,75.8852 3.5,69.5 Z"/></g>
<g><path style="opacity:1" fill="#d9653b" d="M 88.5,75.5 C 88.2852,77.1788 88.9519,78.1788 90.5,78.5C 90.0679,79.7095 89.4013,80.7095 88.5,81.5C 88.3678,78.9931 87.3678,78.3264 85.5,79.5C 86.1224,77.8784 87.1224,76.5451 88.5,75.5 Z"/></g>
<g><path style="opacity:0.922" fill="#e85d36" d="M 88.5,81.5 C 88.1667,82.5 87.5,83.1667 86.5,83.5C 86.573,81.9731 85.9063,80.9731 84.5,80.5C 84.5,79.8333 84.8333,79.5 85.5,79.5C 87.3678,78.3264 88.3678,78.9931 88.5,81.5 Z"/></g>
<g><path style="opacity:0.929" fill="#ef5b28" d="M 84.5,80.5 C 85.9063,80.9731 86.573,81.9731 86.5,83.5C 85.1667,85.5 83.5,87.1667 81.5,88.5C 80.6236,88.6309 79.9569,88.2975 79.5,87.5C 80.1272,86.5832 80.4606,85.5832 80.5,84.5C 82.5,84.5 83.5,83.5 83.5,81.5C 83.5,80.8333 83.8333,80.5 84.5,80.5 Z"/></g>
<g><path style="opacity:0.678" fill="#df6035" d="M 83.5,81.5 C 83.5,83.5 82.5,84.5 80.5,84.5C 81.1667,83.1667 82.1667,82.1667 83.5,81.5 Z"/></g>
<g><path style="opacity:0.835" fill="#ef5a37" d="M 14.5,85.5 C 16.861,85.6741 19.1944,86.0074 21.5,86.5C 22.5,86.8333 23.1667,87.5 23.5,88.5C 21.9519,88.8212 21.2852,89.8212 21.5,91.5C 18.847,89.845 16.5136,87.845 14.5,85.5 Z"/></g>
<g><path style="opacity:1" fill="#df5d34" d="M 80.5,84.5 C 80.4606,85.5832 80.1272,86.5832 79.5,87.5C 79.9569,88.2975 80.6236,88.6309 81.5,88.5C 80.7095,89.4013 79.7095,90.0679 78.5,90.5C 78.1788,88.9519 77.1788,88.2852 75.5,88.5C 76.8534,86.8173 78.5201,85.4839 80.5,84.5 Z"/></g>
<g><path style="opacity:0.984" fill="#ee5a30" d="M 74.5,88.5 C 74.8333,88.5 75.1667,88.5 75.5,88.5C 77.1788,88.2852 78.1788,88.9519 78.5,90.5C 78.0269,91.9063 77.0269,92.573 75.5,92.5C 74.6236,92.6309 73.9569,92.2975 73.5,91.5C 74.1272,90.5832 74.4606,89.5832 74.5,88.5 Z"/></g>
<g><path style="opacity:0.765" fill="#ef5d2d" d="M 23.5,88.5 C 25.153,88.6596 26.4863,89.3263 27.5,90.5C 27.2178,91.7777 26.5511,92.7777 25.5,93.5C 23.9382,93.2671 22.6049,92.6005 21.5,91.5C 21.2852,89.8212 21.9519,88.8212 23.5,88.5 Z"/></g>
<g><path style="opacity:0.958" fill="#eb6035" d="M 74.5,88.5 C 74.4606,89.5832 74.1272,90.5832 73.5,91.5C 73.9569,92.2975 74.6236,92.6309 75.5,92.5C 73.6505,94.5716 71.3171,95.9049 68.5,96.5C 67.0821,94.6921 65.0821,94.0254 62.5,94.5C 66.502,92.708 70.502,90.708 74.5,88.5 Z"/></g>
<g><path style="opacity:0.956" fill="#eb5e32" d="M 27.5,90.5 C 30.6336,92.2919 33.9669,93.6252 37.5,94.5C 37.5674,95.9587 37.2341,97.2921 36.5,98.5C 32.4218,97.6257 28.7551,95.959 25.5,93.5C 26.5511,92.7777 27.2178,91.7777 27.5,90.5 Z"/></g>
<g><path style="opacity:0.178" fill="#d8633e" d="M 38.5,94.5 C 45.4122,95.4621 52.4122,95.7955 59.5,95.5C 59.5,95.8333 59.5,96.1667 59.5,96.5C 56.8333,96.5 54.1667,96.5 51.5,96.5C 48.8333,96.5 46.1667,96.5 43.5,96.5C 41.2188,96.9227 39.5521,96.256 38.5,94.5 Z"/></g>
<g><path style="opacity:0.997" fill="#ec6030" d="M 62.5,94.5 C 65.0821,94.0254 67.0821,94.6921 68.5,96.5C 66.5,97.1667 64.5,97.8333 62.5,98.5C 62.631,97.7611 62.4643,97.0944 62,96.5C 61.0228,97.7736 60.1894,97.7736 59.5,96.5C 59.5,96.1667 59.5,95.8333 59.5,95.5C 60.209,94.596 61.209,94.2627 62.5,94.5 Z"/></g>
<g><path style="opacity:0.761" fill="#f05c2d" d="M 37.5,94.5 C 37.8333,94.5 38.1667,94.5 38.5,94.5C 39.5521,96.256 41.2188,96.9227 43.5,96.5C 43.5,97.5 43.5,98.5 43.5,99.5C 41.5,99.5 39.5,99.5 37.5,99.5C 37.5,98.8333 37.1667,98.5 36.5,98.5C 37.2341,97.2921 37.5674,95.9587 37.5,94.5 Z"/></g>
<g><path style="opacity:0.881" fill="#f35b2a" d="M 43.5,96.5 C 46.1667,96.5 48.8333,96.5 51.5,96.5C 50.8333,97.5 50.1667,98.5 49.5,99.5C 47.5,99.5 45.5,99.5 43.5,99.5C 43.5,98.5 43.5,97.5 43.5,96.5 Z"/></g>
<g><path style="opacity:0.804" fill="#f15a29" d="M 51.5,96.5 C 54.1667,96.5 56.8333,96.5 59.5,96.5C 60.1894,97.7736 61.0228,97.7736 62,96.5C 62.4643,97.0944 62.631,97.7611 62.5,98.5C 61.8333,98.5 61.5,98.8333 61.5,99.5C 57.5,99.5 53.5,99.5 49.5,99.5C 50.1667,98.5 50.8333,97.5 51.5,96.5 Z"/></g>
</svg>
