<?xml version="1.0" encoding="UTF-8"?>
<!DOCTYPE svg PUBLIC "-//W3C//DTD SVG 1.1//EN" "http://www.w3.org/Graphics/SVG/1.1/DTD/svg11.dtd">
<svg xmlns="http://www.w3.org/2000/svg" version="1.1" width="100px" height="100px" style="shape-rendering:geometricPrecision; text-rendering:geometricPrecision; image-rendering:optimizeQuality; fill-rule:evenodd; clip-rule:evenodd" xmlns:xlink="http://www.w3.org/1999/xlink">
<g><path style="opacity:0.946" fill="#fc1b2d" d="M 36.5,-0.5 C 45.1667,-0.5 53.8333,-0.5 62.5,-0.5C 63.5,0.166667 64.5,0.833333 65.5,1.5C 65.5,2.83333 65.5,4.16667 65.5,5.5C 61.9581,5.18723 58.6248,5.52056 55.5,6.5C 52.1743,7.09864 49.1743,8.43197 46.5,10.5C 46.1667,10.5 45.8333,10.5 45.5,10.5C 42.2157,12.117 39.5491,14.4503 37.5,17.5C 36.1667,19.5 34.5,21.1667 32.5,22.5C 32.1961,21.8501 31.8627,21.1835 31.5,20.5C 32.8333,19.1667 34.1667,17.8333 35.5,16.5C 33.6351,15.3338 31.9684,15.6671 30.5,17.5C 29.5159,14.5719 29.1826,11.5719 29.5,8.5C 31.6348,8.85304 32.9681,8.01971 33.5,6C 33.1639,4.97008 32.4972,4.47008 31.5,4.5C 32.209,3.59603 33.209,3.26269 34.5,3.5C 34.5,2.5 34.5,1.5 34.5,0.5C 35.4916,0.67158 36.1583,0.338246 36.5,-0.5 Z"/></g>
<g><path style="opacity:1" fill="#f01f39" d="M 34.5,0.5 C 34.5,1.5 34.5,2.5 34.5,3.5C 33.209,3.26269 32.209,3.59603 31.5,4.5C 29.8333,4.5 28.1667,4.5 26.5,4.5C 29.1013,3.19933 31.768,1.866 34.5,0.5 Z"/></g>
<g><path style="opacity:1" fill="#e91f2a" d="M 65.5,1.5 C 71.7819,2.97022 77.1153,5.97022 81.5,10.5C 73.1352,7.43963 64.4685,6.1063 55.5,6.5C 58.6248,5.52056 61.9581,5.18723 65.5,5.5C 65.5,4.16667 65.5,2.83333 65.5,1.5 Z"/></g>
<g><path style="opacity:0.989" fill="#fd1b2a" d="M 26.5,4.5 C 28.1667,4.5 29.8333,4.5 31.5,4.5C 32.4972,4.47008 33.1639,4.97008 33.5,6C 32.9681,8.01971 31.6348,8.85304 29.5,8.5C 29.1826,11.5719 29.5159,14.5719 30.5,17.5C 31.9684,15.6671 33.6351,15.3338 35.5,16.5C 34.1667,17.8333 32.8333,19.1667 31.5,20.5C 31.8627,21.1835 32.1961,21.8501 32.5,22.5C 32.6716,23.4916 32.3382,24.1583 31.5,24.5C 30.8444,23.7222 30.0111,23.0556 29,22.5C 24.8891,22.4485 20.7225,22.7818 16.5,23.5C 15.5672,27.4295 15.2338,31.4295 15.5,35.5C 14.1667,35.5 12.8333,35.5 11.5,35.5C 11.5,36.8333 11.5,38.1667 11.5,39.5C 6.51187,39.0283 5.51187,36.8616 8.5,33C 5.56781,31.5236 5.23448,29.8569 7.5,28C 7.48137,26.4794 7.14804,24.9794 6.5,23.5C 6.5,23.1667 6.5,22.8333 6.5,22.5C 7.74975,22.4226 8.58309,21.756 9,20.5C 10.8754,21.6231 13.0421,21.6231 15.5,20.5C 15.5,19.5 15.5,18.5 15.5,17.5C 14.5,17.5 13.5,17.5 12.5,17.5C 12.5,16.5 12.5,15.5 12.5,14.5C 16.3022,10.0424 20.9689,6.70905 26.5,4.5 Z"/></g>
<g><path style="opacity:1" fill="#ac0909" d="M 55.5,6.5 C 64.4685,6.1063 73.1352,7.43963 81.5,10.5C 84.5968,12.7193 87.2635,15.386 89.5,18.5C 86.939,21.5426 84.1057,21.8759 81,19.5C 76.6038,21.2236 72.1038,22.5569 67.5,23.5C 66.1667,21.8333 64.8333,20.1667 63.5,18.5C 63.5,17.5 63.5,16.5 63.5,15.5C 66.9099,15.5429 70.2432,15.0429 73.5,14C 74.5171,12.9505 74.6838,11.7839 74,10.5C 72.6361,11.2583 71.4695,10.7583 70.5,9C 68.1667,8.33333 65.8333,8.33333 63.5,9C 64.938,9.21893 66.2713,9.71893 67.5,10.5C 64.1889,11.118 61.0222,12.118 58,13.5C 56.7416,11.6416 55.0749,10.3082 53,9.5C 50.863,10.0767 48.6963,10.41 46.5,10.5C 49.1743,8.43197 52.1743,7.09864 55.5,6.5 Z"/></g>
<g><path style="opacity:0.976" fill="#a10a0a" d="M 63.5,18.5 C 58.3198,14.106 52.3198,12.4393 45.5,13.5C 45.5,12.5 45.5,11.5 45.5,10.5C 45.8333,10.5 46.1667,10.5 46.5,10.5C 48.6963,10.41 50.863,10.0767 53,9.5C 55.0749,10.3082 56.7416,11.6416 58,13.5C 61.0222,12.118 64.1889,11.118 67.5,10.5C 66.2713,9.71893 64.938,9.21893 63.5,9C 65.8333,8.33333 68.1667,8.33333 70.5,9C 71.4695,10.7583 72.6361,11.2583 74,10.5C 74.6838,11.7839 74.5171,12.9505 73.5,14C 70.2432,15.0429 66.9099,15.5429 63.5,15.5C 63.5,16.5 63.5,17.5 63.5,18.5 Z"/></g>
<g><path style="opacity:0.149" fill="#b90512" d="M 45.5,10.5 C 45.5,11.5 45.5,12.5 45.5,13.5C 43.0616,15.2672 40.395,16.6006 37.5,17.5C 39.5491,14.4503 42.2157,12.117 45.5,10.5 Z"/></g>
<g><path style="opacity:0.943" fill="#f71d30" d="M 12.5,14.5 C 12.5,15.5 12.5,16.5 12.5,17.5C 13.5,17.5 14.5,17.5 15.5,17.5C 15.5,18.5 15.5,19.5 15.5,20.5C 13.0421,21.6231 10.8754,21.6231 9,20.5C 8.58309,21.756 7.74975,22.4226 6.5,22.5C 8.14675,19.5265 10.1468,16.8599 12.5,14.5 Z"/></g>
<g><path style="opacity:0.985" fill="#fc1b2c" d="M 31.5,24.5 C 25.1318,34.9159 22.7984,46.2492 24.5,58.5C 25.0685,61.5884 25.0685,64.5884 24.5,67.5C 19.7048,65.9785 14.8715,65.6452 10,66.5C 7.20333,66.1782 4.70333,65.1782 2.5,63.5C 1.81654,63.8627 1.14987,64.1961 0.5,64.5C 0.67158,63.5084 0.338246,62.8417 -0.5,62.5C -0.5,53.8333 -0.5,45.1667 -0.5,36.5C 1.57899,32.0074 3.91232,27.674 6.5,23.5C 7.14804,24.9794 7.48137,26.4794 7.5,28C 5.23448,29.8569 5.56781,31.5236 8.5,33C 5.51187,36.8616 6.51187,39.0283 11.5,39.5C 11.5,38.1667 11.5,36.8333 11.5,35.5C 12.8333,35.5 14.1667,35.5 15.5,35.5C 15.2338,31.4295 15.5672,27.4295 16.5,23.5C 20.7225,22.7818 24.8891,22.4485 29,22.5C 30.0111,23.0556 30.8444,23.7222 31.5,24.5 Z"/></g>
<g><path style="opacity:0.992" fill="#bb1a18" d="M 89.5,18.5 C 93.0644,22.0914 95.3977,26.4248 96.5,31.5C 93.5371,31.8493 91.2038,30.8493 89.5,28.5C 87.6711,29.4646 85.8377,30.4646 84,31.5C 80.937,30.3685 77.937,30.3685 75,31.5C 74.6667,30.8333 74.3333,30.1667 74,29.5C 73.51,30.7932 73.3433,32.1266 73.5,33.5C 71.5146,30.2024 69.5146,26.8691 67.5,23.5C 72.1038,22.5569 76.6038,21.2236 81,19.5C 84.1057,21.8759 86.939,21.5426 89.5,18.5 Z"/></g>
<g><path style="opacity:1" fill="#c82221" d="M 96.5,31.5 C 97.6873,33.0725 98.6873,34.7392 99.5,36.5C 99.5,36.8333 99.5,37.1667 99.5,37.5C 98.8826,37.6107 98.3826,37.944 98,38.5C 97.6532,36.8198 96.6532,35.8198 95,35.5C 89.6233,36.7918 84.29,36.7918 79,35.5C 77.0244,36.5433 76.5244,37.8767 77.5,39.5C 76.675,40.3857 75.675,40.719 74.5,40.5C 74.3259,38.139 73.9926,35.8056 73.5,33.5C 73.3433,32.1266 73.51,30.7932 74,29.5C 74.3333,30.1667 74.6667,30.8333 75,31.5C 77.937,30.3685 80.937,30.3685 84,31.5C 85.8377,30.4646 87.6711,29.4646 89.5,28.5C 91.2038,30.8493 93.5371,31.8493 96.5,31.5 Z"/></g>
<g><path style="opacity:0.975" fill="#d52d2e" d="M 99.5,37.5 C 99.5,40.8333 99.5,44.1667 99.5,47.5C 92.4921,47.3337 85.4921,47.5004 78.5,48C 76.98,50.3344 75.98,52.8344 75.5,55.5C 75.6625,50.453 75.3292,45.453 74.5,40.5C 75.675,40.719 76.675,40.3857 77.5,39.5C 76.5244,37.8767 77.0244,36.5433 79,35.5C 84.29,36.7918 89.6233,36.7918 95,35.5C 96.6532,35.8198 97.6532,36.8198 98,38.5C 98.3826,37.944 98.8826,37.6107 99.5,37.5 Z"/></g>
<g><path style="opacity:0.984" fill="#e73a39" d="M 99.5,47.5 C 99.5,50.5 99.5,53.5 99.5,56.5C 93.1202,56.3928 86.7869,56.8928 80.5,58C 80,58.5 79.5,59 79,59.5C 77.982,56.3576 76.8153,56.0242 75.5,58.5C 75.1667,58.5 74.8333,58.5 74.5,58.5C 74.2627,57.209 74.596,56.209 75.5,55.5C 75.98,52.8344 76.98,50.3344 78.5,48C 85.4921,47.5004 92.4921,47.3337 99.5,47.5 Z"/></g>
<g><path style="opacity:0.97" fill="#f04240" d="M 99.5,56.5 C 99.5,58.1667 99.5,59.8333 99.5,61.5C 92.3478,61.7381 85.0144,61.4047 77.5,60.5C 76.7573,59.8182 76.0906,59.1515 75.5,58.5C 76.8153,56.0242 77.982,56.3576 79,59.5C 79.5,59 80,58.5 80.5,58C 86.7869,56.8928 93.1202,56.3928 99.5,56.5 Z"/></g>
<g><path style="opacity:0.983" fill="#fc4a49" d="M 74.5,58.5 C 74.8333,58.5 75.1667,58.5 75.5,58.5C 76.0906,59.1515 76.7573,59.8182 77.5,60.5C 85.0144,61.4047 92.3478,61.7381 99.5,61.5C 99.5,61.8333 99.5,62.1667 99.5,62.5C 97.2083,67.7156 94.5417,72.7156 91.5,77.5C 87.2298,79.9544 83.8965,83.2878 81.5,87.5C 79.2812,89.6061 76.6145,90.6061 73.5,90.5C 73.6309,89.6236 73.2975,88.9569 72.5,88.5C 70.5101,90.2506 68.1768,91.2506 65.5,91.5C 61.9932,91.0776 58.6599,90.2442 55.5,89C 56.755,86.5397 58.755,85.373 61.5,85.5C 61.4326,84.0413 61.7659,82.7079 62.5,81.5C 68.866,75.1026 72.866,67.4359 74.5,58.5 Z"/></g>
<g><path style="opacity:0.993" fill="#e81629" d="M 24.5,58.5 C 26.3933,64.5047 29.06,70.1713 32.5,75.5C 27.2154,74.7648 21.882,74.2648 16.5,74C 15.91,72.7011 14.91,71.8678 13.5,71.5C 10.5724,71.9704 7.90577,72.9704 5.5,74.5C 3.84719,71.2406 2.18052,67.9072 0.5,64.5C 1.14987,64.1961 1.81654,63.8627 2.5,63.5C 4.70333,65.1782 7.20333,66.1782 10,66.5C 14.8715,65.6452 19.7048,65.9785 24.5,67.5C 25.0685,64.5884 25.0685,61.5884 24.5,58.5 Z"/></g>
<g><path style="opacity:0.997" fill="#d70e21" d="M 32.5,75.5 C 32.5,75.8333 32.5,76.1667 32.5,76.5C 31.5868,78.0861 31.5868,79.5861 32.5,81C 27.2075,82.3282 21.8742,82.9949 16.5,83C 14.257,81.8638 11.9237,81.0305 9.5,80.5C 7.68403,78.8816 6.3507,76.8816 5.5,74.5C 7.90577,72.9704 10.5724,71.9704 13.5,71.5C 14.91,71.8678 15.91,72.7011 16.5,74C 21.882,74.2648 27.2154,74.7648 32.5,75.5 Z"/></g>
<g><path style="opacity:0.989" fill="#c40c1c" d="M 32.5,76.5 C 34.1667,77.5 35.5,78.8333 36.5,80.5C 36.369,81.2389 36.5357,81.9056 37,82.5C 39.6877,84.364 42.1877,86.364 44.5,88.5C 41.1869,87.9552 37.8536,87.4552 34.5,87C 34,86.5 33.5,86 33,85.5C 28.3061,86.7701 23.8061,88.4368 19.5,90.5C 18.3172,89.4955 16.9839,88.6622 15.5,88C 13.215,85.7008 11.215,83.2008 9.5,80.5C 11.9237,81.0305 14.257,81.8638 16.5,83C 21.8742,82.9949 27.2075,82.3282 32.5,81C 31.5868,79.5861 31.5868,78.0861 32.5,76.5 Z"/></g>
<g><path style="opacity:0.961" fill="#f24e50" d="M 91.5,77.5 C 89.7697,81.6515 87.1031,84.9849 83.5,87.5C 82.8333,87.5 82.1667,87.5 81.5,87.5C 83.8965,83.2878 87.2298,79.9544 91.5,77.5 Z"/></g>
<g><path style="opacity:1" fill="#f74b50" d="M 36.5,80.5 C 44.947,86.7531 53.6137,87.0864 62.5,81.5C 61.7659,82.7079 61.4326,84.0413 61.5,85.5C 58.755,85.373 56.755,86.5397 55.5,89C 58.6599,90.2442 61.9932,91.0776 65.5,91.5C 68.1768,91.2506 70.5101,90.2506 72.5,88.5C 73.2975,88.9569 73.6309,89.6236 73.5,90.5C 63.6952,93.4905 54.0286,92.8238 44.5,88.5C 42.1877,86.364 39.6877,84.364 37,82.5C 36.5357,81.9056 36.369,81.2389 36.5,80.5 Z"/></g>
<g><path style="opacity:0.996" fill="#b40615" d="M 44.5,88.5 C 54.0286,92.8238 63.6952,93.4905 73.5,90.5C 76.6145,90.6061 79.2812,89.6061 81.5,87.5C 82.1667,87.5 82.8333,87.5 83.5,87.5C 78.2499,92.0609 72.2499,95.3943 65.5,97.5C 61.0555,96.6031 56.5555,95.9364 52,95.5C 49.3914,95.3749 47.0581,96.0416 45,97.5C 39.0244,95.5751 32.8577,94.5751 26.5,94.5C 23.9959,93.4161 21.6626,92.0828 19.5,90.5C 23.8061,88.4368 28.3061,86.7701 33,85.5C 33.5,86 34,86.5 34.5,87C 37.8536,87.4552 41.1869,87.9552 44.5,88.5 Z"/></g>
<g><path style="opacity:0.974" fill="#a90214" d="M 26.5,94.5 C 32.8577,94.5751 39.0244,95.5751 45,97.5C 47.0581,96.0416 49.3914,95.3749 52,95.5C 56.5555,95.9364 61.0555,96.6031 65.5,97.5C 64.5,98.1667 63.5,98.8333 62.5,99.5C 53.8333,99.5 45.1667,99.5 36.5,99.5C 33.1667,97.8333 29.8333,96.1667 26.5,94.5 Z"/></g>
</svg>
