<?xml version="1.0" encoding="UTF-8"?>
<!DOCTYPE svg PUBLIC "-//W3C//DTD SVG 1.1//EN" "http://www.w3.org/Graphics/SVG/1.1/DTD/svg11.dtd">
<svg xmlns="http://www.w3.org/2000/svg" version="1.1" width="100px" height="100px" style="shape-rendering:geometricPrecision; text-rendering:geometricPrecision; image-rendering:optimizeQuality; fill-rule:evenodd; clip-rule:evenodd" xmlns:xlink="http://www.w3.org/1999/xlink">
<g><path style="opacity:1" fill="#2f5f9e" d="M -0.5,-0.5 C 32.8333,-0.5 66.1667,-0.5 99.5,-0.5C 99.5,20.8333 99.5,42.1667 99.5,63.5C 95.8505,62.2722 92.1838,62.2722 88.5,63.5C 90.3713,62.2028 92.3713,61.2028 94.5,60.5C 96.1765,59.8166 96.8432,58.4832 96.5,56.5C 93.8333,56.5 91.1667,56.5 88.5,56.5C 88.5,50.5 88.5,44.5 88.5,38.5C 87.1667,38.5 85.8333,38.5 84.5,38.5C 83.8826,38.6107 83.3826,38.944 83,39.5C 82.8985,42.6996 82.2319,45.6996 81,48.5C 80.7996,46.6803 79.9663,45.347 78.5,44.5C 78.7564,42.2075 78.4231,40.0408 77.5,38C 73.1552,36.9976 68.9885,35.4976 65,33.5C 56,33.5 47,33.5 38,33.5C 34.9966,36.4364 32.4966,36.103 30.5,32.5C 29.5713,33.6888 29.238,35.0222 29.5,36.5C 27.1667,36.5 24.8333,36.5 22.5,36.5C 22.6495,35.448 22.4828,34.448 22,33.5C 20.4934,37.2364 19.6601,37.2364 19.5,33.5C 16.1262,33.6744 12.7928,34.1744 9.5,35C 11.1667,35.3333 12.8333,35.6667 14.5,36C 11.9963,36.6976 9.66296,37.5309 7.5,38.5C 7.16667,38.5 6.83333,38.5 6.5,38.5C 5.50838,38.3284 4.84171,38.6618 4.5,39.5C 3.17793,39.33 2.01127,39.6634 1,40.5C 0.824739,45.0195 0.324739,49.3528 -0.5,53.5C -0.5,35.5 -0.5,17.5 -0.5,-0.5 Z"/></g>
<g><path style="opacity:1" fill="#34619a" d="M 78.5,44.5 C 76.9261,42.8984 76.2594,40.8984 76.5,38.5C 74.712,38.2148 73.0453,38.5481 71.5,39.5C 70.3246,44.4567 68.6579,49.1234 66.5,53.5C 63.8791,55.4848 60.8791,56.4848 57.5,56.5C 55.9256,56.0629 54.7589,55.0629 54,53.5C 51.4144,44.7726 54.4144,41.1059 63,42.5C 64.8831,39.1892 63.7165,37.8559 59.5,38.5C 57.7422,38.5916 56.0755,38.925 54.5,39.5C 51.6631,41.2607 49.3298,40.7607 47.5,38C 44.633,37.1993 41.9664,37.3659 39.5,38.5C 35.9915,40.3791 34.6581,43.3791 35.5,47.5C 36.2423,49.4258 37.2423,51.2591 38.5,53C 37.2887,54.5778 35.9554,54.7445 34.5,53.5C 32.5027,48.9764 30.5027,44.6431 28.5,40.5C 27.0101,38.7202 25.0101,38.0535 22.5,38.5C 22.4403,41.3408 21.7736,44.0075 20.5,46.5C 19.0221,45.5525 18.0221,44.2191 17.5,42.5C 15.1087,39.083 11.7754,37.7497 7.5,38.5C 9.66296,37.5309 11.9963,36.6976 14.5,36C 12.8333,35.6667 11.1667,35.3333 9.5,35C 12.7928,34.1744 16.1262,33.6744 19.5,33.5C 19.6601,37.2364 20.4934,37.2364 22,33.5C 22.4828,34.448 22.6495,35.448 22.5,36.5C 24.8333,36.5 27.1667,36.5 29.5,36.5C 29.238,35.0222 29.5713,33.6888 30.5,32.5C 32.4966,36.103 34.9966,36.4364 38,33.5C 47,33.5 56,33.5 65,33.5C 68.9885,35.4976 73.1552,36.9976 77.5,38C 78.4231,40.0408 78.7564,42.2075 78.5,44.5 Z"/></g>
<g><path style="opacity:1" fill="#9cb7db" d="M 6.5,38.5 C 5.86853,42.0843 5.5352,45.7509 5.5,49.5C 5.51362,53.2386 6.18028,56.572 7.5,59.5C 7.83333,59.5 8.16667,59.5 8.5,59.5C 7.79105,60.404 6.79105,60.7373 5.5,60.5C 4.50881,53.6866 4.17547,46.6866 4.5,39.5C 4.84171,38.6618 5.50838,38.3284 6.5,38.5 Z"/></g>
<g><path style="opacity:1" fill="#f2fcfe" d="M 6.5,38.5 C 6.83333,38.5 7.16667,38.5 7.5,38.5C 11.7754,37.7497 15.1087,39.083 17.5,42.5C 17.702,44.9496 17.3686,47.283 16.5,49.5C 14.901,49.7678 13.5676,49.4345 12.5,48.5C 15.7031,43.9844 14.3698,41.6511 8.5,41.5C 7.19966,44.0241 7.19966,46.6908 8.5,49.5C 12.3548,51.0071 12.0214,51.6738 7.5,51.5C 7.5,54.1667 7.5,56.8333 7.5,59.5C 6.18028,56.572 5.51362,53.2386 5.5,49.5C 5.5352,45.7509 5.86853,42.0843 6.5,38.5 Z"/></g>
<g><path style="opacity:1" fill="#e4f3fb" d="M 57.5,56.5 C 59.2232,57.807 61.0565,57.807 63,56.5C 64.113,57.7604 64.2797,58.927 63.5,60C 52.5842,61.3984 48.0842,56.5651 50,45.5C 50.8041,42.8541 52.3041,40.8541 54.5,39.5C 56.0755,38.925 57.7422,38.5916 59.5,38.5C 63.7165,37.8559 64.8831,39.1892 63,42.5C 54.4144,41.1059 51.4144,44.7726 54,53.5C 54.7589,55.0629 55.9256,56.0629 57.5,56.5 Z"/></g>
<g><path style="opacity:1" fill="#476893" d="M 8.5,41.5 C 14.3698,41.6511 15.7031,43.9844 12.5,48.5C 11.1667,48.5 9.83333,48.5 8.5,48.5C 8.5,46.1667 8.5,43.8333 8.5,41.5 Z"/></g>
<g><path style="opacity:1" fill="#e2f2f9" d="M 39.5,38.5 C 41.7925,38.2436 43.9592,38.5769 46,39.5C 46.7494,40.635 46.5827,41.635 45.5,42.5C 40.3972,40.439 38.7305,41.939 40.5,47C 46.7874,47.9534 48.9541,51.4534 47,57.5C 43.9492,60.0936 40.4492,60.927 36.5,60C 35.6634,58.9887 35.33,57.8221 35.5,56.5C 37.8194,57.167 40.1527,57.3336 42.5,57C 43.4061,55.3005 43.7394,53.4672 43.5,51.5C 40.2814,51.2241 37.6148,49.8907 35.5,47.5C 34.6581,43.3791 35.9915,40.3791 39.5,38.5 Z"/></g>
<g><path style="opacity:1" fill="#e0eef7" d="M 78.5,44.5 C 79.583,49.5882 80.9163,54.5882 82.5,59.5C 81.4324,60.4345 80.099,60.7678 78.5,60.5C 78.1667,58.5 77.8333,56.5 77.5,54.5C 75.1432,54.3367 72.8098,54.5034 70.5,55C 69.5939,56.6995 69.2606,58.5328 69.5,60.5C 68.1667,60.5 66.8333,60.5 65.5,60.5C 65.6741,58.139 66.0074,55.8056 66.5,53.5C 68.6579,49.1234 70.3246,44.4567 71.5,39.5C 73.0453,38.5481 74.712,38.2148 76.5,38.5C 76.2594,40.8984 76.9261,42.8984 78.5,44.5 Z"/></g>
<g><path style="opacity:1" fill="#657f9d" d="M 72.5,43.5 C 74.977,45.4159 75.977,48.0825 75.5,51.5C 74.1667,51.5 72.8333,51.5 71.5,51.5C 72.0916,48.8728 72.4249,46.2062 72.5,43.5 Z"/></g>
<g><path style="opacity:1" fill="#eefcff" d="M 84.5,39.5 C 85.5,39.5 86.5,39.5 87.5,39.5C 87.5,45.5 87.5,51.5 87.5,57.5C 90.2469,57.1866 92.9135,57.52 95.5,58.5C 91.8927,59.4892 88.226,59.8226 84.5,59.5C 84.5,52.8333 84.5,46.1667 84.5,39.5 Z"/></g>
<g><path style="opacity:1" fill="#517299" d="M 17.5,42.5 C 18.0221,44.2191 19.0221,45.5525 20.5,46.5C 20.117,49.8112 19.117,52.8112 17.5,55.5C 17.5,54.5 17.5,53.5 17.5,52.5C 15.8333,52.5 14.1667,52.5 12.5,52.5C 14.0764,51.8571 15.4097,50.8571 16.5,49.5C 17.3686,47.283 17.702,44.9496 17.5,42.5 Z"/></g>
<g><path style="opacity:1" fill="#cee3f2" d="M 8.5,41.5 C 8.5,43.8333 8.5,46.1667 8.5,48.5C 9.83333,48.5 11.1667,48.5 12.5,48.5C 13.5676,49.4345 14.901,49.7678 16.5,49.5C 15.4097,50.8571 14.0764,51.8571 12.5,52.5C 11.1667,52.5 9.83333,52.5 8.5,52.5C 8.5,54.8333 8.5,57.1667 8.5,59.5C 8.16667,59.5 7.83333,59.5 7.5,59.5C 7.5,56.8333 7.5,54.1667 7.5,51.5C 12.0214,51.6738 12.3548,51.0071 8.5,49.5C 7.19966,46.6908 7.19966,44.0241 8.5,41.5 Z"/></g>
<g><path style="opacity:1" fill="#e2eff8" d="M 28.5,40.5 C 30.1675,47.1688 31.8342,53.8354 33.5,60.5C 32.1667,60.5 30.8333,60.5 29.5,60.5C 29.5,60.1667 29.5,59.8333 29.5,59.5C 29.7135,57.8561 29.3802,56.3561 28.5,55C 26.1902,54.5034 23.8568,54.3367 21.5,54.5C 21.3713,56.2161 21.038,57.8828 20.5,59.5C 19.209,59.7373 18.209,59.404 17.5,58.5C 17.5,57.5 17.5,56.5 17.5,55.5C 19.117,52.8112 20.117,49.8112 20.5,46.5C 21.7736,44.0075 22.4403,41.3408 22.5,38.5C 25.0101,38.0535 27.0101,38.7202 28.5,40.5 Z"/></g>
<g><path style="opacity:1" fill="#4d6b92" d="M 26.5,48.5 C 25.5,51.1667 24.5,51.1667 23.5,48.5C 24.5716,41.9081 25.5716,41.9081 26.5,48.5 Z"/></g>
<g><path style="opacity:1" fill="#8da6b8" d="M 23.5,48.5 C 24.5,51.1667 25.5,51.1667 26.5,48.5C 27.404,49.209 27.7373,50.209 27.5,51.5C 25.8333,51.5 24.1667,51.5 22.5,51.5C 22.2627,50.209 22.596,49.209 23.5,48.5 Z"/></g>
<g><path style="opacity:1" fill="#416591" d="M 84.5,38.5 C 84.5,38.8333 84.5,39.1667 84.5,39.5C 84.5,46.1667 84.5,52.8333 84.5,59.5C 83.8333,59.5 83.1667,59.5 82.5,59.5C 80.9163,54.5882 79.583,49.5882 78.5,44.5C 79.9663,45.347 80.7996,46.6803 81,48.5C 82.2319,45.6996 82.8985,42.6996 83,39.5C 83.3826,38.944 83.8826,38.6107 84.5,38.5 Z"/></g>
<g><path style="opacity:1" fill="#2f609e" d="M 4.5,39.5 C 4.17547,46.6866 4.50881,53.6866 5.5,60.5C 5.41423,61.4959 5.74756,62.3292 6.5,63C 8.78012,63.2117 10.7801,64.0451 12.5,65.5C 15.9495,63.9938 19.6161,62.9938 23.5,62.5C 22.6258,60.2534 22.2924,57.9201 22.5,55.5C 24.3464,55.2222 25.6798,55.8888 26.5,57.5C 24.4154,59.8358 24.2488,62.1691 26,64.5C 26.7365,62.404 27.9032,60.7373 29.5,59.5C 29.5,59.8333 29.5,60.1667 29.5,60.5C 29.9175,61.2216 30.5842,61.7216 31.5,62C 37.6459,62.032 43.6459,62.8653 49.5,64.5C 51.6145,63.9661 53.4478,62.9661 55,61.5C 57.9532,62.751 60.9532,62.751 64,61.5C 68.711,64.4127 73.0444,64.0794 77,60.5C 78.7931,62.8056 80.9597,63.1389 83.5,61.5C 84.8415,63.0049 86.5082,63.6715 88.5,63.5C 92.1838,62.2722 95.8505,62.2722 99.5,63.5C 99.5,75.5 99.5,87.5 99.5,99.5C 66.1667,99.5 32.8333,99.5 -0.5,99.5C -0.5,84.1667 -0.5,68.8333 -0.5,53.5C 0.324739,49.3528 0.824739,45.0195 1,40.5C 2.01127,39.6634 3.17793,39.33 4.5,39.5 Z"/></g>
<g><path style="opacity:1" fill="#366197" d="M 12.5,52.5 C 14.1667,52.5 15.8333,52.5 17.5,52.5C 17.5,53.5 17.5,54.5 17.5,55.5C 17.5,56.5 17.5,57.5 17.5,58.5C 16.2486,59.472 16.582,60.1386 18.5,60.5C 19.4164,60.4573 20.0831,60.1239 20.5,59.5C 21.038,57.8828 21.3713,56.2161 21.5,54.5C 23.8568,54.3367 26.1902,54.5034 28.5,55C 29.3802,56.3561 29.7135,57.8561 29.5,59.5C 27.9032,60.7373 26.7365,62.404 26,64.5C 24.2488,62.1691 24.4154,59.8358 26.5,57.5C 25.6798,55.8888 24.3464,55.2222 22.5,55.5C 22.2924,57.9201 22.6258,60.2534 23.5,62.5C 19.6161,62.9938 15.9495,63.9938 12.5,65.5C 10.7801,64.0451 8.78012,63.2117 6.5,63C 5.74756,62.3292 5.41423,61.4959 5.5,60.5C 6.79105,60.7373 7.79105,60.404 8.5,59.5C 8.5,57.1667 8.5,54.8333 8.5,52.5C 9.83333,52.5 11.1667,52.5 12.5,52.5 Z"/></g>
<g><path style="opacity:1" fill="#94b9e1" d="M 17.5,58.5 C 18.209,59.404 19.209,59.7373 20.5,59.5C 20.0831,60.1239 19.4164,60.4573 18.5,60.5C 16.582,60.1386 16.2486,59.472 17.5,58.5 Z"/></g>
<g><path style="opacity:1" fill="#9dbbe0" d="M 84.5,39.5 C 84.5,39.1667 84.5,38.8333 84.5,38.5C 85.8333,38.5 87.1667,38.5 88.5,38.5C 88.5,44.5 88.5,50.5 88.5,56.5C 91.1667,56.5 93.8333,56.5 96.5,56.5C 96.8432,58.4832 96.1765,59.8166 94.5,60.5C 90.9581,60.8128 87.6248,60.4794 84.5,59.5C 88.226,59.8226 91.8927,59.4892 95.5,58.5C 92.9135,57.52 90.2469,57.1866 87.5,57.5C 87.5,51.5 87.5,45.5 87.5,39.5C 86.5,39.5 85.5,39.5 84.5,39.5 Z"/></g>
<g><path style="opacity:1" fill="#3b6397" d="M 39.5,38.5 C 41.9664,37.3659 44.633,37.1993 47.5,38C 49.3298,40.7607 51.6631,41.2607 54.5,39.5C 52.3041,40.8541 50.8041,42.8541 50,45.5C 48.0842,56.5651 52.5842,61.3984 63.5,60C 64.2797,58.927 64.113,57.7604 63,56.5C 61.0565,57.807 59.2232,57.807 57.5,56.5C 60.8791,56.4848 63.8791,55.4848 66.5,53.5C 66.0074,55.8056 65.6741,58.139 65.5,60.5C 66.8333,60.5 68.1667,60.5 69.5,60.5C 69.2606,58.5328 69.5939,56.6995 70.5,55C 72.8098,54.5034 75.1432,54.3367 77.5,54.5C 77.8333,56.5 78.1667,58.5 78.5,60.5C 80.099,60.7678 81.4324,60.4345 82.5,59.5C 83.1667,59.5 83.8333,59.5 84.5,59.5C 87.6248,60.4794 90.9581,60.8128 94.5,60.5C 92.3713,61.2028 90.3713,62.2028 88.5,63.5C 86.5082,63.6715 84.8415,63.0049 83.5,61.5C 80.9597,63.1389 78.7931,62.8056 77,60.5C 73.0444,64.0794 68.711,64.4127 64,61.5C 60.9532,62.751 57.9532,62.751 55,61.5C 53.4478,62.9661 51.6145,63.9661 49.5,64.5C 43.6459,62.8653 37.6459,62.032 31.5,62C 30.5842,61.7216 29.9175,61.2216 29.5,60.5C 30.8333,60.5 32.1667,60.5 33.5,60.5C 31.8342,53.8354 30.1675,47.1688 28.5,40.5C 30.5027,44.6431 32.5027,48.9764 34.5,53.5C 35.9554,54.7445 37.2887,54.5778 38.5,53C 37.2423,51.2591 36.2423,49.4258 35.5,47.5C 37.6148,49.8907 40.2814,51.2241 43.5,51.5C 43.7394,53.4672 43.4061,55.3005 42.5,57C 40.1527,57.3336 37.8194,57.167 35.5,56.5C 35.33,57.8221 35.6634,58.9887 36.5,60C 40.4492,60.927 43.9492,60.0936 47,57.5C 48.9541,51.4534 46.7874,47.9534 40.5,47C 38.7305,41.939 40.3972,40.439 45.5,42.5C 46.5827,41.635 46.7494,40.635 46,39.5C 43.9592,38.5769 41.7925,38.2436 39.5,38.5 Z"/></g>
</svg>
