<?xml version="1.0" encoding="UTF-8"?>
<!DOCTYPE svg PUBLIC "-//W3C//DTD SVG 1.1//EN" "http://www.w3.org/Graphics/SVG/1.1/DTD/svg11.dtd">
<svg xmlns="http://www.w3.org/2000/svg" version="1.1" width="100px" height="100px" style="shape-rendering:geometricPrecision; text-rendering:geometricPrecision; image-rendering:optimizeQuality; fill-rule:evenodd; clip-rule:evenodd" xmlns:xlink="http://www.w3.org/1999/xlink">
<g><path style="opacity:1" fill="#7c80ad" d="M 57.5,23.5 C 59.8333,23.5 62.1667,23.5 64.5,23.5C 65.6772,25.1026 65.5106,26.436 64,27.5C 61.2809,26.5562 58.4475,26.2229 55.5,26.5C 55.5,28.8333 55.5,31.1667 55.5,33.5C 54.325,33.281 53.325,33.6143 52.5,34.5C 53.6016,35.1757 54.6016,35.8423 55.5,36.5C 54.1667,36.5 52.8333,36.5 51.5,36.5C 51.5,34.1667 51.5,31.8333 51.5,29.5C 48.8806,29.2317 46.3806,29.565 44,30.5C 42.469,36.6239 40.969,42.6239 39.5,48.5C 40.1426,44.5669 39.1426,41.2336 36.5,38.5C 36.5,38.1667 36.5,37.8333 36.5,37.5C 37.8333,37.5 39.1667,37.5 40.5,37.5C 40.2317,34.8806 40.565,32.3806 41.5,30C 45.7159,28.7964 50.0492,28.1298 54.5,28C 52.4664,26.9944 50.2998,26.4944 48,26.5C 42.5235,27.2481 37.0235,27.5814 31.5,27.5C 38.9499,26.0305 46.6165,25.1972 54.5,25C 55.7375,24.7679 56.7375,24.2679 57.5,23.5 Z"/></g>
<g><path style="opacity:1" fill="#787ab0" d="M 36.5,37.5 C 31.228,36.5998 25.8947,36.2665 20.5,36.5C 19.5707,35.6851 18.5707,34.8518 17.5,34C 20.5,33.6667 23.5,33.3333 26.5,33C 26.8333,32.6667 27.1667,32.3333 27.5,32C 26.6195,31.2917 25.9528,30.4584 25.5,29.5C 27.1016,27.9261 29.1016,27.2594 31.5,27.5C 37.0235,27.5814 42.5235,27.2481 48,26.5C 50.2998,26.4944 52.4664,26.9944 54.5,28C 50.0492,28.1298 45.7159,28.7964 41.5,30C 40.565,32.3806 40.2317,34.8806 40.5,37.5C 39.1667,37.5 37.8333,37.5 36.5,37.5 Z"/></g>
<g><path style="opacity:1" fill="#797aac" d="M 64.5,23.5 C 65.9952,23.9887 67.3285,24.6554 68.5,25.5C 67.2426,26.6226 67.5759,27.2893 69.5,27.5C 69.0886,29.772 67.922,30.1053 66,28.5C 62.8132,29.0446 59.6465,29.7113 56.5,30.5C 57.5,31.3333 58.5,32.1667 59.5,33C 66.456,33.3623 73.1227,34.5289 79.5,36.5C 74.4889,36.3341 69.4889,36.5007 64.5,37C 63.9371,41.1145 62.6038,41.4478 60.5,38C 58.8455,37.3923 57.1789,36.8923 55.5,36.5C 54.6016,35.8423 53.6016,35.1757 52.5,34.5C 53.325,33.6143 54.325,33.281 55.5,33.5C 55.5,31.1667 55.5,28.8333 55.5,26.5C 58.4475,26.2229 61.2809,26.5562 64,27.5C 65.5106,26.436 65.6772,25.1026 64.5,23.5 Z"/></g>
<g><path style="opacity:1" fill="#7779b2" d="M 69.5,27.5 C 77.741,29.6204 85.0743,33.2871 91.5,38.5C 89.2966,37.927 87.2966,38.5937 85.5,40.5C 83.4632,39.1535 81.4632,37.8202 79.5,36.5C 73.1227,34.5289 66.456,33.3623 59.5,33C 58.5,32.1667 57.5,31.3333 56.5,30.5C 59.6465,29.7113 62.8132,29.0446 66,28.5C 67.922,30.1053 69.0886,29.772 69.5,27.5 Z"/></g>
<g><path style="opacity:0.604" fill="#a6a9ce" d="M 57.5,23.5 C 56.7375,24.2679 55.7375,24.7679 54.5,25C 46.6165,25.1972 38.9499,26.0305 31.5,27.5C 29.1016,27.2594 27.1016,27.9261 25.5,29.5C 18.5703,30.792 12.5703,33.792 7.5,38.5C 5.38944,40.631 3.05611,42.2977 0.5,43.5C 4.01756,36.8226 9.35089,31.9893 16.5,29C 29.6932,23.9878 43.3598,22.1544 57.5,23.5 Z"/></g>
<g><path style="opacity:1" fill="#cbcddb" d="M 55.5,36.5 C 57.1789,36.8923 58.8455,37.3923 60.5,38C 62.6038,41.4478 63.9371,41.1145 64.5,37C 69.4889,36.5007 74.4889,36.3341 79.5,36.5C 81.4632,37.8202 83.4632,39.1535 85.5,40.5C 86.8845,44.2108 86.7178,47.8775 85,51.5C 83.9243,54.079 82.091,55.7457 79.5,56.5C 84.1213,52.5248 85.6213,47.5248 84,41.5C 83.0975,40.2986 81.9308,39.4652 80.5,39C 75.5,38.3333 70.5,38.3333 65.5,39C 63.2858,47.0283 61.6191,55.195 60.5,63.5C 59.5489,62.0813 59.2155,60.4147 59.5,58.5C 57.1667,58.5 54.8333,58.5 52.5,58.5C 53.4258,53.5368 54.0925,48.5368 54.5,43.5C 52.8333,43.5 51.1667,43.5 49.5,43.5C 49.313,45.5643 48.813,47.5643 48,49.5C 47.5357,48.9056 47.369,48.2389 47.5,47.5C 47.2865,45.8561 47.6198,44.3561 48.5,43C 51.0991,42.231 53.5991,42.3977 56,43.5C 55.5181,48.121 55.0181,52.7877 54.5,57.5C 56.1667,57.5 57.8333,57.5 59.5,57.5C 61.0639,51.9251 61.5639,46.2584 61,40.5C 60.5,40 60,39.5 59.5,39C 56.1832,38.5017 52.8499,38.335 49.5,38.5C 49.3184,36.4086 49.6518,34.4086 50.5,32.5C 48.604,31.5344 46.604,31.2011 44.5,31.5C 43.1638,38.8424 41.8304,46.1758 40.5,53.5C 38.2512,54.0798 36.5846,55.4131 35.5,57.5C 31.2932,58.0692 27.1265,58.7359 23,59.5C 22.5357,58.9056 22.369,58.2389 22.5,57.5C 31.0157,59.4138 36.6824,56.4138 39.5,48.5C 40.969,42.6239 42.469,36.6239 44,30.5C 46.3806,29.565 48.8806,29.2317 51.5,29.5C 51.5,31.8333 51.5,34.1667 51.5,36.5C 52.8333,36.5 54.1667,36.5 55.5,36.5 Z"/></g>
<g><path style="opacity:1" fill="#7a7dae" d="M 25.5,29.5 C 25.9528,30.4584 26.6195,31.2917 27.5,32C 27.1667,32.3333 26.8333,32.6667 26.5,33C 23.5,33.3333 20.5,33.6667 17.5,34C 18.5707,34.8518 19.5707,35.6851 20.5,36.5C 18.7808,39.8586 17.6141,43.5253 17,47.5C 15.9694,53.4832 15.1361,59.4832 14.5,65.5C 14.2363,57.6243 14.2363,49.6243 14.5,41.5C 16.6069,39.513 16.7736,37.513 15,35.5C 12.7646,37.2024 10.2646,38.2024 7.5,38.5C 12.5703,33.792 18.5703,30.792 25.5,29.5 Z"/></g>
<g><path style="opacity:0.994" fill="#7779af" d="M 14.5,65.5 C 19.227,68.2646 23.8937,70.9312 28.5,73.5C 15.7368,72.2945 6.07013,66.2945 -0.5,55.5C -0.5,51.5 -0.5,47.5 -0.5,43.5C -0.166667,43.5 0.166667,43.5 0.5,43.5C 3.05611,42.2977 5.38944,40.631 7.5,38.5C 10.2646,38.2024 12.7646,37.2024 15,35.5C 16.7736,37.513 16.6069,39.513 14.5,41.5C 14.2363,49.6243 14.2363,57.6243 14.5,65.5 Z"/></g>
<g><path style="opacity:1" fill="#090b0d" d="M 47.5,47.5 C 46.5655,48.5676 46.2322,49.901 46.5,51.5C 45.8505,53.4352 45.5172,55.4352 45.5,57.5C 43.8333,57.5 42.1667,57.5 40.5,57.5C 40.5,56.1667 40.5,54.8333 40.5,53.5C 41.8304,46.1758 43.1638,38.8424 44.5,31.5C 46.604,31.2011 48.604,31.5344 50.5,32.5C 49.6518,34.4086 49.3184,36.4086 49.5,38.5C 52.8499,38.335 56.1832,38.5017 59.5,39C 60,39.5 60.5,40 61,40.5C 61.5639,46.2584 61.0639,51.9251 59.5,57.5C 57.8333,57.5 56.1667,57.5 54.5,57.5C 55.0181,52.7877 55.5181,48.121 56,43.5C 53.5991,42.3977 51.0991,42.231 48.5,43C 47.6198,44.3561 47.2865,45.8561 47.5,47.5 Z"/></g>
<g><path style="opacity:1" fill="#c4c7dc" d="M 20.5,36.5 C 25.8947,36.2665 31.228,36.5998 36.5,37.5C 36.5,37.8333 36.5,38.1667 36.5,38.5C 31.1667,38.5 25.8333,38.5 20.5,38.5C 18.8335,47.1656 17.1668,55.8322 15.5,64.5C 17.5,64.5 19.5,64.5 21.5,64.5C 21.5,63.5 21.5,62.5 21.5,61.5C 22.4345,62.5676 22.7678,63.901 22.5,65.5C 19.8333,65.5 17.1667,65.5 14.5,65.5C 15.1361,59.4832 15.9694,53.4832 17,47.5C 17.6141,43.5253 18.7808,39.8586 20.5,36.5 Z"/></g>
<g><path style="opacity:1" fill="#090b0e" d="M 36.5,38.5 C 39.1426,41.2336 40.1426,44.5669 39.5,48.5C 36.6824,56.4138 31.0157,59.4138 22.5,57.5C 21.5655,58.5676 21.2322,59.901 21.5,61.5C 21.5,62.5 21.5,63.5 21.5,64.5C 19.5,64.5 17.5,64.5 15.5,64.5C 17.1668,55.8322 18.8335,47.1656 20.5,38.5C 25.8333,38.5 31.1667,38.5 36.5,38.5 Z"/></g>
<g><path style="opacity:1" fill="#0b0c0e" d="M 79.5,56.5 C 75.2147,57.2949 70.8814,57.6282 66.5,57.5C 67.4951,62.5418 65.4951,64.8752 60.5,64.5C 60.5,64.1667 60.5,63.8333 60.5,63.5C 61.6191,55.195 63.2858,47.0283 65.5,39C 70.5,38.3333 75.5,38.3333 80.5,39C 81.9308,39.4652 83.0975,40.2986 84,41.5C 85.6213,47.5248 84.1213,52.5248 79.5,56.5 Z"/></g>
<g><path style="opacity:1" fill="#767ab1" d="M 91.5,38.5 C 98.0829,44.0492 99.2496,50.7159 95,58.5C 85.9985,66.4802 75.4985,71.3136 63.5,73C 52.5438,74.3189 41.5438,74.8189 30.5,74.5C 29.5084,74.6716 28.8417,74.3382 28.5,73.5C 29.5,72.1667 30.5,72.1667 31.5,73.5C 38.9948,72.1034 46.6615,71.2701 54.5,71C 50.6769,70.1824 50.5102,69.0157 54,67.5C 56.5555,71.4569 58.3888,71.1236 59.5,66.5C 62.214,66.75 64.8806,66.9167 67.5,67C 68.1029,65.1746 68.7696,63.3413 69.5,61.5C 72.3125,60.7807 75.1459,60.114 78,59.5C 79.0299,59.1639 79.5299,58.4972 79.5,57.5C 79.5,57.1667 79.5,56.8333 79.5,56.5C 82.091,55.7457 83.9243,54.079 85,51.5C 86.7178,47.8775 86.8845,44.2108 85.5,40.5C 87.2966,38.5937 89.2966,37.927 91.5,38.5 Z"/></g>
<g><path style="opacity:1" fill="#7e7da8" d="M 25.5,43.5 C 32.2476,42.499 34.2476,45.1657 31.5,51.5C 29.5,51.5 27.5,51.5 25.5,51.5C 25.7947,49.2646 25.4614,47.2646 24.5,45.5C 24.3284,44.5084 24.6618,43.8417 25.5,43.5 Z"/></g>
<g><path style="opacity:1" fill="#807dab" d="M 70.5,42.5 C 72.5563,43.2161 74.723,43.8828 77,44.5C 77.5564,46.8848 77.3897,49.2181 76.5,51.5C 74.1944,51.9926 71.861,52.3259 69.5,52.5C 70.4967,49.6717 70.4967,47.005 69.5,44.5C 69.3284,43.5084 69.6618,42.8417 70.5,42.5 Z"/></g>
<g><path style="opacity:1" fill="#c8c9db" d="M 70.5,42.5 C 73.6852,42.0196 76.5185,42.6863 79,44.5C 79.838,47.4807 79.0047,49.8141 76.5,51.5C 77.3897,49.2181 77.5564,46.8848 77,44.5C 74.723,43.8828 72.5563,43.2161 70.5,42.5 Z"/></g>
<g><path style="opacity:1" fill="#ccccdf" d="M 25.5,43.5 C 28.0303,42.2243 30.6969,42.2243 33.5,43.5C 34.9846,46.7524 34.318,49.419 31.5,51.5C 34.2476,45.1657 32.2476,42.499 25.5,43.5 Z"/></g>
<g><path style="opacity:1" fill="#4e5189" d="M 68.5,25.5 C 82.2403,26.6269 92.5736,32.9602 99.5,44.5C 99.5,48.1667 99.5,51.8333 99.5,55.5C 93.92,64.4747 85.92,70.308 75.5,73C 60.4703,76.9372 45.4703,77.4372 30.5,74.5C 41.5438,74.8189 52.5438,74.3189 63.5,73C 75.4985,71.3136 85.9985,66.4802 95,58.5C 99.2496,50.7159 98.0829,44.0492 91.5,38.5C 85.0743,33.2871 77.741,29.6204 69.5,27.5C 67.5759,27.2893 67.2426,26.6226 68.5,25.5 Z"/></g>
<g><path style="opacity:1" fill="#b5b7c7" d="M 24.5,45.5 C 25.4614,47.2646 25.7947,49.2646 25.5,51.5C 27.5,51.5 29.5,51.5 31.5,51.5C 31.3893,52.1174 31.056,52.6174 30.5,53C 28.1902,53.4966 25.8568,53.6633 23.5,53.5C 23.4013,50.7628 23.7347,48.0961 24.5,45.5 Z"/></g>
<g><path style="opacity:1" fill="#7a7cb0" d="M 60.5,63.5 C 60.5,63.8333 60.5,64.1667 60.5,64.5C 62.0134,65.5098 64.3467,65.8431 67.5,65.5C 67.5,63.5 67.5,61.5 67.5,59.5C 71.7047,59.8094 75.7047,59.1428 79.5,57.5C 79.5299,58.4972 79.0299,59.1639 78,59.5C 75.1459,60.114 72.3125,60.7807 69.5,61.5C 68.7696,63.3413 68.1029,65.1746 67.5,67C 64.8806,66.9167 62.214,66.75 59.5,66.5C 58.3888,71.1236 56.5555,71.4569 54,67.5C 50.5102,69.0157 50.6769,70.1824 54.5,71C 46.6615,71.2701 38.9948,72.1034 31.5,73.5C 32.5676,72.5655 33.901,72.2322 35.5,72.5C 35.5,71.5 35.5,70.5 35.5,69.5C 34.1667,69.5 32.8333,69.5 31.5,69.5C 31.6633,67.1432 31.4966,64.8098 31,62.5C 30.2496,61.8742 29.4162,61.3742 28.5,61C 30.1667,60.6667 31.8333,60.3333 33.5,60C 34.756,59.5831 35.4226,58.7498 35.5,57.5C 36.5846,55.4131 38.2512,54.0798 40.5,53.5C 40.5,54.8333 40.5,56.1667 40.5,57.5C 39.0335,54.7417 38.3668,55.075 38.5,58.5C 41.2469,58.8134 43.9135,58.48 46.5,57.5C 47.7537,55.3569 47.7537,53.3569 46.5,51.5C 46.2322,49.901 46.5655,48.5676 47.5,47.5C 47.369,48.2389 47.5357,48.9056 48,49.5C 48.813,47.5643 49.313,45.5643 49.5,43.5C 51.1667,43.5 52.8333,43.5 54.5,43.5C 54.0925,48.5368 53.4258,53.5368 52.5,58.5C 54.8333,58.5 57.1667,58.5 59.5,58.5C 59.2155,60.4147 59.5489,62.0813 60.5,63.5 Z"/></g>
<g><path style="opacity:1" fill="#bfbdcf" d="M 69.5,44.5 C 70.4967,47.005 70.4967,49.6717 69.5,52.5C 71.861,52.3259 74.1944,51.9926 76.5,51.5C 76.3893,52.1174 76.056,52.6174 75.5,53C 73.1902,53.4966 70.8568,53.6633 68.5,53.5C 68.3677,50.4299 68.701,47.4299 69.5,44.5 Z"/></g>
<g><path style="opacity:1" fill="#dde2ed" d="M 46.5,51.5 C 47.7537,53.3569 47.7537,55.3569 46.5,57.5C 43.9135,58.48 41.2469,58.8134 38.5,58.5C 38.3668,55.075 39.0335,54.7417 40.5,57.5C 42.1667,57.5 43.8333,57.5 45.5,57.5C 45.5172,55.4352 45.8505,53.4352 46.5,51.5 Z"/></g>
<g><path style="opacity:1" fill="#b7b9cc" d="M 79.5,56.5 C 79.5,56.8333 79.5,57.1667 79.5,57.5C 75.7047,59.1428 71.7047,59.8094 67.5,59.5C 67.5,61.5 67.5,63.5 67.5,65.5C 64.3467,65.8431 62.0134,65.5098 60.5,64.5C 65.4951,64.8752 67.4951,62.5418 66.5,57.5C 70.8814,57.6282 75.2147,57.2949 79.5,56.5 Z"/></g>
<g><path style="opacity:1" fill="#797daf" d="M 22.5,57.5 C 22.369,58.2389 22.5357,58.9056 23,59.5C 27.1265,58.7359 31.2932,58.0692 35.5,57.5C 35.4226,58.7498 34.756,59.5831 33.5,60C 31.8333,60.3333 30.1667,60.6667 28.5,61C 29.4162,61.3742 30.2496,61.8742 31,62.5C 31.4966,64.8098 31.6633,67.1432 31.5,69.5C 32.8333,69.5 34.1667,69.5 35.5,69.5C 35.5,70.5 35.5,71.5 35.5,72.5C 33.901,72.2322 32.5676,72.5655 31.5,73.5C 30.5,72.1667 29.5,72.1667 28.5,73.5C 23.8937,70.9312 19.227,68.2646 14.5,65.5C 17.1667,65.5 19.8333,65.5 22.5,65.5C 22.7678,63.901 22.4345,62.5676 21.5,61.5C 21.2322,59.901 21.5655,58.5676 22.5,57.5 Z"/></g>
</svg>
