<?xml version="1.0" encoding="UTF-8"?>
<!DOCTYPE svg PUBLIC "-//W3C//DTD SVG 1.1//EN" "http://www.w3.org/Graphics/SVG/1.1/DTD/svg11.dtd">
<svg xmlns="http://www.w3.org/2000/svg" version="1.1" width="100px" height="100px" style="shape-rendering:geometricPrecision; text-rendering:geometricPrecision; image-rendering:optimizeQuality; fill-rule:evenodd; clip-rule:evenodd" xmlns:xlink="http://www.w3.org/1999/xlink">
<g><path style="opacity:1" fill="#f8338e" d="M 14.5,-0.5 C 17.5,-0.5 20.5,-0.5 23.5,-0.5C 32.9495,2.28849 42.6162,4.62182 52.5,6.5C 52.5,7.5 52.5,8.5 52.5,9.5C 52.6495,10.552 52.4828,11.552 52,12.5C 49.8733,14.1137 48.3733,16.1137 47.5,18.5C 37.8333,18.5 28.1667,18.5 18.5,18.5C 17.0634,16.5058 15.7301,14.3392 14.5,12C 12.7153,9.77429 10.3819,8.60762 7.5,8.5C 10.2154,5.7861 12.5488,2.7861 14.5,-0.5 Z"/></g>
<g><path style="opacity:0.977" fill="#af46e6" d="M 90.5,17.5 C 88.857,17.5198 87.5237,16.8532 86.5,15.5C 83.1454,20.6804 81.8121,26.3471 82.5,32.5C 81.8333,28.1667 81.1667,23.8333 80.5,19.5C 69.6794,18.5054 58.6794,18.1721 47.5,18.5C 48.3733,16.1137 49.8733,14.1137 52,12.5C 52.4828,11.552 52.6495,10.552 52.5,9.5C 53.4232,10.3029 54.4232,10.4696 55.5,10C 56.9549,7.35171 59.1215,5.51838 62,4.5C 70.5909,5.88683 79.0909,7.72016 87.5,10C 88.2735,12.5972 89.2735,15.0972 90.5,17.5 Z"/></g>
<g><path style="opacity:1" fill="#e737a9" d="M 7.5,8.5 C 10.3819,8.60762 12.7153,9.77429 14.5,12C 15.7301,14.3392 17.0634,16.5058 18.5,18.5C 18.5,19.1667 18.5,19.8333 18.5,20.5C 17.7321,21.2625 17.2321,22.2625 17,23.5C 16.6458,21.1925 15.6458,20.8592 14,22.5C 10.6531,18.6424 6.48642,16.3091 1.5,15.5C 3.27333,12.9401 5.27333,10.6068 7.5,8.5 Z"/></g>
<g><path style="opacity:1" fill="#53073f" d="M 18.5,18.5 C 28.1667,18.5 37.8333,18.5 47.5,18.5C 47.5,18.8333 47.5,19.1667 47.5,19.5C 38.1667,19.5 28.8333,19.5 19.5,19.5C 19.5,37.5 19.5,55.5 19.5,73.5C 19.7373,74.791 19.404,75.791 18.5,76.5C 18.5,57.8333 18.5,39.1667 18.5,20.5C 18.5,19.8333 18.5,19.1667 18.5,18.5 Z"/></g>
<g><path style="opacity:0.995" fill="#060506" d="M 26.5,79.5 C 26.5,80.1667 26.5,80.8333 26.5,81.5C 23.5,81.5 20.5,81.5 17.5,81.5C 17.5,79.8333 17.5,78.1667 17.5,76.5C 17.8333,76.5 18.1667,76.5 18.5,76.5C 19.404,75.791 19.7373,74.791 19.5,73.5C 20.4967,56.0079 20.8301,38.3412 20.5,20.5C 39.8333,20.5 59.1667,20.5 78.5,20.5C 78.5,39.8333 78.5,59.1667 78.5,78.5C 60.992,78.17 43.6586,78.5033 26.5,79.5 Z"/></g>
<g><path style="opacity:1" fill="#0f0015" d="M 47.5,19.5 C 58.1667,19.5 68.8333,19.5 79.5,19.5C 79.5,39.5 79.5,59.5 79.5,79.5C 61.8333,79.5 44.1667,79.5 26.5,79.5C 43.6586,78.5033 60.992,78.17 78.5,78.5C 78.5,59.1667 78.5,39.8333 78.5,20.5C 59.1667,20.5 39.8333,20.5 20.5,20.5C 20.8301,38.3412 20.4967,56.0079 19.5,73.5C 19.5,55.5 19.5,37.5 19.5,19.5C 28.8333,19.5 38.1667,19.5 47.5,19.5 Z"/></g>
<g><path style="opacity:1" fill="#c541c1" d="M 1.5,15.5 C 6.48642,16.3091 10.6531,18.6424 14,22.5C 15.6458,20.8592 16.6458,21.1925 17,23.5C 17.2321,22.2625 17.7321,21.2625 18.5,20.5C 18.5,39.1667 18.5,57.8333 18.5,76.5C 18.1667,76.5 17.8333,76.5 17.5,76.5C 17.8286,63.9887 17.4952,51.6554 16.5,39.5C 16.1667,39.5 15.8333,39.5 15.5,39.5C 17.2438,33.0617 14.9105,29.2284 8.5,28C 6.42251,24.6291 3.42251,22.7958 -0.5,22.5C -0.5,20.5 -0.5,18.5 -0.5,16.5C 0.166667,16.1667 0.833333,15.8333 1.5,15.5 Z"/></g>
<g><path style="opacity:1" fill="#a949f1" d="M 90.5,17.5 C 93.1727,24.1766 95.8394,30.8433 98.5,37.5C 95.1309,38.2674 92.2976,39.9341 90,42.5C 88.7135,39.8554 86.5468,38.8554 83.5,39.5C 83.0699,46.792 85.0699,53.292 89.5,59C 87.1198,61.6045 85.1198,64.4378 83.5,67.5C 82.5011,55.8523 82.1678,44.1857 82.5,32.5C 81.8121,26.3471 83.1454,20.6804 86.5,15.5C 87.5237,16.8532 88.857,17.5198 90.5,17.5 Z"/></g>
<g><path style="opacity:1" fill="#f2f2f2" d="M 36.5,44.5 C 34.1667,44.5 31.8333,44.5 29.5,44.5C 29.5,47.1667 29.5,49.8333 29.5,52.5C 27.8333,52.5 26.1667,52.5 24.5,52.5C 24.5,43.8333 24.5,35.1667 24.5,26.5C 29.1785,26.3342 33.8452,26.5008 38.5,27C 46.1012,32.164 46.4346,37.8307 39.5,44C 38.552,44.4828 37.552,44.6495 36.5,44.5 Z"/></g>
<g><path style="opacity:1" fill="#eaeaea" d="M 51.5,26.5 C 54.8499,26.335 58.1832,26.5017 61.5,27C 66.467,28.6245 66.6336,30.7911 62,33.5C 60.0924,32.5457 58.0924,31.879 56,31.5C 52.1784,31.9695 51.6784,33.4695 54.5,36C 59.5018,36.2471 63.3352,38.4138 66,42.5C 67.0568,46.886 65.5568,50.0527 61.5,52C 57.8333,52.6667 54.1667,52.6667 50.5,52C 45.8122,50.1983 45.4788,48.0316 49.5,45.5C 52.5831,47.3456 55.9165,47.8456 59.5,47C 60.0219,46.4387 60.3552,45.772 60.5,45C 56.4149,42.761 52.2482,40.5944 48,38.5C 47.3333,35.5 47.3333,32.5 48,29.5C 49.1451,28.3636 50.3117,27.3636 51.5,26.5 Z"/></g>
<g><path style="opacity:1" fill="#c042dc" d="M -0.5,22.5 C 3.42251,22.7958 6.42251,24.6291 8.5,28C 14.9105,29.2284 17.2438,33.0617 15.5,39.5C 11.7137,38.7075 8.38034,37.0409 5.5,34.5C 3.484,34.5159 2.484,35.5159 2.5,37.5C 1.28794,34.2204 0.287939,30.8871 -0.5,27.5C -0.5,25.8333 -0.5,24.1667 -0.5,22.5 Z"/></g>
<g><path style="opacity:1" fill="#161616" d="M 29.5,31.5 C 31.8568,31.3367 34.1902,31.5034 36.5,32C 39.1667,34.3333 39.1667,36.6667 36.5,39C 34.1902,39.4966 31.8568,39.6633 29.5,39.5C 29.5,36.8333 29.5,34.1667 29.5,31.5 Z"/></g>
<g><path style="opacity:1" fill="#ab47ee" d="M 15.5,39.5 C 15.8333,39.5 16.1667,39.5 16.5,39.5C 17.8218,59.3929 13.4885,60.7262 3.5,43.5C 2.65859,41.6208 2.32526,39.6208 2.5,37.5C 2.484,35.5159 3.484,34.5159 5.5,34.5C 8.38034,37.0409 11.7137,38.7075 15.5,39.5 Z"/></g>
<g><path style="opacity:1" fill="#8655ee" d="M 80.5,19.5 C 81.1667,23.8333 81.8333,28.1667 82.5,32.5C 82.1678,44.1857 82.5011,55.8523 83.5,67.5C 85.1198,64.4378 87.1198,61.6045 89.5,59C 85.0699,53.292 83.0699,46.792 83.5,39.5C 86.5468,38.8554 88.7135,39.8554 90,42.5C 92.2976,39.9341 95.1309,38.2674 98.5,37.5C 98.5,38.1667 98.8333,38.5 99.5,38.5C 99.5,40.5 99.5,42.5 99.5,44.5C 95.4217,47.5446 91.755,51.0446 88.5,55C 92.3137,61.4654 95.9804,67.9654 99.5,74.5C 99.5,75.8333 99.5,77.1667 99.5,78.5C 87.8285,84.9999 76.4951,91.9999 65.5,99.5C 64.5,99.5 63.5,99.5 62.5,99.5C 61.6525,97.5185 61.1525,95.5185 61,93.5C 63.0693,92.7362 65.236,92.2362 67.5,92C 72.424,86.9794 71.0906,84.146 63.5,83.5C 64.8333,82.8333 66.1667,82.1667 67.5,81.5C 71.9707,82.0894 75.9707,81.4228 79.5,79.5C 80.4971,59.6736 80.8305,39.6736 80.5,19.5 Z"/></g>
<g><path style="opacity:1" fill="#4b4b4b" d="M 36.5,44.5 C 34.7354,45.4614 32.7354,45.7947 30.5,45.5C 30.8016,48.0593 30.4682,50.3926 29.5,52.5C 29.5,49.8333 29.5,47.1667 29.5,44.5C 31.8333,44.5 34.1667,44.5 36.5,44.5 Z"/></g>
<g><path style="opacity:1" fill="#360d56" d="M 47.5,19.5 C 47.5,19.1667 47.5,18.8333 47.5,18.5C 58.6794,18.1721 69.6794,18.5054 80.5,19.5C 80.8305,39.6736 80.4971,59.6736 79.5,79.5C 79.5,59.5 79.5,39.5 79.5,19.5C 68.8333,19.5 58.1667,19.5 47.5,19.5 Z"/></g>
<g><path style="opacity:0.786" fill="#8556f0" d="M 16.5,39.5 C 17.4952,51.6554 17.8286,63.9887 17.5,76.5C 14.2234,76.7839 11.0567,76.4505 8,75.5C 6.30231,64.8486 4.80231,54.1819 3.5,43.5C 13.4885,60.7262 17.8218,59.3929 16.5,39.5 Z"/></g>
<g><path style="opacity:1" fill="#fefefe" d="M 24.5,69.5 C 53.8333,70.1667 53.8333,70.8333 24.5,71.5C 24.5,70.8333 24.5,70.1667 24.5,69.5 Z"/></g>
<g><path style="opacity:1" fill="#cbcbcc" d="M 24.5,69.5 C 31.9818,68.508 39.6484,68.1746 47.5,68.5C 47.5,69.8333 47.5,71.1667 47.5,72.5C 39.6484,72.8254 31.9818,72.492 24.5,71.5C 53.8333,70.8333 53.8333,70.1667 24.5,69.5 Z"/></g>
<g><path style="opacity:1" fill="#713798" d="M 26.5,79.5 C 44.1667,79.5 61.8333,79.5 79.5,79.5C 75.9707,81.4228 71.9707,82.0894 67.5,81.5C 53.8333,81.5 40.1667,81.5 26.5,81.5C 26.5,80.8333 26.5,80.1667 26.5,79.5 Z"/></g>
<g><path style="opacity:0.997" fill="#b046ed" d="M 26.5,81.5 C 40.1667,81.5 53.8333,81.5 67.5,81.5C 66.1667,82.1667 64.8333,82.8333 63.5,83.5C 61.4727,83.3379 59.4727,83.5045 57.5,84C 54.5325,86.4795 51.8658,89.1461 49.5,92C 50.3081,92.3076 50.9747,92.8076 51.5,93.5C 49.9547,94.4519 48.288,94.7852 46.5,94.5C 40.2178,93.1958 34.2178,91.0292 28.5,88C 27.6028,85.9129 26.9361,83.7463 26.5,81.5 Z"/></g>
<g><path style="opacity:1" fill="#9e4cf0" d="M 63.5,83.5 C 71.0906,84.146 72.424,86.9794 67.5,92C 65.236,92.2362 63.0693,92.7362 61,93.5C 61.1525,95.5185 61.6525,97.5185 62.5,99.5C 60.8333,99.5 59.1667,99.5 57.5,99.5C 53.9422,97.5537 50.2755,95.8871 46.5,94.5C 48.288,94.7852 49.9547,94.4519 51.5,93.5C 50.9747,92.8076 50.3081,92.3076 49.5,92C 51.8658,89.1461 54.5325,86.4795 57.5,84C 59.4727,83.5045 61.4727,83.3379 63.5,83.5 Z"/></g>
</svg>
