<?xml version="1.0" encoding="UTF-8"?>
<!DOCTYPE svg PUBLIC "-//W3C//DTD SVG 1.1//EN" "http://www.w3.org/Graphics/SVG/1.1/DTD/svg11.dtd">
<svg xmlns="http://www.w3.org/2000/svg" version="1.1" width="100px" height="100px" style="shape-rendering:geometricPrecision; text-rendering:geometricPrecision; image-rendering:optimizeQuality; fill-rule:evenodd; clip-rule:evenodd" xmlns:xlink="http://www.w3.org/1999/xlink">
<g><path style="opacity:0.985" fill="#326791" d="M 15.5,0.5 C 19.1667,0.5 22.8333,0.5 26.5,0.5C 25.3915,1.28997 24.0581,1.78997 22.5,2C 23.7256,3.63492 25.059,5.13492 26.5,6.5C 28.4221,4.41771 30.7555,3.08437 33.5,2.5C 34.675,2.28099 35.675,2.61432 36.5,3.5C 28.8458,14.3571 26.1792,26.3571 28.5,39.5C 27.8826,39.3893 27.3826,39.056 27,38.5C 25.9359,40.2688 24.7692,41.9355 23.5,43.5C 24.8936,45.6457 25.5603,47.979 25.5,50.5C 26.5,50.5 27.5,50.5 28.5,50.5C 29.2737,53.3809 30.6071,56.0476 32.5,58.5C 32.0576,59.7387 31.3909,60.7387 30.5,61.5C 29.6521,59.9069 28.3187,58.7403 26.5,58C 25.552,57.5172 24.552,57.3505 23.5,57.5C 23.4145,60.9578 25.0812,62.9578 28.5,63.5C 26.3174,66.873 23.484,69.5396 20,71.5C 15.2637,68.7558 11.9304,64.7558 10,59.5C 3.59207,44.4616 0.925406,28.7949 2,12.5C 2.27842,11.5842 2.77842,10.9175 3.5,10.5C 5.03582,12.0251 6.03582,14.0251 6.5,16.5C 9.19338,14.7298 12.1934,14.0632 15.5,14.5C 15.5842,10.6691 14.9175,7.00246 13.5,3.5C 16.2476,3.59829 16.9143,2.59829 15.5,0.5 Z"/></g>
<g><path style="opacity:0.976" fill="#3462a2" d="M 46.5,0.5 C 45.9473,2.55182 44.9473,2.88516 43.5,1.5C 44.609,1.44312 45.609,1.10978 46.5,0.5 Z"/></g>
<g><path style="opacity:1" fill="#30698d" d="M 26.5,0.5 C 28.9521,1.06543 31.2854,1.7321 33.5,2.5C 30.7555,3.08437 28.4221,4.41771 26.5,6.5C 25.059,5.13492 23.7256,3.63492 22.5,2C 24.0581,1.78997 25.3915,1.28997 26.5,0.5 Z"/></g>
<g><path style="opacity:0.984" fill="#326690" d="M 48.5,-0.5 C 50.8333,-0.5 53.1667,-0.5 55.5,-0.5C 61.9434,1.05266 67.9434,3.71933 73.5,7.5C 73.5,8.83333 74.1667,9.5 75.5,9.5C 77.5,13.1667 79.5,16.8333 81.5,20.5C 80.5,20.5 79.5,20.5 78.5,20.5C 78.5,21.5 78.5,22.5 78.5,23.5C 76.139,23.6741 73.8056,24.0074 71.5,24.5C 70.9924,22.7673 70.159,22.434 69,23.5C 67.5796,26.1841 67.0796,28.8508 67.5,31.5C 65.9065,29.3397 64.2399,29.173 62.5,31C 64.9538,32.4709 67.2871,33.9709 69.5,35.5C 72.7551,43.6234 76.7551,51.4567 81.5,59C 79.9818,60.3506 78.6485,61.8506 77.5,63.5C 76.5041,63.4142 75.6708,63.7476 75,64.5C 74.6272,59.8364 73.1272,59.3364 70.5,63C 73.5318,70.0211 74.8651,77.5211 74.5,85.5C 74.9419,92.6632 71.9419,97.3298 65.5,99.5C 62.5,99.5 59.5,99.5 56.5,99.5C 52.6856,96.5228 51.0189,92.5228 51.5,87.5C 55.5274,87.7192 56.1941,86.5525 53.5,84C 54,83.5 54.5,83 55,82.5C 56.2886,85.3508 56.7886,88.3508 56.5,91.5C 58.8333,91.5 61.1667,91.5 63.5,91.5C 63.5,82.1667 63.5,72.8333 63.5,63.5C 61.396,63.2011 59.396,63.5344 57.5,64.5C 56.0945,67.2126 54.5945,69.8793 53,72.5C 52.1482,71.4293 51.3149,70.4293 50.5,69.5C 50.6621,67.4727 50.4955,65.4727 50,63.5C 47.7897,61.2136 45.6231,59.7136 43.5,59C 48.6406,48.9545 49.8072,38.4545 47,27.5C 42.375,22.5714 37.5417,22.238 32.5,26.5C 31.5,26.5 30.5,26.5 29.5,26.5C 29.8623,17.9069 32.8623,10.4069 38.5,4C 40.0779,2.9055 41.7446,2.07217 43.5,1.5C 44.9473,2.88516 45.9473,2.55182 46.5,0.5C 47.4916,0.67158 48.1583,0.338246 48.5,-0.5 Z"/></g>
<g><path style="opacity:1" fill="#34668d" d="M 15.5,0.5 C 16.9143,2.59829 16.2476,3.59829 13.5,3.5C 14.9175,7.00246 15.5842,10.6691 15.5,14.5C 12.1934,14.0632 9.19338,14.7298 6.5,16.5C 6.03582,14.0251 5.03582,12.0251 3.5,10.5C 5.45311,4.83875 9.45311,1.50542 15.5,0.5 Z"/></g>
<g><path style="opacity:0.685" fill="#32639b" d="M 81.5,20.5 C 81.5,21.5 81.5,22.5 81.5,23.5C 80.5,23.5 79.5,23.5 78.5,23.5C 78.5,22.5 78.5,21.5 78.5,20.5C 79.5,20.5 80.5,20.5 81.5,20.5 Z"/></g>
<g><path style="opacity:1" fill="#32678d" d="M 5.5,22.5 C 8.55159,24.1783 11.8849,24.845 15.5,24.5C 15.5,26.5 15.5,28.5 15.5,30.5C 12.1105,30.6321 8.77718,30.7988 5.5,31C 4.21381,28.1684 4.21381,25.3351 5.5,22.5 Z"/></g>
<g><path style="opacity:0.971" fill="#34668f" d="M 65.5,-0.5 C 71.5,-0.5 77.5,-0.5 83.5,-0.5C 97.471,5.03722 101.638,15.0372 96,29.5C 94.1808,36.1283 91.6808,42.4616 88.5,48.5C 86.9519,48.8212 86.2852,49.8212 86.5,51.5C 86.114,53.9366 84.9473,55.9366 83,57.5C 82.5,57 82,56.5 81.5,56C 83.4001,53.1323 84.4001,49.9657 84.5,46.5C 83.6117,38.1716 83.445,29.8382 84,21.5C 82.0224,16.7214 79.1891,12.7214 75.5,9.5C 74.1667,9.5 73.5,8.83333 73.5,7.5C 70.8333,4.83333 68.1667,2.16667 65.5,-0.5 Z"/></g>
<g><path style="opacity:0.949" fill="#346690" d="M 71.5,26.5 C 74.9664,24.9084 78.6331,24.2417 82.5,24.5C 81.278,31.8322 81.278,39.1656 82.5,46.5C 82.5577,49.0571 81.8911,51.3904 80.5,53.5C 75.5582,46.9461 72.2248,39.6128 70.5,31.5C 71.0463,29.8653 71.3796,28.1986 71.5,26.5 Z"/></g>
<g><path style="opacity:0.971" fill="#31678f" d="M 32.5,26.5 C 33.8333,26.5 35.1667,26.5 36.5,26.5C 38.1788,26.2852 39.1788,26.9519 39.5,28.5C 38.4937,28.9377 38.4937,29.6043 39.5,30.5C 39.6107,31.1174 39.944,31.6174 40.5,32C 38.75,33.7542 38.0833,35.9208 38.5,38.5C 36.2075,38.2436 34.0408,38.5769 32,39.5C 31.7902,40.8029 31.9569,42.1362 32.5,43.5C 31.1064,45.6457 30.4397,47.979 30.5,50.5C 29.5657,49.2275 28.899,47.7275 28.5,46C 29.1044,40.1737 29.7711,34.3404 30.5,28.5C 31.5223,28.1445 32.189,27.4778 32.5,26.5 Z"/></g>
<g><path style="opacity:0.985" fill="#32678b" d="M 71.5,24.5 C 71.5,25.1667 71.5,25.8333 71.5,26.5C 70.8826,26.6107 70.3826,26.944 70,27.5C 69.5026,30.146 69.3359,32.8127 69.5,35.5C 67.2871,33.9709 64.9538,32.4709 62.5,31C 64.2399,29.173 65.9065,29.3397 67.5,31.5C 67.0796,28.8508 67.5796,26.1841 69,23.5C 70.159,22.434 70.9924,22.7673 71.5,24.5 Z"/></g>
<g><path style="opacity:0.96" fill="#336691" d="M 36.5,26.5 C 40.4665,24.697 43.6331,25.697 46,29.5C 46.3773,33.0187 46.8773,36.5187 47.5,40C 46.2596,46.6356 44.5929,53.1356 42.5,59.5C 36.1531,59.472 32.1531,56.472 30.5,50.5C 30.4397,47.979 31.1064,45.6457 32.5,43.5C 31.9569,42.1362 31.7902,40.8029 32,39.5C 34.0408,38.5769 36.2075,38.2436 38.5,38.5C 38.0833,35.9208 38.75,33.7542 40.5,32C 39.944,31.6174 39.6107,31.1174 39.5,30.5C 44.6294,30.281 44.6294,29.6144 39.5,28.5C 39.1788,26.9519 38.1788,26.2852 36.5,26.5 Z"/></g>
<g><path style="opacity:0.89" fill="#356689" d="M 28.5,39.5 C 27.242,43.1996 27.242,46.8663 28.5,50.5C 27.5,50.5 26.5,50.5 25.5,50.5C 25.5603,47.979 24.8936,45.6457 23.5,43.5C 24.7692,41.9355 25.9359,40.2688 27,38.5C 27.3826,39.056 27.8826,39.3893 28.5,39.5 Z"/></g>
<g><path style="opacity:0.447" fill="#395f9e" d="M 88.5,48.5 C 88.0679,49.7095 87.4013,50.7095 86.5,51.5C 86.2852,49.8212 86.9519,48.8212 88.5,48.5 Z"/></g>
<g><path style="opacity:0.975" fill="#32688b" d="M 30.5,61.5 C 30.1667,62.5 29.5,63.1667 28.5,63.5C 25.0812,62.9578 23.4145,60.9578 23.5,57.5C 24.552,57.3505 25.552,57.5172 26.5,58C 28.3187,58.7403 29.6521,59.9069 30.5,61.5 Z"/></g>
<g><path style="opacity:1" fill="#34668b" d="M 77.5,63.5 C 76.6666,70.9943 75.6666,78.3277 74.5,85.5C 74.8651,77.5211 73.5318,70.0211 70.5,63C 73.1272,59.3364 74.6272,59.8364 75,64.5C 75.6708,63.7476 76.5041,63.4142 77.5,63.5 Z"/></g>
<g><path style="opacity:0.888" fill="#35678c" d="M 91.5,63.5 C 90.4324,64.4345 89.099,64.7678 87.5,64.5C 87.5,65.5 87.5,66.5 87.5,67.5C 86.8333,67.5 86.1667,67.5 85.5,67.5C 84.6522,66.375 83.6522,66.375 82.5,67.5C 81.1667,67.5 79.8333,67.5 78.5,67.5C 78.178,65.2776 78.8446,63.4443 80.5,62C 84.1123,62.451 87.779,62.951 91.5,63.5 Z"/></g>
<g><path style="opacity:0.962" fill="#31678e" d="M 51.5,87.5 C 50.5447,81.5907 50.2114,75.5907 50.5,69.5C 51.3149,70.4293 52.1482,71.4293 53,72.5C 54.5945,69.8793 56.0945,67.2126 57.5,64.5C 59.396,63.5344 61.396,63.2011 63.5,63.5C 63.5,72.8333 63.5,82.1667 63.5,91.5C 61.1667,91.5 58.8333,91.5 56.5,91.5C 56.7886,88.3508 56.2886,85.3508 55,82.5C 54.5,83 54,83.5 53.5,84C 56.1941,86.5525 55.5274,87.7192 51.5,87.5 Z"/></g>
<g><path style="opacity:1" fill="#37628c" d="M 87.5,67.5 C 87.5,66.5 87.5,65.5 87.5,64.5C 89.099,64.7678 90.4324,64.4345 91.5,63.5C 99.0455,62.2323 99.0455,63.399 91.5,67C 90.2068,67.49 88.8734,67.6567 87.5,67.5 Z"/></g>
<g><path style="opacity:0.771" fill="#32678c" d="M 44.5,61.5 C 48.1461,62.4615 49.3128,64.7949 48,68.5C 42.6133,72.9319 36.78,73.5986 30.5,70.5C 36.5206,69.4963 41.1873,66.4963 44.5,61.5 Z"/></g>
<g><path style="opacity:0.997" fill="#316798" d="M 42.5,65.5 C 43.5,65.5 44.5,65.5 45.5,65.5C 45.5,66.8333 45.5,68.1667 45.5,69.5C 44.1667,69.5 42.8333,69.5 41.5,69.5C 41.4326,68.0413 41.7659,66.7079 42.5,65.5 Z"/></g>
<g><path style="opacity:0.008" fill="#2d7a8e" d="M 85.5,67.5 C 84.3478,68.625 83.3478,68.625 82.5,67.5C 83.6522,66.375 84.6522,66.375 85.5,67.5 Z"/></g>
</svg>
