<?xml version="1.0" encoding="UTF-8"?>
<!DOCTYPE svg PUBLIC "-//W3C//DTD SVG 1.1//EN" "http://www.w3.org/Graphics/SVG/1.1/DTD/svg11.dtd">
<svg xmlns="http://www.w3.org/2000/svg" version="1.1" width="100px" height="100px" style="shape-rendering:geometricPrecision; text-rendering:geometricPrecision; image-rendering:optimizeQuality; fill-rule:evenodd; clip-rule:evenodd" xmlns:xlink="http://www.w3.org/1999/xlink">
<g><path style="opacity:1" fill="#4f87eb" d="M 18.5,13.5 C 25.3134,12.5088 32.3134,12.1755 39.5,12.5C 45.31,13.4896 51.31,13.8229 57.5,13.5C 58.2625,14.2679 59.2625,14.7679 60.5,15C 59.2068,15.49 57.8734,15.6567 56.5,15.5C 56.3215,18.2165 55.8215,20.8832 55,23.5C 50.6535,24.5056 46.3202,24.1723 42,22.5C 40.699,20.8446 39.199,19.5113 37.5,18.5C 38.0283,17.2794 38.695,16.1127 39.5,15C 39.1667,14.6667 38.8333,14.3333 38.5,14C 31.8417,13.5004 25.175,13.3337 18.5,13.5 Z"/></g>
<g><path style="opacity:1" fill="#4980df" d="M 57.5,13.5 C 67.5222,13.1681 77.5222,13.5015 87.5,14.5C 84.9135,15.48 82.2469,15.8134 79.5,15.5C 79.5,16.8333 79.5,18.1667 79.5,19.5C 78.1667,19.5 76.8333,19.5 75.5,19.5C 75.5,20.8333 75.5,22.1667 75.5,23.5C 74.1667,23.5 72.8333,23.5 71.5,23.5C 71.5,26.1667 71.5,28.8333 71.5,31.5C 65.0577,32.2903 62.3911,35.9569 63.5,42.5C 62.2921,41.7659 60.9587,41.4326 59.5,41.5C 59.5,40.5 59.5,39.5 59.5,38.5C 58.5,38.5 57.5,38.5 56.5,38.5C 57.3201,34.7779 55.9868,32.4446 52.5,31.5C 49.0504,32.2436 47.3838,30.9103 47.5,27.5C 45.3281,26.1989 42.9948,25.1989 40.5,24.5C 38.6896,20.6892 35.6896,19.0225 31.5,19.5C 33.2646,18.5386 35.2646,18.2053 37.5,18.5C 39.199,19.5113 40.699,20.8446 42,22.5C 46.3202,24.1723 50.6535,24.5056 55,23.5C 55.8215,20.8832 56.3215,18.2165 56.5,15.5C 57.8734,15.6567 59.2068,15.49 60.5,15C 59.2625,14.7679 58.2625,14.2679 57.5,13.5 Z"/></g>
<g><path style="opacity:1" fill="#538ef8" d="M 18.5,13.5 C 25.175,13.3337 31.8417,13.5004 38.5,14C 38.8333,14.3333 39.1667,14.6667 39.5,15C 38.695,16.1127 38.0283,17.2794 37.5,18.5C 35.2646,18.2053 33.2646,18.5386 31.5,19.5C 30.6236,19.6309 29.9569,19.2975 29.5,18.5C 33.1097,16.2876 32.443,15.2876 27.5,15.5C 26.9965,19.3354 25.9965,19.3354 24.5,15.5C 23.2655,17.3983 23.5989,19.065 25.5,20.5C 24.9747,21.1924 24.3081,21.6924 23.5,22C 26.5019,24.1619 28.5019,26.9952 29.5,30.5C 28.1502,31.9501 26.4835,32.6168 24.5,32.5C 24.0074,34.8056 23.6741,37.139 23.5,39.5C 21.1667,39.5 18.8333,39.5 16.5,39.5C 15.9347,36.5803 14.6014,33.9137 12.5,31.5C 12.9022,27.0876 13.7355,22.7543 15,18.5C 15.2233,16.1192 16.39,14.4525 18.5,13.5 Z"/></g>
<g><path style="opacity:1" fill="#4579d5" d="M 39.5,12.5 C 59.5,12.5 79.5,12.5 99.5,12.5C 99.5,13.5 99.5,14.5 99.5,15.5C 96.6252,24.6999 93.9585,34.0332 91.5,43.5C 90.6649,42.0568 89.3316,41.0568 87.5,40.5C 88.698,40.0604 89.8647,39.727 91,39.5C 91.8184,36.7728 91.6517,34.1062 90.5,31.5C 88.2143,32.4196 85.8809,32.4196 83.5,31.5C 83.5,32.8333 83.5,34.1667 83.5,35.5C 82.5,35.5 81.5,35.5 80.5,35.5C 80.67,36.8221 80.3366,37.9887 79.5,39C 74.5111,39.4993 69.5111,39.6659 64.5,39.5C 64.7373,40.791 64.404,41.791 63.5,42.5C 62.3911,35.9569 65.0577,32.2903 71.5,31.5C 71.5,28.8333 71.5,26.1667 71.5,23.5C 72.8333,23.5 74.1667,23.5 75.5,23.5C 75.5,22.1667 75.5,20.8333 75.5,19.5C 76.8333,19.5 78.1667,19.5 79.5,19.5C 79.5,18.1667 79.5,16.8333 79.5,15.5C 82.2469,15.8134 84.9135,15.48 87.5,14.5C 77.5222,13.5015 67.5222,13.1681 57.5,13.5C 51.31,13.8229 45.31,13.4896 39.5,12.5 Z"/></g>
<g><path style="opacity:0.42" fill="#4873c1" d="M 99.5,11.5 C 99.5,11.8333 99.5,12.1667 99.5,12.5C 79.5,12.5 59.5,12.5 39.5,12.5C 32.3134,12.1755 25.3134,12.5088 18.5,13.5C 16.39,14.4525 15.2233,16.1192 15,18.5C 13.7355,22.7543 12.9022,27.0876 12.5,31.5C 11.4113,35.7306 10.2447,40.0639 9,44.5C 8.58309,45.756 7.74975,46.4226 6.5,46.5C 9.21157,36.24 11.7116,25.9067 14,15.5C 14.4652,14.0692 15.2986,12.9025 16.5,12C 44.1647,11.5 71.8313,11.3334 99.5,11.5 Z"/></g>
<g><path style="opacity:1" fill="#4375cb" d="M 52.5,31.5 C 55.9868,32.4446 57.3201,34.7779 56.5,38.5C 57.5,38.5 58.5,38.5 59.5,38.5C 59.5,39.5 59.5,40.5 59.5,41.5C 60.9587,41.4326 62.2921,41.7659 63.5,42.5C 64.404,41.791 64.7373,40.791 64.5,39.5C 69.5111,39.6659 74.5111,39.4993 79.5,39C 80.3366,37.9887 80.67,36.8221 80.5,35.5C 81.5,35.5 82.5,35.5 83.5,35.5C 83.5,34.1667 83.5,32.8333 83.5,31.5C 85.8809,32.4196 88.2143,32.4196 90.5,31.5C 91.6517,34.1062 91.8184,36.7728 91,39.5C 89.8647,39.727 88.698,40.0604 87.5,40.5C 89.3316,41.0568 90.6649,42.0568 91.5,43.5C 88.9325,42.7682 86.2658,42.7682 83.5,43.5C 83.6621,45.5273 83.4955,47.5273 83,49.5C 82.2904,50.9733 81.1238,51.6399 79.5,51.5C 79.5,52.8333 79.5,54.1667 79.5,55.5C 78.1667,55.5 76.8333,55.5 75.5,55.5C 75.5,56.8333 75.5,58.1667 75.5,59.5C 74.1667,59.5 72.8333,59.5 71.5,59.5C 71.7413,61.8863 71.0746,63.8863 69.5,65.5C 61.5417,66.4027 53.5417,66.736 45.5,66.5C 45.3505,65.448 45.5172,64.448 46,63.5C 48.7575,62.0552 50.9241,60.0552 52.5,57.5C 56.0036,56.1885 59.1702,54.1885 62,51.5C 62.6667,49.5 62.6667,47.5 62,45.5C 61.3292,44.7476 60.4959,44.4142 59.5,44.5C 57.6329,43.2402 56.2995,41.5735 55.5,39.5C 55.9844,36.2118 54.9844,33.5452 52.5,31.5 Z"/></g>
<g><path style="opacity:1" fill="#5987d0" d="M 40.5,24.5 C 42.9948,25.1989 45.3281,26.1989 47.5,27.5C 47.3838,30.9103 49.0504,32.2436 52.5,31.5C 54.9844,33.5452 55.9844,36.2118 55.5,39.5C 50.1667,34.8333 45.1667,29.8333 40.5,24.5 Z"/></g>
<g><path style="opacity:1" fill="#4e87ec" d="M 31.5,19.5 C 30.8535,21.1561 30.1869,22.8228 29.5,24.5C 30.4316,26.7655 31.7649,28.7655 33.5,30.5C 34.7536,33.0934 36.4202,35.4268 38.5,37.5C 38.5,38.5 38.5,39.5 38.5,40.5C 37.5,40.5 36.5,40.5 35.5,40.5C 35.5,41.5 35.5,42.5 35.5,43.5C 34.1667,43.5 32.8333,43.5 31.5,43.5C 31.5,44.8333 31.5,46.1667 31.5,47.5C 29.5,47.5 27.5,47.5 25.5,47.5C 25.5845,53.7186 24.5845,59.7186 22.5,65.5C 18.5936,62.5389 14.2602,62.3722 9.5,65C 12.0515,66.5158 11.7181,67.3491 8.5,67.5C 7.47734,82.5731 5.81067,82.9064 3.5,68.5C 4.46291,65.5713 5.12957,62.5713 5.5,59.5C 5.48916,57.9549 5.15583,56.6216 4.5,55.5C 5.32336,52.5394 5.99003,49.5394 6.5,46.5C 7.74975,46.4226 8.58309,45.756 9,44.5C 10.2447,40.0639 11.4113,35.7306 12.5,31.5C 14.6014,33.9137 15.9347,36.5803 16.5,39.5C 18.8333,39.5 21.1667,39.5 23.5,39.5C 23.6741,37.139 24.0074,34.8056 24.5,32.5C 26.4835,32.6168 28.1502,31.9501 29.5,30.5C 28.5019,26.9952 26.5019,24.1619 23.5,22C 24.3081,21.6924 24.9747,21.1924 25.5,20.5C 23.5989,19.065 23.2655,17.3983 24.5,15.5C 25.9965,19.3354 26.9965,19.3354 27.5,15.5C 32.443,15.2876 33.1097,16.2876 29.5,18.5C 29.9569,19.2975 30.6236,19.6309 31.5,19.5 Z"/></g>
<g><path style="opacity:1" fill="#f3f8fc" d="M 31.5,19.5 C 35.6896,19.0225 38.6896,20.6892 40.5,24.5C 45.1667,29.8333 50.1667,34.8333 55.5,39.5C 56.2995,41.5735 57.6329,43.2402 59.5,44.5C 61.2484,46.1599 61.7484,48.1599 61,50.5C 58.0042,52.7326 55.1708,55.0659 52.5,57.5C 52.1667,57.5 51.8333,57.5 51.5,57.5C 51.3398,55.8008 51.5065,54.1341 52,52.5C 52.7175,53.4506 53.5509,53.6172 54.5,53C 53.0842,50.7355 51.0842,49.5688 48.5,49.5C 48.8039,48.8501 49.1373,48.1835 49.5,47.5C 44.8493,41.1829 39.516,35.5163 33.5,30.5C 31.7649,28.7655 30.4316,26.7655 29.5,24.5C 30.1869,22.8228 30.8535,21.1561 31.5,19.5 Z"/></g>
<g><path style="opacity:1" fill="#4d83e2" d="M 38.5,37.5 C 39.29,38.6085 39.79,39.9419 40,41.5C 43.0413,42.1863 45.3746,43.853 47,46.5C 46.8567,47.8649 46.3567,49.1982 45.5,50.5C 45.1583,51.3382 44.4916,51.6716 43.5,51.5C 42.1667,51.5 40.8333,51.5 39.5,51.5C 39.5,52.5 39.5,53.5 39.5,54.5C 36.2727,55.7436 32.9394,56.9103 29.5,58C 28.6634,59.0113 28.33,60.1779 28.5,61.5C 27.1667,61.5 25.8333,61.5 24.5,61.5C 24.5,62.8333 24.5,64.1667 24.5,65.5C 22.6452,67.0331 20.8119,68.6997 19,70.5C 18.5065,72.1341 18.3398,73.8008 18.5,75.5C 18.5,76.5 18.5,77.5 18.5,78.5C 20.0261,80.13 22.0261,80.9633 24.5,81C 21.439,81.8489 18.7723,83.3489 16.5,85.5C 14.1765,84.1688 12.1765,84.5021 10.5,86.5C 7.16667,86.5 3.83333,86.5 0.5,86.5C 0.166667,86.5 -0.166667,86.5 -0.5,86.5C -0.5,82.8333 -0.5,79.1667 -0.5,75.5C 1.76709,69.0985 3.43375,62.4318 4.5,55.5C 5.15583,56.6216 5.48916,57.9549 5.5,59.5C 5.12957,62.5713 4.46291,65.5713 3.5,68.5C 5.81067,82.9064 7.47734,82.5731 8.5,67.5C 11.7181,67.3491 12.0515,66.5158 9.5,65C 14.2602,62.3722 18.5936,62.5389 22.5,65.5C 24.5845,59.7186 25.5845,53.7186 25.5,47.5C 27.5,47.5 29.5,47.5 31.5,47.5C 31.5,46.1667 31.5,44.8333 31.5,43.5C 32.8333,43.5 34.1667,43.5 35.5,43.5C 35.5,42.5 35.5,41.5 35.5,40.5C 36.5,40.5 37.5,40.5 38.5,40.5C 38.5,39.5 38.5,38.5 38.5,37.5 Z"/></g>
<g><path style="opacity:1" fill="#6289cd" d="M 33.5,30.5 C 39.516,35.5163 44.8493,41.1829 49.5,47.5C 49.1373,48.1835 48.8039,48.8501 48.5,49.5C 47.391,49.5569 46.391,49.8902 45.5,50.5C 46.3567,49.1982 46.8567,47.8649 47,46.5C 45.3746,43.853 43.0413,42.1863 40,41.5C 39.79,39.9419 39.29,38.6085 38.5,37.5C 36.4202,35.4268 34.7536,33.0934 33.5,30.5 Z"/></g>
<g><path style="opacity:1" fill="#f4f9fd" d="M 48.5,49.5 C 51.0842,49.5688 53.0842,50.7355 54.5,53C 53.5509,53.6172 52.7175,53.4506 52,52.5C 51.5065,54.1341 51.3398,55.8008 51.5,57.5C 44.795,62.5116 38.1284,67.5116 31.5,72.5C 28.6873,74.8064 25.5206,76.4731 22,77.5C 20.5657,77.1382 19.3991,76.4715 18.5,75.5C 18.3398,73.8008 18.5065,72.1341 19,70.5C 20.8119,68.6997 22.6452,67.0331 24.5,65.5C 31.4012,61.5981 37.7345,56.9315 43.5,51.5C 44.4916,51.6716 45.1583,51.3382 45.5,50.5C 46.391,49.8902 47.391,49.5569 48.5,49.5 Z"/></g>
<g><path style="opacity:1" fill="#4b70a9" d="M 59.5,44.5 C 60.4959,44.4142 61.3292,44.7476 62,45.5C 62.6667,47.5 62.6667,49.5 62,51.5C 59.1702,54.1885 56.0036,56.1885 52.5,57.5C 55.1708,55.0659 58.0042,52.7326 61,50.5C 61.7484,48.1599 61.2484,46.1599 59.5,44.5 Z"/></g>
<g><path style="opacity:1" fill="#5886d2" d="M 43.5,51.5 C 37.7345,56.9315 31.4012,61.5981 24.5,65.5C 24.5,64.1667 24.5,62.8333 24.5,61.5C 25.8333,61.5 27.1667,61.5 28.5,61.5C 28.33,60.1779 28.6634,59.0113 29.5,58C 32.9394,56.9103 36.2727,55.7436 39.5,54.5C 39.5,53.5 39.5,52.5 39.5,51.5C 40.8333,51.5 42.1667,51.5 43.5,51.5 Z"/></g>
<g><path style="opacity:1" fill="#3f6fc3" d="M 91.5,43.5 C 89.4594,54.8085 87.2928,66.1418 85,77.5C 84.7707,80.4576 83.604,82.9576 81.5,85C 67.9317,86.464 54.265,86.964 40.5,86.5C 35.3491,85.6733 30.0158,85.1733 24.5,85C 31.6255,84.3034 38.6255,83.1368 45.5,81.5C 44.2743,78.9975 43.2743,76.3308 42.5,73.5C 42.5108,71.9549 42.8442,70.6216 43.5,69.5C 43.2155,71.4147 43.5489,73.0813 44.5,74.5C 45.5,74.8333 46.1667,75.5 46.5,76.5C 53.5245,77.4638 60.6912,78.4638 68,79.5C 69.8895,79.2148 71.2229,78.2148 72,76.5C 72.4986,72.8484 72.6653,69.1817 72.5,65.5C 71.5,65.5 70.5,65.5 69.5,65.5C 71.0746,63.8863 71.7413,61.8863 71.5,59.5C 72.8333,59.5 74.1667,59.5 75.5,59.5C 75.5,58.1667 75.5,56.8333 75.5,55.5C 76.8333,55.5 78.1667,55.5 79.5,55.5C 79.5,54.1667 79.5,52.8333 79.5,51.5C 81.1238,51.6399 82.2904,50.9733 83,49.5C 83.4955,47.5273 83.6621,45.5273 83.5,43.5C 86.2658,42.7682 88.9325,42.7682 91.5,43.5 Z"/></g>
<g><path style="opacity:1" fill="#f6fdfd" d="M 68.5,75.5 C 61.4684,75.8303 54.4684,75.497 47.5,74.5C 46.6906,72.9291 46.3573,71.2624 46.5,69.5C 53.9887,68.3443 61.6554,68.1777 69.5,69C 71.0203,71.5515 70.6869,73.7182 68.5,75.5 Z"/></g>
<g><path style="opacity:1" fill="#c3dcf8" d="M 46.5,69.5 C 46.3573,71.2624 46.6906,72.9291 47.5,74.5C 54.4684,75.497 61.4684,75.8303 68.5,75.5C 61.3524,76.4916 54.0191,76.825 46.5,76.5C 46.1667,75.5 45.5,74.8333 44.5,74.5C 44.1201,72.302 44.7868,70.6354 46.5,69.5 Z"/></g>
<g><path style="opacity:1" fill="#467ad2" d="M 43.5,69.5 C 42.8442,70.6216 42.5108,71.9549 42.5,73.5C 43.2743,76.3308 44.2743,78.9975 45.5,81.5C 38.6255,83.1368 31.6255,84.3034 24.5,85C 30.0158,85.1733 35.3491,85.6733 40.5,86.5C 30.5,86.5 20.5,86.5 10.5,86.5C 12.1765,84.5021 14.1765,84.1688 16.5,85.5C 18.7723,83.3489 21.439,81.8489 24.5,81C 22.0261,80.9633 20.0261,80.13 18.5,78.5C 24.2673,79.7569 28.6006,77.7569 31.5,72.5C 34.9193,70.7616 38.4193,69.0949 42,67.5C 43.0299,67.8361 43.5299,68.5028 43.5,69.5 Z"/></g>
<g><path style="opacity:1" fill="#5277b6" d="M 51.5,57.5 C 51.8333,57.5 52.1667,57.5 52.5,57.5C 50.9241,60.0552 48.7575,62.0552 46,63.5C 45.5172,64.448 45.3505,65.448 45.5,66.5C 53.5417,66.736 61.5417,66.4027 69.5,65.5C 70.5,65.5 71.5,65.5 72.5,65.5C 72.6653,69.1817 72.4986,72.8484 72,76.5C 71.2229,78.2148 69.8895,79.2148 68,79.5C 60.6912,78.4638 53.5245,77.4638 46.5,76.5C 54.0191,76.825 61.3524,76.4916 68.5,75.5C 70.6869,73.7182 71.0203,71.5515 69.5,69C 61.6554,68.1777 53.9887,68.3443 46.5,69.5C 44.7868,70.6354 44.1201,72.302 44.5,74.5C 43.5489,73.0813 43.2155,71.4147 43.5,69.5C 43.5299,68.5028 43.0299,67.8361 42,67.5C 38.4193,69.0949 34.9193,70.7616 31.5,72.5C 38.1284,67.5116 44.795,62.5116 51.5,57.5 Z"/></g>
<g><path style="opacity:1" fill="#547ab6" d="M 31.5,72.5 C 28.6006,77.7569 24.2673,79.7569 18.5,78.5C 18.5,77.5 18.5,76.5 18.5,75.5C 19.3991,76.4715 20.5657,77.1382 22,77.5C 25.5206,76.4731 28.6873,74.8064 31.5,72.5 Z"/></g>
<g><path style="opacity:0.133" fill="#5888da" d="M 99.5,15.5 C 99.5,18.1667 99.5,20.8333 99.5,23.5C 94.3842,43.3006 89.5509,63.3006 85,83.5C 84.044,84.5786 83.2106,85.7453 82.5,87C 54.9969,87.8303 27.6636,87.6636 0.5,86.5C 3.83333,86.5 7.16667,86.5 10.5,86.5C 20.5,86.5 30.5,86.5 40.5,86.5C 54.265,86.964 67.9317,86.464 81.5,85C 83.604,82.9576 84.7707,80.4576 85,77.5C 87.2928,66.1418 89.4594,54.8085 91.5,43.5C 93.9585,34.0332 96.6252,24.6999 99.5,15.5 Z"/></g>
</svg>
