<?xml version="1.0" encoding="UTF-8"?>
<!DOCTYPE svg PUBLIC "-//W3C//DTD SVG 1.1//EN" "http://www.w3.org/Graphics/SVG/1.1/DTD/svg11.dtd">
<svg xmlns="http://www.w3.org/2000/svg" version="1.1" width="100px" height="100px" style="shape-rendering:geometricPrecision; text-rendering:geometricPrecision; image-rendering:optimizeQuality; fill-rule:evenodd; clip-rule:evenodd" xmlns:xlink="http://www.w3.org/1999/xlink">
<g><path style="opacity:1" fill="#2bd08e" d="M 38.5,-0.5 C 40.8333,-0.5 43.1667,-0.5 45.5,-0.5C 50.1667,3.16667 54.8333,6.83333 59.5,10.5C 58.4566,13.0562 56.7899,15.2228 54.5,17C 55.056,17.3826 55.3893,17.8826 55.5,18.5C 43.1667,18.5 30.8333,18.5 18.5,18.5C 18.6107,17.8826 18.944,17.3826 19.5,17C 26.208,16.7114 32.8747,16.0448 39.5,15C 40.2113,12.2037 40.878,9.37035 41.5,6.5C 39.9627,3.89465 37.6294,2.56131 34.5,2.5C 35.8333,1.5 37.1667,0.5 38.5,-0.5 Z"/></g>
<g><path style="opacity:1" fill="#9dde74" d="M 71.5,-0.5 C 72.5,-0.5 73.5,-0.5 74.5,-0.5C 75.5002,5.50109 76.5002,11.5011 77.5,17.5C 77.5,18.1667 77.1667,18.5 76.5,18.5C 69.5,18.5 62.5,18.5 55.5,18.5C 55.3893,17.8826 55.056,17.3826 54.5,17C 56.7899,15.2228 58.4566,13.0562 59.5,10.5C 64.1256,7.5422 68.1256,3.87553 71.5,-0.5 Z"/></g>
<g><path style="opacity:0.985" fill="#24d489" d="M 34.5,2.5 C 37.6294,2.56131 39.9627,3.89465 41.5,6.5C 40.878,9.37035 40.2113,12.2037 39.5,15C 32.8747,16.0448 26.208,16.7114 19.5,17C 18.944,17.3826 18.6107,17.8826 18.5,18.5C 18.5,29.8333 18.5,41.1667 18.5,52.5C 18.1667,52.5 17.8333,52.5 17.5,52.5C 17.3605,50.663 16.6939,50.3296 15.5,51.5C 14.846,53.1151 14.346,54.7818 14,56.5C 10.8512,58.9755 8.35122,61.9755 6.5,65.5C 4.25731,66.4742 1.92397,66.8076 -0.5,66.5C -0.5,65.5 -0.5,64.5 -0.5,63.5C 2.21828,47.4064 4.05162,31.0731 5,14.5C 14.5257,9.82307 24.359,5.82307 34.5,2.5 Z"/></g>
<g><path style="opacity:0.996" fill="#050606" d="M 77.5,17.5 C 78.8333,17.5 80.1667,17.5 81.5,17.5C 81.5,19.8333 81.5,22.1667 81.5,24.5C 80.5098,30.6446 80.1765,36.9779 80.5,43.5C 80.5,43.8333 80.5,44.1667 80.5,44.5C 79.5051,55.988 79.1717,67.6547 79.5,79.5C 62.8333,79.5 46.1667,79.5 29.5,79.5C 26.1667,79.5 22.8333,79.5 19.5,79.5C 19.5,59.5 19.5,39.5 19.5,19.5C 38.674,19.8303 57.674,19.497 76.5,18.5C 77.1667,18.5 77.5,18.1667 77.5,17.5 Z"/></g>
<g><path style="opacity:1" fill="#0d451f" d="M 18.5,18.5 C 30.8333,18.5 43.1667,18.5 55.5,18.5C 62.5,18.5 69.5,18.5 76.5,18.5C 57.674,19.497 38.674,19.8303 19.5,19.5C 19.5,39.5 19.5,59.5 19.5,79.5C 22.8333,79.5 26.1667,79.5 29.5,79.5C 29.5,79.8333 29.5,80.1667 29.5,80.5C 25.6286,80.815 21.9619,80.4816 18.5,79.5C 18.5,70.5 18.5,61.5 18.5,52.5C 18.5,41.1667 18.5,29.8333 18.5,18.5 Z"/></g>
<g><path style="opacity:1" fill="#f2f3f2" d="M 24.5,26.5 C 28.8461,26.3343 33.1794,26.501 37.5,27C 43.9952,28.8456 46.1619,33.0122 44,39.5C 40.263,43.9927 35.4297,45.6594 29.5,44.5C 29.5,47.1667 29.5,49.8333 29.5,52.5C 27.8333,52.5 26.1667,52.5 24.5,52.5C 24.5,43.8333 24.5,35.1667 24.5,26.5 Z"/></g>
<g><path style="opacity:1" fill="#ececeb" d="M 54.5,26.5 C 58.1817,26.3347 61.8484,26.5014 65.5,27C 70.3765,28.9142 70.7098,31.4142 66.5,34.5C 61.179,30.0661 56.679,30.7328 53,36.5C 52.7886,47.4802 57.2886,50.1468 66.5,44.5C 70.7327,47.9954 70.066,50.4954 64.5,52C 51.8983,53.7325 46.0649,48.2325 47,35.5C 48.6416,31.6997 51.1416,28.6997 54.5,26.5 Z"/></g>
<g><path style="opacity:1" fill="#6a6b6a" d="M 36.5,32.5 C 34.5,32.5 32.5,32.5 30.5,32.5C 30.5,34.8333 30.5,37.1667 30.5,39.5C 29.5269,37.0521 29.1936,34.3854 29.5,31.5C 32.0593,31.1984 34.3926,31.5318 36.5,32.5 Z"/></g>
<g><path style="opacity:1" fill="#050505" d="M 36.5,32.5 C 39.1339,34.54 39.1339,36.7067 36.5,39C 34.5273,39.4955 32.5273,39.6621 30.5,39.5C 30.5,37.1667 30.5,34.8333 30.5,32.5C 32.5,32.5 34.5,32.5 36.5,32.5 Z"/></g>
<g><path style="opacity:1" fill="#10c2ec" d="M 85.5,28.5 C 90.4269,31.4203 95.0935,34.7536 99.5,38.5C 99.5,39.5 99.5,40.5 99.5,41.5C 96.6091,45.4818 94.2757,49.8152 92.5,54.5C 90.8827,49.084 90.216,43.4173 90.5,37.5C 89.5,37.5 88.5,37.5 87.5,37.5C 87.4422,34.3356 86.7755,31.3356 85.5,28.5 Z"/></g>
<g><path style="opacity:1" fill="#2ec1ca" d="M 81.5,24.5 C 83.7727,24.9568 85.106,26.2901 85.5,28.5C 86.7755,31.3356 87.4422,34.3356 87.5,37.5C 88.5,37.5 89.5,37.5 90.5,37.5C 90.216,43.4173 90.8827,49.084 92.5,54.5C 92.5,55.1667 92.1667,55.5 91.5,55.5C 90.0937,55.0269 89.427,54.0269 89.5,52.5C 90.5778,44.8409 87.5778,41.8409 80.5,43.5C 80.1765,36.9779 80.5098,30.6446 81.5,24.5 Z"/></g>
<g><path style="opacity:1" fill="#b0ef95" d="M 89.5,52.5 C 88.8419,50.3609 87.8419,48.3609 86.5,46.5C 85.0121,44.1546 83.0121,43.8212 80.5,45.5C 80.5,45.1667 80.5,44.8333 80.5,44.5C 80.5,44.1667 80.5,43.8333 80.5,43.5C 87.5778,41.8409 90.5778,44.8409 89.5,52.5 Z"/></g>
<g><path style="opacity:1" fill="#444702" d="M 80.5,44.5 C 80.5,44.8333 80.5,45.1667 80.5,45.5C 80.5,56.8333 80.5,68.1667 80.5,79.5C 80.5,80.1667 80.1667,80.5 79.5,80.5C 62.8333,80.5 46.1667,80.5 29.5,80.5C 29.5,80.1667 29.5,79.8333 29.5,79.5C 46.1667,79.5 62.8333,79.5 79.5,79.5C 79.1717,67.6547 79.5051,55.988 80.5,44.5 Z"/></g>
<g><path style="opacity:1" fill="#eeeb62" d="M 86.5,46.5 C 85.2921,45.7659 83.9587,45.4326 82.5,45.5C 83.1444,57.216 82.4777,68.5493 80.5,79.5C 80.5,68.1667 80.5,56.8333 80.5,45.5C 83.0121,43.8212 85.0121,44.1546 86.5,46.5 Z"/></g>
<g><path style="opacity:0.977" fill="#fbf84d" d="M 86.5,46.5 C 87.8419,48.3609 88.8419,50.3609 89.5,52.5C 89.427,54.0269 90.0937,55.0269 91.5,55.5C 93.853,64.6808 96.5197,73.6808 99.5,82.5C 99.5,84.8333 99.5,87.1667 99.5,89.5C 90.6845,92.6571 82.0178,95.9904 73.5,99.5C 73.1667,99.5 72.8333,99.5 72.5,99.5C 71.1922,94.6662 71.1922,89.8328 72.5,85C 71.8333,84.6667 71.1667,84.3333 70.5,84C 73.5,82.9261 76.5,82.0928 79.5,81.5C 79.5,81.1667 79.5,80.8333 79.5,80.5C 80.1667,80.5 80.5,80.1667 80.5,79.5C 82.4777,68.5493 83.1444,57.216 82.5,45.5C 83.9587,45.4326 85.2921,45.7659 86.5,46.5 Z"/></g>
<g><path style="opacity:1" fill="#75ce82" d="M 17.5,52.5 C 17.8333,52.5 18.1667,52.5 18.5,52.5C 18.5,61.5 18.5,70.5 18.5,79.5C 17.1745,75.5549 16.5079,71.2216 16.5,66.5C 16.5268,61.7534 16.8601,57.0868 17.5,52.5 Z"/></g>
<g><path style="opacity:1" fill="#e4e4e4" d="M 24.5,68.5 C 32.1667,68.5 39.8333,68.5 47.5,68.5C 47.5,69.8333 47.5,71.1667 47.5,72.5C 39.8333,72.5 32.1667,72.5 24.5,72.5C 24.5,71.1667 24.5,69.8333 24.5,68.5 Z"/></g>
<g><path style="opacity:1" fill="#edf551" d="M 79.5,81.5 C 76.5,82.0928 73.5,82.9261 70.5,84C 71.1667,84.3333 71.8333,84.6667 72.5,85C 71.1922,89.8328 71.1922,94.6662 72.5,99.5C 69.5,99.5 66.5,99.5 63.5,99.5C 57.8533,96.6591 51.8533,94.6591 45.5,93.5C 47.22,90.1108 47.8866,86.4441 47.5,82.5C 58.1482,81.723 68.8149,81.3897 79.5,81.5 Z"/></g>
<g><path style="opacity:1" fill="#c8e667" d="M 29.5,80.5 C 46.1667,80.5 62.8333,80.5 79.5,80.5C 79.5,80.8333 79.5,81.1667 79.5,81.5C 68.8149,81.3897 58.1482,81.723 47.5,82.5C 47.8866,86.4441 47.22,90.1108 45.5,93.5C 43.8828,92.962 42.2161,92.6287 40.5,92.5C 40.4226,91.2502 39.756,90.4169 38.5,90C 35.5682,88.8551 32.5682,88.0218 29.5,87.5C 29.5,85.1667 29.5,82.8333 29.5,80.5 Z"/></g>
<g><path style="opacity:0.99" fill="#45d981" d="M 17.5,52.5 C 16.8601,57.0868 16.5268,61.7534 16.5,66.5C 16.5079,71.2216 17.1745,75.5549 18.5,79.5C 21.9619,80.4816 25.6286,80.815 29.5,80.5C 29.5,82.8333 29.5,85.1667 29.5,87.5C 32.5682,88.0218 35.5682,88.8551 38.5,90C 39.756,90.4169 40.4226,91.2502 40.5,92.5C 38.5879,94.6572 36.9213,96.9906 35.5,99.5C 33.8333,99.5 32.1667,99.5 30.5,99.5C 30.0472,98.5416 29.3805,97.7083 28.5,97C 19.0204,91.3512 9.35374,86.1845 -0.5,81.5C -0.5,76.5 -0.5,71.5 -0.5,66.5C 1.92397,66.8076 4.25731,66.4742 6.5,65.5C 8.35122,61.9755 10.8512,58.9755 14,56.5C 14.346,54.7818 14.846,53.1151 15.5,51.5C 16.6939,50.3296 17.3605,50.663 17.5,52.5 Z"/></g>
</svg>
