<?xml version="1.0" encoding="UTF-8"?>
<!DOCTYPE svg PUBLIC "-//W3C//DTD SVG 1.1//EN" "http://www.w3.org/Graphics/SVG/1.1/DTD/svg11.dtd">
<svg xmlns="http://www.w3.org/2000/svg" version="1.1" width="100px" height="100px" style="shape-rendering:geometricPrecision; text-rendering:geometricPrecision; image-rendering:optimizeQuality; fill-rule:evenodd; clip-rule:evenodd" xmlns:xlink="http://www.w3.org/1999/xlink">
<g><path style="opacity:0.941" fill="#4180b1" d="M 47.5,-0.5 C 50.1667,-0.5 52.8333,-0.5 55.5,-0.5C 55.5,2.16667 55.5,4.83333 55.5,7.5C 54.1667,7.5 52.8333,7.5 51.5,7.5C 51.5,8.83333 51.5,10.1667 51.5,11.5C 50.1667,11.5 48.8333,11.5 47.5,11.5C 47.5,12.8333 47.5,14.1667 47.5,15.5C 46.1667,15.5 44.8333,15.5 43.5,15.5C 44.1189,20.2065 42.1189,22.8732 37.5,23.5C 36.8333,26.1667 36.1667,28.8333 35.5,31.5C 32.8333,31.5 30.1667,31.5 27.5,31.5C 27.5,34.1667 27.5,36.8333 27.5,39.5C 26.1667,39.5 24.8333,39.5 23.5,39.5C 23.5,41.1667 23.5,42.8333 23.5,44.5C 22.1667,44.5 20.8333,44.5 19.5,44.5C 19.6621,46.5273 19.4955,48.5273 19,50.5C 16.8282,51.5089 15.6615,53.1756 15.5,55.5C 10.164,54.1845 7.49736,56.1845 7.5,61.5C 4.92423,61.4679 2.5909,62.1346 0.5,63.5C 0.737305,62.209 0.403972,61.209 -0.5,60.5C -0.5,58.8333 -0.5,57.1667 -0.5,55.5C 3.6061,53.5565 6.6061,50.3898 8.5,46C 10.7619,45.3581 12.9285,44.5248 15,43.5C 15.4974,40.854 15.6641,38.1873 15.5,35.5C 16.8333,35.5 18.1667,35.5 19.5,35.5C 19.5,34.1667 19.5,32.8333 19.5,31.5C 21.1667,31.5 22.8333,31.5 24.5,31.5C 24.5,30.5 24.5,29.5 24.5,28.5C 26.7373,27.551 29.0706,26.8844 31.5,26.5C 31.5,25.5 31.5,24.5 31.5,23.5C 36.8333,23.1667 36.8333,22.8333 31.5,22.5C 31.5,21.5 31.5,20.5 31.5,19.5C 32.8333,19.5 34.1667,19.5 35.5,19.5C 35.5,17.8333 35.5,16.1667 35.5,14.5C 36.1667,14.5 36.8333,14.5 37.5,14.5C 39.3435,12.7211 40.0102,10.3878 39.5,7.5C 40.8333,7.5 42.1667,7.5 43.5,7.5C 43.5,6.16667 43.5,4.83333 43.5,3.5C 44.8333,3.5 46.1667,3.5 47.5,3.5C 47.5,2.16667 47.5,0.833333 47.5,-0.5 Z"/></g>
<g><path style="opacity:0.867" fill="#4887b8" d="M 33.5,-0.5 C 38.1667,-0.5 42.8333,-0.5 47.5,-0.5C 47.5,0.833333 47.5,2.16667 47.5,3.5C 46.1667,3.5 44.8333,3.5 43.5,3.5C 43.5,4.83333 43.5,6.16667 43.5,7.5C 42.1667,7.5 40.8333,7.5 39.5,7.5C 40.0102,10.3878 39.3435,12.7211 37.5,14.5C 39.1693,11.5114 38.5026,9.17811 35.5,7.5C 31.5187,9.87337 31.5187,12.2067 35.5,14.5C 35.5,16.1667 35.5,17.8333 35.5,19.5C 34.1667,19.5 32.8333,19.5 31.5,19.5C 31.5,20.5 31.5,21.5 31.5,22.5C 36.8333,22.8333 36.8333,23.1667 31.5,23.5C 31.5,24.5 31.5,25.5 31.5,26.5C 29.0706,26.8844 26.7373,27.551 24.5,28.5C 24.5,29.5 24.5,30.5 24.5,31.5C 22.8333,31.5 21.1667,31.5 19.5,31.5C 19.5,32.8333 19.5,34.1667 19.5,35.5C 18.1667,35.5 16.8333,35.5 15.5,35.5C 15.6641,38.1873 15.4974,40.854 15,43.5C 12.9285,44.5248 10.7619,45.3581 8.5,46C 6.6061,50.3898 3.6061,53.5565 -0.5,55.5C -0.5,49.1667 -0.5,42.8333 -0.5,36.5C 3.95874,25.523 12.2921,20.8563 24.5,22.5C 20.7412,11.8657 23.7412,4.19908 33.5,-0.5 Z M 37.5,14.5 C 36.8333,14.5 36.1667,14.5 35.5,14.5C 31.5187,12.2067 31.5187,9.87337 35.5,7.5C 38.5026,9.17811 39.1693,11.5114 37.5,14.5 Z"/></g>
<g><path style="opacity:0.799" fill="#3c7aaa" d="M 55.5,-0.5 C 58.1667,-0.5 60.8333,-0.5 63.5,-0.5C 65.8102,0.324982 67.8102,1.65832 69.5,3.5C 67.6558,4.20389 67.1558,5.53722 68,7.5C 68.3333,6.5 68.6667,5.5 69,4.5C 69.3095,5.76591 69.8095,6.93257 70.5,8C 67.3963,10.8539 63.7296,12.0205 59.5,11.5C 59.5,12.8333 59.5,14.1667 59.5,15.5C 56.8333,15.5 54.1667,15.5 51.5,15.5C 52.3829,20.2258 51.2162,24.2258 48,27.5C 47.51,28.7932 47.3433,30.1266 47.5,31.5C 44.8333,31.5 42.1667,31.5 39.5,31.5C 39.5,34.1667 39.5,36.8333 39.5,39.5C 38.1667,39.5 36.8333,39.5 35.5,39.5C 35.5,41.5 35.5,43.5 35.5,45.5C 32.2862,46.3876 29.2862,47.721 26.5,49.5C 26.5,50.5 26.5,51.5 26.5,52.5C 20.6863,52.6491 18.0197,55.6491 18.5,61.5C 16.1667,61.5 13.8333,61.5 11.5,61.5C 11.665,64.8499 11.4983,68.1832 11,71.5C 9.84098,70.434 9.00764,70.7673 8.5,72.5C 4.69733,70.5965 2.03067,67.5965 0.5,63.5C 2.5909,62.1346 4.92423,61.4679 7.5,61.5C 7.49736,56.1845 10.164,54.1845 15.5,55.5C 15.6615,53.1756 16.8282,51.5089 19,50.5C 19.4955,48.5273 19.6621,46.5273 19.5,44.5C 20.8333,44.5 22.1667,44.5 23.5,44.5C 23.5,42.8333 23.5,41.1667 23.5,39.5C 24.8333,39.5 26.1667,39.5 27.5,39.5C 27.5,36.8333 27.5,34.1667 27.5,31.5C 30.1667,31.5 32.8333,31.5 35.5,31.5C 36.1667,28.8333 36.8333,26.1667 37.5,23.5C 42.1189,22.8732 44.1189,20.2065 43.5,15.5C 44.8333,15.5 46.1667,15.5 47.5,15.5C 47.5,14.1667 47.5,12.8333 47.5,11.5C 48.8333,11.5 50.1667,11.5 51.5,11.5C 51.5,10.1667 51.5,8.83333 51.5,7.5C 52.8333,7.5 54.1667,7.5 55.5,7.5C 55.5,4.83333 55.5,2.16667 55.5,-0.5 Z"/></g>
<g><path style="opacity:1" fill="#38709e" d="M 69.5,3.5 C 71.1361,4.74894 72.3028,6.4156 73,8.5C 73.4998,17.8274 73.6665,27.1607 73.5,36.5C 73.5,37.5 73.5,38.5 73.5,39.5C 72.8333,39.5 72.5,39.8333 72.5,40.5C 72.5,40.8333 72.5,41.1667 72.5,41.5C 60.6376,45.7537 48.3043,47.587 35.5,47C 34.944,47.3826 34.6107,47.8826 34.5,48.5C 33.8333,48.5 33.5,48.8333 33.5,49.5C 31.5659,50.1103 29.8993,51.1103 28.5,52.5C 27.5116,53.795 26.5116,55.1283 25.5,56.5C 24.8333,56.5 24.5,56.8333 24.5,57.5C 23.6618,57.8417 23.3284,58.5084 23.5,59.5C 23.5,64.5 23.5,69.5 23.5,74.5C 19.1539,74.6657 14.8206,74.499 10.5,74C 9.5842,73.7216 8.91753,73.2216 8.5,72.5C 9.00764,70.7673 9.84098,70.434 11,71.5C 11.4983,68.1832 11.665,64.8499 11.5,61.5C 13.8333,61.5 16.1667,61.5 18.5,61.5C 18.0197,55.6491 20.6863,52.6491 26.5,52.5C 26.5,51.5 26.5,50.5 26.5,49.5C 29.2862,47.721 32.2862,46.3876 35.5,45.5C 35.5,43.5 35.5,41.5 35.5,39.5C 36.8333,39.5 38.1667,39.5 39.5,39.5C 39.5,36.8333 39.5,34.1667 39.5,31.5C 42.1667,31.5 44.8333,31.5 47.5,31.5C 47.3433,30.1266 47.51,28.7932 48,27.5C 51.2162,24.2258 52.3829,20.2258 51.5,15.5C 54.1667,15.5 56.8333,15.5 59.5,15.5C 59.5,14.1667 59.5,12.8333 59.5,11.5C 63.7296,12.0205 67.3963,10.8539 70.5,8C 69.8095,6.93257 69.3095,5.76591 69,4.5C 68.6667,5.5 68.3333,6.5 68,7.5C 67.1558,5.53722 67.6558,4.20389 69.5,3.5 Z"/></g>
<g><path style="opacity:0.953" fill="#fce76c" d="M 98.5,39.5 C 97.3249,38.0262 96.3249,36.3596 95.5,34.5C 90.2455,35.9768 84.9122,37.1434 79.5,38C 77.9963,39.4907 77.1629,41.324 77,43.5C 76.1841,44.8228 75.0174,45.4894 73.5,45.5C 74.4025,42.6085 74.7359,39.6085 74.5,36.5C 74.203,32.2325 74.5363,28.0659 75.5,24C 88.9663,20.6403 96.6329,25.807 98.5,39.5 Z"/></g>
<g><path style="opacity:0.902" fill="#f1e387" d="M 73.5,36.5 C 73.8333,36.5 74.1667,36.5 74.5,36.5C 74.7359,39.6085 74.4025,42.6085 73.5,45.5C 72.5,45.8333 71.8333,46.5 71.5,47.5C 70.1667,47.5 68.8333,47.5 67.5,47.5C 67.5,47.1667 67.5,46.8333 67.5,46.5C 69.5,45.1667 71.1667,43.5 72.5,41.5C 72.5,41.1667 72.5,40.8333 72.5,40.5C 73.1667,40.5 73.5,40.1667 73.5,39.5C 73.5,38.5 73.5,37.5 73.5,36.5 Z"/></g>
<g><path style="opacity:1" fill="#fee05b" d="M 98.5,39.5 C 98.3284,40.4916 98.6618,41.1583 99.5,41.5C 99.5,41.8333 99.5,42.1667 99.5,42.5C 98.5041,42.5858 97.6708,42.2524 97,41.5C 96.6667,42.1667 96.3333,42.8333 96,43.5C 95.4806,42.4844 94.6473,41.8178 93.5,41.5C 91.5,42.5 89.5,43.5 87.5,44.5C 86.6906,46.0709 86.3573,47.7376 86.5,49.5C 83.0137,50.9525 79.347,51.6192 75.5,51.5C 75.5,52.5 75.5,53.5 75.5,54.5C 74.0222,54.238 72.6888,54.5713 71.5,55.5C 70.621,59.1619 68.9543,62.3285 66.5,65C 62.6131,65.2389 58.9464,66.0723 55.5,67.5C 55.3505,66.448 55.5172,65.448 56,64.5C 58.2016,63.5984 60.3683,62.5984 62.5,61.5C 63.3484,57.8492 65.1817,54.8492 68,52.5C 69.0113,51.6634 70.1779,51.33 71.5,51.5C 71.5,50.1667 71.5,48.8333 71.5,47.5C 71.8333,46.5 72.5,45.8333 73.5,45.5C 75.0174,45.4894 76.1841,44.8228 77,43.5C 77.1629,41.324 77.9963,39.4907 79.5,38C 84.9122,37.1434 90.2455,35.9768 95.5,34.5C 96.3249,36.3596 97.3249,38.0262 98.5,39.5 Z"/></g>
<g><path style="opacity:0.951" fill="#fddc50" d="M 99.5,42.5 C 99.5,45.5 99.5,48.5 99.5,51.5C 94.2721,51.3565 89.6055,52.6898 85.5,55.5C 83.8653,56.0463 82.1986,56.3796 80.5,56.5C 79.7517,58.5841 79.7517,60.5841 80.5,62.5C 80.0233,63.4776 79.3567,64.3109 78.5,65C 73.6074,66.3052 69.274,68.6386 65.5,72C 62.2432,73.0429 58.9099,73.5429 55.5,73.5C 55.5,75.5 55.5,77.5 55.5,79.5C 49.9284,80.0426 44.5951,81.376 39.5,83.5C 39.67,84.8221 39.3366,85.9887 38.5,87C 35.5628,87.1001 32.8961,87.9334 30.5,89.5C 30.1667,90.1667 29.8333,90.8333 29.5,91.5C 30.2255,92.8669 30.8921,94.2003 31.5,95.5C 29.9731,95.573 28.9731,94.9063 28.5,93.5C 28.6399,91.8762 27.9733,90.7096 26.5,90C 27.3366,88.9887 27.67,87.8221 27.5,86.5C 28.8333,86.5 30.1667,86.5 31.5,86.5C 31.5,85.5 31.5,84.5 31.5,83.5C 33.8568,83.6633 36.1902,83.4966 38.5,83C 40.164,79.8638 42.8307,78.6971 46.5,79.5C 46.3573,77.7376 46.6906,76.0709 47.5,74.5C 49.7427,73.5258 52.076,73.1924 54.5,73.5C 54.8333,71.5 55.1667,69.5 55.5,67.5C 58.9464,66.0723 62.6131,65.2389 66.5,65C 68.9543,62.3285 70.621,59.1619 71.5,55.5C 72.6888,54.5713 74.0222,54.238 75.5,54.5C 75.5,53.5 75.5,52.5 75.5,51.5C 79.347,51.6192 83.0137,50.9525 86.5,49.5C 86.3573,47.7376 86.6906,46.0709 87.5,44.5C 89.5,43.5 91.5,42.5 93.5,41.5C 94.6473,41.8178 95.4806,42.4844 96,43.5C 96.3333,42.8333 96.6667,42.1667 97,41.5C 97.6708,42.2524 98.5041,42.5858 99.5,42.5 Z"/></g>
<g><path style="opacity:0.765" fill="#386c88" d="M 72.5,41.5 C 71.1667,43.5 69.5,45.1667 67.5,46.5C 57.0035,46.9756 46.6701,47.6422 36.5,48.5C 35.8333,48.5 35.1667,48.5 34.5,48.5C 34.6107,47.8826 34.944,47.3826 35.5,47C 48.3043,47.587 60.6376,45.7537 72.5,41.5 Z"/></g>
<g><path style="opacity:0.031" fill="#436865" d="M 67.5,46.5 C 67.5,46.8333 67.5,47.1667 67.5,47.5C 66.5,47.5 65.5,47.5 64.5,47.5C 63.5084,47.3284 62.8417,47.6618 62.5,48.5C 62.1667,48.5 61.8333,48.5 61.5,48.5C 53.1667,48.5 44.8333,48.5 36.5,48.5C 46.6701,47.6422 57.0035,46.9756 67.5,46.5 Z"/></g>
<g><path style="opacity:0.984" fill="#fee262" d="M 64.5,47.5 C 65.5,47.5 66.5,47.5 67.5,47.5C 68.8333,47.5 70.1667,47.5 71.5,47.5C 71.5,48.8333 71.5,50.1667 71.5,51.5C 70.1779,51.33 69.0113,51.6634 68,52.5C 65.1817,54.8492 63.3484,57.8492 62.5,61.5C 60.3683,62.5984 58.2016,63.5984 56,64.5C 55.5172,65.448 55.3505,66.448 55.5,67.5C 55.1667,69.5 54.8333,71.5 54.5,73.5C 52.076,73.1924 49.7427,73.5258 47.5,74.5C 46.6906,76.0709 46.3573,77.7376 46.5,79.5C 42.8307,78.6971 40.164,79.8638 38.5,83C 36.1902,83.4966 33.8568,83.6633 31.5,83.5C 31.5,84.5 31.5,85.5 31.5,86.5C 30.1667,86.5 28.8333,86.5 27.5,86.5C 27.67,87.8221 27.3366,88.9887 26.5,90C 27.9733,90.7096 28.6399,91.8762 28.5,93.5C 26.1782,92.1979 24.8449,90.1979 24.5,87.5C 24.3345,83.4862 24.5012,79.4862 25,75.5C 27.5739,76.2965 29.7406,75.4632 31.5,73C 30.8333,72.6667 30.1667,72.3333 29.5,72C 31.0368,70.8904 31.7035,69.3904 31.5,67.5C 32.8333,67.5 34.1667,67.5 35.5,67.5C 35.5,66.1667 35.5,64.8333 35.5,63.5C 38.1667,63.5 40.8333,63.5 43.5,63.5C 43.1924,61.076 43.5258,58.7427 44.5,56.5C 50.683,55.2311 56.683,53.3977 62.5,51C 63.2524,50.3292 63.5858,49.4959 63.5,48.5C 64.1667,48.5 64.5,48.1667 64.5,47.5 Z"/></g>
<g><path style="opacity:0.369" fill="#e5e8a2" d="M 34.5,48.5 C 35.1667,48.5 35.8333,48.5 36.5,48.5C 44.8333,48.5 53.1667,48.5 61.5,48.5C 50.7698,50.0114 39.7698,51.3448 28.5,52.5C 29.8993,51.1103 31.5659,50.1103 33.5,49.5C 34.1667,49.5 34.5,49.1667 34.5,48.5 Z"/></g>
<g><path style="opacity:0.999" fill="#fce977" d="M 61.5,48.5 C 61.8333,48.5 62.1667,48.5 62.5,48.5C 62.8333,48.5 63.1667,48.5 63.5,48.5C 63.5858,49.4959 63.2524,50.3292 62.5,51C 56.683,53.3977 50.683,55.2311 44.5,56.5C 43.5258,58.7427 43.1924,61.076 43.5,63.5C 40.8333,63.5 38.1667,63.5 35.5,63.5C 35.5,64.8333 35.5,66.1667 35.5,67.5C 34.1667,67.5 32.8333,67.5 31.5,67.5C 31.7035,69.3904 31.0368,70.8904 29.5,72C 30.1667,72.3333 30.8333,72.6667 31.5,73C 29.7406,75.4632 27.5739,76.2965 25,75.5C 24.5012,79.4862 24.3345,83.4862 24.5,87.5C 23.5151,83.3656 23.1818,79.0323 23.5,74.5C 23.5,69.5 23.5,64.5 23.5,59.5C 24.3382,59.1583 24.6716,58.4916 24.5,57.5C 25.1667,57.5 25.5,57.1667 25.5,56.5C 26.5116,55.1283 27.5116,53.795 28.5,52.5C 39.7698,51.3448 50.7698,50.0114 61.5,48.5 Z"/></g>
<g><path style="opacity:0.753" fill="#fdd744" d="M 99.5,51.5 C 99.5,53.5 99.5,55.5 99.5,57.5C 97.6907,63.2756 94.6907,68.4423 90.5,73C 84.9284,74.3507 79.2617,74.8507 73.5,74.5C 74.0814,81.0614 73.248,87.3947 71,93.5C 65.2313,97.1559 59.0646,99.1559 52.5,99.5C 50.1667,99.5 47.8333,99.5 45.5,99.5C 42.6946,98.6805 39.6946,98.1805 36.5,98C 34.5087,97.6264 32.842,96.793 31.5,95.5C 30.8921,94.2003 30.2255,92.8669 29.5,91.5C 29.8333,90.8333 30.1667,90.1667 30.5,89.5C 32.8961,87.9334 35.5628,87.1001 38.5,87C 39.3366,85.9887 39.67,84.8221 39.5,83.5C 44.5951,81.376 49.9284,80.0426 55.5,79.5C 55.5,77.5 55.5,75.5 55.5,73.5C 58.9099,73.5429 62.2432,73.0429 65.5,72C 69.274,68.6386 73.6074,66.3052 78.5,65C 79.3567,64.3109 80.0233,63.4776 80.5,62.5C 79.7517,60.5841 79.7517,58.5841 80.5,56.5C 82.1986,56.3796 83.8653,56.0463 85.5,55.5C 89.6055,52.6898 94.2721,51.3565 99.5,51.5 Z M 60.5,83.5 C 66.5776,84.2587 67.0776,86.592 62,90.5C 59.629,88.4673 59.129,86.1339 60.5,83.5 Z"/></g>
</svg>
