<?xml version="1.0" encoding="UTF-8"?>
<!DOCTYPE svg PUBLIC "-//W3C//DTD SVG 1.1//EN" "http://www.w3.org/Graphics/SVG/1.1/DTD/svg11.dtd">
<svg xmlns="http://www.w3.org/2000/svg" version="1.1" width="100px" height="100px" style="shape-rendering:geometricPrecision; text-rendering:geometricPrecision; image-rendering:optimizeQuality; fill-rule:evenodd; clip-rule:evenodd" xmlns:xlink="http://www.w3.org/1999/xlink">
<g><path style="opacity:0.984" fill="#e94e2e" d="M 47.5,-0.5 C 48.1667,-0.5 48.8333,-0.5 49.5,-0.5C 49.6659,4.51108 49.4993,9.51108 49,14.5C 48.2917,15.3805 47.4584,16.0472 46.5,16.5C 42.1667,16.8333 39.8333,19.1667 39.5,23.5C 37.1119,22.9173 34.7786,22.584 32.5,22.5C 30.9436,23.5471 29.2769,24.2137 27.5,24.5C 27.5,23.1667 27.5,21.8333 27.5,20.5C 34.1667,13.5 40.8333,6.5 47.5,-0.5 Z"/></g>
<g><path style="opacity:0.996" fill="#df5234" d="M 46.5,16.5 C 44.5,19.1667 42.1667,21.5 39.5,23.5C 39.8333,19.1667 42.1667,16.8333 46.5,16.5 Z"/></g>
<g><path style="opacity:0.968" fill="#e84e2d" d="M 27.5,20.5 C 27.5,21.8333 27.5,23.1667 27.5,24.5C 29.2769,24.2137 30.9436,23.5471 32.5,22.5C 34.7786,22.584 37.1119,22.9173 39.5,23.5C 39.5,24.1667 39.1667,24.5 38.5,24.5C 34.5,24.5 32.5,26.5 32.5,30.5C 28.4283,34.565 24.7617,38.8983 21.5,43.5C 21.5,42.1667 20.8333,41.5 19.5,41.5C 20.0322,38.7518 21.0322,36.7518 22.5,35.5C 23.8333,35.5 25.1667,35.5 26.5,35.5C 26.3067,32.6915 25.64,30.0248 24.5,27.5C 23.1667,27.5 21.8333,27.5 20.5,27.5C 22.5,24.8333 24.8333,22.5 27.5,20.5 Z"/></g>
<g><path style="opacity:1" fill="#e75031" d="M 61.5,15.5 C 67.2787,15.1117 69.7787,17.7783 69,23.5C 65.9147,28.5084 62.2481,28.8417 58,24.5C 56.6649,20.3919 57.8316,17.3919 61.5,15.5 Z"/></g>
<g><path style="opacity:1" fill="#dd5335" d="M 38.5,24.5 C 36.8333,26.8333 34.8333,28.8333 32.5,30.5C 32.5,26.5 34.5,24.5 38.5,24.5 Z"/></g>
<g><path style="opacity:0.993" fill="#ee4c2c" d="M 20.5,27.5 C 21.8333,27.5 23.1667,27.5 24.5,27.5C 25.64,30.0248 26.3067,32.6915 26.5,35.5C 25.1667,35.5 23.8333,35.5 22.5,35.5C 21.0322,36.7518 20.0322,38.7518 19.5,41.5C 18.1805,40.0582 16.5138,39.3915 14.5,39.5C 14.1417,43.5092 13.6417,47.5092 13,51.5C 12.6174,52.056 12.1174,52.3893 11.5,52.5C 10.9935,48.9929 11.6602,45.8263 13.5,43C 12.6919,42.6924 12.0253,42.1924 11.5,41.5C 12.2458,40.2638 12.5792,38.9305 12.5,37.5C 14.697,33.7623 17.3637,30.429 20.5,27.5 Z"/></g>
<g><path style="opacity:1" fill="#db5233" d="M 81.5,31.5 C 79.7085,31.634 78.0418,31.3007 76.5,30.5C 78.3297,27.97 79.9963,28.3033 81.5,31.5 Z"/></g>
<g><path style="opacity:0.988" fill="#eb4e2d" d="M 76.5,30.5 C 78.0418,31.3007 79.7085,31.634 81.5,31.5C 84.6109,35.3869 86.9443,39.7202 88.5,44.5C 86.7868,45.6354 86.1201,47.302 86.5,49.5C 83.4867,49.1072 80.8201,49.7739 78.5,51.5C 77.0153,45.6965 74.3486,40.5299 70.5,36C 71.707,33.2926 73.707,31.4593 76.5,30.5 Z"/></g>
<g><path style="opacity:1" fill="#ee4d2a" d="M 19.5,41.5 C 20.8333,41.5 21.5,42.1667 21.5,43.5C 20.5,46.8333 19.5,50.1667 18.5,53.5C 17.1667,53.5 15.8333,53.5 14.5,53.5C 14.3345,57.5138 14.5012,61.5138 15,65.5C 17.0386,66.9783 17.8719,68.9783 17.5,71.5C 15.5082,71.3285 13.8415,71.9951 12.5,73.5C 10.614,66.543 10.2806,59.543 11.5,52.5C 12.1174,52.3893 12.6174,52.056 13,51.5C 13.6417,47.5092 14.1417,43.5092 14.5,39.5C 16.5138,39.3915 18.1805,40.0582 19.5,41.5 Z"/></g>
<g><path style="opacity:0.983" fill="#e94d2b" d="M 88.5,44.5 C 91.131,53.1976 91.131,61.8642 88.5,70.5C 87.0182,64.7452 85.6849,58.7452 84.5,52.5C 83.0423,58.1356 81.5423,63.8022 80,69.5C 79.296,71.727 78.1294,72.0603 76.5,70.5C 79.3617,64.4109 80.0283,58.0776 78.5,51.5C 80.8201,49.7739 83.4867,49.1072 86.5,49.5C 86.1201,47.302 86.7868,45.6354 88.5,44.5 Z"/></g>
<g><path style="opacity:1" fill="#ee4c2c" d="M 88.5,70.5 C 88.4431,71.609 88.1098,72.609 87.5,73.5C 85.3208,74.0592 83.1542,74.7259 81,75.5C 79.0245,74.5345 77.5245,73.2012 76.5,71.5C 76.5,71.1667 76.5,70.8333 76.5,70.5C 78.1294,72.0603 79.296,71.727 80,69.5C 81.5423,63.8022 83.0423,58.1356 84.5,52.5C 85.6849,58.7452 87.0182,64.7452 88.5,70.5 Z"/></g>
<g><path style="opacity:1" fill="#e74e2e" d="M 12.5,37.5 C 12.5792,38.9305 12.2458,40.2638 11.5,41.5C 12.0253,42.1924 12.6919,42.6924 13.5,43C 11.6602,45.8263 10.9935,48.9929 11.5,52.5C 10.2806,59.543 10.614,66.543 12.5,73.5C 13.8415,71.9951 15.5082,71.3285 17.5,71.5C 17.8719,68.9783 17.0386,66.9783 15,65.5C 14.5012,61.5138 14.3345,57.5138 14.5,53.5C 15.8333,53.5 17.1667,53.5 18.5,53.5C 18.007,60.0954 19.007,66.4287 21.5,72.5C 20.8826,72.3893 20.3826,72.056 20,71.5C 19.9525,74.3294 18.9525,76.6627 17,78.5C 15.6545,76.6583 13.8211,75.6583 11.5,75.5C 8.30426,70.0385 6.97093,64.0385 7.5,57.5C 7.15358,50.2284 8.82025,43.5618 12.5,37.5 Z"/></g>
<g><path style="opacity:0.953" fill="#ee4b2b" d="M 21.5,72.5 C 24.0317,76.2107 27.0317,79.544 30.5,82.5C 30.4142,83.4959 30.7476,84.3292 31.5,85C 28.5529,85.1118 27.2196,86.6118 27.5,89.5C 25.5,89.1667 23.5,88.8333 21.5,88.5C 21.178,86.2776 21.8446,84.4443 23.5,83C 22.2161,82.3162 21.0495,82.4829 20,83.5C 18.6759,80.7563 16.5092,79.423 13.5,79.5C 12.3263,78.4863 11.6596,77.153 11.5,75.5C 13.8211,75.6583 15.6545,76.6583 17,78.5C 18.9525,76.6627 19.9525,74.3294 20,71.5C 20.3826,72.056 20.8826,72.3893 21.5,72.5 Z"/></g>
<g><path style="opacity:0.981" fill="#ea4e2a" d="M 76.5,71.5 C 77.5245,73.2012 79.0245,74.5345 81,75.5C 83.1542,74.7259 85.3208,74.0592 87.5,73.5C 85.3118,79.8852 81.6451,85.2185 76.5,89.5C 72.8614,89.0609 71.5281,87.2276 72.5,84C 71.5862,82.5936 70.9195,81.0936 70.5,79.5C 72.9162,77.0922 74.9162,74.4256 76.5,71.5 Z"/></g>
<g><path style="opacity:0.983" fill="#eb4d2d" d="M 70.5,79.5 C 70.9195,81.0936 71.5862,82.5936 72.5,84C 71.5281,87.2276 72.8614,89.0609 76.5,89.5C 71.5588,93.8047 65.8921,96.8047 59.5,98.5C 59.5246,95.821 60.858,94.4877 63.5,94.5C 63.5,92.5 63.5,90.5 63.5,88.5C 60.5,88.5 57.5,88.5 54.5,88.5C 60.6244,87.0048 65.9578,84.0048 70.5,79.5 Z"/></g>
<g><path style="opacity:0.989" fill="#e84e2e" d="M 13.5,79.5 C 16.5092,79.423 18.6759,80.7563 20,83.5C 21.0495,82.4829 22.2161,82.3162 23.5,83C 21.8446,84.4443 21.178,86.2776 21.5,88.5C 23.5,88.8333 25.5,89.1667 27.5,89.5C 27.2196,86.6118 28.5529,85.1118 31.5,85C 30.7476,84.3292 30.4142,83.4959 30.5,82.5C 34.2867,85.0601 38.2867,87.0601 42.5,88.5C 41.1574,92.0012 39.4907,95.3345 37.5,98.5C 27.0743,95.058 19.0743,88.7247 13.5,79.5 Z"/></g>
<g><path style="opacity:0.953" fill="#ed4c2b" d="M 42.5,88.5 C 46.5,88.5 50.5,88.5 54.5,88.5C 57.5,88.5 60.5,88.5 63.5,88.5C 63.5,90.5 63.5,92.5 63.5,94.5C 60.858,94.4877 59.5246,95.821 59.5,98.5C 58.8333,98.5 58.5,98.8333 58.5,99.5C 52.1667,99.5 45.8333,99.5 39.5,99.5C 39.1583,98.6618 38.4916,98.3284 37.5,98.5C 39.4907,95.3345 41.1574,92.0012 42.5,88.5 Z"/></g>
</svg>
