<?xml version="1.0" encoding="UTF-8"?>
<!DOCTYPE svg PUBLIC "-//W3C//DTD SVG 1.1//EN" "http://www.w3.org/Graphics/SVG/1.1/DTD/svg11.dtd">
<svg xmlns="http://www.w3.org/2000/svg" version="1.1" width="100px" height="100px" style="shape-rendering:geometricPrecision; text-rendering:geometricPrecision; image-rendering:optimizeQuality; fill-rule:evenodd; clip-rule:evenodd" xmlns:xlink="http://www.w3.org/1999/xlink">
<g><path style="opacity:0.989" fill="#67d6f7" d="M 78.5,9.5 C 76.1667,8.83333 73.8333,8.16667 71.5,7.5C 71.5,8.5 71.5,9.5 71.5,10.5C 69.8333,10.5 68.1667,10.5 66.5,10.5C 65.2921,9.76589 63.9587,9.43255 62.5,9.5C 62.5,8.5 62.5,7.5 62.5,6.5C 66.6463,5.35303 70.9796,5.18636 75.5,6C 76.7101,7.0391 77.7101,8.20577 78.5,9.5 Z"/></g>
<g><path style="opacity:0.724" fill="#5ddaf8" d="M 22.5,7.5 C 22.684,9.92484 23.3507,9.92484 24.5,7.5C 25.4287,8.68884 25.762,10.0222 25.5,11.5C 23.7839,11.3713 22.1172,11.038 20.5,10.5C 20.427,8.97306 21.0937,7.97306 22.5,7.5 Z"/></g>
<g><path style="opacity:0.983" fill="#61dcf6" d="M 29.5,7.5 C 31.0174,7.51056 32.1841,8.17723 33,9.5C 33.3879,8.57203 34.0546,7.90536 35,7.5C 36.7623,8.59093 38.5956,9.59093 40.5,10.5C 38.9245,11.0316 36.9245,11.3649 34.5,11.5C 32.8828,10.962 31.2161,10.6287 29.5,10.5C 29.5,9.5 29.5,8.5 29.5,7.5 Z"/></g>
<g><path style="opacity:1" fill="#60ddee" d="M 62.5,6.5 C 62.5,7.5 62.5,8.5 62.5,9.5C 63.9587,9.43255 65.2921,9.76589 66.5,10.5C 64.7496,11.8698 62.7496,12.8698 60.5,13.5C 59.1667,12.5 57.8333,11.5 56.5,10.5C 58.1475,8.6736 60.1475,7.34026 62.5,6.5 Z"/></g>
<g><path style="opacity:1" fill="#60dbf3" d="M 78.5,9.5 C 79.1667,10.8333 79.8333,12.1667 80.5,13.5C 78.2646,13.2053 76.2646,13.5386 74.5,14.5C 73.5116,13.205 72.5116,11.8717 71.5,10.5C 71.5,9.5 71.5,8.5 71.5,7.5C 73.8333,8.16667 76.1667,8.83333 78.5,9.5 Z"/></g>
<g><path style="opacity:0.918" fill="#63d5f9" d="M 23.5,6.5 C 25.6208,6.32526 27.6208,6.65859 29.5,7.5C 29.5,8.5 29.5,9.5 29.5,10.5C 27.4078,10.5614 25.9078,11.5614 25,13.5C 24.7132,15.8907 24.2132,18.2241 23.5,20.5C 24.3742,22.7466 24.7076,25.0799 24.5,27.5C 22.5,27.5 20.5,27.5 18.5,27.5C 17.0912,21.5078 17.7579,15.8412 20.5,10.5C 22.1172,11.038 23.7839,11.3713 25.5,11.5C 25.762,10.0222 25.4287,8.68884 24.5,7.5C 23.3507,9.92484 22.684,9.92484 22.5,7.5C 22.5,6.83333 22.8333,6.5 23.5,6.5 Z"/></g>
<g><path style="opacity:0.931" fill="#63d8f8" d="M 23.5,6.5 C 30.6461,4.40353 37.3128,5.5702 43.5,10C 45.3604,11.8604 47.1937,13.6937 49,15.5C 51.3996,13.5854 53.8996,11.9188 56.5,10.5C 57.8333,11.5 59.1667,12.5 60.5,13.5C 58.0626,15.433 55.7293,17.5997 53.5,20C 54.756,20.4169 55.4226,21.2502 55.5,22.5C 52.3322,23.4435 48.9988,23.4435 45.5,22.5C 45.2322,24.099 45.5655,25.4324 46.5,26.5C 47.1522,27.7251 48.3189,28.3917 50,28.5C 51.3847,28.4857 52.5514,28.1524 53.5,27.5C 53.3505,26.448 53.5172,25.448 54,24.5C 54.8069,26.5774 55.9736,28.4107 57.5,30C 56.6721,30.9147 55.6721,31.5814 54.5,32C 54.8333,32.3333 55.1667,32.6667 55.5,33C 52.8333,33.6667 50.1667,33.6667 47.5,33C 44.2391,31.5214 40.9058,30.3547 37.5,29.5C 39.9558,26.2062 42.6225,23.0396 45.5,20C 42.0902,16.6522 38.4236,13.8189 34.5,11.5C 36.9245,11.3649 38.9245,11.0316 40.5,10.5C 38.5956,9.59093 36.7623,8.59093 35,7.5C 34.0546,7.90536 33.3879,8.57203 33,9.5C 32.1841,8.17723 31.0174,7.51056 29.5,7.5C 27.6208,6.65859 25.6208,6.32526 23.5,6.5 Z M 53.5,27.5 C 52.5514,28.1524 51.3847,28.4857 50,28.5C 48.3189,28.3917 47.1522,27.7251 46.5,26.5C 47.4822,25.8592 48.4822,25.1925 49.5,24.5C 50.6422,25.8262 51.9755,26.8262 53.5,27.5 Z"/></g>
<g><path style="opacity:0.95" fill="#62dbf5" d="M 55.5,22.5 C 57.7267,24.6068 59.7267,26.9401 61.5,29.5C 58.8569,30.6228 57.1902,32.6228 56.5,35.5C 52.2648,34.564 47.9315,34.2307 43.5,34.5C 41.6203,32.5653 39.6203,30.8986 37.5,29.5C 40.9058,30.3547 44.2391,31.5214 47.5,33C 50.1667,33.6667 52.8333,33.6667 55.5,33C 55.1667,32.6667 54.8333,32.3333 54.5,32C 55.6721,31.5814 56.6721,30.9147 57.5,30C 55.9736,28.4107 54.8069,26.5774 54,24.5C 53.5172,25.448 53.3505,26.448 53.5,27.5C 51.9755,26.8262 50.6422,25.8262 49.5,24.5C 48.4822,25.1925 47.4822,25.8592 46.5,26.5C 45.5655,25.4324 45.2322,24.099 45.5,22.5C 48.9988,23.4435 52.3322,23.4435 55.5,22.5 Z"/></g>
<g><path style="opacity:0.983" fill="#62d9f7" d="M 80.5,13.5 C 80.7513,19.8918 80.418,26.2252 79.5,32.5C 78.8423,33.3984 78.1757,34.3984 77.5,35.5C 75.9178,33.9853 74.5845,32.3186 73.5,30.5C 75.5974,25.2862 75.9307,19.9529 74.5,14.5C 76.2646,13.5386 78.2646,13.2053 80.5,13.5 Z"/></g>
<g><path style="opacity:0.948" fill="#61daf8" d="M 18.5,27.5 C 20.5,27.5 22.5,27.5 24.5,27.5C 24.5,28.5 24.5,29.5 24.5,30.5C 28.8814,30.6282 33.2147,30.2949 37.5,29.5C 39.6203,30.8986 41.6203,32.5653 43.5,34.5C 39.3481,37.0874 36.3481,40.7541 34.5,45.5C 32.9611,44.2329 31.2944,43.2329 29.5,42.5C 30.4348,40.1386 31.7682,37.9719 33.5,36C 31.5753,36.1349 29.5753,36.3016 27.5,36.5C 27.5,37.5 27.5,38.5 27.5,39.5C 26.4138,39.38 25.7472,38.7133 25.5,37.5C 26.4228,36.1637 26.9228,34.8304 27,33.5C 25.6124,34.5536 24.1124,34.7203 22.5,34C 21.9221,32.583 20.9221,31.7496 19.5,31.5C 19.5674,30.0413 19.2341,28.7079 18.5,27.5 Z"/></g>
<g><path style="opacity:0.894" fill="#61d8f9" d="M 61.5,29.5 C 65.4517,30.2721 69.4517,30.6054 73.5,30.5C 74.5845,32.3186 75.9178,33.9853 77.5,35.5C 78.1757,34.3984 78.8423,33.3984 79.5,32.5C 79.8333,32.5 80.1667,32.5 80.5,32.5C 80.1667,34.5 79.8333,36.5 79.5,38.5C 77.2704,39.775 75.937,41.775 75.5,44.5C 73.834,45.6664 72.1673,45.6664 70.5,44.5C 71.6527,43.3132 71.6527,42.3132 70.5,41.5C 71.3007,39.9582 71.634,38.2915 71.5,36.5C 70.209,36.7373 69.209,36.404 68.5,35.5C 69.8333,35.5 71.1667,35.5 72.5,35.5C 72.4804,31.4871 71.147,30.8205 68.5,33.5C 67.8333,32.8333 67.1667,32.1667 66.5,31.5C 65.125,34.5139 64.625,37.5139 65,40.5C 63.3247,39.4045 62.158,37.9045 61.5,36C 60.5632,35.3083 59.8966,35.475 59.5,36.5C 58.609,35.8902 57.609,35.5569 56.5,35.5C 57.1902,32.6228 58.8569,30.6228 61.5,29.5 Z"/></g>
<g><path style="opacity:0.962" fill="#65dcf3" d="M 80.5,32.5 C 83.232,33.866 85.8987,35.1993 88.5,36.5C 89.9136,38.1385 89.5803,39.4718 87.5,40.5C 89.3222,40.4626 91.3222,40.796 93.5,41.5C 93.5,43.1667 93.5,44.8333 93.5,46.5C 89.0594,43.2843 84.3927,40.6177 79.5,38.5C 79.8333,36.5 80.1667,34.5 80.5,32.5 Z"/></g>
<g><path style="opacity:1" fill="#65d7f0" d="M 18.5,32.5 C 18.2882,34.3841 17.2882,35.7174 15.5,36.5C 16.7658,37.3624 18.0992,38.0291 19.5,38.5C 16.8987,39.8007 14.232,41.134 11.5,42.5C 10.5371,40.7016 11.2038,39.3683 13.5,38.5C 12.6431,37.5748 11.6431,36.9081 10.5,36.5C 13.1013,35.1993 15.768,33.866 18.5,32.5 Z"/></g>
<g><path style="opacity:1" fill="#69d3fa" d="M 10.5,36.5 C 11.6431,36.9081 12.6431,37.5748 13.5,38.5C 11.2038,39.3683 10.5371,40.7016 11.5,42.5C 10.8333,42.5 10.1667,42.5 9.5,42.5C 7.79864,41.7886 6.79864,40.4553 6.5,38.5C 7.67145,37.6554 9.00478,36.9887 10.5,36.5 Z"/></g>
<g><path style="opacity:0.838" fill="#62daf8" d="M 68.5,35.5 C 67.6236,35.3691 66.9569,35.7025 66.5,36.5C 67.3333,38.1667 68.1667,39.8333 69,41.5C 69.69,42.7383 70.19,42.7383 70.5,41.5C 71.6527,42.3132 71.6527,43.3132 70.5,44.5C 72.1673,45.6664 73.834,45.6664 75.5,44.5C 74.5448,46.7457 73.8782,49.079 73.5,51.5C 74.0209,54.6363 73.0209,56.9696 70.5,58.5C 70.19,57.2617 69.69,57.2617 69,58.5C 68.1534,60.1932 67.3201,61.8599 66.5,63.5C 65.3406,61.7497 63.674,60.7497 61.5,60.5C 63.2982,57.07 64.9648,53.57 66.5,50C 64.5653,45.2973 62.2319,40.7973 59.5,36.5C 59.8966,35.475 60.5632,35.3083 61.5,36C 62.158,37.9045 63.3247,39.4045 65,40.5C 64.625,37.5139 65.125,34.5139 66.5,31.5C 67.1667,32.1667 67.8333,32.8333 68.5,33.5C 71.147,30.8205 72.4804,31.4871 72.5,35.5C 71.1667,35.5 69.8333,35.5 68.5,35.5 Z"/></g>
<g><path style="opacity:0.945" fill="#63d9fb" d="M 19.5,31.5 C 20.9221,31.7496 21.9221,32.583 22.5,34C 24.1124,34.7203 25.6124,34.5536 27,33.5C 26.9228,34.8304 26.4228,36.1637 25.5,37.5C 25.7472,38.7133 26.4138,39.38 27.5,39.5C 27.9321,40.7095 28.5987,41.7095 29.5,42.5C 31.2944,43.2329 32.9611,44.2329 34.5,45.5C 33.8825,47.2292 32.8825,48.7292 31.5,50C 32.8228,50.8159 33.4894,51.9826 33.5,53.5C 32.2652,53.7214 31.2652,54.3881 30.5,55.5C 27.5878,54.6548 26.5878,52.9882 27.5,50.5C 27.0431,49.7025 26.3764,49.3691 25.5,49.5C 24.2278,45.2775 22.2278,41.6108 19.5,38.5C 18.0992,38.0291 16.7658,37.3624 15.5,36.5C 17.2882,35.7174 18.2882,34.3841 18.5,32.5C 19.1667,32.5 19.5,32.1667 19.5,31.5 Z"/></g>
<g><path style="opacity:1" fill="#60daf8" d="M 45.5,41.5 C 56.3402,39.3431 60.3402,43.6764 57.5,54.5C 55.6921,53.0821 55.0254,51.0821 55.5,48.5C 53.2341,48.8588 51.4007,48.1922 50,46.5C 48.0452,48.9817 45.8785,49.1483 43.5,47C 44.6765,45.3257 46.0098,43.8257 47.5,42.5C 47.0431,41.7025 46.3764,41.3691 45.5,41.5 Z"/></g>
<g><path style="opacity:0.897" fill="#62d9fa" d="M 88.5,36.5 C 93.0685,38.4022 96.7352,41.4022 99.5,45.5C 99.5,48.5 99.5,51.5 99.5,54.5C 98.194,56.4727 96.5273,58.1394 94.5,59.5C 93.9673,54.7774 92.634,54.4441 90.5,58.5C 89.8165,58.1373 89.1499,57.8039 88.5,57.5C 93.1847,55.1349 94.8514,51.4682 93.5,46.5C 93.5,44.8333 93.5,43.1667 93.5,41.5C 91.3222,40.796 89.3222,40.4626 87.5,40.5C 89.5803,39.4718 89.9136,38.1385 88.5,36.5 Z"/></g>
<g><path style="opacity:0.999" fill="#63d9f8" d="M 45.5,41.5 C 46.3764,41.3691 47.0431,41.7025 47.5,42.5C 46.0098,43.8257 44.6765,45.3257 43.5,47C 45.8785,49.1483 48.0452,48.9817 50,46.5C 51.4007,48.1922 53.2341,48.8588 55.5,48.5C 55.0254,51.0821 55.6921,53.0821 57.5,54.5C 56.9688,56.6237 55.6355,58.1237 53.5,59C 44.228,60.6281 39.728,56.7948 40,47.5C 40.7059,44.3928 42.5392,42.3928 45.5,41.5 Z"/></g>
<g><path style="opacity:0.89" fill="#67d5f9" d="M 73.5,51.5 C 75.0652,53.5093 76.0652,55.8427 76.5,58.5C 75.5,58.5 74.5,58.5 73.5,58.5C 73.7148,60.1788 73.0481,61.1788 71.5,61.5C 71.4431,60.391 71.1098,59.391 70.5,58.5C 73.0209,56.9696 74.0209,54.6363 73.5,51.5 Z"/></g>
<g><path style="opacity:0.914" fill="#5fdbf3" d="M 94.5,59.5 C 93.4206,61.543 91.754,62.8763 89.5,63.5C 88.2804,61.7179 87.6138,59.7179 87.5,57.5C 87.8333,57.5 88.1667,57.5 88.5,57.5C 89.1499,57.8039 89.8165,58.1373 90.5,58.5C 92.634,54.4441 93.9673,54.7774 94.5,59.5 Z"/></g>
<g><path style="opacity:1" fill="#63d9f7" d="M 6.5,38.5 C 6.79864,40.4553 7.79864,41.7886 9.5,42.5C 7.27257,44.5727 5.6059,47.0727 4.5,50C 6.02367,53.9245 8.69033,56.7578 12.5,58.5C 12.1961,59.1499 11.8627,59.8165 11.5,60.5C 12.8532,61.5237 13.5198,62.857 13.5,64.5C 7.80301,63.1424 3.13635,60.1424 -0.5,55.5C -0.5,51.8333 -0.5,48.1667 -0.5,44.5C 1.51364,42.155 3.84698,40.155 6.5,38.5 Z"/></g>
<g><path style="opacity:0.854" fill="#68d5f9" d="M 87.5,57.5 C 87.6138,59.7179 88.2804,61.7179 89.5,63.5C 88.2921,64.2341 86.9587,64.5674 85.5,64.5C 85.2624,62.5956 84.2624,61.2623 82.5,60.5C 84.2202,59.6923 85.8869,58.6923 87.5,57.5 Z"/></g>
<g><path style="opacity:0.846" fill="#62d7fc" d="M 38.5,61.5 C 39.1667,62.8333 40.1667,63.8333 41.5,64.5C 39.9581,65.1635 38.2914,65.8302 36.5,66.5C 36.8655,67.9019 37.6988,68.9019 39,69.5C 42.2667,67.7049 45.7667,66.7049 49.5,66.5C 49.5,67.5 49.5,68.5 49.5,69.5C 46.7531,69.1866 44.0865,69.52 41.5,70.5C 46.5696,72.0488 46.5696,73.7155 41.5,75.5C 39.7089,72.3808 37.0422,70.3808 33.5,69.5C 33.5,67.8333 33.5,66.1667 33.5,64.5C 31.9752,62.7837 30.9752,60.7837 30.5,58.5C 31.4959,58.4142 32.3292,58.7476 33,59.5C 33.3076,58.6919 33.8076,58.0253 34.5,57.5C 35.7112,58.2739 35.7112,59.1072 34.5,60C 35.5634,61.1882 36.8967,61.6882 38.5,61.5 Z"/></g>
<g><path style="opacity:0.944" fill="#63daf4" d="M 76.5,58.5 C 77.509,61.7198 79.509,62.3865 82.5,60.5C 84.2624,61.2623 85.2624,62.5956 85.5,64.5C 85.1583,65.3382 84.4916,65.6716 83.5,65.5C 82.5358,63.5953 80.8691,62.5953 78.5,62.5C 75.6443,64.0444 72.6443,65.0444 69.5,65.5C 69.5,66.5 69.5,67.5 69.5,68.5C 71.5,68.5 73.5,68.5 75.5,68.5C 75.281,69.675 75.6143,70.675 76.5,71.5C 77.5207,70.0986 78.5207,68.7653 79.5,67.5C 80.1495,69.4352 80.4828,71.4352 80.5,73.5C 79.8826,73.3893 79.3826,73.056 79,72.5C 75.2315,76.3998 75.7315,79.3998 80.5,81.5C 81.0914,85.9639 79.758,89.6305 76.5,92.5C 78.2529,89.4289 77.5862,87.0956 74.5,85.5C 75.9674,80.2098 75.6341,75.0432 73.5,70C 69.4065,69.2327 65.4065,69.566 61.5,71C 59.2674,73.9958 56.9341,76.8292 54.5,79.5C 55.0522,77.6693 55.0522,76.0026 54.5,74.5C 55.9079,73.7568 57.2412,72.9234 58.5,72C 57.1916,71.1762 55.6916,70.6762 54,70.5C 53.5065,68.8659 53.3398,67.1992 53.5,65.5C 57.1454,65.2738 59.812,63.6071 61.5,60.5C 63.674,60.7497 65.3406,61.7497 66.5,63.5C 67.4602,64.5152 68.6269,64.5152 70,63.5C 71.0299,63.1639 71.5299,62.4972 71.5,61.5C 73.0481,61.1788 73.7148,60.1788 73.5,58.5C 74.5,58.5 75.5,58.5 76.5,58.5 Z"/></g>
<g><path style="opacity:1" fill="#64d9f4" d="M 25.5,49.5 C 26.3764,49.3691 27.0431,49.7025 27.5,50.5C 26.5878,52.9882 27.5878,54.6548 30.5,55.5C 31.2652,54.3881 32.2652,53.7214 33.5,53.5C 35.53,55.8968 37.1967,58.5634 38.5,61.5C 36.8967,61.6882 35.5634,61.1882 34.5,60C 35.7112,59.1072 35.7112,58.2739 34.5,57.5C 33.8076,58.0253 33.3076,58.6919 33,59.5C 32.3292,58.7476 31.4959,58.4142 30.5,58.5C 29.8826,58.3893 29.3826,58.056 29,57.5C 27.872,59.3453 27.372,61.3453 27.5,63.5C 29.5648,63.5172 31.5648,63.8505 33.5,64.5C 33.5,66.1667 33.5,67.8333 33.5,69.5C 30.8333,69.5 28.1667,69.5 25.5,69.5C 26.8502,68.3501 26.6836,67.6834 25,67.5C 23.5603,68.1476 22.0603,68.4809 20.5,68.5C 20.075,72.9083 19.4084,77.2416 18.5,81.5C 17.8761,81.0831 17.5427,80.4164 17.5,79.5C 18.1667,76.1667 18.8333,72.8333 19.5,69.5C 17.8783,67.359 15.8783,65.6924 13.5,64.5C 13.5198,62.857 12.8532,61.5237 11.5,60.5C 11.8627,59.8165 12.1961,59.1499 12.5,58.5C 14.153,58.6596 15.4863,59.3263 16.5,60.5C 15.9033,60.7352 15.5699,61.2352 15.5,62C 16.3333,63.5 17.5,64.6667 19,65.5C 20.8556,64.2643 22.6889,64.2643 24.5,65.5C 25.8564,62.5926 25.1897,60.2593 22.5,58.5C 23.6976,55.5738 24.6976,52.5738 25.5,49.5 Z"/></g>
<g><path style="opacity:1" fill="#69d4f8" d="M 22.5,58.5 C 25.1897,60.2593 25.8564,62.5926 24.5,65.5C 22.6889,64.2643 20.8556,64.2643 19,65.5C 17.5,64.6667 16.3333,63.5 15.5,62C 15.5699,61.2352 15.9033,60.7352 16.5,60.5C 17.9305,60.4208 19.2638,60.7542 20.5,61.5C 21.1757,60.3984 21.8423,59.3984 22.5,58.5 Z"/></g>
<g><path style="opacity:0.608" fill="#63d7fc" d="M 83.5,65.5 C 82.3285,66.3446 80.9952,67.0113 79.5,67.5C 78.5207,68.7653 77.5207,70.0986 76.5,71.5C 75.6143,70.675 75.281,69.675 75.5,68.5C 73.5,68.5 71.5,68.5 69.5,68.5C 69.5,67.5 69.5,66.5 69.5,65.5C 72.6443,65.0444 75.6443,64.0444 78.5,62.5C 80.8691,62.5953 82.5358,63.5953 83.5,65.5 Z"/></g>
<g><path style="opacity:0.95" fill="#63d6fa" d="M 25.5,69.5 C 23.9974,74.7108 23.6641,80.0441 24.5,85.5C 23.0779,85.7496 22.0779,86.583 21.5,88C 22.3802,89.3561 22.7135,90.8561 22.5,92.5C 19.6112,89.5091 18.2779,85.8424 18.5,81.5C 19.4084,77.2416 20.075,72.9083 20.5,68.5C 22.0603,68.4809 23.5603,68.1476 25,67.5C 26.6836,67.6834 26.8502,68.3501 25.5,69.5 Z"/></g>
<g><path style="opacity:0.908" fill="#69d6fa" d="M 80.5,73.5 C 80.5,76.1667 80.5,78.8333 80.5,81.5C 75.7315,79.3998 75.2315,76.3998 79,72.5C 79.3826,73.056 79.8826,73.3893 80.5,73.5 Z"/></g>
<g><path style="opacity:0.996" fill="#63d7f7" d="M 41.5,64.5 C 45.4517,65.2721 49.4517,65.6054 53.5,65.5C 53.3398,67.1992 53.5065,68.8659 54,70.5C 55.6916,70.6762 57.1916,71.1762 58.5,72C 57.2412,72.9234 55.9079,73.7568 54.5,74.5C 55.0522,76.0026 55.0522,77.6693 54.5,79.5C 54.1667,79.5 53.8333,79.5 53.5,79.5C 52.1411,78.9935 51.1411,77.9935 50.5,76.5C 49.7193,77.7366 48.7193,78.7366 47.5,79.5C 46.3777,78.3698 45.0443,77.7031 43.5,77.5C 42.5,77.1667 41.8333,76.5 41.5,75.5C 46.5696,73.7155 46.5696,72.0488 41.5,70.5C 44.0865,69.52 46.7531,69.1866 49.5,69.5C 49.5,68.5 49.5,67.5 49.5,66.5C 45.7667,66.7049 42.2667,67.7049 39,69.5C 37.6988,68.9019 36.8655,67.9019 36.5,66.5C 38.2914,65.8302 39.9581,65.1635 41.5,64.5 Z M 46.5,71.5 C 48.8568,71.3367 51.1902,71.5034 53.5,72C 50.6265,76.8029 48.2931,76.6362 46.5,71.5 Z"/></g>
<g><path style="opacity:0.89" fill="#61daf4" d="M 53.5,79.5 C 54.1667,80.5 54.8333,81.5 55.5,82.5C 55.1667,84.5 54.8333,86.5 54.5,88.5C 52.5,87.1667 50.5,85.8333 48.5,84.5C 47.9101,83.234 47.4101,81.9007 47,80.5C 46.1841,81.8228 45.0174,82.4894 43.5,82.5C 43.9528,81.5416 44.6195,80.7083 45.5,80C 44.6195,79.2917 43.9528,78.4584 43.5,77.5C 45.0443,77.7031 46.3777,78.3698 47.5,79.5C 48.7193,78.7366 49.7193,77.7366 50.5,76.5C 51.1411,77.9935 52.1411,78.9935 53.5,79.5 Z"/></g>
<g><path style="opacity:0.935" fill="#65d5fd" d="M 48.5,84.5 C 47.2153,86.4516 45.5486,88.1182 43.5,89.5C 42.0582,88.1805 41.3915,86.5138 41.5,84.5C 41.8333,83.5 42.5,82.8333 43.5,82.5C 45.0174,82.4894 46.1841,81.8228 47,80.5C 47.4101,81.9007 47.9101,83.234 48.5,84.5 Z"/></g>
<g><path style="opacity:0.83" fill="#67d5fb" d="M 55.5,82.5 C 57.3885,83.604 59.0552,84.9373 60.5,86.5C 58.9699,87.2112 57.6366,88.2112 56.5,89.5C 55.5084,89.6716 54.8417,89.3382 54.5,88.5C 54.8333,86.5 55.1667,84.5 55.5,82.5 Z"/></g>
<g><path style="opacity:1" fill="#63d9f3" d="M 24.5,85.5 C 25.6005,86.6049 26.2671,87.9382 26.5,89.5C 25.7611,89.369 25.0944,89.5357 24.5,90C 26.1412,91.129 27.1412,92.629 27.5,94.5C 25.302,94.8799 23.6354,94.2132 22.5,92.5C 22.7135,90.8561 22.3802,89.3561 21.5,88C 22.0779,86.583 23.0779,85.7496 24.5,85.5 Z"/></g>
<g><path style="opacity:0.929" fill="#67d8f4" d="M 60.5,86.5 C 63.9166,88.3724 67.5832,89.3724 71.5,89.5C 71.4894,91.0174 70.8228,92.1841 69.5,93C 71.3867,92.5771 73.3867,92.7437 75.5,93.5C 71.3537,94.647 67.0204,94.8136 62.5,94C 60.2528,92.7225 58.2528,91.2225 56.5,89.5C 57.6366,88.2112 58.9699,87.2112 60.5,86.5 Z"/></g>
<g><path style="opacity:1" fill="#68d6fb" d="M 74.5,85.5 C 77.5862,87.0956 78.2529,89.4289 76.5,92.5C 76.5,93.1667 76.1667,93.5 75.5,93.5C 73.3867,92.7437 71.3867,92.5771 69.5,93C 70.8228,92.1841 71.4894,91.0174 71.5,89.5C 72.5116,88.1283 73.5116,86.795 74.5,85.5 Z"/></g>
<g><path style="opacity:0.982" fill="#64d7f7" d="M 41.5,84.5 C 41.3915,86.5138 42.0582,88.1805 43.5,89.5C 39.1367,93.893 33.8034,95.5597 27.5,94.5C 27.1412,92.629 26.1412,91.129 24.5,90C 25.0944,89.5357 25.7611,89.369 26.5,89.5C 28.5273,89.6621 30.5273,89.4955 32.5,89C 35.5531,87.4734 38.5531,85.9734 41.5,84.5 Z"/></g>
</svg>
