<?xml version="1.0" encoding="UTF-8"?>
<!DOCTYPE svg PUBLIC "-//W3C//DTD SVG 1.1//EN" "http://www.w3.org/Graphics/SVG/1.1/DTD/svg11.dtd">
<svg xmlns="http://www.w3.org/2000/svg" version="1.1" width="100px" height="100px" style="shape-rendering:geometricPrecision; text-rendering:geometricPrecision; image-rendering:optimizeQuality; fill-rule:evenodd; clip-rule:evenodd" xmlns:xlink="http://www.w3.org/1999/xlink">
<g><path style="opacity:1" fill="#f49033" d="M 31.5,-0.5 C 31.8333,-0.5 32.1667,-0.5 32.5,-0.5C 35.8333,1.83333 39.1667,4.16667 42.5,6.5C 39.4299,6.63228 36.4299,6.29895 33.5,5.5C 32.3702,3.68545 31.7036,1.68545 31.5,-0.5 Z"/></g>
<g><path style="opacity:0.996" fill="#117af5" d="M 68.5,15.5 C 68.5,16.5 68.5,17.5 68.5,18.5C 61.4921,18.6663 54.4921,18.4996 47.5,18C 50.242,16.1136 51.9087,13.6136 52.5,10.5C 54.0456,8.35103 55.7122,6.18436 57.5,4C 59.2396,2.30554 61.2396,1.13888 63.5,0.5C 65.3604,5.41455 67.0271,10.4146 68.5,15.5 Z"/></g>
<g><path style="opacity:1" fill="#eb683f" d="M 33.5,5.5 C 36.4299,6.29895 39.4299,6.63228 42.5,6.5C 45.3311,7.0787 47.6644,8.41203 49.5,10.5C 47.5258,13.4822 45.5258,16.4822 43.5,19.5C 42.8333,19.5 42.1667,19.5 41.5,19.5C 40.9688,17.4559 39.8022,15.7893 38,14.5C 37.6667,12.8333 37.3333,11.1667 37,9.5C 35.6244,8.29493 34.4577,6.9616 33.5,5.5 Z"/></g>
<g><path style="opacity:1" fill="#9b697f" d="M 49.5,10.5 C 50.1667,10.5 50.8333,10.5 51.5,10.5C 50.6267,12.8863 49.1267,14.8863 47,16.5C 46.5172,17.448 46.3505,18.448 46.5,19.5C 45.8333,19.5 45.1667,19.5 44.5,19.5C 44.1667,19.5 43.8333,19.5 43.5,19.5C 45.5258,16.4822 47.5258,13.4822 49.5,10.5 Z"/></g>
<g><path style="opacity:1" fill="#db1763" d="M 27.5,-0.5 C 28.8333,-0.5 30.1667,-0.5 31.5,-0.5C 31.7036,1.68545 32.3702,3.68545 33.5,5.5C 34.4577,6.9616 35.6244,8.29493 37,9.5C 37.3333,11.1667 37.6667,12.8333 38,14.5C 39.8022,15.7893 40.9688,17.4559 41.5,19.5C 34.3134,19.1755 27.3134,19.5088 20.5,20.5C 19.5051,31.988 19.1717,43.6547 19.5,55.5C 19.1667,55.5 18.8333,55.5 18.5,55.5C 18.7683,52.8806 18.435,50.3806 17.5,48C 15.8333,47.8333 14.1667,47.6667 12.5,47.5C 9.37091,47.6385 6.70425,48.6385 4.5,50.5C 3.65931,43.1274 2.49264,35.794 1,28.5C 0.333333,25.1667 0.333333,21.8333 1,18.5C 10.0143,12.3035 18.8477,5.9702 27.5,-0.5 Z"/></g>
<g><path style="opacity:1" fill="#2e65b4" d="M 51.5,10.5 C 51.8333,10.5 52.1667,10.5 52.5,10.5C 51.9087,13.6136 50.242,16.1136 47.5,18C 54.4921,18.4996 61.4921,18.6663 68.5,18.5C 68.5,17.5 68.5,16.5 68.5,15.5C 69.4013,16.2905 70.0679,17.2905 70.5,18.5C 62.6841,19.4924 54.6841,19.8257 46.5,19.5C 46.3505,18.448 46.5172,17.448 47,16.5C 49.1267,14.8863 50.6267,12.8863 51.5,10.5 Z"/></g>
<g><path style="opacity:0.993" fill="#050405" d="M 70.5,18.5 C 73.5,18.5 76.5,18.5 79.5,18.5C 79.5,21.1667 79.5,23.8333 79.5,26.5C 78.8333,26.5 78.5,26.8333 78.5,27.5C 77.7784,27.9175 77.2784,28.5842 77,29.5C 76.5001,45.4965 76.3334,61.4965 76.5,77.5C 72.4862,77.3345 68.4862,77.5012 64.5,78C 63.944,78.3826 63.6107,78.8826 63.5,79.5C 62.8333,79.5 62.1667,79.5 61.5,79.5C 48.3438,78.5044 35.0105,78.1711 21.5,78.5C 21.5,59.1667 21.5,39.8333 21.5,20.5C 29.3516,20.8254 37.0182,20.492 44.5,19.5C 45.1667,19.5 45.8333,19.5 46.5,19.5C 54.6841,19.8257 62.6841,19.4924 70.5,18.5 Z"/></g>
<g><path style="opacity:1" fill="#27020b" d="M 41.5,19.5 C 42.1667,19.5 42.8333,19.5 43.5,19.5C 43.8333,19.5 44.1667,19.5 44.5,19.5C 37.0182,20.492 29.3516,20.8254 21.5,20.5C 21.5,39.8333 21.5,59.1667 21.5,78.5C 20.503,59.3405 20.1697,40.0072 20.5,20.5C 27.3134,19.5088 34.3134,19.1755 41.5,19.5 Z"/></g>
<g><path style="opacity:1" fill="#e8e9e9" d="M 27.5,26.5 C 31.5138,26.3345 35.5138,26.5012 39.5,27C 45.1582,28.8294 46.9916,32.6627 45,38.5C 43.8333,39.6667 42.6667,40.8333 41.5,42C 43.1667,44.3333 44.8333,46.6667 46.5,49C 44.5,49.6667 42.5,49.6667 40.5,49C 39.1667,47 37.8333,45 36.5,43C 35.2068,42.51 33.8734,42.3433 32.5,42.5C 32.5,44.8333 32.5,47.1667 32.5,49.5C 30.8333,49.5 29.1667,49.5 27.5,49.5C 27.5,41.8333 27.5,34.1667 27.5,26.5 Z"/></g>
<g><path style="opacity:1" fill="#6e6e6e" d="M 61.5,27.5 C 57.8333,27.5 54.1667,27.5 50.5,27.5C 50.5,34.8333 50.5,42.1667 50.5,49.5C 49.508,42.0182 49.1746,34.3516 49.5,26.5C 53.7016,26.1832 57.7016,26.5166 61.5,27.5 Z"/></g>
<g><path style="opacity:1" fill="#f2f2f2" d="M 61.5,27.5 C 68.4014,29.1027 71.2348,33.436 70,40.5C 66.0316,48.5613 59.5316,51.5613 50.5,49.5C 50.5,42.1667 50.5,34.8333 50.5,27.5C 54.1667,27.5 57.8333,27.5 61.5,27.5 Z"/></g>
<g><path style="opacity:1" fill="#0e0e0e" d="M 32.5,31.5 C 34.8568,31.3367 37.1902,31.5034 39.5,32C 40.8333,33.6667 40.8333,35.3333 39.5,37C 37.1902,37.4966 34.8568,37.6633 32.5,37.5C 32.5,35.5 32.5,33.5 32.5,31.5 Z"/></g>
<g><path style="opacity:1" fill="#575757" d="M 60.5,32.5 C 58.8333,32.5 57.1667,32.5 55.5,32.5C 55.5,36.5 55.5,40.5 55.5,44.5C 57.1667,44.5 58.8333,44.5 60.5,44.5C 58.7354,45.4614 56.7354,45.7947 54.5,45.5C 54.5,40.8333 54.5,36.1667 54.5,31.5C 56.7354,31.2053 58.7354,31.5386 60.5,32.5 Z"/></g>
<g><path style="opacity:1" fill="#0b0b0b" d="M 60.5,32.5 C 65.0779,33.8432 66.5779,36.8432 65,41.5C 63.871,43.1412 62.371,44.1412 60.5,44.5C 58.8333,44.5 57.1667,44.5 55.5,44.5C 55.5,40.5 55.5,36.5 55.5,32.5C 57.1667,32.5 58.8333,32.5 60.5,32.5 Z"/></g>
<g><path style="opacity:0.999" fill="#d31863" d="M 79.5,26.5 C 85.4884,30.2531 91.655,33.9197 98,37.5C 96.4225,43.9651 93.5892,49.9651 89.5,55.5C 88.5041,55.5858 87.6708,55.2524 87,54.5C 86.2344,50.2323 83.7344,47.899 79.5,47.5C 79.1667,47.5 78.8333,47.5 78.5,47.5C 78.5,40.8333 78.5,34.1667 78.5,27.5C 78.5,26.8333 78.8333,26.5 79.5,26.5 Z"/></g>
<g><path style="opacity:1" fill="#ac2c82" d="M 79.5,47.5 C 83.7344,47.899 86.2344,50.2323 87,54.5C 87.6708,55.2524 88.5041,55.5858 89.5,55.5C 89.4431,56.609 89.1098,57.609 88.5,58.5C 85.8858,58.7229 84.2191,57.5562 83.5,55C 82.2161,54.3162 81.0495,54.4829 80,55.5C 79.5026,52.854 79.3359,50.1873 79.5,47.5 Z"/></g>
<g><path style="opacity:1" fill="#e7424c" d="M 18.5,55.5 C 17.5318,57.6074 17.1984,59.9407 17.5,62.5C 13.8215,62.0604 10.4882,62.727 7.5,64.5C 6.2661,60.0057 5.2661,55.339 4.5,50.5C 6.70425,48.6385 9.37091,47.6385 12.5,47.5C 14.1667,47.6667 15.8333,47.8333 17.5,48C 18.435,50.3806 18.7683,52.8806 18.5,55.5 Z"/></g>
<g><path style="opacity:1" fill="#110113" d="M 78.5,27.5 C 78.5,34.1667 78.5,40.8333 78.5,47.5C 78.5,58.1667 78.5,68.8333 78.5,79.5C 76.1667,79.5 73.8333,79.5 71.5,79.5C 68.8333,79.5 66.1667,79.5 63.5,79.5C 63.6107,78.8826 63.944,78.3826 64.5,78C 68.4862,77.5012 72.4862,77.3345 76.5,77.5C 76.3334,61.4965 76.5001,45.4965 77,29.5C 77.2784,28.5842 77.7784,27.9175 78.5,27.5 Z"/></g>
<g><path style="opacity:1" fill="#e66340" d="M 18.5,55.5 C 18.8333,55.5 19.1667,55.5 19.5,55.5C 19.5,60.8333 19.5,66.1667 19.5,71.5C 15.7657,71.3227 12.0991,71.6561 8.5,72.5C 7.52693,70.0521 7.1936,67.3854 7.5,64.5C 10.4882,62.727 13.8215,62.0604 17.5,62.5C 17.1984,59.9407 17.5318,57.6074 18.5,55.5 Z"/></g>
<g><path style="opacity:1" fill="#7148a2" d="M 78.5,47.5 C 78.8333,47.5 79.1667,47.5 79.5,47.5C 79.3359,50.1873 79.5026,52.854 80,55.5C 81.0495,54.4829 82.2161,54.3162 83.5,55C 84.2191,57.5562 85.8858,58.7229 88.5,58.5C 89.1098,59.391 89.4431,60.391 89.5,61.5C 88.3994,62.8484 87.3994,64.3484 86.5,66C 83.9918,66.115 81.9918,67.115 80.5,69C 79.9376,72.6542 79.271,76.1542 78.5,79.5C 78.5,68.8333 78.5,58.1667 78.5,47.5 Z"/></g>
<g><path style="opacity:1" fill="#ecebec" d="M 26.5,68.5 C 33.8333,68.5 41.1667,68.5 48.5,68.5C 48.5,69.8333 48.5,71.1667 48.5,72.5C 41.1667,72.5 33.8333,72.5 26.5,72.5C 26.5,71.1667 26.5,69.8333 26.5,68.5 Z"/></g>
<g><path style="opacity:0.671" fill="#ed7a30" d="M 19.5,71.5 C 19.5,73.8333 19.5,76.1667 19.5,78.5C 16.0977,78.3424 12.7644,78.6758 9.5,79.5C 8.63137,77.283 8.29803,74.9496 8.5,72.5C 12.0991,71.6561 15.7657,71.3227 19.5,71.5 Z"/></g>
<g><path style="opacity:1" fill="#502818" d="M 20.5,20.5 C 20.1697,40.0072 20.503,59.3405 21.5,78.5C 35.0105,78.1711 48.3438,78.5044 61.5,79.5C 47.5,79.5 33.5,79.5 19.5,79.5C 19.5,79.1667 19.5,78.8333 19.5,78.5C 19.5,76.1667 19.5,73.8333 19.5,71.5C 19.5,66.1667 19.5,60.8333 19.5,55.5C 19.1717,43.6547 19.5051,31.988 20.5,20.5 Z"/></g>
<g><path style="opacity:1" fill="#c48f3d" d="M 19.5,79.5 C 33.5,79.5 47.5,79.5 61.5,79.5C 61.573,81.0269 60.9063,82.0269 59.5,82.5C 59.1667,82.5 58.8333,82.5 58.5,82.5C 52.2504,80.5411 45.5837,79.8745 38.5,80.5C 31.9779,80.8235 25.6446,80.4902 19.5,79.5 Z"/></g>
<g><path style="opacity:1" fill="#3965d4" d="M 89.5,61.5 C 91.3604,65.0825 93.0271,68.7492 94.5,72.5C 91.6097,72.722 88.943,72.0553 86.5,70.5C 84.244,71.4209 83.244,73.0876 83.5,75.5C 84.8333,75.5 86.1667,75.5 87.5,75.5C 87.6621,77.5273 87.4955,79.5273 87,81.5C 86.6121,80.572 85.9454,79.9054 85,79.5C 82.6358,80.5118 81.3024,81.8451 81,83.5C 79.6667,82.8333 78.3333,82.1667 77,81.5C 75.2341,82.2335 73.4008,82.5668 71.5,82.5C 71.5,84.1667 71.5,85.8333 71.5,87.5C 66.4376,87.2743 61.4376,87.6076 56.5,88.5C 58.7979,86.5009 61.1312,84.5009 63.5,82.5C 66.6502,82.2343 69.3168,81.2343 71.5,79.5C 73.8333,79.5 76.1667,79.5 78.5,79.5C 79.271,76.1542 79.9376,72.6542 80.5,69C 81.9918,67.115 83.9918,66.115 86.5,66C 87.3994,64.3484 88.3994,62.8484 89.5,61.5 Z"/></g>
<g><path style="opacity:1" fill="#f59621" d="M 19.5,78.5 C 19.5,78.8333 19.5,79.1667 19.5,79.5C 25.6446,80.4902 31.9779,80.8235 38.5,80.5C 38.8039,81.1499 39.1373,81.8165 39.5,82.5C 30.6368,82.9494 22.6368,85.6161 15.5,90.5C 13.8297,90.2488 12.3297,89.5822 11,88.5C 10.0467,85.5682 9.54673,82.5682 9.5,79.5C 12.7644,78.6758 16.0977,78.3424 19.5,78.5 Z"/></g>
<g><path style="opacity:1" fill="#4d65a8" d="M 61.5,79.5 C 62.1667,79.5 62.8333,79.5 63.5,79.5C 66.1667,79.5 68.8333,79.5 71.5,79.5C 69.3168,81.2343 66.6502,82.2343 63.5,82.5C 61.1312,84.5009 58.7979,86.5009 56.5,88.5C 54.8102,88.8564 53.8102,89.8564 53.5,91.5C 52.8333,91.5 52.1667,91.5 51.5,91.5C 51.427,89.9731 52.0937,88.9731 53.5,88.5C 55.8333,86.8333 57.8333,84.8333 59.5,82.5C 60.9063,82.0269 61.573,81.0269 61.5,79.5 Z"/></g>
<g><path style="opacity:1" fill="#958d7a" d="M 58.5,82.5 C 58.8333,82.5 59.1667,82.5 59.5,82.5C 57.8333,84.8333 55.8333,86.8333 53.5,88.5C 54.4194,85.9108 56.086,83.9108 58.5,82.5 Z"/></g>
<g><path style="opacity:0.975" fill="#1875f0" d="M 94.5,72.5 C 96.3921,76.0067 97.5588,79.6734 98,83.5C 90.1867,87.9675 82.3534,92.4675 74.5,97C 73.6195,97.7083 72.9528,98.5416 72.5,99.5C 70.5,99.5 68.5,99.5 66.5,99.5C 62.1667,96.8333 57.8333,94.1667 53.5,91.5C 53.8102,89.8564 54.8102,88.8564 56.5,88.5C 61.4376,87.6076 66.4376,87.2743 71.5,87.5C 71.5,85.8333 71.5,84.1667 71.5,82.5C 73.4008,82.5668 75.2341,82.2335 77,81.5C 78.3333,82.1667 79.6667,82.8333 81,83.5C 81.3024,81.8451 82.6358,80.5118 85,79.5C 85.9454,79.9054 86.6121,80.572 87,81.5C 87.4955,79.5273 87.6621,77.5273 87.5,75.5C 86.1667,75.5 84.8333,75.5 83.5,75.5C 83.244,73.0876 84.244,71.4209 86.5,70.5C 88.943,72.0553 91.6097,72.722 94.5,72.5 Z"/></g>
<g><path style="opacity:0.975" fill="#f7b118" d="M 38.5,80.5 C 45.5837,79.8745 52.2504,80.5411 58.5,82.5C 56.086,83.9108 54.4194,85.9108 53.5,88.5C 52.0937,88.9731 51.427,89.9731 51.5,91.5C 47.7929,93.6885 44.4595,96.3552 41.5,99.5C 39.5,99.5 37.5,99.5 35.5,99.5C 28.8454,96.5009 22.1787,93.5009 15.5,90.5C 22.6368,85.6161 30.6368,82.9494 39.5,82.5C 39.1373,81.8165 38.8039,81.1499 38.5,80.5 Z"/></g>
</svg>
