<?xml version="1.0" encoding="UTF-8"?>
<!DOCTYPE svg PUBLIC "-//W3C//DTD SVG 1.1//EN" "http://www.w3.org/Graphics/SVG/1.1/DTD/svg11.dtd">
<svg xmlns="http://www.w3.org/2000/svg" version="1.1" width="100px" height="100px" style="shape-rendering:geometricPrecision; text-rendering:geometricPrecision; image-rendering:optimizeQuality; fill-rule:evenodd; clip-rule:evenodd" xmlns:xlink="http://www.w3.org/1999/xlink">
<g><path style="opacity:1" fill="#eba29d" d="M 59.5,-0.5 C 61.1667,-0.5 62.8333,-0.5 64.5,-0.5C 66.1583,2.32834 67.4917,5.32834 68.5,8.5C 67.078,7.07501 65.4113,6.07501 63.5,5.5C 63.1667,5.5 62.8333,5.5 62.5,5.5C 61.9423,4.21009 60.9423,3.37675 59.5,3C 56.854,2.50258 54.1873,2.33591 51.5,2.5C 54.4766,2.09843 57.1433,1.09843 59.5,-0.5 Z"/></g>
<g><path style="opacity:1" fill="#dc6d67" d="M 64.5,-0.5 C 65.5,-0.5 66.5,-0.5 67.5,-0.5C 68.1667,2.5 68.8333,5.5 69.5,8.5C 69.5,8.83333 69.5,9.16667 69.5,9.5C 68.8333,9.5 68.5,9.16667 68.5,8.5C 67.4917,5.32834 66.1583,2.32834 64.5,-0.5 Z"/></g>
<g><path style="opacity:1" fill="#b11606" d="M 67.5,-0.5 C 73.1667,-0.5 78.8333,-0.5 84.5,-0.5C 83.2467,8.75431 78.2467,11.7543 69.5,8.5C 68.8333,5.5 68.1667,2.5 67.5,-0.5 Z"/></g>
<g><path style="opacity:1" fill="#9b120a" d="M 84.5,-0.5 C 85.8333,-0.5 87.1667,-0.5 88.5,-0.5C 89.1667,0.166667 89.8333,0.833333 90.5,1.5C 89.329,3.42134 87.9957,5.25467 86.5,7C 87.1476,8.43975 87.4809,9.93975 87.5,11.5C 89.9892,11.2978 92.3225,11.7978 94.5,13C 92.4614,15.553 90.2947,18.053 88,20.5C 87.5172,21.448 87.3505,22.448 87.5,23.5C 86.1667,23.5 84.8333,23.5 83.5,23.5C 83.3129,20.3095 81.6462,18.3095 78.5,17.5C 78.1667,16.5 77.5,15.8333 76.5,15.5C 76.1667,14.5 75.5,13.8333 74.5,13.5C 73.5,12.8333 72.5,12.1667 71.5,11.5C 71.1667,10.5 70.5,9.83333 69.5,9.5C 69.5,9.16667 69.5,8.83333 69.5,8.5C 78.2467,11.7543 83.2467,8.75431 84.5,-0.5 Z"/></g>
<g><path style="opacity:1" fill="#b21804" d="M 63.5,7.5 C 64.1667,7.5 64.5,7.83333 64.5,8.5C 65.0057,14.4686 64.0057,20.1353 61.5,25.5C 60.0664,28.0472 58.3998,30.3805 56.5,32.5C 55.1667,32.5 53.8333,32.5 52.5,32.5C 51.9687,35.1154 50.9687,36.7821 49.5,37.5C 47.983,34.4127 47.3163,31.0794 47.5,27.5C 46.1667,27.5 44.8333,27.5 43.5,27.5C 43.5,26.5 43.5,25.5 43.5,24.5C 41.6096,24.7035 40.1096,24.0368 39,22.5C 38.6667,20.1667 38.3333,17.8333 38,15.5C 37.2276,14.1509 36.0609,13.3176 34.5,13C 35.6174,11.1079 37.2841,10.2746 39.5,10.5C 40.5501,14.5372 43.2167,16.5372 47.5,16.5C 49.0253,21.996 52.6919,24.1626 58.5,23C 62.6928,18.7546 64.3594,13.5879 63.5,7.5 Z"/></g>
<g><path style="opacity:1" fill="#fef0eb" d="M 63.5,5.5 C 65.4113,6.07501 67.078,7.07501 68.5,8.5C 68.5,9.16667 68.8333,9.5 69.5,9.5C 70.5,9.83333 71.1667,10.5 71.5,11.5C 70.1441,13.2699 68.3108,14.6032 66,15.5C 65.8138,12.9644 65.3138,10.631 64.5,8.5C 64.5,7.83333 64.1667,7.5 63.5,7.5C 63.5,6.83333 63.5,6.16667 63.5,5.5 Z"/></g>
<g><path style="opacity:1" fill="#ac1804" d="M 51.5,2.5 C 54.1873,2.33591 56.854,2.50258 59.5,3C 60.9423,3.37675 61.9423,4.21009 62.5,5.5C 58.2883,3.92206 53.9549,3.42206 49.5,4C 49.0183,5.00836 48.8516,6.17503 49,7.5C 44.9086,5.81224 41.7419,6.81224 39.5,10.5C 37.2841,10.2746 35.6174,11.1079 34.5,13C 36.0609,13.3176 37.2276,14.1509 38,15.5C 38.3333,17.8333 38.6667,20.1667 39,22.5C 40.1096,24.0368 41.6096,24.7035 43.5,24.5C 43.5,25.5 43.5,26.5 43.5,27.5C 44.8333,27.5 46.1667,27.5 47.5,27.5C 47.3163,31.0794 47.983,34.4127 49.5,37.5C 48.2003,38.1079 46.8669,38.7745 45.5,39.5C 43.0492,38.6028 40.8825,38.6028 39,39.5C 38.6667,40.8333 38.3333,42.1667 38,43.5C 35.4418,39.4229 31.9418,36.7562 27.5,35.5C 27.5,34.1667 27.5,32.8333 27.5,31.5C 23.8388,31.6499 22.8388,30.1499 24.5,27C 22.9532,26.6666 21.6199,27.1666 20.5,28.5C 19.6143,27.675 19.281,26.675 19.5,25.5C 20.8333,23.1667 22.1667,20.8333 23.5,18.5C 31.3644,10.5686 40.6978,5.23527 51.5,2.5 Z"/></g>
<g><path style="opacity:1" fill="#bf1904" d="M 62.5,5.5 C 62.8333,5.5 63.1667,5.5 63.5,5.5C 63.5,6.16667 63.5,6.83333 63.5,7.5C 64.3594,13.5879 62.6928,18.7546 58.5,23C 52.6919,24.1626 49.0253,21.996 47.5,16.5C 43.2167,16.5372 40.5501,14.5372 39.5,10.5C 41.7419,6.81224 44.9086,5.81224 49,7.5C 48.8516,6.17503 49.0183,5.00836 49.5,4C 53.9549,3.42206 58.2883,3.92206 62.5,5.5 Z"/></g>
<g><path style="opacity:1" fill="#f9b5a5" d="M 64.5,8.5 C 65.3138,10.631 65.8138,12.9644 66,15.5C 68.3108,14.6032 70.1441,13.2699 71.5,11.5C 72.5,12.1667 73.5,12.8333 74.5,13.5C 74.3893,14.1174 74.056,14.6174 73.5,15C 71.5,15.3333 69.5,15.6667 67.5,16C 66.1772,16.8159 65.5106,17.9826 65.5,19.5C 64.8902,20.391 64.5569,21.391 64.5,22.5C 64.5,22.8333 64.5,23.1667 64.5,23.5C 63.6618,23.8417 63.3284,24.5084 63.5,25.5C 63.1667,25.5 62.8333,25.5 62.5,25.5C 62.1667,25.5 61.8333,25.5 61.5,25.5C 64.0057,20.1353 65.0057,14.4686 64.5,8.5 Z"/></g>
<g><path style="opacity:0.977" fill="#83120c" d="M 90.5,1.5 C 94.3527,3.20347 97.3527,5.87014 99.5,9.5C 99.5,16.8333 99.5,24.1667 99.5,31.5C 98.448,31.6495 97.448,31.4828 96.5,31C 93.3347,28.6653 90.3347,26.1653 87.5,23.5C 87.3505,22.448 87.5172,21.448 88,20.5C 90.2947,18.053 92.4614,15.553 94.5,13C 92.3225,11.7978 89.9892,11.2978 87.5,11.5C 87.4809,9.93975 87.1476,8.43975 86.5,7C 87.9957,5.25467 89.329,3.42134 90.5,1.5 Z"/></g>
<g><path style="opacity:1" fill="#e1765e" d="M 74.5,13.5 C 75.5,13.8333 76.1667,14.5 76.5,15.5C 72.7148,16.368 69.0481,17.7013 65.5,19.5C 65.5106,17.9826 66.1772,16.8159 67.5,16C 69.5,15.6667 71.5,15.3333 73.5,15C 74.056,14.6174 74.3893,14.1174 74.5,13.5 Z"/></g>
<g><path style="opacity:1" fill="#d54632" d="M 76.5,15.5 C 77.5,15.8333 78.1667,16.5 78.5,17.5C 78.3893,18.1174 78.056,18.6174 77.5,19C 72.8923,19.5358 68.559,20.7024 64.5,22.5C 64.5569,21.391 64.8902,20.391 65.5,19.5C 69.0481,17.7013 72.7148,16.368 76.5,15.5 Z"/></g>
<g><path style="opacity:0.765" fill="#fde2de" d="M 51.5,-0.5 C 54.1667,-0.5 56.8333,-0.5 59.5,-0.5C 57.1433,1.09843 54.4766,2.09843 51.5,2.5C 40.6978,5.23527 31.3644,10.5686 23.5,18.5C 14.189,25.7814 7.85565,35.1147 4.5,46.5C 3.51836,49.9619 3.18503,53.6286 3.5,57.5C 2.43236,58.4345 1.09903,58.7678 -0.5,58.5C -0.5,55.5 -0.5,52.5 -0.5,49.5C 4.06496,41.34 8.73163,33.1733 13.5,25C 20.2148,19.2821 26.5481,13.2821 32.5,7C 39.1123,4.94327 45.4456,2.44327 51.5,-0.5 Z"/></g>
<g><path style="opacity:1" fill="#a41704" d="M 19.5,25.5 C 19.281,26.675 19.6143,27.675 20.5,28.5C 21.6199,27.1666 22.9532,26.6666 24.5,27C 22.8388,30.1499 23.8388,31.6499 27.5,31.5C 27.5,32.8333 27.5,34.1667 27.5,35.5C 31.9418,36.7562 35.4418,39.4229 38,43.5C 38.3333,42.1667 38.6667,40.8333 39,39.5C 40.8825,38.6028 43.0492,38.6028 45.5,39.5C 46.8669,38.7745 48.2003,38.1079 49.5,37.5C 50.9687,36.7821 51.9687,35.1154 52.5,32.5C 53.8333,32.5 55.1667,32.5 56.5,32.5C 56.4431,33.609 56.1098,34.609 55.5,35.5C 53.5272,38.1395 51.1939,40.4728 48.5,42.5C 44.9601,42.3765 42.9601,44.0432 42.5,47.5C 39.5,47.5 36.5,47.5 33.5,47.5C 33.6882,49.1033 33.1882,50.4366 32,51.5C 29.6832,48.5166 27.0166,45.8499 24,43.5C 23.6905,42.2341 23.1905,41.0674 22.5,40C 20.5273,39.5045 18.5273,39.3379 16.5,39.5C 16.0445,36.7965 15.3779,34.1298 14.5,31.5C 16.1747,29.4691 17.8414,27.4691 19.5,25.5 Z"/></g>
<g><path style="opacity:1" fill="#ba1a0a" d="M 78.5,17.5 C 81.6462,18.3095 83.3129,20.3095 83.5,23.5C 80.8848,24.4339 80.2182,26.1006 81.5,28.5C 81.0233,29.4776 80.3567,30.3109 79.5,31C 74.4626,31.6631 69.4626,31.4964 64.5,30.5C 64.5,28.1667 64.5,25.8333 64.5,23.5C 64.5,23.1667 64.5,22.8333 64.5,22.5C 68.559,20.7024 72.8923,19.5358 77.5,19C 78.056,18.6174 78.3893,18.1174 78.5,17.5 Z"/></g>
<g><path style="opacity:1" fill="#a10e02" d="M 64.5,23.5 C 64.5,25.8333 64.5,28.1667 64.5,30.5C 69.4626,31.4964 74.4626,31.6631 79.5,31C 80.3567,30.3109 81.0233,29.4776 81.5,28.5C 80.2182,26.1006 80.8848,24.4339 83.5,23.5C 84.8333,23.5 86.1667,23.5 87.5,23.5C 88.7284,26.0751 90.3951,28.4084 92.5,30.5C 88.4005,31.7156 84.4005,33.2156 80.5,35C 79.565,37.3806 79.2317,39.8806 79.5,42.5C 75.8183,42.3347 72.1516,42.5014 68.5,43C 67.0999,44.8557 65.7665,46.689 64.5,48.5C 64.5,47.8333 64.1667,47.5 63.5,47.5C 63.7373,46.209 63.404,45.209 62.5,44.5C 62.5,42.5 62.5,40.5 62.5,38.5C 62.4672,34.1311 62.8005,29.7978 63.5,25.5C 63.3284,24.5084 63.6618,23.8417 64.5,23.5 Z"/></g>
<g><path style="opacity:1" fill="#9c3124" d="M 62.5,25.5 C 62.8333,25.5 63.1667,25.5 63.5,25.5C 62.8005,29.7978 62.4672,34.1311 62.5,38.5C 62.1667,38.5 61.8333,38.5 61.5,38.5C 61.6716,37.5084 61.3382,36.8417 60.5,36.5C 60.7506,32.7512 61.4172,29.0845 62.5,25.5 Z"/></g>
<g><path style="opacity:1" fill="#fee9e8" d="M 61.5,25.5 C 61.8333,25.5 62.1667,25.5 62.5,25.5C 61.4172,29.0845 60.7506,32.7512 60.5,36.5C 60.5,37.5 60.5,38.5 60.5,39.5C 58.396,39.7989 56.396,39.4656 54.5,38.5C 55.1272,37.5832 55.4606,36.5832 55.5,35.5C 56.1098,34.609 56.4431,33.609 56.5,32.5C 58.3998,30.3805 60.0664,28.0472 61.5,25.5 Z"/></g>
<g><path style="opacity:1" fill="#960a03" d="M 87.5,23.5 C 90.3347,26.1653 93.3347,28.6653 96.5,31C 97.448,31.4828 98.448,31.6495 99.5,31.5C 99.5,34.5 99.5,37.5 99.5,40.5C 98.5599,47.5071 97.5599,54.5071 96.5,61.5C 96.6621,59.4727 96.4955,57.4727 96,55.5C 95.323,57.689 94.1563,58.0224 92.5,56.5C 90.8976,62.7268 90.2309,69.0602 90.5,75.5C 88.8232,66.9804 87.8232,58.1471 87.5,49C 91.6618,44.9967 93.9952,40.1633 94.5,34.5C 92.1667,34.5 89.8333,34.5 87.5,34.5C 87.7328,39.1933 86.3995,43.3599 83.5,47C 81.0666,46.6393 78.5666,46.1393 76,45.5C 73.3333,45.1667 71.3333,46.1667 70,48.5C 68.04,56.1806 68.04,63.8472 70,71.5C 72.8039,73.9475 75.4706,73.9475 78,71.5C 78.5,72 79,72.5 79.5,73C 78.4238,74.7261 78.2571,76.5594 79,78.5C 80.7713,79.3041 82.2713,80.4708 83.5,82C 84.825,81.8516 85.9916,82.0183 87,82.5C 87.4935,84.1341 87.6602,85.8008 87.5,87.5C 85.5956,87.2624 84.2623,86.2624 83.5,84.5C 79.2293,81.1697 74.896,77.8364 70.5,74.5C 68.9848,77.3536 66.6514,79.0202 63.5,79.5C 65.8594,77.4484 67.1927,74.7818 67.5,71.5C 67.5,71.1667 67.5,70.8333 67.5,70.5C 67.6659,65.4889 67.4993,60.4889 67,55.5C 66.9633,53.0261 66.13,51.0261 64.5,49.5C 64.5,49.1667 64.5,48.8333 64.5,48.5C 65.7665,46.689 67.0999,44.8557 68.5,43C 72.1516,42.5014 75.8183,42.3347 79.5,42.5C 79.2317,39.8806 79.565,37.3806 80.5,35C 84.4005,33.2156 88.4005,31.7156 92.5,30.5C 90.3951,28.4084 88.7284,26.0751 87.5,23.5 Z"/></g>
<g><path style="opacity:1" fill="#911707" d="M 23.5,18.5 C 22.1667,20.8333 20.8333,23.1667 19.5,25.5C 17.8414,27.4691 16.1747,29.4691 14.5,31.5C 15.3779,34.1298 16.0445,36.7965 16.5,39.5C 18.5273,39.3379 20.5273,39.5045 22.5,40C 23.1905,41.0674 23.6905,42.2341 24,43.5C 27.0166,45.8499 29.6832,48.5166 32,51.5C 33.1882,50.4366 33.6882,49.1033 33.5,47.5C 36.5,47.5 39.5,47.5 42.5,47.5C 42.9601,44.0432 44.9601,42.3765 48.5,42.5C 44.4348,47.5683 39.7682,51.9016 34.5,55.5C 29.6592,58.9195 24.3259,61.2528 18.5,62.5C 19.9536,59.6001 18.9536,58.2668 15.5,58.5C 15.3794,52.596 12.546,48.596 7,46.5C 6.14825,47.5707 5.31491,48.5707 4.5,49.5C 4.5,48.5 4.5,47.5 4.5,46.5C 7.85565,35.1147 14.189,25.7814 23.5,18.5 Z"/></g>
<g><path style="opacity:1" fill="#fbc4b4" d="M 55.5,35.5 C 55.4606,36.5832 55.1272,37.5832 54.5,38.5C 56.396,39.4656 58.396,39.7989 60.5,39.5C 60.5,38.5 60.5,37.5 60.5,36.5C 61.3382,36.8417 61.6716,37.5084 61.5,38.5C 61.5858,39.4959 61.2524,40.3292 60.5,41C 57.8333,41.3333 55.1667,41.6667 52.5,42C 51.2899,43.0391 50.2899,44.2058 49.5,45.5C 48.1667,45.5 47.5,46.1667 47.5,47.5C 43.562,50.0985 39.8953,53.0985 36.5,56.5C 36.1583,55.6618 35.4916,55.3284 34.5,55.5C 39.7682,51.9016 44.4348,47.5683 48.5,42.5C 51.1939,40.4728 53.5272,38.1395 55.5,35.5 Z"/></g>
<g><path style="opacity:1" fill="#e18165" d="M 61.5,38.5 C 61.8333,38.5 62.1667,38.5 62.5,38.5C 62.5,40.5 62.5,42.5 62.5,44.5C 58.1018,44.2941 53.7685,44.6274 49.5,45.5C 50.2899,44.2058 51.2899,43.0391 52.5,42C 55.1667,41.6667 57.8333,41.3333 60.5,41C 61.2524,40.3292 61.5858,39.4959 61.5,38.5 Z"/></g>
<g><path style="opacity:1" fill="#d55236" d="M 62.5,44.5 C 63.404,45.209 63.7373,46.209 63.5,47.5C 58.0562,48.8836 52.3895,49.5503 46.5,49.5C 46.8333,48.8333 47.1667,48.1667 47.5,47.5C 47.5,46.1667 48.1667,45.5 49.5,45.5C 53.7685,44.6274 58.1018,44.2941 62.5,44.5 Z"/></g>
<g><path style="opacity:1" fill="#8c1005" d="M 90.5,75.5 C 91.9253,80.8105 93.2586,86.1439 94.5,91.5C 94.5,92.8333 94.5,94.1667 94.5,95.5C 88.1667,95.5 81.8333,95.5 75.5,95.5C 79.2984,94.5166 83.2984,94.1832 87.5,94.5C 89.5273,94.6621 91.5273,94.4955 93.5,94C 90.7412,92.4712 88.7412,90.3045 87.5,87.5C 87.6602,85.8008 87.4935,84.1341 87,82.5C 85.9916,82.0183 84.825,81.8516 83.5,82C 82.2713,80.4708 80.7713,79.3041 79,78.5C 78.2571,76.5594 78.4238,74.7261 79.5,73C 79,72.5 78.5,72 78,71.5C 75.4706,73.9475 72.8039,73.9475 70,71.5C 68.04,63.8472 68.04,56.1806 70,48.5C 71.3333,46.1667 73.3333,45.1667 76,45.5C 78.5666,46.1393 81.0666,46.6393 83.5,47C 86.3995,43.3599 87.7328,39.1933 87.5,34.5C 89.8333,34.5 92.1667,34.5 94.5,34.5C 93.9952,40.1633 91.6618,44.9967 87.5,49C 87.8232,58.1471 88.8232,66.9804 90.5,75.5 Z"/></g>
<g><path style="opacity:1" fill="#a93729" d="M 47.5,47.5 C 47.1667,48.1667 46.8333,48.8333 46.5,49.5C 43.1667,52.5 39.8333,55.5 36.5,58.5C 34.8333,60.1667 33.1667,61.8333 31.5,63.5C 32.0025,60.3315 33.6691,57.9981 36.5,56.5C 39.8953,53.0985 43.562,50.0985 47.5,47.5 Z"/></g>
<g><path style="opacity:1" fill="#b22614" d="M 18.5,62.5 C 16.3281,61.1989 13.9948,60.1989 11.5,59.5C 11.719,58.325 11.3857,57.325 10.5,56.5C 7.04345,55.3793 5.04345,53.046 4.5,49.5C 5.31491,48.5707 6.14825,47.5707 7,46.5C 12.546,48.596 15.3794,52.596 15.5,58.5C 18.9536,58.2668 19.9536,59.6001 18.5,62.5 Z"/></g>
<g><path style="opacity:1" fill="#cd6152" d="M 4.5,46.5 C 4.5,47.5 4.5,48.5 4.5,49.5C 5.04345,53.046 7.04345,55.3793 10.5,56.5C 11.3857,57.325 11.719,58.325 11.5,59.5C 13.9948,60.1989 16.3281,61.1989 18.5,62.5C 17.0813,63.4511 15.4147,63.7845 13.5,63.5C 13.5858,62.5041 13.2524,61.6708 12.5,61C 9.26039,60.2813 6.26039,59.1146 3.5,57.5C 3.18503,53.6286 3.51836,49.9619 4.5,46.5 Z"/></g>
<g><path style="opacity:1" fill="#b51709" d="M 63.5,47.5 C 64.1667,47.5 64.5,47.8333 64.5,48.5C 64.5,48.8333 64.5,49.1667 64.5,49.5C 63.3798,54.2776 64.0465,58.7776 66.5,63C 56.8207,64.3084 47.154,64.4751 37.5,63.5C 37.634,61.7085 37.3007,60.0418 36.5,58.5C 39.8333,55.5 43.1667,52.5 46.5,49.5C 52.3895,49.5503 58.0562,48.8836 63.5,47.5 Z"/></g>
<g><path style="opacity:0.929" fill="#dd745b" d="M -0.5,59.5 C 2.28503,58.9162 3.9517,59.9162 4.5,62.5C 2.95819,61.6993 1.29152,61.366 -0.5,61.5C -0.5,60.8333 -0.5,60.1667 -0.5,59.5 Z"/></g>
<g><path style="opacity:1" fill="#df9284" d="M 3.5,57.5 C 6.26039,59.1146 9.26039,60.2813 12.5,61C 13.2524,61.6708 13.5858,62.5041 13.5,63.5C 10.9512,63.6126 8.6179,62.9459 6.5,61.5C 5.61432,62.325 5.28099,63.325 5.5,64.5C 5.16667,64.5 4.83333,64.5 4.5,64.5C 4.5,63.8333 4.5,63.1667 4.5,62.5C 3.9517,59.9162 2.28503,58.9162 -0.5,59.5C -0.5,59.1667 -0.5,58.8333 -0.5,58.5C 1.09903,58.7678 2.43236,58.4345 3.5,57.5 Z"/></g>
<g><path style="opacity:1" fill="#a20d04" d="M 64.5,49.5 C 66.13,51.0261 66.9633,53.0261 67,55.5C 67.4993,60.4889 67.6659,65.4889 67.5,70.5C 59.9636,68.275 52.2969,67.1083 44.5,67C 45.3081,67.3076 45.9747,67.8076 46.5,68.5C 41.8041,69.7024 38.4708,72.5357 36.5,77C 37.6537,77.9138 37.487,78.7471 36,79.5C 35.8265,83.5408 35.3265,87.5408 34.5,91.5C 33.6114,93.007 32.6114,94.3403 31.5,95.5C 31.1667,95.5 30.8333,95.5 30.5,95.5C 31.793,88.5864 31.793,81.9197 30.5,75.5C 29.5,75.8333 28.8333,76.5 28.5,77.5C 29.6808,79.198 29.6808,80.8647 28.5,82.5C 26.6529,85.1015 24.6529,87.6015 22.5,90C 19.1093,92.3075 16.4427,91.6409 14.5,88C 13.552,87.5172 12.552,87.3505 11.5,87.5C 10.8333,83.1667 10.1667,78.8333 9.5,74.5C 9.83333,74.5 10.1667,74.5 10.5,74.5C 11.562,77.5156 12.7286,80.5156 14,83.5C 22.5652,88.1201 26.7319,85.4535 26.5,75.5C 28.2671,73.2084 29.2671,70.5418 29.5,67.5C 29.5569,66.391 29.8902,65.391 30.5,64.5C 30.5,63.8333 30.8333,63.5 31.5,63.5C 33.1667,61.8333 34.8333,60.1667 36.5,58.5C 37.3007,60.0418 37.634,61.7085 37.5,63.5C 47.154,64.4751 56.8207,64.3084 66.5,63C 64.0465,58.7776 63.3798,54.2776 64.5,49.5 Z"/></g>
<g><path style="opacity:1" fill="#fbe1da" d="M 34.5,55.5 C 35.4916,55.3284 36.1583,55.6618 36.5,56.5C 33.6691,57.9981 32.0025,60.3315 31.5,63.5C 30.8333,63.5 30.5,63.8333 30.5,64.5C 29.391,64.5569 28.391,64.8902 27.5,65.5C 21.6029,65.633 15.7695,66.2997 10,67.5C 8.86151,67.0109 7.69484,66.6775 6.5,66.5C 5.66175,66.1583 5.32842,65.4916 5.5,64.5C 5.28099,63.325 5.61432,62.325 6.5,61.5C 8.6179,62.9459 10.9512,63.6126 13.5,63.5C 15.4147,63.7845 17.0813,63.4511 18.5,62.5C 24.3259,61.2528 29.6592,58.9195 34.5,55.5 Z"/></g>
<g><path style="opacity:1" fill="#990b01" d="M 67.5,70.5 C 67.5,70.8333 67.5,71.1667 67.5,71.5C 61.2056,70.21 54.8723,69.3767 48.5,69C 47.1787,70.5445 47.5121,71.7112 49.5,72.5C 50.4742,74.7427 50.8076,77.076 50.5,79.5C 49.5,79.5 48.5,79.5 47.5,79.5C 47.5,82.1667 47.5,84.8333 47.5,87.5C 44.5,87.5 41.5,87.5 38.5,87.5C 39.7297,93.4852 37.3964,96.1518 31.5,95.5C 32.6114,94.3403 33.6114,93.007 34.5,91.5C 35.3265,87.5408 35.8265,83.5408 36,79.5C 37.487,78.7471 37.6537,77.9138 36.5,77C 38.4708,72.5357 41.8041,69.7024 46.5,68.5C 45.9747,67.8076 45.3081,67.3076 44.5,67C 52.2969,67.1083 59.9636,68.275 67.5,70.5 Z"/></g>
<g><path style="opacity:1" fill="#f4bbaa" d="M 27.5,65.5 C 26.6661,66.7479 25.3328,67.4146 23.5,67.5C 18.1931,68.2756 12.8598,68.6089 7.5,68.5C 7.16667,67.8333 6.83333,67.1667 6.5,66.5C 7.69484,66.6775 8.86151,67.0109 10,67.5C 15.7695,66.2997 21.6029,65.633 27.5,65.5 Z"/></g>
<g><path style="opacity:1" fill="#ee9782" d="M 30.5,64.5 C 29.8902,65.391 29.5569,66.391 29.5,67.5C 28.609,68.1098 27.609,68.4431 26.5,68.5C 20.5451,69.3635 14.5451,69.6968 8.5,69.5C 7.83333,69.5 7.5,69.1667 7.5,68.5C 12.8598,68.6089 18.1931,68.2756 23.5,67.5C 25.3328,67.4146 26.6661,66.7479 27.5,65.5C 28.391,64.8902 29.391,64.5569 30.5,64.5 Z"/></g>
<g><path style="opacity:0.828" fill="#c72c18" d="M -0.5,61.5 C 1.29152,61.366 2.95819,61.6993 4.5,62.5C 4.5,63.1667 4.5,63.8333 4.5,64.5C 4.66212,66.5273 4.49546,68.5273 4,70.5C 2.40592,72.5264 0.905922,74.5264 -0.5,76.5C -0.5,71.5 -0.5,66.5 -0.5,61.5 Z"/></g>
<g><path style="opacity:1" fill="#e27b5d" d="M 26.5,68.5 C 24.9739,70.13 22.9739,70.9633 20.5,71C 16.8484,71.4986 13.1817,71.6653 9.5,71.5C 8.66175,71.1583 8.32842,70.4916 8.5,69.5C 14.5451,69.6968 20.5451,69.3635 26.5,68.5 Z"/></g>
<g><path style="opacity:0.999" fill="#910f04" d="M 67.5,71.5 C 67.1927,74.7818 65.8594,77.4484 63.5,79.5C 63.5858,80.4959 63.2524,81.3292 62.5,82C 57.8398,83.9947 53.5065,86.4947 49.5,89.5C 50.0253,90.1924 50.6919,90.6924 51.5,91C 58.1556,91.7112 64.8223,92.2112 71.5,92.5C 77.0092,92.8749 82.3425,93.5416 87.5,94.5C 83.2984,94.1832 79.2984,94.5166 75.5,95.5C 63.3979,96.7801 51.3979,98.1134 39.5,99.5C 36.1667,99.5 32.8333,99.5 29.5,99.5C 29.2322,97.901 29.5655,96.5676 30.5,95.5C 30.8333,95.5 31.1667,95.5 31.5,95.5C 37.3964,96.1518 39.7297,93.4852 38.5,87.5C 41.5,87.5 44.5,87.5 47.5,87.5C 47.5,84.8333 47.5,82.1667 47.5,79.5C 48.5,79.5 49.5,79.5 50.5,79.5C 50.8076,77.076 50.4742,74.7427 49.5,72.5C 47.5121,71.7112 47.1787,70.5445 48.5,69C 54.8723,69.3767 61.2056,70.21 67.5,71.5 Z"/></g>
<g><path style="opacity:1" fill="#e3593d" d="M 29.5,67.5 C 29.2671,70.5418 28.2671,73.2084 26.5,75.5C 21.1489,74.7753 15.8155,74.4419 10.5,74.5C 10.1667,74.5 9.83333,74.5 9.5,74.5C 9.5,73.5 9.5,72.5 9.5,71.5C 13.1817,71.6653 16.8484,71.4986 20.5,71C 22.9739,70.9633 24.9739,70.13 26.5,68.5C 27.609,68.4431 28.609,68.1098 29.5,67.5 Z"/></g>
<g><path style="opacity:1" fill="#b0120d" d="M 83.5,84.5 C 81.8439,83.8535 80.1772,83.1869 78.5,82.5C 75.6566,83.7705 72.8232,83.7705 70,82.5C 67.9534,83.6094 65.7867,84.2761 63.5,84.5C 63.5,86.8333 63.5,89.1667 63.5,91.5C 66.3854,91.1936 69.0521,91.5269 71.5,92.5C 64.8223,92.2112 58.1556,91.7112 51.5,91C 50.6919,90.6924 50.0253,90.1924 49.5,89.5C 53.5065,86.4947 57.8398,83.9947 62.5,82C 63.2524,81.3292 63.5858,80.4959 63.5,79.5C 66.6514,79.0202 68.9848,77.3536 70.5,74.5C 74.896,77.8364 79.2293,81.1697 83.5,84.5 Z"/></g>
<g><path style="opacity:1" fill="#bd241b" d="M 96.5,61.5 C 96.1605,71.6736 95.4939,81.6736 94.5,91.5C 93.2586,86.1439 91.9253,80.8105 90.5,75.5C 90.2309,69.0602 90.8976,62.7268 92.5,56.5C 94.1563,58.0224 95.323,57.689 96,55.5C 96.4955,57.4727 96.6621,59.4727 96.5,61.5 Z"/></g>
<g><path style="opacity:1" fill="#a2110a" d="M 4.5,64.5 C 4.83333,64.5 5.16667,64.5 5.5,64.5C 5.32842,65.4916 5.66175,66.1583 6.5,66.5C 6.83333,67.1667 7.16667,67.8333 7.5,68.5C 7.5,69.1667 7.83333,69.5 8.5,69.5C 8.32842,70.4916 8.66175,71.1583 9.5,71.5C 9.5,72.5 9.5,73.5 9.5,74.5C 10.1667,78.8333 10.8333,83.1667 11.5,87.5C 12.552,87.3505 13.552,87.5172 14.5,88C 16.4427,91.6409 19.1093,92.3075 22.5,90C 24.6529,87.6015 26.6529,85.1015 28.5,82.5C 29.6808,80.8647 29.6808,79.198 28.5,77.5C 28.8333,76.5 29.5,75.8333 30.5,75.5C 31.793,81.9197 31.793,88.5864 30.5,95.5C 29.5655,96.5676 29.2322,97.901 29.5,99.5C 25.8333,99.5 22.1667,99.5 18.5,99.5C 18.305,93.14 14.9716,89.9733 8.5,90C 8.00186,88.8419 7.16853,88.0085 6,87.5C 4.4228,88.5515 2.9228,89.5515 1.5,90.5C 0.833333,89.8333 0.166667,89.1667 -0.5,88.5C -0.5,84.5 -0.5,80.5 -0.5,76.5C 0.905922,74.5264 2.40592,72.5264 4,70.5C 4.49546,68.5273 4.66212,66.5273 4.5,64.5 Z"/></g>
<g><path style="opacity:1" fill="#cd2c1d" d="M 10.5,74.5 C 15.8155,74.4419 21.1489,74.7753 26.5,75.5C 26.7319,85.4535 22.5652,88.1201 14,83.5C 12.7286,80.5156 11.562,77.5156 10.5,74.5 Z"/></g>
<g><path style="opacity:1" fill="#ce2319" d="M 83.5,84.5 C 84.2623,86.2624 85.5956,87.2624 87.5,87.5C 88.7412,90.3045 90.7412,92.4712 93.5,94C 91.5273,94.4955 89.5273,94.6621 87.5,94.5C 82.3425,93.5416 77.0092,92.8749 71.5,92.5C 69.0521,91.5269 66.3854,91.1936 63.5,91.5C 63.5,89.1667 63.5,86.8333 63.5,84.5C 65.7867,84.2761 67.9534,83.6094 70,82.5C 72.8232,83.7705 75.6566,83.7705 78.5,82.5C 80.1772,83.1869 81.8439,83.8535 83.5,84.5 Z"/></g>
<g><path style="opacity:0.729" fill="#92180e" d="M 18.5,99.5 C 15.8333,99.5 13.1667,99.5 10.5,99.5C 8.21733,97.903 5.884,96.2363 3.5,94.5C 2.36977,93.3777 1.70311,92.0443 1.5,90.5C 2.9228,89.5515 4.4228,88.5515 6,87.5C 7.16853,88.0085 8.00186,88.8419 8.5,90C 14.9716,89.9733 18.305,93.14 18.5,99.5 Z"/></g>
</svg>
