<?xml version="1.0" encoding="UTF-8"?>
<!DOCTYPE svg PUBLIC "-//W3C//DTD SVG 1.1//EN" "http://www.w3.org/Graphics/SVG/1.1/DTD/svg11.dtd">
<svg xmlns="http://www.w3.org/2000/svg" version="1.1" width="100px" height="100px" style="shape-rendering:geometricPrecision; text-rendering:geometricPrecision; image-rendering:optimizeQuality; fill-rule:evenodd; clip-rule:evenodd" xmlns:xlink="http://www.w3.org/1999/xlink">
<g><path style="opacity:0.997" fill="#fc7f2c" d="M 78.5,-0.5 C 80.5,-0.5 82.5,-0.5 84.5,-0.5C 87.5912,4.01367 90.9245,8.347 94.5,12.5C 91.336,14.8975 87.6694,16.0641 83.5,16C 82.8742,16.7504 82.3742,17.5838 82,18.5C 81.3292,17.7476 80.4959,17.4142 79.5,17.5C 71.0097,16.6704 62.343,16.1704 53.5,16C 56.8168,15.5017 60.1501,15.335 63.5,15.5C 63.238,14.0222 63.5713,12.6888 64.5,11.5C 66.5311,10.4613 67.8645,8.79463 68.5,6.5C 73.8612,8.18881 76.5278,6.52214 76.5,1.5C 77.1667,0.833333 77.8333,0.166667 78.5,-0.5 Z"/></g>
<g><path style="opacity:0.963" fill="#fa8530" d="M 30.5,-0.5 C 31.8333,-0.5 33.1667,-0.5 34.5,-0.5C 40.9859,2.66063 47.4859,5.99396 54,9.5C 61.3168,6.29652 68.8168,3.62985 76.5,1.5C 76.5278,6.52214 73.8612,8.18881 68.5,6.5C 67.8645,8.79463 66.5311,10.4613 64.5,11.5C 63.5713,12.6888 63.238,14.0222 63.5,15.5C 60.1501,15.335 56.8168,15.5017 53.5,16C 62.343,16.1704 71.0097,16.6704 79.5,17.5C 69.8276,17.6665 60.1609,17.4998 50.5,17C 49.7562,15.9614 48.7562,15.4614 47.5,15.5C 43.7848,13.9572 40.4515,11.7906 37.5,9C 34.1508,8.61239 30.8175,8.77906 27.5,9.5C 27.9236,5.98816 28.9236,2.65483 30.5,-0.5 Z"/></g>
<g><path style="opacity:1" fill="#ab34ac" d="M 25.5,10.5 C 25.8417,9.66175 26.5084,9.32842 27.5,9.5C 31.0208,10.1663 34.6875,10.8329 38.5,11.5C 40.511,14.1689 43.1777,15.5022 46.5,15.5C 37.7129,17.156 28.7129,18.156 19.5,18.5C 18.5151,22.6344 18.1818,26.9677 18.5,31.5C 18.1667,31.5 17.8333,31.5 17.5,31.5C 13.8138,35.0208 9.98043,38.3541 6,41.5C 3.95339,42.6094 1.78672,43.2761 -0.5,43.5C -0.5,40.1667 -0.5,36.8333 -0.5,33.5C 3.41542,31.2567 6.74875,28.2567 9.5,24.5C 11.7466,23.6258 14.0799,23.2924 16.5,23.5C 16.1043,20.9556 16.771,18.7889 18.5,17C 21.1677,16.433 23.8344,15.933 26.5,15.5C 26.7845,13.5853 26.4511,11.9187 25.5,10.5 Z"/></g>
<g><path style="opacity:1" fill="#b84a85" d="M 47.5,15.5 C 47.1667,15.5 46.8333,15.5 46.5,15.5C 43.1777,15.5022 40.511,14.1689 38.5,11.5C 34.6875,10.8329 31.0208,10.1663 27.5,9.5C 30.8175,8.77906 34.1508,8.61239 37.5,9C 40.4515,11.7906 43.7848,13.9572 47.5,15.5 Z"/></g>
<g><path style="opacity:1" fill="#9238c9" d="M 25.5,10.5 C 26.4511,11.9187 26.7845,13.5853 26.5,15.5C 23.8344,15.933 21.1677,16.433 18.5,17C 16.771,18.7889 16.1043,20.9556 16.5,23.5C 14.0799,23.2924 11.7466,23.6258 9.5,24.5C 6.74875,28.2567 3.41542,31.2567 -0.5,33.5C -0.5,27.8333 -0.5,22.1667 -0.5,16.5C 8.11698,14.376 16.7836,12.376 25.5,10.5 Z"/></g>
<g><path style="opacity:1" fill="#933f86" d="M 46.5,15.5 C 46.8333,15.5 47.1667,15.5 47.5,15.5C 48.1667,16.5 48.8333,17.5 49.5,18.5C 39.5,18.5 29.5,18.5 19.5,18.5C 28.7129,18.156 37.7129,17.156 46.5,15.5 Z"/></g>
<g><path style="opacity:1" fill="#ce784d" d="M 47.5,15.5 C 48.7562,15.4614 49.7562,15.9614 50.5,17C 60.1609,17.4998 69.8276,17.6665 79.5,17.5C 79.5,17.8333 79.5,18.1667 79.5,18.5C 69.5,18.5 59.5,18.5 49.5,18.5C 48.8333,17.5 48.1667,16.5 47.5,15.5 Z"/></g>
<g><path style="opacity:0.912" fill="#fc6c36" d="M 94.5,12.5 C 96.3947,13.973 98.0613,15.6397 99.5,17.5C 99.5,19.8333 99.5,22.1667 99.5,24.5C 94.189,23.2956 88.8557,23.2956 83.5,24.5C 83.7678,26.099 83.4345,27.4324 82.5,28.5C 82.7847,25.1709 82.1181,22.1709 80.5,19.5C 80.5,18.8333 80.1667,18.5 79.5,18.5C 79.5,18.1667 79.5,17.8333 79.5,17.5C 80.4959,17.4142 81.3292,17.7476 82,18.5C 82.3742,17.5838 82.8742,16.7504 83.5,16C 87.6694,16.0641 91.336,14.8975 94.5,12.5 Z"/></g>
<g><path style="opacity:1" fill="#32002b" d="M 19.5,18.5 C 29.5,18.5 39.5,18.5 49.5,18.5C 49.5,18.8333 49.5,19.1667 49.5,19.5C 39.5,19.5 29.5,19.5 19.5,19.5C 19.5,23.5 19.5,27.5 19.5,31.5C 19.1667,31.5 18.8333,31.5 18.5,31.5C 18.1818,26.9677 18.5151,22.6344 19.5,18.5 Z"/></g>
<g><path style="opacity:0.997" fill="#060505" d="M 79.5,72.5 C 79.5,73.1667 79.8333,73.5 80.5,73.5C 80.5,74.1667 80.8333,74.5 81.5,74.5C 82.8333,80.5 80.5,82.8333 74.5,81.5C 73.8333,81.1667 73.1667,80.8333 72.5,80.5C 55.1667,79.8333 37.8333,79.1667 20.5,78.5C 20.5,59.1667 20.5,39.8333 20.5,20.5C 39.8333,20.5 59.1667,20.5 78.5,20.5C 78.17,38.008 78.5033,55.3414 79.5,72.5 Z"/></g>
<g><path style="opacity:1" fill="#490804" d="M 49.5,19.5 C 49.5,19.1667 49.5,18.8333 49.5,18.5C 59.5,18.5 69.5,18.5 79.5,18.5C 80.1667,18.5 80.5,18.8333 80.5,19.5C 80.5,24.8333 80.5,30.1667 80.5,35.5C 80.5,48.1667 80.5,60.8333 80.5,73.5C 79.8333,73.5 79.5,73.1667 79.5,72.5C 79.5,54.8333 79.5,37.1667 79.5,19.5C 69.5,19.5 59.5,19.5 49.5,19.5 Z"/></g>
<g><path style="opacity:1" fill="#e36948" d="M 80.5,19.5 C 82.1181,22.1709 82.7847,25.1709 82.5,28.5C 82.5,30.8333 82.5,33.1667 82.5,35.5C 82.1667,35.5 81.8333,35.5 81.5,35.5C 81.1667,35.5 80.8333,35.5 80.5,35.5C 80.5,30.1667 80.5,24.8333 80.5,19.5 Z"/></g>
<g><path style="opacity:1" fill="#150004" d="M 49.5,19.5 C 59.5,19.5 69.5,19.5 79.5,19.5C 79.5,37.1667 79.5,54.8333 79.5,72.5C 78.5033,55.3414 78.17,38.008 78.5,20.5C 59.1667,20.5 39.8333,20.5 20.5,20.5C 20.5,39.8333 20.5,59.1667 20.5,78.5C 19.5037,63.0089 19.1704,47.3422 19.5,31.5C 19.5,27.5 19.5,23.5 19.5,19.5C 29.5,19.5 39.5,19.5 49.5,19.5 Z"/></g>
<g><path style="opacity:1" fill="#f6f6f6" d="M 49.5,26.5 C 51.5273,26.3379 53.5273,26.5045 55.5,27C 57.6667,30.5 59.8333,34 62,37.5C 64.0414,33.9162 66.208,30.4162 68.5,27C 70.4727,26.5045 72.4727,26.3379 74.5,26.5C 74.5,34.8333 74.5,43.1667 74.5,51.5C 72.8333,51.5 71.1667,51.5 69.5,51.5C 69.8275,46.456 69.4941,41.456 68.5,36.5C 67.8933,36.6236 67.56,36.9569 67.5,37.5C 65.6778,40.4721 63.8445,43.4721 62,46.5C 59.6667,43.1667 57.3333,39.8333 55,36.5C 54.5007,41.4889 54.3341,46.4889 54.5,51.5C 52.8333,51.5 51.1667,51.5 49.5,51.5C 49.5,43.1667 49.5,34.8333 49.5,26.5 Z"/></g>
<g><path style="opacity:1" fill="#f2f2f2" d="M 24.5,26.5 C 29.5111,26.3341 34.5111,26.5007 39.5,27C 44.9242,29.017 46.7575,32.8503 45,38.5C 44.0267,40.64 42.5267,42.3067 40.5,43.5C 42.3056,46.472 44.3056,49.3053 46.5,52C 44.1667,52.6667 41.8333,52.6667 39.5,52C 37.8333,49.6667 36.1667,47.3333 34.5,45C 32.8659,44.5065 31.1992,44.3398 29.5,44.5C 29.5,47.1667 29.5,49.8333 29.5,52.5C 27.8333,52.5 26.1667,52.5 24.5,52.5C 24.5,43.8333 24.5,35.1667 24.5,26.5 Z"/></g>
<g><path style="opacity:1" fill="#0c0c0c" d="M 37.5,32.5 C 41.0289,33.6092 41.3622,35.4425 38.5,38C 35.854,38.4974 33.1873,38.6641 30.5,38.5C 30.5,36.5 30.5,34.5 30.5,32.5C 32.8333,32.5 35.1667,32.5 37.5,32.5 Z"/></g>
<g><path style="opacity:1" fill="#8c8d8d" d="M 37.5,32.5 C 35.1667,32.5 32.8333,32.5 30.5,32.5C 30.5,34.5 30.5,36.5 30.5,38.5C 29.5318,36.3926 29.1984,34.0593 29.5,31.5C 32.3854,31.1936 35.0521,31.5269 37.5,32.5 Z"/></g>
<g><path style="opacity:1" fill="#fd5a3b" d="M 99.5,24.5 C 99.5,25.1667 99.5,25.8333 99.5,26.5C 98.8333,27.5 98.1667,28.5 97.5,29.5C 95.8235,30.1834 95.1568,31.5168 95.5,33.5C 92.0155,33.6905 88.8488,34.6905 86,36.5C 84.9887,35.6634 83.8221,35.33 82.5,35.5C 82.5,33.1667 82.5,30.8333 82.5,28.5C 83.4345,27.4324 83.7678,26.099 83.5,24.5C 88.8557,23.2956 94.189,23.2956 99.5,24.5 Z"/></g>
<g><path style="opacity:1" fill="#fa4744" d="M 97.5,29.5 C 97.8412,33.1595 97.1745,36.4928 95.5,39.5C 94.596,40.209 94.2627,41.209 94.5,42.5C 89.1366,41.5577 84.9699,43.2244 82,47.5C 81.5012,43.5138 81.3345,39.5138 81.5,35.5C 81.8333,35.5 82.1667,35.5 82.5,35.5C 83.8221,35.33 84.9887,35.6634 86,36.5C 88.8488,34.6905 92.0155,33.6905 95.5,33.5C 95.1568,31.5168 95.8235,30.1834 97.5,29.5 Z"/></g>
<g><path style="opacity:1" fill="#a5a5a5" d="M 67.5,37.5 C 67.56,36.9569 67.8933,36.6236 68.5,36.5C 69.4941,41.456 69.8275,46.456 69.5,51.5C 71.1667,51.5 72.8333,51.5 74.5,51.5C 72.7354,52.4614 70.7354,52.7947 68.5,52.5C 68.8205,47.3054 68.4872,42.3054 67.5,37.5 Z"/></g>
<g><path style="opacity:1" fill="#c92c8d" d="M 17.5,31.5 C 17.8134,34.2469 17.48,36.9135 16.5,39.5C 11.7612,42.5311 7.42782,46.0311 3.5,50C 2.25501,50.7914 0.921673,51.2914 -0.5,51.5C -0.5,48.8333 -0.5,46.1667 -0.5,43.5C 1.78672,43.2761 3.95339,42.6094 6,41.5C 9.98043,38.3541 13.8138,35.0208 17.5,31.5 Z"/></g>
<g><path style="opacity:1" fill="#a6a6a6" d="M 49.5,26.5 C 49.5,34.8333 49.5,43.1667 49.5,51.5C 51.1667,51.5 52.8333,51.5 54.5,51.5C 52.7354,52.4614 50.7354,52.7947 48.5,52.5C 48.1736,43.6506 48.507,34.9839 49.5,26.5 Z"/></g>
<g><path style="opacity:1" fill="#d62b72" d="M 17.5,31.5 C 17.8333,31.5 18.1667,31.5 18.5,31.5C 18.5,47.5 18.5,63.5 18.5,79.5C 17.8334,68.9924 17.1667,58.3258 16.5,47.5C 11.2824,51.9371 5.61571,55.6037 -0.5,58.5C -0.5,56.1667 -0.5,53.8333 -0.5,51.5C 0.921673,51.2914 2.25501,50.7914 3.5,50C 7.42782,46.0311 11.7612,42.5311 16.5,39.5C 17.48,36.9135 17.8134,34.2469 17.5,31.5 Z"/></g>
<g><path style="opacity:0.939" fill="#f32950" d="M 80.5,35.5 C 80.8333,35.5 81.1667,35.5 81.5,35.5C 81.3345,39.5138 81.5012,43.5138 82,47.5C 84.9699,43.2244 89.1366,41.5577 94.5,42.5C 94.2627,41.209 94.596,40.209 95.5,39.5C 93.9775,51.2548 91.9775,62.9215 89.5,74.5C 86.8333,74.5 84.1667,74.5 81.5,74.5C 80.8333,74.5 80.5,74.1667 80.5,73.5C 80.5,60.8333 80.5,48.1667 80.5,35.5 Z"/></g>
<g><path style="opacity:1" fill="#4c040c" d="M 18.5,31.5 C 18.8333,31.5 19.1667,31.5 19.5,31.5C 19.1704,47.3422 19.5037,63.0089 20.5,78.5C 37.8333,79.1667 55.1667,79.8333 72.5,80.5C 58.5,80.5 44.5,80.5 30.5,80.5C 26.2984,80.8168 22.2984,80.4834 18.5,79.5C 18.5,63.5 18.5,47.5 18.5,31.5 Z"/></g>
<g><path style="opacity:1" fill="#e9e9e9" d="M 24.5,68.5 C 32.1667,68.5 39.8333,68.5 47.5,68.5C 47.5,69.8333 47.5,71.1667 47.5,72.5C 39.8333,72.5 32.1667,72.5 24.5,72.5C 24.5,71.1667 24.5,69.8333 24.5,68.5 Z"/></g>
<g><path style="opacity:0.963" fill="#f72453" d="M 18.5,79.5 C 22.2984,80.4834 26.2984,80.8168 30.5,80.5C 30.5,81.1667 30.8333,81.5 31.5,81.5C 31.5,81.8333 31.5,82.1667 31.5,82.5C 28.7531,82.1866 26.0865,82.52 23.5,83.5C 20.9485,86.8996 17.9485,89.5663 14.5,91.5C 9.5,84.8333 4.5,78.1667 -0.5,71.5C -0.5,67.1667 -0.5,62.8333 -0.5,58.5C 5.61571,55.6037 11.2824,51.9371 16.5,47.5C 17.1667,58.3258 17.8334,68.9924 18.5,79.5 Z"/></g>
<g><path style="opacity:0.986" fill="#f8832e" d="M 30.5,80.5 C 44.5,80.5 58.5,80.5 72.5,80.5C 73.1667,80.8333 73.8333,81.1667 74.5,81.5C 75.7541,85.1756 77.4207,88.6756 79.5,92C 63.3538,94.3994 47.3538,96.8994 31.5,99.5C 29.8333,99.5 28.1667,99.5 26.5,99.5C 28.2484,94.7087 31.4151,91.0421 36,88.5C 36.7121,84.2227 39.2121,82.056 43.5,82C 39.5138,81.5012 35.5138,81.3345 31.5,81.5C 30.8333,81.5 30.5,81.1667 30.5,80.5 Z"/></g>
<g><path style="opacity:1" fill="#fc6536" d="M 31.5,81.5 C 35.5138,81.3345 39.5138,81.5012 43.5,82C 39.2121,82.056 36.7121,84.2227 36,88.5C 31.4151,91.0421 28.2484,94.7087 26.5,99.5C 24.1667,99.5 21.8333,99.5 19.5,99.5C 18.2485,97.9991 17.2485,96.3325 16.5,94.5C 18.9063,92.7653 21.2396,90.7653 23.5,88.5C 24.7287,87.7189 26.062,87.2189 27.5,87C 28.3574,84.9812 29.6908,83.4812 31.5,82.5C 31.5,82.1667 31.5,81.8333 31.5,81.5 Z"/></g>
<g><path style="opacity:1" fill="#fc4443" d="M 31.5,82.5 C 29.6908,83.4812 28.3574,84.9812 27.5,87C 26.062,87.2189 24.7287,87.7189 23.5,88.5C 21.2396,90.7653 18.9063,92.7653 16.5,94.5C 15.5987,93.7095 14.9321,92.7095 14.5,91.5C 17.9485,89.5663 20.9485,86.8996 23.5,83.5C 26.0865,82.52 28.7531,82.1866 31.5,82.5 Z"/></g>
</svg>
