<?xml version="1.0" encoding="UTF-8"?>
<!DOCTYPE svg PUBLIC "-//W3C//DTD SVG 1.1//EN" "http://www.w3.org/Graphics/SVG/1.1/DTD/svg11.dtd">
<svg xmlns="http://www.w3.org/2000/svg" version="1.1" width="100px" height="100px" style="shape-rendering:geometricPrecision; text-rendering:geometricPrecision; image-rendering:optimizeQuality; fill-rule:evenodd; clip-rule:evenodd" xmlns:xlink="http://www.w3.org/1999/xlink">
<g><path style="opacity:0.969" fill="#e7eff6" d="M 39.5,-0.5 C 46.1667,-0.5 52.8333,-0.5 59.5,-0.5C 71.5657,1.69641 81.2323,7.69641 88.5,17.5C 90.7033,24.1096 92.7033,30.7763 94.5,37.5C 94.1667,37.5 93.8333,37.5 93.5,37.5C 89.3947,23.5529 80.728,13.3862 67.5,7C 63.2464,5.68589 58.913,4.85256 54.5,4.5C 52.6965,3.83798 50.6965,3.50465 48.5,3.5C 44.8832,3.39809 41.5499,4.06476 38.5,5.5C 27.0454,7.55403 18.3787,13.554 12.5,23.5C 10.7376,24.2623 9.73758,25.5956 9.5,27.5C 6.6075,32.3898 4.94083,37.7231 4.5,43.5C 3.51658,47.2984 3.18325,51.2984 3.5,55.5C 1.95496,54.7703 1.12162,53.437 1,51.5C 0.500847,46.8452 0.334181,42.1785 0.5,37.5C 5.63484,16.6978 18.6348,4.03113 39.5,-0.5 Z"/></g>
<g><path style="opacity:1" fill="#76aeeb" d="M 54.5,4.5 C 49.1383,4.47245 43.8049,4.80578 38.5,5.5C 41.5499,4.06476 44.8832,3.39809 48.5,3.5C 50.6965,3.50465 52.6965,3.83798 54.5,4.5 Z"/></g>
<g><path style="opacity:1" fill="#4090de" d="M 54.5,4.5 C 58.913,4.85256 63.2464,5.68589 67.5,7C 80.728,13.3862 89.3947,23.5529 93.5,37.5C 93.5,38.8333 93.5,40.1667 93.5,41.5C 92.5,41.5 91.5,41.5 90.5,41.5C 88.5992,41.5668 86.7659,41.2335 85,40.5C 83.7387,40.7591 82.7387,41.4258 82,42.5C 81.5172,41.552 81.3505,40.552 81.5,39.5C 80.7915,36.9037 81.1248,34.237 82.5,31.5C 83.8149,30.5244 85.1482,29.5244 86.5,28.5C 86,28.1667 85.5,27.8333 85,27.5C 82.1733,30.1728 79.0067,30.8394 75.5,29.5C 75.8333,28.1667 76.1667,26.8333 76.5,25.5C 77.7095,25.0679 78.7095,24.4013 79.5,23.5C 80.4778,23.189 81.1445,22.5223 81.5,21.5C 80.1667,20.8333 78.8333,20.1667 77.5,19.5C 78.6293,17.4706 78.1293,17.1373 76,18.5C 75.5172,19.448 75.3505,20.448 75.5,21.5C 74.205,22.4884 72.8717,23.4884 71.5,24.5C 71.1779,20.6496 72.5113,17.483 75.5,15C 73.5826,15.0275 71.916,15.8608 70.5,17.5C 69.6527,15.939 69.9861,14.439 71.5,13C 70.2068,12.51 68.8734,12.3433 67.5,12.5C 67.631,11.7611 67.4643,11.0944 67,10.5C 64.6408,13.0376 63.1408,12.3709 62.5,8.5C 61.8933,8.62358 61.56,8.95691 61.5,9.5C 60.2652,9.27858 59.2652,8.61191 58.5,7.5C 56.9378,11.3926 55.6045,11.2259 54.5,7C 53.1807,6.80503 51.8474,6.97169 50.5,7.5C 49.8333,6.16667 49.1667,6.16667 48.5,7.5C 45.8296,6.83416 43.3296,6.83416 41,7.5C 40.5026,10.146 40.3359,12.8127 40.5,15.5C 36.5472,15.71 33.7139,14.0433 32,10.5C 26.3109,13.7605 26.6443,15.7605 33,16.5C 32.8657,18.1893 32.3657,19.856 31.5,21.5C 28.9607,19.4697 26.6274,17.1364 24.5,14.5C 24.1667,14.6667 23.8333,14.8333 23.5,15C 24.8825,16.2708 25.8825,17.7708 26.5,19.5C 26.6309,20.3764 26.2975,21.0431 25.5,21.5C 24.4182,19.2163 22.7516,18.0496 20.5,18C 21.731,19.1827 21.731,20.3493 20.5,21.5C 19.3914,20.4104 18.3914,20.4104 17.5,21.5C 21.6122,27.2029 20.7788,27.8695 15,23.5C 13.1739,24.0104 13.0072,24.8438 14.5,26C 13.5,26.6667 12.5,26.6667 11.5,26C 12.2524,25.3292 12.5858,24.4959 12.5,23.5C 18.3787,13.554 27.0454,7.55403 38.5,5.5C 43.8049,4.80578 49.1383,4.47245 54.5,4.5 Z"/></g>
<g><path style="opacity:1" fill="#5bbcf0" d="M 67.5,12.5 C 66.3501,14.6035 65.0167,16.6035 63.5,18.5C 62.5109,15.5623 61.8442,12.5623 61.5,9.5C 61.56,8.95691 61.8933,8.62358 62.5,8.5C 63.1408,12.3709 64.6408,13.0376 67,10.5C 67.4643,11.0944 67.631,11.7611 67.5,12.5 Z"/></g>
<g><path style="opacity:1" fill="#2aaced" d="M 48.5,7.5 C 49.1667,18.1667 49.8333,18.1667 50.5,7.5C 51.8474,6.97169 53.1807,6.80503 54.5,7C 55.6045,11.2259 56.9378,11.3926 58.5,7.5C 59.2652,8.61191 60.2652,9.27858 61.5,9.5C 61.8442,12.5623 62.5109,15.5623 63.5,18.5C 65.0167,16.6035 66.3501,14.6035 67.5,12.5C 68.8734,12.3433 70.2068,12.51 71.5,13C 69.9861,14.439 69.6527,15.939 70.5,17.5C 71.916,15.8608 73.5826,15.0275 75.5,15C 72.5113,17.483 71.1779,20.6496 71.5,24.5C 69.2063,26.2373 66.5396,27.404 63.5,28C 62.9341,28.9947 62.2674,29.828 61.5,30.5C 61.6495,29.448 61.4828,28.448 61,27.5C 60.2588,28.6405 59.4255,28.6405 58.5,27.5C 57.5713,26.3112 57.238,24.9778 57.5,23.5C 57.2172,22.7109 56.7172,22.0442 56,21.5C 53.5207,23.3335 50.6874,24.3335 47.5,24.5C 42.5186,23.8348 37.5186,23.3348 32.5,23C 31.944,22.6174 31.6107,22.1174 31.5,21.5C 32.3657,19.856 32.8657,18.1893 33,16.5C 26.6443,15.7605 26.3109,13.7605 32,10.5C 33.7139,14.0433 36.5472,15.71 40.5,15.5C 40.3359,12.8127 40.5026,10.146 41,7.5C 43.3296,6.83416 45.8296,6.83416 48.5,7.5 Z"/></g>
<g><path style="opacity:1" fill="#74d2fe" d="M 50.5,7.5 C 49.8333,18.1667 49.1667,18.1667 48.5,7.5C 49.1667,6.16667 49.8333,6.16667 50.5,7.5 Z"/></g>
<g><path style="opacity:1" fill="#7eacdd" d="M 79.5,23.5 C 78.5326,22.1938 77.1993,21.5271 75.5,21.5C 75.3505,20.448 75.5172,19.448 76,18.5C 78.1293,17.1373 78.6293,17.4706 77.5,19.5C 78.8333,20.1667 80.1667,20.8333 81.5,21.5C 81.1445,22.5223 80.4778,23.189 79.5,23.5 Z"/></g>
<g><path style="opacity:1" fill="#19b2ee" d="M 31.5,21.5 C 31.6107,22.1174 31.944,22.6174 32.5,23C 37.5186,23.3348 42.5186,23.8348 47.5,24.5C 50.6874,24.3335 53.5207,23.3335 56,21.5C 56.7172,22.0442 57.2172,22.7109 57.5,23.5C 55.8962,26.4032 54.8962,29.7366 54.5,33.5C 53.1861,32.6872 52.0195,31.6872 51,30.5C 49.9887,31.3366 48.8221,31.67 47.5,31.5C 47.5,30.1667 47.5,28.8333 47.5,27.5C 45.1667,27.5 42.8333,27.5 40.5,27.5C 40.9677,31.1313 40.301,34.4646 38.5,37.5C 39.8237,38.9347 41.4904,39.9347 43.5,40.5C 39.9056,41.8754 38.5723,44.542 39.5,48.5C 38.1779,48.33 37.0113,48.6634 36,49.5C 35.5045,51.4727 35.3379,53.4727 35.5,55.5C 34.2993,57.9095 32.6326,59.9095 30.5,61.5C 31.0352,58.7615 30.0352,56.9282 27.5,56C 28.3567,55.3109 29.0233,54.4776 29.5,53.5C 28.2275,46.2379 27.3942,38.9045 27,31.5C 26.1107,32.8882 25.6107,32.7215 25.5,31C 27.152,28.6773 28.8187,26.344 30.5,24C 28.9297,22.6032 27.5964,21.1032 26.5,19.5C 25.8825,17.7708 24.8825,16.2708 23.5,15C 23.8333,14.8333 24.1667,14.6667 24.5,14.5C 26.6274,17.1364 28.9607,19.4697 31.5,21.5 Z"/></g>
<g><path style="opacity:1" fill="#837da5" d="M 75.5,21.5 C 77.1993,21.5271 78.5326,22.1938 79.5,23.5C 78.7095,24.4013 77.7095,25.0679 76.5,25.5C 76.6309,24.6236 76.2975,23.9569 75.5,23.5C 74.3777,24.6302 73.0443,25.2969 71.5,25.5C 71.5,25.1667 71.5,24.8333 71.5,24.5C 72.8717,23.4884 74.205,22.4884 75.5,21.5 Z"/></g>
<g><path style="opacity:1" fill="#21b5e3" d="M 57.5,23.5 C 57.238,24.9778 57.5713,26.3112 58.5,27.5C 59.4255,28.6405 60.2588,28.6405 61,27.5C 61.4828,28.448 61.6495,29.448 61.5,30.5C 61.5,31.1667 61.5,31.8333 61.5,32.5C 58.0854,34.8394 54.7521,37.1727 51.5,39.5C 48.2678,39.7717 46.2678,41.4384 45.5,44.5C 45.1667,44.5 44.8333,44.5 44.5,44.5C 41.2608,47.9829 38.2608,51.6496 35.5,55.5C 35.3379,53.4727 35.5045,51.4727 36,49.5C 37.0113,48.6634 38.1779,48.33 39.5,48.5C 38.5723,44.542 39.9056,41.8754 43.5,40.5C 41.4904,39.9347 39.8237,38.9347 38.5,37.5C 40.301,34.4646 40.9677,31.1313 40.5,27.5C 42.8333,27.5 45.1667,27.5 47.5,27.5C 47.5,28.8333 47.5,30.1667 47.5,31.5C 48.8221,31.67 49.9887,31.3366 51,30.5C 52.0195,31.6872 53.1861,32.6872 54.5,33.5C 54.8962,29.7366 55.8962,26.4032 57.5,23.5 Z"/></g>
<g><path style="opacity:1" fill="#6493c2" d="M 71.5,24.5 C 71.5,24.8333 71.5,25.1667 71.5,25.5C 70.5,25.8333 69.8333,26.5 69.5,27.5C 66.9528,28.9336 64.6195,30.6002 62.5,32.5C 62.1667,32.5 61.8333,32.5 61.5,32.5C 61.5,31.8333 61.5,31.1667 61.5,30.5C 62.2674,29.828 62.9341,28.9947 63.5,28C 66.5396,27.404 69.2063,26.2373 71.5,24.5 Z"/></g>
<g><path style="opacity:1" fill="#2ea9ee" d="M 26.5,19.5 C 27.5964,21.1032 28.9297,22.6032 30.5,24C 28.8187,26.344 27.152,28.6773 25.5,31C 25.6107,32.7215 26.1107,32.8882 27,31.5C 27.3942,38.9045 28.2275,46.2379 29.5,53.5C 29.0233,54.4776 28.3567,55.3109 27.5,56C 30.0352,56.9282 31.0352,58.7615 30.5,61.5C 30.5,61.8333 30.5,62.1667 30.5,62.5C 29.2719,63.3065 28.2719,64.3065 27.5,65.5C 28.4222,61.5175 26.9222,59.1842 23,58.5C 22.7861,53.1146 22.2861,47.7813 21.5,42.5C 22.6113,41.3887 23.278,40.0554 23.5,38.5C 22.1961,37.9767 21.5295,36.6434 21.5,34.5C 22.1822,32.1591 22.8489,29.8257 23.5,27.5C 21.1432,27.3367 18.8098,27.5034 16.5,28C 17.3128,29.3139 18.3128,30.4805 19.5,31.5C 19.0431,32.2975 18.3764,32.6309 17.5,32.5C 15.098,30.4694 12.4313,28.8027 9.5,27.5C 9.73758,25.5956 10.7376,24.2623 12.5,23.5C 12.5858,24.4959 12.2524,25.3292 11.5,26C 12.5,26.6667 13.5,26.6667 14.5,26C 13.0072,24.8438 13.1739,24.0104 15,23.5C 20.7788,27.8695 21.6122,27.2029 17.5,21.5C 18.3914,20.4104 19.3914,20.4104 20.5,21.5C 21.731,20.3493 21.731,19.1827 20.5,18C 22.7516,18.0496 24.4182,19.2163 25.5,21.5C 26.2975,21.0431 26.6309,20.3764 26.5,19.5 Z"/></g>
<g><path style="opacity:1" fill="#855567" d="M 76.5,25.5 C 76.1667,26.8333 75.8333,28.1667 75.5,29.5C 74.2905,29.9321 73.2905,30.5987 72.5,31.5C 69.5,34.8333 66.5,38.1667 63.5,41.5C 65.7268,36.2271 69.0602,31.7271 73.5,28C 73.1667,27.5 72.8333,27 72.5,26.5C 71.5832,27.1272 70.5832,27.4606 69.5,27.5C 69.8333,26.5 70.5,25.8333 71.5,25.5C 73.0443,25.2969 74.3777,24.6302 75.5,23.5C 76.2975,23.9569 76.6309,24.6236 76.5,25.5 Z"/></g>
<g><path style="opacity:1" fill="#457ea8" d="M 72.5,31.5 C 72.5,32.1667 72.5,32.8333 72.5,33.5C 70.8839,38.0565 67.8839,41.3898 63.5,43.5C 63.5,42.8333 63.5,42.1667 63.5,41.5C 66.5,38.1667 69.5,34.8333 72.5,31.5 Z"/></g>
<g><path style="opacity:1" fill="#e95156" d="M 49.5,48.5 C 48.1667,47.8333 47.1667,46.8333 46.5,45.5C 47.4499,42.8851 49.1165,40.8851 51.5,39.5C 53.1789,39.1077 54.8455,38.6077 56.5,38C 58.0948,35.8981 60.0948,34.3981 62.5,33.5C 63.9669,32.7084 65.3002,32.7084 66.5,33.5C 64.3635,34.4724 63.1968,36.1391 63,38.5C 58.8218,40.7213 55.6551,43.8879 53.5,48C 52.2068,48.49 50.8734,48.6567 49.5,48.5 Z"/></g>
<g><path style="opacity:1" fill="#7bc8fc" d="M 16.5,37.5 C 16.5299,38.4972 16.0299,39.1639 15,39.5C 12.9534,38.3906 10.7867,37.7239 8.5,37.5C 8.47008,36.5028 8.97008,35.8361 10,35.5C 12.0466,36.6094 14.2133,37.2761 16.5,37.5 Z"/></g>
<g><path style="opacity:1" fill="#bb737a" d="M 61.5,32.5 C 61.8333,32.5 62.1667,32.5 62.5,32.5C 62.5,32.8333 62.5,33.1667 62.5,33.5C 60.0948,34.3981 58.0948,35.8981 56.5,38C 54.8455,38.6077 53.1789,39.1077 51.5,39.5C 54.7521,37.1727 58.0854,34.8394 61.5,32.5 Z"/></g>
<g><path style="opacity:1" fill="#75c8fc" d="M 81.5,39.5 C 81.5774,38.2502 82.244,37.4169 83.5,37C 85.8212,36.1635 88.1546,35.8301 90.5,36C 87.7209,37.7224 84.7209,38.8891 81.5,39.5 Z"/></g>
<g><path style="opacity:0.906" fill="#dae1e7" d="M 88.5,17.5 C 93.9328,23.0322 97.2662,29.6989 98.5,37.5C 99.7083,49.0907 97.375,59.7574 91.5,69.5C 92.1667,66.1667 92.8333,62.8333 93.5,59.5C 94.1174,59.3893 94.6174,59.056 95,58.5C 95.7598,51.4505 95.5931,44.4505 94.5,37.5C 92.7033,30.7763 90.7033,24.1096 88.5,17.5 Z"/></g>
<g><path style="opacity:1" fill="#2697ef" d="M 27.5,65.5 C 26.6493,67.8816 25.316,69.8816 23.5,71.5C 24.3242,68.0597 25.1575,64.7264 26,61.5C 24.6569,62.2135 23.3236,61.8802 22,60.5C 21.4574,57.3931 20.2907,54.5597 18.5,52C 19.5767,49.095 19.2433,46.2616 17.5,43.5C 16.8333,45.1667 16.1667,46.8333 15.5,48.5C 14.8933,48.3764 14.56,48.0431 14.5,47.5C 15.6843,46.3121 15.6843,45.1455 14.5,44C 11.854,43.5026 9.1873,43.3359 6.5,43.5C 6.02539,40.9179 6.69206,38.9179 8.5,37.5C 10.7867,37.7239 12.9534,38.3906 15,39.5C 16.0299,39.1639 16.5299,38.4972 16.5,37.5C 14.82,35.2736 15.1534,33.6069 17.5,32.5C 18.3764,32.6309 19.0431,32.2975 19.5,31.5C 18.3128,30.4805 17.3128,29.3139 16.5,28C 18.8098,27.5034 21.1432,27.3367 23.5,27.5C 22.8489,29.8257 22.1822,32.1591 21.5,34.5C 21.5295,36.6434 22.1961,37.9767 23.5,38.5C 23.278,40.0554 22.6113,41.3887 21.5,42.5C 22.2861,47.7813 22.7861,53.1146 23,58.5C 26.9222,59.1842 28.4222,61.5175 27.5,65.5 Z"/></g>
<g><path style="opacity:1" fill="#19aee9" d="M 72.5,33.5 C 77.4826,35.6125 77.6493,37.9458 73,40.5C 72.6667,45.1667 72.3333,49.8333 72,54.5C 68.8268,56.4945 66.3268,59.1611 64.5,62.5C 61.5788,63.4066 58.5788,63.7399 55.5,63.5C 55.5,64.5 55.5,65.5 55.5,66.5C 52.2123,66.927 49.2123,66.2603 46.5,64.5C 44.9536,66.484 43.2869,66.8174 41.5,65.5C 44.4721,63.6778 47.4721,61.8445 50.5,60C 52.1412,58.871 53.1412,57.371 53.5,55.5C 54.3382,55.1583 54.6716,54.4916 54.5,53.5C 57.5,50.1667 60.5,46.8333 63.5,43.5C 67.8839,41.3898 70.8839,38.0565 72.5,33.5 Z"/></g>
<g><path style="opacity:1" fill="#a17d86" d="M 51.5,39.5 C 49.1165,40.8851 47.4499,42.8851 46.5,45.5C 45.8333,45.5 45.5,45.1667 45.5,44.5C 46.2678,41.4384 48.2678,39.7717 51.5,39.5 Z"/></g>
<g><path style="opacity:1" fill="#bc4648" d="M 63.5,41.5 C 60.6979,44.4758 58.0312,47.6425 55.5,51C 54.2068,51.49 52.8734,51.6567 51.5,51.5C 51.1667,50.5 50.5,49.8333 49.5,49.5C 49.5,49.1667 49.5,48.8333 49.5,48.5C 50.8734,48.6567 52.2068,48.49 53.5,48C 55.6551,43.8879 58.8218,40.7213 63,38.5C 63.1968,36.1391 64.3635,34.4724 66.5,33.5C 65.3002,32.7084 63.9669,32.7084 62.5,33.5C 62.5,33.1667 62.5,32.8333 62.5,32.5C 64.6195,30.6002 66.9528,28.9336 69.5,27.5C 70.5832,27.4606 71.5832,27.1272 72.5,26.5C 72.8333,27 73.1667,27.5 73.5,28C 69.0602,31.7271 65.7268,36.2271 63.5,41.5 Z"/></g>
<g><path style="opacity:1" fill="#7ecdff" d="M 91.5,45.5 C 88.8728,46.0916 86.2062,46.4249 83.5,46.5C 84.3339,45.2521 85.6672,44.5854 87.5,44.5C 89.0451,44.5108 90.3784,44.8442 91.5,45.5 Z"/></g>
<g><path style="opacity:1" fill="#1aa9f1" d="M 82.5,31.5 C 80.6306,33.889 78.7972,33.889 77,31.5C 77.1016,36.6938 77.2683,41.8605 77.5,47C 77.8105,52.7028 75.6438,57.2028 71,60.5C 70.5172,61.448 70.3505,62.448 70.5,63.5C 69.5,63.5 68.5,63.5 67.5,63.5C 63.8634,65.6609 59.8634,67.1609 55.5,68C 51.6487,68.5404 47.8153,68.3738 44,67.5C 41.2393,68.4176 38.4059,69.0843 35.5,69.5C 36.2625,68.7321 37.2625,68.2321 38.5,68C 39.2524,67.3292 39.5858,66.4959 39.5,65.5C 40.1667,65.5 40.8333,65.5 41.5,65.5C 43.2869,66.8174 44.9536,66.484 46.5,64.5C 49.2123,66.2603 52.2123,66.927 55.5,66.5C 55.5,65.5 55.5,64.5 55.5,63.5C 58.5788,63.7399 61.5788,63.4066 64.5,62.5C 66.3268,59.1611 68.8268,56.4945 72,54.5C 72.3333,49.8333 72.6667,45.1667 73,40.5C 77.6493,37.9458 77.4826,35.6125 72.5,33.5C 72.5,32.8333 72.5,32.1667 72.5,31.5C 73.2905,30.5987 74.2905,29.9321 75.5,29.5C 79.0067,30.8394 82.1733,30.1728 85,27.5C 85.5,27.8333 86,28.1667 86.5,28.5C 85.1482,29.5244 83.8149,30.5244 82.5,31.5 Z"/></g>
<g><path style="opacity:1" fill="#8cb9eb" d="M 93.5,37.5 C 93.8333,37.5 94.1667,37.5 94.5,37.5C 95.5931,44.4505 95.7598,51.4505 95,58.5C 94.6174,59.056 94.1174,59.3893 93.5,59.5C 94.6643,53.3494 94.6643,47.3494 93.5,41.5C 93.5,40.1667 93.5,38.8333 93.5,37.5 Z"/></g>
<g><path style="opacity:1" fill="#4190d8" d="M 93.5,41.5 C 94.6643,47.3494 94.6643,53.3494 93.5,59.5C 92.8333,62.8333 92.1667,66.1667 91.5,69.5C 86.8207,75.6906 81.4874,81.524 75.5,87C 70.8525,89.4944 66.1859,91.661 61.5,93.5C 58.8333,93.8333 56.1667,94.1667 53.5,94.5C 52.7814,92.2362 52.448,89.9029 52.5,87.5C 53.5,87.5 54.5,87.5 55.5,87.5C 55.2148,85.712 55.5481,84.0453 56.5,82.5C 57.1067,82.6236 57.44,82.9569 57.5,83.5C 59.0109,84.5025 60.6776,85.1692 62.5,85.5C 62.2148,83.712 62.5481,82.0453 63.5,80.5C 64.1067,80.6236 64.44,80.9569 64.5,81.5C 63.9569,81.56 63.6236,81.8933 63.5,82.5C 64.5019,84.5101 65.5019,86.5101 66.5,88.5C 67.6518,86.6029 67.3185,84.9362 65.5,83.5C 66.3764,83.6309 67.0431,83.2975 67.5,82.5C 68.0505,80.3432 68.7171,78.3432 69.5,76.5C 69.3832,78.4835 70.0499,80.1502 71.5,81.5C 67.8478,82.5209 67.5145,84.1875 70.5,86.5C 71.3857,85.675 71.719,84.675 71.5,83.5C 72.675,83.719 73.675,83.3857 74.5,82.5C 73.1565,80.4714 71.8231,78.4714 70.5,76.5C 71.6948,76.6775 72.8615,77.0109 74,77.5C 74.5,77.1667 75,76.8333 75.5,76.5C 73.8896,71.9602 74.8896,70.9602 78.5,73.5C 79.5244,72.1482 80.5244,70.8149 81.5,69.5C 83.1368,70.2178 84.8034,70.3845 86.5,70C 84.2528,68.7225 82.2528,67.2225 80.5,65.5C 81.4959,65.4142 82.3292,65.7476 83,66.5C 84.7863,64.9007 86.953,64.0674 89.5,64C 87.4032,62.3896 85.0698,61.2229 82.5,60.5C 83.6888,59.5713 85.0222,59.238 86.5,59.5C 86.69,57.0411 85.69,55.3745 83.5,54.5C 94.1667,53.8333 94.1667,53.1667 83.5,52.5C 84.1834,50.8235 85.5168,50.1568 87.5,50.5C 87.5,49.5 87.5,48.5 87.5,47.5C 89.5,47.5 91.5,47.5 93.5,47.5C 93.5,45.5 93.5,43.5 93.5,41.5 Z"/></g>
<g><path style="opacity:1" fill="#d5f2f9" d="M 44.5,44.5 C 43.5103,49.9986 40.677,54.332 36,57.5C 35.5065,59.1341 35.3398,60.8008 35.5,62.5C 33.1394,64.1939 31.1394,66.1939 29.5,68.5C 29.5172,66.4352 29.8505,64.4352 30.5,62.5C 30.5,62.1667 30.5,61.8333 30.5,61.5C 32.6326,59.9095 34.2993,57.9095 35.5,55.5C 38.2608,51.6496 41.2608,47.9829 44.5,44.5 Z"/></g>
<g><path style="opacity:1" fill="#edeced" d="M 44.5,44.5 C 44.8333,44.5 45.1667,44.5 45.5,44.5C 45.5,45.1667 45.8333,45.5 46.5,45.5C 47.1667,46.8333 48.1667,47.8333 49.5,48.5C 49.5,48.8333 49.5,49.1667 49.5,49.5C 44.8855,53.7772 40.2188,58.1105 35.5,62.5C 35.3398,60.8008 35.5065,59.1341 36,57.5C 40.677,54.332 43.5103,49.9986 44.5,44.5 Z"/></g>
<g><path style="opacity:1" fill="#915860" d="M 63.5,41.5 C 63.5,42.1667 63.5,42.8333 63.5,43.5C 60.5,46.8333 57.5,50.1667 54.5,53.5C 52.9731,53.573 51.9731,52.9063 51.5,51.5C 52.8734,51.6567 54.2068,51.49 55.5,51C 58.0312,47.6425 60.6979,44.4758 63.5,41.5 Z"/></g>
<g><path style="opacity:1" fill="#1d99f2" d="M 82.5,31.5 C 81.1248,34.237 80.7915,36.9037 81.5,39.5C 81.3505,40.552 81.5172,41.552 82,42.5C 82.7387,41.4258 83.7387,40.7591 85,40.5C 86.7659,41.2335 88.5992,41.5668 90.5,41.5C 89.7375,42.2679 88.7375,42.7679 87.5,43C 89.2556,43.2022 90.9223,43.7022 92.5,44.5C 92.3764,45.1067 92.0431,45.44 91.5,45.5C 90.3784,44.8442 89.0451,44.5108 87.5,44.5C 85.6672,44.5854 84.3339,45.2521 83.5,46.5C 81.9256,46.9371 80.7589,47.9371 80,49.5C 79.7537,52.8897 79.2537,56.223 78.5,59.5C 76.5,60.5 74.5,61.5 72.5,62.5C 72.7093,63.086 73.0426,63.586 73.5,64C 70.473,67.027 67.473,70.027 64.5,73C 53.5358,74.7359 42.5358,74.9026 31.5,73.5C 31.5,73.1667 31.5,72.8333 31.5,72.5C 32.6049,71.3995 33.9382,70.7329 35.5,70.5C 39.4047,71.4898 43.4047,72.1564 47.5,72.5C 53.1665,72.0924 58.8331,71.7591 64.5,71.5C 64.0156,68.2118 65.0156,65.5452 67.5,63.5C 68.5,63.5 69.5,63.5 70.5,63.5C 70.3505,62.448 70.5172,61.448 71,60.5C 75.6438,57.2028 77.8105,52.7028 77.5,47C 77.2683,41.8605 77.1016,36.6938 77,31.5C 78.7972,33.889 80.6306,33.889 82.5,31.5 Z"/></g>
<g><path style="opacity:1" fill="#75bffe" d="M 83.5,52.5 C 94.1667,53.1667 94.1667,53.8333 83.5,54.5C 83.5,53.8333 83.5,53.1667 83.5,52.5 Z"/></g>
<g><path style="opacity:1" fill="#4592da" d="M 9.5,27.5 C 12.4313,28.8027 15.098,30.4694 17.5,32.5C 15.1534,33.6069 14.82,35.2736 16.5,37.5C 14.2133,37.2761 12.0466,36.6094 10,35.5C 8.97008,35.8361 8.47008,36.5028 8.5,37.5C 6.69206,38.9179 6.02539,40.9179 6.5,43.5C 9.1873,43.3359 11.854,43.5026 14.5,44C 15.6843,45.1455 15.6843,46.3121 14.5,47.5C 12.0882,47.6941 11.0882,49.0274 11.5,51.5C 12.8333,51.5 14.1667,51.5 15.5,51.5C 15.5,52.5 15.5,53.5 15.5,54.5C 11.3703,54.2327 10.7036,55.8994 13.5,59.5C 12.2825,60.1614 10.9492,60.8281 9.5,61.5C 9.95689,62.2975 10.6236,62.6309 11.5,62.5C 10.6016,63.1577 9.60164,63.8243 8.5,64.5C 12.1673,64.4762 15.834,65.3096 19.5,67C 15.5547,70.2836 16.2214,72.4503 21.5,73.5C 19.6329,74.7598 18.2995,76.4265 17.5,78.5C 18.0906,79.1515 18.7573,79.8182 19.5,80.5C 19.0431,81.2975 18.3764,81.6309 17.5,81.5C 16.8333,81.1667 16.1667,80.8333 15.5,80.5C 14.2141,77.883 12.5475,75.5496 10.5,73.5C 9.7077,69.8663 8.2077,66.5329 6,63.5C 4.72643,56.8972 4.22643,50.2305 4.5,43.5C 4.94083,37.7231 6.6075,32.3898 9.5,27.5 Z"/></g>
<g><path style="opacity:0.924" fill="#c3c5c7" d="M 98.5,37.5 C 98.8333,37.5 99.1667,37.5 99.5,37.5C 99.5,44.8333 99.5,52.1667 99.5,59.5C 97.0677,67.6986 93.0677,75.032 87.5,81.5C 88.3497,77.3251 89.683,73.3251 91.5,69.5C 97.375,59.7574 99.7083,49.0907 98.5,37.5 Z"/></g>
<g><path style="opacity:1" fill="#3a98b7" d="M 53.5,55.5 C 53.1412,57.371 52.1412,58.871 50.5,60C 47.4721,61.8445 44.4721,63.6778 41.5,65.5C 40.8333,65.5 40.1667,65.5 39.5,65.5C 43.4538,61.1879 48.1205,57.8545 53.5,55.5 Z"/></g>
<g><path style="opacity:1" fill="#258bee" d="M 23.5,71.5 C 22.5,71.8333 21.8333,72.5 21.5,73.5C 16.2214,72.4503 15.5547,70.2836 19.5,67C 15.834,65.3096 12.1673,64.4762 8.5,64.5C 9.60164,63.8243 10.6016,63.1577 11.5,62.5C 13.5891,62.1433 15.5891,61.4767 17.5,60.5C 16.3112,59.5713 14.9778,59.238 13.5,59.5C 10.7036,55.8994 11.3703,54.2327 15.5,54.5C 15.5,53.5 15.5,52.5 15.5,51.5C 14.1667,51.5 12.8333,51.5 11.5,51.5C 11.0882,49.0274 12.0882,47.6941 14.5,47.5C 14.56,48.0431 14.8933,48.3764 15.5,48.5C 16.1667,46.8333 16.8333,45.1667 17.5,43.5C 19.2433,46.2616 19.5767,49.095 18.5,52C 20.2907,54.5597 21.4574,57.3931 22,60.5C 23.3236,61.8802 24.6569,62.2135 26,61.5C 25.1575,64.7264 24.3242,68.0597 23.5,71.5 Z"/></g>
<g><path style="opacity:1" fill="#b0b9bd" d="M 49.5,49.5 C 50.5,49.8333 51.1667,50.5 51.5,51.5C 51.9731,52.9063 52.9731,53.573 54.5,53.5C 54.6716,54.4916 54.3382,55.1583 53.5,55.5C 48.1205,57.8545 43.4538,61.1879 39.5,65.5C 38.448,65.3505 37.448,65.5172 36.5,66C 33.1512,69.0045 29.4845,71.5045 25.5,73.5C 26.0798,71.2512 27.4131,69.5846 29.5,68.5C 31.1394,66.1939 33.1394,64.1939 35.5,62.5C 40.2188,58.1105 44.8855,53.7772 49.5,49.5 Z"/></g>
<g><path style="opacity:1" fill="#bdc0c4" d="M -0.5,37.5 C -0.166667,37.5 0.166667,37.5 0.5,37.5C 0.334181,42.1785 0.500847,46.8452 1,51.5C 1.12162,53.437 1.95496,54.7703 3.5,55.5C 2.71524,62.8276 5.04858,68.8276 10.5,73.5C 12.5475,75.5496 14.2141,77.883 15.5,80.5C 16.9274,83.7636 19.2608,86.2636 22.5,88C 21.5842,88.2784 20.9175,88.7784 20.5,89.5C 14.1869,85.3524 9.02025,80.0191 5,73.5C 2.84209,68.8413 1.00876,64.1746 -0.5,59.5C -0.5,52.1667 -0.5,44.8333 -0.5,37.5 Z"/></g>
<g><path style="opacity:1" fill="#a9c7e6" d="M 4.5,43.5 C 4.22643,50.2305 4.72643,56.8972 6,63.5C 8.2077,66.5329 9.7077,69.8663 10.5,73.5C 5.04858,68.8276 2.71524,62.8276 3.5,55.5C 3.18325,51.2984 3.51658,47.2984 4.5,43.5 Z"/></g>
<g><path style="opacity:1" fill="#2189f2" d="M 90.5,41.5 C 91.5,41.5 92.5,41.5 93.5,41.5C 93.5,43.5 93.5,45.5 93.5,47.5C 91.5,47.5 89.5,47.5 87.5,47.5C 87.5,48.5 87.5,49.5 87.5,50.5C 85.5168,50.1568 84.1834,50.8235 83.5,52.5C 83.5,53.1667 83.5,53.8333 83.5,54.5C 85.69,55.3745 86.69,57.0411 86.5,59.5C 85.0222,59.238 83.6888,59.5713 82.5,60.5C 85.0698,61.2229 87.4032,62.3896 89.5,64C 86.953,64.0674 84.7863,64.9007 83,66.5C 82.3292,65.7476 81.4959,65.4142 80.5,65.5C 79.9569,65.56 79.6236,65.8933 79.5,66.5C 80.1925,67.5178 80.8592,68.5178 81.5,69.5C 80.5244,70.8149 79.5244,72.1482 78.5,73.5C 74.8896,70.9602 73.8896,71.9602 75.5,76.5C 75,76.8333 74.5,77.1667 74,77.5C 72.8615,77.0109 71.6948,76.6775 70.5,76.5C 70.1667,76.5 69.8333,76.5 69.5,76.5C 68.7171,78.3432 68.0505,80.3432 67.5,82.5C 67.0431,83.2975 66.3764,83.6309 65.5,83.5C 65.6716,82.5084 65.3382,81.8417 64.5,81.5C 64.44,80.9569 64.1067,80.6236 63.5,80.5C 62.5481,82.0453 62.2148,83.712 62.5,85.5C 60.6776,85.1692 59.0109,84.5025 57.5,83.5C 57.44,82.9569 57.1067,82.6236 56.5,82.5C 55.5481,84.0453 55.2148,85.712 55.5,87.5C 54.5,87.5 53.5,87.5 52.5,87.5C 51.8902,86.609 51.5569,85.609 51.5,84.5C 51.6882,82.8967 51.1882,81.5634 50,80.5C 48.392,82.0996 46.5586,83.433 44.5,84.5C 43.7836,83.689 42.9503,83.0223 42,82.5C 40.5603,83.1476 39.0603,83.4809 37.5,83.5C 37.33,82.1779 37.6634,81.0113 38.5,80C 35.6234,79.2751 32.9567,79.7751 30.5,81.5C 29.7025,81.0431 29.3691,80.3764 29.5,79.5C 29.5,78.5 29.5,77.5 29.5,76.5C 29.427,74.9731 30.0937,73.9731 31.5,73.5C 42.5358,74.9026 53.5358,74.7359 64.5,73C 67.473,70.027 70.473,67.027 73.5,64C 73.0426,63.586 72.7093,63.086 72.5,62.5C 74.5,61.5 76.5,60.5 78.5,59.5C 79.2537,56.223 79.7537,52.8897 80,49.5C 80.7589,47.9371 81.9256,46.9371 83.5,46.5C 86.2062,46.4249 88.8728,46.0916 91.5,45.5C 92.0431,45.44 92.3764,45.1067 92.5,44.5C 90.9223,43.7022 89.2556,43.2022 87.5,43C 88.7375,42.7679 89.7375,42.2679 90.5,41.5 Z"/></g>
<g><path style="opacity:0.039" fill="#0e0e0f" d="M -0.5,59.5 C 1.00876,64.1746 2.84209,68.8413 5,73.5C 9.02025,80.0191 14.1869,85.3524 20.5,89.5C 24.0592,93.1154 28.3926,95.4488 33.5,96.5C 35.5145,97.9238 37.8478,98.5905 40.5,98.5C 55.2294,101.211 68.2294,97.8781 79.5,88.5C 82.7642,86.9059 85.4309,84.5725 87.5,81.5C 93.0677,75.032 97.0677,67.6986 99.5,59.5C 99.5,62.1667 99.5,64.8333 99.5,67.5C 94.0648,81.9382 84.3981,92.6049 70.5,99.5C 56.5,99.5 42.5,99.5 28.5,99.5C 14.6019,92.6049 4.93519,81.9382 -0.5,67.5C -0.5,64.8333 -0.5,62.1667 -0.5,59.5 Z"/></g>
<g><path style="opacity:1" fill="#aabfd1" d="M 91.5,69.5 C 89.683,73.3251 88.3497,77.3251 87.5,81.5C 85.4309,84.5725 82.7642,86.9059 79.5,88.5C 73.6371,90.5641 67.6371,92.2307 61.5,93.5C 66.1859,91.661 70.8525,89.4944 75.5,87C 81.4874,81.524 86.8207,75.6906 91.5,69.5 Z"/></g>
<g><path style="opacity:1" fill="#b0dbf9" d="M 30.5,62.5 C 29.8505,64.4352 29.5172,66.4352 29.5,68.5C 27.4131,69.5846 26.0798,71.2512 25.5,73.5C 23.3477,75.9848 20.6811,77.6515 17.5,78.5C 18.2995,76.4265 19.6329,74.7598 21.5,73.5C 21.8333,72.5 22.5,71.8333 23.5,71.5C 25.316,69.8816 26.6493,67.8816 27.5,65.5C 28.2719,64.3065 29.2719,63.3065 30.5,62.5 Z"/></g>
<g><path style="opacity:1" fill="#3d7fb7" d="M 39.5,65.5 C 39.5858,66.4959 39.2524,67.3292 38.5,68C 37.2625,68.2321 36.2625,68.7321 35.5,69.5C 35.5,69.8333 35.5,70.1667 35.5,70.5C 33.9382,70.7329 32.6049,71.3995 31.5,72.5C 25.6241,74.4253 22.2908,78.4253 21.5,84.5C 19.5956,84.2624 18.2623,83.2624 17.5,81.5C 18.3764,81.6309 19.0431,81.2975 19.5,80.5C 18.7573,79.8182 18.0906,79.1515 17.5,78.5C 20.6811,77.6515 23.3477,75.9848 25.5,73.5C 29.4845,71.5045 33.1512,69.0045 36.5,66C 37.448,65.5172 38.448,65.3505 39.5,65.5 Z"/></g>
<g><path style="opacity:1" fill="#16a2f3" d="M 67.5,63.5 C 65.0156,65.5452 64.0156,68.2118 64.5,71.5C 58.8331,71.7591 53.1665,72.0924 47.5,72.5C 43.4047,72.1564 39.4047,71.4898 35.5,70.5C 35.5,70.1667 35.5,69.8333 35.5,69.5C 38.4059,69.0843 41.2393,68.4176 44,67.5C 47.8153,68.3738 51.6487,68.5404 55.5,68C 59.8634,67.1609 63.8634,65.6609 67.5,63.5 Z"/></g>
<g><path style="opacity:1" fill="#7acafe" d="M 80.5,65.5 C 82.2528,67.2225 84.2528,68.7225 86.5,70C 84.8034,70.3845 83.1368,70.2178 81.5,69.5C 80.8592,68.5178 80.1925,67.5178 79.5,66.5C 79.6236,65.8933 79.9569,65.56 80.5,65.5 Z"/></g>
<g><path style="opacity:1" fill="#6fbefd" d="M 13.5,59.5 C 14.9778,59.238 16.3112,59.5713 17.5,60.5C 15.5891,61.4767 13.5891,62.1433 11.5,62.5C 10.6236,62.6309 9.95689,62.2975 9.5,61.5C 10.9492,60.8281 12.2825,60.1614 13.5,59.5 Z"/></g>
<g><path style="opacity:1" fill="#60a9e3" d="M 29.5,76.5 C 29.5,77.5 29.5,78.5 29.5,79.5C 28.9033,79.7352 28.5699,80.2352 28.5,81C 29.4295,82.0769 30.0962,83.2436 30.5,84.5C 29.8485,85.0906 29.1818,85.7573 28.5,86.5C 26.9991,85.2485 25.3325,84.2485 23.5,83.5C 24.8565,80.4867 26.8565,78.1533 29.5,76.5 Z"/></g>
<g><path style="opacity:1" fill="#63aaef" d="M 38.5,87.5 C 38.5852,88.9953 37.9185,89.9953 36.5,90.5C 35.6922,88.5767 35.1922,86.5767 35,84.5C 32.2442,89.5199 31.4109,89.5199 32.5,84.5C 33.4793,83.2347 34.4793,81.9014 35.5,80.5C 36.4073,82.9389 37.4073,85.2722 38.5,87.5 Z"/></g>
<g><path style="opacity:1" fill="#6ab7e8" d="M 69.5,76.5 C 69.8333,76.5 70.1667,76.5 70.5,76.5C 71.8231,78.4714 73.1565,80.4714 74.5,82.5C 73.675,83.3857 72.675,83.719 71.5,83.5C 71.719,84.675 71.3857,85.675 70.5,86.5C 67.5145,84.1875 67.8478,82.5209 71.5,81.5C 70.0499,80.1502 69.3832,78.4835 69.5,76.5 Z"/></g>
<g><path style="opacity:1" fill="#2985e0" d="M 29.5,79.5 C 29.3691,80.3764 29.7025,81.0431 30.5,81.5C 32.9567,79.7751 35.6234,79.2751 38.5,80C 37.6634,81.0113 37.33,82.1779 37.5,83.5C 39.0603,83.4809 40.5603,83.1476 42,82.5C 42.9503,83.0223 43.7836,83.689 44.5,84.5C 46.5586,83.433 48.392,82.0996 50,80.5C 51.1882,81.5634 51.6882,82.8967 51.5,84.5C 51.1667,84.5 50.8333,84.5 50.5,84.5C 49.3774,83.2426 48.7107,83.5759 48.5,85.5C 47.7321,86.2625 47.2321,87.2625 47,88.5C 45.6439,87.6198 44.1439,87.2865 42.5,87.5C 42.5209,82.6341 41.5209,82.6341 39.5,87.5C 39.1667,87.5 38.8333,87.5 38.5,87.5C 37.4073,85.2722 36.4073,82.9389 35.5,80.5C 34.4793,81.9014 33.4793,83.2347 32.5,84.5C 31.8333,84.5 31.1667,84.5 30.5,84.5C 30.0962,83.2436 29.4295,82.0769 28.5,81C 28.5699,80.2352 28.9033,79.7352 29.5,79.5 Z"/></g>
<g><path style="opacity:1" fill="#72c7fe" d="M 50.5,84.5 C 50.8134,87.2469 50.48,89.9135 49.5,92.5C 48.5258,90.2573 48.1924,87.924 48.5,85.5C 48.7107,83.5759 49.3774,83.2426 50.5,84.5 Z"/></g>
<g><path style="opacity:1" fill="#8fdaff" d="M 57.5,83.5 C 58.3897,85.7819 58.5564,88.1152 58,90.5C 56.6077,88.0594 56.441,85.726 57.5,83.5 Z"/></g>
<g><path style="opacity:1" fill="#89d3fb" d="M 64.5,81.5 C 65.3382,81.8417 65.6716,82.5084 65.5,83.5C 67.3185,84.9362 67.6518,86.6029 66.5,88.5C 65.5019,86.5101 64.5019,84.5101 63.5,82.5C 63.6236,81.8933 63.9569,81.56 64.5,81.5 Z"/></g>
<g><path style="opacity:1" fill="#5faeea" d="M 42.5,87.5 C 42.5,88.8333 42.5,90.1667 42.5,91.5C 41.5,91.5 40.5,91.5 39.5,91.5C 39.5,90.1667 39.5,88.8333 39.5,87.5C 41.5209,82.6341 42.5209,82.6341 42.5,87.5 Z"/></g>
<g><path style="opacity:1" fill="#9abcd7" d="M 15.5,80.5 C 16.1667,80.8333 16.8333,81.1667 17.5,81.5C 18.2623,83.2624 19.5956,84.2624 21.5,84.5C 24.9637,87.7385 28.9637,90.2385 33.5,92C 40.046,93.8133 46.7126,94.6466 53.5,94.5C 56.1667,94.1667 58.8333,93.8333 61.5,93.5C 60.158,94.793 58.4913,95.6264 56.5,96C 50.8041,96.8299 45.1375,96.6632 39.5,95.5C 33.2214,93.0725 26.8881,91.0725 20.5,89.5C 20.9175,88.7784 21.5842,88.2784 22.5,88C 19.2608,86.2636 16.9274,83.7636 15.5,80.5 Z"/></g>
<g><path style="opacity:1" fill="#2e80c9" d="M 31.5,72.5 C 31.5,72.8333 31.5,73.1667 31.5,73.5C 30.0937,73.9731 29.427,74.9731 29.5,76.5C 26.8565,78.1533 24.8565,80.4867 23.5,83.5C 25.3325,84.2485 26.9991,85.2485 28.5,86.5C 29.1818,85.7573 29.8485,85.0906 30.5,84.5C 31.1667,84.5 31.8333,84.5 32.5,84.5C 31.4109,89.5199 32.2442,89.5199 35,84.5C 35.1922,86.5767 35.6922,88.5767 36.5,90.5C 37.9185,89.9953 38.5852,88.9953 38.5,87.5C 38.8333,87.5 39.1667,87.5 39.5,87.5C 39.5,88.8333 39.5,90.1667 39.5,91.5C 40.5,91.5 41.5,91.5 42.5,91.5C 42.5,90.1667 42.5,88.8333 42.5,87.5C 44.1439,87.2865 45.6439,87.6198 47,88.5C 47.2321,87.2625 47.7321,86.2625 48.5,85.5C 48.1924,87.924 48.5258,90.2573 49.5,92.5C 50.48,89.9135 50.8134,87.2469 50.5,84.5C 50.8333,84.5 51.1667,84.5 51.5,84.5C 51.5569,85.609 51.8902,86.609 52.5,87.5C 52.448,89.9029 52.7814,92.2362 53.5,94.5C 46.7126,94.6466 40.046,93.8133 33.5,92C 28.9637,90.2385 24.9637,87.7385 21.5,84.5C 22.2908,78.4253 25.6241,74.4253 31.5,72.5 Z"/></g>
<g><path style="opacity:0.471" fill="#6b6c6b" d="M 33.5,96.5 C 36.1522,96.4095 38.4855,97.0762 40.5,98.5C 37.8478,98.5905 35.5145,97.9238 33.5,96.5 Z"/></g>
<g><path style="opacity:0.992" fill="#b1b8ba" d="M 79.5,88.5 C 68.2294,97.8781 55.2294,101.211 40.5,98.5C 38.4855,97.0762 36.1522,96.4095 33.5,96.5C 28.3926,95.4488 24.0592,93.1154 20.5,89.5C 26.8881,91.0725 33.2214,93.0725 39.5,95.5C 45.1375,96.6632 50.8041,96.8299 56.5,96C 58.4913,95.6264 60.158,94.793 61.5,93.5C 67.6371,92.2307 73.6371,90.5641 79.5,88.5 Z"/></g>
</svg>
