<?xml version="1.0" encoding="UTF-8"?>
<!DOCTYPE svg PUBLIC "-//W3C//DTD SVG 1.1//EN" "http://www.w3.org/Graphics/SVG/1.1/DTD/svg11.dtd">
<svg xmlns="http://www.w3.org/2000/svg" version="1.1" width="100px" height="100px" style="shape-rendering:geometricPrecision; text-rendering:geometricPrecision; image-rendering:optimizeQuality; fill-rule:evenodd; clip-rule:evenodd" xmlns:xlink="http://www.w3.org/1999/xlink">
<g><path style="opacity:1" fill="#de3423" d="M 79.5,-0.5 C 79.8333,-0.5 80.1667,-0.5 80.5,-0.5C 80.8266,8.68218 80.4933,17.6822 79.5,26.5C 79.0831,25.8761 78.4164,25.5427 77.5,25.5C 70.1598,27.1674 62.8265,28.8341 55.5,30.5C 45.1739,31.068 34.8405,31.7347 24.5,32.5C 24.1373,33.1835 23.8039,33.8501 23.5,34.5C 23.5,34.8333 23.5,35.1667 23.5,35.5C 21.8333,35.5 20.1667,35.5 18.5,35.5C 18.5,27.8333 18.5,20.1667 18.5,12.5C 23.6946,12.8205 28.6946,12.4872 33.5,11.5C 48.4525,10.286 63.1192,7.11928 77.5,2C 78.756,1.58309 79.4226,0.749754 79.5,-0.5 Z"/></g>
<g><path style="opacity:0.827" fill="#b74136" d="M 33.5,11.5 C 28.6946,12.4872 23.6946,12.8205 18.5,12.5C 18.5,20.1667 18.5,27.8333 18.5,35.5C 20.1667,35.5 21.8333,35.5 23.5,35.5C 25.5,35.5 27.5,35.5 29.5,35.5C 25.7016,36.4834 21.7016,36.8168 17.5,36.5C 17.5,28.1667 17.5,19.8333 17.5,11.5C 22.8333,11.5 28.1667,11.5 33.5,11.5 Z"/></g>
<g><path style="opacity:1" fill="#520405" d="M 78.5,26.5 C 80.0746,28.1137 80.7413,30.1137 80.5,32.5C 78.7028,33.7298 76.7028,34.3964 74.5,34.5C 75.7653,33.5207 77.0986,32.5207 78.5,31.5C 73.1965,30.6786 67.8632,30.6786 62.5,31.5C 67.8333,30.1609 73.1666,28.4942 78.5,26.5 Z"/></g>
<g><path style="opacity:1" fill="#c33b28" d="M 79.5,26.5 C 79.1667,26.5 78.8333,26.5 78.5,26.5C 73.1666,28.4942 67.8333,30.1609 62.5,31.5C 62.1667,31.5 61.8333,31.5 61.5,31.5C 59.4352,31.5172 57.4352,31.8505 55.5,32.5C 55.5,31.8333 55.5,31.1667 55.5,30.5C 62.8265,28.8341 70.1598,27.1674 77.5,25.5C 78.4164,25.5427 79.0831,25.8761 79.5,26.5 Z"/></g>
<g><path style="opacity:1" fill="#d73728" d="M 55.5,30.5 C 55.5,31.1667 55.5,31.8333 55.5,32.5C 54.1667,32.5 52.8333,32.5 51.5,32.5C 42.257,33.9946 32.9236,34.6613 23.5,34.5C 23.8039,33.8501 24.1373,33.1835 24.5,32.5C 34.8405,31.7347 45.1739,31.068 55.5,30.5 Z"/></g>
<g><path style="opacity:1" fill="#400a06" d="M 74.5,34.5 C 68.9744,34.2365 63.9744,35.5699 59.5,38.5C 56.1129,39.2879 52.7796,40.2879 49.5,41.5C 47.2646,41.2053 45.2646,41.5386 43.5,42.5C 40.5,42.5 37.5,42.5 34.5,42.5C 33.8333,42.5 33.1667,42.5 32.5,42.5C 27.7338,41.1408 23.0671,39.4741 18.5,37.5C 25.7299,37.7414 32.7299,37.0747 39.5,35.5C 41.4352,34.8505 43.4352,34.5172 45.5,34.5C 51.2571,35.0683 56.5904,34.0683 61.5,31.5C 61.8333,31.5 62.1667,31.5 62.5,31.5C 67.8632,30.6786 73.1965,30.6786 78.5,31.5C 77.0986,32.5207 75.7653,33.5207 74.5,34.5 Z"/></g>
<g><path style="opacity:1" fill="#5f0902" d="M 61.5,31.5 C 56.5904,34.0683 51.2571,35.0683 45.5,34.5C 47.5,33.8333 49.5,33.1667 51.5,32.5C 52.8333,32.5 54.1667,32.5 55.5,32.5C 57.4352,31.8505 59.4352,31.5172 61.5,31.5 Z"/></g>
<g><path style="opacity:1" fill="#bd392b" d="M 51.5,32.5 C 49.5,33.1667 47.5,33.8333 45.5,34.5C 43.4352,34.5172 41.4352,34.8505 39.5,35.5C 36.1667,35.5 32.8333,35.5 29.5,35.5C 27.5,35.5 25.5,35.5 23.5,35.5C 23.5,35.1667 23.5,34.8333 23.5,34.5C 32.9236,34.6613 42.257,33.9946 51.5,32.5 Z"/></g>
<g><path style="opacity:1" fill="#590501" d="M 29.5,35.5 C 32.8333,35.5 36.1667,35.5 39.5,35.5C 32.7299,37.0747 25.7299,37.7414 18.5,37.5C 17.8333,37.5 17.5,37.1667 17.5,36.5C 21.7016,36.8168 25.7016,36.4834 29.5,35.5 Z"/></g>
<g><path style="opacity:1" fill="#510501" d="M 74.5,34.5 C 69.8094,36.591 64.8094,37.9244 59.5,38.5C 63.9744,35.5699 68.9744,34.2365 74.5,34.5 Z"/></g>
<g><path style="opacity:1" fill="#c0382d" d="M 80.5,32.5 C 80.5,33.1667 80.5,33.8333 80.5,34.5C 78.513,35.1642 76.8463,36.3308 75.5,38C 66.896,39.6412 58.2293,40.8078 49.5,41.5C 52.7796,40.2879 56.1129,39.2879 59.5,38.5C 64.8094,37.9244 69.8094,36.591 74.5,34.5C 76.7028,34.3964 78.7028,33.7298 80.5,32.5 Z"/></g>
<g><path style="opacity:0.997" fill="#de3423" d="M 80.5,34.5 C 80.5,41.8333 80.5,49.1667 80.5,56.5C 78.2646,56.2053 76.2646,56.5386 74.5,57.5C 69.7275,58.826 64.8942,59.826 60,60.5C 59,59.8333 58,59.1667 57,58.5C 56.6905,59.7659 56.1905,60.9326 55.5,62C 45.4847,62.5447 35.6514,64.0447 26,66.5C 23.863,65.9233 21.6963,65.59 19.5,65.5C 19.3338,59.1579 19.5005,52.8246 20,46.5C 21.6995,45.5939 23.5328,45.2606 25.5,45.5C 25.5,44.5 25.5,43.5 25.5,42.5C 27.8333,42.5 30.1667,42.5 32.5,42.5C 33.1667,42.5 33.8333,42.5 34.5,42.5C 35.4919,44.0265 36.9919,44.6932 39,44.5C 41.0081,44.6932 42.5081,44.0265 43.5,42.5C 45.2646,41.5386 47.2646,41.2053 49.5,41.5C 58.2293,40.8078 66.896,39.6412 75.5,38C 76.8463,36.3308 78.513,35.1642 80.5,34.5 Z"/></g>
<g><path style="opacity:1" fill="#c33e26" d="M 34.5,42.5 C 37.5,42.5 40.5,42.5 43.5,42.5C 42.5081,44.0265 41.0081,44.6932 39,44.5C 36.9919,44.6932 35.4919,44.0265 34.5,42.5 Z"/></g>
<g><path style="opacity:0.827" fill="#b54437" d="M 23.5,43.5 C 22.0813,44.4511 20.4147,44.7845 18.5,44.5C 18.5,52.1667 18.5,59.8333 18.5,67.5C 18.1667,67.5 17.8333,67.5 17.5,67.5C 17.5,59.5 17.5,51.5 17.5,43.5C 19.5,43.5 21.5,43.5 23.5,43.5 Z"/></g>
<g><path style="opacity:1" fill="#b63d30" d="M 80.5,56.5 C 79.8333,57.1667 79.1667,57.8333 78.5,58.5C 76.5,58.8333 74.5,59.1667 72.5,59.5C 73.1667,58.8333 73.8333,58.1667 74.5,57.5C 76.2646,56.5386 78.2646,56.2053 80.5,56.5 Z"/></g>
<g><path style="opacity:1" fill="#5c0806" d="M 72.5,60.5 C 70.6976,61.4582 68.6976,62.1249 66.5,62.5C 65.8333,62.5 65.1667,62.5 64.5,62.5C 66.8383,60.9605 69.5049,60.2938 72.5,60.5 Z"/></g>
<g><path style="opacity:1" fill="#3e0b09" d="M 78.5,58.5 C 80.1042,59.287 80.7709,60.6203 80.5,62.5C 75.8585,63.8147 71.1919,65.148 66.5,66.5C 64.9334,66.523 63.6001,66.023 62.5,65C 64.3197,64.7996 65.653,63.9663 66.5,62.5C 68.6976,62.1249 70.6976,61.4582 72.5,60.5C 72.5,60.1667 72.5,59.8333 72.5,59.5C 74.5,59.1667 76.5,58.8333 78.5,58.5 Z"/></g>
<g><path style="opacity:1" fill="#cd3a2c" d="M 25.5,42.5 C 25.5,43.5 25.5,44.5 25.5,45.5C 23.5328,45.2606 21.6995,45.5939 20,46.5C 19.5005,52.8246 19.3338,59.1579 19.5,65.5C 21.6963,65.59 23.863,65.9233 26,66.5C 35.6514,64.0447 45.4847,62.5447 55.5,62C 56.1905,60.9326 56.6905,59.7659 57,58.5C 58,59.1667 59,59.8333 60,60.5C 64.8942,59.826 69.7275,58.826 74.5,57.5C 73.8333,58.1667 73.1667,58.8333 72.5,59.5C 72.5,59.8333 72.5,60.1667 72.5,60.5C 69.5049,60.2938 66.8383,60.9605 64.5,62.5C 62.0971,62.448 59.7638,62.7814 57.5,63.5C 51.9633,64.0869 46.63,65.0869 41.5,66.5C 41.1667,66.5 40.8333,66.5 40.5,66.5C 33.1781,67.0375 25.8447,67.3709 18.5,67.5C 18.5,59.8333 18.5,52.1667 18.5,44.5C 20.4147,44.7845 22.0813,44.4511 23.5,43.5C 24.1667,43.1667 24.8333,42.8333 25.5,42.5 Z"/></g>
<g><path style="opacity:1" fill="#5a0603" d="M 57.5,63.5 C 56.5707,64.3149 55.5707,65.1482 54.5,66C 50.1794,66.499 45.8461,66.6657 41.5,66.5C 46.63,65.0869 51.9633,64.0869 57.5,63.5 Z"/></g>
<g><path style="opacity:1" fill="#620a08" d="M 40.5,66.5 C 39.0484,67.3019 37.3817,67.8019 35.5,68C 29.5092,68.4995 23.5092,68.6662 17.5,68.5C 17.5,68.1667 17.5,67.8333 17.5,67.5C 17.8333,67.5 18.1667,67.5 18.5,67.5C 25.8447,67.3709 33.1781,67.0375 40.5,66.5 Z"/></g>
<g><path style="opacity:1" fill="#ca3a28" d="M 80.5,63.5 C 80.5,64.5 80.5,65.5 80.5,66.5C 77.9963,67.6392 75.3297,68.3059 72.5,68.5C 73.3065,67.2719 74.3065,66.2719 75.5,65.5C 77.2838,65.1075 78.9505,64.4408 80.5,63.5 Z"/></g>
<g><path style="opacity:0.991" fill="#dd3424" d="M 80.5,66.5 C 80.8142,74.0871 80.4808,81.5871 79.5,89C 63.4966,94.6323 47.1633,98.1323 30.5,99.5C 26.1667,99.5 21.8333,99.5 17.5,99.5C 17.5,91.1667 17.5,82.8333 17.5,74.5C 21.8333,74.5 26.1667,74.5 30.5,74.5C 36.8421,74.6662 43.1754,74.4995 49.5,74C 51.7226,73.4338 53.7226,72.6005 55.5,71.5C 61.4006,71.6525 67.0673,70.6525 72.5,68.5C 75.3297,68.3059 77.9963,67.6392 80.5,66.5 Z"/></g>
<g><path style="opacity:1" fill="#410b07" d="M 64.5,62.5 C 65.1667,62.5 65.8333,62.5 66.5,62.5C 65.653,63.9663 64.3197,64.7996 62.5,65C 63.6001,66.023 64.9334,66.523 66.5,66.5C 71.1919,65.148 75.8585,63.8147 80.5,62.5C 80.5,62.8333 80.5,63.1667 80.5,63.5C 78.9505,64.4408 77.2838,65.1075 75.5,65.5C 69.1988,68.3733 62.5322,70.0399 55.5,70.5C 51.2949,70.7167 47.2949,71.3833 43.5,72.5C 39.7016,73.4834 35.7016,73.8168 31.5,73.5C 26.6612,72.3314 21.9946,70.6648 17.5,68.5C 23.5092,68.6662 29.5092,68.4995 35.5,68C 37.3817,67.8019 39.0484,67.3019 40.5,66.5C 40.8333,66.5 41.1667,66.5 41.5,66.5C 45.8461,66.6657 50.1794,66.499 54.5,66C 55.5707,65.1482 56.5707,64.3149 57.5,63.5C 59.7638,62.7814 62.0971,62.448 64.5,62.5 Z"/></g>
<g><path style="opacity:1" fill="#ad3225" d="M 75.5,65.5 C 74.3065,66.2719 73.3065,67.2719 72.5,68.5C 67.0673,70.6525 61.4006,71.6525 55.5,71.5C 55.5,71.1667 55.5,70.8333 55.5,70.5C 62.5322,70.0399 69.1988,68.3733 75.5,65.5 Z"/></g>
<g><path style="opacity:1" fill="#550301" d="M 55.5,70.5 C 55.5,70.8333 55.5,71.1667 55.5,71.5C 51.5341,72.1621 47.5341,72.4955 43.5,72.5C 47.2949,71.3833 51.2949,70.7167 55.5,70.5 Z"/></g>
<g><path style="opacity:0.841" fill="#bc3829" d="M 55.5,71.5 C 53.7226,72.6005 51.7226,73.4338 49.5,74C 43.1754,74.4995 36.8421,74.6662 30.5,74.5C 30.5,73.8333 30.8333,73.5 31.5,73.5C 35.7016,73.8168 39.7016,73.4834 43.5,72.5C 47.5341,72.4955 51.5341,72.1621 55.5,71.5 Z"/></g>
</svg>
