<?xml version="1.0" encoding="UTF-8"?>
<!DOCTYPE svg PUBLIC "-//W3C//DTD SVG 1.1//EN" "http://www.w3.org/Graphics/SVG/1.1/DTD/svg11.dtd">
<svg xmlns="http://www.w3.org/2000/svg" version="1.1" width="100px" height="100px" style="shape-rendering:geometricPrecision; text-rendering:geometricPrecision; image-rendering:optimizeQuality; fill-rule:evenodd; clip-rule:evenodd" xmlns:xlink="http://www.w3.org/1999/xlink">
<g><path style="opacity:0.995" fill="#60b731" d="M 38.5,-0.5 C 45.8333,-0.5 53.1667,-0.5 60.5,-0.5C 69.8229,2.32985 78.1562,6.99651 85.5,13.5C 86.1667,13.8333 86.8333,14.1667 87.5,14.5C 86.593,18.4075 84.2596,21.0742 80.5,22.5C 76.1829,21.4919 73.8495,23.1586 73.5,27.5C 69.9495,30.1054 65.9495,31.9388 61.5,33C 51.4044,33.676 41.4044,35.0093 31.5,37C 23.4905,40.8435 18.1571,47.0102 15.5,55.5C 12.8333,55.5 10.1667,55.5 7.5,55.5C 7.66568,59.8461 7.49902,64.1794 7,68.5C 5.88732,69.305 4.72065,69.9717 3.5,70.5C 2.15812,67.0921 0.824784,63.7588 -0.5,60.5C -0.5,53.1667 -0.5,45.8333 -0.5,38.5C 0.67722,36.3206 1.67722,33.9872 2.5,31.5C 6.83333,31.5 11.1667,31.5 15.5,31.5C 15.4595,28.1194 15.7929,24.7861 16.5,21.5C 15.5,21.5 14.5,21.5 13.5,21.5C 13.719,22.675 13.3857,23.675 12.5,24.5C 11.5481,22.9547 11.2148,21.288 11.5,19.5C 13.1667,19.5 14.8333,19.5 16.5,19.5C 16.5,18.5 16.5,17.5 16.5,16.5C 17.5,16.5 18.5,16.5 19.5,16.5C 19.5,15.5 19.5,14.5 19.5,13.5C 17.901,13.7678 16.5676,13.4345 15.5,12.5C 17.5767,9.76229 20.2433,7.76229 23.5,6.5C 26.1401,4.99223 28.4734,5.32556 30.5,7.5C 33.9484,6.38648 35.9484,4.05314 36.5,0.5C 37.4916,0.67158 38.1583,0.338246 38.5,-0.5 Z"/></g>
<g><path style="opacity:1" fill="#66b237" d="M 36.5,0.5 C 35.9484,4.05314 33.9484,6.38648 30.5,7.5C 28.4734,5.32556 26.1401,4.99223 23.5,6.5C 27.4215,3.74192 31.7548,1.74192 36.5,0.5 Z"/></g>
<g><path style="opacity:0.259" fill="#6f9b4b" d="M 91.5,6.5 C 90.8333,6.5 90.1667,6.5 89.5,6.5C 90.1667,3.83333 90.8333,3.83333 91.5,6.5 Z"/></g>
<g><path style="opacity:1" fill="#65b43a" d="M 89.5,6.5 C 90.1667,6.5 90.8333,6.5 91.5,6.5C 91.8333,7.16667 92.1667,7.83333 92.5,8.5C 90.9582,9.30071 89.2915,9.63404 87.5,9.5C 88.1667,8.5 88.8333,7.5 89.5,6.5 Z"/></g>
<g><path style="opacity:0.984" fill="#5db831" d="M 92.5,8.5 C 92.9707,10.5786 93.6373,12.5786 94.5,14.5C 93.1667,14.5 91.8333,14.5 90.5,14.5C 90.631,13.7611 90.4643,13.0944 90,12.5C 89.5831,13.756 88.7498,14.4226 87.5,14.5C 86.8333,14.1667 86.1667,13.8333 85.5,13.5C 86.1667,12.1667 86.8333,10.8333 87.5,9.5C 89.2915,9.63404 90.9582,9.30071 92.5,8.5 Z"/></g>
<g><path style="opacity:0.744" fill="#67b23b" d="M 90.5,14.5 C 91.8333,14.5 93.1667,14.5 94.5,14.5C 96.1232,20.086 97.4566,25.7527 98.5,31.5C 96.6921,32.9179 96.0254,34.9179 96.5,37.5C 95.2744,29.7344 93.2744,22.0677 90.5,14.5 Z"/></g>
<g><path style="opacity:0.999" fill="#60b634" d="M 15.5,12.5 C 16.5676,13.4345 17.901,13.7678 19.5,13.5C 19.5,14.5 19.5,15.5 19.5,16.5C 18.5,16.5 17.5,16.5 16.5,16.5C 16.5,17.5 16.5,18.5 16.5,19.5C 14.8333,19.5 13.1667,19.5 11.5,19.5C 11.2148,21.288 11.5481,22.9547 12.5,24.5C 13.3857,23.675 13.719,22.675 13.5,21.5C 14.5,21.5 15.5,21.5 16.5,21.5C 15.7929,24.7861 15.4595,28.1194 15.5,31.5C 11.1667,31.5 6.83333,31.5 2.5,31.5C 5.10674,23.9429 9.44007,17.6096 15.5,12.5 Z"/></g>
<g><path style="opacity:0.974" fill="#62b43b" d="M 80.5,22.5 C 78.7036,24.9 76.3702,26.5667 73.5,27.5C 73.8495,23.1586 76.1829,21.4919 80.5,22.5 Z"/></g>
<g><path style="opacity:0.914" fill="#60b633" d="M 98.5,31.5 C 98.2322,33.099 98.5655,34.4324 99.5,35.5C 99.5,38.8333 99.5,42.1667 99.5,45.5C 98.609,44.8902 97.609,44.5569 96.5,44.5C 96.5,42.1667 96.5,39.8333 96.5,37.5C 96.0254,34.9179 96.6921,32.9179 98.5,31.5 Z"/></g>
<g><path style="opacity:0.049" fill="#60b641" d="M 85.5,39.5 C 85.1667,39.5 84.8333,39.5 84.5,39.5C 84.281,38.325 84.6143,37.325 85.5,36.5C 86.7759,37.6136 86.7759,38.6136 85.5,39.5 Z"/></g>
<g><path style="opacity:0.386" fill="#6eaa4c" d="M 84.5,39.5 C 84.8333,39.5 85.1667,39.5 85.5,39.5C 85.6716,40.4916 85.3382,41.1583 84.5,41.5C 84.1667,41.5 83.8333,41.5 83.5,41.5C 83.3284,40.5084 83.6618,39.8417 84.5,39.5 Z"/></g>
<g><path style="opacity:0.445" fill="#64b336" d="M 83.5,41.5 C 83.8333,41.5 84.1667,41.5 84.5,41.5C 84.2484,45.3267 82.9151,48.6601 80.5,51.5C 78.8828,52.038 77.2161,52.3713 75.5,52.5C 78.1985,48.8098 80.8652,45.1431 83.5,41.5 Z"/></g>
<g><path style="opacity:0.953" fill="#70ab37" d="M 96.5,44.5 C 97.609,44.5569 98.609,44.8902 99.5,45.5C 99.5,46.8333 99.5,48.1667 99.5,49.5C 98.5,49.5 97.5,49.5 96.5,49.5C 97.8333,47.8333 97.8333,46.1667 96.5,44.5 Z"/></g>
<g><path style="opacity:0.994" fill="#61b633" d="M 15.5,55.5 C 14.7347,58.0961 14.4013,60.7628 14.5,63.5C 13.325,63.281 12.325,63.6143 11.5,64.5C 12.6888,65.4287 14.0222,65.762 15.5,65.5C 16.6208,70.4582 19.4541,74.1249 24,76.5C 28.8569,75.2442 33.6902,73.9108 38.5,72.5C 38.5,73.5 38.5,74.5 38.5,75.5C 37.5,75.5 36.5,75.5 35.5,75.5C 35.7192,79.5274 34.5525,80.1941 32,77.5C 31.0073,84.3709 31.5073,91.0376 33.5,97.5C 31.1815,97.0075 29.1815,96.0075 27.5,94.5C 28.8872,91.8145 27.8872,90.1479 24.5,89.5C 23.6143,90.325 23.281,91.325 23.5,92.5C 23.1667,92.5 22.8333,92.5 22.5,92.5C 22.6162,89.0897 20.9496,87.7564 17.5,88.5C 16.8333,88.5 16.5,88.1667 16.5,87.5C 16.8333,87.5 17.1667,87.5 17.5,87.5C 21.9346,87.2479 23.268,85.0812 21.5,81C 20.2068,80.51 18.8734,80.3433 17.5,80.5C 16.4303,77.1283 14.5969,77.1283 12,80.5C 10.9887,79.6634 9.82207,79.33 8.5,79.5C 6.57973,76.6612 4.91306,73.6612 3.5,70.5C 4.72065,69.9717 5.88732,69.305 7,68.5C 7.49902,64.1794 7.66568,59.8461 7.5,55.5C 10.1667,55.5 12.8333,55.5 15.5,55.5 Z"/></g>
<g><path style="opacity:0.806" fill="#61b532" d="M 96.5,49.5 C 97.5,49.5 98.5,49.5 99.5,49.5C 99.5,52.8333 99.5,56.1667 99.5,59.5C 98.7613,63.0449 97.428,66.3783 95.5,69.5C 94.7784,69.9175 94.2784,70.5842 94,71.5C 93.5045,69.5273 93.3379,67.5273 93.5,65.5C 95.265,60.3399 96.265,55.0066 96.5,49.5 Z"/></g>
<g><path style="opacity:0.962" fill="#60b532" d="M 80.5,51.5 C 76.4533,59.2431 70.7867,65.5764 63.5,70.5C 63.5,68.1667 63.5,65.8333 63.5,63.5C 67.3853,59.8593 71.3853,56.1926 75.5,52.5C 77.2161,52.3713 78.8828,52.038 80.5,51.5 Z"/></g>
<g><path style="opacity:1" fill="#62b349" d="M 14.5,63.5 C 15.3382,63.8417 15.6716,64.5084 15.5,65.5C 14.0222,65.762 12.6888,65.4287 11.5,64.5C 12.325,63.6143 13.325,63.281 14.5,63.5 Z"/></g>
<g><path style="opacity:0.973" fill="#67b13f" d="M 63.5,63.5 C 63.5,65.8333 63.5,68.1667 63.5,70.5C 59.7522,73.0406 55.7522,75.0406 51.5,76.5C 51.4142,75.5041 51.7476,74.6708 52.5,74C 58.3872,72.9657 61.3872,69.7991 61.5,64.5C 61.8417,63.6618 62.5084,63.3284 63.5,63.5 Z"/></g>
<g><path style="opacity:1" fill="#66b03d" d="M 93.5,65.5 C 93.3379,67.5273 93.5045,69.5273 94,71.5C 94.2784,70.5842 94.7784,69.9175 95.5,69.5C 95.3465,71.9699 94.3465,73.9699 92.5,75.5C 92.5,74.1667 92.5,72.8333 92.5,71.5C 91.5,71.5 90.5,71.5 89.5,71.5C 90.8465,69.4632 92.1798,67.4632 93.5,65.5 Z"/></g>
<g><path style="opacity:0.971" fill="#60b730" d="M 61.5,64.5 C 61.3872,69.7991 58.3872,72.9657 52.5,74C 51.7476,74.6708 51.4142,75.5041 51.5,76.5C 49.8212,76.2852 48.8212,76.9519 48.5,78.5C 44.1565,79.5578 39.8232,80.7245 35.5,82C 50.3915,84.6367 65.0581,83.8034 79.5,79.5C 81.1667,79.5 82.8333,79.5 84.5,79.5C 84.5,78.5 84.5,77.5 84.5,76.5C 86.4727,75.194 88.1394,73.5273 89.5,71.5C 90.5,71.5 91.5,71.5 92.5,71.5C 92.5,72.8333 92.5,74.1667 92.5,75.5C 88.5,82.8333 82.8333,88.5 75.5,92.5C 72.3607,92.5988 70.0274,93.9321 68.5,96.5C 65.4487,97.6322 62.4487,98.6322 59.5,99.5C 52.8333,99.5 46.1667,99.5 39.5,99.5C 37.6264,98.7148 35.6264,98.0482 33.5,97.5C 31.5073,91.0376 31.0073,84.3709 32,77.5C 34.5525,80.1941 35.7192,79.5274 35.5,75.5C 36.5,75.5 37.5,75.5 38.5,75.5C 38.5,74.5 38.5,73.5 38.5,72.5C 46.6106,71.0191 54.2773,68.3524 61.5,64.5 Z"/></g>
<g><path style="opacity:0.008" fill="#5ba130" d="M 51.5,76.5 C 50.7095,77.4013 49.7095,78.0679 48.5,78.5C 48.8212,76.9519 49.8212,76.2852 51.5,76.5 Z"/></g>
<g><path style="opacity:1" fill="#65ae43" d="M 84.5,76.5 C 84.5,77.5 84.5,78.5 84.5,79.5C 82.8333,79.5 81.1667,79.5 79.5,79.5C 80.9649,78.2632 82.6316,77.2632 84.5,76.5 Z"/></g>
<g><path style="opacity:0.945" fill="#64b434" d="M 17.5,80.5 C 17.1667,81.5 16.5,82.1667 15.5,82.5C 14.596,83.209 14.2627,84.209 14.5,85.5C 12.1667,83.8333 10.1667,81.8333 8.5,79.5C 9.82207,79.33 10.9887,79.6634 12,80.5C 14.5969,77.1283 16.4303,77.1283 17.5,80.5 Z"/></g>
<g><path style="opacity:0.031" fill="#56bf25" d="M 15.5,82.5 C 15.8925,84.2838 16.5592,85.9505 17.5,87.5C 17.1667,87.5 16.8333,87.5 16.5,87.5C 15.5,87.1667 14.8333,86.5 14.5,85.5C 14.2627,84.209 14.596,83.209 15.5,82.5 Z"/></g>
<g><path style="opacity:0.966" fill="#63b03f" d="M 17.5,88.5 C 20.9496,87.7564 22.6162,89.0897 22.5,92.5C 20.8089,91.1363 19.1423,89.803 17.5,88.5 Z"/></g>
<g><path style="opacity:0.99" fill="#58bb33" d="M 27.5,94.5 C 25.847,94.3404 24.5137,93.6737 23.5,92.5C 23.281,91.325 23.6143,90.325 24.5,89.5C 27.8872,90.1479 28.8872,91.8145 27.5,94.5 Z"/></g>
<g><path style="opacity:0.545" fill="#65ac3f" d="M 75.5,92.5 C 73.6505,94.5716 71.3171,95.9049 68.5,96.5C 70.0274,93.9321 72.3607,92.5988 75.5,92.5 Z"/></g>
</svg>
