<?xml version="1.0" encoding="UTF-8"?>
<!DOCTYPE svg PUBLIC "-//W3C//DTD SVG 1.1//EN" "http://www.w3.org/Graphics/SVG/1.1/DTD/svg11.dtd">
<svg xmlns="http://www.w3.org/2000/svg" version="1.1" width="100px" height="100px" style="shape-rendering:geometricPrecision; text-rendering:geometricPrecision; image-rendering:optimizeQuality; fill-rule:evenodd; clip-rule:evenodd" xmlns:xlink="http://www.w3.org/1999/xlink">
<g><path style="opacity:0.801" fill="#d1d6d8" d="M 38.5,-0.5 C 40.1667,-0.5 41.8333,-0.5 43.5,-0.5C 42.9498,5.96178 44.2832,11.9618 47.5,17.5C 45.8333,17.5 44.1667,17.5 42.5,17.5C 42.3059,13.9952 41.3059,13.6618 39.5,16.5C 39.1667,16.5 38.8333,16.5 38.5,16.5C 37.0813,15.5489 35.4147,15.2155 33.5,15.5C 34.9869,14.1964 36.6536,13.0298 38.5,12C 35.4512,10.9431 32.4512,10.7764 29.5,11.5C 30.1925,12.5178 30.8592,13.5178 31.5,14.5C 29.3146,14.2964 27.3146,13.6298 25.5,12.5C 23.8333,8.5 22.1667,8.5 20.5,12.5C 19.5,11.8333 18.5,11.1667 17.5,10.5C 18.0312,8.37627 19.3645,6.87627 21.5,6C 27.1596,3.50734 32.8263,1.34067 38.5,-0.5 Z M 37.5,3.5 C 39.7409,4.29977 40.7409,5.96644 40.5,8.5C 36.9801,8.19537 33.6467,7.36203 30.5,6C 33.0037,5.30239 35.337,4.46906 37.5,3.5 Z"/></g>
<g><path style="opacity:0.953" fill="#f0b1b5" d="M 25.5,12.5 C 27.3146,13.6298 29.3146,14.2964 31.5,14.5C 32.1667,14.8333 32.8333,15.1667 33.5,15.5C 35.4147,15.2155 37.0813,15.5489 38.5,16.5C 34.2576,16.9208 30.2576,16.2541 26.5,14.5C 26.1667,13.8333 25.8333,13.1667 25.5,12.5 Z"/></g>
<g><path style="opacity:0.811" fill="#b31f1e" d="M 17.5,10.5 C 18.5,11.1667 19.5,11.8333 20.5,12.5C 22.5,13.1667 24.5,13.8333 26.5,14.5C 30.2576,16.2541 34.2576,16.9208 38.5,16.5C 38.8333,16.5 39.1667,16.5 39.5,16.5C 40.609,16.5569 41.609,16.8902 42.5,17.5C 44.1667,17.5 45.8333,17.5 47.5,17.5C 50.0529,18.2549 52.7196,18.9216 55.5,19.5C 56.546,22.1903 57.546,24.8569 58.5,27.5C 57.5,27.5 56.5,27.5 55.5,27.5C 56.9687,25.8947 56.6354,25.3947 54.5,26C 52.9991,27.2515 51.3325,28.2515 49.5,29C 48.7476,29.6708 48.4142,30.5041 48.5,31.5C 49.3543,33.035 49.3543,34.3684 48.5,35.5C 45.6566,32.4234 44.3232,33.0901 44.5,37.5C 43.8333,37.5 43.5,37.8333 43.5,38.5C 42.8333,38.8333 42.1667,39.1667 41.5,39.5C 41.1667,38.8333 40.8333,38.1667 40.5,37.5C 40.1583,36.6618 39.4916,36.3284 38.5,36.5C 37.6457,35.3684 37.6457,34.035 38.5,32.5C 39.7383,32.19 39.7383,31.69 38.5,31C 36.4817,30.4954 34.4817,29.9954 32.5,29.5C 31.1667,29.5 29.8333,29.5 28.5,29.5C 26.7364,24.2227 23.5697,19.8894 19,16.5C 17.872,14.6547 17.372,12.6547 17.5,10.5 Z M 45.5,21.5 C 47.9892,21.2978 50.3225,21.7978 52.5,23C 50.2462,24.3767 48.0795,25.8767 46,27.5C 45.5045,25.5273 45.3379,23.5273 45.5,21.5 Z M 39.5,21.5 C 41.9816,23.1017 42.815,25.4351 42,28.5C 39.5529,27.5944 37.0529,26.7611 34.5,26C 36.2395,24.483 37.9062,22.983 39.5,21.5 Z M 26.5,19.5 C 26.9169,18.8761 27.5836,18.5427 28.5,18.5C 36.4888,18.5836 37.1555,20.2503 30.5,23.5C 29.4787,21.812 28.1454,20.4787 26.5,19.5 Z"/></g>
<g><path style="opacity:1" fill="#ae1f1f" d="M 55.5,19.5 C 72.1132,21.1347 85.4465,28.468 95.5,41.5C 86.1999,43.3833 76.8666,45.0499 67.5,46.5C 67.369,45.7611 67.5357,45.0944 68,44.5C 69.3024,43.9152 70.469,43.2485 71.5,42.5C 77.4744,41.2885 83.4744,40.1219 89.5,39C 85.9482,35.7809 82.1149,32.9476 78,30.5C 77.7216,31.4158 77.2216,32.0825 76.5,32.5C 76.1961,31.8501 75.8627,31.1835 75.5,30.5C 76.7287,29.7189 78.062,29.2189 79.5,29C 76.749,26.644 73.749,25.8106 70.5,26.5C 67.2932,25.5976 64.1265,24.5976 61,23.5C 60.2564,25.8997 59.4231,28.233 58.5,30.5C 57.1667,30.5 55.8333,30.5 54.5,30.5C 55.1098,29.609 55.4431,28.609 55.5,27.5C 56.5,27.5 57.5,27.5 58.5,27.5C 57.546,24.8569 56.546,22.1903 55.5,19.5 Z"/></g>
<g><path style="opacity:0.836" fill="#b41c1b" d="M 76.5,32.5 C 75.4176,35.659 73.5842,38.3257 71,40.5C 70.3083,41.4368 70.475,42.1034 71.5,42.5C 70.469,43.2485 69.3024,43.9152 68,44.5C 67.5357,45.0944 67.369,45.7611 67.5,46.5C 67.1667,46.5 66.8333,46.5 66.5,46.5C 65.2058,45.7101 64.0391,44.7101 63,43.5C 62.6174,44.056 62.1174,44.3893 61.5,44.5C 59.8304,41.9984 57.6637,39.9984 55,38.5C 52.6356,41.6902 50.1356,44.6902 47.5,47.5C 46.596,46.791 46.2627,45.791 46.5,44.5C 46.5106,42.9826 47.1772,41.8159 48.5,41C 46.9343,40.7003 45.601,41.2003 44.5,42.5C 43.0998,41.8999 42.0998,40.8999 41.5,39.5C 42.1667,39.1667 42.8333,38.8333 43.5,38.5C 44.1667,38.5 44.5,38.1667 44.5,37.5C 46.153,37.3404 47.4863,36.6737 48.5,35.5C 49.3543,34.3684 49.3543,33.035 48.5,31.5C 50.3904,31.2965 51.8904,31.9632 53,33.5C 53.5133,32.4734 54.0133,31.4734 54.5,30.5C 55.8333,30.5 57.1667,30.5 58.5,30.5C 58.4346,30.9382 58.6012,31.2716 59,31.5C 63.0413,30.105 66.8746,28.4384 70.5,26.5C 73.749,25.8106 76.749,26.644 79.5,29C 78.062,29.2189 76.7287,29.7189 75.5,30.5C 75.8627,31.1835 76.1961,31.8501 76.5,32.5 Z M 71.5,30.5 C 72.2389,30.369 72.9056,30.5357 73.5,31C 71.0524,35.1149 68.2191,38.9482 65,42.5C 62.8207,39.9891 60.3207,37.8224 57.5,36C 62.1587,33.8421 66.8254,32.0088 71.5,30.5 Z"/></g>
<g><path style="opacity:0.841" fill="#b11e1e" d="M 28.5,29.5 C 29.8333,29.5 31.1667,29.5 32.5,29.5C 32.838,31.854 33.338,34.1873 34,36.5C 35.3712,34.9586 36.8712,33.6253 38.5,32.5C 37.6457,34.035 37.6457,35.3684 38.5,36.5C 37.7101,37.7942 36.7101,38.9609 35.5,40C 36.0253,40.6924 36.6919,41.1924 37.5,41.5C 38.5207,40.0986 39.5207,38.7653 40.5,37.5C 40.8333,38.1667 41.1667,38.8333 41.5,39.5C 42.0998,40.8999 43.0998,41.8999 44.5,42.5C 40.5606,43.9358 40.5606,45.2691 44.5,46.5C 45.0431,46.56 45.3764,46.8933 45.5,47.5C 44.6399,49.9307 42.9732,51.264 40.5,51.5C 40.7778,49.6536 40.1112,48.3202 38.5,47.5C 37.4787,49.188 36.1454,50.5213 34.5,51.5C 33.2928,50.8112 31.9594,50.6446 30.5,51C 29.8906,49.0517 29.224,47.2184 28.5,45.5C 29.7868,40.1356 29.7868,34.8023 28.5,29.5 Z M 32.5,43.5 C 35.0009,43.5109 35.1676,44.1776 33,45.5C 32.5357,44.9056 32.369,44.2389 32.5,43.5 Z"/></g>
<g><path style="opacity:0.691" fill="#af2220" d="M 66.5,46.5 C 64.4006,47.6118 62.0673,48.2785 59.5,48.5C 57.6203,48.2291 56.287,48.8958 55.5,50.5C 53.7085,50.366 52.0418,50.6993 50.5,51.5C 47.1694,51.0181 44.5027,52.0181 42.5,54.5C 40.5,54.8333 38.5,55.1667 36.5,55.5C 34.9731,55.427 33.9731,56.0937 33.5,57.5C 33.1667,57.5 32.8333,57.5 32.5,57.5C 30.9382,57.7329 29.6049,58.3995 28.5,59.5C 26.5,60.5 24.5,61.5 22.5,62.5C 20.5,63.1667 18.5,63.8333 16.5,64.5C 15.5,64.5 14.5,64.5 13.5,64.5C 19.643,59.0288 24.643,52.6955 28.5,45.5C 29.224,47.2184 29.8906,49.0517 30.5,51C 31.9594,50.6446 33.2928,50.8112 34.5,51.5C 34.5,51.8333 34.5,52.1667 34.5,52.5C 36.5,52.1667 38.5,51.8333 40.5,51.5C 42.9732,51.264 44.6399,49.9307 45.5,47.5C 45.3764,46.8933 45.0431,46.56 44.5,46.5C 44.8333,45.5 45.5,44.8333 46.5,44.5C 46.2627,45.791 46.596,46.791 47.5,47.5C 47.56,48.0431 47.8933,48.3764 48.5,48.5C 52.8162,47.006 57.1495,45.6726 61.5,44.5C 62.1174,44.3893 62.6174,44.056 63,43.5C 64.0391,44.7101 65.2058,45.7101 66.5,46.5 Z M 40.5,51.5 C 38.5,51.8333 36.5,52.1667 34.5,52.5C 34.5,52.1667 34.5,51.8333 34.5,51.5C 36.1454,50.5213 37.4787,49.188 38.5,47.5C 40.1112,48.3202 40.7778,49.6536 40.5,51.5 Z"/></g>
<g><path style="opacity:0.755" fill="#d3d6d8" d="M 59.5,48.5 C 60.3649,56.4659 60.6982,64.4659 60.5,72.5C 59.7611,72.369 59.0944,72.5357 58.5,73C 58.0853,75.0263 57.0853,76.5263 55.5,77.5C 56.3029,76.5768 56.4696,75.5768 56,74.5C 52.0095,76.9122 47.8429,78.9122 43.5,80.5C 42.8333,79.8333 42.1667,79.1667 41.5,78.5C 44.6106,76.4409 47.9439,74.6076 51.5,73C 48.7919,71.9305 46.1253,70.7639 43.5,69.5C 41.7807,72.3232 40.4473,75.3232 39.5,78.5C 39.1667,78.5 38.8333,78.5 38.5,78.5C 37.2921,79.2341 35.9587,79.5674 34.5,79.5C 36.2332,77.0535 37.0665,74.3869 37,71.5C 33.3414,73.3874 29.5081,74.8874 25.5,76C 27.8981,77.5242 30.2314,79.0242 32.5,80.5C 31.2921,81.2341 29.9587,81.5674 28.5,81.5C 26.2433,81.0383 24.2433,80.0383 22.5,78.5C 19.7606,81.2327 17.4273,84.2327 15.5,87.5C 14.8333,86.1667 14.1667,84.8333 13.5,83.5C 14.6253,81.8712 15.9586,80.3712 17.5,79C 14.1322,78.4572 10.7989,78.6239 7.5,79.5C 7.43255,78.0413 7.76589,76.7079 8.5,75.5C 12.3058,75.5879 15.9725,74.9213 19.5,73.5C 18.7695,70.8908 18.2695,68.2241 18,65.5C 14.6175,68.0608 11.4509,70.7275 8.5,73.5C 7.60895,72.8902 6.60895,72.5569 5.5,72.5C 5.42702,70.9731 6.09368,69.9731 7.5,69.5C 10.7598,68.2262 13.7598,66.5595 16.5,64.5C 18.5,63.8333 20.5,63.1667 22.5,62.5C 21.3855,65.1771 21.3855,67.8438 22.5,70.5C 25.2708,67.2946 27.2708,63.6279 28.5,59.5C 29.6049,58.3995 30.9382,57.7329 32.5,57.5C 31.6956,62.1182 30.0289,66.4515 27.5,70.5C 31.3757,70.4251 35.0424,69.0917 38.5,66.5C 36.0481,63.929 34.3814,60.929 33.5,57.5C 33.9731,56.0937 34.9731,55.427 36.5,55.5C 39.8046,65.1353 41.8046,64.802 42.5,54.5C 44.5027,52.0181 47.1694,51.0181 50.5,51.5C 52.2905,52.3913 54.1239,53.3913 56,54.5C 56.765,52.9343 56.5983,51.6009 55.5,50.5C 56.287,48.8958 57.6203,48.2291 59.5,48.5 Z M 45.5,54.5 C 48.7209,55.1109 51.7209,56.2776 54.5,58C 51.5,59.8333 48.5,61.6667 45.5,63.5C 45.1244,60.6267 45.1244,57.6267 45.5,54.5 Z M 32.5,57.5 C 32.8333,57.5 33.1667,57.5 33.5,57.5C 34.3814,60.929 36.0481,63.929 38.5,66.5C 35.0424,69.0917 31.3757,70.4251 27.5,70.5C 30.0289,66.4515 31.6956,62.1182 32.5,57.5 Z M 56.5,60.5 C 57.4767,63.2869 57.81,66.2869 57.5,69.5C 53.6535,69.455 49.9869,68.6217 46.5,67C 50.0689,65.0583 53.4022,62.8916 56.5,60.5 Z M 41.5,78.5 C 40.8333,78.5 40.1667,78.5 39.5,78.5C 40.4473,75.3232 41.7807,72.3232 43.5,69.5C 46.1253,70.7639 48.7919,71.9305 51.5,73C 47.9439,74.6076 44.6106,76.4409 41.5,78.5 Z M 34.5,79.5 C 34.1583,80.3382 33.4916,80.6716 32.5,80.5C 30.2314,79.0242 27.8981,77.5242 25.5,76C 29.5081,74.8874 33.3414,73.3874 37,71.5C 37.0665,74.3869 36.2332,77.0535 34.5,79.5 Z"/></g>
<g><path style="opacity:1" fill="#9c3c3a" d="M 13.5,64.5 C 14.5,64.5 15.5,64.5 16.5,64.5C 13.7598,66.5595 10.7598,68.2262 7.5,69.5C 9.09051,67.3674 11.0905,65.7007 13.5,64.5 Z"/></g>
<g><path style="opacity:0.939" fill="#d0d8d9" d="M 5.5,72.5 C 6.60895,72.5569 7.60895,72.8902 8.5,73.5C 7.49367,74.3957 7.49367,75.0623 8.5,75.5C 7.76589,76.7079 7.43255,78.0413 7.5,79.5C 6.62356,79.3691 5.95689,79.7025 5.5,80.5C 6.50136,83.1732 8.00136,85.5065 10,87.5C 11.4048,86.2695 12.5714,84.9361 13.5,83.5C 14.1667,84.8333 14.8333,86.1667 15.5,87.5C 20.572,86.31 25.572,84.81 30.5,83C 29.5842,82.7216 28.9175,82.2216 28.5,81.5C 29.9587,81.5674 31.2921,81.2341 32.5,80.5C 33.4916,80.6716 34.1583,80.3382 34.5,79.5C 35.9587,79.5674 37.2921,79.2341 38.5,78.5C 38.8333,79.8333 39.1667,79.8333 39.5,78.5C 40.1667,78.5 40.8333,78.5 41.5,78.5C 42.1667,79.1667 42.8333,79.8333 43.5,80.5C 42.3998,81.5585 41.0664,82.3918 39.5,83C 44.1401,84.6366 48.8067,85.1366 53.5,84.5C 54.5771,82.2706 55.2437,79.9372 55.5,77.5C 57.0853,76.5263 58.0853,75.0263 58.5,73C 59.0944,72.5357 59.7611,72.369 60.5,72.5C 59.1132,82.2641 55.7798,91.2641 50.5,99.5C 45.8333,99.5 41.1667,99.5 36.5,99.5C 25.7438,98.4683 15.7438,94.9683 6.5,89C 1.70966,83.587 1.37633,78.087 5.5,72.5 Z M 49.5,90.5 C 50.2389,90.369 50.9056,90.5357 51.5,91C 50.624,92.586 49.624,94.086 48.5,95.5C 44.0832,96.87 39.7498,96.7033 35.5,95C 40.4921,94.1682 45.1588,92.6682 49.5,90.5 Z M 27.5,88.5 C 26.2073,90.2959 24.7073,91.9625 23,93.5C 20.9285,92.4752 18.7619,91.6419 16.5,91C 20.0704,89.6905 23.737,88.8572 27.5,88.5 Z M 34.5,85.5 C 38.1268,86.4293 41.7934,87.2627 45.5,88C 40.47,90.5908 35.1367,91.9242 29.5,92C 31.7655,90.2419 33.4322,88.0752 34.5,85.5 Z M 28.5,81.5 C 28.9175,82.2216 29.5842,82.7216 30.5,83C 25.572,84.81 20.572,86.31 15.5,87.5C 17.4273,84.2327 19.7606,81.2327 22.5,78.5C 24.2433,80.0383 26.2433,81.0383 28.5,81.5 Z M 13.5,83.5 C 12.5714,84.9361 11.4048,86.2695 10,87.5C 8.00136,85.5065 6.50136,83.1732 5.5,80.5C 5.95689,79.7025 6.62356,79.3691 7.5,79.5C 10.7989,78.6239 14.1322,78.4572 17.5,79C 15.9586,80.3712 14.6253,81.8712 13.5,83.5 Z M 55.5,77.5 C 55.2437,79.9372 54.5771,82.2706 53.5,84.5C 48.8067,85.1366 44.1401,84.6366 39.5,83C 41.0664,82.3918 42.3998,81.5585 43.5,80.5C 47.8429,78.9122 52.0095,76.9122 56,74.5C 56.4696,75.5768 56.3029,76.5768 55.5,77.5 Z"/></g>
</svg>
