<?xml version="1.0" encoding="UTF-8"?>
<!DOCTYPE svg PUBLIC "-//W3C//DTD SVG 1.1//EN" "http://www.w3.org/Graphics/SVG/1.1/DTD/svg11.dtd">
<svg xmlns="http://www.w3.org/2000/svg" version="1.1" width="100px" height="100px" style="shape-rendering:geometricPrecision; text-rendering:geometricPrecision; image-rendering:optimizeQuality; fill-rule:evenodd; clip-rule:evenodd" xmlns:xlink="http://www.w3.org/1999/xlink">
<g><path style="opacity:0.992" fill="#ec8537" d="M 60.5,6.5 C 61.8333,6.5 63.1667,6.5 64.5,6.5C 64.5,8.16667 64.5,9.83333 64.5,11.5C 63.197,9.85774 61.8637,8.19107 60.5,6.5 Z"/></g>
<g><path style="opacity:0.976" fill="#e98430" d="M 72.5,5.5 C 73.803,7.14226 75.1363,8.80893 76.5,10.5C 74.2592,8.84346 71.9259,8.1768 69.5,8.5C 70.548,7.45196 71.548,6.45196 72.5,5.5 Z"/></g>
<g><path style="opacity:0.985" fill="#f58123" d="M 67.5,-0.5 C 67.8333,-0.5 68.1667,-0.5 68.5,-0.5C 70.2255,1.22794 71.5589,3.22794 72.5,5.5C 71.548,6.45196 70.548,7.45196 69.5,8.5C 71.9259,8.1768 74.2592,8.84346 76.5,10.5C 77.1667,11.5 77.8333,12.5 78.5,13.5C 77.5985,17.2407 78.9319,19.2407 82.5,19.5C 86.4691,23.9774 90.3024,28.644 94,33.5C 94.7401,34.7494 94.5735,35.7494 93.5,36.5C 91.8212,36.2852 90.8212,36.9519 90.5,38.5C 89.3409,40.3769 87.6742,40.8769 85.5,40C 79.5643,33.2381 74.231,26.0714 69.5,18.5C 69.5,17.5 69.5,16.5 69.5,15.5C 70.5,15.5 71.5,15.5 72.5,15.5C 72.6162,12.0897 70.9496,10.7564 67.5,11.5C 67.4789,8.46523 66.1455,6.1319 63.5,4.5C 64.6888,3.57131 66.0222,3.23798 67.5,3.5C 67.5,2.16667 67.5,0.833333 67.5,-0.5 Z"/></g>
<g><path style="opacity:1" fill="#f17f2a" d="M 65.5,-0.5 C 66.1667,-0.5 66.8333,-0.5 67.5,-0.5C 67.5,0.833333 67.5,2.16667 67.5,3.5C 66.0222,3.23798 64.6888,3.57131 63.5,4.5C 66.1455,6.1319 67.4789,8.46523 67.5,11.5C 70.9496,10.7564 72.6162,12.0897 72.5,15.5C 71.5,15.5 70.5,15.5 69.5,15.5C 69.5,16.5 69.5,17.5 69.5,18.5C 67.6002,16.3805 65.9336,14.0472 64.5,11.5C 64.5,9.83333 64.5,8.16667 64.5,6.5C 63.1667,6.5 61.8333,6.5 60.5,6.5C 59.475,6.10343 59.3083,5.43677 60,4.5C 62.0289,2.96748 63.8622,1.30081 65.5,-0.5 Z"/></g>
<g><path style="opacity:0.996" fill="#f18129" d="M 61.5,22.5 C 58.7462,22.7845 56.0795,23.4512 53.5,24.5C 55.4236,25.9653 55.7569,27.632 54.5,29.5C 51.8333,27.1667 49.1667,24.8333 46.5,22.5C 46.7036,20.3146 47.3702,18.3146 48.5,16.5C 48.7218,13.9236 50.0551,13.0902 52.5,14C 55.9565,16.3868 58.9565,19.2202 61.5,22.5 Z"/></g>
<g><path style="opacity:0.961" fill="#f18133" d="M 78.5,13.5 C 80.2181,15.2228 81.5514,17.2228 82.5,19.5C 78.9319,19.2407 77.5985,17.2407 78.5,13.5 Z"/></g>
<g><path style="opacity:0.706" fill="#e28135" d="M 48.5,16.5 C 47.3702,18.3146 46.7036,20.3146 46.5,22.5C 45.7109,22.2172 45.0442,21.7172 44.5,21C 45.3281,19.0077 46.6614,17.5077 48.5,16.5 Z"/></g>
<g><path style="opacity:0.995" fill="#f67d25" d="M 61.5,22.5 C 64.4549,24.1223 67.1215,26.1223 69.5,28.5C 66.4221,30.0297 63.7554,32.0297 61.5,34.5C 58.883,33.2141 56.5496,31.5475 54.5,29.5C 55.7569,27.632 55.4236,25.9653 53.5,24.5C 56.0795,23.4512 58.7462,22.7845 61.5,22.5 Z"/></g>
<g><path style="opacity:0.971" fill="#f38125" d="M 69.5,28.5 C 74.7688,32.5926 79.9354,36.926 85,41.5C 84.8788,44.6643 83.3788,47.1643 80.5,49C 79.0922,49.3152 77.7589,48.9819 76.5,48C 71.3051,43.6344 66.3051,39.1344 61.5,34.5C 63.7554,32.0297 66.4221,30.0297 69.5,28.5 Z"/></g>
<g><path style="opacity:1" fill="#ec822d" d="M 51.5,38.5 C 50.1779,38.33 49.0113,38.6634 48,39.5C 47.1667,38 46,36.8333 44.5,36C 41.5184,35.502 38.5184,35.3354 35.5,35.5C 35.6854,33.8042 36.5187,32.4709 38,31.5C 42.7656,33.465 47.2656,35.7984 51.5,38.5 Z"/></g>
<g><path style="opacity:0.11" fill="#e88635" d="M 93.5,36.5 C 92.7095,37.4013 91.7095,38.0679 90.5,38.5C 90.8212,36.9519 91.8212,36.2852 93.5,36.5 Z"/></g>
<g><path style="opacity:0.999" fill="#ef8226" d="M 40.5,43.5 C 38.4471,43.5979 36.7804,42.9313 35.5,41.5C 35.1667,40.8333 34.8333,40.1667 34.5,39.5C 36.9541,39.6795 39.1208,39.0128 41,37.5C 43.0197,38.0319 43.853,39.3652 43.5,41.5C 41.8212,41.2852 40.8212,41.9519 40.5,43.5 Z"/></g>
<g><path style="opacity:0.29" fill="#d8874a" d="M 34.5,38.5 C 34.5,38.8333 34.5,39.1667 34.5,39.5C 34.8333,40.1667 35.1667,40.8333 35.5,41.5C 33.4482,40.9473 33.1148,39.9473 34.5,38.5 Z"/></g>
<g><path style="opacity:0.999" fill="#f57f25" d="M 35.5,35.5 C 38.5184,35.3354 41.5184,35.502 44.5,36C 46,36.8333 47.1667,38 48,39.5C 49.0113,38.6634 50.1779,38.33 51.5,38.5C 55.45,39.5922 59.1167,41.2589 62.5,43.5C 62.1788,45.0481 61.1788,45.7148 59.5,45.5C 59.5,46.8333 59.5,48.1667 59.5,49.5C 58.0813,50.4511 56.4147,50.7845 54.5,50.5C 49.4843,48.6589 44.8177,46.3256 40.5,43.5C 40.8212,41.9519 41.8212,41.2852 43.5,41.5C 43.853,39.3652 43.0197,38.0319 41,37.5C 39.1208,39.0128 36.9541,39.6795 34.5,39.5C 34.5,39.1667 34.5,38.8333 34.5,38.5C 34.5569,37.391 34.8902,36.391 35.5,35.5 Z"/></g>
<g><path style="opacity:0.983" fill="#f38024" d="M 62.5,43.5 C 67.5874,45.3661 72.5874,47.5327 77.5,50C 78.7911,51.2917 78.7911,52.4583 77.5,53.5C 75.0178,54.6627 73.6845,56.6627 73.5,59.5C 69.6837,58.0906 66.0171,56.424 62.5,54.5C 62.7271,52.0672 61.7271,50.4006 59.5,49.5C 59.5,48.1667 59.5,46.8333 59.5,45.5C 61.1788,45.7148 62.1788,45.0481 62.5,43.5 Z"/></g>
<g><path style="opacity:0.996" fill="#ea8628" d="M 59.5,49.5 C 61.7271,50.4006 62.7271,52.0672 62.5,54.5C 59.5198,53.6766 56.8531,52.3433 54.5,50.5C 56.4147,50.7845 58.0813,50.4511 59.5,49.5 Z"/></g>
<g><path style="opacity:0.078" fill="#da8544" d="M 32.5,52.5 C 31.391,52.5569 30.391,52.8902 29.5,53.5C 30.0527,51.4482 31.0527,51.1148 32.5,52.5 Z"/></g>
<g><path style="opacity:0.942" fill="#ef812c" d="M 77.5,53.5 C 77.4191,56.5134 76.0858,58.5134 73.5,59.5C 73.6845,56.6627 75.0178,54.6627 77.5,53.5 Z"/></g>
<g><path style="opacity:0.991" fill="#f38024" d="M 32.5,52.5 C 37.1025,52.8616 41.4359,53.8616 45.5,55.5C 47.4998,57.5286 47.8332,59.8619 46.5,62.5C 45.7348,63.6119 44.7348,64.2786 43.5,64.5C 38.4352,64.1003 33.4352,63.267 28.5,62C 27.7463,59.1341 28.0796,56.3008 29.5,53.5C 30.391,52.8902 31.391,52.5569 32.5,52.5 Z"/></g>
<g><path style="opacity:0.643" fill="#f18326" d="M 45.5,55.5 C 54.8902,57.0097 64.2235,58.843 73.5,61C 74.7383,61.69 74.7383,62.19 73.5,62.5C 72.4168,62.4606 71.4168,62.1272 70.5,61.5C 69.5676,63.766 68.2342,65.766 66.5,67.5C 65.8333,65.1667 65.1667,62.8333 64.5,60.5C 63.7065,60.9312 62.8732,61.2645 62,61.5C 56.5161,56.7938 54.0161,58.1272 54.5,65.5C 51.8333,65.5 49.1667,65.5 46.5,65.5C 45.209,65.7373 44.209,65.404 43.5,64.5C 44.7348,64.2786 45.7348,63.6119 46.5,62.5C 47.8332,59.8619 47.4998,57.5286 45.5,55.5 Z"/></g>
<g><path style="opacity:0.909" fill="#f48024" d="M 73.5,62.5 C 72.9682,68.1523 72.6349,73.819 72.5,79.5C 71.4138,79.38 70.7472,78.7133 70.5,77.5C 70.8492,75.3398 70.8492,73.3398 70.5,71.5C 62.4911,69.4978 54.4911,67.4978 46.5,65.5C 49.1667,65.5 51.8333,65.5 54.5,65.5C 54.0161,58.1272 56.5161,56.7938 62,61.5C 62.8732,61.2645 63.7065,60.9312 64.5,60.5C 65.1667,62.8333 65.8333,65.1667 66.5,67.5C 68.2342,65.766 69.5676,63.766 70.5,61.5C 71.4168,62.1272 72.4168,62.4606 73.5,62.5 Z"/></g>
<g><path style="opacity:0.891" fill="#bababa" d="M 90.5,99.5 C 63.5,99.5 36.5,99.5 9.5,99.5C 9.5,87.5 9.5,75.5 9.5,63.5C 12.8333,63.5 16.1667,63.5 19.5,63.5C 19.5,72.1667 19.5,80.8333 19.5,89.5C 39.8333,89.5 60.1667,89.5 80.5,89.5C 80.5,80.8333 80.5,72.1667 80.5,63.5C 83.8333,63.5 87.1667,63.5 90.5,63.5C 90.5,75.5 90.5,87.5 90.5,99.5 Z"/></g>
<g><path style="opacity:0.872" fill="#f68024" d="M 26.5,72.5 C 31.5111,72.3341 36.5111,72.5007 41.5,73C 26.8484,73.8312 26.8484,74.3312 41.5,74.5C 41.5,75.8333 41.5,77.1667 41.5,78.5C 38.1501,78.335 34.8168,78.5017 31.5,79C 32.5981,79.7697 32.5981,80.603 31.5,81.5C 29.7839,81.3713 28.1172,81.038 26.5,80.5C 26.5,77.8333 26.5,75.1667 26.5,72.5 Z"/></g>
<g><path style="opacity:0.957" fill="#f0842a" d="M 26.5,72.5 C 39.3226,71.5045 52.3226,71.1712 65.5,71.5C 63.8516,73.4559 63.1849,75.7892 63.5,78.5C 56.1667,78.5 48.8333,78.5 41.5,78.5C 41.5,77.1667 41.5,75.8333 41.5,74.5C 26.8484,74.3312 26.8484,73.8312 41.5,73C 36.5111,72.5007 31.5111,72.3341 26.5,72.5 Z"/></g>
<g><path style="opacity:1" fill="#f57f28" d="M 65.5,71.5 C 67.1667,71.5 68.8333,71.5 70.5,71.5C 70.8492,73.3398 70.8492,75.3398 70.5,77.5C 70.7472,78.7133 71.4138,79.38 72.5,79.5C 72.5,80.1667 72.5,80.8333 72.5,81.5C 58.8333,81.5 45.1667,81.5 31.5,81.5C 32.5981,80.603 32.5981,79.7697 31.5,79C 34.8168,78.5017 38.1501,78.335 41.5,78.5C 48.8333,78.5 56.1667,78.5 63.5,78.5C 63.1849,75.7892 63.8516,73.4559 65.5,71.5 Z"/></g>
<g><path style="opacity:0.024" fill="#df6d19" d="M 26.5,80.5 C 28.1172,81.038 29.7839,81.3713 31.5,81.5C 45.1667,81.5 58.8333,81.5 72.5,81.5C 57.6723,82.6611 42.6723,82.8277 27.5,82C 26.944,81.6174 26.6107,81.1174 26.5,80.5 Z"/></g>
</svg>
