<?xml version="1.0" encoding="UTF-8"?>
<!DOCTYPE svg PUBLIC "-//W3C//DTD SVG 1.1//EN" "http://www.w3.org/Graphics/SVG/1.1/DTD/svg11.dtd">
<svg xmlns="http://www.w3.org/2000/svg" version="1.1" width="100px" height="100px" style="shape-rendering:geometricPrecision; text-rendering:geometricPrecision; image-rendering:optimizeQuality; fill-rule:evenodd; clip-rule:evenodd" xmlns:xlink="http://www.w3.org/1999/xlink">
<g><path style="opacity:0.997" fill="#4c4c4b" d="M 2.5,-0.5 C 33.8333,-0.5 65.1667,-0.5 96.5,-0.5C 97.1667,0.833333 98.1667,1.83333 99.5,2.5C 99.5,9.5 99.5,16.5 99.5,23.5C 96.2655,24.576 92.9322,25.2427 89.5,25.5C 89.5,27.5 89.5,29.5 89.5,31.5C 91.5,31.5 93.5,31.5 95.5,31.5C 95.5,32.5 95.5,33.5 95.5,34.5C 91.0983,34.2281 86.7649,34.5614 82.5,35.5C 81.4777,35.1445 80.811,34.4778 80.5,33.5C 80.6663,26.4921 80.4996,19.4921 80,12.5C 79.3292,11.7476 78.4959,11.4142 77.5,11.5C 75.1016,11.2594 73.1016,11.9261 71.5,13.5C 68.8333,13.8333 66.1667,14.1667 63.5,14.5C 60.0172,15.7523 56.3505,16.5856 52.5,17C 50.2231,18.8951 47.5565,20.0618 44.5,20.5C 44.1373,21.1835 43.8039,21.8501 43.5,22.5C 41.8333,22.5 40.1667,22.5 38.5,22.5C 32.4261,23.1464 27.0928,25.1464 22.5,28.5C 21.8333,28.5 21.5,28.8333 21.5,29.5C 20.1667,29.5 18.8333,29.5 17.5,29.5C 15.7202,28.0101 15.0535,26.0101 15.5,23.5C 10.1667,23.5 4.83333,23.5 -0.5,23.5C -0.5,16.5 -0.5,9.5 -0.5,2.5C 0.833333,1.83333 1.83333,0.833333 2.5,-0.5 Z"/></g>
<g><path style="opacity:1" fill="#6d4a25" d="M 77.5,11.5 C 77.5,11.8333 77.5,12.1667 77.5,12.5C 76.209,12.2627 75.209,12.596 74.5,13.5C 73.5,13.5 72.5,13.5 71.5,13.5C 73.1016,11.9261 75.1016,11.2594 77.5,11.5 Z"/></g>
<g><path style="opacity:1" fill="#684e15" d="M 71.5,13.5 C 68.7458,14.9459 65.7458,15.9459 62.5,16.5C 62.8333,15.8333 63.1667,15.1667 63.5,14.5C 66.1667,14.1667 68.8333,13.8333 71.5,13.5 Z"/></g>
<g><path style="opacity:1" fill="#fd9803" d="M 76.5,32.5 C 73.1501,32.335 69.8168,32.5017 66.5,33C 64.5704,35.6525 61.9037,36.9859 58.5,37C 57.4293,37.8518 56.4293,38.6851 55.5,39.5C 55.5,40.1667 55.5,40.8333 55.5,41.5C 56.64,42.8014 57.9733,43.9681 59.5,45C 65.079,46.6452 70.7457,47.8119 76.5,48.5C 76.5,54.5 76.5,60.5 76.5,66.5C 76.6716,67.4916 76.3382,68.1583 75.5,68.5C 65.725,64.8799 55.725,61.5465 45.5,58.5C 45.1583,57.6618 44.4916,57.3284 43.5,57.5C 43.1667,57.5 42.8333,57.5 42.5,57.5C 40.3826,55.3455 37.716,54.3455 34.5,54.5C 32.7085,54.634 31.0418,54.3007 29.5,53.5C 27.6048,51.9017 25.4381,50.5684 23,49.5C 22.5005,43.5092 22.3338,37.5092 22.5,31.5C 26.579,30.5787 30.579,30.0787 34.5,30C 40.6601,27.419 46.6601,24.5857 52.5,21.5C 54.8867,21.0879 56.8867,20.0879 58.5,18.5C 59.1667,18.5 59.8333,18.5 60.5,18.5C 65.7239,18.3892 70.7239,17.5559 75.5,16C 76.4732,21.4066 76.8066,26.9066 76.5,32.5 Z"/></g>
<g><path style="opacity:1" fill="#574930" d="M 77.5,12.5 C 77.5,12.1667 77.5,11.8333 77.5,11.5C 78.4959,11.4142 79.3292,11.7476 80,12.5C 80.4996,19.4921 80.6663,26.4921 80.5,33.5C 79.8333,33.5 79.1667,33.5 78.5,33.5C 78.5,33.1667 78.5,32.8333 78.5,32.5C 78.824,25.6457 78.4907,18.979 77.5,12.5 Z"/></g>
<g><path style="opacity:1" fill="#5d4a2c" d="M 63.5,14.5 C 63.1667,15.1667 62.8333,15.8333 62.5,16.5C 60.2143,16.595 58.2143,17.2616 56.5,18.5C 52.3825,20.2035 48.0492,21.5368 43.5,22.5C 43.8039,21.8501 44.1373,21.1835 44.5,20.5C 47.5565,20.0618 50.2231,18.8951 52.5,17C 56.3505,16.5856 60.0172,15.7523 63.5,14.5 Z"/></g>
<g><path style="opacity:1" fill="#9b6922" d="M 62.5,16.5 C 61.8333,17.1667 61.1667,17.8333 60.5,18.5C 59.8333,18.5 59.1667,18.5 58.5,18.5C 57.8333,18.5 57.1667,18.5 56.5,18.5C 58.2143,17.2616 60.2143,16.595 62.5,16.5 Z"/></g>
<g><path style="opacity:1" fill="#e99927" d="M 71.5,13.5 C 72.5,13.5 73.5,13.5 74.5,13.5C 75.5,13.5 76.5,13.5 77.5,13.5C 77.5,19.8333 77.5,26.1667 77.5,32.5C 77.1667,32.5 76.8333,32.5 76.5,32.5C 76.8066,26.9066 76.4732,21.4066 75.5,16C 70.7239,17.5559 65.7239,18.3892 60.5,18.5C 61.1667,17.8333 61.8333,17.1667 62.5,16.5C 65.7458,15.9459 68.7458,14.9459 71.5,13.5 Z"/></g>
<g><path style="opacity:1" fill="#dd9936" d="M 56.5,18.5 C 57.1667,18.5 57.8333,18.5 58.5,18.5C 56.8867,20.0879 54.8867,21.0879 52.5,21.5C 48.6033,22.9099 44.6033,23.9099 40.5,24.5C 41.5,23.8333 42.5,23.1667 43.5,22.5C 48.0492,21.5368 52.3825,20.2035 56.5,18.5 Z"/></g>
<g><path style="opacity:1" fill="#474746" d="M -0.5,23.5 C 4.83333,23.5 10.1667,23.5 15.5,23.5C 15.0535,26.0101 15.7202,28.0101 17.5,29.5C 18.2973,36.4207 18.7973,43.4207 19,50.5C 19.6708,51.2524 20.5041,51.5858 21.5,51.5C 25.9182,54.3678 30.9182,56.2011 36.5,57C 37.8825,58.4609 37.5492,59.2942 35.5,59.5C 31.5341,60.1621 27.5341,60.4955 23.5,60.5C 23.5,61.5 23.5,62.5 23.5,63.5C 22.5,63.8333 21.8333,64.5 21.5,65.5C 20.5,65.5 19.5,65.5 18.5,65.5C 18.6621,67.5273 18.4955,69.5273 18,71.5C 16.8462,67.546 16.0129,63.546 15.5,59.5C 10.1667,59.5 4.83333,59.5 -0.5,59.5C -0.5,47.5 -0.5,35.5 -0.5,23.5 Z"/></g>
<g><path style="opacity:1" fill="#464746" d="M 99.5,23.5 C 99.5,35.5 99.5,47.5 99.5,59.5C 93.1831,60.5874 86.8498,60.5874 80.5,59.5C 80.4859,53.9446 80.3192,48.6112 80,43.5C 79.3333,42.8333 78.6667,42.1667 78,41.5C 76.0838,43.0223 73.9171,44.0223 71.5,44.5C 71.1667,44.5 70.8333,44.5 70.5,44.5C 68.6465,42.3086 68.3132,39.9752 69.5,37.5C 72.6173,36.5665 75.6173,35.2331 78.5,33.5C 79.1667,33.5 79.8333,33.5 80.5,33.5C 80.811,34.4778 81.4777,35.1445 82.5,35.5C 86.7649,34.5614 91.0983,34.2281 95.5,34.5C 95.5,33.5 95.5,32.5 95.5,31.5C 93.5,31.5 91.5,31.5 89.5,31.5C 89.5,29.5 89.5,27.5 89.5,25.5C 92.9322,25.2427 96.2655,24.576 99.5,23.5 Z"/></g>
<g><path style="opacity:1" fill="#554b36" d="M 38.5,22.5 C 36.7392,23.3127 35.0725,24.3127 33.5,25.5C 31.6854,26.6298 29.6854,27.2964 27.5,27.5C 25.7085,27.366 24.0418,27.6993 22.5,28.5C 27.0928,25.1464 32.4261,23.1464 38.5,22.5 Z"/></g>
<g><path style="opacity:1" fill="#71501a" d="M 38.5,22.5 C 40.1667,22.5 41.8333,22.5 43.5,22.5C 42.5,23.1667 41.5,23.8333 40.5,24.5C 38.7085,24.366 37.0418,24.6993 35.5,25.5C 34.8333,25.5 34.1667,25.5 33.5,25.5C 35.0725,24.3127 36.7392,23.3127 38.5,22.5 Z"/></g>
<g><path style="opacity:1" fill="#f09a12" d="M 52.5,21.5 C 46.6601,24.5857 40.6601,27.419 34.5,30C 30.579,30.0787 26.579,30.5787 22.5,31.5C 22.5,30.8333 22.8333,30.5 23.5,30.5C 27.9357,29.5856 31.9357,27.919 35.5,25.5C 37.0418,24.6993 38.7085,24.366 40.5,24.5C 44.6033,23.9099 48.6033,22.9099 52.5,21.5 Z"/></g>
<g><path style="opacity:1" fill="#6f511c" d="M 27.5,27.5 C 26.3285,28.3446 24.9952,29.0113 23.5,29.5C 22.8333,29.5 22.1667,29.5 21.5,29.5C 21.5,28.8333 21.8333,28.5 22.5,28.5C 24.0418,27.6993 25.7085,27.366 27.5,27.5 Z"/></g>
<g><path style="opacity:1" fill="#af8038" d="M 74.5,13.5 C 75.209,12.596 76.209,12.2627 77.5,12.5C 78.4907,18.979 78.824,25.6457 78.5,32.5C 78.1667,32.5 77.8333,32.5 77.5,32.5C 77.5,26.1667 77.5,19.8333 77.5,13.5C 76.5,13.5 75.5,13.5 74.5,13.5 Z"/></g>
<g><path style="opacity:1" fill="#ce952e" d="M 33.5,25.5 C 34.1667,25.5 34.8333,25.5 35.5,25.5C 31.9357,27.919 27.9357,29.5856 23.5,30.5C 23.5,30.1667 23.5,29.8333 23.5,29.5C 24.9952,29.0113 26.3285,28.3446 27.5,27.5C 29.6854,27.2964 31.6854,26.6298 33.5,25.5 Z"/></g>
<g><path style="opacity:1" fill="#58462c" d="M 17.5,29.5 C 18.8333,29.5 20.1667,29.5 21.5,29.5C 20.1901,36.5988 20.1901,43.5988 21.5,50.5C 21.5,50.8333 21.5,51.1667 21.5,51.5C 20.5041,51.5858 19.6708,51.2524 19,50.5C 18.7973,43.4207 18.2973,36.4207 17.5,29.5 Z"/></g>
<g><path style="opacity:1" fill="#e69723" d="M 76.5,32.5 C 69.8693,35.6335 62.8693,37.9668 55.5,39.5C 56.4293,38.6851 57.4293,37.8518 58.5,37C 61.9037,36.9859 64.5704,35.6525 66.5,33C 69.8168,32.5017 73.1501,32.335 76.5,32.5 Z"/></g>
<g><path style="opacity:1" fill="#64471b" d="M 76.5,32.5 C 76.8333,32.5 77.1667,32.5 77.5,32.5C 77.8333,32.5 78.1667,32.5 78.5,32.5C 78.5,32.8333 78.5,33.1667 78.5,33.5C 75.6173,35.2331 72.6173,36.5665 69.5,37.5C 66.1786,38.4956 62.8453,39.4956 59.5,40.5C 61.1836,41.1497 62.5169,42.1497 63.5,43.5C 60.8877,42.6295 58.221,41.9628 55.5,41.5C 55.5,40.8333 55.5,40.1667 55.5,39.5C 62.8693,37.9668 69.8693,35.6335 76.5,32.5 Z"/></g>
<g><path style="opacity:1" fill="#b17c3a" d="M 21.5,29.5 C 22.1667,29.5 22.8333,29.5 23.5,29.5C 23.5,29.8333 23.5,30.1667 23.5,30.5C 22.8333,30.5 22.5,30.8333 22.5,31.5C 21.5098,37.6446 21.1765,43.9779 21.5,50.5C 20.1901,43.5988 20.1901,36.5988 21.5,29.5 Z"/></g>
<g><path style="opacity:1" fill="#e59a2d" d="M 22.5,31.5 C 22.3338,37.5092 22.5005,43.5092 23,49.5C 25.4381,50.5684 27.6048,51.9017 29.5,53.5C 26.8877,52.6295 24.221,51.9628 21.5,51.5C 21.5,51.1667 21.5,50.8333 21.5,50.5C 21.1765,43.9779 21.5098,37.6446 22.5,31.5 Z"/></g>
<g><path style="opacity:1" fill="#4c4737" d="M 69.5,37.5 C 68.3132,39.9752 68.6465,42.3086 70.5,44.5C 68.5648,43.8505 66.5648,43.5172 64.5,43.5C 64.1667,43.5 63.8333,43.5 63.5,43.5C 62.5169,42.1497 61.1836,41.1497 59.5,40.5C 62.8453,39.4956 66.1786,38.4956 69.5,37.5 Z"/></g>
<g><path style="opacity:1" fill="#745112" d="M 64.5,43.5 C 66.5648,43.5172 68.5648,43.8505 70.5,44.5C 70.8333,44.5 71.1667,44.5 71.5,44.5C 72.5,45.1667 73.5,45.8333 74.5,46.5C 70.8379,46.2766 67.5046,45.2766 64.5,43.5 Z"/></g>
<g><path style="opacity:1" fill="#e19632" d="M 34.5,54.5 C 37.716,54.3455 40.3826,55.3455 42.5,57.5C 39.6027,56.871 36.936,55.871 34.5,54.5 Z"/></g>
<g><path style="opacity:1" fill="#62411b" d="M 21.5,51.5 C 24.221,51.9628 26.8877,52.6295 29.5,53.5C 31.0418,54.3007 32.7085,54.634 34.5,54.5C 36.936,55.871 39.6027,56.871 42.5,57.5C 42.8333,57.5 43.1667,57.5 43.5,57.5C 43.5299,58.4972 43.0299,59.1639 42,59.5C 39.2094,60.4062 36.3761,61.0728 33.5,61.5C 34.1667,60.8333 34.8333,60.1667 35.5,59.5C 37.5492,59.2942 37.8825,58.4609 36.5,57C 30.9182,56.2011 25.9182,54.3678 21.5,51.5 Z"/></g>
<g><path style="opacity:1" fill="#e89b23" d="M 55.5,41.5 C 58.221,41.9628 60.8877,42.6295 63.5,43.5C 63.8333,43.5 64.1667,43.5 64.5,43.5C 67.5046,45.2766 70.8379,46.2766 74.5,46.5C 75.209,47.404 76.209,47.7373 77.5,47.5C 77.8235,54.0221 77.4902,60.3554 76.5,66.5C 76.5,60.5 76.5,54.5 76.5,48.5C 70.7457,47.8119 65.079,46.6452 59.5,45C 57.9733,43.9681 56.64,42.8014 55.5,41.5 Z"/></g>
<g><path style="opacity:0.998" fill="#424140" d="M 99.5,59.5 C 99.5,71.8333 99.5,84.1667 99.5,96.5C 98.1667,97.1667 97.1667,98.1667 96.5,99.5C 65.1667,99.5 33.8333,99.5 2.5,99.5C 1.83333,98.1667 0.833333,97.1667 -0.5,96.5C -0.5,84.1667 -0.5,71.8333 -0.5,59.5C 4.83333,59.5 10.1667,59.5 15.5,59.5C 16.0129,63.546 16.8462,67.546 18,71.5C 18.4955,69.5273 18.6621,67.5273 18.5,65.5C 19.5,65.5 20.5,65.5 21.5,65.5C 20.1901,72.5988 20.1901,79.5988 21.5,86.5C 24.533,87.7183 27.1996,87.0516 29.5,84.5C 35.5335,83.8195 41.2001,82.1528 46.5,79.5C 49.9924,79.554 52.9924,78.554 55.5,76.5C 58.1522,76.5905 60.4855,75.9238 62.5,74.5C 66.0443,74.8676 69.0443,73.8676 71.5,71.5C 73.8984,71.7406 75.8984,71.0739 77.5,69.5C 78.8222,66.2319 79.4888,62.5652 79.5,58.5C 79.4987,54.6508 79.1654,50.9841 78.5,47.5C 78.1667,47.5 77.8333,47.5 77.5,47.5C 76.209,47.7373 75.209,47.404 74.5,46.5C 73.5,45.8333 72.5,45.1667 71.5,44.5C 73.9171,44.0223 76.0838,43.0223 78,41.5C 78.6667,42.1667 79.3333,42.8333 80,43.5C 80.3192,48.6112 80.4859,53.9446 80.5,59.5C 86.8498,60.5874 93.1831,60.5874 99.5,59.5 Z"/></g>
<g><path style="opacity:1" fill="#b27e2f" d="M 77.5,47.5 C 77.8333,47.5 78.1667,47.5 78.5,47.5C 78.7973,54.9204 78.464,62.2537 77.5,69.5C 75.7839,69.6287 74.1172,69.962 72.5,70.5C 72.9731,69.0937 73.9731,68.427 75.5,68.5C 76.3382,68.1583 76.6716,67.4916 76.5,66.5C 77.4902,60.3554 77.8235,54.0221 77.5,47.5 Z"/></g>
<g><path style="opacity:1" fill="#5c4118" d="M 78.5,47.5 C 79.1654,50.9841 79.4987,54.6508 79.5,58.5C 79.4888,62.5652 78.8222,66.2319 77.5,69.5C 78.464,62.2537 78.7973,54.9204 78.5,47.5 Z"/></g>
<g><path style="opacity:1" fill="#474634" d="M 35.5,59.5 C 34.8333,60.1667 34.1667,60.8333 33.5,61.5C 32.791,62.404 31.791,62.7373 30.5,62.5C 28.0971,62.448 25.7638,62.7814 23.5,63.5C 23.5,62.5 23.5,61.5 23.5,60.5C 27.5341,60.4955 31.5341,60.1621 35.5,59.5 Z"/></g>
<g><path style="opacity:1" fill="#d58c25" d="M 43.5,57.5 C 44.4916,57.3284 45.1583,57.6618 45.5,58.5C 44.8333,59.5 44.1667,60.5 43.5,61.5C 38.2266,62.8183 32.8933,63.8183 27.5,64.5C 28.5,63.8333 29.5,63.1667 30.5,62.5C 31.791,62.7373 32.791,62.404 33.5,61.5C 36.3761,61.0728 39.2094,60.4062 42,59.5C 43.0299,59.1639 43.5299,58.4972 43.5,57.5 Z"/></g>
<g><path style="opacity:1" fill="#ed8701" d="M 45.5,58.5 C 55.725,61.5465 65.725,64.8799 75.5,68.5C 73.9731,68.427 72.9731,69.0937 72.5,70.5C 72.1667,70.5 71.8333,70.5 71.5,70.5C 69.8333,70.5 68.1667,70.5 66.5,70.5C 66.5858,69.5041 66.2524,68.6708 65.5,68C 58.7059,67.7769 52.0392,66.7769 45.5,65C 44.1772,64.1841 43.5106,63.0174 43.5,61.5C 44.1667,60.5 44.8333,59.5 45.5,58.5 Z"/></g>
<g><path style="opacity:1" fill="#604714" d="M 30.5,62.5 C 29.5,63.1667 28.5,63.8333 27.5,64.5C 26.1667,64.8333 24.8333,65.1667 23.5,65.5C 22.8333,65.5 22.1667,65.5 21.5,65.5C 21.8333,64.5 22.5,63.8333 23.5,63.5C 25.7638,62.7814 28.0971,62.448 30.5,62.5 Z"/></g>
<g><path style="opacity:1" fill="#fa9704" d="M 43.5,61.5 C 43.5106,63.0174 44.1772,64.1841 45.5,65C 52.0392,66.7769 58.7059,67.7769 65.5,68C 66.2524,68.6708 66.5858,69.5041 66.5,70.5C 63.0722,70.5465 60.0722,71.7132 57.5,74C 55.5273,74.4955 53.5273,74.6621 51.5,74.5C 48.7884,74.7375 46.2884,74.7375 44,74.5C 43.2935,76.0806 42.4601,77.5806 41.5,79C 38.7737,79.1816 36.1071,79.6816 33.5,80.5C 32.3757,81.8592 31.0423,82.8592 29.5,83.5C 27.1944,83.9926 24.861,84.3259 22.5,84.5C 22.5,78.8333 22.5,73.1667 22.5,67.5C 22.8333,66.8333 23.1667,66.1667 23.5,65.5C 24.8333,65.1667 26.1667,64.8333 27.5,64.5C 32.8933,63.8183 38.2266,62.8183 43.5,61.5 Z"/></g>
<g><path style="opacity:1" fill="#614015" d="M 77.5,69.5 C 75.8984,71.0739 73.8984,71.7406 71.5,71.5C 71.5,71.1667 71.5,70.8333 71.5,70.5C 71.8333,70.5 72.1667,70.5 72.5,70.5C 74.1172,69.962 75.7839,69.6287 77.5,69.5 Z"/></g>
<g><path style="opacity:1" fill="#e49d26" d="M 22.5,67.5 C 22.5,73.1667 22.5,78.8333 22.5,84.5C 24.861,84.3259 27.1944,83.9926 29.5,83.5C 29.5,83.8333 29.5,84.1667 29.5,84.5C 27.8828,85.038 26.2161,85.3713 24.5,85.5C 23.5,85.5 22.5,85.5 21.5,85.5C 21.1771,79.31 21.5104,73.31 22.5,67.5 Z"/></g>
<g><path style="opacity:1" fill="#5c4415" d="M 71.5,71.5 C 69.0443,73.8676 66.0443,74.8676 62.5,74.5C 65.145,72.6896 68.145,71.6896 71.5,71.5 Z"/></g>
<g><path style="opacity:1" fill="#ad7c35" d="M 21.5,65.5 C 22.1667,65.5 22.8333,65.5 23.5,65.5C 23.1667,66.1667 22.8333,66.8333 22.5,67.5C 21.5104,73.31 21.1771,79.31 21.5,85.5C 22.5,85.5 23.5,85.5 24.5,85.5C 23.791,86.404 22.791,86.7373 21.5,86.5C 20.1901,79.5988 20.1901,72.5988 21.5,65.5 Z"/></g>
<g><path style="opacity:1" fill="#dd952e" d="M 66.5,70.5 C 68.1667,70.5 69.8333,70.5 71.5,70.5C 71.5,70.8333 71.5,71.1667 71.5,71.5C 68.145,71.6896 65.145,72.6896 62.5,74.5C 59.8478,74.4095 57.5145,75.0762 55.5,76.5C 53.5,76.8333 51.5,77.1667 49.5,77.5C 50.1667,76.5 50.8333,75.5 51.5,74.5C 53.5273,74.6621 55.5273,74.4955 57.5,74C 60.0722,71.7132 63.0722,70.5465 66.5,70.5 Z"/></g>
<g><path style="opacity:1" fill="#66441c" d="M 62.5,74.5 C 60.4855,75.9238 58.1522,76.5905 55.5,76.5C 57.5145,75.0762 59.8478,74.4095 62.5,74.5 Z"/></g>
<g><path style="opacity:1" fill="#eb9a1c" d="M 51.5,74.5 C 50.8333,75.5 50.1667,76.5 49.5,77.5C 48.5,78.1667 47.5,78.8333 46.5,79.5C 40.8333,80.8333 35.1667,82.1667 29.5,83.5C 31.0423,82.8592 32.3757,81.8592 33.5,80.5C 36.1071,79.6816 38.7737,79.1816 41.5,79C 42.4601,77.5806 43.2935,76.0806 44,74.5C 46.2884,74.7375 48.7884,74.7375 51.5,74.5 Z"/></g>
<g><path style="opacity:1" fill="#5d4017" d="M 55.5,76.5 C 52.9924,78.554 49.9924,79.554 46.5,79.5C 47.5,78.8333 48.5,78.1667 49.5,77.5C 51.5,77.1667 53.5,76.8333 55.5,76.5 Z"/></g>
<g><path style="opacity:1" fill="#64430f" d="M 46.5,79.5 C 41.2001,82.1528 35.5335,83.8195 29.5,84.5C 29.5,84.1667 29.5,83.8333 29.5,83.5C 35.1667,82.1667 40.8333,80.8333 46.5,79.5 Z"/></g>
<g><path style="opacity:1" fill="#5c4017" d="M 29.5,84.5 C 27.1996,87.0516 24.533,87.7183 21.5,86.5C 22.791,86.7373 23.791,86.404 24.5,85.5C 26.2161,85.3713 27.8828,85.038 29.5,84.5 Z"/></g>
</svg>
