<?xml version="1.0" encoding="UTF-8"?>
<!DOCTYPE svg PUBLIC "-//W3C//DTD SVG 1.1//EN" "http://www.w3.org/Graphics/SVG/1.1/DTD/svg11.dtd">
<svg xmlns="http://www.w3.org/2000/svg" version="1.1" width="100px" height="100px" style="shape-rendering:geometricPrecision; text-rendering:geometricPrecision; image-rendering:optimizeQuality; fill-rule:evenodd; clip-rule:evenodd" xmlns:xlink="http://www.w3.org/1999/xlink">
<g><path style="opacity:0.987" fill="#fb4004" d="M 51.5,-0.5 C 57.1667,-0.5 62.8333,-0.5 68.5,-0.5C 84.0443,5.90755 91.5443,17.5742 91,34.5C 90.171,38.1612 88.671,41.4946 86.5,44.5C 92.5715,58.3552 89.9048,70.1885 78.5,80C 68.6394,86.4284 58.6394,92.5951 48.5,98.5C 47.5876,97.2618 47.4209,95.9285 48,94.5C 49.8254,93.8971 51.6587,93.2304 53.5,92.5C 46.7753,91.0617 40.1086,90.0617 33.5,89.5C 35.7354,89.7947 37.7354,89.4614 39.5,88.5C 42.0821,88.9746 44.0821,88.3079 45.5,86.5C 50.7142,87.2415 54.0476,85.2415 55.5,80.5C 59.0871,80.3485 61.7538,78.6818 63.5,75.5C 69.0799,75.3275 72.7466,72.6608 74.5,67.5C 75.5082,65.4561 76.5082,63.4561 77.5,61.5C 78.4861,57.03 78.8195,52.3633 78.5,47.5C 77.5,47.5 76.5,47.5 75.5,47.5C 75.6495,46.448 75.4828,45.448 75,44.5C 72.5413,42.314 70.0413,40.314 67.5,38.5C 70.4206,38.8541 72.7539,37.8541 74.5,35.5C 76.7205,36.4236 78.3872,35.7569 79.5,33.5C 80.559,28.3246 80.559,22.9913 79.5,17.5C 78.5,17.5 77.5,17.5 76.5,17.5C 74.8494,14.2276 72.6827,11.2276 70,8.5C 69.5831,9.75598 68.7498,10.4226 67.5,10.5C 62.3814,9.8969 57.7147,10.5636 53.5,12.5C 52.8333,12.5 52.1667,12.5 51.5,12.5C 49.4458,12.3653 47.7791,13.032 46.5,14.5C 46.5,13.5 46.5,12.5 46.5,11.5C 45.325,11.719 44.325,11.3857 43.5,10.5C 44,10.1667 44.5,9.83333 45,9.5C 46.7892,10.4091 48.6226,10.5758 50.5,10C 47.7201,7.57751 47.0535,4.74417 48.5,1.5C 49.5,0.833333 50.5,0.166667 51.5,-0.5 Z"/></g>
<g><path style="opacity:0.992" fill="#fa3e03" d="M 48.5,1.5 C 47.0535,4.74417 47.7201,7.57751 50.5,10C 48.6226,10.5758 46.7892,10.4091 45,9.5C 44.5,9.83333 44,10.1667 43.5,10.5C 44.325,11.3857 45.325,11.719 46.5,11.5C 46.5,12.5 46.5,13.5 46.5,14.5C 43.1426,14.2296 40.8092,14.8963 39.5,16.5C 39.67,17.8221 39.3366,18.9887 38.5,20C 34.2746,23.0929 29.6079,25.2595 24.5,26.5C 23.1336,28.2269 21.8002,29.8935 20.5,31.5C 19.2379,34.0708 17.9045,34.0708 16.5,31.5C 14.5841,32.2483 12.5841,32.2483 10.5,31.5C 12.0931,26.394 15.0931,22.2273 19.5,19C 28.8901,12.6413 38.5568,6.80802 48.5,1.5 Z"/></g>
<g><path style="opacity:1" fill="#e46c40" d="M 67.5,10.5 C 68.9002,11.1001 69.9002,12.1001 70.5,13.5C 69.1667,13.1667 67.8333,12.8333 66.5,12.5C 62.2673,11.2057 57.9339,11.2057 53.5,12.5C 57.7147,10.5636 62.3814,9.8969 67.5,10.5 Z"/></g>
<g><path style="opacity:1" fill="#fdfaf6" d="M 66.5,12.5 C 67.8333,12.8333 69.1667,13.1667 70.5,13.5C 74.3104,15.7837 76.6438,19.1171 77.5,23.5C 77.5,26.5 77.5,29.5 77.5,32.5C 74.9963,31.3608 72.3297,30.6941 69.5,30.5C 68.391,30.4431 67.391,30.1098 66.5,29.5C 66.1326,23.8442 63.1326,22.0109 57.5,24C 56.944,24.3826 56.6107,24.8826 56.5,25.5C 54.9731,25.427 53.9731,26.0937 53.5,27.5C 48.1837,30.472 42.8504,33.472 37.5,36.5C 33.3567,36.5571 31.0233,38.7238 30.5,43C 30.6752,44.6581 31.3418,45.9914 32.5,47C 30.7444,47.2022 29.0777,47.7022 27.5,48.5C 29.8971,51.741 31.2305,55.0744 31.5,58.5C 30.391,58.4431 29.391,58.1098 28.5,57.5C 26.6329,56.2402 25.2995,54.5735 24.5,52.5C 21.8451,45.4329 21.8451,38.4329 24.5,31.5C 30.0888,28.6143 35.7555,25.781 41.5,23C 43.6119,19.12 46.9453,17.2867 51.5,17.5C 51.33,16.1779 51.6634,15.0113 52.5,14C 57.0658,12.6908 61.7325,12.1908 66.5,12.5 Z"/></g>
<g><path style="opacity:1" fill="#e75019" d="M 79.5,33.5 C 79.1667,33.5 78.8333,33.5 78.5,33.5C 78.8128,29.9581 78.4794,26.6248 77.5,23.5C 76.6438,19.1171 74.3104,15.7837 70.5,13.5C 69.9002,12.1001 68.9002,11.1001 67.5,10.5C 68.7498,10.4226 69.5831,9.75598 70,8.5C 72.6827,11.2276 74.8494,14.2276 76.5,17.5C 77.5,17.5 78.5,17.5 79.5,17.5C 80.559,22.9913 80.559,28.3246 79.5,33.5 Z"/></g>
<g><path style="opacity:1" fill="#ffead7" d="M 66.5,12.5 C 61.7325,12.1908 57.0658,12.6908 52.5,14C 51.6634,15.0113 51.33,16.1779 51.5,17.5C 46.9453,17.2867 43.6119,19.12 41.5,23C 35.7555,25.781 30.0888,28.6143 24.5,31.5C 33.3248,24.9207 42.3248,18.5873 51.5,12.5C 52.1667,12.5 52.8333,12.5 53.5,12.5C 57.9339,11.2057 62.2673,11.2057 66.5,12.5 Z"/></g>
<g><path style="opacity:1" fill="#d1623b" d="M 66.5,29.5 C 64.7899,24.6023 61.4565,23.269 56.5,25.5C 56.6107,24.8826 56.944,24.3826 57.5,24C 63.1326,22.0109 66.1326,23.8442 66.5,29.5 Z"/></g>
<g><path style="opacity:1" fill="#e64c16" d="M 51.5,12.5 C 42.3248,18.5873 33.3248,24.9207 24.5,31.5C 22.8639,32.7489 21.6972,34.4156 21,36.5C 20.5014,40.1516 20.3347,43.8183 20.5,47.5C 19.2132,46.1286 18.5465,44.2953 18.5,42C 18.4812,38.2812 19.1478,34.7812 20.5,31.5C 21.8002,29.8935 23.1336,28.2269 24.5,26.5C 29.6079,25.2595 34.2746,23.0929 38.5,20C 39.3366,18.9887 39.67,17.8221 39.5,16.5C 40.8092,14.8963 43.1426,14.2296 46.5,14.5C 47.7791,13.032 49.4458,12.3653 51.5,12.5 Z"/></g>
<g><path style="opacity:1" fill="#ffdbbc" d="M 77.5,23.5 C 78.4794,26.6248 78.8128,29.9581 78.5,33.5C 78.2648,34.0967 77.7648,34.4301 77,34.5C 74.3257,33.2857 71.8257,31.9523 69.5,30.5C 72.3297,30.6941 74.9963,31.3608 77.5,32.5C 77.5,29.5 77.5,26.5 77.5,23.5 Z"/></g>
<g><path style="opacity:1" fill="#f64309" d="M 66.5,29.5 C 67.391,30.1098 68.391,30.4431 69.5,30.5C 71.8257,31.9523 74.3257,33.2857 77,34.5C 77.7648,34.4301 78.2648,34.0967 78.5,33.5C 78.8333,33.5 79.1667,33.5 79.5,33.5C 78.3872,35.7569 76.7205,36.4236 74.5,35.5C 72.7539,37.8541 70.4206,38.8541 67.5,38.5C 63.2984,38.1832 59.2984,38.5166 55.5,39.5C 50.3867,40.9483 45.72,43.2816 41.5,46.5C 33.828,46.5485 32.4947,43.5485 37.5,37.5C 40.6864,36.2292 44.0197,35.2292 47.5,34.5C 47.5291,31.3443 49.1957,29.6777 52.5,29.5C 53.2975,29.0431 53.6309,28.3764 53.5,27.5C 53.9731,26.0937 54.9731,25.427 56.5,25.5C 61.4565,23.269 64.7899,24.6023 66.5,29.5 Z"/></g>
<g><path style="opacity:1" fill="#e35422" d="M 53.5,27.5 C 53.6309,28.3764 53.2975,29.0431 52.5,29.5C 49.1957,29.6777 47.5291,31.3443 47.5,34.5C 44.0197,35.2292 40.6864,36.2292 37.5,37.5C 37.5,37.1667 37.5,36.8333 37.5,36.5C 42.8504,33.472 48.1837,30.472 53.5,27.5 Z"/></g>
<g><path style="opacity:1" fill="#e1612e" d="M 55.5,39.5 C 59.2984,38.5166 63.2984,38.1832 67.5,38.5C 70.0413,40.314 72.5413,42.314 75,44.5C 75.4828,45.448 75.6495,46.448 75.5,47.5C 70.4669,41.1474 63.8002,38.4807 55.5,39.5 Z"/></g>
<g><path style="opacity:1" fill="#fdfaf5" d="M 37.5,36.5 C 37.5,36.8333 37.5,37.1667 37.5,37.5C 33.2522,38.5882 31.7522,41.2548 33,45.5C 35.6975,47.673 38.5308,48.0063 41.5,46.5C 45.72,43.2816 50.3867,40.9483 55.5,39.5C 63.8002,38.4807 70.4669,41.1474 75.5,47.5C 75.5,48.1667 75.5,48.8333 75.5,49.5C 77.4689,54.1463 76.8023,58.313 73.5,62C 72.552,62.4828 71.552,62.6495 70.5,62.5C 69.2409,59.5402 67.9075,56.5402 66.5,53.5C 65.2634,52.7193 64.2634,51.7193 63.5,50.5C 65.5547,49.8128 67.2214,48.6461 68.5,47C 64.578,47.5987 60.578,48.2654 56.5,49C 54.1367,49.5885 53.1367,51.0885 53.5,53.5C 52.3065,54.2719 51.3065,55.2719 50.5,56.5C 48.847,56.6596 47.5137,57.3263 46.5,58.5C 41.4688,59.7829 36.4688,59.7829 31.5,58.5C 31.2305,55.0744 29.8971,51.741 27.5,48.5C 29.0777,47.7022 30.7444,47.2022 32.5,47C 31.3418,45.9914 30.6752,44.6581 30.5,43C 31.0233,38.7238 33.3567,36.5571 37.5,36.5 Z"/></g>
<g><path style="opacity:1" fill="#d96539" d="M 37.5,37.5 C 32.4947,43.5485 33.828,46.5485 41.5,46.5C 38.5308,48.0063 35.6975,47.673 33,45.5C 31.7522,41.2548 33.2522,38.5882 37.5,37.5 Z"/></g>
<g><path style="opacity:1" fill="#ffe5d0" d="M 24.5,31.5 C 21.8451,38.4329 21.8451,45.4329 24.5,52.5C 22.9263,51.0158 21.593,49.3492 20.5,47.5C 20.3347,43.8183 20.5014,40.1516 21,36.5C 21.6972,34.4156 22.8639,32.7489 24.5,31.5 Z"/></g>
<g><path style="opacity:1" fill="#e3511e" d="M 20.5,47.5 C 21.593,49.3492 22.9263,51.0158 24.5,52.5C 25.2995,54.5735 26.6329,56.2402 28.5,57.5C 25.994,56.2504 23.3274,55.5838 20.5,55.5C 20.5,52.8333 20.5,50.1667 20.5,47.5 Z"/></g>
<g><path style="opacity:0.994" fill="#fa4003" d="M 10.5,31.5 C 12.5841,32.2483 14.5841,32.2483 16.5,31.5C 17.9045,34.0708 19.2379,34.0708 20.5,31.5C 19.1478,34.7812 18.4812,38.2812 18.5,42C 18.5465,44.2953 19.2132,46.1286 20.5,47.5C 20.5,50.1667 20.5,52.8333 20.5,55.5C 23.3274,55.5838 25.994,56.2504 28.5,57.5C 28.3691,58.3764 28.7025,59.0431 29.5,59.5C 34.7458,61.5366 40.0791,61.8699 45.5,60.5C 47.0122,62.3167 49.0122,63.3167 51.5,63.5C 51.6198,66.2048 50.6198,66.8715 48.5,65.5C 47.5713,66.6888 47.238,68.0222 47.5,69.5C 45.8333,69.5 44.1667,69.5 42.5,69.5C 42.5,70.5 42.5,71.5 42.5,72.5C 40.1789,72.2289 38.1789,72.8955 36.5,74.5C 33.316,73.7836 31.816,71.7836 32,68.5C 30.8289,67.1068 29.3289,66.2735 27.5,66C 26.2283,64.6932 25.2283,63.1932 24.5,61.5C 17.9697,62.8813 15.803,66.8813 18,73.5C 18.3826,74.056 18.8826,74.3893 19.5,74.5C 19.5,74.8333 19.5,75.1667 19.5,75.5C 19.4269,78.881 20.4269,81.881 22.5,84.5C 21.1667,85.1667 19.8333,85.8333 18.5,86.5C 20.5984,87.4495 22.765,87.4495 25,86.5C 27.7009,87.9366 30.5343,88.9366 33.5,89.5C 40.1086,90.0617 46.7753,91.0617 53.5,92.5C 51.6587,93.2304 49.8254,93.8971 48,94.5C 47.4209,95.9285 47.5876,97.2618 48.5,98.5C 47.209,98.2627 46.209,98.596 45.5,99.5C 40.5,99.5 35.5,99.5 30.5,99.5C 12.5245,93.2364 5.02446,80.5697 8,61.5C 8.5163,58.9664 9.68297,56.7998 11.5,55C 8.57853,48.1547 7.7452,40.988 9,33.5C 9.27842,32.5842 9.77842,31.9175 10.5,31.5 Z"/></g>
<g><path style="opacity:1" fill="#db5a2c" d="M 62.5,60.5 C 63.6053,58.2869 63.6053,56.1203 62.5,54C 61.3333,53.8333 60.1667,53.6667 59,53.5C 56.455,55.1858 53.6217,56.1858 50.5,56.5C 51.3065,55.2719 52.3065,54.2719 53.5,53.5C 58.8063,50.041 62.8063,51.041 65.5,56.5C 65.2462,58.4172 64.2462,59.7505 62.5,60.5 Z"/></g>
<g><path style="opacity:1" fill="#e15927" d="M 75.5,47.5 C 76.5,47.5 77.5,47.5 78.5,47.5C 78.8195,52.3633 78.4861,57.03 77.5,61.5C 77.9166,57.1829 77.2499,53.1829 75.5,49.5C 75.5,48.8333 75.5,48.1667 75.5,47.5 Z"/></g>
<g><path style="opacity:1" fill="#e25e2d" d="M 28.5,57.5 C 29.391,58.1098 30.391,58.4431 31.5,58.5C 36.4688,59.7829 41.4688,59.7829 46.5,58.5C 46.1667,59.1667 45.8333,59.8333 45.5,60.5C 40.0791,61.8699 34.7458,61.5366 29.5,59.5C 28.7025,59.0431 28.3691,58.3764 28.5,57.5 Z"/></g>
<g><path style="opacity:1" fill="#f04812" d="M 62.5,60.5 C 57.7468,63.9218 52.7468,66.9218 47.5,69.5C 47.238,68.0222 47.5713,66.6888 48.5,65.5C 50.6198,66.8715 51.6198,66.2048 51.5,63.5C 49.0122,63.3167 47.0122,62.3167 45.5,60.5C 45.8333,59.8333 46.1667,59.1667 46.5,58.5C 47.5137,57.3263 48.847,56.6596 50.5,56.5C 53.6217,56.1858 56.455,55.1858 59,53.5C 60.1667,53.6667 61.3333,53.8333 62.5,54C 63.6053,56.1203 63.6053,58.2869 62.5,60.5 Z"/></g>
<g><path style="opacity:1" fill="#fef8f1" d="M 75.5,49.5 C 77.2499,53.1829 77.9166,57.1829 77.5,61.5C 76.5082,63.4561 75.5082,65.4561 74.5,67.5C 70.6183,69.9341 66.9516,72.6007 63.5,75.5C 60.2957,76.3833 57.6291,78.0499 55.5,80.5C 51.827,82.0002 48.4937,84.0002 45.5,86.5C 41.2315,87.3726 36.8982,87.7059 32.5,87.5C 29.4887,86.3307 26.822,84.664 24.5,82.5C 22.9665,78.5663 21.6332,74.5663 20.5,70.5C 20.8333,69.1667 21.1667,67.8333 21.5,66.5C 23.1789,68.1045 25.1789,68.7711 27.5,68.5C 28.8221,68.33 29.9887,68.6634 31,69.5C 31.79,75.1237 34.9567,76.9571 40.5,75C 43.02,73.3029 45.3533,71.4695 47.5,69.5C 52.7468,66.9218 57.7468,63.9218 62.5,60.5C 64.2462,59.7505 65.2462,58.4172 65.5,56.5C 62.8063,51.041 58.8063,50.041 53.5,53.5C 53.1367,51.0885 54.1367,49.5885 56.5,49C 60.578,48.2654 64.578,47.5987 68.5,47C 67.2214,48.6461 65.5547,49.8128 63.5,50.5C 64.2634,51.7193 65.2634,52.7193 66.5,53.5C 67.9075,56.5402 69.2409,59.5402 70.5,62.5C 71.552,62.6495 72.552,62.4828 73.5,62C 76.8023,58.313 77.4689,54.1463 75.5,49.5 Z"/></g>
<g><path style="opacity:1" fill="#ffe6cf" d="M 27.5,68.5 C 25.1789,68.7711 23.1789,68.1045 21.5,66.5C 21.1667,67.8333 20.8333,69.1667 20.5,70.5C 21.6332,74.5663 22.9665,78.5663 24.5,82.5C 22.5879,80.3428 20.9213,78.0094 19.5,75.5C 19.5,75.1667 19.5,74.8333 19.5,74.5C 19.5,71.1667 19.5,67.8333 19.5,64.5C 22.4422,65.3045 25.1089,66.6378 27.5,68.5 Z"/></g>
<g><path style="opacity:1" fill="#e3531c" d="M 47.5,69.5 C 45.3533,71.4695 43.02,73.3029 40.5,75C 34.9567,76.9571 31.79,75.1237 31,69.5C 29.9887,68.6634 28.8221,68.33 27.5,68.5C 25.1089,66.6378 22.4422,65.3045 19.5,64.5C 19.5,67.8333 19.5,71.1667 19.5,74.5C 18.8826,74.3893 18.3826,74.056 18,73.5C 15.803,66.8813 17.9697,62.8813 24.5,61.5C 25.2283,63.1932 26.2283,64.6932 27.5,66C 29.3289,66.2735 30.8289,67.1068 32,68.5C 31.816,71.7836 33.316,73.7836 36.5,74.5C 38.1789,72.8955 40.1789,72.2289 42.5,72.5C 42.5,71.5 42.5,70.5 42.5,69.5C 44.1667,69.5 45.8333,69.5 47.5,69.5 Z"/></g>
<g><path style="opacity:1" fill="#df5221" d="M 74.5,67.5 C 72.7466,72.6608 69.0799,75.3275 63.5,75.5C 66.9516,72.6007 70.6183,69.9341 74.5,67.5 Z"/></g>
<g><path style="opacity:1" fill="#e15725" d="M 63.5,75.5 C 61.7538,78.6818 59.0871,80.3485 55.5,80.5C 57.6291,78.0499 60.2957,76.3833 63.5,75.5 Z"/></g>
<g><path style="opacity:1" fill="#ec4916" d="M 19.5,75.5 C 20.9213,78.0094 22.5879,80.3428 24.5,82.5C 26.822,84.664 29.4887,86.3307 32.5,87.5C 34.6074,88.4682 36.9407,88.8016 39.5,88.5C 37.7354,89.4614 35.7354,89.7947 33.5,89.5C 30.5343,88.9366 27.7009,87.9366 25,86.5C 22.765,87.4495 20.5984,87.4495 18.5,86.5C 19.8333,85.8333 21.1667,85.1667 22.5,84.5C 20.4269,81.881 19.4269,78.881 19.5,75.5 Z"/></g>
<g><path style="opacity:1" fill="#e45120" d="M 55.5,80.5 C 54.0476,85.2415 50.7142,87.2415 45.5,86.5C 48.4937,84.0002 51.827,82.0002 55.5,80.5 Z"/></g>
<g><path style="opacity:1" fill="#e6713c" d="M 45.5,86.5 C 44.0821,88.3079 42.0821,88.9746 39.5,88.5C 36.9407,88.8016 34.6074,88.4682 32.5,87.5C 36.8982,87.7059 41.2315,87.3726 45.5,86.5 Z"/></g>
</svg>
