<?xml version="1.0" encoding="UTF-8"?>
<!DOCTYPE svg PUBLIC "-//W3C//DTD SVG 1.1//EN" "http://www.w3.org/Graphics/SVG/1.1/DTD/svg11.dtd">
<svg xmlns="http://www.w3.org/2000/svg" version="1.1" width="100px" height="100px" style="shape-rendering:geometricPrecision; text-rendering:geometricPrecision; image-rendering:optimizeQuality; fill-rule:evenodd; clip-rule:evenodd" xmlns:xlink="http://www.w3.org/1999/xlink">
<g><path style="opacity:1" fill="#e49a39" d="M 14.5,-0.5 C 23.5,-0.5 32.5,-0.5 41.5,-0.5C 44.3384,3.4967 48.005,6.66337 52.5,9C 53.8228,9.81595 54.4894,10.9826 54.5,12.5C 50.4246,12.0481 46.7579,10.5481 43.5,8C 35.6494,7.71585 27.8161,7.21585 20,6.5C 16.7543,7.44735 13.5877,7.78069 10.5,7.5C 10.8904,5.87448 10.8904,4.20781 10.5,2.5C 11.8333,1.5 13.1667,0.5 14.5,-0.5 Z"/></g>
<g><path style="opacity:1" fill="#f8a742" d="M 41.5,-0.5 C 55.8333,-0.5 70.1667,-0.5 84.5,-0.5C 91.1667,2.83333 96.1667,7.83333 99.5,14.5C 99.5,14.8333 99.5,15.1667 99.5,15.5C 92.3553,16.0241 85.3553,16.0241 78.5,15.5C 78.5,16.5 78.5,17.5 78.5,18.5C 76.8333,18.5 75.1667,18.5 73.5,18.5C 72.8333,16.1667 72.1667,13.8333 71.5,11.5C 68.5,11.5 65.5,11.5 62.5,11.5C 62.5,12.5 62.5,13.5 62.5,14.5C 60.5,14.5 58.5,14.5 56.5,14.5C 55.8333,13.8333 55.1667,13.1667 54.5,12.5C 54.4894,10.9826 53.8228,9.81595 52.5,9C 48.005,6.66337 44.3384,3.4967 41.5,-0.5 Z"/></g>
<g><path style="opacity:1" fill="#e19037" d="M 10.5,2.5 C 10.8904,4.20781 10.8904,5.87448 10.5,7.5C 13.5877,7.78069 16.7543,7.44735 20,6.5C 27.8161,7.21585 35.6494,7.71585 43.5,8C 46.7579,10.5481 50.4246,12.0481 54.5,12.5C 55.1667,13.1667 55.8333,13.8333 56.5,14.5C 56.3284,15.4916 56.6618,16.1583 57.5,16.5C 58.1098,17.391 58.4431,18.391 58.5,19.5C 58.5,20.8333 58.5,22.1667 58.5,23.5C 51.4455,22.2977 44.1121,22.2977 36.5,23.5C 36.0557,21.8868 35.0557,20.7202 33.5,20C 30.5,19.6667 27.5,19.3333 24.5,19C 23.5939,17.3005 23.2606,15.4672 23.5,13.5C 26.2469,13.8134 28.9135,13.48 31.5,12.5C 26.2079,11.5052 20.8746,11.1718 15.5,11.5C 15.5,12.8333 15.5,14.1667 15.5,15.5C 11.6166,15.8909 7.94996,15.2242 4.5,13.5C 3.54811,11.9547 3.21478,10.288 3.5,8.5C 5.23931,5.75731 7.57265,3.75731 10.5,2.5 Z"/></g>
<g><path style="opacity:1" fill="#e08937" d="M 3.5,8.5 C 3.21478,10.288 3.54811,11.9547 4.5,13.5C 7.94996,15.2242 11.6166,15.8909 15.5,15.5C 15.5,14.1667 15.5,12.8333 15.5,11.5C 20.8746,11.1718 26.2079,11.5052 31.5,12.5C 28.9135,13.48 26.2469,13.8134 23.5,13.5C 23.2606,15.4672 23.5939,17.3005 24.5,19C 27.5,19.3333 30.5,19.6667 33.5,20C 35.0557,20.7202 36.0557,21.8868 36.5,23.5C 34.8212,23.2852 33.8212,23.9519 33.5,25.5C 32.3951,24.3995 31.0618,23.7329 29.5,23.5C 28.8333,23.5 28.5,23.8333 28.5,24.5C 27.6851,23.5707 26.8518,22.5707 26,21.5C 25.3292,22.2524 24.4959,22.5858 23.5,22.5C 23.5,21.5 23.5,20.5 23.5,19.5C 18.4058,17.2077 12.2391,15.8744 5,15.5C 3.23411,16.2335 1.40078,16.5668 -0.5,16.5C -0.5,15.8333 -0.5,15.1667 -0.5,14.5C 0.833333,12.5 2.16667,10.5 3.5,8.5 Z"/></g>
<g><path style="opacity:1" fill="#f89f40" d="M 99.5,15.5 C 99.5,18.1667 99.5,20.8333 99.5,23.5C 93.6182,23.7677 87.7849,23.4344 82,22.5C 80.7147,22.9504 79.548,23.6171 78.5,24.5C 77.914,24.2907 77.414,23.9574 77,23.5C 75.6932,24.7717 74.1932,25.7717 72.5,26.5C 72.8627,27.1835 73.1961,27.8501 73.5,28.5C 72.8333,28.5 72.1667,28.5 71.5,28.5C 71.5,28.1667 71.5,27.8333 71.5,27.5C 69.8333,23.8333 67.1667,21.1667 63.5,19.5C 61.2843,18.7974 59.451,17.4641 58,15.5C 57.6012,15.7284 57.4346,16.0618 57.5,16.5C 56.6618,16.1583 56.3284,15.4916 56.5,14.5C 58.5,14.5 60.5,14.5 62.5,14.5C 62.5,13.5 62.5,12.5 62.5,11.5C 65.5,11.5 68.5,11.5 71.5,11.5C 72.1667,13.8333 72.8333,16.1667 73.5,18.5C 75.1667,18.5 76.8333,18.5 78.5,18.5C 78.5,17.5 78.5,16.5 78.5,15.5C 85.3553,16.0241 92.3553,16.0241 99.5,15.5 Z"/></g>
<g><path style="opacity:1" fill="#dd8134" d="M 23.5,22.5 C 23.5,23.8333 23.5,25.1667 23.5,26.5C 21.0347,26.233 18.7014,25.5664 16.5,24.5C 11.1538,24.1448 5.48715,23.8115 -0.5,23.5C -0.5,21.1667 -0.5,18.8333 -0.5,16.5C 1.40078,16.5668 3.23411,16.2335 5,15.5C 12.2391,15.8744 18.4058,17.2077 23.5,19.5C 23.5,20.5 23.5,21.5 23.5,22.5 Z"/></g>
<g><path style="opacity:1" fill="#e0a561" d="M 63.5,19.5 C 67.1667,21.1667 69.8333,23.8333 71.5,27.5C 68.5,25.1667 65.8333,22.5 63.5,19.5 Z"/></g>
<g><path style="opacity:1" fill="#fef6d6" d="M 63.5,19.5 C 65.8333,22.5 68.5,25.1667 71.5,27.5C 71.5,27.8333 71.5,28.1667 71.5,28.5C 71.5,28.8333 71.5,29.1667 71.5,29.5C 70.325,29.719 69.325,29.3857 68.5,28.5C 67.5569,25.8908 65.8903,23.8908 63.5,22.5C 62.9478,24.0026 62.9478,25.6693 63.5,27.5C 62.2013,24.6047 60.5346,21.938 58.5,19.5C 58.4431,18.391 58.1098,17.391 57.5,16.5C 57.4346,16.0618 57.6012,15.7284 58,15.5C 59.451,17.4641 61.2843,18.7974 63.5,19.5 Z"/></g>
<g><path style="opacity:1" fill="#d5965f" d="M 58.5,19.5 C 60.5346,21.938 62.2013,24.6047 63.5,27.5C 63.5,28.8333 63.5,30.1667 63.5,31.5C 63.1667,31.5 62.8333,31.5 62.5,31.5C 61.7206,28.4553 60.3873,25.7886 58.5,23.5C 58.5,22.1667 58.5,20.8333 58.5,19.5 Z"/></g>
<g><path style="opacity:1" fill="#d87e3b" d="M 28.5,24.5 C 30.2516,26.2459 31.5849,28.2459 32.5,30.5C 32.9195,32.0936 33.5862,33.5936 34.5,35C 34.1667,35.5 33.8333,36 33.5,36.5C 32.5832,35.8728 31.5832,35.5394 30.5,35.5C 29.8333,35.5 29.5,35.1667 29.5,34.5C 27.016,30.518 23.516,27.8513 19,26.5C 18.5357,27.0944 18.369,27.7611 18.5,28.5C 17.3263,27.4863 16.6596,26.153 16.5,24.5C 18.7014,25.5664 21.0347,26.233 23.5,26.5C 23.5,25.1667 23.5,23.8333 23.5,22.5C 24.4959,22.5858 25.3292,22.2524 26,21.5C 26.8518,22.5707 27.6851,23.5707 28.5,24.5 Z"/></g>
<g><path style="opacity:1" fill="#de7f35" d="M 58.5,23.5 C 60.3873,25.7886 61.7206,28.4553 62.5,31.5C 62.5,33.8333 62.5,36.1667 62.5,38.5C 61.5,38.5 60.5,38.5 59.5,38.5C 59.719,37.325 59.3857,36.325 58.5,35.5C 54.1611,34.9972 49.8277,34.9972 45.5,35.5C 43.4644,32.3065 40.631,29.9732 37,28.5C 36.5172,27.552 36.3505,26.552 36.5,25.5C 35.5,25.5 34.5,25.5 33.5,25.5C 33.8212,23.9519 34.8212,23.2852 36.5,23.5C 44.1121,22.2977 51.4455,22.2977 58.5,23.5 Z"/></g>
<g><path style="opacity:1" fill="#d2874d" d="M 29.5,23.5 C 31.0618,23.7329 32.3951,24.3995 33.5,25.5C 34.5,25.5 35.5,25.5 36.5,25.5C 36.3505,26.552 36.5172,27.552 37,28.5C 40.631,29.9732 43.4644,32.3065 45.5,35.5C 46.1667,36.5 46.8333,37.5 47.5,38.5C 46.8333,38.5 46.1667,38.5 45.5,38.5C 40.1667,33.5 34.8333,28.5 29.5,23.5 Z"/></g>
<g><path style="opacity:1" fill="#db7432" d="M -0.5,23.5 C 5.48715,23.8115 11.1538,24.1448 16.5,24.5C 16.6596,26.153 17.3263,27.4863 18.5,28.5C 19.5,29.1667 20.5,29.8333 21.5,30.5C 22.1667,31.5 22.8333,32.5 23.5,33.5C 24.4706,35.4832 25.4706,37.4832 26.5,39.5C 25.5,39.5 24.5,39.5 23.5,39.5C 23.7804,36.6118 22.4471,35.1118 19.5,35C 18.2986,34.0975 17.4652,32.9308 17,31.5C 11.248,32.1477 5.41467,32.1477 -0.5,31.5C -0.5,28.8333 -0.5,26.1667 -0.5,23.5 Z"/></g>
<g><path style="opacity:1" fill="#f7953e" d="M 99.5,23.5 C 99.5,28.5 99.5,33.5 99.5,38.5C 93.2026,39.3197 86.8692,39.653 80.5,39.5C 79.8368,37.1964 79.1702,34.8631 78.5,32.5C 76.5808,31.3875 74.9142,30.0542 73.5,28.5C 73.1961,27.8501 72.8627,27.1835 72.5,26.5C 74.1932,25.7717 75.6932,24.7717 77,23.5C 77.414,23.9574 77.914,24.2907 78.5,24.5C 79.548,23.6171 80.7147,22.9504 82,22.5C 87.7849,23.4344 93.6182,23.7677 99.5,23.5 Z"/></g>
<g><path style="opacity:1" fill="#fef9ed" d="M 71.5,29.5 C 75.4086,33.3172 77.742,37.9838 78.5,43.5C 75.9922,40.3051 73.4922,36.9717 71,33.5C 69.6812,34.3185 68.5145,35.3185 67.5,36.5C 67.1125,39.2383 66.1125,41.5717 64.5,43.5C 64.8168,39.2984 64.4834,35.2984 63.5,31.5C 63.5,30.1667 63.5,28.8333 63.5,27.5C 62.9478,25.6693 62.9478,24.0026 63.5,22.5C 65.8903,23.8908 67.5569,25.8908 68.5,28.5C 69.325,29.3857 70.325,29.719 71.5,29.5 Z"/></g>
<g><path style="opacity:1" fill="#db9767" d="M 29.5,34.5 C 27.1137,33.6267 25.1137,32.1267 23.5,30C 22.5632,29.3083 21.8966,29.475 21.5,30.5C 20.5,29.8333 19.5,29.1667 18.5,28.5C 18.369,27.7611 18.5357,27.0944 19,26.5C 23.516,27.8513 27.016,30.518 29.5,34.5 Z"/></g>
<g><path style="opacity:1" fill="#fefcfa" d="M 78.5,43.5 C 79.4345,44.5676 79.7678,45.901 79.5,47.5C 79.6626,51.7071 79.3293,55.8737 78.5,60C 78.3866,61.6991 79.0532,62.8658 80.5,63.5C 83.2258,68.0661 84.5592,73.0661 84.5,78.5C 84.6309,79.3764 84.2975,80.0431 83.5,80.5C 82.7174,78.7118 81.3841,77.7118 79.5,77.5C 74.3427,73.4514 69.3427,73.7848 64.5,78.5C 62.8828,79.038 61.2161,79.3713 59.5,79.5C 53.4739,79.641 47.4739,79.3077 41.5,78.5C 37.8299,76.3406 33.8299,75.3406 29.5,75.5C 28.391,75.4431 27.391,75.1098 26.5,74.5C 25.5,74.1667 24.8333,73.5 24.5,72.5C 23.0288,70.1698 22.6955,67.8364 23.5,65.5C 24.8333,65.5 26.1667,65.5 27.5,65.5C 28.5676,66.4345 29.901,66.7678 31.5,66.5C 34.6649,67.3222 37.9982,67.9889 41.5,68.5C 42.8333,67.8333 44.1667,67.1667 45.5,66.5C 47.7356,67.2185 49.9022,67.5518 52,67.5C 52.2734,65.8988 52.7734,64.3988 53.5,63C 52.6198,61.6439 52.2865,60.1439 52.5,58.5C 49.1181,58.2737 46.1181,57.2737 43.5,55.5C 41.1097,54.1092 39.4431,52.1092 38.5,49.5C 38.0383,47.2433 37.0383,45.2433 35.5,43.5C 35.8333,43.1667 36.1667,42.8333 36.5,42.5C 44.7813,48.2734 46.7813,47.2734 42.5,39.5C 43.325,38.6143 44.325,38.281 45.5,38.5C 46.1667,38.5 46.8333,38.5 47.5,38.5C 47.5,39.1667 47.8333,39.5 48.5,39.5C 52.5843,43.0554 56.9176,46.3887 61.5,49.5C 63.0896,47.8543 64.0896,45.8543 64.5,43.5C 66.1125,41.5717 67.1125,39.2383 67.5,36.5C 68.5145,35.3185 69.6812,34.3185 71,33.5C 73.4922,36.9717 75.9922,40.3051 78.5,43.5 Z"/></g>
<g><path style="opacity:1" fill="#da6931" d="M -0.5,31.5 C 5.41467,32.1477 11.248,32.1477 17,31.5C 17.4652,32.9308 18.2986,34.0975 19.5,35C 22.4471,35.1118 23.7804,36.6118 23.5,39.5C 24.5,39.5 25.5,39.5 26.5,39.5C 28.1667,40.8333 29.8333,42.1667 31.5,43.5C 31.5569,44.609 31.8902,45.609 32.5,46.5C 28.4443,44.1424 24.111,42.3091 19.5,41C 12.7467,40.7157 6.08005,39.8824 -0.5,38.5C -0.5,36.1667 -0.5,33.8333 -0.5,31.5 Z"/></g>
<g><path style="opacity:1" fill="#d87432" d="M 62.5,38.5 C 61.6016,39.1577 60.6016,39.8243 59.5,40.5C 61.1045,42.1789 61.7711,44.1789 61.5,46.5C 58.1847,46.0283 55.8514,44.195 54.5,41C 52.4817,40.4954 50.4817,39.9954 48.5,39.5C 47.8333,39.5 47.5,39.1667 47.5,38.5C 46.8333,37.5 46.1667,36.5 45.5,35.5C 49.8277,34.9972 54.1611,34.9972 58.5,35.5C 59.3857,36.325 59.719,37.325 59.5,38.5C 60.5,38.5 61.5,38.5 62.5,38.5 Z"/></g>
<g><path style="opacity:1" fill="#eb934f" d="M 71.5,29.5 C 71.5,29.1667 71.5,28.8333 71.5,28.5C 72.1667,28.5 72.8333,28.5 73.5,28.5C 74.9142,30.0542 76.5808,31.3875 78.5,32.5C 79.1702,34.8631 79.8368,37.1964 80.5,39.5C 80.5,42.1667 80.5,44.8333 80.5,47.5C 80.1667,47.5 79.8333,47.5 79.5,47.5C 79.7678,45.901 79.4345,44.5676 78.5,43.5C 77.742,37.9838 75.4086,33.3172 71.5,29.5 Z"/></g>
<g><path style="opacity:1" fill="#ce8962" d="M 23.5,33.5 C 26.5398,36.5393 29.2065,39.8726 31.5,43.5C 29.8333,42.1667 28.1667,40.8333 26.5,39.5C 25.4706,37.4832 24.4706,35.4832 23.5,33.5 Z"/></g>
<g><path style="opacity:1" fill="#fdf1de" d="M 29.5,23.5 C 34.8333,28.5 40.1667,33.5 45.5,38.5C 44.325,38.281 43.325,38.6143 42.5,39.5C 46.7813,47.2734 44.7813,48.2734 36.5,42.5C 36.1667,42.8333 35.8333,43.1667 35.5,43.5C 37.0383,45.2433 38.0383,47.2433 38.5,49.5C 37.5,48.8333 36.5,48.1667 35.5,47.5C 34.5,45.8333 33.1667,44.5 31.5,43.5C 29.2065,39.8726 26.5398,36.5393 23.5,33.5C 22.8333,32.5 22.1667,31.5 21.5,30.5C 21.8966,29.475 22.5632,29.3083 23.5,30C 25.1137,32.1267 27.1137,33.6267 29.5,34.5C 29.5,35.1667 29.8333,35.5 30.5,35.5C 33.4293,37.9816 36.4293,40.4816 39.5,43C 40.7589,43.9819 42.0922,44.3152 43.5,44C 39.6947,39.5216 36.0281,35.0216 32.5,30.5C 31.5849,28.2459 30.2516,26.2459 28.5,24.5C 28.5,23.8333 28.8333,23.5 29.5,23.5 Z"/></g>
<g><path style="opacity:1" fill="#c67f51" d="M 32.5,30.5 C 36.0281,35.0216 39.6947,39.5216 43.5,44C 42.0922,44.3152 40.7589,43.9819 39.5,43C 36.4293,40.4816 33.4293,37.9816 30.5,35.5C 31.5832,35.5394 32.5832,35.8728 33.5,36.5C 33.8333,36 34.1667,35.5 34.5,35C 33.5862,33.5936 32.9195,32.0936 32.5,30.5 Z"/></g>
<g><path style="opacity:1" fill="#db5c31" d="M -0.5,38.5 C 6.08005,39.8824 12.7467,40.7157 19.5,41C 24.111,42.3091 28.4443,44.1424 32.5,46.5C 33.391,47.1098 34.391,47.4431 35.5,47.5C 36.5,48.1667 37.5,48.8333 38.5,49.5C 39.4431,52.1092 41.1097,54.1092 43.5,55.5C 44.5,56.8333 45.5,58.1667 46.5,59.5C 45.1667,59.5 43.8333,59.5 42.5,59.5C 42.7035,57.6096 42.0368,56.1096 40.5,55C 37.2198,54.944 34.2198,54.1107 31.5,52.5C 23.5277,51.5023 15.5277,51.169 7.5,51.5C 7.54539,54.3208 8.54539,56.6541 10.5,58.5C 10.5,59.8333 10.5,61.1667 10.5,62.5C 8.63729,61.0328 7.30395,59.0328 6.5,56.5C 4.25731,55.5258 1.92397,55.1924 -0.5,55.5C -0.5,49.8333 -0.5,44.1667 -0.5,38.5 Z"/></g>
<g><path style="opacity:1" fill="#f5823c" d="M 99.5,38.5 C 99.5,44.1667 99.5,49.8333 99.5,55.5C 93.5,55.5 87.5,55.5 81.5,55.5C 81.8064,52.6146 81.4731,49.9479 80.5,47.5C 80.5,44.8333 80.5,42.1667 80.5,39.5C 86.8692,39.653 93.2026,39.3197 99.5,38.5 Z"/></g>
<g><path style="opacity:1" fill="#be6e49" d="M 31.5,43.5 C 33.1667,44.5 34.5,45.8333 35.5,47.5C 34.391,47.4431 33.391,47.1098 32.5,46.5C 31.8902,45.609 31.5569,44.609 31.5,43.5 Z"/></g>
<g><path style="opacity:1" fill="#cb7b4d" d="M 62.5,31.5 C 62.8333,31.5 63.1667,31.5 63.5,31.5C 64.4834,35.2984 64.8168,39.2984 64.5,43.5C 64.0896,45.8543 63.0896,47.8543 61.5,49.5C 56.9176,46.3887 52.5843,43.0554 48.5,39.5C 50.4817,39.9954 52.4817,40.4954 54.5,41C 55.8514,44.195 58.1847,46.0283 61.5,46.5C 61.7711,44.1789 61.1045,42.1789 59.5,40.5C 60.6016,39.8243 61.6016,39.1577 62.5,38.5C 62.5,36.1667 62.5,33.8333 62.5,31.5 Z"/></g>
<g><path style="opacity:1" fill="#f47237" d="M 81.5,55.5 C 87.5,55.5 93.5,55.5 99.5,55.5C 99.5,57.8333 99.5,60.1667 99.5,62.5C 95.5911,61.7366 94.2578,63.0699 95.5,66.5C 92.6336,67.208 89.8003,67.8747 87,68.5C 86.6232,67.0577 85.7899,66.0577 84.5,65.5C 83.0689,65.1193 82.2355,64.1193 82,62.5C 81.5034,60.1902 81.3367,57.8568 81.5,55.5 Z"/></g>
<g><path style="opacity:0.982" fill="#f15d37" d="M -0.5,55.5 C 1.92397,55.1924 4.25731,55.5258 6.5,56.5C 7.30395,59.0328 8.63729,61.0328 10.5,62.5C 11.1667,62.5 11.8333,62.5 12.5,62.5C 13.5,62.8333 14.1667,63.5 14.5,64.5C 14.3433,65.8734 14.51,67.2068 15,68.5C 17.3444,70.2847 19.8444,71.618 22.5,72.5C 23.1667,72.5 23.8333,72.5 24.5,72.5C 24.8333,73.5 25.5,74.1667 26.5,74.5C 26.5,75.1667 26.5,75.8333 26.5,76.5C 23.7573,74.1297 20.7573,73.4631 17.5,74.5C 17.5,73.5 17.5,72.5 17.5,71.5C 13.7985,70.5236 10.1318,69.3569 6.5,68C 4.19018,67.5034 1.85684,67.3367 -0.5,67.5C -0.5,63.5 -0.5,59.5 -0.5,55.5 Z"/></g>
<g><path style="opacity:1" fill="#fdecdf" d="M 43.5,55.5 C 46.1181,57.2737 49.1181,58.2737 52.5,58.5C 52.2865,60.1439 52.6198,61.6439 53.5,63C 52.7734,64.3988 52.2734,65.8988 52,67.5C 49.9022,67.5518 47.7356,67.2185 45.5,66.5C 44.1667,67.1667 42.8333,67.8333 41.5,68.5C 37.9982,67.9889 34.6649,67.3222 31.5,66.5C 37.0079,66.8494 42.3413,66.1827 47.5,64.5C 52.598,63.1987 52.598,61.5321 47.5,59.5C 47.1667,59.5 46.8333,59.5 46.5,59.5C 45.5,58.1667 44.5,56.8333 43.5,55.5 Z"/></g>
<g><path style="opacity:1" fill="#d3502e" d="M 46.5,59.5 C 46.8333,59.5 47.1667,59.5 47.5,59.5C 48.562,61.2341 48.562,62.9008 47.5,64.5C 42.3413,66.1827 37.0079,66.8494 31.5,66.5C 29.901,66.7678 28.5676,66.4345 27.5,65.5C 23.5607,63.4452 19.5607,61.2785 15.5,59C 13.8659,58.5065 12.1992,58.3398 10.5,58.5C 8.54539,56.6541 7.54539,54.3208 7.5,51.5C 15.5277,51.169 23.5277,51.5023 31.5,52.5C 34.2198,54.1107 37.2198,54.944 40.5,55C 42.0368,56.1096 42.7035,57.6096 42.5,59.5C 43.8333,59.5 45.1667,59.5 46.5,59.5 Z"/></g>
<g><path style="opacity:1" fill="#dd906b" d="M 79.5,47.5 C 79.8333,47.5 80.1667,47.5 80.5,47.5C 80.5,52.8333 80.5,58.1667 80.5,63.5C 79.0532,62.8658 78.3866,61.6991 78.5,60C 79.3293,55.8737 79.6626,51.7071 79.5,47.5 Z"/></g>
<g><path style="opacity:1" fill="#e2794e" d="M 80.5,47.5 C 81.4731,49.9479 81.8064,52.6146 81.5,55.5C 81.3367,57.8568 81.5034,60.1902 82,62.5C 82.2355,64.1193 83.0689,65.1193 84.5,65.5C 85.0836,68.6699 85.7503,71.8365 86.5,75C 86.6134,76.6991 85.9468,77.8658 84.5,78.5C 84.5592,73.0661 83.2258,68.0661 80.5,63.5C 80.5,58.1667 80.5,52.8333 80.5,47.5 Z"/></g>
<g><path style="opacity:1" fill="#b4664e" d="M 47.5,59.5 C 52.598,61.5321 52.598,63.1987 47.5,64.5C 48.562,62.9008 48.562,61.2341 47.5,59.5 Z"/></g>
<g><path style="opacity:1" fill="#c6654f" d="M 10.5,58.5 C 12.1992,58.3398 13.8659,58.5065 15.5,59C 19.5607,61.2785 23.5607,63.4452 27.5,65.5C 26.1667,65.5 24.8333,65.5 23.5,65.5C 19.767,63.7969 16.1003,61.7969 12.5,59.5C 11.4376,60.4246 11.4376,61.4246 12.5,62.5C 11.8333,62.5 11.1667,62.5 10.5,62.5C 10.5,61.1667 10.5,59.8333 10.5,58.5 Z"/></g>
<g><path style="opacity:1" fill="#feeee3" d="M 23.5,65.5 C 22.6955,67.8364 23.0288,70.1698 24.5,72.5C 23.8333,72.5 23.1667,72.5 22.5,72.5C 20.1667,69.5 17.5,66.8333 14.5,64.5C 14.1667,63.5 13.5,62.8333 12.5,62.5C 11.4376,61.4246 11.4376,60.4246 12.5,59.5C 16.1003,61.7969 19.767,63.7969 23.5,65.5 Z"/></g>
<g><path style="opacity:1" fill="#db6a4a" d="M 14.5,64.5 C 17.5,66.8333 20.1667,69.5 22.5,72.5C 19.8444,71.618 17.3444,70.2847 15,68.5C 14.51,67.2068 14.3433,65.8734 14.5,64.5 Z"/></g>
<g><path style="opacity:0.995" fill="#ef4f34" d="M -0.5,67.5 C 1.85684,67.3367 4.19018,67.5034 6.5,68C 10.1318,69.3569 13.7985,70.5236 17.5,71.5C 17.5,72.5 17.5,73.5 17.5,74.5C 20.7573,73.4631 23.7573,74.1297 26.5,76.5C 27.7079,77.2341 29.0413,77.5674 30.5,77.5C 32.6241,79.914 35.2908,81.5807 38.5,82.5C 44.9927,83.6099 51.4927,84.6099 58,85.5C 62.1536,83.0005 66.6536,82.0005 71.5,82.5C 71.5,83.8333 71.5,85.1667 71.5,86.5C 77.5321,86.8361 83.5321,87.5028 89.5,88.5C 86.9292,89.9045 86.9292,91.2379 89.5,92.5C 80.8078,92.8314 72.1411,92.498 63.5,91.5C 62.4495,90.1152 61.1161,89.1152 59.5,88.5C 55.348,88.2591 51.5147,87.2591 48,85.5C 46.9914,86.6582 45.6581,87.3248 44,87.5C 40.5604,87.0283 37.3938,85.8617 34.5,84C 28.1754,83.5005 21.8421,83.3338 15.5,83.5C 15.5,82.5 15.5,81.5 15.5,80.5C 10.1779,80.0199 4.8446,79.6865 -0.5,79.5C -0.5,75.5 -0.5,71.5 -0.5,67.5 Z"/></g>
<g><path style="opacity:0.999" fill="#ee6337" d="M 99.5,62.5 C 99.5,67.8333 99.5,73.1667 99.5,78.5C 95.6175,79.6371 91.7842,79.6371 88,78.5C 85.4587,82.336 82.6254,82.5026 79.5,79C 75.8484,78.5014 72.1817,78.3347 68.5,78.5C 71.8658,76.2148 75.5325,75.8815 79.5,77.5C 81.3841,77.7118 82.7174,78.7118 83.5,80.5C 84.2975,80.0431 84.6309,79.3764 84.5,78.5C 85.9468,77.8658 86.6134,76.6991 86.5,75C 85.7503,71.8365 85.0836,68.6699 84.5,65.5C 85.7899,66.0577 86.6232,67.0577 87,68.5C 89.8003,67.8747 92.6336,67.208 95.5,66.5C 94.2578,63.0699 95.5911,61.7366 99.5,62.5 Z"/></g>
<g><path style="opacity:1" fill="#d16a53" d="M 26.5,74.5 C 27.391,75.1098 28.391,75.4431 29.5,75.5C 29.8333,76.1667 30.1667,76.8333 30.5,77.5C 29.0413,77.5674 27.7079,77.2341 26.5,76.5C 26.5,75.8333 26.5,75.1667 26.5,74.5 Z"/></g>
<g><path style="opacity:1" fill="#d47454" d="M 79.5,77.5 C 75.5325,75.8815 71.8658,76.2148 68.5,78.5C 67.1667,78.5 65.8333,78.5 64.5,78.5C 69.3427,73.7848 74.3427,73.4514 79.5,77.5 Z"/></g>
<g><path style="opacity:1" fill="#fde5dd" d="M 29.5,75.5 C 33.8299,75.3406 37.8299,76.3406 41.5,78.5C 47.4739,79.3077 53.4739,79.641 59.5,79.5C 52.6479,82.0241 45.6479,82.0241 38.5,79.5C 35.8333,78.8333 33.1667,78.1667 30.5,77.5C 30.1667,76.8333 29.8333,76.1667 29.5,75.5 Z"/></g>
<g><path style="opacity:1" fill="#ef5434" d="M 30.5,77.5 C 33.1667,78.1667 35.8333,78.8333 38.5,79.5C 38.9623,80.8799 39.9623,81.5466 41.5,81.5C 46.8004,82.5689 52.1338,82.7356 57.5,82C 60.2813,81.4782 62.6146,80.3115 64.5,78.5C 65.8333,78.5 67.1667,78.5 68.5,78.5C 72.1817,78.3347 75.8484,78.5014 79.5,79C 82.6254,82.5026 85.4587,82.336 88,78.5C 91.7842,79.6371 95.6175,79.6371 99.5,78.5C 99.5,80.5 99.5,82.5 99.5,84.5C 97.8917,88.0427 95.5584,91.0427 92.5,93.5C 91.209,93.7373 90.209,93.404 89.5,92.5C 86.9292,91.2379 86.9292,89.9045 89.5,88.5C 83.5321,87.5028 77.5321,86.8361 71.5,86.5C 71.5,85.1667 71.5,83.8333 71.5,82.5C 66.6536,82.0005 62.1536,83.0005 58,85.5C 51.4927,84.6099 44.9927,83.6099 38.5,82.5C 35.2908,81.5807 32.6241,79.914 30.5,77.5 Z"/></g>
<g><path style="opacity:1" fill="#cf634f" d="M 64.5,78.5 C 62.6146,80.3115 60.2813,81.4782 57.5,82C 52.1338,82.7356 46.8004,82.5689 41.5,81.5C 39.9623,81.5466 38.9623,80.8799 38.5,79.5C 45.6479,82.0241 52.6479,82.0241 59.5,79.5C 61.2161,79.3713 62.8828,79.038 64.5,78.5 Z"/></g>
<g><path style="opacity:1" fill="#ef4831" d="M -0.5,79.5 C 4.8446,79.6865 10.1779,80.0199 15.5,80.5C 15.5,81.5 15.5,82.5 15.5,83.5C 21.8421,83.3338 28.1754,83.5005 34.5,84C 37.3938,85.8617 40.5604,87.0283 44,87.5C 45.6581,87.3248 46.9914,86.6582 48,85.5C 51.5147,87.2591 55.348,88.2591 59.5,88.5C 61.1161,89.1152 62.4495,90.1152 63.5,91.5C 72.1411,92.498 80.8078,92.8314 89.5,92.5C 90.209,93.404 91.209,93.7373 92.5,93.5C 90.1911,95.9866 87.5244,97.9866 84.5,99.5C 77.5,99.5 70.5,99.5 63.5,99.5C 63.67,98.1779 63.3366,97.0113 62.5,96C 54.1733,95.5003 45.84,95.3336 37.5,95.5C 37.5,94.1667 37.5,92.8333 37.5,91.5C 36.1667,91.5 34.8333,91.5 33.5,91.5C 33.5417,89.1511 32.3751,87.8178 30,87.5C 22.854,88.5544 15.6873,88.5544 8.5,87.5C 8.5,88.5 8.5,89.5 8.5,90.5C 6.82124,90.2852 5.82124,90.9519 5.5,92.5C 2.74361,89.9823 0.743612,86.9823 -0.5,83.5C -0.5,82.1667 -0.5,80.8333 -0.5,79.5 Z"/></g>
<g><path style="opacity:0.988" fill="#ef4131" d="M 63.5,99.5 C 47.5,99.5 31.5,99.5 15.5,99.5C 11.5015,98.1633 8.16821,95.8299 5.5,92.5C 5.82124,90.9519 6.82124,90.2852 8.5,90.5C 8.5,89.5 8.5,88.5 8.5,87.5C 15.6873,88.5544 22.854,88.5544 30,87.5C 32.3751,87.8178 33.5417,89.1511 33.5,91.5C 34.8333,91.5 36.1667,91.5 37.5,91.5C 37.5,92.8333 37.5,94.1667 37.5,95.5C 45.84,95.3336 54.1733,95.5003 62.5,96C 63.3366,97.0113 63.67,98.1779 63.5,99.5 Z"/></g>
</svg>
