<?xml version="1.0" encoding="UTF-8"?>
<!DOCTYPE svg PUBLIC "-//W3C//DTD SVG 1.1//EN" "http://www.w3.org/Graphics/SVG/1.1/DTD/svg11.dtd">
<svg xmlns="http://www.w3.org/2000/svg" version="1.1" width="100px" height="100px" style="shape-rendering:geometricPrecision; text-rendering:geometricPrecision; image-rendering:optimizeQuality; fill-rule:evenodd; clip-rule:evenodd" xmlns:xlink="http://www.w3.org/1999/xlink">
<g><path style="opacity:0.428" fill="#fe8b01" d="M 44.5,-0.5 C 45.8333,-0.5 47.1667,-0.5 48.5,-0.5C 48.5,32.8333 48.5,66.1667 48.5,99.5C 47.1667,99.5 45.8333,99.5 44.5,99.5C 44.1667,98.8333 43.8333,98.1667 43.5,97.5C 44.3764,97.6309 45.0431,97.2975 45.5,96.5C 46.1892,94.556 46.6892,92.556 47,90.5C 47.6667,73.8333 47.6667,57.1667 47,40.5C 45.9887,39.6634 44.8221,39.33 43.5,39.5C 43.5,36.8333 43.5,34.1667 43.5,31.5C 44.8333,31.5 46.1667,31.5 47.5,31.5C 47.831,23.4723 47.4977,15.4723 46.5,7.5C 45.4756,6.14819 44.4756,4.81486 43.5,3.5C 44.1098,2.60895 44.4431,1.60895 44.5,0.5C 44.5,0.166667 44.5,-0.166667 44.5,-0.5 Z"/></g>
<g><path style="opacity:0.836" fill="#fe8d00" d="M 50.5,-0.5 C 51.5,-0.5 52.5,-0.5 53.5,-0.5C 55.4632,0.820176 57.4632,2.15351 59.5,3.5C 59.5599,7.32731 58.3932,7.99397 56,5.5C 55.8332,35.5056 55.3332,65.5056 54.5,95.5C 53.2949,96.5769 52.6282,97.9102 52.5,99.5C 51.8333,99.5 51.1667,99.5 50.5,99.5C 50.5,66.1667 50.5,32.8333 50.5,-0.5 Z"/></g>
<g><path style="opacity:1" fill="#f6890e" d="M 44.5,0.5 C 44.4431,1.60895 44.1098,2.60895 43.5,3.5C 41.4916,4.30065 40.9916,5.63398 42,7.5C 40.6003,6.25198 39.1003,5.25198 37.5,4.5C 39.7912,3.235 42.1246,1.90167 44.5,0.5 Z"/></g>
<g><path style="opacity:0.985" fill="#fe8600" d="M 43.5,3.5 C 44.4756,4.81486 45.4756,6.14819 46.5,7.5C 47.4977,15.4723 47.831,23.4723 47.5,31.5C 46.1667,31.5 44.8333,31.5 43.5,31.5C 43.5,34.1667 43.5,36.8333 43.5,39.5C 44.8221,39.33 45.9887,39.6634 47,40.5C 47.6667,57.1667 47.6667,73.8333 47,90.5C 46.6892,92.556 46.1892,94.556 45.5,96.5C 45.0431,97.2975 44.3764,97.6309 43.5,97.5C 38.9298,95.594 34.5964,93.2607 30.5,90.5C 33.5238,89.5729 36.3571,90.2396 39,92.5C 39.4935,90.8659 39.6602,89.1992 39.5,87.5C 36.8127,87.6641 34.146,87.4974 31.5,87C 32.3366,85.9887 32.67,84.8221 32.5,83.5C 33.5,83.5 34.5,83.5 35.5,83.5C 35.5,80.8333 35.5,78.1667 35.5,75.5C 36.8221,75.67 37.9887,75.3366 39,74.5C 39.6667,65.8333 39.6667,57.1667 39,48.5C 37.9887,47.6634 36.8221,47.33 35.5,47.5C 35.5,44.8333 35.5,42.1667 35.5,39.5C 36.5,39.5 37.5,39.5 38.5,39.5C 38.5,36.8333 38.5,34.1667 38.5,31.5C 37.5,31.5 36.5,31.5 35.5,31.5C 35.8611,24.8893 35.1944,18.3893 33.5,12C 33.7483,10.2841 34.415,8.78413 35.5,7.5C 35.3764,6.89333 35.0431,6.55999 34.5,6.5C 35.2905,5.59872 36.2905,4.93205 37.5,4.5C 39.1003,5.25198 40.6003,6.25198 42,7.5C 40.9916,5.63398 41.4916,4.30065 43.5,3.5 Z"/></g>
<g><path style="opacity:0.999" fill="#fd9100" d="M 59.5,3.5 C 60.8333,4.16667 62.1667,4.83333 63.5,5.5C 63.3774,15.7012 63.7108,26.0345 64.5,36.5C 65.3333,35.5 66.1667,34.5 67,33.5C 67.1667,34.1667 67.3333,34.8333 67.5,35.5C 66.3847,38.0667 64.718,40.2334 62.5,42C 64.7385,42.8796 66.4052,44.3796 67.5,46.5C 67.1667,46.8333 66.8333,47.1667 66.5,47.5C 65.8333,46.8333 65.1667,46.1667 64.5,45.5C 63.0425,52.1042 63.3758,58.6042 65.5,65C 63.635,74.0254 62.9683,83.1921 63.5,92.5C 61.8212,92.2852 60.8212,92.9519 60.5,94.5C 58.5,96.1667 56.5,97.8333 54.5,99.5C 53.8333,99.5 53.1667,99.5 52.5,99.5C 52.6282,97.9102 53.2949,96.5769 54.5,95.5C 55.3332,65.5056 55.8332,35.5056 56,5.5C 58.3932,7.99397 59.5599,7.32731 59.5,3.5 Z"/></g>
<g><path style="opacity:0.992" fill="#fb8106" d="M 34.5,6.5 C 35.0431,6.55999 35.3764,6.89333 35.5,7.5C 34.415,8.78413 33.7483,10.2841 33.5,12C 35.1944,18.3893 35.8611,24.8893 35.5,31.5C 36.5,31.5 37.5,31.5 38.5,31.5C 38.5,34.1667 38.5,36.8333 38.5,39.5C 37.5,39.5 36.5,39.5 35.5,39.5C 35.5,42.1667 35.5,44.8333 35.5,47.5C 36.8221,47.33 37.9887,47.6634 39,48.5C 39.6667,57.1667 39.6667,65.8333 39,74.5C 37.9887,75.3366 36.8221,75.67 35.5,75.5C 35.5,78.1667 35.5,80.8333 35.5,83.5C 34.5,83.5 33.5,83.5 32.5,83.5C 32.67,84.8221 32.3366,85.9887 31.5,87C 34.146,87.4974 36.8127,87.6641 39.5,87.5C 39.6602,89.1992 39.4935,90.8659 39,92.5C 36.3571,90.2396 33.5238,89.5729 30.5,90.5C 29.6682,71.3377 29.1682,52.0043 29,32.5C 27.8873,33.305 26.7206,33.9717 25.5,34.5C 24.5084,34.6716 23.8417,34.3382 23.5,33.5C 25.5099,28.0464 26.0099,22.3798 25,16.5C 22.9592,15.5769 20.7925,15.2436 18.5,15.5C 23.5016,11.9969 28.835,8.99688 34.5,6.5 Z"/></g>
<g><path style="opacity:0.224" fill="#ec9920" d="M 64.5,6.5 C 65.9952,6.98869 67.3285,7.65536 68.5,8.5C 66.5168,8.84316 65.1834,8.17649 64.5,6.5 Z"/></g>
<g><path style="opacity:0.765" fill="#eda11a" d="M 77.5,13.5 C 79.1131,14.6923 80.7798,15.6923 82.5,16.5C 79.715,17.0838 78.0483,16.0838 77.5,13.5 Z"/></g>
<g><path style="opacity:0.996" fill="#fd7902" d="M 18.5,15.5 C 20.7925,15.2436 22.9592,15.5769 25,16.5C 26.0099,22.3798 25.5099,28.0464 23.5,33.5C 22.5,33.5 21.5,33.5 20.5,33.5C 20.5,34.5 20.5,35.5 20.5,36.5C 19.5,36.5 18.5,36.5 17.5,36.5C 17.5,37.5 17.5,38.5 17.5,39.5C 16.3951,40.6005 15.0618,41.2671 13.5,41.5C 14.6375,38.4922 16.6375,36.4922 19.5,35.5C 18.201,31.6295 17.5343,27.6295 17.5,23.5C 15.6693,24.0522 14.0026,24.0522 12.5,23.5C 11.6352,21.3944 12.3019,21.061 14.5,22.5C 17.2079,19.9072 16.5412,18.5739 12.5,18.5C 14.4561,17.5082 16.4561,16.5082 18.5,15.5 Z"/></g>
<g><path style="opacity:0.981" fill="#fd9801" d="M 63.5,5.5 C 64.1667,5.5 64.5,5.83333 64.5,6.5C 65.1834,8.17649 66.5168,8.84316 68.5,8.5C 70.2303,9.02561 71.5637,10.0256 72.5,11.5C 74.4424,14.9145 75.4424,18.7478 75.5,23C 75.1667,25.5 74.8333,28 74.5,30.5C 73.1585,32.0049 71.4918,32.6715 69.5,32.5C 66.7075,39.0637 68.7075,43.397 75.5,45.5C 75.5,48.8333 75.5,52.1667 75.5,55.5C 76.8333,55.5 78.1667,55.5 79.5,55.5C 79.5,58.8333 79.5,62.1667 79.5,65.5C 77.64,64.9285 75.9733,64.9285 74.5,65.5C 72.5742,64.7577 70.7409,63.7577 69,62.5C 68.8299,72.009 68.3299,81.3423 67.5,90.5C 65.8212,90.2852 64.8212,90.9519 64.5,92.5C 63.4863,93.6737 62.153,94.3404 60.5,94.5C 60.8212,92.9519 61.8212,92.2852 63.5,92.5C 62.9683,83.1921 63.635,74.0254 65.5,65C 63.3758,58.6042 63.0425,52.1042 64.5,45.5C 65.1667,46.1667 65.8333,46.8333 66.5,47.5C 66.8333,47.1667 67.1667,46.8333 67.5,46.5C 66.4052,44.3796 64.7385,42.8796 62.5,42C 64.718,40.2334 66.3847,38.0667 67.5,35.5C 67.3333,34.8333 67.1667,34.1667 67,33.5C 66.1667,34.5 65.3333,35.5 64.5,36.5C 63.7108,26.0345 63.3774,15.7012 63.5,5.5 Z"/></g>
<g><path style="opacity:0.994" fill="#fd9e03" d="M 72.5,11.5 C 74.2838,11.8925 75.9505,12.5592 77.5,13.5C 78.0483,16.0838 79.715,17.0838 82.5,16.5C 84.2303,17.0256 85.5637,18.0256 86.5,19.5C 86.2786,20.7348 85.6119,21.7348 84.5,22.5C 85.0766,24.1056 85.4099,25.7722 85.5,27.5C 84.467,31.6319 83.467,35.6319 82.5,39.5C 77.8899,37.5272 73.5566,35.1938 69.5,32.5C 71.4918,32.6715 73.1585,32.0049 74.5,30.5C 74.8333,28 75.1667,25.5 75.5,23C 75.4424,18.7478 74.4424,14.9145 72.5,11.5 Z"/></g>
<g><path style="opacity:0.804" fill="#f17916" d="M 12.5,18.5 C 12.1788,20.0481 11.1788,20.7148 9.5,20.5C 10.2905,19.5987 11.2905,18.9321 12.5,18.5 Z"/></g>
<g><path style="opacity:0.98" fill="#fd7402" d="M 12.5,18.5 C 16.5412,18.5739 17.2079,19.9072 14.5,22.5C 12.3019,21.061 11.6352,21.3944 12.5,23.5C 14.0026,24.0522 15.6693,24.0522 17.5,23.5C 17.5343,27.6295 18.201,31.6295 19.5,35.5C 16.6375,36.4922 14.6375,38.4922 13.5,41.5C 10.8614,43.1558 8.19472,44.8224 5.5,46.5C 4.16667,38.5 4.16667,30.5 5.5,22.5C 6.85989,21.8201 8.19322,21.1534 9.5,20.5C 11.1788,20.7148 12.1788,20.0481 12.5,18.5 Z"/></g>
<g><path style="opacity:0.963" fill="#fda501" d="M 86.5,19.5 C 86.8333,19.5 87.1667,19.5 87.5,19.5C 87.238,20.9778 87.5713,22.3112 88.5,23.5C 89.5223,23.1445 90.189,22.4778 90.5,21.5C 91.5832,21.5394 92.5832,21.8728 93.5,22.5C 94.8333,30.5 94.8333,38.5 93.5,46.5C 91.6036,45.7255 89.937,44.7255 88.5,43.5C 87.656,41.2407 85.9893,40.2407 83.5,40.5C 82.8333,40.5 82.5,40.1667 82.5,39.5C 83.467,35.6319 84.467,31.6319 85.5,27.5C 85.4099,25.7722 85.0766,24.1056 84.5,22.5C 85.6119,21.7348 86.2786,20.7348 86.5,19.5 Z"/></g>
<g><path style="opacity:1" fill="#f2a909" d="M 87.5,19.5 C 89.0269,19.427 90.0269,20.0937 90.5,21.5C 90.189,22.4778 89.5223,23.1445 88.5,23.5C 87.5713,22.3112 87.238,20.9778 87.5,19.5 Z"/></g>
<g><path style="opacity:0.424" fill="#f37e0c" d="M 23.5,33.5 C 23.8417,34.3382 24.5084,34.6716 25.5,34.5C 23.2063,36.653 20.5396,38.3197 17.5,39.5C 17.5,38.5 17.5,37.5 17.5,36.5C 18.5,36.5 19.5,36.5 20.5,36.5C 20.5,35.5 20.5,34.5 20.5,33.5C 21.5,33.5 22.5,33.5 23.5,33.5 Z"/></g>
<g><path style="opacity:0.769" fill="#f3a612" d="M 83.5,40.5 C 85.9893,40.2407 87.656,41.2407 88.5,43.5C 86.5659,42.8897 84.8993,41.8897 83.5,40.5 Z"/></g>
<g><path style="opacity:0.954" fill="#fd9201" d="M 81.5,50.5 C 82.404,51.209 82.7373,52.209 82.5,53.5C 81.0222,53.762 79.6888,53.4287 78.5,52.5C 79.2749,50.6978 80.2749,50.0311 81.5,50.5 Z"/></g>
<g><path style="opacity:0.707" fill="#fb9e05" d="M 75.5,45.5 C 76.8816,46.8005 78.5483,47.6339 80.5,48C 81.2524,48.6708 81.5858,49.5041 81.5,50.5C 80.2749,50.0311 79.2749,50.6978 78.5,52.5C 79.6888,53.4287 81.0222,53.762 82.5,53.5C 82.5,58.8333 82.5,64.1667 82.5,69.5C 79.5578,68.6955 76.8911,67.3622 74.5,65.5C 75.9733,64.9285 77.64,64.9285 79.5,65.5C 79.5,62.1667 79.5,58.8333 79.5,55.5C 78.1667,55.5 76.8333,55.5 75.5,55.5C 75.5,52.1667 75.5,48.8333 75.5,45.5 Z"/></g>
<g><path style="opacity:0.455" fill="#ee9d11" d="M 67.5,90.5 C 66.7095,91.4013 65.7095,92.0679 64.5,92.5C 64.8212,90.9519 65.8212,90.2852 67.5,90.5 Z"/></g>
</svg>
