<?xml version="1.0" encoding="UTF-8"?>
<!DOCTYPE svg PUBLIC "-//W3C//DTD SVG 1.1//EN" "http://www.w3.org/Graphics/SVG/1.1/DTD/svg11.dtd">
<svg xmlns="http://www.w3.org/2000/svg" version="1.1" width="100px" height="100px" style="shape-rendering:geometricPrecision; text-rendering:geometricPrecision; image-rendering:optimizeQuality; fill-rule:evenodd; clip-rule:evenodd" xmlns:xlink="http://www.w3.org/1999/xlink">
<g><path style="opacity:0.908" fill="#bdcdd2" d="M 12.5,-0.5 C 36.5,-0.5 60.5,-0.5 84.5,-0.5C 86.129,1.19593 85.7957,2.19593 83.5,2.5C 60.8309,2.33337 38.1642,2.50004 15.5,3C 14.0993,3.4101 12.766,3.9101 11.5,4.5C 11.5,3.16667 11.5,1.83333 11.5,0.5C 12.1667,0.5 12.5,0.166667 12.5,-0.5 Z"/></g>
<g><path style="opacity:1" fill="#20242b" d="M 83.5,2.5 C 83.5,2.83333 83.5,3.16667 83.5,3.5C 61.1642,3.33337 38.8308,3.50004 16.5,4C 15.0953,5.26918 13.4286,5.76918 11.5,5.5C 11.5,5.16667 11.5,4.83333 11.5,4.5C 12.766,3.9101 14.0993,3.4101 15.5,3C 38.1642,2.50004 60.8309,2.33337 83.5,2.5 Z"/></g>
<g><path style="opacity:1" fill="#070808" d="M 83.5,3.5 C 87.774,5.11909 91.1074,7.78575 93.5,11.5C 93.5792,12.9305 93.2458,14.2638 92.5,15.5C 93.2421,16.2868 94.0754,16.9535 95,17.5C 95.5,39.1641 95.6666,60.8308 95.5,82.5C 93.3162,89.4506 88.6495,93.9506 81.5,96C 59.8333,96.6667 38.1667,96.6667 16.5,96C 14.6228,94.8147 12.6228,93.8147 10.5,93C 7.44899,89.7011 4.78233,86.2011 2.5,82.5C 2.5,61.8333 2.5,41.1667 2.5,20.5C 2.72102,13.7084 5.72102,8.70843 11.5,5.5C 13.4286,5.76918 15.0953,5.26918 16.5,4C 38.8308,3.50004 61.1642,3.33337 83.5,3.5 Z"/></g>
<g><path style="opacity:0.898" fill="#b9c6c7" d="M 84.5,-0.5 C 85.1667,-0.5 85.8333,-0.5 86.5,-0.5C 90.5269,1.19481 93.8602,3.86147 96.5,7.5C 97.5122,10.2572 98.5122,12.9239 99.5,15.5C 99.5,23.5 99.5,31.5 99.5,39.5C 98.8333,39.5 98.1667,39.5 97.5,39.5C 97.8245,32.3134 97.4912,25.3134 96.5,18.5C 96.4484,15.6538 95.4484,13.3204 93.5,11.5C 91.1074,7.78575 87.774,5.11909 83.5,3.5C 83.5,3.16667 83.5,2.83333 83.5,2.5C 85.7957,2.19593 86.129,1.19593 84.5,-0.5 Z"/></g>
<g><path style="opacity:1" fill="#262626" d="M 19.5,9.5 C 39.5028,9.33338 59.5028,9.50005 79.5,10C 83.0469,10.737 85.8802,12.5703 88,15.5C 89.6328,36.7692 89.9661,58.1025 89,79.5C 87.5957,85.5684 83.7624,88.7351 77.5,89C 58.1667,89.6667 38.8333,89.6667 19.5,89C 14.3333,87.8333 11.1667,84.6667 10,79.5C 9.0958,58.1367 9.42913,36.8033 11,15.5C 13.3218,12.6047 16.1552,10.6047 19.5,9.5 Z"/></g>
<g><path style="opacity:0.016" fill="#101518" d="M 1.5,9.5 C 1.20414,11.403 0.53747,13.0697 -0.5,14.5C -0.5,13.1667 -0.5,11.8333 -0.5,10.5C 0.166667,10.1667 0.833333,9.83333 1.5,9.5 Z"/></g>
<g><path style="opacity:0.024" fill="#0c1315" d="M 96.5,7.5 C 97.7281,8.30646 98.7281,9.30646 99.5,10.5C 99.5,12.1667 99.5,13.8333 99.5,15.5C 98.5122,12.9239 97.5122,10.2572 96.5,7.5 Z"/></g>
<g><path style="opacity:1" fill="#d7d7d7" d="M 17.5,17.5 C 22.52,19.0036 26.8533,21.5036 30.5,25C 27.0341,28.2393 23.0341,30.7393 18.5,32.5C 17.4173,31.635 17.2506,30.635 18,29.5C 20.4449,28.0936 22.9449,26.7602 25.5,25.5C 23.5562,22.8446 20.8895,21.5113 17.5,21.5C 17.5,20.1667 17.5,18.8333 17.5,17.5 Z"/></g>
<g><path style="opacity:0.98" fill="#b5c1c4" d="M 11.5,0.5 C 11.5,1.83333 11.5,3.16667 11.5,4.5C 11.5,4.83333 11.5,5.16667 11.5,5.5C 5.72102,8.70843 2.72102,13.7084 2.5,20.5C 1.66934,31.9928 1.16934,43.6595 1,55.5C 0.78997,53.9419 0.28997,52.6085 -0.5,51.5C -0.5,39.1667 -0.5,26.8333 -0.5,14.5C 0.53747,13.0697 1.20414,11.403 1.5,9.5C 3.56217,5.1053 6.89551,2.1053 11.5,0.5 Z"/></g>
<g><path style="opacity:1" fill="#ebebeb" d="M 34.5,35.5 C 39.2137,35.1734 43.8804,35.5067 48.5,36.5C 46.1667,36.8333 43.8333,37.1667 41.5,37.5C 38.7305,37.4714 36.3972,36.8048 34.5,35.5 Z"/></g>
<g><path style="opacity:1" fill="#242729" d="M 93.5,11.5 C 95.4484,13.3204 96.4484,15.6538 96.5,18.5C 96.8306,40.0065 96.4973,61.3399 95.5,82.5C 95.6666,60.8308 95.5,39.1641 95,17.5C 94.0754,16.9535 93.2421,16.2868 92.5,15.5C 93.2458,14.2638 93.5792,12.9305 93.5,11.5 Z"/></g>
<g><path style="opacity:0.851" fill="#999c9d" d="M 97.5,39.5 C 98.1667,39.5 98.8333,39.5 99.5,39.5C 99.5,50.1667 99.5,60.8333 99.5,71.5C 98.71,72.6085 98.21,73.9419 98,75.5C 97.5001,63.5046 97.3335,51.5046 97.5,39.5 Z"/></g>
<g><path style="opacity:0.992" fill="#858888" d="M 2.5,20.5 C 2.5,41.1667 2.5,61.8333 2.5,82.5C 2.56544,82.9382 2.39877,83.2716 2,83.5C 1.87838,81.563 1.04504,80.2297 -0.5,79.5C -0.5,70.1667 -0.5,60.8333 -0.5,51.5C 0.28997,52.6085 0.78997,53.9419 1,55.5C 1.16934,43.6595 1.66934,31.9928 2.5,20.5 Z"/></g>
<g><path style="opacity:0.057" fill="#090909" d="M -0.5,83.5 C 2.60074,91.6019 8.26741,96.9352 16.5,99.5C 13.8333,99.5 11.1667,99.5 8.5,99.5C 5.16667,96.8333 2.16667,93.8333 -0.5,90.5C -0.5,88.1667 -0.5,85.8333 -0.5,83.5 Z"/></g>
<g><path style="opacity:0.06" fill="#0b0b0b" d="M 99.5,82.5 C 99.5,85.1667 99.5,87.8333 99.5,90.5C 97.0681,93.6881 94.4015,96.6881 91.5,99.5C 88.8333,99.5 86.1667,99.5 83.5,99.5C 91.5752,96.4245 96.9085,90.7579 99.5,82.5 Z"/></g>
<g><path style="opacity:0.71" fill="#6d6e6e" d="M 96.5,18.5 C 97.4912,25.3134 97.8245,32.3134 97.5,39.5C 97.3335,51.5046 97.5001,63.5046 98,75.5C 98.21,73.9419 98.71,72.6085 99.5,71.5C 99.5,75.1667 99.5,78.8333 99.5,82.5C 96.9085,90.7579 91.5752,96.4245 83.5,99.5C 61.1667,99.5 38.8333,99.5 16.5,99.5C 8.26741,96.9352 2.60074,91.6019 -0.5,83.5C -0.5,82.1667 -0.5,80.8333 -0.5,79.5C 1.04504,80.2297 1.87838,81.563 2,83.5C 2.39877,83.2716 2.56544,82.9382 2.5,82.5C 4.78233,86.2011 7.44899,89.7011 10.5,93C 12.6228,93.8147 14.6228,94.8147 16.5,96C 38.1667,96.6667 59.8333,96.6667 81.5,96C 88.6495,93.9506 93.3162,89.4506 95.5,82.5C 96.4973,61.3399 96.8306,40.0065 96.5,18.5 Z"/></g>
</svg>
