<?xml version="1.0" encoding="UTF-8"?>
<!DOCTYPE svg PUBLIC "-//W3C//DTD SVG 1.1//EN" "http://www.w3.org/Graphics/SVG/1.1/DTD/svg11.dtd">
<svg xmlns="http://www.w3.org/2000/svg" version="1.1" width="100px" height="100px" style="shape-rendering:geometricPrecision; text-rendering:geometricPrecision; image-rendering:optimizeQuality; fill-rule:evenodd; clip-rule:evenodd" xmlns:xlink="http://www.w3.org/1999/xlink">
<g><path style="opacity:0.981" fill="#3c3d3c" d="M 3.5,-0.5 C 34.1667,-0.5 64.8333,-0.5 95.5,-0.5C 96.5,1.16667 97.8333,2.5 99.5,3.5C 99.5,16.8333 99.5,30.1667 99.5,43.5C 83.1667,43.5 66.8333,43.5 50.5,43.5C 50.8326,29.1512 50.4993,14.8179 49.5,0.5C 48.1667,24.1667 48.1667,47.8333 49.5,71.5C 50.4979,63.1932 50.8312,54.8599 50.5,46.5C 66.8333,46.5 83.1667,46.5 99.5,46.5C 99.5,60.5 99.5,74.5 99.5,88.5C 83.1667,88.5 66.8333,88.5 50.5,88.5C 49.8333,67.1667 49.1667,67.1667 48.5,88.5C 32.1667,88.5 15.8333,88.5 -0.5,88.5C -0.5,60.1667 -0.5,31.8333 -0.5,3.5C 1.16667,2.5 2.5,1.16667 3.5,-0.5 Z"/></g>
<g><path style="opacity:1" fill="#264e27" d="M -0.5,88.5 C 15.8333,88.5 32.1667,88.5 48.5,88.5C 48.5,88.8333 48.5,89.1667 48.5,89.5C 47.8333,89.5 47.5,89.8333 47.5,90.5C 31.5,90.5 15.5,90.5 -0.5,90.5C -0.5,89.8333 -0.5,89.1667 -0.5,88.5 Z"/></g>
<g><path style="opacity:1" fill="#264f27" d="M 50.5,88.5 C 66.8333,88.5 83.1667,88.5 99.5,88.5C 99.5,89.1667 99.5,89.8333 99.5,90.5C 82.9915,90.8298 66.6581,90.4964 50.5,89.5C 50.5,89.1667 50.5,88.8333 50.5,88.5 Z"/></g>
<g><path style="opacity:1" fill="#349f34" d="M -0.5,90.5 C 15.5,90.5 31.5,90.5 47.5,90.5C 47.5,90.8333 47.5,91.1667 47.5,91.5C 31.6754,92.4964 15.6754,92.8297 -0.5,92.5C -0.5,91.8333 -0.5,91.1667 -0.5,90.5 Z"/></g>
<g><path style="opacity:1" fill="#34a135" d="M 48.5,89.5 C 49.1667,89.5 49.8333,89.5 50.5,89.5C 66.6581,90.4964 82.9915,90.8298 99.5,90.5C 99.5,91.1667 99.5,91.8333 99.5,92.5C 82.1388,92.7772 64.8055,92.4438 47.5,91.5C 47.5,91.1667 47.5,90.8333 47.5,90.5C 47.5,89.8333 47.8333,89.5 48.5,89.5 Z"/></g>
<g><path style="opacity:1" fill="#21b422" d="M 47.5,91.5 C 64.8055,92.4438 82.1388,92.7772 99.5,92.5C 99.5,92.8333 99.5,93.1667 99.5,93.5C 66.1433,93.8923 32.8099,93.8923 -0.5,93.5C -0.5,93.1667 -0.5,92.8333 -0.5,92.5C 15.6754,92.8297 31.6754,92.4964 47.5,91.5 Z"/></g>
<g><path style="opacity:0.994" fill="#1bb81f" d="M -0.5,93.5 C 32.8099,93.8923 66.1433,93.8923 99.5,93.5C 99.5,94.1667 99.5,94.8333 99.5,95.5C 97.8333,96.5 96.5,97.8333 95.5,99.5C 64.8333,99.5 34.1667,99.5 3.5,99.5C 2.5,97.8333 1.16667,96.5 -0.5,95.5C -0.5,94.8333 -0.5,94.1667 -0.5,93.5 Z"/></g>
</svg>
