<?xml version="1.0" encoding="UTF-8"?>
<!DOCTYPE svg PUBLIC "-//W3C//DTD SVG 1.1//EN" "http://www.w3.org/Graphics/SVG/1.1/DTD/svg11.dtd">
<svg xmlns="http://www.w3.org/2000/svg" version="1.1" width="100px" height="100px" style="shape-rendering:geometricPrecision; text-rendering:geometricPrecision; image-rendering:optimizeQuality; fill-rule:evenodd; clip-rule:evenodd" xmlns:xlink="http://www.w3.org/1999/xlink">
<g><path style="opacity:1" fill="#db20ab" d="M 45.5,1.5 C 45.5,2.83333 45.5,4.16667 45.5,5.5C 46.8333,5.5 48.1667,5.5 49.5,5.5C 48.809,14.0137 51.9757,20.347 59,24.5C 59.3884,28.2192 60.0551,31.8859 61,35.5C 62.7889,37.229 64.9556,37.8957 67.5,37.5C 65.1042,39.0233 62.4375,40.0233 59.5,40.5C 60.5102,37.5954 59.3435,35.5954 56,34.5C 54.0898,31.1792 52.5898,27.6792 51.5,24C 51.3999,21.6449 50.2332,19.4783 48,17.5C 47.2974,14.2875 47.4641,11.1208 48.5,8C 48.1667,7.5 47.8333,7 47.5,6.5C 45.2534,7.37422 42.9201,7.70755 40.5,7.5C 39.5,7.16667 38.8333,6.5 38.5,5.5C 40.6979,3.90189 43.0313,2.56855 45.5,1.5 Z"/></g>
<g><path style="opacity:1" fill="#bd20d1" d="M 69.5,10.5 C 70.7095,10.9321 71.7095,11.5987 72.5,12.5C 71.9094,13.1515 71.2427,13.8182 70.5,14.5C 71.9257,19.2596 74.9257,22.2596 79.5,23.5C 79.2011,25.604 79.5344,27.604 80.5,29.5C 83.8552,28.3291 84.1885,26.6624 81.5,24.5C 82,24.1667 82.5,23.8333 83,23.5C 85.2097,25.1109 87.7097,25.7776 90.5,25.5C 90.1667,26.1667 89.8333,26.8333 89.5,27.5C 87.0462,28.2271 84.7128,29.2271 82.5,30.5C 80.7839,30.6287 79.1172,30.962 77.5,31.5C 75.8561,31.7135 74.3561,31.3802 73,30.5C 72.8184,27.7737 72.3184,25.1071 71.5,22.5C 68.7488,20.7534 66.7488,18.42 65.5,15.5C 66.3092,13.2687 67.6425,11.602 69.5,10.5 Z"/></g>
<g><path style="opacity:1" fill="#e62195" d="M 38.5,5.5 C 38.8333,6.5 39.5,7.16667 40.5,7.5C 41.0027,13.5079 43.1694,18.8412 47,23.5C 47.7059,28.8321 50.0393,33.1654 54,36.5C 54.1862,39.0356 54.6862,41.369 55.5,43.5C 54.3065,44.2719 53.3065,45.2719 52.5,46.5C 51.1667,46.8333 49.8333,47.1667 48.5,47.5C 47.4069,44.9051 45.7402,42.7384 43.5,41C 43.9054,40.0546 44.572,39.3879 45.5,39C 42.4492,35.7841 40.6159,31.9507 40,27.5C 39.6667,28.1667 39.3333,28.8333 39,29.5C 37.3634,22.2264 34.1967,15.893 29.5,10.5C 32.331,8.58323 35.331,6.91657 38.5,5.5 Z"/></g>
<g><path style="opacity:1" fill="#b81edf" d="M 72.5,12.5 C 79.3322,15.4124 85.6656,19.0791 91.5,23.5C 91.6716,24.4916 91.3382,25.1583 90.5,25.5C 87.7097,25.7776 85.2097,25.1109 83,23.5C 82.5,23.8333 82,24.1667 81.5,24.5C 84.1885,26.6624 83.8552,28.3291 80.5,29.5C 79.5344,27.604 79.2011,25.604 79.5,23.5C 74.9257,22.2596 71.9257,19.2596 70.5,14.5C 71.2427,13.8182 71.9094,13.1515 72.5,12.5 Z"/></g>
<g><path style="opacity:1" fill="#fc2d64" d="M 15.5,18.5 C 17.7852,20.6054 20.4519,22.1054 23.5,23C 27.0999,26.3684 28.9332,30.535 29,35.5C 30.7583,36.4695 31.2583,37.6361 30.5,39C 31.8475,41.3421 33.1809,43.6754 34.5,46C 34.4148,47.1074 34.0814,48.1074 33.5,49C 39.1651,55.8761 44.1651,63.0427 48.5,70.5C 48.5,76.1667 48.5,81.8333 48.5,87.5C 47.144,84.4233 46.3106,81.0899 46,77.5C 41.7284,72.6293 38.7284,66.9626 37,60.5C 35.5557,58.8446 33.7224,58.178 31.5,58.5C 31.4446,52.2479 29.2779,46.9146 25,42.5C 24.4163,38.5694 23.0829,34.5694 21,30.5C 19.6218,28.7866 17.9552,27.4533 16,26.5C 15.338,24.1873 14.838,21.854 14.5,19.5C 14.5,18.8333 14.8333,18.5 15.5,18.5 Z"/></g>
<g><path style="opacity:1" fill="#cf20bb" d="M 47.5,-0.5 C 48.8333,-0.5 50.1667,-0.5 51.5,-0.5C 54.0094,0.921263 56.3428,2.58793 58.5,4.5C 57.9033,4.7352 57.5699,5.2352 57.5,6C 58.1852,8.79515 58.6852,11.6285 59,14.5C 63.1309,19.5854 65.7975,25.2521 67,31.5C 67.3112,28.5682 67.4779,25.9016 67.5,23.5C 68.086,23.7093 68.586,24.0426 69,24.5C 68.3687,31.5051 71.2021,33.8384 77.5,31.5C 79.1172,30.962 80.7839,30.6287 82.5,30.5C 81.8333,31.1667 81.1667,31.8333 80.5,32.5C 78.0326,32.7549 76.0326,33.7549 74.5,35.5C 73.391,35.5569 72.391,35.8902 71.5,36.5C 69.901,36.2322 68.5676,36.5655 67.5,37.5C 64.9556,37.8957 62.7889,37.229 61,35.5C 60.0551,31.8859 59.3884,28.2192 59,24.5C 51.9757,20.347 48.809,14.0137 49.5,5.5C 48.1667,5.5 46.8333,5.5 45.5,5.5C 45.5,4.16667 45.5,2.83333 45.5,1.5C 46.1667,0.833333 46.8333,0.166667 47.5,-0.5 Z"/></g>
<g><path style="opacity:1" fill="#f22184" d="M 29.5,10.5 C 34.1967,15.893 37.3634,22.2264 39,29.5C 39.3333,28.8333 39.6667,28.1667 40,27.5C 40.6159,31.9507 42.4492,35.7841 45.5,39C 44.572,39.3879 43.9054,40.0546 43.5,41C 45.7402,42.7384 47.4069,44.9051 48.5,47.5C 48.5,49.1667 48.5,50.8333 48.5,52.5C 47.6909,54.2922 47.1909,56.2922 47,58.5C 44.1446,53.797 42.1446,48.797 41,43.5C 38.8322,42.3709 38.3322,40.8709 39.5,39C 38.3333,37.8333 37.1667,36.6667 36,35.5C 33.6254,28.6168 30.9588,21.9501 28,15.5C 27.3021,14.3094 26.4687,13.3094 25.5,12.5C 26.8333,11.8333 28.1667,11.1667 29.5,10.5 Z"/></g>
<g><path style="opacity:1" fill="#c91fc8" d="M 58.5,4.5 C 62.3299,6.24739 65.9966,8.24739 69.5,10.5C 67.6425,11.602 66.3092,13.2687 65.5,15.5C 66.7488,18.42 68.7488,20.7534 71.5,22.5C 72.3184,25.1071 72.8184,27.7737 73,30.5C 74.3561,31.3802 75.8561,31.7135 77.5,31.5C 71.2021,33.8384 68.3687,31.5051 69,24.5C 68.586,24.0426 68.086,23.7093 67.5,23.5C 67.4779,25.9016 67.3112,28.5682 67,31.5C 65.7975,25.2521 63.1309,19.5854 59,14.5C 58.6852,11.6285 58.1852,8.79515 57.5,6C 57.5699,5.2352 57.9033,4.7352 58.5,4.5 Z"/></g>
<g><path style="opacity:1" fill="#381656" d="M 91.5,23.5 C 92.8333,23.5 93.5,24.1667 93.5,25.5C 92.3951,26.6005 91.0618,27.2671 89.5,27.5C 89.8333,26.8333 90.1667,26.1667 90.5,25.5C 91.3382,25.1583 91.6716,24.4916 91.5,23.5 Z"/></g>
<g><path style="opacity:0.971" fill="#050204" d="M 93.5,25.5 C 93.6666,42.17 93.4999,58.8367 93,75.5C 79.3866,83.3868 65.8866,91.3868 52.5,99.5C 51.5,99.5 50.5,99.5 49.5,99.5C 49.3334,82.83 49.5001,66.1633 50,49.5C 50.7083,48.6195 51.5416,47.9528 52.5,47.5C 57.8333,44.8333 63.1667,42.1667 68.5,39.5C 72.8091,37.4515 77.4758,35.9515 82.5,35C 83.3366,33.9887 83.67,32.8221 83.5,31.5C 86.2921,31.3775 88.2921,30.0442 89.5,27.5C 91.0618,27.2671 92.3951,26.6005 93.5,25.5 Z"/></g>
<g><path style="opacity:1" fill="#fa2473" d="M 25.5,12.5 C 26.4687,13.3094 27.3021,14.3094 28,15.5C 30.9588,21.9501 33.6254,28.6168 36,35.5C 37.1667,36.6667 38.3333,37.8333 39.5,39C 38.3322,40.8709 38.8322,42.3709 41,43.5C 42.1446,48.797 44.1446,53.797 47,58.5C 47.1909,56.2922 47.6909,54.2922 48.5,52.5C 48.5,58.5 48.5,64.5 48.5,70.5C 44.1651,63.0427 39.1651,55.8761 33.5,49C 34.0814,48.1074 34.4148,47.1074 34.5,46C 33.1809,43.6754 31.8475,41.3421 30.5,39C 31.2583,37.6361 30.7583,36.4695 29,35.5C 28.9332,30.535 27.0999,26.3684 23.5,23C 20.4519,22.1054 17.7852,20.6054 15.5,18.5C 18.7976,16.5146 22.1309,14.5146 25.5,12.5 Z"/></g>
<g><path style="opacity:1" fill="#e120a1" d="M 59.5,40.5 C 59.3059,42.9118 57.9726,43.9118 55.5,43.5C 54.6862,41.369 54.1862,39.0356 54,36.5C 50.0393,33.1654 47.7059,28.8321 47,23.5C 43.1694,18.8412 41.0027,13.5079 40.5,7.5C 42.9201,7.70755 45.2534,7.37422 47.5,6.5C 47.8333,7 48.1667,7.5 48.5,8C 47.4641,11.1208 47.2974,14.2875 48,17.5C 50.2332,19.4783 51.3999,21.6449 51.5,24C 52.5898,27.6792 54.0898,31.1792 56,34.5C 59.3435,35.5954 60.5102,37.5954 59.5,40.5 Z"/></g>
<g><path style="opacity:0.984" fill="#480a47" d="M 80.5,32.5 C 78.9674,34.2451 76.9674,35.2451 74.5,35.5C 76.0326,33.7549 78.0326,32.7549 80.5,32.5 Z"/></g>
<g><path style="opacity:1" fill="#1a041c" d="M 89.5,27.5 C 88.2921,30.0442 86.2921,31.3775 83.5,31.5C 83.67,32.8221 83.3366,33.9887 82.5,35C 77.4758,35.9515 72.8091,37.4515 68.5,39.5C 69.3065,38.2719 70.3065,37.2719 71.5,36.5C 72.391,35.8902 73.391,35.5569 74.5,35.5C 76.9674,35.2451 78.9674,34.2451 80.5,32.5C 81.1667,31.8333 81.8333,31.1667 82.5,30.5C 84.7128,29.2271 87.0462,28.2271 89.5,27.5 Z"/></g>
<g><path style="opacity:1" fill="#b62f8c" d="M 71.5,36.5 C 70.3065,37.2719 69.3065,38.2719 68.5,39.5C 63.1667,42.1667 57.8333,44.8333 52.5,47.5C 52.5,47.1667 52.5,46.8333 52.5,46.5C 53.3065,45.2719 54.3065,44.2719 55.5,43.5C 57.9726,43.9118 59.3059,42.9118 59.5,40.5C 62.4375,40.0233 65.1042,39.0233 67.5,37.5C 68.5676,36.5655 69.901,36.2322 71.5,36.5 Z"/></g>
<g><path style="opacity:1" fill="#fd6931" d="M 6.5,42.5 C 7.82207,42.33 8.98873,42.6634 10,43.5C 14.8639,52.5625 19.1972,61.8958 23,71.5C 26.5755,76.1946 29.4089,81.3613 31.5,87C 31.1639,88.0299 30.4972,88.5299 29.5,88.5C 27.847,88.3404 26.5137,87.6737 25.5,86.5C 25.9382,86.5654 26.2716,86.3988 26.5,86C 25.6667,85.1667 24.8333,84.3333 24,83.5C 19.971,72.4302 14.971,61.7636 9,51.5C 8.66667,51.1667 8.33333,50.8333 8,50.5C 7.72158,51.4158 7.22158,52.0825 6.5,52.5C 6.5,49.1667 6.5,45.8333 6.5,42.5 Z"/></g>
<g><path style="opacity:1" fill="#fc5a3d" d="M 7.5,24.5 C 8.16142,27.7871 8.66142,31.1204 9,34.5C 10.1545,35.7433 11.4878,36.7433 13,37.5C 16.7713,45.8228 21.1046,53.8228 26,61.5C 26.8075,65.9419 28.3075,70.1086 30.5,74C 35.2935,79.7417 38.9601,86.2417 41.5,93.5C 41.0431,94.2975 40.3764,94.6309 39.5,94.5C 35.827,92.9998 32.4937,90.9998 29.5,88.5C 30.4972,88.5299 31.1639,88.0299 31.5,87C 29.4089,81.3613 26.5755,76.1946 23,71.5C 19.1972,61.8958 14.8639,52.5625 10,43.5C 8.98873,42.6634 7.82207,42.33 6.5,42.5C 6.17711,36.31 6.51045,30.31 7.5,24.5 Z"/></g>
<g><path style="opacity:1" fill="#fd3c58" d="M 14.5,19.5 C 14.838,21.854 15.338,24.1873 16,26.5C 17.9552,27.4533 19.6218,28.7866 21,30.5C 23.0829,34.5694 24.4163,38.5694 25,42.5C 29.2779,46.9146 31.4446,52.2479 31.5,58.5C 33.7224,58.178 35.5557,58.8446 37,60.5C 38.7284,66.9626 41.7284,72.6293 46,77.5C 46.3106,81.0899 47.144,84.4233 48.5,87.5C 48.5,91.5 48.5,95.5 48.5,99.5C 47.8333,99.5 47.1667,99.5 46.5,99.5C 45.4097,98.1429 44.0764,97.1429 42.5,96.5C 47.0685,96.9174 48.5685,94.9174 47,90.5C 45.8231,88.8243 44.3231,87.4909 42.5,86.5C 40.8244,78.8131 37.3244,72.1464 32,66.5C 30.1805,59.8111 27.1805,53.8111 23,48.5C 19.5643,42.2037 16.8976,35.537 15,28.5C 12.4958,26.826 10.9958,24.4926 10.5,21.5C 11.5137,20.3263 12.847,19.6596 14.5,19.5 Z"/></g>
<g><path style="opacity:0.718" fill="#df7c48" d="M 7.5,23.5 C 7.5,23.8333 7.5,24.1667 7.5,24.5C 6.51045,30.31 6.17711,36.31 6.5,42.5C 6.5,45.8333 6.5,49.1667 6.5,52.5C 6.5,54.1667 6.5,55.8333 6.5,57.5C 6.5,63.5 6.5,69.5 6.5,75.5C 5.83356,67.0066 5.50022,58.3399 5.5,49.5C 5.50186,40.4733 6.16853,31.8066 7.5,23.5 Z"/></g>
<g><path style="opacity:1" fill="#fb821e" d="M 6.5,57.5 C 8.74465,60.7536 10.2446,64.4202 11,68.5C 15.6161,71.6142 17.7828,75.9475 17.5,81.5C 13.3126,80.2437 9.64592,78.2437 6.5,75.5C 6.5,69.5 6.5,63.5 6.5,57.5 Z"/></g>
<g><path style="opacity:1" fill="#fd7525" d="M 25.5,86.5 C 22.2988,85.6214 19.6322,83.9547 17.5,81.5C 17.7828,75.9475 15.6161,71.6142 11,68.5C 10.2446,64.4202 8.74465,60.7536 6.5,57.5C 6.5,55.8333 6.5,54.1667 6.5,52.5C 7.22158,52.0825 7.72158,51.4158 8,50.5C 8.33333,50.8333 8.66667,51.1667 9,51.5C 14.971,61.7636 19.971,72.4302 24,83.5C 24.8333,84.3333 25.6667,85.1667 26.5,86C 26.2716,86.3988 25.9382,86.5654 25.5,86.5 Z"/></g>
<g><path style="opacity:1" fill="#f1f1f2" d="M 75.5,66.5 C 76.7251,67.1522 77.3917,68.3189 77.5,70C 77.3333,71.1667 77.1667,72.3333 77,73.5C 71.2481,76.9598 65.4147,80.2931 59.5,83.5C 58.3526,81.2351 58.1859,78.9018 59,76.5C 64.6468,73.2666 70.1468,69.9333 75.5,66.5 Z"/></g>
<g><path style="opacity:1" fill="#fd4c4a" d="M 10.5,21.5 C 10.9958,24.4926 12.4958,26.826 15,28.5C 16.8976,35.537 19.5643,42.2037 23,48.5C 27.1805,53.8111 30.1805,59.8111 32,66.5C 37.3244,72.1464 40.8244,78.8131 42.5,86.5C 44.3231,87.4909 45.8231,88.8243 47,90.5C 48.5685,94.9174 47.0685,96.9174 42.5,96.5C 41.2905,96.0679 40.2905,95.4013 39.5,94.5C 40.3764,94.6309 41.0431,94.2975 41.5,93.5C 38.9601,86.2417 35.2935,79.7417 30.5,74C 28.3075,70.1086 26.8075,65.9419 26,61.5C 21.1046,53.8228 16.7713,45.8228 13,37.5C 11.4878,36.7433 10.1545,35.7433 9,34.5C 8.66142,31.1204 8.16142,27.7871 7.5,24.5C 7.5,24.1667 7.5,23.8333 7.5,23.5C 7.97306,22.0937 8.97306,21.427 10.5,21.5 Z"/></g>
<g><path style="opacity:1" fill="#cd446d" d="M 52.5,46.5 C 52.5,46.8333 52.5,47.1667 52.5,47.5C 51.5416,47.9528 50.7083,48.6195 50,49.5C 49.5001,66.1633 49.3334,82.83 49.5,99.5C 49.1667,99.5 48.8333,99.5 48.5,99.5C 48.5,95.5 48.5,91.5 48.5,87.5C 48.5,81.8333 48.5,76.1667 48.5,70.5C 48.5,64.5 48.5,58.5 48.5,52.5C 48.5,50.8333 48.5,49.1667 48.5,47.5C 49.8333,47.1667 51.1667,46.8333 52.5,46.5 Z"/></g>
</svg>
