<?xml version="1.0" encoding="UTF-8"?>
<!DOCTYPE svg PUBLIC "-//W3C//DTD SVG 1.1//EN" "http://www.w3.org/Graphics/SVG/1.1/DTD/svg11.dtd">
<svg xmlns="http://www.w3.org/2000/svg" version="1.1" width="100px" height="100px" style="shape-rendering:geometricPrecision; text-rendering:geometricPrecision; image-rendering:optimizeQuality; fill-rule:evenodd; clip-rule:evenodd" xmlns:xlink="http://www.w3.org/1999/xlink">
<g><path style="opacity:0.959" fill="#e1f0fc" d="M 97.5,9.5 C 92.2739,11.4318 86.9406,13.4318 81.5,15.5C 68.5067,12.414 55.84,9.41401 43.5,6.5C 48.8119,3.34448 54.6452,1.67782 61,1.5C 73.2786,3.77878 85.4453,6.44545 97.5,9.5 Z"/></g>
<g><path style="opacity:1" fill="#e0f1fd" d="M 41.5,6.5 C 52.8485,9.54662 64.5152,13.0466 76.5,17C 70.899,20.0739 64.899,22.2406 58.5,23.5C 53.5334,22.1743 48.5334,21.1743 43.5,20.5C 35.7197,19.6038 28.053,18.6038 20.5,17.5C 20.178,15.2776 20.8446,13.4443 22.5,12C 28.8408,10.1612 35.1741,8.32788 41.5,6.5 Z"/></g>
<g><path style="opacity:1" fill="#cedfee" d="M 41.5,6.5 C 42.1667,6.5 42.8333,6.5 43.5,6.5C 55.84,9.41401 68.5067,12.414 81.5,15.5C 86.9406,13.4318 92.2739,11.4318 97.5,9.5C 98.1667,9.5 98.8333,9.5 99.5,9.5C 99.5,10.5 99.5,11.5 99.5,12.5C 96.8127,12.3359 94.146,12.5026 91.5,13C 88.3964,15.5438 84.8964,17.3771 81,18.5C 80.1268,18.2645 79.2935,17.9312 78.5,17.5C 76.0501,19.5029 73.7167,21.5029 71.5,23.5C 71.1667,23.5 70.8333,23.5 70.5,23.5C 60.9138,26.6987 51.9138,25.6987 43.5,20.5C 48.5334,21.1743 53.5334,22.1743 58.5,23.5C 64.899,22.2406 70.899,20.0739 76.5,17C 64.5152,13.0466 52.8485,9.54662 41.5,6.5 Z"/></g>
<g><path style="opacity:1" fill="#b7c8e9" d="M 99.5,12.5 C 99.5,12.8333 99.5,13.1667 99.5,13.5C 90.3122,15.7226 81.6455,19.0559 73.5,23.5C 72.8333,23.5 72.1667,23.5 71.5,23.5C 73.7167,21.5029 76.0501,19.5029 78.5,17.5C 79.2935,17.9312 80.1268,18.2645 81,18.5C 84.8964,17.3771 88.3964,15.5438 91.5,13C 94.146,12.5026 96.8127,12.3359 99.5,12.5 Z"/></g>
<g><path style="opacity:0.065" fill="#7888e0" d="M 20.5,18.5 C 24.1595,18.1588 27.4928,18.8255 30.5,20.5C 27.8333,20.1667 25.1667,19.8333 22.5,19.5C 22.5,21.8333 22.5,24.1667 22.5,26.5C 26.7051,26.7167 30.7051,27.3833 34.5,28.5C 32.1667,28.5 29.8333,28.5 27.5,28.5C 24.9214,28.6061 22.588,27.9395 20.5,26.5C 20.5,23.8333 20.5,21.1667 20.5,18.5 Z"/></g>
<g><path style="opacity:1" fill="#7c89dc" d="M 99.5,13.5 C 99.5,14.1667 99.5,14.8333 99.5,15.5C 91.0255,18.7342 82.3588,21.4009 73.5,23.5C 81.6455,19.0559 90.3122,15.7226 99.5,13.5 Z"/></g>
<g><path style="opacity:1" fill="#b7c7f4" d="M 20.5,18.5 C 20.5,18.1667 20.5,17.8333 20.5,17.5C 28.053,18.6038 35.7197,19.6038 43.5,20.5C 51.9138,25.6987 60.9138,26.6987 70.5,23.5C 67.3843,25.9867 63.7176,27.32 59.5,27.5C 49.8474,25.0587 40.1807,22.7254 30.5,20.5C 27.4928,18.8255 24.1595,18.1588 20.5,18.5 Z"/></g>
<g><path style="opacity:1" fill="#7383f7" d="M 99.5,15.5 C 99.5,17.5 99.5,19.5 99.5,21.5C 98.1362,15.1426 96.9696,15.1426 96,21.5C 95.6667,21.1667 95.3333,20.8333 95,20.5C 92.2754,23.3832 89.442,23.7166 86.5,21.5C 82.6468,23.1056 78.6468,24.2722 74.5,25C 75.4231,27.0408 75.7564,29.2075 75.5,31.5C 70.3909,31.5698 65.3909,30.9031 60.5,29.5C 55.6437,28.8393 51.3104,29.8393 47.5,32.5C 43.1782,31.1708 38.8449,29.8375 34.5,28.5C 30.7051,27.3833 26.7051,26.7167 22.5,26.5C 22.5,24.1667 22.5,21.8333 22.5,19.5C 25.1667,19.8333 27.8333,20.1667 30.5,20.5C 40.1807,22.7254 49.8474,25.0587 59.5,27.5C 63.7176,27.32 67.3843,25.9867 70.5,23.5C 70.8333,23.5 71.1667,23.5 71.5,23.5C 72.1667,23.5 72.8333,23.5 73.5,23.5C 82.3588,21.4009 91.0255,18.7342 99.5,15.5 Z"/></g>
<g><path style="opacity:1" fill="#6d7efc" d="M 99.5,21.5 C 99.5,24.8333 99.5,28.1667 99.5,31.5C 97.8762,31.3601 96.7096,32.0267 96,33.5C 93.2602,32.7039 90.4269,32.7039 87.5,33.5C 84.6292,33.8853 82.4626,32.8853 81,30.5C 75.7773,31.9208 70.6106,33.5874 65.5,35.5C 62.715,34.3857 61.0483,32.3857 60.5,29.5C 65.3909,30.9031 70.3909,31.5698 75.5,31.5C 75.7564,29.2075 75.4231,27.0408 74.5,25C 78.6468,24.2722 82.6468,23.1056 86.5,21.5C 89.442,23.7166 92.2754,23.3832 95,20.5C 95.3333,20.8333 95.6667,21.1667 96,21.5C 96.9696,15.1426 98.1362,15.1426 99.5,21.5 Z"/></g>
<g><path style="opacity:1" fill="#d8e2c5" d="M 20.5,26.5 C 22.588,27.9395 24.9214,28.6061 27.5,28.5C 27.5,28.8333 27.5,29.1667 27.5,29.5C 23.8455,29.0578 20.1788,28.7244 16.5,28.5C 17.6715,27.6554 19.0048,26.9887 20.5,26.5 Z"/></g>
<g><path style="opacity:1" fill="#6e7ab8" d="M 27.5,29.5 C 27.5,29.1667 27.5,28.8333 27.5,28.5C 29.8333,28.5 32.1667,28.5 34.5,28.5C 38.8449,29.8375 43.1782,31.1708 47.5,32.5C 48.5,33.1667 49.5,33.8333 50.5,34.5C 49.5,34.5 48.5,34.5 47.5,34.5C 42.4039,32.3154 37.0706,30.9821 31.5,30.5C 30.4324,29.5655 29.099,29.2322 27.5,29.5 Z"/></g>
<g><path style="opacity:1" fill="#f9fc98" d="M 16.5,28.5 C 20.1788,28.7244 23.8455,29.0578 27.5,29.5C 29.099,29.2322 30.4324,29.5655 31.5,30.5C 34.365,31.6198 37.0316,32.9531 39.5,34.5C 32.3864,33.2217 25.553,33.2217 19,34.5C 14.6178,32.9899 10.1178,32.3232 5.5,32.5C 8.90226,30.7225 12.5689,29.3891 16.5,28.5 Z"/></g>
<g><path style="opacity:1" fill="#e2e6bc" d="M 31.5,30.5 C 37.0706,30.9821 42.4039,32.3154 47.5,34.5C 48.5,35.1667 49.5,35.8333 50.5,36.5C 46.7674,36.13 43.1007,35.4633 39.5,34.5C 37.0316,32.9531 34.365,31.6198 31.5,30.5 Z"/></g>
<g><path style="opacity:1" fill="#6573f8" d="M 60.5,29.5 C 61.0483,32.3857 62.715,34.3857 65.5,35.5C 70.6106,33.5874 75.7773,31.9208 81,30.5C 82.4626,32.8853 84.6292,33.8853 87.5,33.5C 90.4269,32.7039 93.2602,32.7039 96,33.5C 96.7096,32.0267 97.8762,31.3601 99.5,31.5C 99.5,35.8333 99.5,40.1667 99.5,44.5C 99.1667,44.5 98.8333,44.5 98.5,44.5C 98.1874,40.1874 95.8541,37.854 91.5,37.5C 88.8016,38.1914 86.135,38.8581 83.5,39.5C 83.5391,37.6412 82.7058,36.3079 81,35.5C 80.6667,36.1667 80.3333,36.8333 80,37.5C 79.6667,36.1667 79.3333,34.8333 79,33.5C 78.5034,35.8098 78.3367,38.1432 78.5,40.5C 73.4395,41.1968 68.4395,42.1968 63.5,43.5C 63.1609,48.1967 62.4942,52.8634 61.5,57.5C 61.8333,59.5 62.1667,61.5 62.5,63.5C 64.0754,62.5435 65.742,61.8769 67.5,61.5C 67.1667,62.1667 66.8333,62.8333 66.5,63.5C 64.8333,64.1667 63.1667,64.8333 61.5,65.5C 60.6943,56.5773 60.1943,47.5773 60,38.5C 59.1841,37.1772 58.0174,36.5106 56.5,36.5C 54.4214,36.0293 52.4214,35.3627 50.5,34.5C 49.5,33.8333 48.5,33.1667 47.5,32.5C 51.3104,29.8393 55.6437,28.8393 60.5,29.5 Z"/></g>
<g><path style="opacity:1" fill="#7b82a0" d="M 47.5,34.5 C 48.5,34.5 49.5,34.5 50.5,34.5C 52.4214,35.3627 54.4214,36.0293 56.5,36.5C 56.8333,37.1667 57.1667,37.8333 57.5,38.5C 55.1667,37.8333 52.8333,37.1667 50.5,36.5C 49.5,35.8333 48.5,35.1667 47.5,34.5 Z"/></g>
<g><path style="opacity:1" fill="#fafc83" d="M 5.5,32.5 C 10.1178,32.3232 14.6178,32.9899 19,34.5C 25.553,33.2217 32.3864,33.2217 39.5,34.5C 43.1007,35.4633 46.7674,36.13 50.5,36.5C 52.8333,37.1667 55.1667,37.8333 57.5,38.5C 57.7845,40.4147 57.4511,42.0813 56.5,43.5C 56.7373,42.209 56.404,41.209 55.5,40.5C 53.1691,39.6827 50.6691,39.0161 48,38.5C 44.8779,40.3104 41.7112,41.9771 38.5,43.5C 33.5874,41.4852 28.5874,39.8186 23.5,38.5C 18.1153,37.7617 12.782,36.7617 7.5,35.5C 6.83333,35.6667 6.16667,35.8333 5.5,36C 6.7101,37.0391 7.7101,38.2058 8.5,39.5C 6.44183,38.0669 4.1085,37.4003 1.5,37.5C 0.75635,34.0504 2.08968,32.3838 5.5,32.5 Z"/></g>
<g><path style="opacity:1" fill="#fafa66" d="M 55.5,40.5 C 50.3094,43.0159 45.1427,45.3492 40,47.5C 32.1756,45.086 24.3423,43.086 16.5,41.5C 14.2278,40.6814 11.8945,40.0147 9.5,39.5C 9.16667,39.5 8.83333,39.5 8.5,39.5C 7.7101,38.2058 6.7101,37.0391 5.5,36C 6.16667,35.8333 6.83333,35.6667 7.5,35.5C 12.782,36.7617 18.1153,37.7617 23.5,38.5C 28.5874,39.8186 33.5874,41.4852 38.5,43.5C 41.7112,41.9771 44.8779,40.3104 48,38.5C 50.6691,39.0161 53.1691,39.6827 55.5,40.5 Z"/></g>
<g><path style="opacity:1" fill="#d5c872" d="M 9.5,39.5 C 11.8945,40.0147 14.2278,40.6814 16.5,41.5C 19.0783,41.9805 21.4116,42.9805 23.5,44.5C 22.8333,44.5 22.1667,44.5 21.5,44.5C 19.7354,43.5386 17.7354,43.2053 15.5,43.5C 14.3646,41.7868 12.698,41.1201 10.5,41.5C 10.1667,40.8333 9.83333,40.1667 9.5,39.5 Z"/></g>
<g><path style="opacity:1" fill="#5a67fa" d="M 98.5,44.5 C 98.5,45.1667 98.5,45.8333 98.5,46.5C 97.1266,46.3433 95.7932,46.51 94.5,47C 92.2116,50.2953 89.7116,50.7953 87,48.5C 86.5785,51.0199 85.4119,53.0199 83.5,54.5C 82.8333,55.1667 82.1667,55.8333 81.5,56.5C 77.0068,58.554 72.3401,60.2207 67.5,61.5C 65.742,61.8769 64.0754,62.5435 62.5,63.5C 62.1667,61.5 61.8333,59.5 61.5,57.5C 62.4942,52.8634 63.1609,48.1967 63.5,43.5C 68.4395,42.1968 73.4395,41.1968 78.5,40.5C 78.3367,38.1432 78.5034,35.8098 79,33.5C 79.3333,34.8333 79.6667,36.1667 80,37.5C 80.3333,36.8333 80.6667,36.1667 81,35.5C 82.7058,36.3079 83.5391,37.6412 83.5,39.5C 86.135,38.8581 88.8016,38.1914 91.5,37.5C 95.8541,37.854 98.1874,40.1874 98.5,44.5 Z"/></g>
<g><path style="opacity:1" fill="#b1a8a3" d="M 10.5,41.5 C 12.698,41.1201 14.3646,41.7868 15.5,43.5C 15.821,44.8175 16.1543,46.1508 16.5,47.5C 15.1338,49.3703 13.9672,51.3703 13,53.5C 12.6667,52.5 12.3333,51.5 12,50.5C 10.2458,52.25 8.07917,52.9167 5.5,52.5C 4.09238,51.0892 3.09238,49.4225 2.5,47.5C 3.22336,45.2178 3.55669,42.8845 3.5,40.5C 5.90291,40.448 8.23625,40.7814 10.5,41.5 Z"/></g>
<g><path style="opacity:1" fill="#ead462" d="M 55.5,40.5 C 56.404,41.209 56.7373,42.209 56.5,43.5C 55.1667,44.1667 53.8333,44.8333 52.5,45.5C 51.7321,46.2625 51.2321,47.2625 51,48.5C 50.0764,46.5049 48.9097,46.1716 47.5,47.5C 45.847,47.6596 44.5137,48.3263 43.5,49.5C 42.2521,50.3339 41.5854,51.6672 41.5,53.5C 40.8362,57.476 40.5029,61.476 40.5,65.5C 39.7784,65.0825 39.2784,64.4158 39,63.5C 35.2564,64.626 31.423,64.7927 27.5,64C 23.6352,62.5233 19.6352,61.3566 15.5,60.5C 15.5,60.1667 15.5,59.8333 15.5,59.5C 16.1667,59.5 16.8333,59.5 17.5,59.5C 24.0323,61.4731 30.699,62.8065 37.5,63.5C 37.7509,58.4932 38.0843,53.4932 38.5,48.5C 36.7839,48.3713 35.1172,48.038 33.5,47.5C 29.7934,47.3956 26.46,46.3956 23.5,44.5C 21.4116,42.9805 19.0783,41.9805 16.5,41.5C 24.3423,43.086 32.1756,45.086 40,47.5C 45.1427,45.3492 50.3094,43.0159 55.5,40.5 Z"/></g>
<g><path style="opacity:1" fill="#6972e3" d="M 98.5,46.5 C 98.5,47.1667 98.5,47.8333 98.5,48.5C 93.6534,50.7521 88.6534,52.7521 83.5,54.5C 85.4119,53.0199 86.5785,51.0199 87,48.5C 89.7116,50.7953 92.2116,50.2953 94.5,47C 95.7932,46.51 97.1266,46.3433 98.5,46.5 Z"/></g>
<g><path style="opacity:1" fill="#bdb08d" d="M 1.5,37.5 C 4.1085,37.4003 6.44183,38.0669 8.5,39.5C 8.83333,39.5 9.16667,39.5 9.5,39.5C 9.83333,40.1667 10.1667,40.8333 10.5,41.5C 8.23625,40.7814 5.90291,40.448 3.5,40.5C 3.55669,42.8845 3.22336,45.2178 2.5,47.5C 3.09238,49.4225 4.09238,51.0892 5.5,52.5C 3.14166,52.7475 1.14166,52.0808 -0.5,50.5C -0.5,49.5 -0.5,48.5 -0.5,47.5C 0.580751,44.3733 1.24742,41.0399 1.5,37.5 Z"/></g>
<g><path style="opacity:1" fill="#978a76" d="M 21.5,44.5 C 22.1667,44.5 22.8333,44.5 23.5,44.5C 26.46,46.3956 29.7934,47.3956 33.5,47.5C 35.0622,48.7847 36.3955,50.2847 37.5,52C 36.6521,54.7695 36.3187,57.6029 36.5,60.5C 30.0133,60.8485 23.6799,60.1818 17.5,58.5C 14.5274,57.0134 11.5274,55.6801 8.5,54.5C 12.7232,54.7872 16.8899,55.4538 21,56.5C 23.24,55.9638 25.0734,54.7971 26.5,53C 24.9133,50.0118 23.2466,47.1785 21.5,44.5 Z"/></g>
<g><path style="opacity:1" fill="#4d4c8d" d="M 56.5,36.5 C 58.0174,36.5106 59.1841,37.1772 60,38.5C 60.1943,47.5773 60.6943,56.5773 61.5,65.5C 60.8333,65.5 60.1667,65.5 59.5,65.5C 59.5,64.8333 59.1667,64.5 58.5,64.5C 58.8264,55.6506 58.493,46.9839 57.5,38.5C 57.1667,37.8333 56.8333,37.1667 56.5,36.5 Z"/></g>
<g><path style="opacity:1" fill="#9d835c" d="M 47.5,47.5 C 49.3878,49.9878 50.0545,52.9878 49.5,56.5C 48.8333,56.8333 48.1667,57.1667 47.5,57.5C 45.9458,58.9142 44.6125,60.5808 43.5,62.5C 42.8904,59.6987 43.2237,56.8654 44.5,54C 43.8524,52.5603 43.5191,51.0603 43.5,49.5C 44.5137,48.3263 45.847,47.6596 47.5,47.5 Z"/></g>
<g><path style="opacity:1" fill="#b4996e" d="M 57.5,38.5 C 58.493,46.9839 58.8264,55.6506 58.5,64.5C 58.1667,64.5 57.8333,64.5 57.5,64.5C 57.5,64.1667 57.5,63.8333 57.5,63.5C 57.6653,59.8183 57.4986,56.1516 57,52.5C 55.6439,53.3802 54.1439,53.7135 52.5,53.5C 52.5,50.8333 52.5,48.1667 52.5,45.5C 53.8333,44.8333 55.1667,44.1667 56.5,43.5C 57.4511,42.0813 57.7845,40.4147 57.5,38.5 Z"/></g>
<g><path style="opacity:1" fill="#e4d27c" d="M -0.5,50.5 C 1.14166,52.0808 3.14166,52.7475 5.5,52.5C 5.97306,53.9063 6.97306,54.573 8.5,54.5C 11.5274,55.6801 14.5274,57.0134 17.5,58.5C 17.5,58.8333 17.5,59.1667 17.5,59.5C 16.8333,59.5 16.1667,59.5 15.5,59.5C 10.5916,56.6426 5.25822,54.9759 -0.5,54.5C -0.5,53.1667 -0.5,51.8333 -0.5,50.5 Z"/></g>
<g><path style="opacity:1" fill="#9e9487" d="M 15.5,43.5 C 17.7354,43.2053 19.7354,43.5386 21.5,44.5C 23.2466,47.1785 24.9133,50.0118 26.5,53C 25.0734,54.7971 23.24,55.9638 21,56.5C 16.8899,55.4538 12.7232,54.7872 8.5,54.5C 6.97306,54.573 5.97306,53.9063 5.5,52.5C 8.07917,52.9167 10.2458,52.25 12,50.5C 12.3333,51.5 12.6667,52.5 13,53.5C 13.9672,51.3703 15.1338,49.3703 16.5,47.5C 16.1543,46.1508 15.821,44.8175 15.5,43.5 Z"/></g>
<g><path style="opacity:0.592" fill="#54555f" d="M 93.5,53.5 C 94.5676,52.5655 95.901,52.2322 97.5,52.5C 97.6621,54.5273 97.4955,56.5273 97,58.5C 96.6174,59.056 96.1174,59.3893 95.5,59.5C 95.9746,56.9179 95.3079,54.9179 93.5,53.5 Z"/></g>
<g><path style="opacity:1" fill="#e9c560" d="M 52.5,45.5 C 52.5,48.1667 52.5,50.8333 52.5,53.5C 54.1439,53.7135 55.6439,53.3802 57,52.5C 57.4986,56.1516 57.6653,59.8183 57.5,63.5C 56.8826,63.3893 56.3826,63.056 56,62.5C 55.5045,60.5273 55.3379,58.5273 55.5,56.5C 53.5,56.5 51.5,56.5 49.5,56.5C 50.0545,52.9878 49.3878,49.9878 47.5,47.5C 48.9097,46.1716 50.0764,46.5049 51,48.5C 51.2321,47.2625 51.7321,46.2625 52.5,45.5 Z"/></g>
<g><path style="opacity:1" fill="#b2bedf" d="M 98.5,48.5 C 98.5674,49.9587 98.2341,51.2921 97.5,52.5C 95.901,52.2322 94.5676,52.5655 93.5,53.5C 87.1857,56.1308 80.8524,58.7974 74.5,61.5C 76.7331,59.6519 79.0664,57.9852 81.5,56.5C 82.1667,55.8333 82.8333,55.1667 83.5,54.5C 88.6534,52.7521 93.6534,50.7521 98.5,48.5 Z"/></g>
<g><path style="opacity:1" fill="#f1c759" d="M -0.5,54.5 C 5.25822,54.9759 10.5916,56.6426 15.5,59.5C 15.5,59.8333 15.5,60.1667 15.5,60.5C 15.4701,61.4972 15.9701,62.1639 17,62.5C 19.5411,63.007 22.0411,63.6737 24.5,64.5C 24.8627,65.1835 25.1961,65.8501 25.5,66.5C 18.8775,65.2919 12.5442,63.2919 6.5,60.5C 4.81208,58.6133 2.81208,57.4466 0.5,57C 3.28963,59.2103 4.12297,62.0437 3,65.5C 2.2917,64.6195 1.45837,63.9528 0.5,63.5C 0.166667,63.5 -0.166667,63.5 -0.5,63.5C -0.5,60.5 -0.5,57.5 -0.5,54.5 Z"/></g>
<g><path style="opacity:1" fill="#a8b4f8" d="M 81.5,56.5 C 79.0664,57.9852 76.7331,59.6519 74.5,61.5C 71.779,61.9628 69.1123,62.6295 66.5,63.5C 66.8333,62.8333 67.1667,62.1667 67.5,61.5C 72.3401,60.2207 77.0068,58.554 81.5,56.5 Z"/></g>
<g><path style="opacity:1" fill="#a7975d" d="M 33.5,47.5 C 35.1172,48.038 36.7839,48.3713 38.5,48.5C 38.0843,53.4932 37.7509,58.4932 37.5,63.5C 30.699,62.8065 24.0323,61.4731 17.5,59.5C 17.5,59.1667 17.5,58.8333 17.5,58.5C 23.6799,60.1818 30.0133,60.8485 36.5,60.5C 36.3187,57.6029 36.6521,54.7695 37.5,52C 36.3955,50.2847 35.0622,48.7847 33.5,47.5 Z"/></g>
<g><path style="opacity:1" fill="#a0874d" d="M 43.5,49.5 C 43.5191,51.0603 43.8524,52.5603 44.5,54C 43.2237,56.8654 42.8904,59.6987 43.5,62.5C 44.6125,60.5808 45.9458,58.9142 47.5,57.5C 47.4515,62.3077 45.1182,64.9744 40.5,65.5C 40.5029,61.476 40.8362,57.476 41.5,53.5C 41.5854,51.6672 42.2521,50.3339 43.5,49.5 Z"/></g>
<g><path style="opacity:1" fill="#62410a" d="M 6.5,60.5 C 12.5442,63.2919 18.8775,65.2919 25.5,66.5C 25.8417,67.3382 26.5084,67.6716 27.5,67.5C 27.5,67.8333 27.5,68.1667 27.5,68.5C 27.5,69.1667 27.1667,69.5 26.5,69.5C 19.55,67.9612 12.8833,65.6279 6.5,62.5C 5.16667,61.8333 5.16667,61.1667 6.5,60.5 Z"/></g>
<g><path style="opacity:1" fill="#b6bad9" d="M 74.5,61.5 C 70.4194,64.8737 65.7528,67.207 60.5,68.5C 60.4431,67.391 60.1098,66.391 59.5,65.5C 60.1667,65.5 60.8333,65.5 61.5,65.5C 63.1667,64.8333 64.8333,64.1667 66.5,63.5C 69.1123,62.6295 71.779,61.9628 74.5,61.5 Z"/></g>
<g><path style="opacity:1" fill="#b39051" d="M 6.5,62.5 C 12.8833,65.6279 19.55,67.9612 26.5,69.5C 26.7373,70.791 26.404,71.791 25.5,72.5C 19.1158,69.7002 12.7825,66.7002 6.5,63.5C 6.5,63.1667 6.5,62.8333 6.5,62.5 Z"/></g>
<g><path style="opacity:1" fill="#f4c843" d="M 49.5,56.5 C 51.5,56.5 53.5,56.5 55.5,56.5C 55.3379,58.5273 55.5045,60.5273 56,62.5C 56.3826,63.056 56.8826,63.3893 57.5,63.5C 57.5,63.8333 57.5,64.1667 57.5,64.5C 53.2121,66.3116 49.2121,68.6449 45.5,71.5C 45.4606,70.4168 45.1272,69.4168 44.5,68.5C 38.8722,67.5046 33.2055,67.1712 27.5,67.5C 26.5084,67.6716 25.8417,67.3382 25.5,66.5C 25.1961,65.8501 24.8627,65.1835 24.5,64.5C 22.0411,63.6737 19.5411,63.007 17,62.5C 15.9701,62.1639 15.4701,61.4972 15.5,60.5C 19.6352,61.3566 23.6352,62.5233 27.5,64C 31.423,64.7927 35.2564,64.626 39,63.5C 39.2784,64.4158 39.7784,65.0825 40.5,65.5C 45.1182,64.9744 47.4515,62.3077 47.5,57.5C 48.1667,57.1667 48.8333,56.8333 49.5,56.5 Z"/></g>
<g><path style="opacity:1" fill="#474a52" d="M 93.5,53.5 C 95.3079,54.9179 95.9746,56.9179 95.5,59.5C 95.0045,60.8602 95.0045,62.5268 95.5,64.5C 94.6637,67.5775 93.6637,70.5775 92.5,73.5C 89.9723,74.0229 87.639,75.0229 85.5,76.5C 82.8679,76.3512 80.8679,75.1845 79.5,73C 77.5273,72.5045 75.5273,72.3379 73.5,72.5C 74.7142,71.3744 75.7142,70.0411 76.5,68.5C 76.5658,66.7336 75.7324,65.7336 74,65.5C 70.2339,67.2992 66.4006,68.9658 62.5,70.5C 61.8333,70.5 61.1667,70.5 60.5,70.5C 60.5,69.8333 60.5,69.1667 60.5,68.5C 65.7528,67.207 70.4194,64.8737 74.5,61.5C 80.8524,58.7974 87.1857,56.1308 93.5,53.5 Z"/></g>
<g><path style="opacity:1" fill="#fde147" d="M 57.5,64.5 C 57.8333,64.5 58.1667,64.5 58.5,64.5C 58.5,66.1667 58.5,67.8333 58.5,69.5C 55.1027,70.6962 51.7694,72.1962 48.5,74C 47.536,75.7255 46.8693,77.5588 46.5,79.5C 45.5,79.5 44.5,79.5 43.5,79.5C 43.5,78.1667 43.5,76.8333 43.5,75.5C 43.5,75.1667 43.5,74.8333 43.5,74.5C 44.9063,74.0269 45.573,73.0269 45.5,71.5C 49.2121,68.6449 53.2121,66.3116 57.5,64.5 Z"/></g>
<g><path style="opacity:1" fill="#b0a46e" d="M 0.5,67.5 C 1.5,67.5 2.5,67.5 3.5,67.5C 3.33003,68.8221 3.66337,69.9887 4.5,71C 2.80666,71.484 1.47332,70.984 0.5,69.5C 0.5,68.8333 0.5,68.1667 0.5,67.5 Z"/></g>
<g><path style="opacity:1" fill="#67450c" d="M 6.5,63.5 C 12.7825,66.7002 19.1158,69.7002 25.5,72.5C 19.3388,71.4198 13.3388,69.7531 7.5,67.5C 6.85917,66.5178 6.19251,65.5178 5.5,64.5C 5.62358,63.8933 5.95691,63.56 6.5,63.5 Z"/></g>
<g><path style="opacity:1" fill="#e1c055" d="M 58.5,64.5 C 59.1667,64.5 59.5,64.8333 59.5,65.5C 60.1098,66.391 60.4431,67.391 60.5,68.5C 60.5,69.1667 60.5,69.8333 60.5,70.5C 58.597,70.7959 56.9303,71.4625 55.5,72.5C 53.7697,73.0256 52.4363,74.0256 51.5,75.5C 49.4265,76.2995 47.7598,77.6329 46.5,79.5C 46.8693,77.5588 47.536,75.7255 48.5,74C 51.7694,72.1962 55.1027,70.6962 58.5,69.5C 58.5,67.8333 58.5,66.1667 58.5,64.5 Z"/></g>
<g><path style="opacity:1" fill="#be9d58" d="M 7.5,67.5 C 13.3388,69.7531 19.3388,71.4198 25.5,72.5C 24.8333,73.1667 24.1667,73.8333 23.5,74.5C 18.8445,72.8407 14.1778,71.174 9.5,69.5C 8.89333,69.6236 8.55999,69.9569 8.5,70.5C 7.59603,69.791 7.26269,68.791 7.5,67.5 Z"/></g>
<g><path style="opacity:1" fill="#bfc3cc" d="M 73.5,72.5 C 72.2905,72.9321 71.2905,73.5987 70.5,74.5C 69.209,74.2627 68.209,74.596 67.5,75.5C 63.124,77.1308 61.4573,75.4641 62.5,70.5C 66.4006,68.9658 70.2339,67.2992 74,65.5C 75.7324,65.7336 76.5658,66.7336 76.5,68.5C 75.7142,70.0411 74.7142,71.3744 73.5,72.5 Z"/></g>
<g><path style="opacity:1" fill="#8e9197" d="M 89.5,65.5 C 91.0635,68.4454 90.5635,71.112 88,73.5C 87.5,73 87,72.5 86.5,72C 88.1712,70.1575 89.1712,67.9908 89.5,65.5 Z"/></g>
<g><path style="opacity:1" fill="#333120" d="M 55.5,72.5 C 57.099,72.2322 58.4324,72.5655 59.5,73.5C 59.1667,74.5 58.5,75.1667 57.5,75.5C 55.6531,74.4271 53.6531,74.4271 51.5,75.5C 52.4363,74.0256 53.7697,73.0256 55.5,72.5 Z"/></g>
<g><path style="opacity:1" fill="#ddaa3e" d="M 6.5,60.5 C 5.16667,61.1667 5.16667,61.8333 6.5,62.5C 6.5,62.8333 6.5,63.1667 6.5,63.5C 5.95691,63.56 5.62358,63.8933 5.5,64.5C 6.19251,65.5178 6.85917,66.5178 7.5,67.5C 7.26269,68.791 7.59603,69.791 8.5,70.5C 13.3287,74.0363 18.662,75.703 24.5,75.5C 24.3764,74.8933 24.0431,74.56 23.5,74.5C 24.1667,73.8333 24.8333,73.1667 25.5,72.5C 26.404,71.791 26.7373,70.791 26.5,69.5C 27.1667,69.5 27.5,69.1667 27.5,68.5C 28.2389,68.369 28.9056,68.5357 29.5,69C 27.771,70.7889 27.1043,72.9556 27.5,75.5C 32.9635,76.9828 38.2968,76.6494 43.5,74.5C 43.5,74.8333 43.5,75.1667 43.5,75.5C 42.0048,75.9887 40.6715,76.6554 39.5,77.5C 35.6095,77.7275 31.7762,77.3942 28,76.5C 26.779,77.2718 25.779,78.2718 25,79.5C 20.8588,77.0062 16.3588,75.8396 11.5,76C 13.7472,77.2775 15.7472,78.7775 17.5,80.5C 16.8333,80.5 16.1667,80.5 15.5,80.5C 12.5155,79.2517 9.68221,77.585 7,75.5C 6.61742,76.056 6.11742,76.3893 5.5,76.5C 4.73261,75.828 4.06594,74.9947 3.5,74C 6.13392,71.7067 6.13392,69.54 3.5,67.5C 2.5,67.5 1.5,67.5 0.5,67.5C 0.5,66.1667 0.5,64.8333 0.5,63.5C 1.45837,63.9528 2.2917,64.6195 3,65.5C 4.12297,62.0437 3.28963,59.2103 0.5,57C 2.81208,57.4466 4.81208,58.6133 6.5,60.5 Z"/></g>
<g><path style="opacity:1" fill="#664608" d="M 23.5,74.5 C 24.0431,74.56 24.3764,74.8933 24.5,75.5C 18.662,75.703 13.3287,74.0363 8.5,70.5C 8.55999,69.9569 8.89333,69.6236 9.5,69.5C 14.1778,71.174 18.8445,72.8407 23.5,74.5 Z"/></g>
<g><path style="opacity:1" fill="#f6c034" d="M 27.5,68.5 C 27.5,68.1667 27.5,67.8333 27.5,67.5C 33.2055,67.1712 38.8722,67.5046 44.5,68.5C 45.1272,69.4168 45.4606,70.4168 45.5,71.5C 45.573,73.0269 44.9063,74.0269 43.5,74.5C 38.2968,76.6494 32.9635,76.9828 27.5,75.5C 27.1043,72.9556 27.771,70.7889 29.5,69C 28.9056,68.5357 28.2389,68.369 27.5,68.5 Z"/></g>
<g><path style="opacity:0.343" fill="#e0ac59" d="M 3.5,67.5 C 6.13392,69.54 6.13392,71.7067 3.5,74C 4.06594,74.9947 4.73261,75.828 5.5,76.5C 5.5,76.8333 5.5,77.1667 5.5,77.5C 5.5,78.1667 5.5,78.8333 5.5,79.5C 1.22472,77.6173 -0.441946,74.284 0.5,69.5C 1.47332,70.984 2.80666,71.484 4.5,71C 3.66337,69.9887 3.33003,68.8221 3.5,67.5 Z"/></g>
<g><path style="opacity:0.996" fill="#616360" d="M 60.5,70.5 C 61.1667,70.5 61.8333,70.5 62.5,70.5C 61.4573,75.4641 63.124,77.1308 67.5,75.5C 66.0351,76.7368 64.3684,77.7368 62.5,78.5C 60.9724,77.1979 59.9724,75.5313 59.5,73.5C 58.4324,72.5655 57.099,72.2322 55.5,72.5C 56.9303,71.4625 58.597,70.7959 60.5,70.5 Z"/></g>
<g><path style="opacity:1" fill="#303034" d="M 73.5,72.5 C 75.5273,72.3379 77.5273,72.5045 79.5,73C 80.8679,75.1845 82.8679,76.3512 85.5,76.5C 87.639,75.0229 89.9723,74.0229 92.5,73.5C 92.5,73.8333 92.5,74.1667 92.5,74.5C 91.1667,75.1667 90.1667,76.1667 89.5,77.5C 88.333,78.8148 86.833,79.4814 85,79.5C 80.1192,77.9288 75.2859,76.2621 70.5,74.5C 71.2905,73.5987 72.2905,72.9321 73.5,72.5 Z"/></g>
<g><path style="opacity:1" fill="#64511d" d="M 51.5,75.5 C 50.2993,77.9095 48.6326,79.9095 46.5,81.5C 46.5,80.8333 46.5,80.1667 46.5,79.5C 47.7598,77.6329 49.4265,76.2995 51.5,75.5 Z"/></g>
<g><path style="opacity:1" fill="#f0c349" d="M 39.5,77.5 C 39.3794,80.1048 38.3794,82.1048 36.5,83.5C 36.7678,81.901 36.4345,80.5676 35.5,79.5C 33.5,79.5 31.5,79.5 29.5,79.5C 28.1667,79.5 27.5,80.1667 27.5,81.5C 26.4324,82.4345 25.099,82.7678 23.5,82.5C 21.5,81.8333 19.5,81.1667 17.5,80.5C 15.7472,78.7775 13.7472,77.2775 11.5,76C 16.3588,75.8396 20.8588,77.0062 25,79.5C 25.779,78.2718 26.779,77.2718 28,76.5C 31.7762,77.3942 35.6095,77.7275 39.5,77.5 Z"/></g>
<g><path style="opacity:0.212" fill="#0b0a0d" d="M 70.5,74.5 C 75.2859,76.2621 80.1192,77.9288 85,79.5C 86.833,79.4814 88.333,78.8148 89.5,77.5C 89.4257,79.4109 88.4257,80.5776 86.5,81C 81.5836,82.1606 76.5836,82.8272 71.5,83C 67.2134,84.8338 62.8801,87.3338 58.5,90.5C 58.3359,87.8127 58.5026,85.146 59,82.5C 60.0113,83.3366 61.1779,83.67 62.5,83.5C 62.5,81.8333 62.5,80.1667 62.5,78.5C 64.3684,77.7368 66.0351,76.7368 67.5,75.5C 68.209,74.596 69.209,74.2627 70.5,74.5 Z"/></g>
<g><path style="opacity:1" fill="#766940" d="M 15.5,80.5 C 11.744,80.4667 8.41068,79.4667 5.5,77.5C 5.5,77.1667 5.5,76.8333 5.5,76.5C 6.11742,76.3893 6.61742,76.056 7,75.5C 9.68221,77.585 12.5155,79.2517 15.5,80.5 Z"/></g>
<g><path style="opacity:1" fill="#383a41" d="M 59.5,73.5 C 59.9724,75.5313 60.9724,77.1979 62.5,78.5C 62.5,80.1667 62.5,81.8333 62.5,83.5C 61.1779,83.67 60.0113,83.3366 59,82.5C 58.5026,85.146 58.3359,87.8127 58.5,90.5C 57.9744,92.2303 56.9744,93.5637 55.5,94.5C 56.1667,92.5 56.8333,90.5 57.5,88.5C 57.5,86.5 57.5,84.5 57.5,82.5C 57.3739,80.8002 56.7073,79.3002 55.5,78C 55.6387,76.699 56.3054,75.8656 57.5,75.5C 58.5,75.1667 59.1667,74.5 59.5,73.5 Z"/></g>
<g><path style="opacity:1" fill="#795f2f" d="M 15.5,80.5 C 16.1667,80.5 16.8333,80.5 17.5,80.5C 19.5,81.1667 21.5,81.8333 23.5,82.5C 23.5,82.8333 23.5,83.1667 23.5,83.5C 20.4582,83.2671 17.7916,82.2671 15.5,80.5 Z"/></g>
<g><path style="opacity:1" fill="#a59e65" d="M 29.5,79.5 C 29.4142,80.4959 29.7476,81.3292 30.5,82C 32.1341,82.4935 33.8008,82.6602 35.5,82.5C 35.5,81.5 35.5,80.5 35.5,79.5C 36.4345,80.5676 36.7678,81.901 36.5,83.5C 33.1625,83.9347 30.1625,83.2681 27.5,81.5C 27.5,80.1667 28.1667,79.5 29.5,79.5 Z"/></g>
<g><path style="opacity:1" fill="#9daf96" d="M 29.5,79.5 C 31.5,79.5 33.5,79.5 35.5,79.5C 35.5,80.5 35.5,81.5 35.5,82.5C 33.8008,82.6602 32.1341,82.4935 30.5,82C 29.7476,81.3292 29.4142,80.4959 29.5,79.5 Z"/></g>
<g><path style="opacity:0.961" fill="#696765" d="M 5.5,77.5 C 8.41068,79.4667 11.744,80.4667 15.5,80.5C 17.7916,82.2671 20.4582,83.2671 23.5,83.5C 24.2341,84.7079 24.5674,86.0413 24.5,87.5C 19.2128,86.6895 14.2128,85.0228 9.5,82.5C 8.83333,82.5 8.16667,82.5 7.5,82.5C 6.83333,81.5 6.16667,80.5 5.5,79.5C 5.5,78.8333 5.5,78.1667 5.5,77.5 Z"/></g>
<g><path style="opacity:1" fill="#f6bf33" d="M 43.5,75.5 C 43.5,76.8333 43.5,78.1667 43.5,79.5C 44.5,79.5 45.5,79.5 46.5,79.5C 46.5,80.1667 46.5,80.8333 46.5,81.5C 44.5905,82.6841 42.9238,84.1841 41.5,86C 37.1706,86.0856 32.8373,85.7522 28.5,85C 31.3647,84.8171 34.0314,84.3171 36.5,83.5C 38.3794,82.1048 39.3794,80.1048 39.5,77.5C 40.6715,76.6554 42.0048,75.9887 43.5,75.5 Z"/></g>
<g><path style="opacity:1" fill="#dca742" d="M 27.5,81.5 C 30.1625,83.2681 33.1625,83.9347 36.5,83.5C 34.0314,84.3171 31.3647,84.8171 28.5,85C 32.8373,85.7522 37.1706,86.0856 41.5,86C 42.9238,84.1841 44.5905,82.6841 46.5,81.5C 46.1667,82.8333 45.8333,84.1667 45.5,85.5C 43.2787,86.6384 41.2787,87.9717 39.5,89.5C 36.2005,90.7475 32.8672,90.7475 29.5,89.5C 27.4238,88.5732 26.2572,86.9065 26,84.5C 25.3292,83.7476 24.4959,83.4142 23.5,83.5C 23.5,83.1667 23.5,82.8333 23.5,82.5C 25.099,82.7678 26.4324,82.4345 27.5,81.5 Z"/></g>
<g><path style="opacity:1" fill="#7e7f83" d="M 57.5,82.5 C 57.5,84.5 57.5,86.5 57.5,88.5C 56.2101,89.0577 55.3768,90.0577 55,91.5C 52.4453,88.2838 51.9453,84.7838 53.5,81C 55.0657,80.7003 56.399,81.2003 57.5,82.5 Z"/></g>
<g><path style="opacity:1" fill="#4a4a4c" d="M 57.5,75.5 C 56.3054,75.8656 55.6387,76.699 55.5,78C 56.7073,79.3002 57.3739,80.8002 57.5,82.5C 56.399,81.2003 55.0657,80.7003 53.5,81C 51.9453,84.7838 52.4453,88.2838 55,91.5C 55.3768,90.0577 56.2101,89.0577 57.5,88.5C 56.8333,90.5 56.1667,92.5 55.5,94.5C 55.5,94.8333 55.5,95.1667 55.5,95.5C 53.8333,95.5 52.1667,95.5 50.5,95.5C 50.762,94.0222 50.4287,92.6888 49.5,91.5C 48.914,91.7093 48.414,92.0426 48,92.5C 47.5204,90.867 46.6871,89.5336 45.5,88.5C 45.5,87.5 45.5,86.5 45.5,85.5C 45.8333,84.1667 46.1667,82.8333 46.5,81.5C 48.6326,79.9095 50.2993,77.9095 51.5,75.5C 53.6531,74.4271 55.6531,74.4271 57.5,75.5 Z"/></g>
<g><path style="opacity:0.152" fill="#070506" d="M 92.5,74.5 C 92.5741,79.929 89.9075,83.0957 84.5,84C 71.6272,83.2599 62.2939,88.4266 56.5,99.5C 45.5,99.5 34.5,99.5 23.5,99.5C 18.0177,98.0533 12.851,95.7199 8,92.5C 5.05328,89.2167 4.88661,85.8834 7.5,82.5C 8.16667,82.5 8.83333,82.5 9.5,82.5C 9.1307,84.4412 8.46403,86.2745 7.5,88C 13.1082,94.338 19.7749,97.338 27.5,97C 26.6433,96.3109 25.9767,95.4776 25.5,94.5C 30.1667,93.8333 34.8333,93.1667 39.5,92.5C 35.5454,92.0089 31.8787,91.0089 28.5,89.5C 28.8333,89.5 29.1667,89.5 29.5,89.5C 32.8672,90.7475 36.2005,90.7475 39.5,89.5C 40.7079,88.7659 42.0413,88.4326 43.5,88.5C 42.7307,94.318 45.2307,97.318 51,97.5C 53.0081,97.6932 54.5081,97.0265 55.5,95.5C 55.5,95.1667 55.5,94.8333 55.5,94.5C 56.9744,93.5637 57.9744,92.2303 58.5,90.5C 62.8801,87.3338 67.2134,84.8338 71.5,83C 76.5836,82.8272 81.5836,82.1606 86.5,81C 88.4257,80.5776 89.4257,79.4109 89.5,77.5C 90.1667,76.1667 91.1667,75.1667 92.5,74.5 Z"/></g>
<g><path style="opacity:1" fill="#333335" d="M 43.5,88.5 C 44.1667,88.5 44.8333,88.5 45.5,88.5C 46.6871,89.5336 47.5204,90.867 48,92.5C 48.414,92.0426 48.914,91.7093 49.5,91.5C 50.4287,92.6888 50.762,94.0222 50.5,95.5C 52.1667,95.5 53.8333,95.5 55.5,95.5C 54.5081,97.0265 53.0081,97.6932 51,97.5C 45.2307,97.318 42.7307,94.318 43.5,88.5 Z"/></g>
<g><path style="opacity:1" fill="#6d4b24" d="M 45.5,85.5 C 45.5,86.5 45.5,87.5 45.5,88.5C 44.8333,88.5 44.1667,88.5 43.5,88.5C 42.0413,88.4326 40.7079,88.7659 39.5,89.5C 41.2787,87.9717 43.2787,86.6384 45.5,85.5 Z"/></g>
<g><path style="opacity:0.226" fill="#090b0b" d="M 9.5,82.5 C 14.2128,85.0228 19.2128,86.6895 24.5,87.5C 25.5137,88.6737 26.847,89.3404 28.5,89.5C 31.8787,91.0089 35.5454,92.0089 39.5,92.5C 34.8333,93.1667 30.1667,93.8333 25.5,94.5C 25.9767,95.4776 26.6433,96.3109 27.5,97C 19.7749,97.338 13.1082,94.338 7.5,88C 8.46403,86.2745 9.1307,84.4412 9.5,82.5 Z"/></g>
<g><path style="opacity:1" fill="#6b5a39" d="M 23.5,83.5 C 24.4959,83.4142 25.3292,83.7476 26,84.5C 26.2572,86.9065 27.4238,88.5732 29.5,89.5C 29.1667,89.5 28.8333,89.5 28.5,89.5C 26.847,89.3404 25.5137,88.6737 24.5,87.5C 24.5674,86.0413 24.2341,84.7079 23.5,83.5 Z"/></g>
</svg>
