<?xml version="1.0" encoding="UTF-8"?>
<!DOCTYPE svg PUBLIC "-//W3C//DTD SVG 1.1//EN" "http://www.w3.org/Graphics/SVG/1.1/DTD/svg11.dtd">
<svg xmlns="http://www.w3.org/2000/svg" version="1.1" width="100px" height="100px" style="shape-rendering:geometricPrecision; text-rendering:geometricPrecision; image-rendering:optimizeQuality; fill-rule:evenodd; clip-rule:evenodd" xmlns:xlink="http://www.w3.org/1999/xlink">
<g><path style="opacity:0.997" fill="#3178c6" d="M 3.5,-0.5 C 34.1667,-0.5 64.8333,-0.5 95.5,-0.5C 96.5,1.16667 97.8333,2.5 99.5,3.5C 99.5,34.1667 99.5,64.8333 99.5,95.5C 97.8333,96.5 96.5,97.8333 95.5,99.5C 64.8333,99.5 34.1667,99.5 3.5,99.5C 2.5,97.8333 1.16667,96.5 -0.5,95.5C -0.5,64.8333 -0.5,34.1667 -0.5,3.5C 1.16667,2.5 2.5,1.16667 3.5,-0.5 Z"/></g>
<g><path style="opacity:1" fill="#3d7aba" d="M 87.5,46.5 C 79.2959,44.5021 71.6293,45.6687 64.5,50C 60.5332,55.8324 60.5332,61.6658 64.5,67.5C 63.1779,67.67 62.0113,67.3366 61,66.5C 60.8265,62.4592 60.3265,58.4592 59.5,54.5C 58.8933,54.6236 58.56,54.9569 58.5,55.5C 58.1667,55.5 57.8333,55.5 57.5,55.5C 57.5,55.1667 57.5,54.8333 57.5,54.5C 57.5,52.1667 57.5,49.8333 57.5,47.5C 46.3456,46.5052 35.0123,46.1719 23.5,46.5C 23.5,45.5 23.5,44.5 23.5,43.5C 35.4771,43.9323 47.4771,44.099 59.5,44C 61.0738,45.8259 61.9071,47.9925 62,50.5C 63.0569,48.7806 63.8903,46.9472 64.5,45C 68.3333,44.8333 72.1667,44.6667 76,44.5C 80.229,44.5102 84.0623,45.1768 87.5,46.5 Z"/></g>
<g><path style="opacity:1" fill="#f8fefe" d="M 57.5,47.5 C 57.5,49.8333 57.5,52.1667 57.5,54.5C 53.1667,54.5 48.8333,54.5 44.5,54.5C 44.5,66.5 44.5,78.5 44.5,90.5C 41.5,90.5 38.5,90.5 35.5,90.5C 35.5,78.5 35.5,66.5 35.5,54.5C 31.5,54.5 27.5,54.5 23.5,54.5C 23.5,52.1667 23.5,49.8333 23.5,47.5C 34.8333,47.5 46.1667,47.5 57.5,47.5 Z"/></g>
<g><path style="opacity:1" fill="#5485b8" d="M 88.5,56.5 C 84.1813,55.7512 79.848,55.5845 75.5,56C 74.1667,57.6667 74.1667,59.3333 75.5,61C 80.8342,62.9061 85.6675,65.7395 90,69.5C 92.9714,73.6135 93.1381,77.6135 90.5,81.5C 90.8368,77.6924 90.3368,74.0257 89,70.5C 84.4487,67.3676 79.6154,64.7009 74.5,62.5C 70.0362,57.4194 71.2029,54.4194 78,53.5C 81.8098,53.8235 85.3098,54.8235 88.5,56.5 Z"/></g>
<g><path style="opacity:1" fill="#92b3d2" d="M 57.5,54.5 C 57.5,54.8333 57.5,55.1667 57.5,55.5C 53.5,55.5 49.5,55.5 45.5,55.5C 45.8283,67.3453 45.4949,79.012 44.5,90.5C 44.5,78.5 44.5,66.5 44.5,54.5C 48.8333,54.5 53.1667,54.5 57.5,54.5 Z"/></g>
<g><path style="opacity:1" fill="#3c75b0" d="M 22.5,47.5 C 22.5,50.1667 22.5,52.8333 22.5,55.5C 26.5,55.5 30.5,55.5 34.5,55.5C 34.5,66.8333 34.5,78.1667 34.5,89.5C 33.325,89.719 32.325,89.3857 31.5,88.5C 33.4447,78.0217 34.1113,67.355 33.5,56.5C 29.5,56.5 25.5,56.5 21.5,56.5C 21.19,53.2869 21.5233,50.2869 22.5,47.5 Z"/></g>
<g><path style="opacity:1" fill="#92b9df" d="M 23.5,46.5 C 35.0123,46.1719 46.3456,46.5052 57.5,47.5C 46.1667,47.5 34.8333,47.5 23.5,47.5C 23.5,49.8333 23.5,52.1667 23.5,54.5C 27.5,54.5 31.5,54.5 35.5,54.5C 35.5,66.5 35.5,78.5 35.5,90.5C 34.8333,90.5 34.5,90.1667 34.5,89.5C 34.5,78.1667 34.5,66.8333 34.5,55.5C 30.5,55.5 26.5,55.5 22.5,55.5C 22.5,52.8333 22.5,50.1667 22.5,47.5C 22.5,46.8333 22.8333,46.5 23.5,46.5 Z"/></g>
<g><path style="opacity:1" fill="#3579c3" d="M 58.5,55.5 C 58.56,54.9569 58.8933,54.6236 59.5,54.5C 60.3265,58.4592 60.8265,62.4592 61,66.5C 62.0113,67.3366 63.1779,67.67 64.5,67.5C 68.9085,70.7017 73.5751,73.3684 78.5,75.5C 78.5,77.1667 78.5,78.8333 78.5,80.5C 73.4615,81.3525 68.4615,81.3525 63.5,80.5C 62.2353,81.5145 61.5687,83.0145 61.5,85C 61.5018,87.5864 62.5018,89.5864 64.5,91C 72.1808,92.2339 79.5142,91.4005 86.5,88.5C 84.6567,92.908 81.3234,94.908 76.5,94.5C 71.8172,93.4954 67.1506,92.4954 62.5,91.5C 61.8333,92.1667 61.1667,92.8333 60.5,93.5C 61.1437,89.0235 59.3104,85.6902 55,83.5C 54.51,82.2068 54.3433,80.8734 54.5,79.5C 52.5,79.5 50.5,79.5 48.5,79.5C 48.5,75.5 48.5,71.5 48.5,67.5C 52.0794,67.6837 55.4127,67.017 58.5,65.5C 59.4435,62.0012 59.4435,58.6678 58.5,55.5 Z"/></g>
<g><path style="opacity:1" fill="#f1f9fc" d="M 87.5,46.5 C 89.6567,49.6875 89.99,53.0208 88.5,56.5C 85.3098,54.8235 81.8098,53.8235 78,53.5C 71.2029,54.4194 70.0362,57.4194 74.5,62.5C 79.6154,64.7009 84.4487,67.3676 89,70.5C 90.3368,74.0257 90.8368,77.6924 90.5,81.5C 89.937,84.2948 88.6037,86.6282 86.5,88.5C 79.5142,91.4005 72.1808,92.2339 64.5,91C 62.5018,89.5864 61.5018,87.5864 61.5,85C 61.5687,83.0145 62.2353,81.5145 63.5,80.5C 64.6002,81.5585 65.9336,82.3918 67.5,83C 71.1667,83.6667 74.8333,83.6667 78.5,83C 81.0021,80.2991 81.0021,77.7991 78.5,75.5C 73.5751,73.3684 68.9085,70.7017 64.5,67.5C 60.5332,61.6658 60.5332,55.8324 64.5,50C 71.6293,45.6687 79.2959,44.5021 87.5,46.5 Z"/></g>
<g><path style="opacity:1" fill="#447db9" d="M 57.5,55.5 C 54.0381,56.4816 50.3714,56.815 46.5,56.5C 46.1884,67.8846 46.5218,79.2179 47.5,90.5C 47.2907,91.086 46.9574,91.586 46.5,92C 44.1667,92.3333 41.8333,92.6667 39.5,93C 40.938,93.2189 42.2713,93.7189 43.5,94.5C 39.5208,95.8438 36.8542,94.5104 35.5,90.5C 38.5,90.5 41.5,90.5 44.5,90.5C 45.4949,79.012 45.8283,67.3453 45.5,55.5C 49.5,55.5 53.5,55.5 57.5,55.5 Z"/></g>
<g><path style="opacity:1" fill="#5183ba" d="M 78.5,75.5 C 81.0021,77.7991 81.0021,80.2991 78.5,83C 74.8333,83.6667 71.1667,83.6667 67.5,83C 65.9336,82.3918 64.6002,81.5585 63.5,80.5C 68.4615,81.3525 73.4615,81.3525 78.5,80.5C 78.5,78.8333 78.5,77.1667 78.5,75.5 Z"/></g>
</svg>
