<?xml version="1.0" encoding="UTF-8"?>
<!DOCTYPE svg PUBLIC "-//W3C//DTD SVG 1.1//EN" "http://www.w3.org/Graphics/SVG/1.1/DTD/svg11.dtd">
<svg xmlns="http://www.w3.org/2000/svg" version="1.1" width="100px" height="100px" style="shape-rendering:geometricPrecision; text-rendering:geometricPrecision; image-rendering:optimizeQuality; fill-rule:evenodd; clip-rule:evenodd" xmlns:xlink="http://www.w3.org/1999/xlink">
<g><path style="opacity:0.977" fill="#db4816" d="M 37.5,-0.5 C 45.5,-0.5 53.5,-0.5 61.5,-0.5C 71.0275,2.45936 79.3608,7.45936 86.5,14.5C 83.9759,14.5713 81.9759,13.5713 80.5,11.5C 79.5713,12.6888 79.238,14.0222 79.5,15.5C 78.5,15.5 77.5,15.5 76.5,15.5C 76.3524,22.0137 76.3524,28.347 76.5,34.5C 75.3634,33.2112 74.0301,32.2112 72.5,31.5C 70.7782,28.3918 71.2782,25.7251 74,23.5C 74.6667,21.1667 74.6667,18.8333 74,16.5C 73.0816,14.6243 71.5816,13.6243 69.5,13.5C 69.3893,12.8826 69.056,12.3826 68.5,12C 62.2576,9.94453 58.9243,12.1112 58.5,18.5C 53.5,18.5 48.5,18.5 43.5,18.5C 43.7118,16.6159 44.7118,15.2826 46.5,14.5C 47.4519,12.9547 47.7852,11.288 47.5,9.5C 44.8127,9.66409 42.146,9.49742 39.5,9C 37.4231,5.37902 34.9231,4.87902 32,7.5C 31.196,6.19551 30.0293,5.52884 28.5,5.5C 26.8653,6.04626 25.1986,6.37959 23.5,6.5C 27.8982,3.63426 32.5648,1.30092 37.5,-0.5 Z"/></g>
<g><path style="opacity:1" fill="#db4815" d="M 43.5,18.5 C 42.6618,18.8417 42.3284,19.5084 42.5,20.5C 41.791,21.404 40.791,21.7373 39.5,21.5C 38.5,21.5 37.5,21.5 36.5,21.5C 36.7947,23.7354 36.4614,25.7354 35.5,27.5C 34.5416,27.0472 33.7083,26.3805 33,25.5C 30.7131,27.0544 28.5465,28.7211 26.5,30.5C 23.8459,33.2541 21.5126,36.4208 19.5,40C 16.4114,40.1475 13.5781,40.9808 11,42.5C 10.2352,42.4301 9.7352,42.0967 9.5,41.5C 11.1745,38.4928 11.8412,35.1595 11.5,31.5C 14.488,31.8453 15.8213,30.512 15.5,27.5C 15.234,25.3403 14.234,23.6736 12.5,22.5C 13.5063,21.6043 13.5063,20.9377 12.5,20.5C 11.5713,21.6888 11.238,23.0222 11.5,24.5C 10.5,24.5 9.5,24.5 8.5,24.5C 8.64321,28.5307 8.47655,32.5307 8,36.5C 7.58605,36.9574 7.08605,37.2907 6.5,37.5C 5.33333,35.8333 4.16667,34.1667 3,32.5C 2.61742,33.056 2.11742,33.3893 1.5,33.5C 5.17161,21.497 12.5049,12.497 23.5,6.5C 25.1986,6.37959 26.8653,6.04626 28.5,5.5C 30.0293,5.52884 31.196,6.19551 32,7.5C 34.9231,4.87902 37.4231,5.37902 39.5,9C 42.146,9.49742 44.8127,9.66409 47.5,9.5C 47.7852,11.288 47.4519,12.9547 46.5,14.5C 44.7118,15.2826 43.7118,16.6159 43.5,18.5 Z"/></g>
<g><path style="opacity:1" fill="#fef4ea" d="M 69.5,13.5 C 74.768,17.6708 74.768,21.8375 69.5,26C 64.7833,27.4287 61.45,25.9287 59.5,21.5C 59.8101,15.1984 63.1434,12.5317 69.5,13.5 Z"/></g>
<g><path style="opacity:0.997" fill="#dc4814" d="M 86.5,14.5 C 93.1264,22.062 97.4597,30.7287 99.5,40.5C 99.5,46.5 99.5,52.5 99.5,58.5C 98.1588,63.5371 96.4922,68.5371 94.5,73.5C 92.712,73.7852 91.0453,73.4519 89.5,72.5C 88.0278,69.8512 87.0278,67.0179 86.5,64C 84.5273,63.5045 82.5273,63.3379 80.5,63.5C 81.2436,66.9496 79.9103,68.6162 76.5,68.5C 77.167,70.8194 77.3336,73.1527 77,75.5C 76.3292,76.2524 75.4959,76.5858 74.5,76.5C 73.6433,74.5965 72.9766,72.5965 72.5,70.5C 80.143,62.399 82.643,52.7324 80,41.5C 79.7216,40.5842 79.2216,39.9175 78.5,39.5C 78.1075,37.7162 77.4408,36.0495 76.5,34.5C 76.3524,28.347 76.3524,22.0137 76.5,15.5C 77.5,15.5 78.5,15.5 79.5,15.5C 79.238,14.0222 79.5713,12.6888 80.5,11.5C 81.9759,13.5713 83.9759,14.5713 86.5,14.5 Z"/></g>
<g><path style="opacity:1" fill="#ca5528" d="M 69.5,13.5 C 63.1434,12.5317 59.8101,15.1984 59.5,21.5C 59.1583,22.3382 58.4916,22.6716 57.5,22.5C 57.1583,21.6618 56.4916,21.3284 55.5,21.5C 51.3656,20.5151 47.0323,20.1818 42.5,20.5C 42.3284,19.5084 42.6618,18.8417 43.5,18.5C 48.5,18.5 53.5,18.5 58.5,18.5C 58.9243,12.1112 62.2576,9.94453 68.5,12C 69.056,12.3826 69.3893,12.8826 69.5,13.5 Z"/></g>
<g><path style="opacity:1" fill="#fcc6aa" d="M 42.5,20.5 C 47.0323,20.1818 51.3656,20.5151 55.5,21.5C 50.1301,21.3921 44.7968,21.7255 39.5,22.5C 39.5,22.1667 39.5,21.8333 39.5,21.5C 40.791,21.7373 41.791,21.404 42.5,20.5 Z"/></g>
<g><path style="opacity:1" fill="#fdf6f0" d="M 55.5,21.5 C 56.4916,21.3284 57.1583,21.6618 57.5,22.5C 58.5678,25.0752 60.2345,27.2419 62.5,29C 66.1391,29.0262 69.4725,29.8595 72.5,31.5C 74.2672,33.9384 75.6006,36.605 76.5,39.5C 76.5,41.8333 76.5,44.1667 76.5,46.5C 74.1667,46.5 71.8333,46.5 69.5,46.5C 69.7709,44.6203 69.1042,43.287 67.5,42.5C 66.5667,39.6298 64.9,37.2964 62.5,35.5C 60.572,33.5259 58.2387,32.0259 55.5,31C 50.5,30.6667 45.5,30.3333 40.5,30C 39.2364,28.1394 38.2364,26.1394 37.5,24C 37.8361,22.9701 38.5028,22.4701 39.5,22.5C 44.7968,21.7255 50.1301,21.3921 55.5,21.5 Z"/></g>
<g><path style="opacity:1" fill="#c4643d" d="M 69.5,13.5 C 71.5816,13.6243 73.0816,14.6243 74,16.5C 74.6667,18.8333 74.6667,21.1667 74,23.5C 71.2782,25.7251 70.7782,28.3918 72.5,31.5C 69.4725,29.8595 66.1391,29.0262 62.5,29C 60.2345,27.2419 58.5678,25.0752 57.5,22.5C 58.4916,22.6716 59.1583,22.3382 59.5,21.5C 61.45,25.9287 64.7833,27.4287 69.5,26C 74.768,21.8375 74.768,17.6708 69.5,13.5 Z"/></g>
<g><path style="opacity:1" fill="#c95b2e" d="M 39.5,21.5 C 39.5,21.8333 39.5,22.1667 39.5,22.5C 38.5028,22.4701 37.8361,22.9701 37.5,24C 38.2364,26.1394 39.2364,28.1394 40.5,30C 45.5,30.3333 50.5,30.6667 55.5,31C 58.2387,32.0259 60.572,33.5259 62.5,35.5C 55.1472,32.7479 47.4806,31.7479 39.5,32.5C 39.1351,36.2272 37.1351,38.5606 33.5,39.5C 34.597,37.2258 35.9304,35.0591 37.5,33C 36.6805,31.1997 36.0138,29.3664 35.5,27.5C 36.4614,25.7354 36.7947,23.7354 36.5,21.5C 37.5,21.5 38.5,21.5 39.5,21.5 Z"/></g>
<g><path style="opacity:1" fill="#dc4815" d="M 62.5,35.5 C 63.7683,38.9464 65.1017,42.4464 66.5,46C 66.2308,47.6075 65.3974,48.7741 64,49.5C 63.2042,52.0385 63.3709,54.3718 64.5,56.5C 64.6715,58.4918 64.0049,60.1585 62.5,61.5C 54.5339,66.7062 46.2006,67.7062 37.5,64.5C 32.7827,56.8049 31.4493,48.4715 33.5,39.5C 37.1351,38.5606 39.1351,36.2272 39.5,32.5C 47.4806,31.7479 55.1472,32.7479 62.5,35.5 Z"/></g>
<g><path style="opacity:0.99" fill="#dc4814" d="M 9.5,41.5 C 8.19989,43.223 7.53323,45.3897 7.5,48C 7.46616,55.8472 11.4662,59.3472 19.5,58.5C 19.2852,60.1788 19.9519,61.1788 21.5,61.5C 22.1276,63.6616 23.461,65.3282 25.5,66.5C 26.1495,68.4352 26.4828,70.4352 26.5,72.5C 32.2998,73.6025 37.6332,75.6025 42.5,78.5C 42.8333,78.5 43.1667,78.5 43.5,78.5C 48.9387,78.9363 54.272,79.9363 59.5,81.5C 60.2423,83.4258 61.2423,85.2591 62.5,87C 65.1194,86.9167 67.786,86.75 70.5,86.5C 69.4855,87.7647 67.9855,88.4313 66,88.5C 58.5226,89.3321 51.0226,89.6654 43.5,89.5C 43.5,91.1667 43.5,92.8333 43.5,94.5C 46.1873,94.3359 48.854,94.5026 51.5,95C 48.5088,95.1448 46.8422,96.6448 46.5,99.5C 44.5,99.5 42.5,99.5 40.5,99.5C 19.5035,94.8207 5.83681,82.1541 -0.5,61.5C -0.5,53.5 -0.5,45.5 -0.5,37.5C 0.673734,36.4863 1.3404,35.153 1.5,33.5C 2.11742,33.3893 2.61742,33.056 3,32.5C 4.16667,34.1667 5.33333,35.8333 6.5,37.5C 7.08605,37.2907 7.58605,36.9574 8,36.5C 8.47655,32.5307 8.64321,28.5307 8.5,24.5C 9.5,24.5 10.5,24.5 11.5,24.5C 11.238,23.0222 11.5713,21.6888 12.5,20.5C 13.5063,20.9377 13.5063,21.6043 12.5,22.5C 14.234,23.6736 15.234,25.3403 15.5,27.5C 15.8213,30.512 14.488,31.8453 11.5,31.5C 11.8412,35.1595 11.1745,38.4928 9.5,41.5 Z"/></g>
<g><path style="opacity:1" fill="#d05828" d="M 26.5,30.5 C 24.2928,34.251 22.6261,38.251 21.5,42.5C 22.1157,43.7978 22.1157,44.7978 21.5,45.5C 21.1667,45.5 20.8333,45.5 20.5,45.5C 20.3893,44.8826 20.056,44.3826 19.5,44C 16.8333,43.3333 14.1667,43.3333 11.5,44C 10.944,44.3826 10.6107,44.8826 10.5,45.5C 7.83409,48.7539 8.16742,51.9206 11.5,55C 14.146,55.4974 16.8127,55.6641 19.5,55.5C 20.2852,57.3736 20.9518,59.3736 21.5,61.5C 19.9519,61.1788 19.2852,60.1788 19.5,58.5C 11.4662,59.3472 7.46616,55.8472 7.5,48C 7.53323,45.3897 8.19989,43.223 9.5,41.5C 9.7352,42.0967 10.2352,42.4301 11,42.5C 13.5781,40.9808 16.4114,40.1475 19.5,40C 21.5126,36.4208 23.8459,33.2541 26.5,30.5 Z"/></g>
<g><path style="opacity:1" fill="#fdf8f6" d="M 20.5,45.5 C 20.8956,48.4822 20.2289,51.1489 18.5,53.5C 17.6733,51.838 16.5067,50.5046 15,49.5C 14.8038,51.2861 13.9705,52.6195 12.5,53.5C 10.7711,51.1489 10.1044,48.4822 10.5,45.5C 10.6107,44.8826 10.944,44.3826 11.5,44C 14.1667,43.3333 16.8333,43.3333 19.5,44C 20.056,44.3826 20.3893,44.8826 20.5,45.5 Z"/></g>
<g><path style="opacity:1" fill="#c8562a" d="M 33.5,39.5 C 31.4493,48.4715 32.7827,56.8049 37.5,64.5C 33.8177,61.8126 31.651,58.1459 31,53.5C 30.3333,49.8333 30.3333,46.1667 31,42.5C 31.3768,41.0577 32.2101,40.0577 33.5,39.5 Z"/></g>
<g><path style="opacity:1" fill="#fcddc7" d="M 76.5,39.5 C 77.7682,41.9052 78.4349,44.5718 78.5,47.5C 75.1667,47.5 71.8333,47.5 68.5,47.5C 68.7373,46.209 68.404,45.209 67.5,44.5C 67.5,43.8333 67.5,43.1667 67.5,42.5C 69.1042,43.287 69.7709,44.6203 69.5,46.5C 71.8333,46.5 74.1667,46.5 76.5,46.5C 76.5,44.1667 76.5,41.8333 76.5,39.5 Z"/></g>
<g><path style="opacity:1" fill="#d24e1f" d="M 62.5,35.5 C 64.9,37.2964 66.5667,39.6298 67.5,42.5C 67.5,43.1667 67.5,43.8333 67.5,44.5C 67.5,45.8333 67.5,47.1667 67.5,48.5C 74.8875,48.6856 75.2208,49.6856 68.5,51.5C 67.0735,53.1484 66.2401,55.1484 66,57.5C 65.6174,56.944 65.1174,56.6107 64.5,56.5C 63.3709,54.3718 63.2042,52.0385 64,49.5C 65.3974,48.7741 66.2308,47.6075 66.5,46C 65.1017,42.4464 63.7683,38.9464 62.5,35.5 Z"/></g>
<g><path style="opacity:1" fill="#ffeada" d="M 10.5,45.5 C 10.1044,48.4822 10.7711,51.1489 12.5,53.5C 13.9705,52.6195 14.8038,51.2861 15,49.5C 16.5067,50.5046 17.6733,51.838 18.5,53.5C 20.2289,51.1489 20.8956,48.4822 20.5,45.5C 20.8333,45.5 21.1667,45.5 21.5,45.5C 23.0565,49.2745 22.3899,52.6078 19.5,55.5C 16.8127,55.6641 14.146,55.4974 11.5,55C 8.16742,51.9206 7.83409,48.7539 10.5,45.5 Z"/></g>
<g><path style="opacity:1" fill="#fed5bc" d="M 68.5,51.5 C 71.8333,51.5 75.1667,51.5 78.5,51.5C 78.7678,53.099 78.4345,54.4324 77.5,55.5C 77.5,54.5 77.5,53.5 77.5,52.5C 74.8333,52.5 72.1667,52.5 69.5,52.5C 69.7709,54.3797 69.1042,55.713 67.5,56.5C 68.038,54.8828 68.3713,53.2161 68.5,51.5 Z"/></g>
<g><path style="opacity:1" fill="#b9603f" d="M 21.5,42.5 C 23.8284,44.1661 24.8284,46.4995 24.5,49.5C 24.2616,52.5826 23.2616,55.4159 21.5,58C 22.9351,60.8152 24.2684,63.6485 25.5,66.5C 23.461,65.3282 22.1276,63.6616 21.5,61.5C 20.9518,59.3736 20.2852,57.3736 19.5,55.5C 22.3899,52.6078 23.0565,49.2745 21.5,45.5C 22.1157,44.7978 22.1157,43.7978 21.5,42.5 Z"/></g>
<g><path style="opacity:1" fill="#fdf8f3" d="M 77.5,55.5 C 77.5,56.8333 77.5,58.1667 77.5,59.5C 75.5636,62.4563 73.5636,65.4563 71.5,68.5C 68.4281,68.8174 65.4281,68.4841 62.5,67.5C 63.5588,65.4664 64.5588,63.4664 65.5,61.5C 66.1667,59.8333 66.8333,58.1667 67.5,56.5C 69.1042,55.713 69.7709,54.3797 69.5,52.5C 72.1667,52.5 74.8333,52.5 77.5,52.5C 77.5,53.5 77.5,54.5 77.5,55.5 Z"/></g>
<g><path style="opacity:1" fill="#d05227" d="M 78.5,39.5 C 79.2216,39.9175 79.7216,40.5842 80,41.5C 82.643,52.7324 80.143,62.399 72.5,70.5C 72.9766,72.5965 73.6433,74.5965 74.5,76.5C 74.7845,78.4147 74.4511,80.0813 73.5,81.5C 73.6602,79.8008 73.4935,78.1341 73,76.5C 71.6244,75.2949 70.4577,73.9616 69.5,72.5C 69.5569,71.391 69.8902,70.391 70.5,69.5C 71.1667,69.5 71.5,69.1667 71.5,68.5C 73.5636,65.4563 75.5636,62.4563 77.5,59.5C 78.7342,57.7986 79.4008,55.7986 79.5,53.5C 79.694,48.9355 79.3607,44.2688 78.5,39.5 Z"/></g>
<g><path style="opacity:1" fill="#fef4ea" d="M 35.5,27.5 C 36.0138,29.3664 36.6805,31.1997 37.5,33C 35.9304,35.0591 34.597,37.2258 33.5,39.5C 32.2101,40.0577 31.3768,41.0577 31,42.5C 30.3333,46.1667 30.3333,49.8333 31,53.5C 31.651,58.1459 33.8177,61.8126 37.5,64.5C 37.0711,68.0244 35.5711,71.0244 33,73.5C 29.975,71.6388 27.475,69.3055 25.5,66.5C 24.2684,63.6485 22.9351,60.8152 21.5,58C 23.2616,55.4159 24.2616,52.5826 24.5,49.5C 24.8284,46.4995 23.8284,44.1661 21.5,42.5C 22.6261,38.251 24.2928,34.251 26.5,30.5C 28.5465,28.7211 30.7131,27.0544 33,25.5C 33.7083,26.3805 34.5416,27.0472 35.5,27.5 Z"/></g>
<g><path style="opacity:1" fill="#c95e32" d="M 72.5,31.5 C 74.0301,32.2112 75.3634,33.2112 76.5,34.5C 77.4408,36.0495 78.1075,37.7162 78.5,39.5C 79.3607,44.2688 79.694,48.9355 79.5,53.5C 79.4008,55.7986 78.7342,57.7986 77.5,59.5C 77.5,58.1667 77.5,56.8333 77.5,55.5C 78.4345,54.4324 78.7678,53.099 78.5,51.5C 75.1667,51.5 71.8333,51.5 68.5,51.5C 75.2208,49.6856 74.8875,48.6856 67.5,48.5C 67.5,47.1667 67.5,45.8333 67.5,44.5C 68.404,45.209 68.7373,46.209 68.5,47.5C 71.8333,47.5 75.1667,47.5 78.5,47.5C 78.4349,44.5718 77.7682,41.9052 76.5,39.5C 75.6006,36.605 74.2672,33.9384 72.5,31.5 Z"/></g>
<g><path style="opacity:1" fill="#feeddf" d="M 65.5,61.5 C 64.5588,63.4664 63.5588,65.4664 62.5,67.5C 65.4281,68.4841 68.4281,68.8174 71.5,68.5C 71.5,69.1667 71.1667,69.5 70.5,69.5C 67.8127,69.3359 65.146,69.5026 62.5,70C 59.9043,72.423 57.571,74.923 55.5,77.5C 51.2984,77.8168 47.2984,77.4834 43.5,76.5C 42.1667,76.5 40.8333,76.5 39.5,76.5C 38.3054,76.1344 37.6387,75.301 37.5,74C 38.6345,71.5588 40.1345,69.3921 42,67.5C 51.1247,70.0945 58.958,68.0945 65.5,61.5 Z"/></g>
<g><path style="opacity:1" fill="#fdfcfc" d="M 43.5,76.5 C 42.9524,74.6064 41.9524,72.9397 40.5,71.5C 40.7093,70.914 41.0426,70.414 41.5,70C 44.6376,69.92 47.8043,70.0867 51,70.5C 53.9349,70.6661 56.6016,69.9994 59,68.5C 59.5,68.8333 60,69.1667 60.5,69.5C 57.3582,70.7822 56.0248,73.1155 56.5,76.5C 52.1667,76.5 47.8333,76.5 43.5,76.5 Z"/></g>
<g><path style="opacity:1" fill="#c85a2e" d="M 68.5,51.5 C 68.3713,53.2161 68.038,54.8828 67.5,56.5C 66.8333,58.1667 66.1667,59.8333 65.5,61.5C 58.958,68.0945 51.1247,70.0945 42,67.5C 40.1345,69.3921 38.6345,71.5588 37.5,74C 37.6387,75.301 38.3054,76.1344 39.5,76.5C 40.5,77.1667 41.5,77.8333 42.5,78.5C 37.6332,75.6025 32.2998,73.6025 26.5,72.5C 26.4828,70.4352 26.1495,68.4352 25.5,66.5C 27.475,69.3055 29.975,71.6388 33,73.5C 35.5711,71.0244 37.0711,68.0244 37.5,64.5C 46.2006,67.7062 54.5339,66.7062 62.5,61.5C 64.0049,60.1585 64.6715,58.4918 64.5,56.5C 65.1174,56.6107 65.6174,56.944 66,57.5C 66.2401,55.1484 67.0735,53.1484 68.5,51.5 Z"/></g>
<g><path style="opacity:1" fill="#bc653f" d="M 70.5,69.5 C 69.8902,70.391 69.5569,71.391 69.5,72.5C 62.6573,71.6783 59.324,74.6783 59.5,81.5C 54.272,79.9363 48.9387,78.9363 43.5,78.5C 47.7016,78.8168 51.7016,78.4834 55.5,77.5C 57.571,74.923 59.9043,72.423 62.5,70C 65.146,69.5026 67.8127,69.3359 70.5,69.5 Z"/></g>
<g><path style="opacity:1" fill="#fef2eb" d="M 69.5,72.5 C 70.4577,73.9616 71.6244,75.2949 73,76.5C 73.4935,78.1341 73.6602,79.8008 73.5,81.5C 68.8333,86.8333 64.1667,86.8333 59.5,81.5C 59.324,74.6783 62.6573,71.6783 69.5,72.5 Z"/></g>
<g><path style="opacity:1" fill="#f9c3aa" d="M 39.5,76.5 C 40.8333,76.5 42.1667,76.5 43.5,76.5C 47.2984,77.4834 51.2984,77.8168 55.5,77.5C 51.7016,78.4834 47.7016,78.8168 43.5,78.5C 43.1667,78.5 42.8333,78.5 42.5,78.5C 41.5,77.8333 40.5,77.1667 39.5,76.5 Z"/></g>
<g><path style="opacity:1" fill="#cd5628" d="M 59.5,81.5 C 64.1667,86.8333 68.8333,86.8333 73.5,81.5C 73.4077,83.8477 72.4077,85.5144 70.5,86.5C 67.786,86.75 65.1194,86.9167 62.5,87C 61.2423,85.2591 60.2423,83.4258 59.5,81.5 Z"/></g>
<g><path style="opacity:0.976" fill="#dc4914" d="M 94.5,73.5 C 86.2346,87.607 74.2346,96.2737 58.5,99.5C 54.5,99.5 50.5,99.5 46.5,99.5C 46.8422,96.6448 48.5088,95.1448 51.5,95C 48.854,94.5026 46.1873,94.3359 43.5,94.5C 43.5,92.8333 43.5,91.1667 43.5,89.5C 51.0226,89.6654 58.5226,89.3321 66,88.5C 67.9855,88.4313 69.4855,87.7647 70.5,86.5C 72.4077,85.5144 73.4077,83.8477 73.5,81.5C 74.4511,80.0813 74.7845,78.4147 74.5,76.5C 75.4959,76.5858 76.3292,76.2524 77,75.5C 77.3336,73.1527 77.167,70.8194 76.5,68.5C 79.9103,68.6162 81.2436,66.9496 80.5,63.5C 82.5273,63.3379 84.5273,63.5045 86.5,64C 87.0278,67.0179 88.0278,69.8512 89.5,72.5C 91.0453,73.4519 92.712,73.7852 94.5,73.5 Z"/></g>
</svg>
