<?xml version="1.0" encoding="UTF-8"?>
<!DOCTYPE svg PUBLIC "-//W3C//DTD SVG 1.1//EN" "http://www.w3.org/Graphics/SVG/1.1/DTD/svg11.dtd">
<svg xmlns="http://www.w3.org/2000/svg" version="1.1" width="100px" height="100px" style="shape-rendering:geometricPrecision; text-rendering:geometricPrecision; image-rendering:optimizeQuality; fill-rule:evenodd; clip-rule:evenodd" xmlns:xlink="http://www.w3.org/1999/xlink">
<g><path style="opacity:0.884" fill="#100b09" d="M 81.5,-0.5 C 84.1667,-0.5 86.8333,-0.5 89.5,-0.5C 90.3234,2.46059 90.99,5.46059 91.5,8.5C 90.5448,10.7457 89.8782,13.079 89.5,15.5C 90.8333,15.5 92.1667,15.5 93.5,15.5C 95.3307,21.6589 97.3307,27.6589 99.5,33.5C 99.5,36.5 99.5,39.5 99.5,42.5C 98.1667,43.8333 96.8333,45.1667 95.5,46.5C 95.5,44.8333 95.5,43.1667 95.5,41.5C 92.8333,40.8333 90.1667,40.1667 87.5,39.5C 85.9766,33.428 84.1432,27.428 82,21.5C 77.6667,28.8333 73.3333,36.1667 69,43.5C 67.5886,45.6504 66.7553,47.9837 66.5,50.5C 65.0087,47.9093 62.6753,46.9093 59.5,47.5C 59.2011,49.604 59.5344,51.604 60.5,53.5C 61.8333,50.8333 63.1667,50.8333 64.5,53.5C 65.1818,52.7573 65.8485,52.0906 66.5,51.5C 68.8899,54.5662 70.8899,57.8996 72.5,61.5C 72.5533,65.1382 70.8866,67.1382 67.5,67.5C 67.5,68.8333 67.5,70.1667 67.5,71.5C 70.1667,71.5 72.8333,71.5 75.5,71.5C 75.5,70.1667 75.5,68.8333 75.5,67.5C 78.1348,70.079 80.3015,73.079 82,76.5C 84.4973,69.8084 86.664,63.1417 88.5,56.5C 88.5,58.8333 88.5,61.1667 88.5,63.5C 91.0359,64.3492 93.5359,65.3492 96,66.5C 96.7589,64.9371 97.9256,63.9371 99.5,63.5C 99.5,64.1667 99.5,64.8333 99.5,65.5C 98.2616,67.2143 97.595,69.2143 97.5,71.5C 93.4301,70.508 91.4301,72.008 91.5,76C 91.9209,77.9893 92.5876,79.8227 93.5,81.5C 92.7856,87.6419 91.4523,93.6419 89.5,99.5C 88.8333,99.5 88.1667,99.5 87.5,99.5C 87.5,98.1667 87.5,96.8333 87.5,95.5C 85.4727,95.3379 83.4727,95.5045 81.5,96C 80.244,96.4169 79.5774,97.2502 79.5,98.5C 69.3228,95.2287 58.9895,92.3954 48.5,90C 45.3015,87.1107 42.9682,83.6107 41.5,79.5C 43.1765,78.8166 43.8432,77.4832 43.5,75.5C 52.6056,78.8167 61.939,80.9834 71.5,82C 66.1667,73.3333 60.8333,64.6667 55.5,56C 51.8484,55.5014 48.1817,55.3347 44.5,55.5C 45.209,54.596 46.209,54.2627 47.5,54.5C 47.9854,49.8415 46.152,48.5081 42,50.5C 41.5065,52.1341 41.3398,53.8008 41.5,55.5C 35.4908,55.3338 29.4908,55.5005 23.5,56C 24.7101,57.0391 25.7101,58.2058 26.5,59.5C 24.2776,59.5587 23.2776,60.7253 23.5,63C 23.8983,64.8988 24.8983,66.3988 26.5,67.5C 27.0652,65.4565 28.0652,63.7898 29.5,62.5C 33.1667,65.5 36.5,68.8333 39.5,72.5C 38.4168,72.5394 37.4168,72.8728 36.5,73.5C 34.796,71.9587 32.9626,70.6254 31,69.5C 30.5,69.8333 30,70.1667 29.5,70.5C 31.0049,71.8415 31.6715,73.5082 31.5,75.5C 34.5,75.1667 35.8333,76.5 35.5,79.5C 33.1432,79.6633 30.8098,79.4966 28.5,79C 22.5781,72.9089 16.5781,67.0756 10.5,61.5C 13.1151,59.5231 12.6151,58.1898 9,57.5C 8.2352,57.5699 7.7352,57.9033 7.5,58.5C 4.8739,56.1765 2.20724,53.8432 -0.5,51.5C -0.5,50.1667 -0.5,48.8333 -0.5,47.5C 2.72896,45.0584 5.72896,42.3918 8.5,39.5C 10.5671,41.5123 12.9004,41.8456 15.5,40.5C 14.2066,38.8974 13.2066,37.2307 12.5,35.5C 17.2766,29.8921 22.6099,24.7254 28.5,20C 32.8333,19.6667 37.1667,19.3333 41.5,19C 42.6744,15.3074 44.6744,12.1408 47.5,9.5C 59.1149,6.7672 70.4483,3.43387 81.5,-0.5 Z M 33.5,31.5 C 36.153,29.845 38.4864,27.845 40.5,25.5C 50.1879,20.552 60.5212,17.7187 71.5,17C 65.9288,25.4667 60.5955,34.1334 55.5,43C 44.5,43.6667 33.5,43.6667 22.5,43C 26.3705,39.2977 30.0371,35.4643 33.5,31.5 Z M 41.5,55.5 C 42.5,55.5 43.5,55.5 44.5,55.5C 48.1817,55.3347 51.8484,55.5014 55.5,56C 60.8333,64.6667 66.1667,73.3333 71.5,82C 61.939,80.9834 52.6056,78.8167 43.5,75.5C 42.1667,74.5 40.8333,73.5 39.5,72.5C 36.5,68.8333 33.1667,65.5 29.5,62.5C 28.8333,61.1667 27.8333,60.1667 26.5,59.5C 25.7101,58.2058 24.7101,57.0391 23.5,56C 29.4908,55.5005 35.4908,55.3338 41.5,55.5 Z"/></g>
<g><path style="opacity:0.94" fill="#13080b" d="M 91.5,8.5 C 92.6118,10.5994 93.2785,12.9327 93.5,15.5C 92.1667,15.5 90.8333,15.5 89.5,15.5C 89.8782,13.079 90.5448,10.7457 91.5,8.5 Z"/></g>
<g><path style="opacity:0.581" fill="#0c0907" d="M 40.5,25.5 C 38.4864,27.845 36.153,29.845 33.5,31.5C 33.8399,28.8559 33.1733,26.5225 31.5,24.5C 32.1667,24.1667 32.8333,23.8333 33.5,23.5C 35.6457,24.8936 37.979,25.5603 40.5,25.5 Z"/></g>
<g><path style="opacity:0.904" fill="#0e0a05" d="M 12.5,35.5 C 13.2066,37.2307 14.2066,38.8974 15.5,40.5C 12.9004,41.8456 10.5671,41.5123 8.5,39.5C 9.83333,38.1667 11.1667,36.8333 12.5,35.5 Z"/></g>
<g><path style="opacity:0.795" fill="#0d0d08" d="M 87.5,39.5 C 90.1667,40.1667 92.8333,40.8333 95.5,41.5C 95.5,43.1667 95.5,44.8333 95.5,46.5C 95.5,46.8333 95.5,47.1667 95.5,47.5C 93.5,47.5 91.5,47.5 89.5,47.5C 88.6295,44.8877 87.9628,42.221 87.5,39.5 Z"/></g>
<g><path style="opacity:0.999" fill="#130908" d="M 66.5,50.5 C 66.5,50.8333 66.5,51.1667 66.5,51.5C 65.8485,52.0906 65.1818,52.7573 64.5,53.5C 63.1667,50.8333 61.8333,50.8333 60.5,53.5C 59.5344,51.604 59.2011,49.604 59.5,47.5C 62.6753,46.9093 65.0087,47.9093 66.5,50.5 Z"/></g>
<g><path style="opacity:0.762" fill="#0f0a09" d="M 89.5,47.5 C 91.5,47.5 93.5,47.5 95.5,47.5C 95.1961,48.1499 94.8627,48.8165 94.5,49.5C 95.5588,51.5336 96.5588,53.5336 97.5,55.5C 95.8958,56.287 95.2291,57.6203 95.5,59.5C 94.1667,59.5 92.8333,59.5 91.5,59.5C 91.5,58.5 91.5,57.5 91.5,56.5C 90.5,56.5 89.5,56.5 88.5,56.5C 88.7563,54.0628 89.4229,51.7294 90.5,49.5C 90.1373,48.8165 89.8039,48.1499 89.5,47.5 Z"/></g>
<g><path style="opacity:0.851" fill="#0d0d08" d="M 44.5,55.5 C 43.5,55.5 42.5,55.5 41.5,55.5C 41.3398,53.8008 41.5065,52.1341 42,50.5C 46.152,48.5081 47.9854,49.8415 47.5,54.5C 46.209,54.2627 45.209,54.596 44.5,55.5 Z"/></g>
<g><path style="opacity:0.947" fill="#130a0a" d="M 97.5,55.5 C 98.1667,56.1667 98.8333,56.8333 99.5,57.5C 99.5,59.5 99.5,61.5 99.5,63.5C 97.9256,63.9371 96.7589,64.9371 96,66.5C 93.5359,65.3492 91.0359,64.3492 88.5,63.5C 88.5,61.1667 88.5,58.8333 88.5,56.5C 89.5,56.5 90.5,56.5 91.5,56.5C 91.5,57.5 91.5,58.5 91.5,59.5C 92.8333,59.5 94.1667,59.5 95.5,59.5C 95.2291,57.6203 95.8958,56.287 97.5,55.5 Z"/></g>
<g><path style="opacity:0.578" fill="#14090a" d="M 10.5,61.5 C 9.16667,60.8333 8.16667,59.8333 7.5,58.5C 7.7352,57.9033 8.2352,57.5699 9,57.5C 12.6151,58.1898 13.1151,59.5231 10.5,61.5 Z"/></g>
<g><path style="opacity:0.99" fill="#0d0b05" d="M 26.5,59.5 C 27.8333,60.1667 28.8333,61.1667 29.5,62.5C 28.0652,63.7898 27.0652,65.4565 26.5,67.5C 24.8983,66.3988 23.8983,64.8988 23.5,63C 23.2776,60.7253 24.2776,59.5587 26.5,59.5 Z"/></g>
<g><path style="opacity:0.964" fill="#0d0d08" d="M 72.5,61.5 C 74.0075,63.1815 75.0075,65.1815 75.5,67.5C 75.5,68.8333 75.5,70.1667 75.5,71.5C 72.8333,71.5 70.1667,71.5 67.5,71.5C 67.5,70.1667 67.5,68.8333 67.5,67.5C 70.8866,67.1382 72.5533,65.1382 72.5,61.5 Z"/></g>
<g><path style="opacity:0.784" fill="#0d0d07" d="M 39.5,72.5 C 40.8333,73.5 42.1667,74.5 43.5,75.5C 43.8432,77.4832 43.1765,78.8166 41.5,79.5C 39.5,79.5 37.5,79.5 35.5,79.5C 35.8333,76.5 34.5,75.1667 31.5,75.5C 31.6715,73.5082 31.0049,71.8415 29.5,70.5C 30,70.1667 30.5,69.8333 31,69.5C 32.9626,70.6254 34.796,71.9587 36.5,73.5C 37.4168,72.8728 38.4168,72.5394 39.5,72.5 Z"/></g>
<g><path style="opacity:0.84" fill="#0d0c08" d="M 97.5,71.5 C 96.3433,74.984 95.01,78.3173 93.5,81.5C 92.5876,79.8227 91.9209,77.9893 91.5,76C 91.4301,72.008 93.4301,70.508 97.5,71.5 Z"/></g>
<g><path style="opacity:1" fill="#120a08" d="M 75.5,79.5 C 76.8333,79.5 78.1667,79.5 79.5,79.5C 79.5,82.8333 79.5,86.1667 79.5,89.5C 78.1667,89.5 76.8333,89.5 75.5,89.5C 75.5,86.1667 75.5,82.8333 75.5,79.5 Z"/></g>
<g><path style="opacity:0.821" fill="#12090a" d="M 87.5,99.5 C 85.8333,99.5 84.1667,99.5 82.5,99.5C 81.791,98.596 80.791,98.2627 79.5,98.5C 79.5774,97.2502 80.244,96.4169 81.5,96C 83.4727,95.5045 85.4727,95.3379 87.5,95.5C 87.5,96.8333 87.5,98.1667 87.5,99.5 Z"/></g>
</svg>
