<?xml version="1.0" encoding="UTF-8"?>
<!DOCTYPE svg PUBLIC "-//W3C//DTD SVG 1.1//EN" "http://www.w3.org/Graphics/SVG/1.1/DTD/svg11.dtd">
<svg xmlns="http://www.w3.org/2000/svg" version="1.1" width="100px" height="100px" style="shape-rendering:geometricPrecision; text-rendering:geometricPrecision; image-rendering:optimizeQuality; fill-rule:evenodd; clip-rule:evenodd" xmlns:xlink="http://www.w3.org/1999/xlink">
<g><path style="opacity:0.739" fill="#0a0e0a" d="M 47.5,-0.5 C 48.8333,-0.5 50.1667,-0.5 51.5,-0.5C 52.8118,2.14512 54.8118,4.14512 57.5,5.5C 58.3081,5.19238 58.9747,4.69238 59.5,4C 72.1667,3.33333 84.8333,3.33333 97.5,4C 98.0442,4.71719 98.7109,5.21719 99.5,5.5C 99.5,8.83333 99.5,12.1667 99.5,15.5C 93.8564,20.8122 88.523,26.4789 83.5,32.5C 81.8333,32.5 80.1667,32.5 78.5,32.5C 84.3534,26.2921 90.1867,19.9588 96,13.5C 96.7891,11.2884 96.6225,9.28841 95.5,7.5C 84.6745,6.34097 73.6745,6.17431 62.5,7C 61.3977,9.40086 61.231,11.9009 62,14.5C 63.6225,15.0989 65.1225,15.7656 66.5,16.5C 65.5,18.1667 64.1667,19.5 62.5,20.5C 61.8333,20.5 61.5,20.1667 61.5,19.5C 59.8297,15.817 58.163,12.1504 56.5,8.5C 54.6397,7.06133 52.973,5.39466 51.5,3.5C 47.7932,1.83745 45.7932,3.17078 45.5,7.5C 45.5,10.1667 45.5,12.8333 45.5,15.5C 44.1283,16.5116 42.795,17.5116 41.5,18.5C 40.5098,24.6446 40.1765,30.9779 40.5,37.5C 40.8333,38.8333 41.1667,40.1667 41.5,41.5C 41.1667,42.5 40.5,43.1667 39.5,43.5C 38.5064,34.3483 38.1731,25.015 38.5,15.5C 39.8221,15.67 40.9887,15.3366 42,14.5C 42.4955,12.5273 42.6621,10.5273 42.5,8.5C 37.3762,7.17144 31.8762,6.50478 26,6.5C 20.5,6.66667 15,6.83333 9.5,7C 8.18575,9.60469 8.18575,12.1047 9.5,14.5C 10.5676,15.4345 11.901,15.7678 13.5,15.5C 13.1691,39.006 13.5025,62.3393 14.5,85.5C 14.8333,86.5 15.5,87.1667 16.5,87.5C 19.1873,87.6641 21.854,87.4974 24.5,87C 31.0321,80.8025 37.1987,74.3025 43,67.5C 43.3826,68.056 43.8826,68.3893 44.5,68.5C 45.3764,68.3691 46.0431,68.7025 46.5,69.5C 45.8728,70.4168 45.5394,71.4168 45.5,72.5C 43.7367,71.0462 42.4033,71.3796 41.5,73.5C 39.8333,74.5 38.5,75.8333 37.5,77.5C 32.2659,80.795 32.5993,83.795 38.5,86.5C 40.1376,87.7046 40.4709,89.0379 39.5,90.5C 37.1862,88.5227 34.8528,86.5227 32.5,84.5C 30.3078,85.8587 28.6411,87.6921 27.5,90C 22.8333,90.6667 18.1667,90.6667 13.5,90C 12.9747,89.3076 12.3081,88.8076 11.5,88.5C 10.668,79.5184 10.168,70.5184 10,61.5C 6.63087,57.9626 3.13087,54.6293 -0.5,51.5C -0.5,50.1667 -0.5,48.8333 -0.5,47.5C 3.13087,44.3707 6.63087,41.0374 10,37.5C 10.4995,31.1754 10.6662,24.8421 10.5,18.5C 8.09685,18.607 6.26351,17.607 5,15.5C 4.33333,12.1667 4.33333,8.83333 5,5.5C 5.5,5 6,4.5 6.5,4C 12.8972,2.87175 19.3972,2.37175 26,2.5C 32.2144,2.51963 38.3811,2.85296 44.5,3.5C 45.5244,2.14819 46.5244,0.814858 47.5,-0.5 Z"/></g>
<g><path style="opacity:1" fill="#28a925" d="M 51.5,3.5 C 52.973,5.39466 54.6397,7.06133 56.5,8.5C 57.9626,10.5983 57.7959,12.5983 56,14.5C 53.6884,11.354 51.1884,8.35395 48.5,5.5C 49.0047,4.08149 50.0047,3.41483 51.5,3.5 Z"/></g>
<g><path style="opacity:1" fill="#c9caca" d="M 42.5,8.5 C 41.5489,9.91866 41.2155,11.5853 41.5,13.5C 39.1667,13.5 36.8333,13.5 34.5,13.5C 34.1675,26.5171 34.5009,39.5171 35.5,52.5C 36.3081,52.1924 36.9747,51.6924 37.5,51C 36.2264,50.0228 36.2264,49.1894 37.5,48.5C 39.5,46.8333 41.5,45.1667 43.5,43.5C 45.0174,43.4894 46.1841,42.8228 47,41.5C 48.3102,43.2926 48.8102,45.1259 48.5,47C 50.8098,47.4966 53.1432,47.6633 55.5,47.5C 55.5,48.8333 55.5,50.1667 55.5,51.5C 54.8333,52.5 54.1667,53.5 53.5,54.5C 50.1897,55.1435 48.1897,57.1435 47.5,60.5C 39.0597,68.1083 31.0597,76.2749 23.5,85C 21.1902,85.4966 18.8568,85.6633 16.5,85.5C 16.5,61.5 16.5,37.5 16.5,13.5C 14.2646,13.2053 12.2646,13.5386 10.5,14.5C 10.1667,14.5 9.83333,14.5 9.5,14.5C 8.18575,12.1047 8.18575,9.60469 9.5,7C 15,6.83333 20.5,6.66667 26,6.5C 31.8762,6.50478 37.3762,7.17144 42.5,8.5 Z"/></g>
<g><path style="opacity:1" fill="#c6c7c6" d="M 95.5,7.5 C 94.8519,9.08584 94.3519,10.7525 94,12.5C 80.9103,25.4219 68.0769,38.4219 55.5,51.5C 55.5,50.1667 55.5,48.8333 55.5,47.5C 53.1432,47.6633 50.8098,47.4966 48.5,47C 48.8102,45.1259 48.3102,43.2926 47,41.5C 46.1841,42.8228 45.0174,43.4894 43.5,43.5C 51.4643,35.035 59.631,26.7017 68,18.5C 68.8531,16.0524 68.3531,15.3857 66.5,16.5C 65.1225,15.7656 63.6225,15.0989 62,14.5C 61.231,11.9009 61.3977,9.40086 62.5,7C 73.6745,6.17431 84.6745,6.34097 95.5,7.5 Z"/></g>
<g><path style="opacity:1" fill="#136e2e" d="M 45.5,7.5 C 46.7479,8.3339 47.4146,9.66723 47.5,11.5C 47.4146,13.3328 46.7479,14.6661 45.5,15.5C 45.5,12.8333 45.5,10.1667 45.5,7.5 Z"/></g>
<g><path style="opacity:1" fill="#129336" d="M 51.5,3.5 C 50.0047,3.41483 49.0047,4.08149 48.5,5.5C 51.1884,8.35395 53.6884,11.354 56,14.5C 57.7959,12.5983 57.9626,10.5983 56.5,8.5C 58.163,12.1504 59.8297,15.817 61.5,19.5C 55.8902,23.7715 50.5569,28.4382 45.5,33.5C 44.5,33.5 43.5,33.5 42.5,33.5C 42.5,28.5 42.5,23.5 42.5,18.5C 43.5,18.5 44.5,18.5 45.5,18.5C 45.5,17.5 45.5,16.5 45.5,15.5C 46.7479,14.6661 47.4146,13.3328 47.5,11.5C 47.4146,9.66723 46.7479,8.3339 45.5,7.5C 45.7932,3.17078 47.7932,1.83745 51.5,3.5 Z"/></g>
<g><path style="opacity:1" fill="#7e7e7e" d="M 42.5,8.5 C 42.6621,10.5273 42.4955,12.5273 42,14.5C 40.9887,15.3366 39.8221,15.67 38.5,15.5C 37.1667,25.1667 37.1667,34.8333 38.5,44.5C 38.1667,45.8333 37.8333,47.1667 37.5,48.5C 36.2264,49.1894 36.2264,50.0228 37.5,51C 36.9747,51.6924 36.3081,52.1924 35.5,52.5C 34.5009,39.5171 34.1675,26.5171 34.5,13.5C 36.8333,13.5 39.1667,13.5 41.5,13.5C 41.2155,11.5853 41.5489,9.91866 42.5,8.5 Z"/></g>
<g><path style="opacity:1" fill="#878787" d="M 10.5,14.5 C 12.2646,13.5386 14.2646,13.2053 16.5,13.5C 16.5,37.5 16.5,61.5 16.5,85.5C 15.8333,61.8333 15.1667,38.1667 14.5,14.5C 13.1667,14.5 11.8333,14.5 10.5,14.5 Z"/></g>
<g><path style="opacity:1" fill="#3c3c3c" d="M 38.5,15.5 C 38.1731,25.015 38.5064,34.3483 39.5,43.5C 39.5,44.1667 39.1667,44.5 38.5,44.5C 37.1667,34.8333 37.1667,25.1667 38.5,15.5 Z"/></g>
<g><path style="opacity:1" fill="#1c823d" d="M 45.5,15.5 C 45.5,16.5 45.5,17.5 45.5,18.5C 44.5,18.5 43.5,18.5 42.5,18.5C 42.5,23.5 42.5,28.5 42.5,33.5C 43.5,33.5 44.5,33.5 45.5,33.5C 44.8333,34.5 44.1667,35.5 43.5,36.5C 41.5467,30.9262 40.88,24.9262 41.5,18.5C 42.795,17.5116 44.1283,16.5116 45.5,15.5 Z"/></g>
<g><path style="opacity:1" fill="#707170" d="M 95.5,7.5 C 96.6225,9.28841 96.7891,11.2884 96,13.5C 90.1867,19.9588 84.3534,26.2921 78.5,32.5C 71.0351,39.4641 63.7018,46.6308 56.5,54C 55.552,54.4828 54.552,54.6495 53.5,54.5C 54.1667,53.5 54.8333,52.5 55.5,51.5C 68.0769,38.4219 80.9103,25.4219 94,12.5C 94.3519,10.7525 94.8519,9.08584 95.5,7.5 Z"/></g>
<g><path style="opacity:1" fill="#093a18" d="M 41.5,18.5 C 40.88,24.9262 41.5467,30.9262 43.5,36.5C 42.791,37.404 41.791,37.7373 40.5,37.5C 40.1765,30.9779 40.5098,24.6446 41.5,18.5 Z"/></g>
<g><path style="opacity:1" fill="#182319" d="M 61.5,19.5 C 61.5,20.1667 61.8333,20.5 62.5,20.5C 55.8333,27.8333 48.8333,34.8333 41.5,41.5C 41.1667,40.1667 40.8333,38.8333 40.5,37.5C 41.791,37.7373 42.791,37.404 43.5,36.5C 44.1667,35.5 44.8333,34.5 45.5,33.5C 50.5569,28.4382 55.8902,23.7715 61.5,19.5 Z"/></g>
<g><path style="opacity:1" fill="#f0f3f1" d="M 43.5,43.5 C 41.5,45.1667 39.5,46.8333 37.5,48.5C 37.8333,47.1667 38.1667,45.8333 38.5,44.5C 39.1667,44.5 39.5,44.1667 39.5,43.5C 40.5,43.1667 41.1667,42.5 41.5,41.5C 48.8333,34.8333 55.8333,27.8333 62.5,20.5C 64.1667,19.5 65.5,18.1667 66.5,16.5C 68.3531,15.3857 68.8531,16.0524 68,18.5C 59.631,26.7017 51.4643,35.035 43.5,43.5 Z"/></g>
<g><path style="opacity:1" fill="#74dc9b" d="M 9.5,41.5 C 10.404,42.209 10.7373,43.209 10.5,44.5C 8.5,45.8333 6.83333,47.5 5.5,49.5C 4.83333,49.5 4.16667,49.5 3.5,49.5C 3.06178,49.5654 2.72845,49.3988 2.5,49C 5.03856,46.6303 7.3719,44.1303 9.5,41.5 Z"/></g>
<g><path style="opacity:1" fill="#ebecea" d="M 14.5,14.5 C 15.1667,38.1667 15.8333,61.8333 16.5,85.5C 16.5,86.1667 16.5,86.8333 16.5,87.5C 15.5,87.1667 14.8333,86.5 14.5,85.5C 14.5,61.8333 14.5,38.1667 14.5,14.5 Z"/></g>
<g><path style="opacity:1" fill="#128a33" d="M 10.5,44.5 C 11.0815,48.3155 10.2482,51.6488 8,54.5C 6.9055,52.9221 6.07217,51.2554 5.5,49.5C 6.83333,47.5 8.5,45.8333 10.5,44.5 Z"/></g>
<g><path style="opacity:1" fill="#10541d" d="M 9.5,41.5 C 9.55999,40.9569 9.89333,40.6236 10.5,40.5C 11.4954,46.1278 11.8288,51.7945 11.5,57.5C 7.20287,56.5363 4.5362,53.8696 3.5,49.5C 4.16667,49.5 4.83333,49.5 5.5,49.5C 6.07217,51.2554 6.9055,52.9221 8,54.5C 10.2482,51.6488 11.0815,48.3155 10.5,44.5C 10.7373,43.209 10.404,42.209 9.5,41.5 Z"/></g>
<g><path style="opacity:1" fill="#5d5e5d" d="M 9.5,14.5 C 9.83333,14.5 10.1667,14.5 10.5,14.5C 11.8333,14.5 13.1667,14.5 14.5,14.5C 14.5,38.1667 14.5,61.8333 14.5,85.5C 13.5025,62.3393 13.1691,39.006 13.5,15.5C 11.901,15.7678 10.5676,15.4345 9.5,14.5 Z"/></g>
<g><path style="opacity:0.501" fill="#0e130e" d="M 78.5,32.5 C 80.1667,32.5 81.8333,32.5 83.5,32.5C 88.5541,38.2208 93.8875,43.5542 99.5,48.5C 99.5,49.1667 99.5,49.8333 99.5,50.5C 94.6718,55.1012 90.0051,59.9345 85.5,65C 88.4262,65.2178 91.2595,65.7178 94,66.5C 94.3005,71.9471 93.1338,77.1137 90.5,82C 91.5171,84.4733 91.5171,86.9733 90.5,89.5C 86.8183,89.6653 83.1516,89.4986 79.5,89C 78.5,85.6667 77.5,85.6667 76.5,89C 73.1667,89.6667 69.8333,89.6667 66.5,89C 65.6644,84.8321 64.6644,84.6654 63.5,88.5C 61.8872,89.4274 60.2205,90.2607 58.5,91C 55.6286,93.7028 52.9619,96.5361 50.5,99.5C 49.5,99.5 48.5,99.5 47.5,99.5C 44.8333,96.5 42.1667,93.5 39.5,90.5C 40.4709,89.0379 40.1376,87.7046 38.5,86.5C 39.1667,86.5 39.5,86.1667 39.5,85.5C 39.8333,85.5 40.1667,85.5 40.5,85.5C 42.9878,87.3878 45.9878,88.0545 49.5,87.5C 49.5,87.8333 49.5,88.1667 49.5,88.5C 46.7531,88.1866 44.0865,88.52 41.5,89.5C 43.8167,92.3174 46.3167,94.9841 49,97.5C 52.2258,95.1311 54.3924,92.1311 55.5,88.5C 55.1667,87.8333 54.8333,87.1667 54.5,86.5C 56.8568,86.6633 59.1902,86.4966 61.5,86C 60.7839,82.9038 61.4506,80.0705 63.5,77.5C 63.3398,79.1992 63.5065,80.8659 64,82.5C 65.6667,80.8333 67.3333,79.1667 69,77.5C 69.6397,75.735 69.4731,74.0683 68.5,72.5C 69.5,72.5 70.5,72.5 71.5,72.5C 70.7066,76.8805 69.7066,81.2138 68.5,85.5C 67.9569,85.56 67.6236,85.8933 67.5,86.5C 70.3092,87.8003 72.9759,87.8003 75.5,86.5C 74.6811,82.0633 75.3478,77.73 77.5,73.5C 79.7427,72.5258 82.076,72.1924 84.5,72.5C 83.9072,77.2721 82.9072,81.9388 81.5,86.5C 83.8568,86.6633 86.1902,86.4966 88.5,86C 88.0426,85.586 87.7093,85.086 87.5,84.5C 89.3803,78.8627 91.047,73.196 92.5,67.5C 88.5751,67.112 84.9085,67.7787 81.5,69.5C 79.9623,69.5466 78.9623,68.8799 78.5,67.5C 78.5,67.1667 78.5,66.8333 78.5,66.5C 85.1667,61.8333 90.8333,56.1667 95.5,49.5C 96.525,49.1034 96.6917,48.4368 96,47.5C 91.0423,43.5235 86.5423,39.1902 82.5,34.5C 81.5,33.1667 80.5,33.1667 79.5,34.5C 74.5,38.8333 69.8333,43.5 65.5,48.5C 63.4032,50.9842 61.0699,53.3176 58.5,55.5C 57.8333,55.8333 57.1667,56.1667 56.5,56.5C 51.7228,55.6303 49.7228,57.297 50.5,61.5C 50.8333,62.1667 51.1667,62.8333 51.5,63.5C 50.7109,63.7828 50.0442,64.2828 49.5,65C 51.1341,65.4935 52.8008,65.6602 54.5,65.5C 54.5,66.5 54.5,67.5 54.5,68.5C 54.1667,68.5 53.8333,68.5 53.5,68.5C 53.5,68.1667 53.5,67.8333 53.5,67.5C 50.3586,66.6787 47.0252,66.1787 43.5,66C 46.5117,64.8988 47.845,63.0655 47.5,60.5C 48.1897,57.1435 50.1897,55.1435 53.5,54.5C 54.552,54.6495 55.552,54.4828 56.5,54C 63.7018,46.6308 71.0351,39.4641 78.5,32.5 Z M 79.5,74.5 C 80.675,74.281 81.675,74.6143 82.5,75.5C 77.9913,87.4948 76.9913,87.1615 79.5,74.5 Z"/></g>
<g><path style="opacity:1" fill="#15381d" d="M 58.5,55.5 C 57.8916,58.3267 56.8916,60.9933 55.5,63.5C 54.1667,63.5 52.8333,63.5 51.5,63.5C 51.1667,62.8333 50.8333,62.1667 50.5,61.5C 52.1667,61.5 53.8333,61.5 55.5,61.5C 55.6287,59.7839 55.962,58.1172 56.5,56.5C 57.1667,56.1667 57.8333,55.8333 58.5,55.5 Z"/></g>
<g><path style="opacity:1" fill="#bdc5bf" d="M 56.5,56.5 C 55.962,58.1172 55.6287,59.7839 55.5,61.5C 53.8333,61.5 52.1667,61.5 50.5,61.5C 49.7228,57.297 51.7228,55.6303 56.5,56.5 Z"/></g>
<g><path style="opacity:1" fill="#095114" d="M 93.5,49.5 C 94.1667,49.5 94.8333,49.5 95.5,49.5C 90.8333,56.1667 85.1667,61.8333 78.5,66.5C 78.5,66.1667 78.5,65.8333 78.5,65.5C 78.5,65.1667 78.5,64.8333 78.5,64.5C 83.8333,59.8333 88.8333,54.8333 93.5,49.5 Z"/></g>
<g><path style="opacity:1" fill="#127834" d="M 79.5,34.5 C 79.1077,36.1789 78.6077,37.8455 78,39.5C 75.1395,41.6938 72.6395,44.1938 70.5,47C 68.8455,47.6077 67.1789,48.1077 65.5,48.5C 69.8333,43.5 74.5,38.8333 79.5,34.5 Z"/></g>
<g><path style="opacity:1" fill="#4bc93a" d="M 82.5,34.5 C 86.5423,39.1902 91.0423,43.5235 96,47.5C 96.6917,48.4368 96.525,49.1034 95.5,49.5C 94.8333,49.5 94.1667,49.5 93.5,49.5C 89.5368,45.0355 85.3702,40.7022 81,36.5C 80.4719,35.184 80.9719,34.5173 82.5,34.5 Z"/></g>
<g><path style="opacity:1" fill="#069531" d="M 82.5,34.5 C 80.9719,34.5173 80.4719,35.184 81,36.5C 85.3702,40.7022 89.5368,45.0355 93.5,49.5C 88.8333,54.8333 83.8333,59.8333 78.5,64.5C 71.3134,64.1755 64.3134,64.5088 57.5,65.5C 56.1667,65.5 55.5,64.8333 55.5,63.5C 56.8916,60.9933 57.8916,58.3267 58.5,55.5C 61.0699,53.3176 63.4032,50.9842 65.5,48.5C 67.1789,48.1077 68.8455,47.6077 70.5,47C 72.6395,44.1938 75.1395,41.6938 78,39.5C 78.6077,37.8455 79.1077,36.1789 79.5,34.5C 80.5,33.1667 81.5,33.1667 82.5,34.5 Z"/></g>
<g><path style="opacity:1" fill="#1c833b" d="M 57.5,65.5 C 64.3134,64.5088 71.3134,64.1755 78.5,64.5C 78.5,64.8333 78.5,65.1667 78.5,65.5C 75.3056,65.2695 72.3056,65.9362 69.5,67.5C 65.7535,65.7465 61.7535,65.0799 57.5,65.5 Z"/></g>
<g><path style="opacity:1" fill="#0e3115" d="M 57.5,65.5 C 61.7535,65.0799 65.7535,65.7465 69.5,67.5C 72.3056,65.9362 75.3056,65.2695 78.5,65.5C 78.5,65.8333 78.5,66.1667 78.5,66.5C 78.5,66.8333 78.5,67.1667 78.5,67.5C 75.2346,67.2082 72.2346,67.8749 69.5,69.5C 66.0799,67.6135 62.4133,67.1135 58.5,68C 59.0585,68.7247 59.3918,69.5581 59.5,70.5C 57.8267,75.8683 56.16,81.2017 54.5,86.5C 54.8333,87.1667 55.1667,87.8333 55.5,88.5C 54.8333,88.5 54.1667,88.5 53.5,88.5C 52.9033,88.2648 52.5699,87.7648 52.5,87C 54.6519,82.0428 56.3186,76.8762 57.5,71.5C 56.1835,69.4815 56.1835,67.4815 57.5,65.5 Z"/></g>
<g><path style="opacity:1" fill="#16351c" d="M 53.5,68.5 C 53.8333,68.5 54.1667,68.5 54.5,68.5C 51.4939,74.0256 50.4939,79.859 51.5,86C 51.1639,87.0299 50.4972,87.5299 49.5,87.5C 49.0962,86.2436 48.4295,85.0769 47.5,84C 49.286,78.6339 51.286,73.4672 53.5,68.5 Z"/></g>
<g><path style="opacity:1" fill="#c2c3c4" d="M 78.5,67.5 C 78.9623,68.8799 79.9623,69.5466 81.5,69.5C 84.9085,67.7787 88.5751,67.112 92.5,67.5C 91.047,73.196 89.3803,78.8627 87.5,84.5C 87.7093,85.086 88.0426,85.586 88.5,86C 86.1902,86.4966 83.8568,86.6633 81.5,86.5C 82.9072,81.9388 83.9072,77.2721 84.5,72.5C 82.076,72.1924 79.7427,72.5258 77.5,73.5C 75.3478,77.73 74.6811,82.0633 75.5,86.5C 72.9407,86.8016 70.6074,86.4682 68.5,85.5C 69.7066,81.2138 70.7066,76.8805 71.5,72.5C 70.5,72.5 69.5,72.5 68.5,72.5C 64.8493,72.1617 63.1826,73.8284 63.5,77.5C 61.4506,80.0705 60.7839,82.9038 61.5,86C 59.1902,86.4966 56.8568,86.6633 54.5,86.5C 56.16,81.2017 57.8267,75.8683 59.5,70.5C 59.3918,69.5581 59.0585,68.7247 58.5,68C 62.4133,67.1135 66.0799,67.6135 69.5,69.5C 72.2346,67.8749 75.2346,67.2082 78.5,67.5 Z M 79.5,74.5 C 76.9913,87.1615 77.9913,87.4948 82.5,75.5C 81.675,74.6143 80.675,74.281 79.5,74.5 Z"/></g>
<g><path style="opacity:1" fill="#bcc4c1" d="M 44.5,68.5 C 47.2869,67.5233 50.2869,67.19 53.5,67.5C 53.5,67.8333 53.5,68.1667 53.5,68.5C 51.286,73.4672 49.286,78.6339 47.5,84C 48.4295,85.0769 49.0962,86.2436 49.5,87.5C 45.9878,88.0545 42.9878,87.3878 40.5,85.5C 42.613,81.419 44.2797,77.0857 45.5,72.5C 45.5394,71.4168 45.8728,70.4168 46.5,69.5C 46.0431,68.7025 45.3764,68.3691 44.5,68.5 Z"/></g>
<g><path style="opacity:1" fill="#163c1d" d="M 45.5,72.5 C 44.2797,77.0857 42.613,81.419 40.5,85.5C 40.1667,85.5 39.8333,85.5 39.5,85.5C 40.038,83.8828 40.3713,82.2161 40.5,80.5C 42.3117,78.2866 42.6451,75.9533 41.5,73.5C 42.4033,71.3796 43.7367,71.0462 45.5,72.5 Z"/></g>
<g><path style="opacity:1" fill="#6b6b6b" d="M 47.5,60.5 C 47.845,63.0655 46.5117,64.8988 43.5,66C 47.0252,66.1787 50.3586,66.6787 53.5,67.5C 50.2869,67.19 47.2869,67.5233 44.5,68.5C 43.8826,68.3893 43.3826,68.056 43,67.5C 37.1987,74.3025 31.0321,80.8025 24.5,87C 21.854,87.4974 19.1873,87.6641 16.5,87.5C 16.5,86.8333 16.5,86.1667 16.5,85.5C 18.8568,85.6633 21.1902,85.4966 23.5,85C 31.0597,76.2749 39.0597,68.1083 47.5,60.5 Z"/></g>
<g><path style="opacity:1" fill="#0e4318" d="M 68.5,72.5 C 69.4731,74.0683 69.6397,75.735 69,77.5C 67.3333,79.1667 65.6667,80.8333 64,82.5C 63.5065,80.8659 63.3398,79.1992 63.5,77.5C 63.1826,73.8284 64.8493,72.1617 68.5,72.5 Z"/></g>
<g><path style="opacity:1" fill="#1c803d" d="M 41.5,73.5 C 42.6451,75.9533 42.3117,78.2866 40.5,80.5C 39.7784,80.9175 39.2784,81.5842 39,82.5C 36.5274,81.2595 36.0274,79.5929 37.5,77.5C 38.5,75.8333 39.8333,74.5 41.5,73.5 Z"/></g>
<g><path style="opacity:1" fill="#1c8037" d="M 51.5,63.5 C 52.8333,63.5 54.1667,63.5 55.5,63.5C 55.5,64.8333 56.1667,65.5 57.5,65.5C 56.1835,67.4815 56.1835,69.4815 57.5,71.5C 56.3186,76.8762 54.6519,82.0428 52.5,87C 52.5699,87.7648 52.9033,88.2648 53.5,88.5C 52.8074,92.1702 50.8074,93.1702 47.5,91.5C 48.1925,90.4822 48.8592,89.4822 49.5,88.5C 49.5,88.1667 49.5,87.8333 49.5,87.5C 50.4972,87.5299 51.1639,87.0299 51.5,86C 50.4939,79.859 51.4939,74.0256 54.5,68.5C 54.5,67.5 54.5,66.5 54.5,65.5C 52.8008,65.6602 51.1341,65.4935 49.5,65C 50.0442,64.2828 50.7109,63.7828 51.5,63.5 Z"/></g>
<g><path style="opacity:1" fill="#105d20" d="M 37.5,77.5 C 36.0274,79.5929 36.5274,81.2595 39,82.5C 39.2784,81.5842 39.7784,80.9175 40.5,80.5C 40.3713,82.2161 40.038,83.8828 39.5,85.5C 39.5,86.1667 39.1667,86.5 38.5,86.5C 32.5993,83.795 32.2659,80.795 37.5,77.5 Z"/></g>
<g><path style="opacity:1" fill="#575858" d="M 68.5,85.5 C 70.6074,86.4682 72.9407,86.8016 75.5,86.5C 72.9759,87.8003 70.3092,87.8003 67.5,86.5C 67.6236,85.8933 67.9569,85.56 68.5,85.5 Z"/></g>
<g><path style="opacity:1" fill="#12561d" d="M 49.5,88.5 C 48.8592,89.4822 48.1925,90.4822 47.5,91.5C 50.8074,93.1702 52.8074,92.1702 53.5,88.5C 54.1667,88.5 54.8333,88.5 55.5,88.5C 54.3924,92.1311 52.2258,95.1311 49,97.5C 46.3167,94.9841 43.8167,92.3174 41.5,89.5C 44.0865,88.52 46.7531,88.1866 49.5,88.5 Z"/></g>
</svg>
