<?xml version="1.0" encoding="UTF-8"?>
<!DOCTYPE svg PUBLIC "-//W3C//DTD SVG 1.1//EN" "http://www.w3.org/Graphics/SVG/1.1/DTD/svg11.dtd">
<svg xmlns="http://www.w3.org/2000/svg" version="1.1" width="100px" height="100px" style="shape-rendering:geometricPrecision; text-rendering:geometricPrecision; image-rendering:optimizeQuality; fill-rule:evenodd; clip-rule:evenodd" xmlns:xlink="http://www.w3.org/1999/xlink">
<g><path style="opacity:1" fill="#9166bd" d="M 68.5,0.5 C 69.791,0.262695 70.791,0.596028 71.5,1.5C 71.1961,2.14987 70.8627,2.81654 70.5,3.5C 71.8532,4.5237 72.5198,5.85703 72.5,7.5C 71.5,7.5 70.5,7.5 69.5,7.5C 68.7784,7.08247 68.2784,6.4158 68,5.5C 67.2588,6.64055 66.4255,6.64055 65.5,5.5C 64.3578,6.82624 63.0245,7.82624 61.5,8.5C 63.0941,5.2358 65.4275,2.56913 68.5,0.5 Z"/></g>
<g><path style="opacity:0.989" fill="#c297f2" d="M 68.5,0.5 C 68.5,0.166667 68.5,-0.166667 68.5,-0.5C 71.5,-0.5 74.5,-0.5 77.5,-0.5C 84.7985,3.48409 92.1318,7.48409 99.5,11.5C 99.5,12.8333 99.5,14.1667 99.5,15.5C 92.8333,15.5 86.1667,15.5 79.5,15.5C 79.5,14.1667 79.5,12.8333 79.5,11.5C 78.1667,11.5 76.8333,11.5 75.5,11.5C 75.6646,8.48162 75.498,5.48162 75,2.5C 74.6174,1.94404 74.1174,1.61071 73.5,1.5C 72.8333,1.5 72.1667,1.5 71.5,1.5C 70.791,0.596028 69.791,0.262695 68.5,0.5 Z"/></g>
<g><path style="opacity:1" fill="#8c60c4" d="M 69.5,7.5 C 72.3569,11.1303 71.5235,13.7969 67,15.5C 65.1131,15.0314 63.6131,14.0314 62.5,12.5C 60.8839,13.1152 59.5505,14.1152 58.5,15.5C 57.8182,14.7573 57.1515,14.0906 56.5,13.5C 57.8333,11.5 59.5,9.83333 61.5,8.5C 63.0245,7.82624 64.3578,6.82624 65.5,5.5C 66.4255,6.64055 67.2588,6.64055 68,5.5C 68.2784,6.4158 68.7784,7.08247 69.5,7.5 Z"/></g>
<g><path style="opacity:1" fill="#8c60c0" d="M 71.5,1.5 C 72.1667,1.5 72.8333,1.5 73.5,1.5C 74.7919,10.9617 74.7919,20.295 73.5,29.5C 73.5405,26.1194 73.2071,22.7861 72.5,19.5C 65.554,18.991 58.554,18.991 51.5,19.5C 52.4194,16.9108 54.086,14.9108 56.5,13.5C 57.1515,14.0906 57.8182,14.7573 58.5,15.5C 59.5505,14.1152 60.8839,13.1152 62.5,12.5C 63.6131,14.0314 65.1131,15.0314 67,15.5C 71.5235,13.7969 72.3569,11.1303 69.5,7.5C 70.5,7.5 71.5,7.5 72.5,7.5C 72.5198,5.85703 71.8532,4.5237 70.5,3.5C 70.8627,2.81654 71.1961,2.14987 71.5,1.5 Z"/></g>
<g><path style="opacity:1" fill="#c194f3" d="M 75.5,11.5 C 76.8333,11.5 78.1667,11.5 79.5,11.5C 79.5,12.8333 79.5,14.1667 79.5,15.5C 86.1667,15.5 92.8333,15.5 99.5,15.5C 99.5,16.8333 99.5,18.1667 99.5,19.5C 98.1667,19.5 96.8333,19.5 95.5,19.5C 95.5,20.8333 95.5,22.1667 95.5,23.5C 90.1667,23.5 84.8333,23.5 79.5,23.5C 79.5,22.1667 79.5,20.8333 79.5,19.5C 78.1667,19.5 76.8333,19.5 75.5,19.5C 75.5,16.8333 75.5,14.1667 75.5,11.5 Z"/></g>
<g><path style="opacity:1" fill="#8659bb" d="M 73.5,29.5 C 73.5,29.8333 73.5,30.1667 73.5,30.5C 69.8333,33.1667 66.1667,35.8333 62.5,38.5C 62.5,37.5 62.5,36.5 62.5,35.5C 64.907,34.2055 67.0737,32.5389 69,30.5C 69.6667,29.1667 69.6667,27.8333 69,26.5C 65.4721,30.2024 61.6388,31.2024 57.5,29.5C 54.6121,32.4621 53.2787,31.7954 53.5,27.5C 51.8561,27.2865 50.3561,27.6198 49,28.5C 47.5295,27.7334 46.0295,27.0668 44.5,26.5C 45.1667,25.1667 46.1667,24.1667 47.5,23.5C 49.5,22.8333 50.8333,21.5 51.5,19.5C 58.554,18.991 65.554,18.991 72.5,19.5C 73.2071,22.7861 73.5405,26.1194 73.5,29.5 Z"/></g>
<g><path style="opacity:1" fill="#986dcb" d="M 15.5,20.5 C 15.2852,22.1788 15.9519,23.1788 17.5,23.5C 18.4916,23.3284 19.1583,23.6618 19.5,24.5C 18.4502,24.9046 18.4502,25.5712 19.5,26.5C 18.3112,27.4287 16.9778,27.762 15.5,27.5C 15.8333,24.5 14.5,23.1667 11.5,23.5C 11.81,26.7131 11.4767,29.7131 10.5,32.5C 8.08288,30.5889 5.74955,28.4222 3.5,26C 2.20677,25.51 0.873441,25.3433 -0.5,25.5C -0.5,24.8333 -0.5,24.1667 -0.5,23.5C 4.48052,20.251 9.81385,19.251 15.5,20.5 Z"/></g>
<g><path style="opacity:0.157" fill="#7c60b0" d="M 51.5,19.5 C 50.8333,21.5 49.5,22.8333 47.5,23.5C 48.1667,21.5 49.5,20.1667 51.5,19.5 Z"/></g>
<g><path style="opacity:0.29" fill="#8c79be" d="M 15.5,20.5 C 16.4013,21.2905 17.0679,22.2905 17.5,23.5C 15.9519,23.1788 15.2852,22.1788 15.5,20.5 Z"/></g>
<g><path style="opacity:1" fill="#7046a1" d="M -0.5,25.5 C 0.873441,25.3433 2.20677,25.51 3.5,26C 5.74955,28.4222 8.08288,30.5889 10.5,32.5C 10.8333,33.1667 11.1667,33.8333 11.5,34.5C 10.4271,36.3469 10.4271,38.3469 11.5,40.5C 9.51061,39.3384 7.67727,38.0051 6,36.5C 4.18141,38.1257 2.84808,40.1257 2,42.5C 1.87838,40.563 1.04504,39.2297 -0.5,38.5C -0.5,34.1667 -0.5,29.8333 -0.5,25.5 Z"/></g>
<g><path style="opacity:1" fill="#8556bc" d="M 44.5,26.5 C 46.0295,27.0668 47.5295,27.7334 49,28.5C 50.3561,27.6198 51.8561,27.2865 53.5,27.5C 53.2787,31.7954 54.6121,32.4621 57.5,29.5C 61.6388,31.2024 65.4721,30.2024 69,26.5C 69.6667,27.8333 69.6667,29.1667 69,30.5C 67.0737,32.5389 64.907,34.2055 62.5,35.5C 58.2408,35.9975 54.2408,35.3308 50.5,33.5C 49.3549,37.0385 47.5216,37.3718 45,34.5C 42.5024,35.7785 40.0024,35.7785 37.5,34.5C 39.853,31.7522 42.1863,29.0855 44.5,26.5 Z"/></g>
<g><path style="opacity:0.999" fill="#bd90f0" d="M 73.5,1.5 C 74.1174,1.61071 74.6174,1.94404 75,2.5C 75.498,5.48162 75.6646,8.48162 75.5,11.5C 75.5,14.1667 75.5,16.8333 75.5,19.5C 76.8333,19.5 78.1667,19.5 79.5,19.5C 79.5,20.8333 79.5,22.1667 79.5,23.5C 84.8333,23.5 90.1667,23.5 95.5,23.5C 95.5,22.1667 95.5,20.8333 95.5,19.5C 96.8333,19.5 98.1667,19.5 99.5,19.5C 99.5,24.8333 99.5,30.1667 99.5,35.5C 98.1667,35.5 96.8333,35.5 95.5,35.5C 95.5,34.1667 95.5,32.8333 95.5,31.5C 92.8333,31.5 90.1667,31.5 87.5,31.5C 87.5,32.8333 87.5,34.1667 87.5,35.5C 84.8333,35.5 82.1667,35.5 79.5,35.5C 79.6309,34.6236 79.2975,33.9569 78.5,33.5C 77.4104,34.3914 77.4104,35.3914 78.5,36.5C 77.6721,37.4147 76.6721,38.0814 75.5,38.5C 74.502,47.1411 74.1686,55.8078 74.5,64.5C 74.6716,65.4916 74.3382,66.1583 73.5,66.5C 73.5,54.5 73.5,42.5 73.5,30.5C 73.5,30.1667 73.5,29.8333 73.5,29.5C 74.7919,20.295 74.7919,10.9617 73.5,1.5 Z"/></g>
<g><path style="opacity:1" fill="#986ccf" d="M 19.5,24.5 C 23.8633,27.2025 27.5299,30.5358 30.5,34.5C 29.2022,33.8843 28.2022,33.8843 27.5,34.5C 24.2123,34.927 21.2123,34.2603 18.5,32.5C 16.6322,34.2615 15.2989,36.2615 14.5,38.5C 13.5098,44.6446 13.1765,50.9779 13.5,57.5C 13.1667,57.5 12.8333,57.5 12.5,57.5C 12.799,49.747 12.4657,42.0804 11.5,34.5C 11.1667,33.8333 10.8333,33.1667 10.5,32.5C 11.4767,29.7131 11.81,26.7131 11.5,23.5C 14.5,23.1667 15.8333,24.5 15.5,27.5C 16.9778,27.762 18.3112,27.4287 19.5,26.5C 18.4502,25.5712 18.4502,24.9046 19.5,24.5 Z"/></g>
<g><path style="opacity:0.996" fill="#8252ba" d="M 62.5,35.5 C 62.5,36.5 62.5,37.5 62.5,38.5C 60.3932,40.7267 58.0599,42.7267 55.5,44.5C 54.791,43.596 53.791,43.2627 52.5,43.5C 52.5,44.5 52.5,45.5 52.5,46.5C 52.1667,47.5 51.5,48.1667 50.5,48.5C 48.6916,48.5086 47.0249,48.0086 45.5,47C 43.6298,44.9604 41.6298,43.1271 39.5,41.5C 37.2103,40.5095 35.5437,38.8429 34.5,36.5C 35.5,35.8333 36.5,35.1667 37.5,34.5C 40.0024,35.7785 42.5024,35.7785 45,34.5C 47.5216,37.3718 49.3549,37.0385 50.5,33.5C 54.2408,35.3308 58.2408,35.9975 62.5,35.5 Z"/></g>
<g><path style="opacity:0.997" fill="#ba8af2" d="M 79.5,35.5 C 80.0198,39.3474 80.0198,43.3474 79.5,47.5C 82.1667,47.5 84.8333,47.5 87.5,47.5C 87.5,44.8333 87.5,42.1667 87.5,39.5C 90.1667,39.5 92.8333,39.5 95.5,39.5C 95.5,42.1667 95.5,44.8333 95.5,47.5C 96.8333,47.5 98.1667,47.5 99.5,47.5C 99.5,50.1667 99.5,52.8333 99.5,55.5C 92.8333,55.5 86.1667,55.5 79.5,55.5C 79.1667,59.5 78.8333,59.5 78.5,55.5C 77.5,55.5 76.5,55.5 75.5,55.5C 75.5,58.5 75.5,61.5 75.5,64.5C 75.1667,64.5 74.8333,64.5 74.5,64.5C 74.1686,55.8078 74.502,47.1411 75.5,38.5C 76.6721,38.0814 77.6721,37.4147 78.5,36.5C 77.4104,35.3914 77.4104,34.3914 78.5,33.5C 79.2975,33.9569 79.6309,34.6236 79.5,35.5 Z"/></g>
<g><path style="opacity:0.996" fill="#9768cb" d="M 27.5,34.5 C 27.8212,36.0481 28.8212,36.7148 30.5,36.5C 30.5,37.5 30.5,38.5 30.5,39.5C 29.5,39.5 28.5,39.5 27.5,39.5C 27.5,40.8333 27.5,42.1667 27.5,43.5C 24.5,43.5 21.5,43.5 18.5,43.5C 17.197,41.8577 15.8637,40.1911 14.5,38.5C 15.2989,36.2615 16.6322,34.2615 18.5,32.5C 21.2123,34.2603 24.2123,34.927 27.5,34.5 Z"/></g>
<g><path style="opacity:1" fill="#bc8df2" d="M 99.5,35.5 C 99.5,39.5 99.5,43.5 99.5,47.5C 98.1667,47.5 96.8333,47.5 95.5,47.5C 95.5,44.8333 95.5,42.1667 95.5,39.5C 92.8333,39.5 90.1667,39.5 87.5,39.5C 87.5,42.1667 87.5,44.8333 87.5,47.5C 84.8333,47.5 82.1667,47.5 79.5,47.5C 80.0198,43.3474 80.0198,39.3474 79.5,35.5C 82.1667,35.5 84.8333,35.5 87.5,35.5C 87.5,34.1667 87.5,32.8333 87.5,31.5C 90.1667,31.5 92.8333,31.5 95.5,31.5C 95.5,32.8333 95.5,34.1667 95.5,35.5C 96.8333,35.5 98.1667,35.5 99.5,35.5 Z"/></g>
<g><path style="opacity:1" fill="#6a409a" d="M 11.5,40.5 C 11.8134,43.2469 11.48,45.9135 10.5,48.5C 9.48772,45.6619 7.48772,44.3286 4.5,44.5C 4.86741,48.881 3.20074,50.5476 -0.5,49.5C -0.5,45.8333 -0.5,42.1667 -0.5,38.5C 1.04504,39.2297 1.87838,40.563 2,42.5C 2.84808,40.1257 4.18141,38.1257 6,36.5C 7.67727,38.0051 9.51061,39.3384 11.5,40.5 Z"/></g>
<g><path style="opacity:1" fill="#9565cf" d="M 30.5,34.5 C 32.3797,34.2291 33.713,34.8958 34.5,36.5C 35.5437,38.8429 37.2103,40.5095 39.5,41.5C 40.0476,43.3936 41.0476,45.0603 42.5,46.5C 42.0873,50.0437 40.4206,51.0437 37.5,49.5C 34.2184,50.4877 30.8851,51.1543 27.5,51.5C 26.4863,50.3263 25.153,49.6596 23.5,49.5C 21.823,47.4602 20.1563,45.4602 18.5,43.5C 21.5,43.5 24.5,43.5 27.5,43.5C 27.5,42.1667 27.5,40.8333 27.5,39.5C 28.5,39.5 29.5,39.5 30.5,39.5C 30.5,38.5 30.5,37.5 30.5,36.5C 28.8212,36.7148 27.8212,36.0481 27.5,34.5C 28.2022,33.8843 29.2022,33.8843 30.5,34.5 Z"/></g>
<g><path style="opacity:0.992" fill="#834dc5" d="M 55.5,44.5 C 55.0269,45.9063 54.0269,46.573 52.5,46.5C 52.5,45.5 52.5,44.5 52.5,43.5C 53.791,43.2627 54.791,43.596 55.5,44.5 Z"/></g>
<g><path style="opacity:0.967" fill="#663b99" d="M 11.5,34.5 C 12.4657,42.0804 12.799,49.747 12.5,57.5C 12.5,58.1667 12.5,58.8333 12.5,59.5C 8.31203,58.8871 3.9787,58.8871 -0.5,59.5C -0.5,56.1667 -0.5,52.8333 -0.5,49.5C 3.20074,50.5476 4.86741,48.881 4.5,44.5C 7.48772,44.3286 9.48772,45.6619 10.5,48.5C 11.48,45.9135 11.8134,43.2469 11.5,40.5C 10.4271,38.3469 10.4271,36.3469 11.5,34.5 Z"/></g>
<g><path style="opacity:0.998" fill="#9160ca" d="M 39.5,41.5 C 41.6298,43.1271 43.6298,44.9604 45.5,47C 47.0249,48.0086 48.6916,48.5086 50.5,48.5C 56.177,54.1759 62.177,59.5092 68.5,64.5C 65.3681,63.4335 62.3681,62.1001 59.5,60.5C 57.3344,60.4296 57.0011,61.0962 58.5,62.5C 55.5719,63.4841 52.5719,63.8174 49.5,63.5C 49.762,64.9778 49.4287,66.3112 48.5,67.5C 46.8333,66.5 45.5,65.1667 44.5,63.5C 43.7492,64.376 43.2492,65.376 43,66.5C 41.7083,65.2089 40.5417,65.2089 39.5,66.5C 38.0613,64.6397 36.3947,62.973 34.5,61.5C 34.6495,60.448 34.4828,59.448 34,58.5C 30.8974,56.9019 28.7307,54.5686 27.5,51.5C 30.8851,51.1543 34.2184,50.4877 37.5,49.5C 40.4206,51.0437 42.0873,50.0437 42.5,46.5C 41.0476,45.0603 40.0476,43.3936 39.5,41.5 Z"/></g>
<g><path style="opacity:0.997" fill="#7b47b6" d="M 23.5,49.5 C 25.153,49.6596 26.4863,50.3263 27.5,51.5C 28.7307,54.5686 30.8974,56.9019 34,58.5C 34.4828,59.448 34.6495,60.448 34.5,61.5C 31.4797,64.5162 28.1464,67.1829 24.5,69.5C 22.0842,68.0318 19.4175,67.3651 16.5,67.5C 14.104,67.3623 11.7707,67.029 9.5,66.5C 10.925,65.078 11.925,63.4113 12.5,61.5C 13.5,61.1667 14.1667,60.5 14.5,59.5C 17.4715,56.1924 20.4715,52.859 23.5,49.5 Z"/></g>
<g><path style="opacity:1" fill="#b786f1" d="M 99.5,55.5 C 99.5,60.8333 99.5,66.1667 99.5,71.5C 98.1667,71.5 96.8333,71.5 95.5,71.5C 95.5,68.8333 95.5,66.1667 95.5,63.5C 88.5,61.8333 85.8333,64.5 87.5,71.5C 85.1432,71.6633 82.8098,71.4966 80.5,71C 79.3094,68.4218 77.6428,66.2551 75.5,64.5C 75.5,61.5 75.5,58.5 75.5,55.5C 76.5,55.5 77.5,55.5 78.5,55.5C 78.8333,59.5 79.1667,59.5 79.5,55.5C 86.1667,55.5 92.8333,55.5 99.5,55.5 Z"/></g>
<g><path style="opacity:0.008" fill="#9466ca" d="M 12.5,57.5 C 12.8333,57.5 13.1667,57.5 13.5,57.5C 13.3284,58.4916 13.6618,59.1583 14.5,59.5C 14.1667,60.5 13.5,61.1667 12.5,61.5C 12.5,60.8333 12.5,60.1667 12.5,59.5C 12.5,58.8333 12.5,58.1667 12.5,57.5 Z"/></g>
<g><path style="opacity:1" fill="#613497" d="M 12.5,59.5 C 12.5,60.1667 12.5,60.8333 12.5,61.5C 11.925,63.4113 10.925,65.078 9.5,66.5C 7.70415,67.7927 6.03748,69.2927 4.5,71C 2.86586,71.4935 1.19919,71.6602 -0.5,71.5C -0.5,67.5 -0.5,63.5 -0.5,59.5C 3.9787,58.8871 8.31203,58.8871 12.5,59.5 Z"/></g>
<g><path style="opacity:1" fill="#b682f1" d="M 99.5,71.5 C 99.5,72.8333 99.5,74.1667 99.5,75.5C 92.8333,75.5 86.1667,75.5 79.5,75.5C 79.5,74.1667 79.5,72.8333 79.5,71.5C 77.3284,70.7945 75.3284,69.7945 73.5,68.5C 73.5,67.8333 73.5,67.1667 73.5,66.5C 74.3382,66.1583 74.6716,65.4916 74.5,64.5C 74.8333,64.5 75.1667,64.5 75.5,64.5C 77.6428,66.2551 79.3094,68.4218 80.5,71C 82.8098,71.4966 85.1432,71.6633 87.5,71.5C 85.8333,64.5 88.5,61.8333 95.5,63.5C 95.5,66.1667 95.5,68.8333 95.5,71.5C 96.8333,71.5 98.1667,71.5 99.5,71.5 Z"/></g>
<g><path style="opacity:0.992" fill="#7842b7" d="M 16.5,67.5 C 19.4175,67.3651 22.0842,68.0318 24.5,69.5C 24.5,70.1667 24.1667,70.5 23.5,70.5C 19.062,69.4251 17.062,71.0917 17.5,75.5C 17.1667,75.5 16.8333,75.5 16.5,75.5C 15.0527,74.3778 14.0527,72.8778 13.5,71C 11.7749,71.4087 10.1082,71.2421 8.5,70.5C 10.7662,69.6858 13.0995,69.1858 15.5,69C 16.056,68.6174 16.3893,68.1174 16.5,67.5 Z"/></g>
<g><path style="opacity:0.995" fill="#8f5acc" d="M 68.5,64.5 C 70.3492,65.593 72.0158,66.9263 73.5,68.5C 73.8333,69.1667 74.1667,69.8333 74.5,70.5C 74.8264,79.3494 74.493,88.0161 73.5,96.5C 73.5,89.8333 73.5,83.1667 73.5,76.5C 70.4908,76.577 68.3241,75.2437 67,72.5C 63.1518,73.5577 59.4851,74.8911 56,76.5C 55.4115,74.1367 53.9115,73.1367 51.5,73.5C 51.3713,75.2161 51.038,76.8828 50.5,78.5C 46.8521,74.5826 43.1854,70.5826 39.5,66.5C 40.5417,65.2089 41.7083,65.2089 43,66.5C 43.2492,65.376 43.7492,64.376 44.5,63.5C 45.5,65.1667 46.8333,66.5 48.5,67.5C 49.4287,66.3112 49.762,64.9778 49.5,63.5C 52.5719,63.8174 55.5719,63.4841 58.5,62.5C 57.0011,61.0962 57.3344,60.4296 59.5,60.5C 62.3681,62.1001 65.3681,63.4335 68.5,64.5 Z"/></g>
<g><path style="opacity:0.963" fill="#7240af" d="M 9.5,66.5 C 11.7707,67.029 14.104,67.3623 16.5,67.5C 16.3893,68.1174 16.056,68.6174 15.5,69C 13.0995,69.1858 10.7662,69.6858 8.5,70.5C 10.1082,71.2421 11.7749,71.4087 13.5,71C 14.0527,72.8778 15.0527,74.3778 16.5,75.5C 15.7585,78.1381 13.9251,79.4714 11,79.5C 7.2003,78.0142 3.36696,76.6808 -0.5,75.5C -0.5,74.1667 -0.5,72.8333 -0.5,71.5C 1.19919,71.6602 2.86586,71.4935 4.5,71C 6.03748,69.2927 7.70415,67.7927 9.5,66.5 Z"/></g>
<g><path style="opacity:0.821" fill="#7845b0" d="M 23.5,70.5 C 21.8171,72.5136 19.8171,74.1802 17.5,75.5C 17.062,71.0917 19.062,69.4251 23.5,70.5 Z"/></g>
<g><path style="opacity:1" fill="#b47ff0" d="M 73.5,68.5 C 75.3284,69.7945 77.3284,70.7945 79.5,71.5C 79.5,72.8333 79.5,74.1667 79.5,75.5C 86.1667,75.5 92.8333,75.5 99.5,75.5C 99.5,79.5 99.5,83.5 99.5,87.5C 95.2578,89.0905 91.2578,91.0905 87.5,93.5C 88.4889,91.2176 90.1556,89.5509 92.5,88.5C 86.8722,87.5046 81.2055,87.1712 75.5,87.5C 75.8222,81.642 75.4889,75.9753 74.5,70.5C 74.1667,69.8333 73.8333,69.1667 73.5,68.5 Z"/></g>
<g><path style="opacity:0.998" fill="#8954c8" d="M 73.5,96.5 C 72.713,98.1042 71.3797,98.7709 69.5,98.5C 62.4855,92.4853 56.1521,85.8187 50.5,78.5C 51.038,76.8828 51.3713,75.2161 51.5,73.5C 53.9115,73.1367 55.4115,74.1367 56,76.5C 59.4851,74.8911 63.1518,73.5577 67,72.5C 68.3241,75.2437 70.4908,76.577 73.5,76.5C 73.5,83.1667 73.5,89.8333 73.5,96.5 Z"/></g>
<g><path style="opacity:0.969" fill="#b17aee" d="M 74.5,70.5 C 75.4889,75.9753 75.8222,81.642 75.5,87.5C 81.2055,87.1712 86.8722,87.5046 92.5,88.5C 90.1556,89.5509 88.4889,91.2176 87.5,93.5C 83.3032,95.3286 79.3032,97.3286 75.5,99.5C 73.5,99.5 71.5,99.5 69.5,99.5C 69.5,99.1667 69.5,98.8333 69.5,98.5C 71.3797,98.7709 72.713,98.1042 73.5,96.5C 74.493,88.0161 74.8264,79.3494 74.5,70.5 Z"/></g>
</svg>
