<?xml version="1.0" encoding="UTF-8"?>
<!DOCTYPE svg PUBLIC "-//W3C//DTD SVG 1.1//EN" "http://www.w3.org/Graphics/SVG/1.1/DTD/svg11.dtd">
<svg xmlns="http://www.w3.org/2000/svg" version="1.1" width="100px" height="100px" style="shape-rendering:geometricPrecision; text-rendering:geometricPrecision; image-rendering:optimizeQuality; fill-rule:evenodd; clip-rule:evenodd" xmlns:xlink="http://www.w3.org/1999/xlink">
<g><path style="opacity:0.969" fill="#58b3e4" d="M 83.5,3.5 C 85.7837,3.97516 87.7837,4.97516 89.5,6.5C 88.0536,7.61295 86.3869,7.77961 84.5,7C 83.6634,5.98873 83.33,4.82207 83.5,3.5 Z"/></g>
<g><path style="opacity:1" fill="#3b88bb" d="M 68.5,-0.5 C 68.8333,-0.5 69.1667,-0.5 69.5,-0.5C 71.7426,0.132443 73.4093,1.46578 74.5,3.5C 70.9173,1.72354 69.9173,2.55687 71.5,6C 70.6216,7.80007 69.955,9.63341 69.5,11.5C 67.1229,11.2155 64.9562,11.2155 63,11.5C 61.7308,10.0953 61.2308,8.42865 61.5,6.5C 64.027,4.39463 66.3603,2.0613 68.5,-0.5 Z"/></g>
<g><path style="opacity:0.979" fill="#4eb1f1" d="M 81.5,2.5 C 82.1667,2.83333 82.8333,3.16667 83.5,3.5C 83.33,4.82207 83.6634,5.98873 84.5,7C 86.3869,7.77961 88.0536,7.61295 89.5,6.5C 93.2872,7.29389 96.6205,8.96056 99.5,11.5C 99.5,14.1667 99.5,16.8333 99.5,19.5C 92.8333,19.5 86.1667,19.5 79.5,19.5C 79.6602,21.1992 79.4935,22.8659 79,24.5C 78.6174,23.944 78.1174,23.6107 77.5,23.5C 76.9771,16.6087 76.3104,9.77541 75.5,3C 77.4727,2.50454 79.4727,2.33788 81.5,2.5 Z"/></g>
<g><path style="opacity:1" fill="#55afe9" d="M 69.5,-0.5 C 72.1667,-0.5 74.8333,-0.5 77.5,-0.5C 78.8333,0.5 80.1667,1.5 81.5,2.5C 79.4727,2.33788 77.4727,2.50454 75.5,3C 76.3104,9.77541 76.9771,16.6087 77.5,23.5C 77.0269,24.9063 76.0269,25.573 74.5,25.5C 74.5,18.1667 74.5,10.8333 74.5,3.5C 73.4093,1.46578 71.7426,0.132443 69.5,-0.5 Z"/></g>
<g><path style="opacity:1" fill="#3385ba" d="M 74.5,3.5 C 74.5,10.8333 74.5,18.1667 74.5,25.5C 73.1667,25.5 71.8333,25.5 70.5,25.5C 72.6646,21.1621 71.3313,19.1621 66.5,19.5C 66.5,20.8333 66.5,22.1667 66.5,23.5C 62.2717,23.0132 58.105,22.3466 54,21.5C 53.5172,22.448 53.3505,23.448 53.5,24.5C 52.448,24.6495 51.448,24.4828 50.5,24C 52.1612,20.8501 51.1612,19.3501 47.5,19.5C 52.1406,15.1948 56.8073,10.8614 61.5,6.5C 61.2308,8.42865 61.7308,10.0953 63,11.5C 64.9562,11.2155 67.1229,11.2155 69.5,11.5C 69.955,9.63341 70.6216,7.80007 71.5,6C 69.9173,2.55687 70.9173,1.72354 74.5,3.5 Z"/></g>
<g><path style="opacity:0.988" fill="#2e81b7" d="M 47.5,19.5 C 51.1612,19.3501 52.1612,20.8501 50.5,24C 51.448,24.4828 52.448,24.6495 53.5,24.5C 53.3505,23.448 53.5172,22.448 54,21.5C 58.105,22.3466 62.2717,23.0132 66.5,23.5C 66.5,22.1667 66.5,20.8333 66.5,19.5C 71.3313,19.1621 72.6646,21.1621 70.5,25.5C 71.8333,25.5 73.1667,25.5 74.5,25.5C 74.5,26.1667 74.5,26.8333 74.5,27.5C 72.7541,29.2516 70.7541,30.5849 68.5,31.5C 65.8431,31.162 63.5098,31.8287 61.5,33.5C 57.1807,30.9026 52.8473,30.9026 48.5,33.5C 46.7811,30.9516 45.4478,31.285 44.5,34.5C 43.5832,35.1272 42.5832,35.4606 41.5,35.5C 38.8127,35.6641 36.146,35.4974 33.5,35C 33.8333,34.6667 34.1667,34.3333 34.5,34C 33.5842,33.7216 32.9175,33.2216 32.5,32.5C 37.1793,27.8223 42.1793,23.489 47.5,19.5 Z"/></g>
<g><path style="opacity:1" fill="#48adf1" d="M 99.5,19.5 C 99.5,20.8333 99.5,22.1667 99.5,23.5C 95.4862,23.3345 91.4862,23.5012 87.5,24C 86.8641,26.3938 86.8641,28.8938 87.5,31.5C 83.3705,31.5343 79.3705,32.201 75.5,33.5C 75.7678,31.901 75.4345,30.5676 74.5,29.5C 74.5,28.8333 74.5,28.1667 74.5,27.5C 74.5,26.8333 74.5,26.1667 74.5,25.5C 76.0269,25.573 77.0269,24.9063 77.5,23.5C 78.1174,23.6107 78.6174,23.944 79,24.5C 79.4935,22.8659 79.6602,21.1992 79.5,19.5C 86.1667,19.5 92.8333,19.5 99.5,19.5 Z"/></g>
<g><path style="opacity:0.997" fill="#2a8fd2" d="M 23.5,32.5 C 22.1667,32.5 20.8333,32.5 19.5,32.5C 20.1571,35.8408 18.8237,37.8408 15.5,38.5C 17.3513,40.1837 19.018,42.0171 20.5,44C 19.9747,44.6924 19.3081,45.1924 18.5,45.5C 17.5,44.1667 16.5,42.8333 15.5,41.5C 14.2764,42.7662 12.9431,43.9328 11.5,45C 12.056,45.3826 12.3893,45.8826 12.5,46.5C 12.1667,46.5 11.8333,46.5 11.5,46.5C 10.5,46.1667 9.83333,45.5 9.5,44.5C 9.28649,42.8561 9.61983,41.3561 10.5,40C 7.06069,38.7978 5.72736,36.6311 6.5,33.5C 5.83333,32.8333 5.16667,32.1667 4.5,31.5C 2.87162,32.5353 1.20495,32.5353 -0.5,31.5C -0.5,30.5 -0.5,29.5 -0.5,28.5C 2.56021,26.1195 5.89354,24.1195 9.5,22.5C 14.4619,25.4684 19.1285,28.8017 23.5,32.5 Z"/></g>
<g><path style="opacity:0.987" fill="#297eb7" d="M 68.5,31.5 C 64.7611,35.568 60.4278,38.9014 55.5,41.5C 51.0564,39.1985 46.3898,38.8651 41.5,40.5C 41.5,38.8333 41.5,37.1667 41.5,35.5C 42.5832,35.4606 43.5832,35.1272 44.5,34.5C 45.4478,31.285 46.7811,30.9516 48.5,33.5C 52.8473,30.9026 57.1807,30.9026 61.5,33.5C 63.5098,31.8287 65.8431,31.162 68.5,31.5 Z"/></g>
<g><path style="opacity:1" fill="#40aaf1" d="M 99.5,23.5 C 99.5,31.5 99.5,39.5 99.5,47.5C 95.1539,47.3343 90.8206,47.501 86.5,48C 87.3366,49.0113 87.67,50.1779 87.5,51.5C 85.1667,51.5 82.8333,51.5 80.5,51.5C 80.2989,47.4264 79.6322,43.4264 78.5,39.5C 77.1926,49.197 77.1926,58.8637 78.5,68.5C 77.3112,69.4287 75.9778,69.762 74.5,69.5C 74.5,56.1667 74.5,42.8333 74.5,29.5C 75.4345,30.5676 75.7678,31.901 75.5,33.5C 79.3705,32.201 83.3705,31.5343 87.5,31.5C 86.8641,28.8938 86.8641,26.3938 87.5,24C 91.4862,23.5012 95.4862,23.3345 99.5,23.5 Z"/></g>
<g><path style="opacity:1" fill="#277bb1" d="M 32.5,32.5 C 32.9175,33.2216 33.5842,33.7216 34.5,34C 34.1667,34.3333 33.8333,34.6667 33.5,35C 36.146,35.4974 38.8127,35.6641 41.5,35.5C 41.5,37.1667 41.5,38.8333 41.5,40.5C 46.3898,38.8651 51.0564,39.1985 55.5,41.5C 55.1583,42.3382 54.4916,42.6716 53.5,42.5C 50.4802,41.0692 47.6469,41.4025 45,43.5C 40.11,40.8058 34.9433,38.8058 29.5,37.5C 29.1667,36.8333 28.8333,36.1667 28.5,35.5C 30.4305,35.2294 31.7638,34.2294 32.5,32.5 Z"/></g>
<g><path style="opacity:0.761" fill="#288bd6" d="M -0.5,31.5 C 1.20495,32.5353 2.87162,32.5353 4.5,31.5C 5.16667,32.1667 5.83333,32.8333 6.5,33.5C 5.72736,36.6311 7.06069,38.7978 10.5,40C 9.61983,41.3561 9.28649,42.8561 9.5,44.5C 6.45524,41.4534 3.12191,38.7867 -0.5,36.5C -0.5,34.8333 -0.5,33.1667 -0.5,31.5 Z"/></g>
<g><path style="opacity:1" fill="#248cd1" d="M 23.5,32.5 C 24.1667,32.5 24.5,32.8333 24.5,33.5C 24.1062,34.9672 23.7728,36.4672 23.5,38C 23.7549,39.3261 24.4216,40.3261 25.5,41C 24.8333,41.3333 24.1667,41.6667 23.5,42C 26.4601,41.6799 29.4601,41.6799 32.5,42C 34.1412,43.129 35.1412,44.629 35.5,46.5C 34.5178,45.8592 33.5178,45.1925 32.5,44.5C 27.2445,45.1835 22.2445,46.6835 17.5,49C 20.2937,50.5355 22.2937,52.7022 23.5,55.5C 21.3428,53.5879 19.0094,51.9213 16.5,50.5C 16.1583,49.6618 15.4916,49.3284 14.5,49.5C 14.5,49.1667 14.5,48.8333 14.5,48.5C 14.5,47.1667 13.8333,46.5 12.5,46.5C 12.3893,45.8826 12.056,45.3826 11.5,45C 12.9431,43.9328 14.2764,42.7662 15.5,41.5C 16.5,42.8333 17.5,44.1667 18.5,45.5C 19.3081,45.1924 19.9747,44.6924 20.5,44C 19.018,42.0171 17.3513,40.1837 15.5,38.5C 18.8237,37.8408 20.1571,35.8408 19.5,32.5C 20.8333,32.5 22.1667,32.5 23.5,32.5 Z"/></g>
<g><path style="opacity:1" fill="#268ccc" d="M 24.5,33.5 C 25.8333,34.1667 27.1667,34.8333 28.5,35.5C 28.8333,36.1667 29.1667,36.8333 29.5,37.5C 30.7358,39.0428 32.4024,40.0428 34.5,40.5C 36.4216,42.6866 38.0883,45.0199 39.5,47.5C 38.0413,47.5674 36.7079,47.2341 35.5,46.5C 35.1412,44.629 34.1412,43.129 32.5,42C 29.4601,41.6799 26.4601,41.6799 23.5,42C 24.1667,41.6667 24.8333,41.3333 25.5,41C 24.4216,40.3261 23.7549,39.3261 23.5,38C 23.7728,36.4672 24.1062,34.9672 24.5,33.5 Z"/></g>
<g><path style="opacity:1" fill="#2378b3" d="M 29.5,37.5 C 34.9433,38.8058 40.11,40.8058 45,43.5C 47.6469,41.4025 50.4802,41.0692 53.5,42.5C 51.3136,44.9608 48.9803,47.2942 46.5,49.5C 44.079,49.1218 41.7457,48.4552 39.5,47.5C 38.0883,45.0199 36.4216,42.6866 34.5,40.5C 32.4024,40.0428 30.7358,39.0428 29.5,37.5 Z"/></g>
<g><path style="opacity:0.275" fill="#2a83dc" d="M 11.5,46.5 C 11.8333,46.5 12.1667,46.5 12.5,46.5C 13.8333,46.5 14.5,47.1667 14.5,48.5C 13.2905,48.0679 12.2905,47.4013 11.5,46.5 Z"/></g>
<g><path style="opacity:1" fill="#1e89d1" d="M 35.5,46.5 C 36.7079,47.2341 38.0413,47.5674 39.5,47.5C 41.7457,48.4552 44.079,49.1218 46.5,49.5C 47.8333,50.1667 48.8333,51.1667 49.5,52.5C 49.719,53.675 49.3857,54.675 48.5,55.5C 47.043,52.3981 45.043,51.8981 42.5,54C 43.6174,55.8921 45.2841,56.7254 47.5,56.5C 47.5,57.5 47.5,58.5 47.5,59.5C 42.0372,56.9847 38.7038,58.6514 37.5,64.5C 38.4415,64.4895 39.1081,64.9895 39.5,66C 38.2927,67.3002 37.6261,68.8002 37.5,70.5C 36.0937,70.0269 35.427,69.0269 35.5,67.5C 35.4142,66.5041 35.7476,65.6708 36.5,65C 35.1279,64.5983 33.7946,64.0983 32.5,63.5C 31.2988,60.1282 29.4655,57.1282 27,54.5C 25.9887,55.3366 24.8221,55.67 23.5,55.5C 22.2937,52.7022 20.2937,50.5355 17.5,49C 22.2445,46.6835 27.2445,45.1835 32.5,44.5C 33.5178,45.1925 34.5178,45.8592 35.5,46.5 Z"/></g>
<g><path style="opacity:1" fill="#1c75ab" d="M 14.5,49.5 C 15.4916,49.3284 16.1583,49.6618 16.5,50.5C 16.7031,52.0443 17.3698,53.3777 18.5,54.5C 18,54.8333 17.5,55.1667 17,55.5C 15.4675,54.3047 13.9675,54.3047 12.5,55.5C 11.8182,54.7573 11.1515,54.0906 10.5,53.5C 11.5,51.8333 12.8333,50.5 14.5,49.5 Z"/></g>
<g><path style="opacity:1" fill="#37a6f1" d="M 99.5,47.5 C 99.5,52.8333 99.5,58.1667 99.5,63.5C 93.143,63.4763 86.8097,63.8096 80.5,64.5C 80.3278,62.0713 80.3278,57.738 80.5,51.5C 82.8333,51.5 85.1667,51.5 87.5,51.5C 87.67,50.1779 87.3366,49.0113 86.5,48C 90.8206,47.501 95.1539,47.3343 99.5,47.5 Z"/></g>
<g><path style="opacity:0.996" fill="#1686d0" d="M 49.5,52.5 C 52.8103,54.4821 55.8103,56.8154 58.5,59.5C 57.962,61.1172 57.6287,62.7839 57.5,64.5C 59.8863,64.2587 61.8863,64.9254 63.5,66.5C 64.2299,67.7124 65.2299,68.7124 66.5,69.5C 66.0814,70.6721 65.4147,71.6721 64.5,72.5C 61.5788,71.5934 58.5788,71.2601 55.5,71.5C 52.2598,70.2578 48.9264,70.4245 45.5,72C 45.8333,72.3333 46.1667,72.6667 46.5,73C 45.1772,73.8159 44.5106,74.9826 44.5,76.5C 42.1667,74.5 39.8333,72.5 37.5,70.5C 37.6261,68.8002 38.2927,67.3002 39.5,66C 39.1081,64.9895 38.4415,64.4895 37.5,64.5C 38.7038,58.6514 42.0372,56.9847 47.5,59.5C 47.5,58.5 47.5,57.5 47.5,56.5C 45.2841,56.7254 43.6174,55.8921 42.5,54C 45.043,51.8981 47.043,52.3981 48.5,55.5C 49.3857,54.675 49.719,53.675 49.5,52.5 Z"/></g>
<g><path style="opacity:0.384" fill="#1e74a0" d="M 9.5,54.5 C 8.823,57.8382 6.823,59.8382 3.5,60.5C 4.5,57.5 6.5,55.5 9.5,54.5 Z"/></g>
<g><path style="opacity:0.986" fill="#1771af" d="M 16.5,50.5 C 19.0094,51.9213 21.3428,53.5879 23.5,55.5C 25.5798,57.5732 27.2464,59.9066 28.5,62.5C 22.9577,68.1936 16.4577,72.5269 9,75.5C 7.93015,75.472 7.09682,75.1386 6.5,74.5C 10.3705,73.2392 10.3705,71.9058 6.5,70.5C 5.08149,71.0047 4.41483,72.0047 4.5,73.5C 3.4613,71.4689 1.79463,70.1355 -0.5,69.5C -0.5,67.1667 -0.5,64.8333 -0.5,62.5C 0.60486,61.3995 1.93819,60.7329 3.5,60.5C 6.823,59.8382 8.823,57.8382 9.5,54.5C 9.5,53.8333 9.83333,53.5 10.5,53.5C 11.1515,54.0906 11.8182,54.7573 12.5,55.5C 13.9675,54.3047 15.4675,54.3047 17,55.5C 17.5,55.1667 18,54.8333 18.5,54.5C 17.3698,53.3777 16.7031,52.0443 16.5,50.5 Z"/></g>
<g><path style="opacity:0.824" fill="#1e85c4" d="M 35.5,67.5 C 32.9066,66.2464 30.5732,64.5798 28.5,62.5C 27.2464,59.9066 25.5798,57.5732 23.5,55.5C 24.8221,55.67 25.9887,55.3366 27,54.5C 29.4655,57.1282 31.2988,60.1282 32.5,63.5C 33.7946,64.0983 35.1279,64.5983 36.5,65C 35.7476,65.6708 35.4142,66.5041 35.5,67.5 Z"/></g>
<g><path style="opacity:1" fill="#1b83c5" d="M 58.5,59.5 C 62.9786,62.2435 67.312,65.2435 71.5,68.5C 71.1583,69.3382 70.4916,69.6716 69.5,69.5C 67.8185,67.9925 65.8185,66.9925 63.5,66.5C 61.8863,64.9254 59.8863,64.2587 57.5,64.5C 57.6287,62.7839 57.962,61.1172 58.5,59.5 Z"/></g>
<g><path style="opacity:1" fill="#30a3f1" d="M 80.5,51.5 C 80.3278,57.738 80.3278,62.0713 80.5,64.5C 86.8097,63.8096 93.143,63.4763 99.5,63.5C 99.5,67.8333 99.5,72.1667 99.5,76.5C 92.8333,76.5 86.1667,76.5 79.5,76.5C 78.791,75.596 77.791,75.2627 76.5,75.5C 75.8333,81.8333 75.1667,88.1667 74.5,94.5C 74.5,86.5 74.5,78.5 74.5,70.5C 74.5,70.1667 74.5,69.8333 74.5,69.5C 75.9778,69.762 77.3112,69.4287 78.5,68.5C 77.1926,58.8637 77.1926,49.197 78.5,39.5C 79.6322,43.4264 80.2989,47.4264 80.5,51.5 Z"/></g>
<g><path style="opacity:0.993" fill="#0f81d0" d="M 55.5,71.5 C 56.2341,72.7079 56.5674,74.0413 56.5,75.5C 58.8333,75.5 61.1667,75.5 63.5,75.5C 63.5,76.8333 63.5,78.1667 63.5,79.5C 64.8333,79.5 66.1667,79.5 67.5,79.5C 67.67,80.8221 67.3366,81.9887 66.5,83C 64.5,83 62.5,83 60.5,83C 59.6634,84.0113 59.33,85.1779 59.5,86.5C 58.5,86.5 57.5,86.5 56.5,86.5C 56.0347,83.1899 54.2014,80.8565 51,79.5C 50.2352,79.5699 49.7352,79.9033 49.5,80.5C 47.5201,79.5161 45.8534,78.1827 44.5,76.5C 44.5106,74.9826 45.1772,73.8159 46.5,73C 46.1667,72.6667 45.8333,72.3333 45.5,72C 48.9264,70.4245 52.2598,70.2578 55.5,71.5 Z"/></g>
<g><path style="opacity:0.345" fill="#136eb3" d="M 6.5,74.5 C 5.50838,74.6716 4.84171,74.3382 4.5,73.5C 4.41483,72.0047 5.08149,71.0047 6.5,70.5C 10.3705,71.9058 10.3705,73.2392 6.5,74.5 Z"/></g>
<g><path style="opacity:1" fill="#259ff4" d="M 76.5,75.5 C 77.791,75.2627 78.791,75.596 79.5,76.5C 79.5,83.5 79.5,90.5 79.5,97.5C 78.609,98.1098 77.609,98.4431 76.5,98.5C 76.8554,90.5438 76.8554,82.8771 76.5,75.5 Z"/></g>
<g><path style="opacity:1" fill="#259eee" d="M 76.5,75.5 C 76.8554,82.8771 76.8554,90.5438 76.5,98.5C 76.5,98.8333 76.5,99.1667 76.5,99.5C 74.1667,99.5 71.8333,99.5 69.5,99.5C 72.1336,98.8666 73.8002,97.1999 74.5,94.5C 75.1667,88.1667 75.8333,81.8333 76.5,75.5 Z"/></g>
<g><path style="opacity:0.999" fill="#28a0ed" d="M 79.5,76.5 C 86.1667,76.5 92.8333,76.5 99.5,76.5C 99.5,80.1667 99.5,83.8333 99.5,87.5C 92.9209,91.0252 86.2542,94.3586 79.5,97.5C 79.5,90.5 79.5,83.5 79.5,76.5 Z"/></g>
<g><path style="opacity:0.99" fill="#0b7fcb" d="M 63.5,66.5 C 65.8185,66.9925 67.8185,67.9925 69.5,69.5C 71.7872,76.5853 71.7872,83.752 69.5,91C 72.1768,93.8358 71.5101,95.6692 67.5,96.5C 61.1555,91.6438 55.1555,86.3105 49.5,80.5C 49.7352,79.9033 50.2352,79.5699 51,79.5C 54.2014,80.8565 56.0347,83.1899 56.5,86.5C 57.5,86.5 58.5,86.5 59.5,86.5C 59.33,85.1779 59.6634,84.0113 60.5,83C 62.5,83 64.5,83 66.5,83C 67.3366,81.9887 67.67,80.8221 67.5,79.5C 66.1667,79.5 64.8333,79.5 63.5,79.5C 63.5,78.1667 63.5,76.8333 63.5,75.5C 61.1667,75.5 58.8333,75.5 56.5,75.5C 56.5674,74.0413 56.2341,72.7079 55.5,71.5C 58.5788,71.2601 61.5788,71.5934 64.5,72.5C 65.4147,71.6721 66.0814,70.6721 66.5,69.5C 65.2299,68.7124 64.2299,67.7124 63.5,66.5 Z"/></g>
<g><path style="opacity:1" fill="#0876bf" d="M 71.5,68.5 C 72.5,69.1667 73.5,69.8333 74.5,70.5C 74.5,78.5 74.5,86.5 74.5,94.5C 73.8002,97.1999 72.1336,98.8666 69.5,99.5C 69.1667,99.5 68.8333,99.5 68.5,99.5C 67.8902,98.609 67.5569,97.609 67.5,96.5C 71.5101,95.6692 72.1768,93.8358 69.5,91C 71.7872,83.752 71.7872,76.5853 69.5,69.5C 70.4916,69.6716 71.1583,69.3382 71.5,68.5 Z"/></g>
</svg>
