<?xml version="1.0" encoding="UTF-8"?>
<!DOCTYPE svg PUBLIC "-//W3C//DTD SVG 1.1//EN" "http://www.w3.org/Graphics/SVG/1.1/DTD/svg11.dtd">
<svg xmlns="http://www.w3.org/2000/svg" version="1.1" width="100px" height="100px" style="shape-rendering:geometricPrecision; text-rendering:geometricPrecision; image-rendering:optimizeQuality; fill-rule:evenodd; clip-rule:evenodd" xmlns:xlink="http://www.w3.org/1999/xlink">
<g><path style="opacity:0.976" fill="#019a79" d="M 67.5,31.5 C 66.7784,31.0825 66.2784,30.4158 66,29.5C 63.0665,29.9326 61.2332,31.5993 60.5,34.5C 60.9569,35.2975 61.6236,35.6309 62.5,35.5C 59.1486,38.8482 55.4819,41.8482 51.5,44.5C 50.448,44.6495 49.448,44.4828 48.5,44C 49.6721,43.5814 50.6721,42.9147 51.5,42C 51.0338,40.7012 51.0338,39.2012 51.5,37.5C 48.8333,36.8333 46.1667,36.1667 43.5,35.5C 43.5,36.8333 43.5,38.1667 43.5,39.5C 42.1667,39.5 40.8333,39.5 39.5,39.5C 39.5,40.5 39.5,41.5 39.5,42.5C 40.8734,42.3433 42.2068,42.51 43.5,43C 41.1902,43.4966 38.8568,43.6633 36.5,43.5C 33.5999,42.5568 31.2666,40.8901 29.5,38.5C 28.8902,37.609 28.5569,36.609 28.5,35.5C 40.4715,25.7138 52.1382,15.2138 63.5,4C 65.6237,2.41782 67.7904,2.25116 70,3.5C 70.6667,12.5 70.6667,21.5 70,30.5C 69.3292,31.2524 68.4959,31.5858 67.5,31.5 Z"/></g>
<g><path style="opacity:0.995" fill="#24bea5" d="M 68.5,-0.5 C 71.5,-0.5 74.5,-0.5 77.5,-0.5C 84.5583,3.86516 91.8917,7.86516 99.5,11.5C 99.5,36.8333 99.5,62.1667 99.5,87.5C 91.6728,91.2465 84.0061,95.2465 76.5,99.5C 74.1667,99.5 71.8333,99.5 69.5,99.5C 69.3893,98.8826 69.056,98.3826 68.5,98C 70.9306,97.7051 72.764,96.5384 74,94.5C 74.6667,64.1667 74.6667,33.8333 74,3.5C 72.8293,1.3843 71.3293,0.717638 69.5,1.5C 68.7025,1.04311 68.3691,0.376442 68.5,-0.5 Z"/></g>
<g><path style="opacity:0.985" fill="#02b192" d="M 21.5,31.5 C 23.2114,35.5882 25.878,37.9216 29.5,38.5C 31.2666,40.8901 33.5999,42.5568 36.5,43.5C 38.8733,47.0231 42.2066,49.0231 46.5,49.5C 50.8722,53.8744 55.5389,57.8744 60.5,61.5C 61.4749,63.1927 62.8082,64.6927 64.5,66C 63.6433,66.6891 62.9767,67.5224 62.5,68.5C 64.7175,69.0574 67.0509,69.0574 69.5,68.5C 70.4933,77.3178 70.8266,86.3178 70.5,95.5C 66.8875,96.0762 63.8875,95.0762 61.5,92.5C 61.5,91.5 61.5,90.5 61.5,89.5C 60.5,89.5 59.5,89.5 58.5,89.5C 47.7513,79.4097 36.7513,69.7431 25.5,60.5C 25.5,59.8333 25.1667,59.5 24.5,59.5C 24.5,57.5 23.5,56.5 21.5,56.5C 14.4917,49.4925 7.15838,42.8258 -0.5,36.5C -0.5,33.8333 -0.5,31.1667 -0.5,28.5C 2.56021,26.1195 5.89354,24.1195 9.5,22.5C 14.0829,24.7531 18.0829,27.7531 21.5,31.5 Z"/></g>
<g><path style="opacity:0.965" fill="#07967d" d="M 67.5,31.5 C 66.4206,33.543 64.754,34.8763 62.5,35.5C 61.6236,35.6309 60.9569,35.2975 60.5,34.5C 61.2332,31.5993 63.0665,29.9326 66,29.5C 66.2784,30.4158 66.7784,31.0825 67.5,31.5 Z"/></g>
<g><path style="opacity:0.999" fill="#01997d" d="M 51.5,44.5 C 49.5273,45.806 47.8606,47.4727 46.5,49.5C 42.2066,49.0231 38.8733,47.0231 36.5,43.5C 38.8568,43.6633 41.1902,43.4966 43.5,43C 42.2068,42.51 40.8734,42.3433 39.5,42.5C 39.5,41.5 39.5,40.5 39.5,39.5C 40.8333,39.5 42.1667,39.5 43.5,39.5C 43.5,38.1667 43.5,36.8333 43.5,35.5C 46.1667,36.1667 48.8333,36.8333 51.5,37.5C 51.0338,39.2012 51.0338,40.7012 51.5,42C 50.6721,42.9147 49.6721,43.5814 48.5,44C 49.448,44.4828 50.448,44.6495 51.5,44.5 Z"/></g>
<g><path style="opacity:0.545" fill="#0aaa93" d="M 21.5,31.5 C 23.8333,32.8333 26.1667,34.1667 28.5,35.5C 28.5569,36.609 28.8902,37.609 29.5,38.5C 25.878,37.9216 23.2114,35.5882 21.5,31.5 Z"/></g>
<g><path style="opacity:0.994" fill="#01b48c" d="M 9.5,39.5 C 11.951,41.1226 13.951,43.2893 15.5,46C 11.4811,45.803 9.48113,43.6363 9.5,39.5 Z"/></g>
<g><path style="opacity:0.984" fill="#08987d" d="M 18.5,55.5 C 15.3915,55.7359 12.3915,55.4025 9.5,54.5C 10.8333,53.0665 12.3333,51.7332 14,50.5C 15.7073,52.0375 17.2073,53.7041 18.5,55.5 Z"/></g>
<g><path style="opacity:0.989" fill="#009d79" d="M 9.5,54.5 C 12.3915,55.4025 15.3915,55.7359 18.5,55.5C 19.1667,55.5 19.5,55.8333 19.5,56.5C 19.831,63.7392 16.4976,67.4058 9.5,67.5C 9.30198,63.9076 8.30198,60.5742 6.5,57.5C 7.16667,56.1667 8.16667,55.1667 9.5,54.5 Z"/></g>
<g><path style="opacity:0.966" fill="#02997a" d="M 19.5,56.5 C 20.1667,56.5 20.8333,56.5 21.5,56.5C 22.1667,57.8333 23.1667,58.8333 24.5,59.5C 25.1667,59.5 25.5,59.8333 25.5,60.5C 25.9528,61.4584 26.6195,62.2917 27.5,63C 22.8274,67.8524 17.494,71.6858 11.5,74.5C 10.1667,74.5 8.83333,74.5 7.5,74.5C 7.87003,70.8141 6.5367,69.8141 3.5,71.5C 2.16667,70.8333 0.833333,70.1667 -0.5,69.5C -0.5,67.1667 -0.5,64.8333 -0.5,62.5C 1.87488,60.7762 4.20821,59.1095 6.5,57.5C 8.30198,60.5742 9.30198,63.9076 9.5,67.5C 16.4976,67.4058 19.831,63.7392 19.5,56.5 Z"/></g>
<g><path style="opacity:1" fill="#08ad95" d="M 60.5,61.5 C 63.8103,63.4821 66.8103,65.8154 69.5,68.5C 67.0509,69.0574 64.7175,69.0574 62.5,68.5C 62.9767,67.5224 63.6433,66.6891 64.5,66C 62.8082,64.6927 61.4749,63.1927 60.5,61.5 Z"/></g>
<g><path style="opacity:0.865" fill="#0c947c" d="M 11.5,74.5 C 10.0536,75.6129 8.38695,75.7796 6.5,75C 4.5743,74.5776 3.5743,73.4109 3.5,71.5C 6.5367,69.8141 7.87003,70.8141 7.5,74.5C 8.83333,74.5 10.1667,74.5 11.5,74.5 Z"/></g>
<g><path style="opacity:0.18" fill="#01a596" d="M 58.5,89.5 C 59.5,89.5 60.5,89.5 61.5,89.5C 61.5,90.5 61.5,91.5 61.5,92.5C 60.1667,91.8333 59.1667,90.8333 58.5,89.5 Z"/></g>
</svg>
