<?xml version="1.0" encoding="UTF-8"?>
<!DOCTYPE svg PUBLIC "-//W3C//DTD SVG 1.1//EN" "http://www.w3.org/Graphics/SVG/1.1/DTD/svg11.dtd">
<svg xmlns="http://www.w3.org/2000/svg" version="1.1" width="100px" height="100px" style="shape-rendering:geometricPrecision; text-rendering:geometricPrecision; image-rendering:optimizeQuality; fill-rule:evenodd; clip-rule:evenodd" xmlns:xlink="http://www.w3.org/1999/xlink">
<g><path style="opacity:0.996" fill="#41b781" d="M -0.5,6.5 C 5.5,6.5 11.5,6.5 17.5,6.5C 16.8592,7.48224 16.1925,8.48224 15.5,9.5C 18.8248,11.1842 21.8248,13.1842 24.5,15.5C 24.3801,17.7345 24.7135,19.9011 25.5,22C 27.8813,25.2465 30.2146,28.4131 32.5,31.5C 32.719,32.675 32.3857,33.675 31.5,34.5C 30.069,34.0234 28.7357,33.3567 27.5,32.5C 26.8078,29.8771 25.3078,27.8771 23,26.5C 22.5172,25.552 22.3505,24.552 22.5,23.5C 18.7852,23.577 15.1185,23.2436 11.5,22.5C 9.91332,19.0813 9.24666,15.4146 9.5,11.5C 7.5165,11.6168 5.84983,10.9501 4.5,9.5C 3.73485,10.6119 2.73485,11.2786 1.5,11.5C 1.16667,10.5 0.5,9.83333 -0.5,9.5C -0.5,8.5 -0.5,7.5 -0.5,6.5 Z"/></g>
<g><path style="opacity:0.995" fill="#42b781" d="M 80.5,6.5 C 86.8333,6.5 93.1667,6.5 99.5,6.5C 99.5,7.5 99.5,8.5 99.5,9.5C 96.5136,14.1302 93.5136,18.7969 90.5,23.5C 88.6693,24.0522 87.0026,24.0522 85.5,23.5C 84.5224,23.9767 83.6891,24.6433 83,25.5C 82.5448,28.8536 82.0448,32.1869 81.5,35.5C 78.5,35.5 75.5,35.5 72.5,35.5C 71.5537,30.8661 71.5537,26.1994 72.5,21.5C 75.9855,16.8583 78.6522,11.8583 80.5,6.5 Z"/></g>
<g><path style="opacity:1" fill="#25545d" d="M 76.5,6.5 C 77.5,6.5 78.5,6.5 79.5,6.5C 77.7349,9.70894 75.7349,12.7089 73.5,15.5C 74.4861,12.507 75.4861,9.50696 76.5,6.5 Z"/></g>
<g><path style="opacity:1" fill="#4bae87" d="M 17.5,6.5 C 18.1667,6.5 18.8333,6.5 19.5,6.5C 21.4203,9.33883 23.0869,12.3388 24.5,15.5C 21.8248,13.1842 18.8248,11.1842 15.5,9.5C 16.1925,8.48224 16.8592,7.48224 17.5,6.5 Z"/></g>
<g><path style="opacity:1" fill="#304c5c" d="M 19.5,6.5 C 26.1998,6.16998 32.8665,6.50331 39.5,7.5C 40.9501,8.84983 41.6168,10.5165 41.5,12.5C 41.5,13.5 41.5,14.5 41.5,15.5C 40.1667,15.5 38.8333,15.5 37.5,15.5C 37.5,14.1667 37.5,12.8333 37.5,11.5C 33.0968,11.0761 29.7635,12.7428 27.5,16.5C 27.8627,17.1835 28.1961,17.8501 28.5,18.5C 27.8333,18.5 27.1667,18.5 26.5,18.5C 26.573,16.9731 25.9063,15.9731 24.5,15.5C 23.0869,12.3388 21.4203,9.33883 19.5,6.5 Z"/></g>
<g><path style="opacity:0.98" fill="#43b685" d="M 32.5,31.5 C 32.8333,31.5 33.1667,31.5 33.5,31.5C 35.0828,33.6626 36.4161,35.9959 37.5,38.5C 38.038,40.1172 38.3713,41.7839 38.5,43.5C 37.5,43.5 36.5,43.5 35.5,43.5C 35.6621,41.4727 35.4955,39.4727 35,37.5C 34.1072,36.2888 33.2739,36.2888 32.5,37.5C 31.1969,41.0316 31.1969,44.5316 32.5,48C 31.2161,48.6838 30.0495,48.5171 29,47.5C 28.1751,49.7008 28.6751,51.5341 30.5,53C 29.255,53.7914 27.9217,54.2914 26.5,54.5C 18.3597,40.1101 10.0264,25.7768 1.5,11.5C 2.73485,11.2786 3.73485,10.6119 4.5,9.5C 5.84983,10.9501 7.5165,11.6168 9.5,11.5C 9.24666,15.4146 9.91332,19.0813 11.5,22.5C 15.1185,23.2436 18.7852,23.577 22.5,23.5C 22.3505,24.552 22.5172,25.552 23,26.5C 25.3078,27.8771 26.8078,29.8771 27.5,32.5C 28.7357,33.3567 30.069,34.0234 31.5,34.5C 32.3857,33.675 32.719,32.675 32.5,31.5 Z"/></g>
<g><path style="opacity:1" fill="#4aa48b" d="M 79.5,6.5 C 79.8333,6.5 80.1667,6.5 80.5,6.5C 78.6522,11.8583 75.9855,16.8583 72.5,21.5C 72.1667,21.5 71.8333,21.5 71.5,21.5C 71.8925,19.7162 72.5592,18.0495 73.5,16.5C 73.5,16.1667 73.5,15.8333 73.5,15.5C 75.7349,12.7089 77.7349,9.70894 79.5,6.5 Z"/></g>
<g><path style="opacity:1" fill="#334a5c" d="M 76.5,6.5 C 75.4861,9.50696 74.4861,12.507 73.5,15.5C 73.5,15.8333 73.5,16.1667 73.5,16.5C 71.8073,17.4749 70.3073,18.8082 69,20.5C 66.6236,24.2636 64.7903,28.2636 63.5,32.5C 63.1667,32.5 62.8333,32.5 62.5,32.5C 62.5852,31.0047 61.9185,30.0047 60.5,29.5C 59.2578,31.7328 57.9245,33.8995 56.5,36C 55.5509,36.6172 54.7175,36.4506 54,35.5C 53.0226,32.741 53.856,30.741 56.5,29.5C 57.4287,28.3112 57.762,26.9778 57.5,25.5C 59.5,25.5 61.5,25.5 63.5,25.5C 64.492,21.4301 62.992,19.4301 59,19.5C 57.3419,19.6752 56.0086,20.3418 55,21.5C 54.7216,20.5842 54.2216,19.9175 53.5,19.5C 54.9222,14.8221 57.2556,10.6555 60.5,7C 65.8229,6.50065 71.1563,6.33398 76.5,6.5 Z"/></g>
<g><path style="opacity:1" fill="#32495f" d="M 41.5,12.5 C 42.9063,12.9731 43.573,13.9731 43.5,15.5C 43.7394,17.4672 43.4061,19.3005 42.5,21C 40.3199,21.7491 37.9865,22.2491 35.5,22.5C 35.0234,23.931 34.3567,25.2643 33.5,26.5C 32.8182,25.7573 32.1515,25.0906 31.5,24.5C 31.2501,22.0586 30.2501,20.0586 28.5,18.5C 28.1961,17.8501 27.8627,17.1835 27.5,16.5C 29.7635,12.7428 33.0968,11.0761 37.5,11.5C 37.5,12.8333 37.5,14.1667 37.5,15.5C 38.8333,15.5 40.1667,15.5 41.5,15.5C 41.5,14.5 41.5,13.5 41.5,12.5 Z"/></g>
<g><path style="opacity:0.99" fill="#34495e" d="M 53.5,19.5 C 54.2216,19.9175 54.7216,20.5842 55,21.5C 56.0086,20.3418 57.3419,19.6752 59,19.5C 62.992,19.4301 64.492,21.4301 63.5,25.5C 61.5,25.5 59.5,25.5 57.5,25.5C 57.762,26.9778 57.4287,28.3112 56.5,29.5C 53.856,30.741 53.0226,32.741 54,35.5C 54.7175,36.4506 55.5509,36.6172 56.5,36C 57.9245,33.8995 59.2578,31.7328 60.5,29.5C 61.9185,30.0047 62.5852,31.0047 62.5,32.5C 60.665,33.1223 59.4983,34.4556 59,36.5C 57.7868,40.2329 56.6201,43.8996 55.5,47.5C 55.1667,47.5 54.8333,47.5 54.5,47.5C 52.6064,48.0476 50.9397,49.0476 49.5,50.5C 48.3279,50.0814 47.3279,49.4147 46.5,48.5C 47.5443,46.2324 47.711,43.8991 47,41.5C 46.1841,42.8228 45.0174,43.4894 43.5,43.5C 40.6423,41.2883 39.309,38.2883 39.5,34.5C 39.5,32.1667 39.5,29.8333 39.5,27.5C 42.5348,27.4789 44.8681,26.1455 46.5,23.5C 47.9948,24.7053 49.3281,24.7053 50.5,23.5C 51.0256,21.7697 52.0256,20.4363 53.5,19.5 Z"/></g>
<g><path style="opacity:1" fill="#265355" d="M 26.5,18.5 C 27.1667,18.5 27.8333,18.5 28.5,18.5C 30.2501,20.0586 31.2501,22.0586 31.5,24.5C 31.5,25.1667 31.5,25.8333 31.5,26.5C 29.8474,23.8695 28.1807,21.2028 26.5,18.5 Z"/></g>
<g><path style="opacity:1" fill="#334b5a" d="M 43.5,15.5 C 44.9758,17.7686 46.4758,20.1019 48,22.5C 48.6708,23.2524 49.5041,23.5858 50.5,23.5C 49.3281,24.7053 47.9948,24.7053 46.5,23.5C 44.8681,26.1455 42.5348,27.4789 39.5,27.5C 39.5,29.8333 39.5,32.1667 39.5,34.5C 38.5266,34.0133 37.5266,33.5133 36.5,33C 35.5119,30.833 34.1786,28.9997 32.5,27.5C 31.8333,27.5 31.5,27.1667 31.5,26.5C 31.5,25.8333 31.5,25.1667 31.5,24.5C 32.1515,25.0906 32.8182,25.7573 33.5,26.5C 34.3567,25.2643 35.0234,23.931 35.5,22.5C 37.9865,22.2491 40.3199,21.7491 42.5,21C 43.4061,19.3005 43.7394,17.4672 43.5,15.5 Z"/></g>
<g><path style="opacity:1" fill="#26565b" d="M 73.5,16.5 C 72.5592,18.0495 71.8925,19.7162 71.5,21.5C 69.078,25.3438 66.4113,29.0105 63.5,32.5C 64.7903,28.2636 66.6236,24.2636 69,20.5C 70.3073,18.8082 71.8073,17.4749 73.5,16.5 Z"/></g>
<g><path style="opacity:1" fill="#4da683" d="M 24.5,15.5 C 25.9063,15.9731 26.573,16.9731 26.5,18.5C 28.1807,21.2028 29.8474,23.8695 31.5,26.5C 31.5,27.1667 31.8333,27.5 32.5,27.5C 32.8333,28.8333 33.1667,30.1667 33.5,31.5C 33.1667,31.5 32.8333,31.5 32.5,31.5C 30.2146,28.4131 27.8813,25.2465 25.5,22C 24.7135,19.9011 24.3801,17.7345 24.5,15.5 Z"/></g>
<g><path style="opacity:1" fill="#296055" d="M 62.5,32.5 C 62.8333,32.5 63.1667,32.5 63.5,32.5C 63.2964,34.6854 62.6298,36.6854 61.5,38.5C 61.1667,38.5 60.8333,38.5 60.5,38.5C 60.7036,36.3146 61.3702,34.3146 62.5,32.5 Z"/></g>
<g><path style="opacity:1" fill="#49ad84" d="M 71.5,21.5 C 71.6602,23.1992 71.4935,24.8659 71,26.5C 67.7361,29.8204 66.9028,33.6538 68.5,38C 68.1667,38.5 67.8333,39 67.5,39.5C 65.9158,36.025 63.9158,35.6917 61.5,38.5C 62.6298,36.6854 63.2964,34.6854 63.5,32.5C 66.4113,29.0105 69.078,25.3438 71.5,21.5 Z"/></g>
<g><path style="opacity:1" fill="#42b881" d="M 38.5,43.5 C 37.7564,46.9496 39.0897,48.6162 42.5,48.5C 42.144,51.776 43.144,54.4427 45.5,56.5C 43.205,57.7924 41.3716,57.1257 40,54.5C 39.502,57.4816 39.3354,60.4816 39.5,63.5C 40.8333,63.5 42.1667,63.5 43.5,63.5C 42.8333,66.1667 42.1667,68.8333 41.5,71.5C 40.1266,71.6567 38.7932,71.49 37.5,71C 39.3249,69.5341 39.8249,67.7008 39,65.5C 38.1072,66.7112 37.2739,66.7112 36.5,65.5C 37.7059,63.4841 37.7059,61.4841 36.5,59.5C 34.5497,64.6138 33.2164,64.2804 32.5,58.5C 31.1667,58.5 29.8333,58.5 28.5,58.5C 27.3995,57.3951 26.7329,56.0618 26.5,54.5C 27.9217,54.2914 29.255,53.7914 30.5,53C 28.6751,51.5341 28.1751,49.7008 29,47.5C 30.0495,48.5171 31.2161,48.6838 32.5,48C 31.1969,44.5316 31.1969,41.0316 32.5,37.5C 33.2739,36.2888 34.1072,36.2888 35,37.5C 35.4955,39.4727 35.6621,41.4727 35.5,43.5C 36.5,43.5 37.5,43.5 38.5,43.5 Z"/></g>
<g><path style="opacity:1" fill="#2e5159" d="M 62.5,32.5 C 61.3702,34.3146 60.7036,36.3146 60.5,38.5C 59.057,41.7282 57.3904,44.7282 55.5,47.5C 56.6201,43.8996 57.7868,40.2329 59,36.5C 59.4983,34.4556 60.665,33.1223 62.5,32.5 Z"/></g>
<g><path style="opacity:0.896" fill="#43b585" d="M 71.5,21.5 C 71.8333,21.5 72.1667,21.5 72.5,21.5C 71.5537,26.1994 71.5537,30.8661 72.5,35.5C 75.5,35.5 78.5,35.5 81.5,35.5C 82.0448,32.1869 82.5448,28.8536 83,25.5C 83.6891,24.6433 84.5224,23.9767 85.5,23.5C 87.0026,24.0522 88.6693,24.0522 90.5,23.5C 85.4172,32.6682 80.0839,41.6682 74.5,50.5C 73.8423,49.6016 73.1757,48.6016 72.5,47.5C 71.5091,49.3231 70.1757,50.8231 68.5,52C 63.7629,52.8854 59.0962,53.0521 54.5,52.5C 55.1098,51.609 55.4431,50.609 55.5,49.5C 59.7498,47.1185 61.7498,43.4519 61.5,38.5C 63.9158,35.6917 65.9158,36.025 67.5,39.5C 67.8333,39 68.1667,38.5 68.5,38C 66.9028,33.6538 67.7361,29.8204 71,26.5C 71.4935,24.8659 71.6602,23.1992 71.5,21.5 Z"/></g>
<g><path style="opacity:1" fill="#255957" d="M 32.5,27.5 C 34.1786,28.9997 35.5119,30.833 36.5,33C 37.5266,33.5133 38.5266,34.0133 39.5,34.5C 39.309,38.2883 40.6423,41.2883 43.5,43.5C 44.1667,45.8333 44.8333,48.1667 45.5,50.5C 42.8214,46.4665 40.1547,42.4665 37.5,38.5C 36.4161,35.9959 35.0828,33.6626 33.5,31.5C 33.1667,30.1667 32.8333,28.8333 32.5,27.5 Z"/></g>
<g><path style="opacity:1" fill="#4aae82" d="M 37.5,38.5 C 40.1547,42.4665 42.8214,46.4665 45.5,50.5C 45.6596,52.153 46.3263,53.4863 47.5,54.5C 48.1098,55.391 48.4431,56.391 48.5,57.5C 47.391,57.4431 46.391,57.1098 45.5,56.5C 43.144,54.4427 42.144,51.776 42.5,48.5C 39.0897,48.6162 37.7564,46.9496 38.5,43.5C 38.3713,41.7839 38.038,40.1172 37.5,38.5 Z"/></g>
<g><path style="opacity:1" fill="#48ab88" d="M 60.5,38.5 C 60.8333,38.5 61.1667,38.5 61.5,38.5C 61.7498,43.4519 59.7498,47.1185 55.5,49.5C 55.5,48.8333 55.5,48.1667 55.5,47.5C 57.3904,44.7282 59.057,41.7282 60.5,38.5 Z"/></g>
<g><path style="opacity:1" fill="#2c505c" d="M 54.5,47.5 C 53.8902,48.391 53.5569,49.391 53.5,50.5C 51.0882,50.6941 50.0882,52.0274 50.5,54.5C 49.5,54.5 48.5,54.5 47.5,54.5C 46.3263,53.4863 45.6596,52.153 45.5,50.5C 44.8333,48.1667 44.1667,45.8333 43.5,43.5C 45.0174,43.4894 46.1841,42.8228 47,41.5C 47.711,43.8991 47.5443,46.2324 46.5,48.5C 47.3279,49.4147 48.3279,50.0814 49.5,50.5C 50.9397,49.0476 52.6064,48.0476 54.5,47.5 Z"/></g>
<g><path style="opacity:1" fill="#246458" d="M 54.5,47.5 C 54.8333,47.5 55.1667,47.5 55.5,47.5C 55.5,48.1667 55.5,48.8333 55.5,49.5C 54.8333,49.8333 54.1667,50.1667 53.5,50.5C 53.5569,49.391 53.8902,48.391 54.5,47.5 Z"/></g>
<g><path style="opacity:0.987" fill="#42b882" d="M 74.5,50.5 C 71.2571,57.0768 67.5904,63.4102 63.5,69.5C 61.0075,70.7736 58.3408,71.4403 55.5,71.5C 56.6238,73.731 57.1238,76.0643 57,78.5C 55.3005,79.4061 53.4672,79.7394 51.5,79.5C 51.4746,82.9604 50.8079,86.2937 49.5,89.5C 48.914,89.2907 48.414,88.9574 48,88.5C 48.0858,80.9657 47.2525,73.6323 45.5,66.5C 46.0253,65.8076 46.6919,65.3076 47.5,65C 46.6198,63.6439 46.2865,62.1439 46.5,60.5C 50.5236,60.738 54.1902,61.738 57.5,63.5C 57.6567,62.1266 57.49,60.7932 57,59.5C 55.3732,58.4677 54.2066,57.1344 53.5,55.5C 53.5569,54.391 53.8902,53.391 54.5,52.5C 59.0962,53.0521 63.7629,52.8854 68.5,52C 70.1757,50.8231 71.5091,49.3231 72.5,47.5C 73.1757,48.6016 73.8423,49.6016 74.5,50.5 Z"/></g>
<g><path style="opacity:0.998" fill="#44b685" d="M 45.5,56.5 C 46.391,57.1098 47.391,57.4431 48.5,57.5C 49.5676,58.4345 50.901,58.7678 52.5,58.5C 52.2627,57.209 52.596,56.209 53.5,55.5C 54.2066,57.1344 55.3732,58.4677 57,59.5C 57.49,60.7932 57.6567,62.1266 57.5,63.5C 54.1902,61.738 50.5236,60.738 46.5,60.5C 46.2865,62.1439 46.6198,63.6439 47.5,65C 46.6919,65.3076 46.0253,65.8076 45.5,66.5C 47.2525,73.6323 48.0858,80.9657 48,88.5C 48.414,88.9574 48.914,89.2907 49.5,89.5C 50.8079,86.2937 51.4746,82.9604 51.5,79.5C 53.4672,79.7394 55.3005,79.4061 57,78.5C 57.1238,76.0643 56.6238,73.731 55.5,71.5C 58.3408,71.4403 61.0075,70.7736 63.5,69.5C 59.3463,77.8085 54.6797,85.8085 49.5,93.5C 42.265,82.0395 35.265,70.3729 28.5,58.5C 29.8333,58.5 31.1667,58.5 32.5,58.5C 33.2164,64.2804 34.5497,64.6138 36.5,59.5C 37.7059,61.4841 37.7059,63.4841 36.5,65.5C 37.2739,66.7112 38.1072,66.7112 39,65.5C 39.8249,67.7008 39.3249,69.5341 37.5,71C 38.7932,71.49 40.1266,71.6567 41.5,71.5C 42.1667,68.8333 42.8333,66.1667 43.5,63.5C 42.1667,63.5 40.8333,63.5 39.5,63.5C 39.3354,60.4816 39.502,57.4816 40,54.5C 41.3716,57.1257 43.205,57.7924 45.5,56.5 Z"/></g>
<g><path style="opacity:1" fill="#1f5855" d="M 53.5,50.5 C 52.5342,53.4686 50.8675,55.802 48.5,57.5C 48.4431,56.391 48.1098,55.391 47.5,54.5C 48.5,54.5 49.5,54.5 50.5,54.5C 50.0882,52.0274 51.0882,50.6941 53.5,50.5 Z"/></g>
<g><path style="opacity:1" fill="#46a480" d="M 55.5,49.5 C 55.4431,50.609 55.1098,51.609 54.5,52.5C 53.8902,53.391 53.5569,54.391 53.5,55.5C 52.596,56.209 52.2627,57.209 52.5,58.5C 50.901,58.7678 49.5676,58.4345 48.5,57.5C 50.8675,55.802 52.5342,53.4686 53.5,50.5C 54.1667,50.1667 54.8333,49.8333 55.5,49.5 Z"/></g>
</svg>
