<?xml version="1.0" encoding="UTF-8"?>
<!DOCTYPE svg PUBLIC "-//W3C//DTD SVG 1.1//EN" "http://www.w3.org/Graphics/SVG/1.1/DTD/svg11.dtd">
<svg xmlns="http://www.w3.org/2000/svg" version="1.1" width="100px" height="100px" style="shape-rendering:geometricPrecision; text-rendering:geometricPrecision; image-rendering:optimizeQuality; fill-rule:evenodd; clip-rule:evenodd" xmlns:xlink="http://www.w3.org/1999/xlink">
<g><path style="opacity:0.998" fill="#36495d" d="M -0.5,-0.5 C 9.83333,-0.5 20.1667,-0.5 30.5,-0.5C 33.5203,6.20352 36.5203,12.8702 39.5,19.5C 38.6554,20.6715 37.9887,22.0048 37.5,23.5C 35.6159,23.7118 34.2826,24.7118 33.5,26.5C 32.1521,30.5213 30.8188,34.5213 29.5,38.5C 29.5,38.8333 29.5,39.1667 29.5,39.5C 27.9755,40.1738 26.6422,41.1738 25.5,42.5C 24.8302,44.2914 24.1635,45.9581 23.5,47.5C 15.0629,32.3958 7.06292,17.0625 -0.5,1.5C -0.5,0.833333 -0.5,0.166667 -0.5,-0.5 Z"/></g>
<g><path style="opacity:0.999" fill="#36495f" d="M 68.5,-0.5 C 72.5,-0.5 76.5,-0.5 80.5,-0.5C 80.7683,2.1194 80.435,4.6194 79.5,7C 76.854,7.49742 74.1873,7.66409 71.5,7.5C 71.0849,12.3401 71.7516,17.0068 73.5,21.5C 73.4573,22.4164 73.1239,23.0831 72.5,23.5C 69.3349,21.9093 67.0016,22.9093 65.5,26.5C 64.8243,25.3984 64.1577,24.3984 63.5,23.5C 63.0269,22.0937 62.0269,21.427 60.5,21.5C 60.1667,20.8333 59.8333,20.1667 59.5,19.5C 62.1199,12.6313 65.1199,5.96463 68.5,-0.5 Z"/></g>
<g><path style="opacity:1" fill="#36485e" d="M 87.5,-0.5 C 91.5,-0.5 95.5,-0.5 99.5,-0.5C 99.5,0.166667 99.5,0.833333 99.5,1.5C 93.5,12.8333 87.5,24.1667 81.5,35.5C 81.3946,31.4517 81.7279,27.4517 82.5,23.5C 81.325,23.719 80.325,23.3857 79.5,22.5C 81.6225,22.3775 83.7891,22.3775 86,22.5C 86.662,20.1873 87.162,17.854 87.5,15.5C 84.8806,15.7683 82.3806,15.435 80,14.5C 80.2068,12.2487 80.3735,9.91537 80.5,7.5C 86.9049,8.59381 89.2382,5.92714 87.5,-0.5 Z"/></g>
<g><path style="opacity:1" fill="#32515a" d="M 72.5,23.5 C 72.5394,24.5832 72.8728,25.5832 73.5,26.5C 70.895,27.4721 68.895,29.1388 67.5,31.5C 70.2852,36.1897 72.2852,41.1897 73.5,46.5C 72.5894,44.249 71.256,42.249 69.5,40.5C 67.4974,35.8289 65.4974,31.1622 63.5,26.5C 63.5,25.5 63.5,24.5 63.5,23.5C 64.1577,24.3984 64.8243,25.3984 65.5,26.5C 67.0016,22.9093 69.3349,21.9093 72.5,23.5 Z"/></g>
<g><path style="opacity:0.997" fill="#57b393" d="M 39.5,19.5 C 40.7368,20.9649 41.7368,22.6316 42.5,24.5C 41.1667,24.5 39.8333,24.5 38.5,24.5C 36.823,28.3755 35.323,32.3755 34,36.5C 32.6288,38.0414 31.1288,39.3747 29.5,40.5C 29.5,40.1667 29.5,39.8333 29.5,39.5C 29.5,39.1667 29.5,38.8333 29.5,38.5C 32.405,33.6935 35.0717,28.6935 37.5,23.5C 37.9887,22.0048 38.6554,20.6715 39.5,19.5 Z"/></g>
<g><path style="opacity:1" fill="#2e5d52" d="M 60.5,21.5 C 62.0269,21.427 63.0269,22.0937 63.5,23.5C 63.5,24.5 63.5,25.5 63.5,26.5C 62.2632,25.0351 61.2632,23.3684 60.5,21.5 Z"/></g>
<g><path style="opacity:0.996" fill="#364b5d" d="M 80.5,-0.5 C 82.8333,-0.5 85.1667,-0.5 87.5,-0.5C 89.2382,5.92714 86.9049,8.59381 80.5,7.5C 80.3735,9.91537 80.2068,12.2487 80,14.5C 82.3806,15.435 84.8806,15.7683 87.5,15.5C 87.162,17.854 86.662,20.1873 86,22.5C 83.7891,22.3775 81.6225,22.3775 79.5,22.5C 80.325,23.3857 81.325,23.719 82.5,23.5C 81.7279,27.4517 81.3946,31.4517 81.5,35.5C 79.4974,40.1711 77.4974,44.8378 75.5,49.5C 74.0937,49.0269 73.427,48.0269 73.5,46.5C 72.2852,41.1897 70.2852,36.1897 67.5,31.5C 68.895,29.1388 70.895,27.4721 73.5,26.5C 72.8728,25.5832 72.5394,24.5832 72.5,23.5C 73.1239,23.0831 73.4573,22.4164 73.5,21.5C 71.7516,17.0068 71.0849,12.3401 71.5,7.5C 74.1873,7.66409 76.854,7.49742 79.5,7C 80.435,4.6194 80.7683,2.1194 80.5,-0.5 Z"/></g>
<g><path style="opacity:1" fill="#56b690" d="M 59.5,19.5 C 59.8333,20.1667 60.1667,20.8333 60.5,21.5C 61.2632,23.3684 62.2632,25.0351 63.5,26.5C 65.4974,31.1622 67.4974,35.8289 69.5,40.5C 65.7534,38.8547 63.92,35.8547 64,31.5C 61.7566,29.469 59.9233,27.1357 58.5,24.5C 57.4801,27.7421 55.8134,30.5754 53.5,33C 53.9574,33.414 54.2907,33.914 54.5,34.5C 52.4654,35.5965 51.1321,37.2632 50.5,39.5C 49.7025,39.0431 49.3691,38.3764 49.5,37.5C 52.8632,31.4331 56.1966,25.4331 59.5,19.5 Z"/></g>
<g><path style="opacity:1" fill="#265758" d="M 37.5,23.5 C 35.0717,28.6935 32.405,33.6935 29.5,38.5C 30.8188,34.5213 32.1521,30.5213 33.5,26.5C 34.2826,24.7118 35.6159,23.7118 37.5,23.5 Z"/></g>
<g><path style="opacity:0.998" fill="#4fbf8c" d="M 42.5,24.5 C 45.1184,28.7405 47.4518,33.0738 49.5,37.5C 49.3691,38.3764 49.7025,39.0431 50.5,39.5C 51.1321,37.2632 52.4654,35.5965 54.5,34.5C 54.2907,33.914 53.9574,33.414 53.5,33C 55.8134,30.5754 57.4801,27.7421 58.5,24.5C 59.9233,27.1357 61.7566,29.469 64,31.5C 63.92,35.8547 65.7534,38.8547 69.5,40.5C 70.0961,47.5668 72.4294,53.9002 76.5,59.5C 77.5272,58.2086 78.5272,58.2086 79.5,59.5C 86.1667,72.1667 92.8333,84.8333 99.5,97.5C 99.5,98.1667 99.5,98.8333 99.5,99.5C 89.1667,99.5 78.8333,99.5 68.5,99.5C 65.4395,92.3786 62.1062,85.3786 58.5,78.5C 65.3863,74.1122 65.053,73.1122 57.5,75.5C 54.9435,70.7306 52.1102,66.0639 49,61.5C 44.8029,69.8941 40.6363,78.2274 36.5,86.5C 34.2927,85.1301 32.626,85.7968 31.5,88.5C 32.325,89.3857 33.325,89.719 34.5,89.5C 33.1667,92.8333 31.8333,96.1667 30.5,99.5C 20.1667,99.5 9.83333,99.5 -0.5,99.5C -0.5,98.5 -0.5,97.5 -0.5,96.5C 0.166667,96.5 0.5,96.1667 0.5,95.5C 2.92397,95.8076 5.25731,95.4742 7.5,94.5C 5.01596,93.1057 5.01596,91.6057 7.5,90C 6.85242,88.5603 6.51909,87.0603 6.5,85.5C 7.69807,80.772 9.69807,76.4387 12.5,72.5C 14.1958,72.3146 15.5291,71.4813 16.5,70C 19.4816,69.502 22.4816,69.3354 25.5,69.5C 25.5,67.5 25.5,65.5 25.5,63.5C 27.5,63.5 29.5,63.5 31.5,63.5C 31.7305,60.3056 31.0638,57.3056 29.5,54.5C 29.6799,53.4461 30.0133,52.4461 30.5,51.5C 29.7261,50.2888 28.8928,50.2888 28,51.5C 27.5172,50.552 27.3505,49.552 27.5,48.5C 29.0461,46.1175 29.7128,43.4509 29.5,40.5C 31.1288,39.3747 32.6288,38.0414 34,36.5C 35.323,32.3755 36.823,28.3755 38.5,24.5C 39.8333,24.5 41.1667,24.5 42.5,24.5 Z"/></g>
<g><path style="opacity:1" fill="#2a5452" d="M 29.5,39.5 C 29.5,39.8333 29.5,40.1667 29.5,40.5C 27.659,42.8485 26.3257,45.5152 25.5,48.5C 24.8333,48.8333 24.1667,49.1667 23.5,49.5C 23.5,48.8333 23.5,48.1667 23.5,47.5C 24.1635,45.9581 24.8302,44.2914 25.5,42.5C 26.6422,41.1738 27.9755,40.1738 29.5,39.5 Z"/></g>
<g><path style="opacity:1" fill="#5fb18f" d="M 29.5,40.5 C 29.7128,43.4509 29.0461,46.1175 27.5,48.5C 26.8333,48.5 26.1667,48.5 25.5,48.5C 26.3257,45.5152 27.659,42.8485 29.5,40.5 Z"/></g>
<g><path style="opacity:1" fill="#51be90" d="M 25.5,48.5 C 26.1667,48.5 26.8333,48.5 27.5,48.5C 27.3505,49.552 27.5172,50.552 28,51.5C 28.8928,50.2888 29.7261,50.2888 30.5,51.5C 30.0133,52.4461 29.6799,53.4461 29.5,54.5C 31.0638,57.3056 31.7305,60.3056 31.5,63.5C 29.5,63.5 27.5,63.5 25.5,63.5C 25.5,65.5 25.5,67.5 25.5,69.5C 22.4816,69.3354 19.4816,69.502 16.5,70C 15.5291,71.4813 14.1958,72.3146 12.5,72.5C 15.9077,64.6854 19.5744,57.0187 23.5,49.5C 24.1667,49.1667 24.8333,48.8333 25.5,48.5 Z"/></g>
<g><path style="opacity:1" fill="#54bd91" d="M 69.5,40.5 C 71.256,42.249 72.5894,44.249 73.5,46.5C 73.427,48.0269 74.0937,49.0269 75.5,49.5C 77.3751,52.5884 78.7085,55.9217 79.5,59.5C 78.5272,58.2086 77.5272,58.2086 76.5,59.5C 72.4294,53.9002 70.0961,47.5668 69.5,40.5 Z"/></g>
<g><path style="opacity:1" fill="#54bb9a" d="M 58.5,78.5 C 57.596,77.791 57.2627,76.791 57.5,75.5C 65.053,73.1122 65.3863,74.1122 58.5,78.5 Z"/></g>
<g><path style="opacity:1" fill="#4cc583" d="M 36.5,86.5 C 36.573,88.0269 35.9063,89.0269 34.5,89.5C 33.325,89.719 32.325,89.3857 31.5,88.5C 32.626,85.7968 34.2927,85.1301 36.5,86.5 Z"/></g>
<g><path style="opacity:1" fill="#52bc94" d="M 6.5,85.5 C 6.51909,87.0603 6.85242,88.5603 7.5,90C 5.01596,91.6057 5.01596,93.1057 7.5,94.5C 5.25731,95.4742 2.92397,95.8076 0.5,95.5C 2.51459,92.1309 4.51459,88.7976 6.5,85.5 Z"/></g>
</svg>
