<?xml version="1.0" encoding="UTF-8"?>
<!DOCTYPE svg PUBLIC "-//W3C//DTD SVG 1.1//EN" "http://www.w3.org/Graphics/SVG/1.1/DTD/svg11.dtd">
<svg xmlns="http://www.w3.org/2000/svg" version="1.1" width="100px" height="100px" style="shape-rendering:geometricPrecision; text-rendering:geometricPrecision; image-rendering:optimizeQuality; fill-rule:evenodd; clip-rule:evenodd" xmlns:xlink="http://www.w3.org/1999/xlink">
<g><path style="opacity:0.98" fill="#04cad6" d="M 21.5,-0.5 C 23.1667,-0.5 24.8333,-0.5 26.5,-0.5C 30.8478,2.67541 35.5145,5.34207 40.5,7.5C 45.4337,4.96936 50.4337,2.63603 55.5,0.5C 53.6314,3.23966 52.1314,6.23966 51,9.5C 48.276,9.22383 45.6093,9.22383 43,9.5C 42.5045,11.4727 42.3379,13.4727 42.5,15.5C 34.5544,15.6697 26.7211,15.6697 19,15.5C 16.9539,17.7002 15.9539,20.3669 16,23.5C 15.8333,26.1667 15.6667,28.8333 15.5,31.5C 15.5217,34.5902 16.1883,37.2568 17.5,39.5C 17.9634,43.8284 17.1301,47.8284 15,51.5C 12.6194,52.435 10.1194,52.7683 7.5,52.5C 7.73731,53.791 7.40397,54.791 6.5,55.5C 4.5266,42.6547 2.19326,29.988 -0.5,17.5C -0.5,14.5 -0.5,11.5 -0.5,8.5C 7.08847,6.03633 14.4218,3.03633 21.5,-0.5 Z"/></g>
<g><path style="opacity:1" fill="#fbef47" d="M 61.5,-0.5 C 67.1667,-0.5 72.8333,-0.5 78.5,-0.5C 79.5676,0.434475 80.901,0.767809 82.5,0.5C 78.9021,3.31333 75.2355,6.14666 71.5,9C 69.5,9.66667 67.5,10.3333 65.5,11C 63.9632,12.1096 63.2965,13.6096 63.5,15.5C 59.1813,16.2488 54.848,16.4155 50.5,16C 51.2524,15.3292 51.5858,14.4959 51.5,13.5C 54.1288,10.3694 56.9621,7.36936 60,4.5C 60.4828,3.55198 60.6495,2.55198 60.5,1.5C 60.8333,0.833333 61.1667,0.166667 61.5,-0.5 Z"/></g>
<g><path style="opacity:1" fill="#b8f182" d="M 57.5,1.5 C 58.5,1.5 59.5,1.5 60.5,1.5C 60.6495,2.55198 60.4828,3.55198 60,4.5C 56.9621,7.36936 54.1288,10.3694 51.5,13.5C 50.609,14.1098 49.609,14.4431 48.5,14.5C 51.1288,11.3694 53.9621,8.36936 57,5.5C 57.49,4.20677 57.6567,2.87344 57.5,1.5 Z"/></g>
<g><path style="opacity:1" fill="#94de84" d="M 86.5,1.5 C 87.6737,2.51369 88.3404,3.84702 88.5,5.5C 87.0388,8.25502 84.7054,10.0884 81.5,11C 79.5,13 77.5,15 75.5,17C 72.854,17.4974 70.1873,17.6641 67.5,17.5C 66.448,17.6495 65.448,17.4828 64.5,17C 70.8202,14.1748 76.8202,10.8415 82.5,7C 83.7213,4.96634 85.0546,3.133 86.5,1.5 Z"/></g>
<g><path style="opacity:1" fill="#64d3a1" d="M 88.5,5.5 C 89.4918,7.45614 90.4918,9.45614 91.5,11.5C 88.065,12.1916 86.065,14.1916 85.5,17.5C 83.2646,17.2053 81.2646,17.5386 79.5,18.5C 75.5,18.5 71.5,18.5 67.5,18.5C 67.5,18.1667 67.5,17.8333 67.5,17.5C 70.1873,17.6641 72.854,17.4974 75.5,17C 77.5,15 79.5,13 81.5,11C 84.7054,10.0884 87.0388,8.25502 88.5,5.5 Z"/></g>
<g><path style="opacity:1" fill="#26c3c3" d="M 55.5,0.5 C 56.1667,0.833333 56.8333,1.16667 57.5,1.5C 57.6567,2.87344 57.49,4.20677 57,5.5C 53.9621,8.36936 51.1288,11.3694 48.5,14.5C 47.5116,15.795 46.5116,17.1283 45.5,18.5C 36.5,18.5 27.5,18.5 18.5,18.5C 18.5,19.5 18.5,20.5 18.5,21.5C 17.5104,27.31 17.1771,33.31 17.5,39.5C 16.1883,37.2568 15.5217,34.5902 15.5,31.5C 15.6667,28.8333 15.8333,26.1667 16,23.5C 15.9539,20.3669 16.9539,17.7002 19,15.5C 26.7211,15.6697 34.5544,15.6697 42.5,15.5C 42.3379,13.4727 42.5045,11.4727 43,9.5C 45.6093,9.22383 48.276,9.22383 51,9.5C 52.1314,6.23966 53.6314,3.23966 55.5,0.5 Z"/></g>
<g><path style="opacity:1" fill="#dee964" d="M 82.5,0.5 C 84.099,0.232191 85.4324,0.565525 86.5,1.5C 85.0546,3.133 83.7213,4.96634 82.5,7C 76.8202,10.8415 70.8202,14.1748 64.5,17C 65.448,17.4828 66.448,17.6495 67.5,17.5C 67.5,17.8333 67.5,18.1667 67.5,18.5C 60.1667,18.5 52.8333,18.5 45.5,18.5C 46.5116,17.1283 47.5116,15.795 48.5,14.5C 49.609,14.4431 50.609,14.1098 51.5,13.5C 51.5858,14.4959 51.2524,15.3292 50.5,16C 54.848,16.4155 59.1813,16.2488 63.5,15.5C 63.2965,13.6096 63.9632,12.1096 65.5,11C 67.5,10.3333 69.5,9.66667 71.5,9C 75.2355,6.14666 78.9021,3.31333 82.5,0.5 Z"/></g>
<g><path style="opacity:1" fill="#11ccd1" d="M 91.5,11.5 C 93.4344,15.7069 95.1011,20.0402 96.5,24.5C 96.5654,24.9382 96.3988,25.2716 96,25.5C 92.7568,23.7375 89.2568,23.0708 85.5,23.5C 85.762,22.0222 85.4287,20.6888 84.5,19.5C 83.1408,20.6243 82.1408,21.9577 81.5,23.5C 81.7845,21.5853 81.4511,19.9187 80.5,18.5C 80.1667,18.5 79.8333,18.5 79.5,18.5C 81.2646,17.5386 83.2646,17.2053 85.5,17.5C 86.065,14.1916 88.065,12.1916 91.5,11.5 Z"/></g>
<g><path style="opacity:1" fill="#02343d" d="M 45.5,18.5 C 45.5,18.8333 45.5,19.1667 45.5,19.5C 36.8333,19.5 28.1667,19.5 19.5,19.5C 19.5,39.5 19.5,59.5 19.5,79.5C 37.6744,79.1699 55.6744,79.5032 73.5,80.5C 62.1667,80.5 50.8333,80.5 39.5,80.5C 32.3134,80.8245 25.3134,80.4912 18.5,79.5C 18.5,60.1667 18.5,40.8333 18.5,21.5C 18.5,20.5 18.5,19.5 18.5,18.5C 27.5,18.5 36.5,18.5 45.5,18.5 Z"/></g>
<g><path style="opacity:0.997" fill="#060707" d="M 45.5,19.5 C 56.8333,19.5 68.1667,19.5 79.5,19.5C 79.1697,38.674 79.503,57.674 80.5,76.5C 80.8333,76.5 81.1667,76.5 81.5,76.5C 81.7135,78.1439 81.3802,79.6439 80.5,81C 78.1902,81.4966 75.8568,81.6633 73.5,81.5C 73.5,81.1667 73.5,80.8333 73.5,80.5C 55.6744,79.5032 37.6744,79.1699 19.5,79.5C 19.5,59.5 19.5,39.5 19.5,19.5C 28.1667,19.5 36.8333,19.5 45.5,19.5 Z"/></g>
<g><path style="opacity:1" fill="#eeefef" d="M 59.5,26.5 C 63.1817,26.3347 66.8484,26.5014 70.5,27C 74.1314,28.6824 74.2981,30.8491 71,33.5C 69.1509,32.4392 67.1509,31.7725 65,31.5C 61.1784,31.9695 60.6784,33.4695 63.5,36C 67.6253,36.7037 71.1253,38.537 74,41.5C 74.6506,51.1595 70.1506,54.6595 60.5,52C 55.1903,50.742 54.3569,48.242 58,44.5C 61.794,47.7859 65.6274,48.1193 69.5,45.5C 69.0233,44.5224 68.3567,43.6891 67.5,43C 55.6565,41.4891 52.9898,35.9891 59.5,26.5 Z"/></g>
<g><path style="opacity:1" fill="#f2f2f2" d="M 23.5,26.5 C 25.5,26.5 27.5,26.5 29.5,26.5C 30.0952,31.3096 31.2619,35.9762 33,40.5C 34.119,35.8507 35.619,31.3507 37.5,27C 39.1124,26.2797 40.6124,26.4464 42,27.5C 43.1312,31.8938 44.4646,36.2272 46,40.5C 47.0122,36.1174 48.1788,31.7841 49.5,27.5C 51.396,26.5344 53.396,26.2011 55.5,26.5C 53.1605,35.1821 50.8272,43.8488 48.5,52.5C 46.8333,52.5 45.1667,52.5 43.5,52.5C 42.7512,47.6682 41.4178,43.0016 39.5,38.5C 37.5781,43.0071 36.2448,47.6738 35.5,52.5C 33.8333,52.5 32.1667,52.5 30.5,52.5C 28.1631,43.8179 25.8298,35.1513 23.5,26.5 Z"/></g>
<g><path style="opacity:0.997" fill="#1b95d8" d="M 97.5,35.5 C 95.5698,39.1002 92.9031,42.1002 89.5,44.5C 84.681,39.0144 85.681,35.3477 92.5,33.5C 94.4216,33.8008 96.0883,34.4675 97.5,35.5 Z"/></g>
<g><path style="opacity:1" fill="#0facd1" d="M 98.5,29.5 C 98.8333,29.5 99.1667,29.5 99.5,29.5C 99.5,31.5 99.5,33.5 99.5,35.5C 98.8333,35.5 98.1667,35.5 97.5,35.5C 96.0883,34.4675 94.4216,33.8008 92.5,33.5C 85.681,35.3477 84.681,39.0144 89.5,44.5C 88.4168,44.4606 87.4168,44.1272 86.5,43.5C 85.343,40.2156 85.1764,36.8823 86,33.5C 90.1533,32.0074 94.32,30.6741 98.5,29.5 Z"/></g>
<g><path style="opacity:1" fill="#12332d" d="M 45.5,19.5 C 45.5,19.1667 45.5,18.8333 45.5,18.5C 52.8333,18.5 60.1667,18.5 67.5,18.5C 71.5,18.5 75.5,18.5 79.5,18.5C 79.8333,18.5 80.1667,18.5 80.5,18.5C 80.5,37.8333 80.5,57.1667 80.5,76.5C 79.503,57.674 79.1697,38.674 79.5,19.5C 68.1667,19.5 56.8333,19.5 45.5,19.5 Z"/></g>
<g><path style="opacity:1" fill="#34a5ab" d="M 80.5,18.5 C 81.4511,19.9187 81.7845,21.5853 81.5,23.5C 81.17,41.008 81.5033,58.3414 82.5,75.5C 82.5,76.1667 82.1667,76.5 81.5,76.5C 81.1667,76.5 80.8333,76.5 80.5,76.5C 80.5,57.1667 80.5,37.8333 80.5,18.5 Z"/></g>
<g><path style="opacity:1" fill="#09c7d5" d="M 96.5,24.5 C 97.5375,25.9303 98.2041,27.597 98.5,29.5C 94.32,30.6741 90.1533,32.0074 86,33.5C 85.1764,36.8823 85.343,40.2156 86.5,43.5C 87.4168,44.1272 88.4168,44.4606 89.5,44.5C 92.3439,50.8621 95.6772,56.8621 99.5,62.5C 99.5,63.8333 99.5,65.1667 99.5,66.5C 93.9647,69.7674 88.2981,72.7674 82.5,75.5C 81.5033,58.3414 81.17,41.008 81.5,23.5C 82.1408,21.9577 83.1408,20.6243 84.5,19.5C 85.4287,20.6888 85.762,22.0222 85.5,23.5C 89.2568,23.0708 92.7568,23.7375 96,25.5C 96.3988,25.2716 96.5654,24.9382 96.5,24.5 Z"/></g>
<g><path style="opacity:1" fill="#21acc8" d="M 18.5,21.5 C 18.5,40.8333 18.5,60.1667 18.5,79.5C 18.1667,79.5 17.8333,79.5 17.5,79.5C 17.2575,73.816 16.7575,68.1493 16,62.5C 15.7508,63.624 15.2508,64.624 14.5,65.5C 12.2346,62.9325 10.2346,62.9325 8.5,65.5C 7.67679,62.3162 7.01012,58.9828 6.5,55.5C 7.40397,54.791 7.73731,53.791 7.5,52.5C 10.1194,52.7683 12.6194,52.435 15,51.5C 17.1301,47.8284 17.9634,43.8284 17.5,39.5C 17.1771,33.31 17.5104,27.31 18.5,21.5 Z"/></g>
<g><path style="opacity:1" fill="#e9e9e9" d="M 24.5,68.5 C 32.1667,68.5 39.8333,68.5 47.5,68.5C 47.5,69.8333 47.5,71.1667 47.5,72.5C 39.8333,72.5 32.1667,72.5 24.5,72.5C 24.5,71.1667 24.5,69.8333 24.5,68.5 Z"/></g>
<g><path style="opacity:0.9" fill="#17a4d2" d="M 17.5,79.5 C 15.795,80.5353 14.1284,80.5353 12.5,79.5C 11.7025,79.9569 11.3691,80.6236 11.5,81.5C 9.85666,76.4154 8.85666,71.082 8.5,65.5C 10.2346,62.9325 12.2346,62.9325 14.5,65.5C 15.2508,64.624 15.7508,63.624 16,62.5C 16.7575,68.1493 17.2575,73.816 17.5,79.5 Z"/></g>
<g><path style="opacity:1" fill="#2ea4b4" d="M 39.5,80.5 C 50.8333,80.5 62.1667,80.5 73.5,80.5C 73.5,80.8333 73.5,81.1667 73.5,81.5C 72.3263,82.5137 71.6596,83.847 71.5,85.5C 69.6119,84.7249 67.6119,84.7249 65.5,85.5C 66.7653,84.5207 68.0986,83.5207 69.5,82.5C 65.1667,82.1667 60.8333,81.8333 56.5,81.5C 51.7784,81.5079 47.4451,82.1745 43.5,83.5C 42.8333,83.5 42.1667,83.5 41.5,83.5C 40.8333,82.5 40.1667,81.5 39.5,80.5 Z"/></g>
<g><path style="opacity:1" fill="#2493c8" d="M 17.5,79.5 C 17.8333,79.5 18.1667,79.5 18.5,79.5C 25.3134,80.4912 32.3134,80.8245 39.5,80.5C 40.1667,81.5 40.8333,82.5 41.5,83.5C 31.8333,83.5 22.1667,83.5 12.5,83.5C 12.5,85.5 12.5,87.5 12.5,89.5C 11.5269,87.0521 11.1936,84.3854 11.5,81.5C 11.3691,80.6236 11.7025,79.9569 12.5,79.5C 14.1284,80.5353 15.795,80.5353 17.5,79.5 Z"/></g>
<g><path style="opacity:1" fill="#1a93d5" d="M 41.5,83.5 C 42.1667,83.5 42.8333,83.5 43.5,83.5C 46.6032,85.4233 49.6032,87.59 52.5,90C 54.8848,90.5564 57.2181,90.3897 59.5,89.5C 58.7561,91.4534 57.2561,92.4534 55,92.5C 49.9301,91.3785 44.9301,90.0452 40,88.5C 39.6924,89.3081 39.1924,89.9747 38.5,90.5C 37.8333,89.5 37.1667,88.5 36.5,87.5C 34.9291,88.3094 33.2624,88.6427 31.5,88.5C 31.8308,90.3224 32.4975,91.9891 33.5,93.5C 27.1118,93.154 20.7785,92.3207 14.5,91C 13.5842,90.7216 12.9175,90.2216 12.5,89.5C 12.5,87.5 12.5,85.5 12.5,83.5C 22.1667,83.5 31.8333,83.5 41.5,83.5 Z"/></g>
<g><path style="opacity:1" fill="#0dc7d9" d="M 65.5,85.5 C 63.4632,86.8465 61.4632,88.1798 59.5,89.5C 57.2181,90.3897 54.8848,90.5564 52.5,90C 49.6032,87.59 46.6032,85.4233 43.5,83.5C 47.4451,82.1745 51.7784,81.5079 56.5,81.5C 60.8333,81.8333 65.1667,82.1667 69.5,82.5C 68.0986,83.5207 66.7653,84.5207 65.5,85.5 Z"/></g>
<g><path style="opacity:1" fill="#2087d6" d="M 71.5,85.5 C 70.5127,90.1173 69.846,94.784 69.5,99.5C 66.5,99.5 63.5,99.5 60.5,99.5C 51.4696,97.6592 42.4696,95.6592 33.5,93.5C 32.4975,91.9891 31.8308,90.3224 31.5,88.5C 33.2624,88.6427 34.9291,88.3094 36.5,87.5C 37.1667,88.5 37.8333,89.5 38.5,90.5C 39.1924,89.9747 39.6924,89.3081 40,88.5C 44.9301,90.0452 49.9301,91.3785 55,92.5C 57.2561,92.4534 58.7561,91.4534 59.5,89.5C 61.4632,88.1798 63.4632,86.8465 65.5,85.5C 67.6119,84.7249 69.6119,84.7249 71.5,85.5 Z"/></g>
</svg>
