<?xml version="1.0" encoding="UTF-8"?>
<!DOCTYPE svg PUBLIC "-//W3C//DTD SVG 1.1//EN" "http://www.w3.org/Graphics/SVG/1.1/DTD/svg11.dtd">
<svg xmlns="http://www.w3.org/2000/svg" version="1.1" width="100px" height="100px" style="shape-rendering:geometricPrecision; text-rendering:geometricPrecision; image-rendering:optimizeQuality; fill-rule:evenodd; clip-rule:evenodd" xmlns:xlink="http://www.w3.org/1999/xlink">
<g><path style="opacity:1" fill="#46ccfb" d="M 1.5,-0.5 C 7.5,-0.5 13.5,-0.5 19.5,-0.5C 19.6641,2.1873 19.4974,4.85397 19,7.5C 16.8531,6.5243 14.6864,6.69096 12.5,8C 11.6634,9.01127 11.33,10.1779 11.5,11.5C 8.5,11.1667 7.16667,12.5 7.5,15.5C 5.17825,17.4116 2.51159,18.745 -0.5,19.5C -0.5,13.5 -0.5,7.5 -0.5,1.5C 0.5,1.16667 1.16667,0.5 1.5,-0.5 Z"/></g>
<g><path style="opacity:1" fill="#38bcf2" d="M 29.5,-0.5 C 31.5,-0.5 33.5,-0.5 35.5,-0.5C 35.8226,3.22605 35.4892,6.89272 34.5,10.5C 32.1987,11.3249 29.8654,11.9916 27.5,12.5C 29.0577,8.39194 29.7244,4.05861 29.5,-0.5 Z"/></g>
<g><path style="opacity:1" fill="#34b8f0" d="M 35.5,-0.5 C 38.1667,-0.5 40.8333,-0.5 43.5,-0.5C 43.5,0.5 43.5,1.5 43.5,2.5C 42.1667,2.5 40.8333,2.5 39.5,2.5C 39.665,5.8499 39.4983,9.18323 39,12.5C 35.9085,17.2616 33.4085,22.2616 31.5,27.5C 27.8507,27.655 25.184,29.3217 23.5,32.5C 20.9453,33.4611 18.612,34.7945 16.5,36.5C 13.1074,35.184 10.4408,36.184 8.5,39.5C 5.57884,38.5934 2.57884,38.2601 -0.5,38.5C -0.5,36.1667 -0.5,33.8333 -0.5,31.5C 5.83715,30.0812 12.1705,28.5812 18.5,27C 19.3366,25.9887 19.67,24.8221 19.5,23.5C 20.8333,23.5 22.1667,23.5 23.5,23.5C 23.5,22.5 23.5,21.5 23.5,20.5C 24.5,20.5 25.5,20.5 26.5,20.5C 27.0916,17.8728 27.4249,15.2062 27.5,12.5C 29.8654,11.9916 32.1987,11.3249 34.5,10.5C 35.4892,6.89272 35.8226,3.22605 35.5,-0.5 Z"/></g>
<g><path style="opacity:1" fill="#2eb2ed" d="M 43.5,-0.5 C 44.5,-0.5 45.5,-0.5 46.5,-0.5C 46.5,3.5 46.5,7.5 46.5,11.5C 45.5,11.5 44.5,11.5 43.5,11.5C 43.4332,13.4008 43.7665,15.2341 44.5,17C 40.0546,22.5008 36.0546,28.3342 32.5,34.5C 29.276,36.5632 25.9427,38.3965 22.5,40C 21.7894,41.2547 20.956,42.4214 20,43.5C 19.6667,43.1667 19.3333,42.8333 19,42.5C 16.0573,44.7984 13.224,44.7984 10.5,42.5C 7.61149,45.8107 3.94482,47.144 -0.5,46.5C -0.5,43.8333 -0.5,41.1667 -0.5,38.5C 2.57884,38.2601 5.57884,38.5934 8.5,39.5C 10.4408,36.184 13.1074,35.184 16.5,36.5C 18.612,34.7945 20.9453,33.4611 23.5,32.5C 25.184,29.3217 27.8507,27.655 31.5,27.5C 33.4085,22.2616 35.9085,17.2616 39,12.5C 39.4983,9.18323 39.665,5.8499 39.5,2.5C 40.8333,2.5 42.1667,2.5 43.5,2.5C 43.5,1.5 43.5,0.5 43.5,-0.5 Z"/></g>
<g><path style="opacity:1" fill="#1ea0d1" d="M 51.5,-0.5 C 52.5,-0.5 53.5,-0.5 54.5,-0.5C 54.0133,3.8672 53.3467,8.20054 52.5,12.5C 52.5,17.8333 52.5,23.1667 52.5,28.5C 52.5,35.1667 52.5,41.8333 52.5,48.5C 51.5036,32.3419 51.1702,16.0085 51.5,-0.5 Z"/></g>
<g><path style="opacity:1" fill="#0eaae2" d="M 54.5,-0.5 C 55.1667,-0.5 55.8333,-0.5 56.5,-0.5C 56.1667,2.16667 55.8333,4.83333 55.5,7.5C 53.9724,8.80208 52.9724,10.4687 52.5,12.5C 53.3467,8.20054 54.0133,3.8672 54.5,-0.5 Z"/></g>
<g><path style="opacity:1" fill="#0ea9e9" d="M 56.5,-0.5 C 58.8333,-0.5 61.1667,-0.5 63.5,-0.5C 63.1939,4.64757 60.5272,7.31424 55.5,7.5C 55.8333,4.83333 56.1667,2.16667 56.5,-0.5 Z"/></g>
<g><path style="opacity:1" fill="#0da4e7" d="M 63.5,-0.5 C 66.5,-0.5 69.5,-0.5 72.5,-0.5C 71.201,3.37049 70.5343,7.37049 70.5,11.5C 67.5,12.8333 64.5,14.1667 61.5,15.5C 61.5,16.5 61.5,17.5 61.5,18.5C 58.8333,18.5 56.1667,18.5 53.5,18.5C 53.5,21.8333 53.5,25.1667 53.5,28.5C 53.1667,28.5 52.8333,28.5 52.5,28.5C 52.5,23.1667 52.5,17.8333 52.5,12.5C 52.9724,10.4687 53.9724,8.80208 55.5,7.5C 60.5272,7.31424 63.1939,4.64757 63.5,-0.5 Z"/></g>
<g><path style="opacity:1" fill="#0b9fe4" d="M 72.5,-0.5 C 74.8333,-0.5 77.1667,-0.5 79.5,-0.5C 79.5,2.16667 79.5,4.83333 79.5,7.5C 78.5,7.5 77.5,7.5 76.5,7.5C 76.477,9.92668 75.977,12.26 75,14.5C 73.9887,15.3366 72.8221,15.67 71.5,15.5C 71.5,16.8333 71.5,18.1667 71.5,19.5C 70.1667,19.5 68.8333,19.5 67.5,19.5C 67.5,20.8333 67.5,22.1667 67.5,23.5C 66.1667,23.5 64.8333,23.5 63.5,23.5C 63.5,24.5 63.5,25.5 63.5,26.5C 60.1878,26.363 57.3545,27.363 55,29.5C 54.6174,28.944 54.1174,28.6107 53.5,28.5C 53.5,25.1667 53.5,21.8333 53.5,18.5C 56.1667,18.5 58.8333,18.5 61.5,18.5C 61.5,17.5 61.5,16.5 61.5,15.5C 64.5,14.1667 67.5,12.8333 70.5,11.5C 70.5343,7.37049 71.201,3.37049 72.5,-0.5 Z"/></g>
<g><path style="opacity:1" fill="#0998e2" d="M 79.5,-0.5 C 82.5,-0.5 85.5,-0.5 88.5,-0.5C 88.1601,2.14413 88.8267,4.47746 90.5,6.5C 88.7056,10.6741 87.3722,15.0075 86.5,19.5C 85.5,19.5 84.5,19.5 83.5,19.5C 83.5,20.8333 83.5,22.1667 83.5,23.5C 82.1667,23.5 80.8333,23.5 79.5,23.5C 79.5,24.8333 79.5,26.1667 79.5,27.5C 76.5,27.1667 75.1667,28.5 75.5,31.5C 74.1667,31.5 72.8333,31.5 71.5,31.5C 71.5,32.8333 71.5,34.1667 71.5,35.5C 68.8333,35.5 66.1667,35.5 63.5,35.5C 63.5,36.5 63.5,37.5 63.5,38.5C 60.8333,38.5 58.1667,38.5 55.5,38.5C 55.6495,37.448 55.4828,36.448 55,35.5C 53.9246,39.77 53.4246,44.1033 53.5,48.5C 53.1667,48.5 52.8333,48.5 52.5,48.5C 52.5,41.8333 52.5,35.1667 52.5,28.5C 52.8333,28.5 53.1667,28.5 53.5,28.5C 54.1174,28.6107 54.6174,28.944 55,29.5C 57.3545,27.363 60.1878,26.363 63.5,26.5C 63.5,25.5 63.5,24.5 63.5,23.5C 64.8333,23.5 66.1667,23.5 67.5,23.5C 67.5,22.1667 67.5,20.8333 67.5,19.5C 68.8333,19.5 70.1667,19.5 71.5,19.5C 71.5,18.1667 71.5,16.8333 71.5,15.5C 72.8221,15.67 73.9887,15.3366 75,14.5C 75.977,12.26 76.477,9.92668 76.5,7.5C 77.5,7.5 78.5,7.5 79.5,7.5C 79.5,4.83333 79.5,2.16667 79.5,-0.5 Z"/></g>
<g><path style="opacity:0.988" fill="#0792de" d="M 88.5,-0.5 C 91.5,-0.5 94.5,-0.5 97.5,-0.5C 97.8333,0.5 98.5,1.16667 99.5,1.5C 99.5,6.16667 99.5,10.8333 99.5,15.5C 97.5,15.5 95.5,15.5 93.5,15.5C 92.201,19.3705 91.5343,23.3705 91.5,27.5C 90.1667,27.5 88.8333,27.5 87.5,27.5C 87.5,28.8333 87.5,30.1667 87.5,31.5C 86.1667,31.5 84.8333,31.5 83.5,31.5C 85.1667,38.5 82.5,41.1667 75.5,39.5C 75.5,40.8333 75.5,42.1667 75.5,43.5C 74.1667,43.5 72.8333,43.5 71.5,43.5C 71.5,44.5 71.5,45.5 71.5,46.5C 73.8984,46.2594 75.8984,46.9261 77.5,48.5C 69.5,48.5 61.5,48.5 53.5,48.5C 53.4246,44.1033 53.9246,39.77 55,35.5C 55.4828,36.448 55.6495,37.448 55.5,38.5C 58.1667,38.5 60.8333,38.5 63.5,38.5C 63.5,37.5 63.5,36.5 63.5,35.5C 66.1667,35.5 68.8333,35.5 71.5,35.5C 71.5,34.1667 71.5,32.8333 71.5,31.5C 72.8333,31.5 74.1667,31.5 75.5,31.5C 75.1667,28.5 76.5,27.1667 79.5,27.5C 79.5,26.1667 79.5,24.8333 79.5,23.5C 80.8333,23.5 82.1667,23.5 83.5,23.5C 83.5,22.1667 83.5,20.8333 83.5,19.5C 84.5,19.5 85.5,19.5 86.5,19.5C 87.3722,15.0075 88.7056,10.6741 90.5,6.5C 88.8267,4.47746 88.1601,2.14413 88.5,-0.5 Z"/></g>
<g><path style="opacity:1" fill="#40c5f8" d="M 19.5,-0.5 C 20.8333,-0.5 22.1667,-0.5 23.5,-0.5C 23.5,5.5 23.5,11.5 23.5,17.5C 20.3138,17.8954 17.3138,18.8954 14.5,20.5C 13.6143,21.325 13.281,22.325 13.5,23.5C 10.1667,23.5 6.83333,23.5 3.5,23.5C 3.5,24.8333 3.5,26.1667 3.5,27.5C 2.16667,27.5 0.833333,27.5 -0.5,27.5C -0.5,24.8333 -0.5,22.1667 -0.5,19.5C 2.51159,18.745 5.17825,17.4116 7.5,15.5C 7.16667,12.5 8.5,11.1667 11.5,11.5C 11.33,10.1779 11.6634,9.01127 12.5,8C 14.6864,6.69096 16.8531,6.5243 19,7.5C 19.4974,4.85397 19.6641,2.1873 19.5,-0.5 Z"/></g>
<g><path style="opacity:0.984" fill="#26ace9" d="M 48.5,25.5 C 48.5,26.5 48.5,27.5 48.5,28.5C 47.8333,29.5 47.1667,30.5 46.5,31.5C 45.1667,31.5 43.8333,31.5 42.5,31.5C 42.1939,36.6476 39.5272,39.3142 34.5,39.5C 34.9172,36.6567 35.9172,33.99 37.5,31.5C 40.4604,28.0602 43.127,24.3936 45.5,20.5C 46.0652,22.5435 47.0652,24.2102 48.5,25.5 Z"/></g>
<g><path style="opacity:1" fill="#3abff4" d="M 23.5,-0.5 C 25.5,-0.5 27.5,-0.5 29.5,-0.5C 29.7244,4.05861 29.0577,8.39194 27.5,12.5C 27.4249,15.2062 27.0916,17.8728 26.5,20.5C 25.5,20.5 24.5,20.5 23.5,20.5C 23.5,21.5 23.5,22.5 23.5,23.5C 22.1667,23.5 20.8333,23.5 19.5,23.5C 19.67,24.8221 19.3366,25.9887 18.5,27C 12.1705,28.5812 5.83715,30.0812 -0.5,31.5C -0.5,30.1667 -0.5,28.8333 -0.5,27.5C 0.833333,27.5 2.16667,27.5 3.5,27.5C 3.5,26.1667 3.5,24.8333 3.5,23.5C 6.83333,23.5 10.1667,23.5 13.5,23.5C 13.281,22.325 13.6143,21.325 14.5,20.5C 17.3138,18.8954 20.3138,17.8954 23.5,17.5C 23.5,11.5 23.5,5.5 23.5,-0.5 Z"/></g>
<g><path style="opacity:1" fill="#068ddd" d="M 99.5,15.5 C 99.5,20.8333 99.5,26.1667 99.5,31.5C 98.1667,31.5 96.8333,31.5 95.5,31.5C 95.5,32.8333 95.5,34.1667 95.5,35.5C 92.8333,35.5 90.1667,35.5 87.5,35.5C 87.5,39.1667 87.5,42.8333 87.5,46.5C 84.6275,46.8023 81.9608,47.469 79.5,48.5C 78.8333,48.5 78.1667,48.5 77.5,48.5C 75.8984,46.9261 73.8984,46.2594 71.5,46.5C 71.5,45.5 71.5,44.5 71.5,43.5C 72.8333,43.5 74.1667,43.5 75.5,43.5C 75.5,42.1667 75.5,40.8333 75.5,39.5C 82.5,41.1667 85.1667,38.5 83.5,31.5C 84.8333,31.5 86.1667,31.5 87.5,31.5C 87.5,30.1667 87.5,28.8333 87.5,27.5C 88.8333,27.5 90.1667,27.5 91.5,27.5C 91.5343,23.3705 92.201,19.3705 93.5,15.5C 95.5,15.5 97.5,15.5 99.5,15.5 Z"/></g>
<g><path style="opacity:0.954" fill="#24a9e8" d="M 46.5,31.5 C 45.1667,35.5 43.8333,39.5 42.5,43.5C 40.5,43.5 38.5,43.5 36.5,43.5C 36.5,44.8333 36.5,46.1667 36.5,47.5C 33.5,47.5 30.5,47.5 27.5,47.5C 27.5,46.1667 27.5,44.8333 27.5,43.5C 29.8333,43.5 32.1667,43.5 34.5,43.5C 34.5,42.1667 34.5,40.8333 34.5,39.5C 39.5272,39.3142 42.1939,36.6476 42.5,31.5C 43.8333,31.5 45.1667,31.5 46.5,31.5 Z"/></g>
<g><path style="opacity:1" fill="#058ada" d="M 99.5,31.5 C 99.5,34.1667 99.5,36.8333 99.5,39.5C 98.1667,39.5 96.8333,39.5 95.5,39.5C 95.5,40.8333 95.5,42.1667 95.5,43.5C 94.1667,43.5 92.8333,43.5 91.5,43.5C 91.5,44.5 91.5,45.5 91.5,46.5C 90.1667,46.5 88.8333,46.5 87.5,46.5C 87.5,42.8333 87.5,39.1667 87.5,35.5C 90.1667,35.5 92.8333,35.5 95.5,35.5C 95.5,34.1667 95.5,32.8333 95.5,31.5C 96.8333,31.5 98.1667,31.5 99.5,31.5 Z"/></g>
<g><path style="opacity:0.858" fill="#21a4e4" d="M 48.5,28.5 C 48.811,35.0898 48.4777,41.5898 47.5,48C 40.5079,48.4996 33.5079,48.6663 26.5,48.5C 26.5,47.8333 26.8333,47.5 27.5,47.5C 30.5,47.5 33.5,47.5 36.5,47.5C 36.5,46.1667 36.5,44.8333 36.5,43.5C 38.5,43.5 40.5,43.5 42.5,43.5C 43.8333,39.5 45.1667,35.5 46.5,31.5C 47.1667,30.5 47.8333,29.5 48.5,28.5 Z"/></g>
<g><path style="opacity:0.956" fill="#0485d8" d="M 99.5,39.5 C 99.5,42.5 99.5,45.5 99.5,48.5C 92.8333,48.5 86.1667,48.5 79.5,48.5C 81.9608,47.469 84.6275,46.8023 87.5,46.5C 88.8333,46.5 90.1667,46.5 91.5,46.5C 91.5,45.5 91.5,44.5 91.5,43.5C 92.8333,43.5 94.1667,43.5 95.5,43.5C 95.5,42.1667 95.5,40.8333 95.5,39.5C 96.8333,39.5 98.1667,39.5 99.5,39.5 Z"/></g>
<g><path style="opacity:0.977" fill="#28b1ed" d="M 46.5,-0.5 C 47.1667,-0.5 47.8333,-0.5 48.5,-0.5C 48.5,8.16667 48.5,16.8333 48.5,25.5C 47.0652,24.2102 46.0652,22.5435 45.5,20.5C 43.127,24.3936 40.4604,28.0602 37.5,31.5C 35.9172,33.99 34.9172,36.6567 34.5,39.5C 34.5,40.8333 34.5,42.1667 34.5,43.5C 32.1667,43.5 29.8333,43.5 27.5,43.5C 27.5,44.8333 27.5,46.1667 27.5,47.5C 26.8333,47.5 26.5,47.8333 26.5,48.5C 17.5,48.5 8.5,48.5 -0.5,48.5C -0.5,47.8333 -0.5,47.1667 -0.5,46.5C 3.94482,47.144 7.61149,45.8107 10.5,42.5C 13.224,44.7984 16.0573,44.7984 19,42.5C 19.3333,42.8333 19.6667,43.1667 20,43.5C 20.956,42.4214 21.7894,41.2547 22.5,40C 25.9427,38.3965 29.276,36.5632 32.5,34.5C 36.0546,28.3342 40.0546,22.5008 44.5,17C 43.7665,15.2341 43.4332,13.4008 43.5,11.5C 44.5,11.5 45.5,11.5 46.5,11.5C 46.5,7.5 46.5,3.5 46.5,-0.5 Z"/></g>
<g><path style="opacity:1" fill="#228bcf" d="M -0.5,52.5 C -0.5,52.1667 -0.5,51.8333 -0.5,51.5C 16.2009,50.8482 32.5342,51.5149 48.5,53.5C 43.4889,53.3341 38.4889,53.5007 33.5,54C 32.944,54.3826 32.6107,54.8826 32.5,55.5C 30.1667,55.5 27.8333,55.5 25.5,55.5C 25.1667,54.8333 24.8333,54.1667 24.5,53.5C 20.7016,52.5166 16.7016,52.1832 12.5,52.5C 8.16667,52.5 3.83333,52.5 -0.5,52.5 Z"/></g>
<g><path style="opacity:1" fill="#1086d2" d="M 71.5,52.5 C 67.8091,53.3934 64.1424,54.3934 60.5,55.5C 58.8333,55.5 57.1667,55.5 55.5,55.5C 54.6191,60.6686 53.9525,66.0019 53.5,71.5C 53.1667,71.5 52.8333,71.5 52.5,71.5C 52.5,65.1667 52.5,58.8333 52.5,52.5C 58.8333,52.5 65.1667,52.5 71.5,52.5 Z"/></g>
<g><path style="opacity:1" fill="#0880d7" d="M 88.5,52.5 C 92.1667,52.5 95.8333,52.5 99.5,52.5C 99.5,52.8333 99.5,53.1667 99.5,53.5C 95.7802,53.5642 92.1135,54.0642 88.5,55C 90.1341,55.4935 91.8008,55.6602 93.5,55.5C 94.0356,58.6981 93.369,61.3647 91.5,63.5C 90.1667,63.5 88.8333,63.5 87.5,63.5C 87.5,66.1667 87.5,68.8333 87.5,71.5C 86.1667,71.5 84.8333,71.5 83.5,71.5C 83.5,73.5 83.5,75.5 83.5,77.5C 80.8333,78.1667 78.1667,78.8333 75.5,79.5C 75.5,80.8333 75.5,82.1667 75.5,83.5C 72.8333,83.5 70.1667,83.5 67.5,83.5C 67.5,84.8333 67.5,86.1667 67.5,87.5C 65.4534,87.4889 63.4534,87.1556 61.5,86.5C 59.0276,87.9917 56.3609,88.6584 53.5,88.5C 54.1266,83.8592 54.4599,79.1925 54.5,74.5C 56.0418,75.3007 57.7085,75.634 59.5,75.5C 59.5,74.1667 59.5,72.8333 59.5,71.5C 62.1667,71.5 64.8333,71.5 67.5,71.5C 67.5,70.1667 67.5,68.8333 67.5,67.5C 68.8333,67.5 70.1667,67.5 71.5,67.5C 71.5,66.1667 71.5,64.8333 71.5,63.5C 72.8333,63.5 74.1667,63.5 75.5,63.5C 75.012,60.2893 75.6787,57.456 77.5,55C 76.9056,54.5357 76.2389,54.369 75.5,54.5C 79.8333,53.8333 84.1667,53.1667 88.5,52.5 Z"/></g>
<g><path style="opacity:1" fill="#0c84d6" d="M 71.5,52.5 C 77.1667,52.5 82.8333,52.5 88.5,52.5C 84.1667,53.1667 79.8333,53.8333 75.5,54.5C 71.9468,54.8439 68.4468,55.5106 65,56.5C 63.5603,55.8524 62.0603,55.5191 60.5,55.5C 64.1424,54.3934 67.8091,53.3934 71.5,52.5 Z"/></g>
<g><path style="opacity:1" fill="#057bd5" d="M 99.5,53.5 C 99.5,59.5 99.5,65.5 99.5,71.5C 98.1667,74.1667 96.8333,76.8333 95.5,79.5C 95.8399,76.8559 95.1733,74.5225 93.5,72.5C 95.9238,70.2864 95.2571,69.2864 91.5,69.5C 91.5,67.5 91.5,65.5 91.5,63.5C 93.369,61.3647 94.0356,58.6981 93.5,55.5C 91.8008,55.6602 90.1341,55.4935 88.5,55C 92.1135,54.0642 95.7802,53.5642 99.5,53.5 Z"/></g>
<g><path style="opacity:1" fill="#23a1ea" d="M -0.5,52.5 C 3.83333,52.5 8.16667,52.5 12.5,52.5C 11.0813,53.4511 9.41467,53.7845 7.5,53.5C 7.98188,56.9458 7.98188,60.2791 7.5,63.5C 5.47263,65.8475 2.80596,67.1808 -0.5,67.5C -0.5,62.5 -0.5,57.5 -0.5,52.5 Z"/></g>
<g><path style="opacity:1" fill="#1692e2" d="M 25.5,55.5 C 27.8333,55.5 30.1667,55.5 32.5,55.5C 34.2624,56.2623 35.2624,57.5956 35.5,59.5C 33.4113,61.254 31.078,62.5873 28.5,63.5C 28.6675,68.2556 27.1675,72.2556 24,75.5C 22.7012,75.0338 21.2012,75.0338 19.5,75.5C 19.5,76.8333 19.5,78.1667 19.5,79.5C 16.9876,79.4228 14.9876,80.4228 13.5,82.5C 8.88035,83.4933 4.21369,83.8266 -0.5,83.5C -0.5,80.8333 -0.5,78.1667 -0.5,75.5C 0.833333,75.5 2.16667,75.5 3.5,75.5C 3.23798,74.0222 3.57131,72.6888 4.5,71.5C 5.38568,72.325 5.71901,73.325 5.5,74.5C 7.49181,74.3285 9.15848,74.9951 10.5,76.5C 12.2251,75.9851 13.8917,75.3184 15.5,74.5C 12.8333,73.1667 12.8333,71.8333 15.5,70.5C 14.1667,69.8333 12.8333,69.1667 11.5,68.5C 14.2707,67.7825 16.9374,67.4492 19.5,67.5C 20.3142,65.2338 20.8142,62.9005 21,60.5C 21.3333,61.5 21.6667,62.5 22,63.5C 22.6379,60.3991 23.8046,57.7324 25.5,55.5 Z"/></g>
<g><path style="opacity:1" fill="#0e87db" d="M 48.5,53.5 C 48.5,53.8333 48.5,54.1667 48.5,54.5C 48.1667,54.5 47.8333,54.5 47.5,54.5C 46.2921,55.2341 44.9587,55.5674 43.5,55.5C 43.5029,59.524 43.8362,63.524 44.5,67.5C 44.1636,70.8411 42.8303,73.5078 40.5,75.5C 38.7179,76.7196 36.7179,77.3862 34.5,77.5C 33.8279,80.6437 32.8279,83.6437 31.5,86.5C 28.6333,86.3692 26.9666,87.7026 26.5,90.5C 24.7078,91.3091 22.7078,91.8091 20.5,92C 19.6634,93.0113 19.33,94.1779 19.5,95.5C 16.194,95.8192 13.5274,97.1525 11.5,99.5C 8.16667,99.5 4.83333,99.5 1.5,99.5C 1.16667,98.5 0.5,97.8333 -0.5,97.5C -0.5,94.5 -0.5,91.5 -0.5,88.5C 3.38242,89.2386 7.04909,90.5719 10.5,92.5C 12.0709,91.6906 13.7376,91.3573 15.5,91.5C 16.6662,88.4377 18.1662,85.4377 20,82.5C 26.315,84.6175 28.815,82.2842 27.5,75.5C 30.1062,74.8641 32.6062,74.8641 35,75.5C 34.8009,70.2306 34.9676,64.8973 35.5,59.5C 35.2624,57.5956 34.2624,56.2623 32.5,55.5C 32.6107,54.8826 32.944,54.3826 33.5,54C 38.4889,53.5007 43.4889,53.3341 48.5,53.5 Z"/></g>
<g><path style="opacity:1" fill="#0b85db" d="M 75.5,54.5 C 76.2389,54.369 76.9056,54.5357 77.5,55C 75.6787,57.456 75.012,60.2893 75.5,63.5C 74.1667,63.5 72.8333,63.5 71.5,63.5C 71.5,64.8333 71.5,66.1667 71.5,67.5C 70.1667,67.5 68.8333,67.5 67.5,67.5C 67.5,68.8333 67.5,70.1667 67.5,71.5C 64.8333,71.5 62.1667,71.5 59.5,71.5C 59.5,72.8333 59.5,74.1667 59.5,75.5C 57.7085,75.634 56.0418,75.3007 54.5,74.5C 54.5,73.5 54.5,72.5 54.5,71.5C 55.4881,66.3595 55.8214,61.0262 55.5,55.5C 57.1667,55.5 58.8333,55.5 60.5,55.5C 62.0603,55.5191 63.5603,55.8524 65,56.5C 68.4468,55.5106 71.9468,54.8439 75.5,54.5 Z"/></g>
<g><path style="opacity:1" fill="#219ce6" d="M 12.5,52.5 C 16.7016,52.1832 20.7016,52.5166 24.5,53.5C 20.774,53.1774 17.1073,53.5108 13.5,54.5C 11.9334,56.8961 11.1001,59.5628 11,62.5C 9.98873,63.3366 8.82207,63.67 7.5,63.5C 7.98188,60.2791 7.98188,56.9458 7.5,53.5C 9.41467,53.7845 11.0813,53.4511 12.5,52.5 Z"/></g>
<g><path style="opacity:0.616" fill="#227cbc" d="M 99.5,51.5 C 99.5,51.8333 99.5,52.1667 99.5,52.5C 95.8333,52.5 92.1667,52.5 88.5,52.5C 82.8333,52.5 77.1667,52.5 71.5,52.5C 65.1667,52.5 58.8333,52.5 52.5,52.5C 52.5,58.8333 52.5,65.1667 52.5,71.5C 52.5,80.8333 52.5,90.1667 52.5,99.5C 52.1667,99.5 51.8333,99.5 51.5,99.5C 51.5,83.5 51.5,67.5 51.5,51.5C 67.5,51.5 83.5,51.5 99.5,51.5 Z"/></g>
<g><path style="opacity:0.994" fill="#0980d7" d="M 47.5,54.5 C 47.8321,65.5202 47.4988,76.5202 46.5,87.5C 45.914,87.2907 45.414,86.9574 45,86.5C 43.3333,88.8333 41.3333,90.8333 39,92.5C 37.5821,94.7389 36.4154,97.0722 35.5,99.5C 27.5,99.5 19.5,99.5 11.5,99.5C 13.5274,97.1525 16.194,95.8192 19.5,95.5C 19.33,94.1779 19.6634,93.0113 20.5,92C 22.7078,91.8091 24.7078,91.3091 26.5,90.5C 27.1174,90.6107 27.6174,90.944 28,91.5C 28.6567,88.3151 30.6567,86.6484 34,86.5C 36.81,83.1954 38.9766,79.5288 40.5,75.5C 42.8303,73.5078 44.1636,70.8411 44.5,67.5C 43.8362,63.524 43.5029,59.524 43.5,55.5C 44.9587,55.5674 46.2921,55.2341 47.5,54.5 Z"/></g>
<g><path style="opacity:1" fill="#0a87d7" d="M 55.5,55.5 C 55.8214,61.0262 55.4881,66.3595 54.5,71.5C 54.1667,71.5 53.8333,71.5 53.5,71.5C 53.9525,66.0019 54.6191,60.6686 55.5,55.5 Z"/></g>
<g><path style="opacity:1" fill="#1d99e6" d="M 24.5,53.5 C 24.8333,54.1667 25.1667,54.8333 25.5,55.5C 23.8046,57.7324 22.6379,60.3991 22,63.5C 21.6667,62.5 21.3333,61.5 21,60.5C 20.8142,62.9005 20.3142,65.2338 19.5,67.5C 16.9374,67.4492 14.2707,67.7825 11.5,68.5C 12.8333,69.1667 14.1667,69.8333 15.5,70.5C 12.8333,71.8333 12.8333,73.1667 15.5,74.5C 13.8917,75.3184 12.2251,75.9851 10.5,76.5C 9.15848,74.9951 7.49181,74.3285 5.5,74.5C 5.71901,73.325 5.38568,72.325 4.5,71.5C 3.57131,72.6888 3.23798,74.0222 3.5,75.5C 2.16667,75.5 0.833333,75.5 -0.5,75.5C -0.5,72.8333 -0.5,70.1667 -0.5,67.5C 2.80596,67.1808 5.47263,65.8475 7.5,63.5C 8.82207,63.67 9.98873,63.3366 11,62.5C 11.1001,59.5628 11.9334,56.8961 13.5,54.5C 17.1073,53.5108 20.774,53.1774 24.5,53.5 Z"/></g>
<g><path style="opacity:0.981" fill="#0378d3" d="M 99.5,71.5 C 99.5,80.1667 99.5,88.8333 99.5,97.5C 98.5,97.8333 97.8333,98.5 97.5,99.5C 90.1667,99.5 82.8333,99.5 75.5,99.5C 75.5,96.8333 75.5,94.1667 75.5,91.5C 80.8333,91.5 86.1667,91.5 91.5,91.5C 91.5,88.8333 91.5,86.1667 91.5,83.5C 92.8333,83.5 94.1667,83.5 95.5,83.5C 95.5,82.1667 95.5,80.8333 95.5,79.5C 96.8333,76.8333 98.1667,74.1667 99.5,71.5 Z"/></g>
<g><path style="opacity:1" fill="#0e7ed0" d="M 52.5,71.5 C 52.8333,71.5 53.1667,71.5 53.5,71.5C 53.8333,71.5 54.1667,71.5 54.5,71.5C 54.5,72.5 54.5,73.5 54.5,74.5C 54.4599,79.1925 54.1266,83.8592 53.5,88.5C 53.5,92.1667 53.5,95.8333 53.5,99.5C 53.1667,99.5 52.8333,99.5 52.5,99.5C 52.5,90.1667 52.5,80.8333 52.5,71.5 Z"/></g>
<g><path style="opacity:1" fill="#0d84d9" d="M 40.5,75.5 C 38.9766,79.5288 36.81,83.1954 34,86.5C 30.6567,86.6484 28.6567,88.3151 28,91.5C 27.6174,90.944 27.1174,90.6107 26.5,90.5C 26.9666,87.7026 28.6333,86.3692 31.5,86.5C 32.8279,83.6437 33.8279,80.6437 34.5,77.5C 36.7179,77.3862 38.7179,76.7196 40.5,75.5 Z"/></g>
<g><path style="opacity:1" fill="#057cd5" d="M 91.5,63.5 C 91.5,65.5 91.5,67.5 91.5,69.5C 95.2571,69.2864 95.9238,70.2864 93.5,72.5C 95.1733,74.5225 95.8399,76.8559 95.5,79.5C 95.5,80.8333 95.5,82.1667 95.5,83.5C 94.1667,83.5 92.8333,83.5 91.5,83.5C 91.5,86.1667 91.5,88.8333 91.5,91.5C 86.1667,91.5 80.8333,91.5 75.5,91.5C 75.5,94.1667 75.5,96.8333 75.5,99.5C 68.1667,99.5 60.8333,99.5 53.5,99.5C 53.5,95.8333 53.5,92.1667 53.5,88.5C 56.3609,88.6584 59.0276,87.9917 61.5,86.5C 63.4534,87.1556 65.4534,87.4889 67.5,87.5C 67.5,86.1667 67.5,84.8333 67.5,83.5C 70.1667,83.5 72.8333,83.5 75.5,83.5C 75.5,82.1667 75.5,80.8333 75.5,79.5C 78.1667,78.8333 80.8333,78.1667 83.5,77.5C 83.5,75.5 83.5,73.5 83.5,71.5C 84.8333,71.5 86.1667,71.5 87.5,71.5C 87.5,68.8333 87.5,66.1667 87.5,63.5C 88.8333,63.5 90.1667,63.5 91.5,63.5 Z"/></g>
<g><path style="opacity:1" fill="#128cde" d="M 35.5,59.5 C 34.9676,64.8973 34.8009,70.2306 35,75.5C 32.6062,74.8641 30.1062,74.8641 27.5,75.5C 28.815,82.2842 26.315,84.6175 20,82.5C 18.1662,85.4377 16.6662,88.4377 15.5,91.5C 13.7376,91.3573 12.0709,91.6906 10.5,92.5C 7.04909,90.5719 3.38242,89.2386 -0.5,88.5C -0.5,86.8333 -0.5,85.1667 -0.5,83.5C 4.21369,83.8266 8.88035,83.4933 13.5,82.5C 14.9876,80.4228 16.9876,79.4228 19.5,79.5C 19.5,78.1667 19.5,76.8333 19.5,75.5C 21.2012,75.0338 22.7012,75.0338 24,75.5C 27.1675,72.2556 28.6675,68.2556 28.5,63.5C 31.078,62.5873 33.4113,61.254 35.5,59.5 Z"/></g>
<g><path style="opacity:0.982" fill="#057bd6" d="M 47.5,54.5 C 47.8333,54.5 48.1667,54.5 48.5,54.5C 48.5,69.5 48.5,84.5 48.5,99.5C 44.1667,99.5 39.8333,99.5 35.5,99.5C 36.4154,97.0722 37.5821,94.7389 39,92.5C 41.3333,90.8333 43.3333,88.8333 45,86.5C 45.414,86.9574 45.914,87.2907 46.5,87.5C 47.4988,76.5202 47.8321,65.5202 47.5,54.5 Z"/></g>
</svg>
