<?xml version="1.0" encoding="UTF-8"?>
<!DOCTYPE svg PUBLIC "-//W3C//DTD SVG 1.1//EN" "http://www.w3.org/Graphics/SVG/1.1/DTD/svg11.dtd">
<svg xmlns="http://www.w3.org/2000/svg" version="1.1" width="100px" height="100px" style="shape-rendering:geometricPrecision; text-rendering:geometricPrecision; image-rendering:optimizeQuality; fill-rule:evenodd; clip-rule:evenodd" xmlns:xlink="http://www.w3.org/1999/xlink">
<g><path style="opacity:0.992" fill="#24739d" d="M 36.5,-0.5 C 42.5,-0.5 48.5,-0.5 54.5,-0.5C 48.8333,0.833333 43.1667,2.16667 37.5,3.5C 36.0697,4.53747 34.403,5.20414 32.5,5.5C 32.7373,4.20895 32.404,3.20895 31.5,2.5C 33.0725,1.31271 34.7392,0.312714 36.5,-0.5 Z"/></g>
<g><path style="opacity:0.971" fill="#267498" d="M 54.5,-0.5 C 56.5,-0.5 58.5,-0.5 60.5,-0.5C 60.8212,1.04814 61.8212,1.71481 63.5,1.5C 63.5,2.5 63.5,3.5 63.5,4.5C 54.9168,2.30907 46.2502,1.97574 37.5,3.5C 43.1667,2.16667 48.8333,0.833333 54.5,-0.5 Z"/></g>
<g><path style="opacity:1" fill="#24729b" d="M 60.5,-0.5 C 61.1667,-0.5 61.8333,-0.5 62.5,-0.5C 67.1325,1.81623 71.7991,4.14956 76.5,6.5C 76.6309,7.37644 76.2975,8.04311 75.5,8.5C 74.1627,5.60951 72.1627,4.94284 69.5,6.5C 67.2972,6.39643 65.2972,5.72976 63.5,4.5C 63.5,3.5 63.5,2.5 63.5,1.5C 61.8212,1.71481 60.8212,1.04814 60.5,-0.5 Z"/></g>
<g><path style="opacity:0.801" fill="#256fa2" d="M 31.5,2.5 C 32.404,3.20895 32.7373,4.20895 32.5,5.5C 31.791,6.40397 30.791,6.73731 29.5,6.5C 28.8902,5.60895 28.5569,4.60895 28.5,3.5C 29.391,2.89022 30.391,2.55688 31.5,2.5 Z"/></g>
<g><path style="opacity:0.742" fill="#237396" d="M 28.5,3.5 C 28.5569,4.60895 28.8902,5.60895 29.5,6.5C 23.86,10.1467 18.5266,14.1467 13.5,18.5C 13.4142,17.5041 13.7476,16.6708 14.5,16C 13.5842,15.7216 12.9175,15.2216 12.5,14.5C 16.7815,9.3549 22.1148,5.68823 28.5,3.5 Z"/></g>
<g><path style="opacity:0.966" fill="#21759a" d="M 78.5,49.5 C 76.3866,51.1701 75.7199,53.1701 76.5,55.5C 74.4086,55.6816 72.4086,55.3482 70.5,54.5C 69.6922,56.4233 69.1922,58.4233 69,60.5C 68.6232,61.9423 67.7899,62.9423 66.5,63.5C 63.4625,56.058 60.7959,48.3914 58.5,40.5C 58.9465,37.9899 58.2798,35.9899 56.5,34.5C 55.8411,32.8621 55.1744,31.1955 54.5,29.5C 56.5,28.8333 58.5,28.1667 60.5,27.5C 52.5,26.1667 44.5,26.1667 36.5,27.5C 37.325,28.3857 38.325,28.719 39.5,28.5C 37.6143,31.0994 34.9476,32.0994 31.5,31.5C 31.5,28.8333 31.5,26.1667 31.5,23.5C 29.1667,23.5 26.8333,23.5 24.5,23.5C 25.0232,18.9774 23.6899,17.9774 20.5,20.5C 21.6808,22.198 21.6808,23.8647 20.5,25.5C 19.52,22.9135 19.1866,20.2469 19.5,17.5C 31.187,7.00503 44.8537,3.50503 60.5,7C 67.5727,8.73839 73.5727,12.2384 78.5,17.5C 74.6894,18.9711 72.356,21.6377 71.5,25.5C 72.8514,30.5367 75.0181,35.2033 78,39.5C 78.9731,42.9184 79.1397,46.2517 78.5,49.5 Z"/></g>
<g><path style="opacity:0.607" fill="#227495" d="M 76.5,6.5 C 85.6815,12.3529 92.3481,20.3529 96.5,30.5C 95.1667,30.5 93.8333,30.5 92.5,30.5C 90.2612,26.3599 87.7612,22.3599 85,18.5C 80.2673,13.9333 75.1006,9.93328 69.5,6.5C 72.1627,4.94284 74.1627,5.60951 75.5,8.5C 76.2975,8.04311 76.6309,7.37644 76.5,6.5 Z"/></g>
<g><path style="opacity:0.953" fill="#1f7699" d="M 19.5,17.5 C 19.1866,20.2469 19.52,22.9135 20.5,25.5C 21.6808,23.8647 21.6808,22.198 20.5,20.5C 23.6899,17.9774 25.0232,18.9774 24.5,23.5C 26.8333,23.5 29.1667,23.5 31.5,23.5C 31.5,26.1667 31.5,28.8333 31.5,31.5C 34.9476,32.0994 37.6143,31.0994 39.5,28.5C 40.5,28.5 41.5,28.5 42.5,28.5C 42.8782,30.921 43.5448,33.2543 44.5,35.5C 42.3763,34.9688 40.8763,33.6355 40,31.5C 37.9089,34.6516 38.7422,36.9849 42.5,38.5C 41.675,39.3857 40.675,39.719 39.5,39.5C 39.3367,41.8568 39.5034,44.1902 40,46.5C 41.0113,47.3366 42.1779,47.67 43.5,47.5C 43.2529,50.9387 43.5863,54.272 44.5,57.5C 42.8958,58.287 42.2291,59.6203 42.5,61.5C 41.7321,60.7375 41.2321,59.7375 41,58.5C 38.584,62.5449 37.084,62.2116 36.5,57.5C 38.288,57.7852 39.9547,57.4519 41.5,56.5C 39.4232,53.8808 37.2565,53.8808 35,56.5C 33.4263,55.0158 32.093,53.3492 31,51.5C 30.6012,51.7284 30.4346,52.0618 30.5,52.5C 27.303,44.7506 24.6363,36.7506 22.5,28.5C 24.604,28.7989 26.604,28.4656 28.5,27.5C 23.544,26.5059 18.544,26.1725 13.5,26.5C 14.6817,22.9794 16.6817,19.9794 19.5,17.5 Z"/></g>
<g><path style="opacity:0.922" fill="#287195" d="M 11.5,16.5 C 10.6805,18.8123 9.84712,21.1457 9,23.5C 7.67028,24.5822 6.17028,25.2488 4.5,25.5C 6.11977,21.9181 8.4531,18.9181 11.5,16.5 Z"/></g>
<g><path style="opacity:0.6" fill="#217591" d="M 12.5,14.5 C 12.9175,15.2216 13.5842,15.7216 14.5,16C 13.7476,16.6708 13.4142,17.5041 13.5,18.5C 11.4133,22.3441 9.07995,26.0107 6.5,29.5C 5.79105,28.596 4.79105,28.2627 3.5,28.5C 3.55688,27.391 3.89022,26.391 4.5,25.5C 6.17028,25.2488 7.67028,24.5822 9,23.5C 9.84712,21.1457 10.6805,18.8123 11.5,16.5C 11.3284,15.5084 11.6618,14.8417 12.5,14.5 Z"/></g>
<g><path style="opacity:0.039" fill="#2271a2" d="M 3.5,28.5 C 4.79105,28.2627 5.79105,28.596 6.5,29.5C 6.73731,30.791 6.40397,31.791 5.5,32.5C 4.5041,32.4142 3.67076,32.7476 3,33.5C 2.53566,32.9056 2.36899,32.2389 2.5,31.5C 2.55688,30.391 2.89022,29.391 3.5,28.5 Z"/></g>
<g><path style="opacity:0.864" fill="#276f9e" d="M 92.5,30.5 C 93.8333,30.5 95.1667,30.5 96.5,30.5C 97.1098,31.391 97.4431,32.391 97.5,33.5C 97.0269,34.9063 96.0269,35.573 94.5,35.5C 93.5592,33.9505 92.8925,32.2838 92.5,30.5 Z"/></g>
<g><path style="opacity:0.984" fill="#1d7690" d="M 11.5,34.5 C 10.596,35.209 10.2627,36.209 10.5,37.5C 9.5,37.5 8.5,37.5 7.5,37.5C 7.96166,35.2433 8.96166,33.2433 10.5,31.5C 11.3857,32.325 11.719,33.325 11.5,34.5 Z"/></g>
<g><path style="opacity:0.478" fill="#297390" d="M 56.5,34.5 C 58.2798,35.9899 58.9465,37.9899 58.5,40.5C 57.2616,38.7857 56.595,36.7857 56.5,34.5 Z"/></g>
<g><path style="opacity:0.973" fill="#22759a" d="M 44.5,35.5 C 45.7477,39.5504 47.4144,43.5504 49.5,47.5C 48.1511,50.859 46.8178,54.1923 45.5,57.5C 45.1667,57.5 44.8333,57.5 44.5,57.5C 43.5863,54.272 43.2529,50.9387 43.5,47.5C 42.1779,47.67 41.0113,47.3366 40,46.5C 39.5034,44.1902 39.3367,41.8568 39.5,39.5C 40.675,39.719 41.675,39.3857 42.5,38.5C 38.7422,36.9849 37.9089,34.6516 40,31.5C 40.8763,33.6355 42.3763,34.9688 44.5,35.5 Z"/></g>
<g><path style="opacity:0.94" fill="#21759b" d="M 11.5,34.5 C 13.7298,39.3098 15.7298,44.3098 17.5,49.5C 15.5241,50.4271 15.1908,51.7605 16.5,53.5C 17.1835,53.1373 17.8501,52.8039 18.5,52.5C 19.4408,54.0495 20.1075,55.7162 20.5,57.5C 19.391,57.5569 18.391,57.8902 17.5,58.5C 16.8106,57.2264 15.9772,57.2264 15,58.5C 14.5045,60.4727 14.3379,62.4727 14.5,64.5C 15.552,64.3505 16.552,64.5172 17.5,65C 16.1354,66.6819 14.6354,66.8486 13,65.5C 12.0053,66.0659 11.172,66.7326 10.5,67.5C 8.68851,65.6146 7.52184,63.2813 7,60.5C 6.20194,52.754 6.3686,45.0873 7.5,37.5C 8.5,37.5 9.5,37.5 10.5,37.5C 10.2627,36.209 10.596,35.209 11.5,34.5 Z"/></g>
<g><path style="opacity:0.906" fill="#227593" d="M 92.5,39.5 C 91.1667,39.5 89.8333,39.5 88.5,39.5C 88.6254,42.6082 87.2921,44.6082 84.5,45.5C 85.6954,39.9112 86.6954,34.2446 87.5,28.5C 89.7447,31.8993 91.4113,35.566 92.5,39.5 Z"/></g>
<g><path style="opacity:0.644" fill="#22749b" d="M 97.5,33.5 C 98.1667,34.5 98.8333,35.5 99.5,36.5C 99.5,42.8333 99.5,49.1667 99.5,55.5C 98.391,55.4431 97.391,55.1098 96.5,54.5C 96.5573,48.0723 95.8907,41.739 94.5,35.5C 96.0269,35.573 97.0269,34.9063 97.5,33.5 Z"/></g>
<g><path style="opacity:0.985" fill="#207597" d="M 2.5,31.5 C 2.36899,32.2389 2.53566,32.9056 3,33.5C 3.67076,32.7476 4.5041,32.4142 5.5,32.5C 2.94114,40.0576 2.27447,47.7243 3.5,55.5C 2.16667,56.8333 0.833333,58.1667 -0.5,59.5C -0.5,51.8333 -0.5,44.1667 -0.5,36.5C 0.312714,34.7392 1.31271,33.0725 2.5,31.5 Z"/></g>
<g><path style="opacity:0.992" fill="#1b7995" d="M 17.5,49.5 C 17.5569,50.609 17.8902,51.609 18.5,52.5C 17.8501,52.8039 17.1835,53.1373 16.5,53.5C 15.1908,51.7605 15.5241,50.4271 17.5,49.5 Z"/></g>
<g><path style="opacity:0.447" fill="#1e6899" d="M 51.5,55.5 C 50.5,55.5 49.5,55.5 48.5,55.5C 49.5377,51.542 50.5377,51.542 51.5,55.5 Z"/></g>
<g><path style="opacity:0.976" fill="#23759e" d="M 92.5,45.5 C 92.6659,50.5111 92.4993,55.5111 92,60.5C 91.7679,61.7375 91.2679,62.7375 90.5,63.5C 85.8897,63.4041 85.5564,62.4041 89.5,60.5C 88.0499,59.1502 87.3832,57.4835 87.5,55.5C 88.8221,55.67 89.9887,55.3366 91,54.5C 91.1805,51.3054 91.6805,48.3054 92.5,45.5 Z"/></g>
<g><path style="opacity:1" fill="#237990" d="M 44.5,57.5 C 44.8333,57.5 45.1667,57.5 45.5,57.5C 45.5674,58.9587 45.2341,60.2921 44.5,61.5C 43.8333,61.5 43.1667,61.5 42.5,61.5C 42.2291,59.6203 42.8958,58.287 44.5,57.5 Z"/></g>
<g><path style="opacity:1" fill="#207794" d="M 20.5,57.5 C 20.8333,58.8333 21.1667,60.1667 21.5,61.5C 20.2652,61.7214 19.2652,62.3881 18.5,63.5C 17.5481,61.9547 17.2148,60.288 17.5,58.5C 18.391,57.8902 19.391,57.5569 20.5,57.5 Z"/></g>
<g><path style="opacity:0.996" fill="#2273a2" d="M 48.5,57.5 C 49.782,58.7082 49.782,60.0416 48.5,61.5C 47.7025,61.0431 47.3691,60.3764 47.5,59.5C 47.3284,58.5084 47.6618,57.8417 48.5,57.5 Z"/></g>
<g><path style="opacity:0.212" fill="#1c7997" d="M 78.5,49.5 C 78.6918,53.9019 77.6918,57.9019 75.5,61.5C 74.2652,61.7214 73.2652,62.3881 72.5,63.5C 72.1667,63.1667 71.8333,62.8333 71.5,62.5C 72.3094,60.9291 72.6427,59.2624 72.5,57.5C 74.4832,57.8432 75.8166,57.1765 76.5,55.5C 75.7199,53.1701 76.3866,51.1701 78.5,49.5 Z"/></g>
<g><path style="opacity:0.655" fill="#2a738f" d="M 31.5,55.5 C 33.2671,57.7916 34.2671,60.4582 34.5,63.5C 32.7329,61.2084 31.7329,58.5418 31.5,55.5 Z"/></g>
<g><path style="opacity:0.521" fill="#237497" d="M 96.5,54.5 C 97.391,55.1098 98.391,55.4431 99.5,55.5C 99.5,57.8333 99.5,60.1667 99.5,62.5C 97.0659,68.4713 94.0659,74.138 90.5,79.5C 89.7095,78.5987 88.7095,77.9321 87.5,77.5C 91.9429,70.2993 94.9429,62.6327 96.5,54.5 Z"/></g>
<g><path style="opacity:1" fill="#21759d" d="M 42.5,61.5 C 43.1667,61.5 43.8333,61.5 44.5,61.5C 43.3072,65.3071 41.9739,68.9738 40.5,72.5C 38.8041,70.871 37.8041,71.2043 37.5,73.5C 35.8993,70.4498 34.8993,67.1165 34.5,63.5C 34.2671,60.4582 33.2671,57.7916 31.5,55.5C 30.8902,54.609 30.5569,53.609 30.5,52.5C 30.4346,52.0618 30.6012,51.7284 31,51.5C 32.093,53.3492 33.4263,55.0158 35,56.5C 37.2565,53.8808 39.4232,53.8808 41.5,56.5C 39.9547,57.4519 38.288,57.7852 36.5,57.5C 37.084,62.2116 38.584,62.5449 41,58.5C 41.2321,59.7375 41.7321,60.7375 42.5,61.5 Z"/></g>
<g><path style="opacity:0.949" fill="#217599" d="M 92.5,39.5 C 92.5,41.5 92.5,43.5 92.5,45.5C 91.6805,48.3054 91.1805,51.3054 91,54.5C 89.9887,55.3366 88.8221,55.67 87.5,55.5C 87.3832,57.4835 88.0499,59.1502 89.5,60.5C 85.5564,62.4041 85.8897,63.4041 90.5,63.5C 88.1982,72.4403 83.1982,79.4403 75.5,84.5C 76.3847,81.9394 77.7181,79.606 79.5,77.5C 79.5,76.1667 78.8333,75.5 77.5,75.5C 77.9175,74.7784 78.5842,74.2784 79.5,74C 77.8659,73.5065 76.1992,73.3398 74.5,73.5C 77.1797,66.0765 79.8463,58.7432 82.5,51.5C 82.9707,49.4214 83.6373,47.4214 84.5,45.5C 87.2921,44.6082 88.6254,42.6082 88.5,39.5C 89.8333,39.5 91.1667,39.5 92.5,39.5 Z"/></g>
<g><path style="opacity:1" fill="#22739d" d="M 82.5,51.5 C 83.9391,52.5092 85.2724,52.1759 86.5,50.5C 87.5683,53.7875 86.2349,55.4542 82.5,55.5C 82.5,54.1667 82.5,52.8333 82.5,51.5 Z"/></g>
<g><path style="opacity:0.979" fill="#21749d" d="M 17.5,58.5 C 17.2148,60.288 17.5481,61.9547 18.5,63.5C 19.2652,62.3881 20.2652,61.7214 21.5,61.5C 23.3546,64.5544 24.6879,67.8878 25.5,71.5C 20.7291,71.1065 16.0624,71.1065 11.5,71.5C 10.7659,70.2921 10.4326,68.9587 10.5,67.5C 11.172,66.7326 12.0053,66.0659 13,65.5C 14.6354,66.8486 16.1354,66.6819 17.5,65C 16.552,64.5172 15.552,64.3505 14.5,64.5C 14.3379,62.4727 14.5045,60.4727 15,58.5C 15.9772,57.2264 16.8106,57.2264 17.5,58.5 Z"/></g>
<g><path style="opacity:1" fill="#23739b" d="M 76.5,55.5 C 75.8166,57.1765 74.4832,57.8432 72.5,57.5C 72.6427,59.2624 72.3094,60.9291 71.5,62.5C 71.8333,62.8333 72.1667,63.1667 72.5,63.5C 73.2652,62.3881 74.2652,61.7214 75.5,61.5C 74.8505,63.4352 74.5172,65.4352 74.5,67.5C 72.1147,68.2925 70.1147,69.6258 68.5,71.5C 67.7094,68.885 67.0427,66.2184 66.5,63.5C 67.7899,62.9423 68.6232,61.9423 69,60.5C 69.1922,58.4233 69.6922,56.4233 70.5,54.5C 72.4086,55.3482 74.4086,55.6816 76.5,55.5 Z"/></g>
<g><path style="opacity:0.821" fill="#227399" d="M 3.5,55.5 C 5.29408,68.0982 10.9608,78.4315 20.5,86.5C 21.1667,88.5 21.8333,90.5 22.5,92.5C 16.8901,89.058 12.0567,84.7247 8,79.5C 4.86588,73.8959 2.03255,68.2293 -0.5,62.5C -0.5,61.5 -0.5,60.5 -0.5,59.5C 0.833333,58.1667 2.16667,56.8333 3.5,55.5 Z"/></g>
<g><path style="opacity:0.735" fill="#1f7692" d="M 74.5,67.5 C 73.4394,70.5107 72.2727,73.5107 71,76.5C 70.1534,74.8068 69.3201,73.1401 68.5,71.5C 70.1147,69.6258 72.1147,68.2925 74.5,67.5 Z"/></g>
<g><path style="opacity:0.933" fill="#21779a" d="M 25.5,71.5 C 26.1098,72.391 26.4431,73.391 26.5,74.5C 25.5,74.5 24.5,74.5 23.5,74.5C 23.1459,76.5412 23.1459,78.3745 23.5,80C 24.1667,80.6667 24.8333,80.6667 25.5,80C 26.0659,79.0053 26.7326,78.172 27.5,77.5C 28.4345,78.5676 28.7678,79.901 28.5,81.5C 25.715,80.9162 24.0483,81.9162 23.5,84.5C 18.8301,80.8612 14.8301,76.5279 11.5,71.5C 16.0624,71.1065 20.7291,71.1065 25.5,71.5 Z"/></g>
<g><path style="opacity:0.987" fill="#24739b" d="M 45.5,66.5 C 47.1408,68.2029 48.1408,70.3695 48.5,73C 51.0991,73.769 53.5991,73.6023 56,72.5C 56.6586,75.3534 55.492,77.0201 52.5,77.5C 48.8948,76.4879 45.5614,75.1545 42.5,73.5C 42.9348,70.8427 43.9348,68.5093 45.5,66.5 Z"/></g>
<g><path style="opacity:1" fill="#207793" d="M 74.5,73.5 C 76.1992,73.3398 77.8659,73.5065 79.5,74C 78.5842,74.2784 77.9175,74.7784 77.5,75.5C 76.596,76.209 76.2627,77.209 76.5,78.5C 75.5,78.5 74.5,78.5 73.5,78.5C 74.038,76.8828 74.3713,75.2161 74.5,73.5 Z"/></g>
<g><path style="opacity:0.966" fill="#25719d" d="M 26.5,74.5 C 27.404,75.209 27.7373,76.209 27.5,77.5C 26.7326,78.172 26.0659,79.0053 25.5,80C 24.8333,80.6667 24.1667,80.6667 23.5,80C 23.1459,78.3745 23.1459,76.5412 23.5,74.5C 24.5,74.5 25.5,74.5 26.5,74.5 Z"/></g>
<g><path style="opacity:0.631" fill="#237790" d="M 40.5,72.5 C 39.852,76.9863 38.852,77.3196 37.5,73.5C 37.8041,71.2043 38.8041,70.871 40.5,72.5 Z"/></g>
<g><path style="opacity:1" fill="#296fa4" d="M 77.5,75.5 C 78.8333,75.5 79.5,76.1667 79.5,77.5C 78.1667,77.5 77.5,76.8333 77.5,75.5 Z"/></g>
<g><path style="opacity:0.933" fill="#217499" d="M 41.5,77.5 C 43.9032,77.393 45.7365,78.393 47,80.5C 47.4974,83.146 47.6641,85.8127 47.5,88.5C 50.5701,88.6323 53.5701,88.299 56.5,87.5C 55.1501,88.8235 55.3167,89.8235 57,90.5C 58.885,89.0082 59.885,87.0082 60,84.5C 60.6708,83.7476 61.5041,83.4142 62.5,83.5C 62.9361,85.7463 63.6028,87.9129 64.5,90C 63.3774,91.0437 62.0441,91.7104 60.5,92C 53.1667,92.6667 45.8333,92.6667 38.5,92C 37.5842,91.7216 36.9175,91.2216 36.5,90.5C 38.5518,89.9473 38.8852,88.9473 37.5,87.5C 38.3121,83.8878 39.6454,80.5544 41.5,77.5 Z"/></g>
<g><path style="opacity:1" fill="#1e7699" d="M 48.5,55.5 C 49.5,55.5 50.5,55.5 51.5,55.5C 54.9946,63.2798 57.9946,71.2798 60.5,79.5C 59.5041,79.4142 58.6708,79.7476 58,80.5C 56.6842,82.966 56.1842,85.2994 56.5,87.5C 53.5701,88.299 50.5701,88.6323 47.5,88.5C 47.6641,85.8127 47.4974,83.146 47,80.5C 45.7365,78.393 43.9032,77.393 41.5,77.5C 41.8333,76.1667 42.1667,74.8333 42.5,73.5C 45.5614,75.1545 48.8948,76.4879 52.5,77.5C 55.492,77.0201 56.6586,75.3534 56,72.5C 53.5991,73.6023 51.0991,73.769 48.5,73C 48.1408,70.3695 47.1408,68.2029 45.5,66.5C 45.4095,63.8478 46.0762,61.5145 47.5,59.5C 47.3691,60.3764 47.7025,61.0431 48.5,61.5C 49.782,60.0416 49.782,58.7082 48.5,57.5C 48.5,56.8333 48.5,56.1667 48.5,55.5 Z"/></g>
<g><path style="opacity:1" fill="#23739d" d="M 77.5,75.5 C 77.5,76.8333 78.1667,77.5 79.5,77.5C 77.7181,79.606 76.3847,81.9394 75.5,84.5C 75.1583,85.3382 74.4916,85.6716 73.5,85.5C 73.7845,83.5853 73.4511,81.9187 72.5,80.5C 72.3284,79.5084 72.6618,78.8417 73.5,78.5C 74.5,78.5 75.5,78.5 76.5,78.5C 76.2627,77.209 76.596,76.209 77.5,75.5 Z"/></g>
<g><path style="opacity:0.971" fill="#22749d" d="M 60.5,79.5 C 61.1667,80.8333 61.8333,82.1667 62.5,83.5C 61.5041,83.4142 60.6708,83.7476 60,84.5C 59.885,87.0082 58.885,89.0082 57,90.5C 55.3167,89.8235 55.1501,88.8235 56.5,87.5C 56.1842,85.2994 56.6842,82.966 58,80.5C 58.6708,79.7476 59.5041,79.4142 60.5,79.5 Z"/></g>
<g><path style="opacity:0.643" fill="#297490" d="M 28.5,81.5 C 30.2927,83.4261 31.2927,85.7594 31.5,88.5C 30.0413,88.5674 28.7079,88.2341 27.5,87.5C 28.2916,86.0331 28.2916,84.6998 27.5,83.5C 26.4777,83.8555 25.811,84.5222 25.5,85.5C 24.5084,85.6716 23.8417,85.3382 23.5,84.5C 24.0483,81.9162 25.715,80.9162 28.5,81.5 Z"/></g>
<g><path style="opacity:0.945" fill="#20729a" d="M 87.5,77.5 C 88.7095,77.9321 89.7095,78.5987 90.5,79.5C 84.836,87.8247 77.1693,93.4913 67.5,96.5C 66.448,96.6495 65.448,96.4828 64.5,96C 65.3805,95.2917 66.0472,94.4584 66.5,93.5C 74.6877,89.6356 81.6877,84.3023 87.5,77.5 Z"/></g>
<g><path style="opacity:0.102" fill="#2a759d" d="M 27.5,87.5 C 26.5,87.1667 25.8333,86.5 25.5,85.5C 25.811,84.5222 26.4777,83.8555 27.5,83.5C 28.2916,84.6998 28.2916,86.0331 27.5,87.5 Z"/></g>
<g><path style="opacity:0.545" fill="#267c9a" d="M 72.5,80.5 C 73.4511,81.9187 73.7845,83.5853 73.5,85.5C 72.6324,87.6246 71.6324,87.7913 70.5,86C 70.9537,83.9701 71.6204,82.1368 72.5,80.5 Z"/></g>
<g><path style="opacity:0.849" fill="#207795" d="M 20.5,86.5 C 24.0337,88.7664 27.7004,90.7664 31.5,92.5C 31.6309,93.3764 31.2975,94.0431 30.5,94.5C 28.3821,93.0541 26.0488,92.3874 23.5,92.5C 23.1667,92.5 22.8333,92.5 22.5,92.5C 21.8333,90.5 21.1667,88.5 20.5,86.5 Z"/></g>
<g><path style="opacity:0.804" fill="#266eaa" d="M 37.5,87.5 C 38.8852,88.9473 38.5518,89.9473 36.5,90.5C 37.1098,89.609 37.4431,88.609 37.5,87.5 Z"/></g>
<g><path style="opacity:0.698" fill="#29709a" d="M 23.5,92.5 C 26.0488,92.3874 28.3821,93.0541 30.5,94.5C 31.2975,94.0431 31.6309,93.3764 31.5,92.5C 32.8333,93.1667 34.1667,93.8333 35.5,94.5C 35.5,95.8333 35.5,97.1667 35.5,98.5C 31.1225,97.0542 27.1225,95.0542 23.5,92.5 Z"/></g>
<g><path style="opacity:1" fill="#217598" d="M 66.5,93.5 C 66.0472,94.4584 65.3805,95.2917 64.5,96C 65.448,96.4828 66.448,96.6495 67.5,96.5C 65.9275,97.6873 64.2608,98.6873 62.5,99.5C 53.8333,99.5 45.1667,99.5 36.5,99.5C 36.5,98.8333 36.1667,98.5 35.5,98.5C 35.5,97.1667 35.5,95.8333 35.5,94.5C 45.9325,97.2902 56.2659,96.9568 66.5,93.5 Z"/></g>
</svg>
