<?xml version="1.0" encoding="UTF-8"?>
<!DOCTYPE svg PUBLIC "-//W3C//DTD SVG 1.1//EN" "http://www.w3.org/Graphics/SVG/1.1/DTD/svg11.dtd">
<svg xmlns="http://www.w3.org/2000/svg" version="1.1" width="100px" height="100px" style="shape-rendering:geometricPrecision; text-rendering:geometricPrecision; image-rendering:optimizeQuality; fill-rule:evenodd; clip-rule:evenodd" xmlns:xlink="http://www.w3.org/1999/xlink">
<g><path style="opacity:1" fill="#74737b" d="M 58.5,-0.5 C 59.8333,-0.5 61.1667,-0.5 62.5,-0.5C 66.0739,0.148698 69.7405,1.1487 73.5,2.5C 72.3984,4.0919 73.065,4.92524 75.5,5C 74.6667,5.16667 73.8333,5.33333 73,5.5C 69.986,3.52888 66.8193,3.19555 63.5,4.5C 62.8333,4.5 62.1667,4.5 61.5,4.5C 57.7016,3.51658 53.7016,3.18325 49.5,3.5C 50.8684,1.22097 52.7017,0.554301 55,1.5C 56.3024,0.915201 57.469,0.248534 58.5,-0.5 Z"/></g>
<g><path style="opacity:0.294" fill="#222b32" d="M 49.5,3.5 C 53.7016,3.18325 57.7016,3.51658 61.5,4.5C 58.8127,4.33591 56.146,4.50258 53.5,5C 56.8511,5.05725 59.8511,5.89058 62.5,7.5C 58.8333,7.5 55.1667,7.5 51.5,7.5C 47.8333,7.5 44.1667,7.5 40.5,7.5C 42.9479,6.52693 45.6146,6.1936 48.5,6.5C 48.2627,5.20895 48.596,4.20895 49.5,3.5 Z"/></g>
<g><path style="opacity:1" fill="#262e36" d="M 61.5,4.5 C 62.1667,4.5 62.8333,4.5 63.5,4.5C 64.2905,5.40128 65.2905,6.06795 66.5,6.5C 67.1534,7.80678 67.8201,9.14011 68.5,10.5C 73.9435,12.3894 79.2768,14.0561 84.5,15.5C 79.0538,15.6358 73.7204,14.9691 68.5,13.5C 68.6138,15.7179 69.2804,17.7179 70.5,19.5C 70.1667,19.5 69.8333,19.5 69.5,19.5C 68.8333,19.1667 68.1667,18.8333 67.5,18.5C 67.7845,16.5853 67.4511,14.9187 66.5,13.5C 66.5,13.1667 66.5,12.8333 66.5,12.5C 65.1363,10.8089 63.803,9.14226 62.5,7.5C 59.8511,5.89058 56.8511,5.05725 53.5,5C 56.146,4.50258 58.8127,4.33591 61.5,4.5 Z"/></g>
<g><path style="opacity:1" fill="#727378" d="M 73.5,2.5 C 77.1513,3.65893 80.4846,5.3256 83.5,7.5C 84.6005,8.60486 85.2671,9.93819 85.5,11.5C 84.5326,12.8062 83.1993,13.4729 81.5,13.5C 81.5,12.5 81.5,11.5 81.5,10.5C 76.5319,9.06053 71.5319,7.7272 66.5,6.5C 65.2905,6.06795 64.2905,5.40128 63.5,4.5C 66.8193,3.19555 69.986,3.52888 73,5.5C 73.8333,5.33333 74.6667,5.16667 75.5,5C 73.065,4.92524 72.3984,4.0919 73.5,2.5 Z"/></g>
<g><path style="opacity:1" fill="#23b2ea" d="M 18.5,8.5 C 28.8548,8.16805 39.1881,8.50138 49.5,9.5C 39.8505,10.3321 30.1838,10.8321 20.5,11C 19.944,11.3826 19.6107,11.8826 19.5,12.5C 18.1667,12.5 16.8333,12.5 15.5,12.5C 15.5,11.5 15.5,10.5 15.5,9.5C 16.209,8.59603 17.209,8.26269 18.5,8.5 Z"/></g>
<g><path style="opacity:0.008" fill="#111117" d="M 83.5,7.5 C 85.7099,7.89395 87.0432,9.22729 87.5,11.5C 86.8333,11.5 86.1667,11.5 85.5,11.5C 85.2671,9.93819 84.6005,8.60486 83.5,7.5 Z"/></g>
<g><path style="opacity:1" fill="#25809f" d="M 51.5,7.5 C 55.1667,7.5 58.8333,7.5 62.5,7.5C 63.803,9.14226 65.1363,10.8089 66.5,12.5C 62.8333,12.5 59.1667,12.5 55.5,12.5C 54.1667,12.5 52.8333,12.5 51.5,12.5C 51.7214,11.2652 52.3881,10.2652 53.5,9.5C 52.7573,8.81815 52.0906,8.15149 51.5,7.5 Z"/></g>
<g><path style="opacity:0.039" fill="#0f5783" d="M 14.5,9.5 C 13.8333,10.1667 13.1667,10.8333 12.5,11.5C 11.609,12.1098 10.609,12.4431 9.5,12.5C 10.7382,10.0633 12.4048,9.06328 14.5,9.5 Z"/></g>
<g><path style="opacity:1" fill="#33add5" d="M 18.5,8.5 C 25.6476,7.50837 32.9809,7.17503 40.5,7.5C 44.1667,7.5 47.8333,7.5 51.5,7.5C 52.0906,8.15149 52.7573,8.81815 53.5,9.5C 52.3881,10.2652 51.7214,11.2652 51.5,12.5C 40.8333,12.5 30.1667,12.5 19.5,12.5C 19.6107,11.8826 19.944,11.3826 20.5,11C 30.1838,10.8321 39.8505,10.3321 49.5,9.5C 39.1881,8.50138 28.8548,8.16805 18.5,8.5 Z"/></g>
<g><path style="opacity:1" fill="#8ffcff" d="M 19.5,12.5 C 30.1667,12.5 40.8333,12.5 51.5,12.5C 52.8333,12.5 54.1667,12.5 55.5,12.5C 54.4324,13.4345 53.099,13.7678 51.5,13.5C 40.1085,13.4007 28.7751,13.5673 17.5,14C 18.4158,13.7216 19.0825,13.2216 19.5,12.5 Z"/></g>
<g><path style="opacity:1" fill="#585860" d="M 66.5,6.5 C 71.5319,7.7272 76.5319,9.06053 81.5,10.5C 81.5,11.5 81.5,12.5 81.5,13.5C 83.1993,13.4729 84.5326,12.8062 85.5,11.5C 86.1667,11.5 86.8333,11.5 87.5,11.5C 88.7095,11.9321 89.7095,12.5987 90.5,13.5C 88.6203,13.2291 87.287,13.8958 86.5,15.5C 85.8333,15.5 85.1667,15.5 84.5,15.5C 79.2768,14.0561 73.9435,12.3894 68.5,10.5C 67.8201,9.14011 67.1534,7.80678 66.5,6.5 Z"/></g>
<g><path style="opacity:1" fill="#25b5ec" d="M 50.5,14.5 C 52.5,15.5 54.5,16.5 56.5,17.5C 54.2075,17.2436 52.0408,17.5769 50,18.5C 47.9233,17.0423 45.59,16.3757 43,16.5C 37.6324,16.9256 33.7991,17.9256 31.5,19.5C 29.5168,20.4706 27.5168,21.4706 25.5,22.5C 25.44,21.9569 25.1067,21.6236 24.5,21.5C 23.1585,23.0049 21.4918,23.6715 19.5,23.5C 21.1506,22.453 22.8172,21.2863 24.5,20C 23.5,18.3333 22.5,16.6667 21.5,15C 31.1609,14.5002 40.8276,14.3335 50.5,14.5 Z"/></g>
<g><path style="opacity:1" fill="#359abf" d="M 55.5,12.5 C 59.1667,12.5 62.8333,12.5 66.5,12.5C 66.5,12.8333 66.5,13.1667 66.5,13.5C 66.6121,16.4525 66.2788,19.4525 65.5,22.5C 64.2702,20.7028 63.6036,18.7028 63.5,16.5C 59.5726,15.4746 55.5726,14.8079 51.5,14.5C 51.5,14.1667 51.5,13.8333 51.5,13.5C 53.099,13.7678 54.4324,13.4345 55.5,12.5 Z"/></g>
<g><path style="opacity:1" fill="#8b8c95" d="M 90.5,13.5 C 96.2368,12.9801 98.2368,15.3134 96.5,20.5C 95.2632,21.9649 94.2632,23.6316 93.5,25.5C 92.8333,25.5 92.5,25.1667 92.5,24.5C 92.9234,23.7354 93.2568,22.9021 93.5,22C 91.5065,19.3592 89.1732,17.1926 86.5,15.5C 87.287,13.8958 88.6203,13.2291 90.5,13.5 Z"/></g>
<g><path style="opacity:0.024" fill="#01395b" d="M 7.5,14.5 C 7.57298,16.0269 6.90632,17.0269 5.5,17.5C 5.42702,15.9731 6.09368,14.9731 7.5,14.5 Z"/></g>
<g><path style="opacity:1" fill="#2eb4e6" d="M 14.5,9.5 C 14.8333,9.5 15.1667,9.5 15.5,9.5C 15.5,10.5 15.5,11.5 15.5,12.5C 16.8333,12.5 18.1667,12.5 19.5,12.5C 19.0825,13.2216 18.4158,13.7216 17.5,14C 28.7751,13.5673 40.1085,13.4007 51.5,13.5C 51.5,13.8333 51.5,14.1667 51.5,14.5C 51.1667,14.5 50.8333,14.5 50.5,14.5C 40.8276,14.3335 31.1609,14.5002 21.5,15C 22.5,16.6667 23.5,18.3333 24.5,20C 22.8172,21.2863 21.1506,22.453 19.5,23.5C 16.6771,22.7834 14.0104,21.7834 11.5,20.5C 11.5674,21.9587 11.2341,23.2921 10.5,24.5C 8.68896,21.0616 9.52229,18.3949 13,16.5C 13.7796,14.6131 13.6129,12.9464 12.5,11.5C 13.1667,10.8333 13.8333,10.1667 14.5,9.5 Z"/></g>
<g><path style="opacity:1" fill="#191d26" d="M 84.5,15.5 C 85.1667,15.5 85.8333,15.5 86.5,15.5C 89.1732,17.1926 91.5065,19.3592 93.5,22C 93.2568,22.9021 92.9234,23.7354 92.5,24.5C 88.3441,23.1916 84.5108,21.1916 81,18.5C 78.683,19.9852 76.5164,21.6519 74.5,23.5C 74.5123,20.858 73.179,19.5246 70.5,19.5C 69.2804,17.7179 68.6138,15.7179 68.5,13.5C 73.7204,14.9691 79.0538,15.6358 84.5,15.5 Z"/></g>
<g><path style="opacity:1" fill="#2c9ed4" d="M 12.5,11.5 C 13.6129,12.9464 13.7796,14.6131 13,16.5C 9.52229,18.3949 8.68896,21.0616 10.5,24.5C 10.5,26.1667 10.5,27.8333 10.5,29.5C 10.6716,30.4916 10.3382,31.1583 9.5,31.5C 8.47034,41.138 8.13701,54.8046 8.5,72.5C 7.51114,67.0247 7.1778,61.358 7.5,55.5C 7.19167,44.2875 7.19167,33.1209 7.5,22C 7.16389,20.9701 6.49722,20.4701 5.5,20.5C 5.5,19.5 5.5,18.5 5.5,17.5C 6.90632,17.0269 7.57298,16.0269 7.5,14.5C 7.83333,13.5 8.5,12.8333 9.5,12.5C 10.609,12.4431 11.609,12.1098 12.5,11.5 Z"/></g>
<g><path style="opacity:1" fill="#1faee8" d="M 56.5,17.5 C 59.212,19.7849 58.8787,20.4515 55.5,19.5C 54.7025,19.9569 54.3691,20.6236 54.5,21.5C 51.979,21.5603 49.6457,20.8936 47.5,19.5C 44.9365,19.737 44.9365,20.237 47.5,21C 44.6353,21.1829 41.9686,21.6829 39.5,22.5C 38.0697,23.5375 36.403,24.2041 34.5,24.5C 33.791,23.596 32.791,23.2627 31.5,23.5C 31.5,22.1667 31.5,20.8333 31.5,19.5C 33.7991,17.9256 37.6324,16.9256 43,16.5C 45.59,16.3757 47.9233,17.0423 50,18.5C 52.0408,17.5769 54.2075,17.2436 56.5,17.5 Z"/></g>
<g><path style="opacity:1" fill="#2eb1e4" d="M 54.5,21.5 C 55.8776,22.5451 56.8776,23.8784 57.5,25.5C 56.7281,26.6935 55.7281,27.6935 54.5,28.5C 54.5,26.8333 54.5,25.1667 54.5,23.5C 50.7744,21.773 47.9411,22.773 46,26.5C 44.2417,25.5305 43.7417,24.3639 44.5,23C 42.8659,22.5065 41.1992,22.3398 39.5,22.5C 41.9686,21.6829 44.6353,21.1829 47.5,21C 44.9365,20.237 44.9365,19.737 47.5,19.5C 49.6457,20.8936 51.979,21.5603 54.5,21.5 Z"/></g>
<g><path style="opacity:1" fill="#24ade5" d="M 50.5,14.5 C 50.8333,14.5 51.1667,14.5 51.5,14.5C 55.5726,14.8079 59.5726,15.4746 63.5,16.5C 63.6036,18.7028 64.2702,20.7028 65.5,22.5C 63.9928,24.2894 62.6595,26.2894 61.5,28.5C 60.0986,27.4793 58.7653,26.4793 57.5,25.5C 56.8776,23.8784 55.8776,22.5451 54.5,21.5C 54.3691,20.6236 54.7025,19.9569 55.5,19.5C 58.8787,20.4515 59.212,19.7849 56.5,17.5C 54.5,16.5 52.5,15.5 50.5,14.5 Z"/></g>
<g><path style="opacity:1" fill="#1da9e7" d="M 31.5,19.5 C 31.5,20.8333 31.5,22.1667 31.5,23.5C 32.791,23.2627 33.791,23.596 34.5,24.5C 34.5,24.8333 34.5,25.1667 34.5,25.5C 33.603,26.5981 32.7697,26.5981 32,25.5C 31.5357,26.0944 31.369,26.7611 31.5,27.5C 31.1667,27.5 30.8333,27.5 30.5,27.5C 29.7354,27.0766 28.9021,26.7432 28,26.5C 24.9848,27.7556 22.1514,29.0889 19.5,30.5C 20.5025,28.9891 21.1692,27.3224 21.5,25.5C 23.6188,25.5323 24.9522,24.5323 25.5,22.5C 27.5168,21.4706 29.5168,20.4706 31.5,19.5 Z"/></g>
<g><path style="opacity:1" fill="#20ace8" d="M 19.5,23.5 C 21.4918,23.6715 23.1585,23.0049 24.5,21.5C 25.1067,21.6236 25.44,21.9569 25.5,22.5C 24.9522,24.5323 23.6188,25.5323 21.5,25.5C 21.1692,27.3224 20.5025,28.9891 19.5,30.5C 19.1667,30.5 18.8333,30.5 18.5,30.5C 18.1667,30.5 17.8333,30.5 17.5,30.5C 18.9143,28.4017 18.2476,27.4017 15.5,27.5C 15.4959,25.1579 14.6625,23.1579 13,21.5C 12.9016,24.5224 12.0682,27.1891 10.5,29.5C 10.5,27.8333 10.5,26.1667 10.5,24.5C 11.2341,23.2921 11.5674,21.9587 11.5,20.5C 14.0104,21.7834 16.6771,22.7834 19.5,23.5 Z"/></g>
<g><path style="opacity:1" fill="#5b636c" d="M 67.5,18.5 C 68.1667,18.8333 68.8333,19.1667 69.5,19.5C 70.4831,20.8503 71.8164,21.8503 73.5,22.5C 71.2617,27.9951 68.595,33.6618 65.5,39.5C 64.325,39.719 63.325,39.3857 62.5,38.5C 65.3102,32.1833 66.9768,25.5166 67.5,18.5 Z"/></g>
<g><path style="opacity:1" fill="#69d0f0" d="M 39.5,22.5 C 41.1992,22.3398 42.8659,22.5065 44.5,23C 43.7417,24.3639 44.2417,25.5305 46,26.5C 47.9411,22.773 50.7744,21.773 54.5,23.5C 54.5,25.1667 54.5,26.8333 54.5,28.5C 53.6851,29.4293 52.8518,30.4293 52,31.5C 51.6232,30.0577 50.7899,29.0577 49.5,28.5C 49.6309,27.6236 49.2975,26.9569 48.5,26.5C 46.6666,28.1493 44.9999,29.8159 43.5,31.5C 43.6216,28.7426 42.4549,26.7426 40,25.5C 39.6667,27.5 39.3333,29.5 39,31.5C 38.1864,28.8233 36.6864,26.8233 34.5,25.5C 34.5,25.1667 34.5,24.8333 34.5,24.5C 36.403,24.2041 38.0697,23.5375 39.5,22.5 Z"/></g>
<g><path style="opacity:1" fill="#3a6483" d="M 92.5,24.5 C 92.5,25.1667 92.8333,25.5 93.5,25.5C 92.0359,27.9845 90.3692,27.9845 88.5,25.5C 87.6143,26.325 87.281,27.325 87.5,28.5C 84.848,28.4503 83.848,27.4503 84.5,25.5C 83.5197,24.0186 82.353,22.6853 81,21.5C 80.5172,22.448 80.3505,23.448 80.5,24.5C 77.5466,24.1496 75.2133,25.1496 73.5,27.5C 73.8333,26.1667 74.1667,24.8333 74.5,23.5C 76.5164,21.6519 78.683,19.9852 81,18.5C 84.5108,21.1916 88.3441,23.1916 92.5,24.5 Z"/></g>
<g><path style="opacity:1" fill="#1f6d9a" d="M 87.5,28.5 C 87.5,29.5 87.5,30.5 87.5,31.5C 86.2921,30.7659 84.9587,30.4326 83.5,30.5C 83.0046,28.5183 82.5046,26.5183 82,24.5C 81.5172,25.448 81.3505,26.448 81.5,27.5C 79.5,27.5 77.5,27.5 75.5,27.5C 76.0768,30.5497 74.9101,32.5497 72,33.5C 71.1628,35.3506 70.3295,37.1839 69.5,39C 69.7284,39.3988 70.0618,39.5654 70.5,39.5C 70.5,39.8333 70.5,40.1667 70.5,40.5C 68.2812,42.5755 66.2812,44.9088 64.5,47.5C 64.5,46.1667 64.5,44.8333 64.5,43.5C 67.3351,39.1618 70.1685,34.8285 73,30.5C 73.4828,29.552 73.6495,28.552 73.5,27.5C 75.2133,25.1496 77.5466,24.1496 80.5,24.5C 80.3505,23.448 80.5172,22.448 81,21.5C 82.353,22.6853 83.5197,24.0186 84.5,25.5C 83.848,27.4503 84.848,28.4503 87.5,28.5 Z"/></g>
<g><path style="opacity:1" fill="#29a2dc" d="M 65.5,22.5 C 64.5402,27.0864 62.5402,31.0864 59.5,34.5C 59.5,33.1667 59.5,31.8333 59.5,30.5C 58.0695,30.5792 56.7362,30.2458 55.5,29.5C 54.269,30.6507 54.269,31.8173 55.5,33C 54.1807,33.195 52.8474,33.0283 51.5,32.5C 50.8333,32.1667 50.1667,31.8333 49.5,31.5C 49.5,30.5 49.5,29.5 49.5,28.5C 50.7899,29.0577 51.6232,30.0577 52,31.5C 52.8518,30.4293 53.6851,29.4293 54.5,28.5C 55.7281,27.6935 56.7281,26.6935 57.5,25.5C 58.7653,26.4793 60.0986,27.4793 61.5,28.5C 62.6595,26.2894 63.9928,24.2894 65.5,22.5 Z"/></g>
<g><path style="opacity:1" fill="#1b9fe8" d="M 30.5,27.5 C 30.8333,27.5 31.1667,27.5 31.5,27.5C 32.5,27.5 33.5,27.5 34.5,27.5C 34.5,28.8333 34.5,30.1667 34.5,31.5C 33.325,31.281 32.325,31.6143 31.5,32.5C 35.398,33.7327 37.398,36.3993 37.5,40.5C 37.5,41.1667 37.5,41.8333 37.5,42.5C 36.8333,43.1667 36.1667,43.8333 35.5,44.5C 36.0522,42.6693 36.0522,41.0026 35.5,39.5C 32.9428,40.8199 31.2761,39.9866 30.5,37C 28.8659,36.5065 27.1992,36.3398 25.5,36.5C 26.9541,33.8773 28.9541,31.7106 31.5,30C 29.3808,29.6582 29.0474,28.8249 30.5,27.5 Z"/></g>
<g><path style="opacity:1" fill="#2498df" d="M 5.5,20.5 C 6.49722,20.4701 7.16389,20.9701 7.5,22C 7.19167,33.1209 7.19167,44.2875 7.5,55.5C 6.5,55.5 5.5,55.5 4.5,55.5C 4.18869,43.7527 4.52203,32.0861 5.5,20.5 Z"/></g>
<g><path style="opacity:1" fill="#20a4ea" d="M 17.5,30.5 C 16.5627,33.2695 15.3961,35.9361 14,38.5C 13.2797,36.8876 13.4464,35.3876 14.5,34C 13.5509,33.3828 12.7175,33.5494 12,34.5C 11.6667,33.8333 11.3333,33.1667 11,32.5C 10.5034,34.8098 10.3367,37.1432 10.5,39.5C 10.7678,41.099 10.4345,42.4324 9.5,43.5C 9.5,39.5 9.5,35.5 9.5,31.5C 10.3382,31.1583 10.6716,30.4916 10.5,29.5C 12.0682,27.1891 12.9016,24.5224 13,21.5C 14.6625,23.1579 15.4959,25.1579 15.5,27.5C 18.2476,27.4017 18.9143,28.4017 17.5,30.5 Z"/></g>
<g><path style="opacity:0.008" fill="#00010c" d="M 96.5,20.5 C 96.8563,23.5641 96.0229,26.2307 94,28.5C 92.6439,29.3802 91.1439,29.7135 89.5,29.5C 89.8295,45.0091 89.4962,60.3424 88.5,75.5C 88.8293,60.6572 88.496,45.9905 87.5,31.5C 87.5,30.5 87.5,29.5 87.5,28.5C 87.281,27.325 87.6143,26.325 88.5,25.5C 90.3692,27.9845 92.0359,27.9845 93.5,25.5C 94.2632,23.6316 95.2632,21.9649 96.5,20.5 Z"/></g>
<g><path style="opacity:1" fill="#28a9ed" d="M 30.5,27.5 C 29.0474,28.8249 29.3808,29.6582 31.5,30C 28.9541,31.7106 26.9541,33.8773 25.5,36.5C 24.3994,35.1516 23.3994,33.6516 22.5,32C 20.9419,31.79 19.6085,31.29 18.5,30.5C 18.8333,30.5 19.1667,30.5 19.5,30.5C 22.1514,29.0889 24.9848,27.7556 28,26.5C 28.9021,26.7432 29.7354,27.0766 30.5,27.5 Z"/></g>
<g><path style="opacity:1" fill="#22a4e3" d="M 34.5,25.5 C 36.6864,26.8233 38.1864,28.8233 39,31.5C 39.3333,29.5 39.6667,27.5 40,25.5C 42.4549,26.7426 43.6216,28.7426 43.5,31.5C 42.7784,31.9175 42.2784,32.5842 42,33.5C 40.3335,32.6598 40.1669,33.1598 41.5,35C 40.3034,37.0153 38.9701,38.8487 37.5,40.5C 37.398,36.3993 35.398,33.7327 31.5,32.5C 32.325,31.6143 33.325,31.281 34.5,31.5C 34.5,30.1667 34.5,28.8333 34.5,27.5C 33.5,27.5 32.5,27.5 31.5,27.5C 31.369,26.7611 31.5357,26.0944 32,25.5C 32.7697,26.5981 33.603,26.5981 34.5,25.5 Z"/></g>
<g><path style="opacity:1" fill="#1d8aca" d="M 81.5,27.5 C 81.5,36.8333 81.5,46.1667 81.5,55.5C 81.1667,55.5 80.8333,55.5 80.5,55.5C 80.5,53.1667 80.5,50.8333 80.5,48.5C 80.666,43.1563 80.4994,37.8229 80,32.5C 78.3199,34.3493 76.8199,36.3493 75.5,38.5C 73.9291,39.3094 72.2624,39.6427 70.5,39.5C 70.0618,39.5654 69.7284,39.3988 69.5,39C 70.3295,37.1839 71.1628,35.3506 72,33.5C 74.9101,32.5497 76.0768,30.5497 75.5,27.5C 77.5,27.5 79.5,27.5 81.5,27.5 Z"/></g>
<g><path style="opacity:1" fill="#51bbee" d="M 49.5,28.5 C 49.5,29.5 49.5,30.5 49.5,31.5C 46.482,31.7998 44.482,33.4665 43.5,36.5C 43.8627,37.1835 44.1961,37.8501 44.5,38.5C 42.4384,39.3902 40.1051,40.7236 37.5,42.5C 37.5,41.8333 37.5,41.1667 37.5,40.5C 38.9701,38.8487 40.3034,37.0153 41.5,35C 40.1669,33.1598 40.3335,32.6598 42,33.5C 42.2784,32.5842 42.7784,31.9175 43.5,31.5C 44.9999,29.8159 46.6666,28.1493 48.5,26.5C 49.2975,26.9569 49.6309,27.6236 49.5,28.5 Z"/></g>
<g><path style="opacity:1" fill="#219cdd" d="M 59.5,34.5 C 59.1249,36.6976 58.4582,38.6976 57.5,40.5C 56.2719,41.3065 55.2719,42.3065 54.5,43.5C 53.8715,39.67 52.8715,36.0033 51.5,32.5C 52.8474,33.0283 54.1807,33.195 55.5,33C 54.269,31.8173 54.269,30.6507 55.5,29.5C 56.7362,30.2458 58.0695,30.5792 59.5,30.5C 59.5,31.8333 59.5,33.1667 59.5,34.5 Z"/></g>
<g><path style="opacity:1" fill="#20a0eb" d="M 17.5,30.5 C 17.8333,30.5 18.1667,30.5 18.5,30.5C 19.6085,31.29 20.9419,31.79 22.5,32C 23.3994,33.6516 24.3994,35.1516 25.5,36.5C 23.9752,38.2163 22.9752,40.2163 22.5,42.5C 21.6993,44.0418 21.366,45.7085 21.5,47.5C 20.5,47.5 19.5,47.5 18.5,47.5C 18.8333,44.8333 19.1667,42.1667 19.5,39.5C 16.9208,39.0833 14.7542,39.75 13,41.5C 12.2917,40.6195 11.4584,39.9528 10.5,39.5C 10.3367,37.1432 10.5034,34.8098 11,32.5C 11.3333,33.1667 11.6667,33.8333 12,34.5C 12.7175,33.5494 13.5509,33.3828 14.5,34C 13.4464,35.3876 13.2797,36.8876 14,38.5C 15.3961,35.9361 16.5627,33.2695 17.5,30.5 Z"/></g>
<g><path style="opacity:1" fill="#385164" d="M 69.5,19.5 C 69.8333,19.5 70.1667,19.5 70.5,19.5C 73.179,19.5246 74.5123,20.858 74.5,23.5C 74.1667,24.8333 73.8333,26.1667 73.5,27.5C 73.6495,28.552 73.4828,29.552 73,30.5C 70.1685,34.8285 67.3351,39.1618 64.5,43.5C 64.1667,43.5 63.8333,43.5 63.5,43.5C 64.1667,42.1667 64.8333,40.8333 65.5,39.5C 68.595,33.6618 71.2617,27.9951 73.5,22.5C 71.8164,21.8503 70.4831,20.8503 69.5,19.5 Z"/></g>
<g><path style="opacity:1" fill="#1c97e7" d="M 25.5,36.5 C 27.1992,36.3398 28.8659,36.5065 30.5,37C 31.2761,39.9866 32.9428,40.8199 35.5,39.5C 36.0522,41.0026 36.0522,42.6693 35.5,44.5C 35.0679,45.7095 34.4013,46.7095 33.5,47.5C 30.4987,44.5014 26.832,42.8347 22.5,42.5C 22.9752,40.2163 23.9752,38.2163 25.5,36.5 Z"/></g>
<g><path style="opacity:1" fill="#607688" d="M 66.5,13.5 C 67.4511,14.9187 67.7845,16.5853 67.5,18.5C 66.9768,25.5166 65.3102,32.1833 62.5,38.5C 63.325,39.3857 64.325,39.719 65.5,39.5C 64.8333,40.8333 64.1667,42.1667 63.5,43.5C 63.5,44.1667 63.1667,44.5 62.5,44.5C 61.0351,43.2632 59.3684,42.2632 57.5,41.5C 57.5,41.1667 57.5,40.8333 57.5,40.5C 58.4582,38.6976 59.1249,36.6976 59.5,34.5C 62.5402,31.0864 64.5402,27.0864 65.5,22.5C 66.2788,19.4525 66.6121,16.4525 66.5,13.5 Z"/></g>
<g><path style="opacity:1" fill="#1d92e4" d="M 80.5,48.5 C 78.4176,48.528 76.5843,47.8613 75,46.5C 74.1247,48.5127 72.7913,48.5127 71,46.5C 70.2432,48.3146 69.4098,49.9812 68.5,51.5C 68.4238,47.6163 69.0905,43.9496 70.5,40.5C 70.5,40.1667 70.5,39.8333 70.5,39.5C 72.2624,39.6427 73.9291,39.3094 75.5,38.5C 76.8199,36.3493 78.3199,34.3493 80,32.5C 80.4994,37.8229 80.666,43.1563 80.5,48.5 Z"/></g>
<g><path style="opacity:1" fill="#1b91e3" d="M 22.5,42.5 C 26.832,42.8347 30.4987,44.5014 33.5,47.5C 33.5,48.1667 33.5,48.8333 33.5,49.5C 32.7281,50.6935 31.7281,51.6935 30.5,52.5C 31.4339,50.7615 31.4339,49.0948 30.5,47.5C 28.2727,48.0525 25.9393,48.0525 23.5,47.5C 22.8333,47.5 22.1667,47.5 21.5,47.5C 21.366,45.7085 21.6993,44.0418 22.5,42.5 Z"/></g>
<g><path style="opacity:1" fill="#46abe4" d="M 49.5,31.5 C 50.1667,31.8333 50.8333,32.1667 51.5,32.5C 52.8715,36.0033 53.8715,39.67 54.5,43.5C 54.0679,44.7095 53.4013,45.7095 52.5,46.5C 52.1788,44.9519 51.1788,44.2852 49.5,44.5C 49.6567,45.8734 49.49,47.2068 49,48.5C 48,46.8333 47,45.1667 46,43.5C 45.2917,44.3805 44.4584,45.0472 43.5,45.5C 43.9195,43.9064 44.5862,42.4064 45.5,41C 45.2568,40.0979 44.9234,39.2646 44.5,38.5C 44.1961,37.8501 43.8627,37.1835 43.5,36.5C 44.482,33.4665 46.482,31.7998 49.5,31.5 Z"/></g>
<g><path style="opacity:0.376" fill="#145d9e" d="M 5.5,17.5 C 5.5,18.5 5.5,19.5 5.5,20.5C 4.52203,32.0861 4.18869,43.7527 4.5,55.5C 4.5,61.5 4.5,67.5 4.5,73.5C 4.5,75.1667 4.5,76.8333 4.5,78.5C 3.50304,59.674 3.16971,40.674 3.5,21.5C 3.6596,19.847 4.32627,18.5137 5.5,17.5 Z"/></g>
<g><path style="opacity:1" fill="#1e94e7" d="M 10.5,39.5 C 11.4584,39.9528 12.2917,40.6195 13,41.5C 14.7542,39.75 16.9208,39.0833 19.5,39.5C 19.1667,42.1667 18.8333,44.8333 18.5,47.5C 16.4588,47.8541 14.6255,47.8541 13,47.5C 12.8171,50.3647 12.3171,53.0314 11.5,55.5C 11.0623,54.4937 10.3957,54.4937 9.5,55.5C 9.5,51.5 9.5,47.5 9.5,43.5C 10.4345,42.4324 10.7678,41.099 10.5,39.5 Z"/></g>
<g><path style="opacity:1" fill="#44a7e9" d="M 44.5,38.5 C 44.9234,39.2646 45.2568,40.0979 45.5,41C 44.5862,42.4064 43.9195,43.9064 43.5,45.5C 43.1667,46.8333 42.8333,48.1667 42.5,49.5C 39.9294,53.5178 38.9294,52.8512 39.5,47.5C 36.7908,47.5549 34.7908,48.2216 33.5,49.5C 33.5,48.8333 33.5,48.1667 33.5,47.5C 34.4013,46.7095 35.0679,45.7095 35.5,44.5C 36.1667,43.8333 36.8333,43.1667 37.5,42.5C 40.1051,40.7236 42.4384,39.3902 44.5,38.5 Z"/></g>
<g><path style="opacity:1" fill="#358ed4" d="M 52.5,46.5 C 51.6214,49.7012 49.9547,52.3678 47.5,54.5C 47.5,53.1667 47.5,51.8333 47.5,50.5C 45.7839,50.3713 44.1172,50.038 42.5,49.5C 42.8333,48.1667 43.1667,46.8333 43.5,45.5C 44.4584,45.0472 45.2917,44.3805 46,43.5C 47,45.1667 48,46.8333 49,48.5C 49.49,47.2068 49.6567,45.8734 49.5,44.5C 51.1788,44.2852 52.1788,44.9519 52.5,46.5 Z"/></g>
<g><path style="opacity:1" fill="#1e8ce6" d="M 80.5,48.5 C 80.5,50.8333 80.5,53.1667 80.5,55.5C 79.5902,57.0188 78.7568,58.6854 78,60.5C 78.9924,57.4302 78.6591,54.4302 77,51.5C 76.3333,54.1667 75.6667,54.1667 75,51.5C 73.9152,52.7356 73.0819,54.0689 72.5,55.5C 72.1667,55.5 71.8333,55.5 71.5,55.5C 70.2825,54.8386 68.9492,54.1719 67.5,53.5C 67.8627,52.8165 68.1961,52.1499 68.5,51.5C 69.4098,49.9812 70.2432,48.3146 71,46.5C 72.7913,48.5127 74.1247,48.5127 75,46.5C 76.5843,47.8613 78.4176,48.528 80.5,48.5 Z"/></g>
<g><path style="opacity:1" fill="#2a90d5" d="M 83.5,30.5 C 84.9587,30.4326 86.2921,30.7659 87.5,31.5C 87.5,36.8333 87.5,42.1667 87.5,47.5C 85.78,45.3419 84.9467,42.6752 85,39.5C 84.8227,43.3563 84.3227,47.023 83.5,50.5C 83.5,43.8333 83.5,37.1667 83.5,30.5 Z"/></g>
<g><path style="opacity:1" fill="#1e8de7" d="M 18.5,47.5 C 19.5,47.5 20.5,47.5 21.5,47.5C 22.1667,47.5 22.8333,47.5 23.5,47.5C 22.8953,49.0257 21.7286,50.0257 20,50.5C 19.51,51.7932 19.3433,53.1266 19.5,54.5C 17.4458,54.3653 15.7791,55.032 14.5,56.5C 13.7321,57.2625 13.2321,58.2625 13,59.5C 12.5899,58.0993 12.0899,56.766 11.5,55.5C 12.3171,53.0314 12.8171,50.3647 13,47.5C 14.6255,47.8541 16.4588,47.8541 18.5,47.5 Z"/></g>
<g><path style="opacity:1" fill="#1774be" d="M 70.5,40.5 C 69.0905,43.9496 68.4238,47.6163 68.5,51.5C 68.1961,52.1499 67.8627,52.8165 67.5,53.5C 68.9492,54.1719 70.2825,54.8386 71.5,55.5C 68.5,55.5 65.5,55.5 62.5,55.5C 63.6392,52.9963 64.3059,50.3297 64.5,47.5C 66.2812,44.9088 68.2812,42.5755 70.5,40.5 Z"/></g>
<g><path style="opacity:1" fill="#383f46" d="M 57.5,41.5 C 59.3684,42.2632 61.0351,43.2632 62.5,44.5C 61.7766,48.953 59.7766,52.6197 56.5,55.5C 55.2867,55.2528 54.62,54.5862 54.5,53.5C 55.3629,52.0597 55.3629,50.7264 54.5,49.5C 54.9377,48.4937 55.6043,48.4937 56.5,49.5C 56.8333,48.8333 57.1667,48.1667 57.5,47.5C 56.3466,45.432 56.3466,43.432 57.5,41.5 Z"/></g>
<g><path style="opacity:1" fill="#308fdd" d="M 42.5,49.5 C 44.1172,50.038 45.7839,50.3713 47.5,50.5C 47.5,51.8333 47.5,53.1667 47.5,54.5C 47.5,54.8333 47.5,55.1667 47.5,55.5C 37.8417,55.3119 28.175,55.3119 18.5,55.5C 16.0657,57.0121 15.3991,59.0121 16.5,61.5C 14.744,60.4479 14.0773,58.7812 14.5,56.5C 15.7791,55.032 17.4458,54.3653 19.5,54.5C 23.4126,54.8132 27.0793,54.1466 30.5,52.5C 31.7281,51.6935 32.7281,50.6935 33.5,49.5C 34.7908,48.2216 36.7908,47.5549 39.5,47.5C 38.9294,52.8512 39.9294,53.5178 42.5,49.5 Z"/></g>
<g><path style="opacity:1" fill="#198ce6" d="M 23.5,47.5 C 25.9393,48.0525 28.2727,48.0525 30.5,47.5C 31.4339,49.0948 31.4339,50.7615 30.5,52.5C 27.0793,54.1466 23.4126,54.8132 19.5,54.5C 19.3433,53.1266 19.51,51.7932 20,50.5C 21.7286,50.0257 22.8953,49.0257 23.5,47.5 Z"/></g>
<g><path style="opacity:1" fill="#1f80db" d="M 80.5,55.5 C 80.8333,55.5 81.1667,55.5 81.5,55.5C 81.5,62.1667 81.5,68.8333 81.5,75.5C 80.8333,76.1667 80.1667,76.8333 79.5,77.5C 80.2436,73.8815 80.577,70.2148 80.5,66.5C 80.6602,64.8008 80.4935,63.1341 80,61.5C 78.103,63.0163 75.9363,63.683 73.5,63.5C 74.1098,62.609 74.4431,61.609 74.5,60.5C 75.4511,59.0813 75.7845,57.4147 75.5,55.5C 74.5,55.5 73.5,55.5 72.5,55.5C 73.0819,54.0689 73.9152,52.7356 75,51.5C 75.6667,54.1667 76.3333,54.1667 77,51.5C 78.6591,54.4302 78.9924,57.4302 78,60.5C 78.7568,58.6854 79.5902,57.0188 80.5,55.5 Z"/></g>
<g><path style="opacity:1" fill="#293548" d="M 57.5,40.5 C 57.5,40.8333 57.5,41.1667 57.5,41.5C 56.3466,43.432 56.3466,45.432 57.5,47.5C 57.1667,48.1667 56.8333,48.8333 56.5,49.5C 55.6043,48.4937 54.9377,48.4937 54.5,49.5C 55.3629,50.7264 55.3629,52.0597 54.5,53.5C 53.596,54.209 53.2627,55.209 53.5,56.5C 51.8333,56.5 50.1667,56.5 48.5,56.5C 48.5,58.8333 48.5,61.1667 48.5,63.5C 47.7611,63.631 47.0944,63.4643 46.5,63C 47.4061,61.3005 47.7394,59.4672 47.5,57.5C 47.5,57.1667 47.5,56.8333 47.5,56.5C 47.5,56.1667 47.5,55.8333 47.5,55.5C 47.5,55.1667 47.5,54.8333 47.5,54.5C 49.9547,52.3678 51.6214,49.7012 52.5,46.5C 53.4013,45.7095 54.0679,44.7095 54.5,43.5C 55.2719,42.3065 56.2719,41.3065 57.5,40.5 Z"/></g>
<g><path style="opacity:1" fill="#adf9ff" d="M 47.5,55.5 C 47.5,55.8333 47.5,56.1667 47.5,56.5C 37.6522,56.8271 27.9856,56.4938 18.5,55.5C 28.175,55.3119 37.8417,55.3119 47.5,55.5 Z"/></g>
<g><path style="opacity:1" fill="#287ece" d="M 87.5,47.5 C 87.8269,57.015 87.4936,66.3483 86.5,75.5C 86.8242,71.4454 86.4909,67.4454 85.5,63.5C 85.0266,67.7874 84.0266,71.7874 82.5,75.5C 83.4071,67.2079 83.7404,58.8746 83.5,50.5C 84.3227,47.023 84.8227,43.3563 85,39.5C 84.9467,42.6752 85.78,45.3419 87.5,47.5 Z"/></g>
<g><path style="opacity:1" fill="#569ec8" d="M 18.5,55.5 C 27.9856,56.4938 37.6522,56.8271 47.5,56.5C 47.5,56.8333 47.5,57.1667 47.5,57.5C 46.8333,57.8333 46.1667,58.1667 45.5,58.5C 36.3483,57.5064 27.015,57.1731 17.5,57.5C 17.5,58.8333 17.5,60.1667 17.5,61.5C 17.1667,61.5 16.8333,61.5 16.5,61.5C 15.3991,59.0121 16.0657,57.0121 18.5,55.5 Z"/></g>
<g><path style="opacity:1" fill="#2f3745" d="M 63.5,43.5 C 63.8333,43.5 64.1667,43.5 64.5,43.5C 64.5,44.8333 64.5,46.1667 64.5,47.5C 60.8051,53.897 57.4717,60.5637 54.5,67.5C 52.3567,69.1307 50.69,71.1307 49.5,73.5C 49.8432,71.5168 49.1765,70.1834 47.5,69.5C 47.9195,67.9064 48.5862,66.4064 49.5,65C 49.4301,64.2352 49.0967,63.7352 48.5,63.5C 48.5,61.1667 48.5,58.8333 48.5,56.5C 50.1667,56.5 51.8333,56.5 53.5,56.5C 53.2627,55.209 53.596,54.209 54.5,53.5C 54.62,54.5862 55.2867,55.2528 56.5,55.5C 59.7766,52.6197 61.7766,48.953 62.5,44.5C 63.1667,44.5 63.5,44.1667 63.5,43.5 Z"/></g>
<g><path style="opacity:1" fill="#2481de" d="M 11.5,55.5 C 12.0899,56.766 12.5899,58.0993 13,59.5C 13.2321,58.2625 13.7321,57.2625 14.5,56.5C 14.0773,58.7812 14.744,60.4479 16.5,61.5C 16.8333,61.5 17.1667,61.5 17.5,61.5C 17.8333,62.1667 18.1667,62.8333 18.5,63.5C 15.9382,62.6285 13.2716,62.6285 10.5,63.5C 10.5,66.5 10.5,69.5 10.5,72.5C 9.51114,67.0247 9.1778,61.358 9.5,55.5C 10.3957,54.4937 11.0623,54.4937 11.5,55.5 Z"/></g>
<g><path style="opacity:1" fill="#6cbcde" d="M 83.5,30.5 C 83.5,37.1667 83.5,43.8333 83.5,50.5C 83.7404,58.8746 83.4071,67.2079 82.5,75.5C 82.1667,75.5 81.8333,75.5 81.5,75.5C 81.5,68.8333 81.5,62.1667 81.5,55.5C 81.5,46.1667 81.5,36.8333 81.5,27.5C 81.3505,26.448 81.5172,25.448 82,24.5C 82.5046,26.5183 83.0046,28.5183 83.5,30.5 Z"/></g>
<g><path style="opacity:1" fill="#2679d5" d="M 4.5,55.5 C 5.5,55.5 6.5,55.5 7.5,55.5C 7.1778,61.358 7.51114,67.0247 8.5,72.5C 8.49136,74.3084 8.99136,75.9751 10,77.5C 10.49,76.2068 10.6567,74.8734 10.5,73.5C 11.4614,75.2646 11.7947,77.2646 11.5,79.5C 11.5569,80.609 11.8902,81.609 12.5,82.5C 11.5041,82.5858 10.6708,82.2524 10,81.5C 9.27543,79.0506 8.27543,76.7173 7,74.5C 6.32924,73.7476 5.4959,73.4142 4.5,73.5C 4.5,67.5 4.5,61.5 4.5,55.5 Z"/></g>
<g><path style="opacity:1" fill="#3486d6" d="M 45.5,58.5 C 45.2671,60.0618 44.6005,61.3951 43.5,62.5C 34.7794,62.7754 26.1127,62.4421 17.5,61.5C 17.5,60.1667 17.5,58.8333 17.5,57.5C 27.015,57.1731 36.3483,57.5064 45.5,58.5 Z"/></g>
<g><path style="opacity:1" fill="#275d95" d="M 64.5,47.5 C 64.3059,50.3297 63.6392,52.9963 62.5,55.5C 61.9522,57.15 61.6189,58.8166 61.5,60.5C 59.6921,61.9179 59.0254,63.9179 59.5,66.5C 56.5,66.1667 55.1667,67.5 55.5,70.5C 54.8889,72.7111 53.5556,74.3777 51.5,75.5C 52.1168,72.6446 53.1168,69.9779 54.5,67.5C 57.4717,60.5637 60.8051,53.897 64.5,47.5 Z"/></g>
<g><path style="opacity:1" fill="#4d98da" d="M 62.5,55.5 C 65.5,55.5 68.5,55.5 71.5,55.5C 71.8333,55.5 72.1667,55.5 72.5,55.5C 73.5,55.5 74.5,55.5 75.5,55.5C 75.7845,57.4147 75.4511,59.0813 74.5,60.5C 71.6065,61.9534 68.6065,62.9534 65.5,63.5C 64.1667,62.5 62.8333,61.5 61.5,60.5C 61.6189,58.8166 61.9522,57.15 62.5,55.5 Z"/></g>
<g><path style="opacity:0.039" fill="#030627" d="M 3.5,21.5 C 3.16971,40.674 3.50304,59.674 4.5,78.5C 5.33825,78.8417 5.67158,79.5084 5.5,80.5C 4.83333,80.1667 4.16667,79.8333 3.5,79.5C 2.00775,70.0445 1.34109,60.3779 1.5,50.5C 1.34109,40.6221 2.00775,30.9555 3.5,21.5 Z"/></g>
<g><path style="opacity:1" fill="#8adafe" d="M 17.5,61.5 C 26.1127,62.4421 34.7794,62.7754 43.5,62.5C 43.5,63.1667 43.1667,63.5 42.5,63.5C 39.2869,63.19 36.2869,63.5233 33.5,64.5C 28.4404,64.0934 23.4404,63.7601 18.5,63.5C 18.1667,62.8333 17.8333,62.1667 17.5,61.5 Z"/></g>
<g><path style="opacity:1" fill="#82d0fb" d="M 74.5,60.5 C 74.4431,61.609 74.1098,62.609 73.5,63.5C 70.9179,63.0254 68.9179,63.6921 67.5,65.5C 66.8333,65.1667 66.1667,64.8333 65.5,64.5C 65.5,64.1667 65.5,63.8333 65.5,63.5C 68.6065,62.9534 71.6065,61.9534 74.5,60.5 Z"/></g>
<g><path style="opacity:1" fill="#217ce2" d="M 80.5,66.5 C 79.1751,67.9526 78.3418,67.6192 78,65.5C 76.8631,66.364 75.5298,67.364 74,68.5C 73.5756,64.81 72.7423,64.6433 71.5,68C 72.807,69.9435 72.807,71.7768 71.5,73.5C 71.0257,70.3714 69.6924,67.7047 67.5,65.5C 68.9179,63.6921 70.9179,63.0254 73.5,63.5C 75.9363,63.683 78.103,63.0163 80,61.5C 80.4935,63.1341 80.6602,64.8008 80.5,66.5 Z"/></g>
<g><path style="opacity:1" fill="#1c75e0" d="M 18.5,63.5 C 18.9234,64.2646 19.2568,65.0979 19.5,66C 18.1439,67.5671 17.4772,69.4004 17.5,71.5C 15.8333,71.5 14.1667,71.5 12.5,71.5C 12.5079,74.5448 12.8413,77.5448 13.5,80.5C 12.8333,80.1667 12.1667,79.8333 11.5,79.5C 11.7947,77.2646 11.4614,75.2646 10.5,73.5C 10.5,73.1667 10.5,72.8333 10.5,72.5C 10.5,69.5 10.5,66.5 10.5,63.5C 13.2716,62.6285 15.9382,62.6285 18.5,63.5 Z"/></g>
<g><path style="opacity:1" fill="#283450" d="M 47.5,57.5 C 47.7394,59.4672 47.4061,61.3005 46.5,63C 47.0944,63.4643 47.7611,63.631 48.5,63.5C 49.0967,63.7352 49.4301,64.2352 49.5,65C 48.5862,66.4064 47.9195,67.9064 47.5,69.5C 46.5178,68.8592 45.5178,68.1925 44.5,67.5C 43.2258,69.3181 41.7258,70.9847 40,72.5C 39.9321,77.1107 39.2654,81.7774 38,86.5C 37.3292,87.2524 36.4959,87.5858 35.5,87.5C 35.6567,86.1266 35.49,84.7932 35,83.5C 32.7621,85.7221 30.9287,88.0554 29.5,90.5C 29.5,89.1667 29.5,87.8333 29.5,86.5C 30.1667,86.5 30.5,86.1667 30.5,85.5C 32.3582,83.1169 33.6916,80.4502 34.5,77.5C 38.0932,73.4141 40.7599,68.7474 42.5,63.5C 43.1667,63.5 43.5,63.1667 43.5,62.5C 44.6005,61.3951 45.2671,60.0618 45.5,58.5C 46.1667,58.1667 46.8333,57.8333 47.5,57.5 Z"/></g>
<g><path style="opacity:1" fill="#2074d6" d="M 42.5,63.5 C 40.7599,68.7474 38.0932,73.4141 34.5,77.5C 34.6162,74.0897 32.9496,72.7564 29.5,73.5C 30.0231,70.122 31.3565,67.122 33.5,64.5C 36.2869,63.5233 39.2869,63.19 42.5,63.5 Z"/></g>
<g><path style="opacity:1" fill="#2978d8" d="M 61.5,60.5 C 62.8333,61.5 64.1667,62.5 65.5,63.5C 65.5,63.8333 65.5,64.1667 65.5,64.5C 65.9182,67.0896 66.9182,69.4229 68.5,71.5C 65.8565,72.3667 63.5232,71.7 61.5,69.5C 60.8333,69.5 60.1667,69.5 59.5,69.5C 59.5,68.5 59.5,67.5 59.5,66.5C 59.0254,63.9179 59.6921,61.9179 61.5,60.5 Z"/></g>
<g><path style="opacity:1" fill="#539ce5" d="M 65.5,64.5 C 66.1667,64.8333 66.8333,65.1667 67.5,65.5C 69.6924,67.7047 71.0257,70.3714 71.5,73.5C 69.9731,73.427 68.9731,74.0937 68.5,75.5C 68.1667,75.5 67.8333,75.5 67.5,75.5C 64.1667,74.8333 62.1667,72.8333 61.5,69.5C 63.5232,71.7 65.8565,72.3667 68.5,71.5C 66.9182,69.4229 65.9182,67.0896 65.5,64.5 Z"/></g>
<g><path style="opacity:0.054" fill="#010830" d="M 87.5,31.5 C 88.496,45.9905 88.8293,60.6572 88.5,75.5C 88.8676,79.0443 87.8676,82.0443 85.5,84.5C 84.078,85.925 82.4113,86.925 80.5,87.5C 80.5,87.1667 80.5,86.8333 80.5,86.5C 84.3153,83.8726 86.3153,80.2059 86.5,75.5C 87.4936,66.3483 87.8269,57.015 87.5,47.5C 87.5,42.1667 87.5,36.8333 87.5,31.5 Z"/></g>
<g><path style="opacity:1" fill="#1a72e0" d="M 80.5,66.5 C 80.577,70.2148 80.2436,73.8815 79.5,77.5C 79.6716,78.4916 79.3382,79.1583 78.5,79.5C 78.5,78.1667 78.5,76.8333 78.5,75.5C 74.9889,75.1634 71.6556,75.1634 68.5,75.5C 68.9731,74.0937 69.9731,73.427 71.5,73.5C 72.807,71.7768 72.807,69.9435 71.5,68C 72.7423,64.6433 73.5756,64.81 74,68.5C 75.5298,67.364 76.8631,66.364 78,65.5C 78.3418,67.6192 79.1751,67.9526 80.5,66.5 Z"/></g>
<g><path style="opacity:1" fill="#1b6ae2" d="M 17.5,71.5 C 17.6856,75.3527 19.6856,77.0193 23.5,76.5C 23.5,77.5 23.5,78.5 23.5,79.5C 27.938,78.4251 29.938,80.0917 29.5,84.5C 27.5,84.5 25.5,84.5 23.5,84.5C 23.5,83.5 23.5,82.5 23.5,81.5C 20.1401,81.3841 16.8067,81.0508 13.5,80.5C 12.8413,77.5448 12.5079,74.5448 12.5,71.5C 14.1667,71.5 15.8333,71.5 17.5,71.5 Z"/></g>
<g><path style="opacity:1" fill="#3987da" d="M 18.5,63.5 C 23.4404,63.7601 28.4404,64.0934 33.5,64.5C 31.3565,67.122 30.0231,70.122 29.5,73.5C 28.2003,74.1079 26.8669,74.7745 25.5,75.5C 22.8227,74.148 20.156,72.8147 17.5,71.5C 17.4772,69.4004 18.1439,67.5671 19.5,66C 19.2568,65.0979 18.9234,64.2646 18.5,63.5 Z"/></g>
<g><path style="opacity:1" fill="#90dafa" d="M 9.5,31.5 C 9.5,35.5 9.5,39.5 9.5,43.5C 9.5,47.5 9.5,51.5 9.5,55.5C 9.1778,61.358 9.51114,67.0247 10.5,72.5C 10.5,72.8333 10.5,73.1667 10.5,73.5C 10.6567,74.8734 10.49,76.2068 10,77.5C 8.99136,75.9751 8.49136,74.3084 8.5,72.5C 8.13701,54.8046 8.47034,41.138 9.5,31.5 Z"/></g>
<g><path style="opacity:1" fill="#363a44" d="M 47.5,69.5 C 49.1765,70.1834 49.8432,71.5168 49.5,73.5C 47.5976,77.6086 45.4309,81.6086 43,85.5C 42.187,87.4357 41.687,89.4357 41.5,91.5C 39.5648,90.8505 37.5648,90.5172 35.5,90.5C 35.5,89.5 35.5,88.5 35.5,87.5C 36.4959,87.5858 37.3292,87.2524 38,86.5C 39.2654,81.7774 39.9321,77.1107 40,72.5C 41.7258,70.9847 43.2258,69.3181 44.5,67.5C 45.5178,68.1925 46.5178,68.8592 47.5,69.5 Z"/></g>
<g><path style="opacity:1" fill="#226ed9" d="M 59.5,69.5 C 60.1667,69.5 60.8333,69.5 61.5,69.5C 62.1667,72.8333 64.1667,74.8333 67.5,75.5C 66.0003,77.1786 64.167,78.5119 62,79.5C 61.6667,78.1667 61.3333,76.8333 61,75.5C 59.6703,76.5822 58.1703,77.2488 56.5,77.5C 57.8146,75.8653 57.8146,74.1986 56.5,72.5C 57.548,71.452 58.548,70.452 59.5,69.5 Z"/></g>
<g><path style="opacity:1" fill="#1e6de0" d="M 78.5,79.5 C 78.5,80.1667 78.1667,80.5 77.5,80.5C 73.1551,80.6969 68.6551,80.3635 64,79.5C 60.625,80.9375 57.125,81.9375 53.5,82.5C 53.2729,80.0672 54.2729,78.4006 56.5,77.5C 58.1703,77.2488 59.6703,76.5822 61,75.5C 61.3333,76.8333 61.6667,78.1667 62,79.5C 64.167,78.5119 66.0003,77.1786 67.5,75.5C 67.8333,75.5 68.1667,75.5 68.5,75.5C 71.6556,75.1634 74.9889,75.1634 78.5,75.5C 78.5,76.8333 78.5,78.1667 78.5,79.5 Z"/></g>
<g><path style="opacity:1" fill="#507abc" d="M 55.5,70.5 C 53.833,74.928 52.4997,79.5946 51.5,84.5C 58.1335,85.4967 64.8002,85.83 71.5,85.5C 71.5,85.8333 71.5,86.1667 71.5,86.5C 62.8333,86.5 54.1667,86.5 45.5,86.5C 46.7798,82.4609 48.7798,78.7943 51.5,75.5C 53.5556,74.3777 54.8889,72.7111 55.5,70.5 Z"/></g>
<g><path style="opacity:1" fill="#9ad7fe" d="M 81.5,75.5 C 81.2241,78.7186 79.8907,81.3852 77.5,83.5C 75.7028,84.7298 73.7028,85.3964 71.5,85.5C 71.5,85.1667 71.5,84.8333 71.5,84.5C 74.1979,84.1551 76.1979,82.8218 77.5,80.5C 78.1667,80.5 78.5,80.1667 78.5,79.5C 79.3382,79.1583 79.6716,78.4916 79.5,77.5C 80.1667,76.8333 80.8333,76.1667 81.5,75.5 Z"/></g>
<g><path style="opacity:1" fill="#246cd5" d="M 17.5,71.5 C 20.156,72.8147 22.8227,74.148 25.5,75.5C 26.8669,74.7745 28.2003,74.1079 29.5,73.5C 32.9496,72.7564 34.6162,74.0897 34.5,77.5C 33.6916,80.4502 32.3582,83.1169 30.5,85.5C 25.3409,85.8183 20.3409,85.1517 15.5,83.5C 14.8333,82.5 14.1667,81.5 13.5,80.5C 16.8067,81.0508 20.1401,81.3841 23.5,81.5C 23.5,82.5 23.5,83.5 23.5,84.5C 25.5,84.5 27.5,84.5 29.5,84.5C 29.938,80.0917 27.938,78.4251 23.5,79.5C 23.5,78.5 23.5,77.5 23.5,76.5C 19.6856,77.0193 17.6856,75.3527 17.5,71.5 Z"/></g>
<g><path style="opacity:1" fill="#9ccdfd" d="M 11.5,79.5 C 12.1667,79.8333 12.8333,80.1667 13.5,80.5C 14.1667,81.5 14.8333,82.5 15.5,83.5C 14.391,83.4431 13.391,83.1098 12.5,82.5C 11.8902,81.609 11.5569,80.609 11.5,79.5 Z"/></g>
<g><path style="opacity:1" fill="#162943" d="M 54.5,67.5 C 53.1168,69.9779 52.1168,72.6446 51.5,75.5C 48.7798,78.7943 46.7798,82.4609 45.5,86.5C 44.1667,88.1667 44.1667,89.8333 45.5,91.5C 44.8333,91.5 44.1667,91.5 43.5,91.5C 42.8333,91.5 42.1667,91.5 41.5,91.5C 41.687,89.4357 42.187,87.4357 43,85.5C 45.4309,81.6086 47.5976,77.6086 49.5,73.5C 50.69,71.1307 52.3567,69.1307 54.5,67.5 Z"/></g>
<g><path style="opacity:1" fill="#216ace" d="M 86.5,75.5 C 86.3153,80.2059 84.3153,83.8726 80.5,86.5C 80.5,85.5 80.5,84.5 80.5,83.5C 79.5,83.5 78.5,83.5 77.5,83.5C 79.8907,81.3852 81.2241,78.7186 81.5,75.5C 81.8333,75.5 82.1667,75.5 82.5,75.5C 84.0266,71.7874 85.0266,67.7874 85.5,63.5C 86.4909,67.4454 86.8242,71.4454 86.5,75.5 Z"/></g>
<g><path style="opacity:1" fill="#1a67da" d="M 77.5,80.5 C 76.1979,82.8218 74.1979,84.1551 71.5,84.5C 65.0738,85.12 59.0738,84.4533 53.5,82.5C 57.125,81.9375 60.625,80.9375 64,79.5C 68.6551,80.3635 73.1551,80.6969 77.5,80.5 Z"/></g>
<g><path style="opacity:0.008" fill="#07062a" d="M 3.5,79.5 C 4.16667,79.8333 4.83333,80.1667 5.5,80.5C 9.78115,88.3108 16.4478,91.9775 25.5,91.5C 26.8333,91.5 28.1667,91.5 29.5,91.5C 29.5,91.8333 29.5,92.1667 29.5,92.5C 25.1667,92.5 20.8333,92.5 16.5,92.5C 11.7677,91.2898 7.93433,88.6232 5,84.5C 3.99136,82.9751 3.49136,81.3084 3.5,79.5 Z"/></g>
<g><path style="opacity:1" fill="#1e63d0" d="M 4.5,73.5 C 5.4959,73.4142 6.32924,73.7476 7,74.5C 8.27543,76.7173 9.27543,79.0506 10,81.5C 10.6708,82.2524 11.5041,82.5858 12.5,82.5C 13.391,83.1098 14.391,83.4431 15.5,83.5C 16.7682,85.047 18.4348,86.047 20.5,86.5C 22.9479,87.4731 25.6146,87.8064 28.5,87.5C 28.5,88.5 28.5,89.5 28.5,90.5C 27.209,90.2627 26.209,90.596 25.5,91.5C 16.4478,91.9775 9.78115,88.3108 5.5,80.5C 5.67158,79.5084 5.33825,78.8417 4.5,78.5C 4.5,76.8333 4.5,75.1667 4.5,73.5 Z"/></g>
<g><path style="opacity:1" fill="#1f65c2" d="M 59.5,66.5 C 59.5,67.5 59.5,68.5 59.5,69.5C 58.548,70.452 57.548,71.452 56.5,72.5C 57.8146,74.1986 57.8146,75.8653 56.5,77.5C 54.2729,78.4006 53.2729,80.0672 53.5,82.5C 59.0738,84.4533 65.0738,85.12 71.5,84.5C 71.5,84.8333 71.5,85.1667 71.5,85.5C 64.8002,85.83 58.1335,85.4967 51.5,84.5C 52.4997,79.5946 53.833,74.928 55.5,70.5C 55.1667,67.5 56.5,66.1667 59.5,66.5 Z"/></g>
<g><path style="opacity:1" fill="#b1ebfe" d="M 15.5,83.5 C 20.3409,85.1517 25.3409,85.8183 30.5,85.5C 30.5,86.1667 30.1667,86.5 29.5,86.5C 26.5,86.5 23.5,86.5 20.5,86.5C 18.4348,86.047 16.7682,85.047 15.5,83.5 Z"/></g>
<g><path style="opacity:1" fill="#1f61ca" d="M 77.5,83.5 C 78.5,83.5 79.5,83.5 80.5,83.5C 80.5,84.5 80.5,85.5 80.5,86.5C 80.5,86.8333 80.5,87.1667 80.5,87.5C 78.6316,88.2632 76.9649,89.2632 75.5,90.5C 65.8333,90.5 56.1667,90.5 46.5,90.5C 46.5,89.5 46.5,88.5 46.5,87.5C 55.0168,87.8261 63.3501,87.4927 71.5,86.5C 71.5,86.1667 71.5,85.8333 71.5,85.5C 73.7028,85.3964 75.7028,84.7298 77.5,83.5 Z"/></g>
<g><path style="opacity:0.694" fill="#295290" d="M 20.5,86.5 C 23.5,86.5 26.5,86.5 29.5,86.5C 29.5,87.8333 29.5,89.1667 29.5,90.5C 29.5,90.8333 29.5,91.1667 29.5,91.5C 28.1667,91.5 26.8333,91.5 25.5,91.5C 26.209,90.596 27.209,90.2627 28.5,90.5C 28.5,89.5 28.5,88.5 28.5,87.5C 25.6146,87.8064 22.9479,87.4731 20.5,86.5 Z"/></g>
<g><path style="opacity:0.639" fill="#23529e" d="M 45.5,86.5 C 54.1667,86.5 62.8333,86.5 71.5,86.5C 63.3501,87.4927 55.0168,87.8261 46.5,87.5C 46.5,88.5 46.5,89.5 46.5,90.5C 56.1667,90.5 65.8333,90.5 75.5,90.5C 66.3483,91.4936 57.015,91.8269 47.5,91.5C 46.8333,91.5 46.1667,91.5 45.5,91.5C 44.1667,89.8333 44.1667,88.1667 45.5,86.5 Z"/></g>
<g><path style="opacity:0.008" fill="#060423" d="M 85.5,84.5 C 83.4987,89.3443 79.8321,92.011 74.5,92.5C 65.3178,92.8266 56.3178,92.4933 47.5,91.5C 57.015,91.8269 66.3483,91.4936 75.5,90.5C 76.9649,89.2632 78.6316,88.2632 80.5,87.5C 82.4113,86.925 84.078,85.925 85.5,84.5 Z"/></g>
<g><path style="opacity:0.065" fill="#020209" d="M 43.5,91.5 C 44.1667,91.5 44.8333,91.5 45.5,91.5C 46.1667,91.5 46.8333,91.5 47.5,91.5C 56.3178,92.4933 65.3178,92.8266 74.5,92.5C 64.7278,94.1638 54.7278,94.9971 44.5,95C 42.9586,96.3712 41.6253,97.8712 40.5,99.5C 38.5,99.5 36.5,99.5 34.5,99.5C 32.6838,97.8634 30.6838,96.3634 28.5,95C 24.3007,94.4723 20.3007,93.6389 16.5,92.5C 20.8333,92.5 25.1667,92.5 29.5,92.5C 32.5311,95.5656 36.1977,96.7322 40.5,96C 41.8825,94.7292 42.8825,93.2292 43.5,91.5 Z"/></g>
<g><path style="opacity:0.455" fill="#21232b" d="M 35.5,87.5 C 35.5,88.5 35.5,89.5 35.5,90.5C 37.5648,90.5172 39.5648,90.8505 41.5,91.5C 42.1667,91.5 42.8333,91.5 43.5,91.5C 42.8825,93.2292 41.8825,94.7292 40.5,96C 36.1977,96.7322 32.5311,95.5656 29.5,92.5C 29.5,92.1667 29.5,91.8333 29.5,91.5C 29.5,91.1667 29.5,90.8333 29.5,90.5C 30.9287,88.0554 32.7621,85.7221 35,83.5C 35.49,84.7932 35.6567,86.1266 35.5,87.5 Z"/></g>
</svg>
