<?xml version="1.0" encoding="UTF-8"?>
<!DOCTYPE svg PUBLIC "-//W3C//DTD SVG 1.1//EN" "http://www.w3.org/Graphics/SVG/1.1/DTD/svg11.dtd">
<svg xmlns="http://www.w3.org/2000/svg" version="1.1" width="100px" height="100px" style="shape-rendering:geometricPrecision; text-rendering:geometricPrecision; image-rendering:optimizeQuality; fill-rule:evenodd; clip-rule:evenodd" xmlns:xlink="http://www.w3.org/1999/xlink">
<g><path style="opacity:0.981" fill="#fa338c" d="M 11.5,-0.5 C 16.1667,-0.5 20.8333,-0.5 25.5,-0.5C 30.921,3.63003 35.921,8.2967 40.5,13.5C 40.5,14.8333 40.5,16.1667 40.5,17.5C 33.3134,17.1755 26.3134,17.5088 19.5,18.5C 18.5084,25.6476 18.175,32.9809 18.5,40.5C 18.1667,40.5 17.8333,40.5 17.5,40.5C 9.88394,36.8784 3.88394,31.545 -0.5,24.5C -0.5,20.1667 -0.5,15.8333 -0.5,11.5C 0.97576,9.23138 2.47576,6.89805 4,4.5C 6.47945,2.68589 8.97945,1.01922 11.5,-0.5 Z"/></g>
<g><path style="opacity:0.981" fill="#14afee" d="M 74.5,-0.5 C 78.8333,-0.5 83.1667,-0.5 87.5,-0.5C 89.2726,0.892318 91.2726,2.05898 93.5,3C 95.6394,5.47841 97.6394,7.97841 99.5,10.5C 99.5,15.1667 99.5,19.8333 99.5,24.5C 94.2404,31.7634 88.2404,38.4301 81.5,44.5C 80.507,36.0161 80.1736,27.3494 80.5,18.5C 71.5,18.5 62.5,18.5 53.5,18.5C 53.5,18.1667 53.5,17.8333 53.5,17.5C 59.9111,10.7512 66.9111,4.75118 74.5,-0.5 Z"/></g>
<g><path style="opacity:1" fill="#c04887" d="M 40.5,13.5 C 41.8333,14.8333 43.1667,16.1667 44.5,17.5C 44.5,18.1667 44.1667,18.5 43.5,18.5C 35.5,18.5 27.5,18.5 19.5,18.5C 26.3134,17.5088 33.3134,17.1755 40.5,17.5C 40.5,16.1667 40.5,14.8333 40.5,13.5 Z"/></g>
<g><path style="opacity:0.995" fill="#030304" d="M 44.5,17.5 C 47.5,17.5 50.5,17.5 53.5,17.5C 53.5,17.8333 53.5,18.1667 53.5,18.5C 61.9839,19.493 70.6506,19.8264 79.5,19.5C 78.8636,28.5645 79.5302,37.2312 81.5,45.5C 81.5,48.1667 81.5,50.8333 81.5,53.5C 81.1667,53.5 80.8333,53.5 80.5,53.5C 79.507,61.9839 79.1736,70.6506 79.5,79.5C 72.5,79.5 65.5,79.5 58.5,79.5C 45.5,79.5 32.5,79.5 19.5,79.5C 19.8264,70.6506 19.493,61.9839 18.5,53.5C 18.7373,52.209 18.404,51.209 17.5,50.5C 17.5,47.1667 17.5,43.8333 17.5,40.5C 17.8333,40.5 18.1667,40.5 18.5,40.5C 19.4912,33.6866 19.8245,26.6866 19.5,19.5C 27.6841,19.8257 35.6841,19.4924 43.5,18.5C 44.1667,18.5 44.5,18.1667 44.5,17.5 Z"/></g>
<g><path style="opacity:1" fill="#002c47" d="M 53.5,18.5 C 62.5,18.5 71.5,18.5 80.5,18.5C 80.1736,27.3494 80.507,36.0161 81.5,44.5C 81.5,44.8333 81.5,45.1667 81.5,45.5C 79.5302,37.2312 78.8636,28.5645 79.5,19.5C 70.6506,19.8264 61.9839,19.493 53.5,18.5 Z"/></g>
<g><path style="opacity:1" fill="#4e0027" d="M 19.5,18.5 C 27.5,18.5 35.5,18.5 43.5,18.5C 35.6841,19.4924 27.6841,19.8257 19.5,19.5C 19.8245,26.6866 19.4912,33.6866 18.5,40.5C 18.175,32.9809 18.5084,25.6476 19.5,18.5 Z"/></g>
<g><path style="opacity:1" fill="#acabab" d="M 64.5,32.5 C 66.6074,31.5318 68.9407,31.1984 71.5,31.5C 71.5,30.1667 71.5,28.8333 71.5,27.5C 64.8333,27.5 58.1667,27.5 51.5,27.5C 51.5,28.8333 51.5,30.1667 51.5,31.5C 50.5489,30.0813 50.2155,28.4147 50.5,26.5C 57.8333,26.5 65.1667,26.5 72.5,26.5C 72.5,28.5 72.5,30.5 72.5,32.5C 69.8333,32.5 67.1667,32.5 64.5,32.5 Z"/></g>
<g><path style="opacity:1" fill="#eeeeed" d="M 24.5,26.5 C 26.5273,26.3379 28.5273,26.5045 30.5,27C 31.9494,30.273 33.9494,33.1063 36.5,35.5C 39.0506,33.1063 41.0506,30.273 42.5,27C 44.5787,26.1923 46.5787,26.359 48.5,27.5C 45.6667,31.8333 42.8333,36.1667 40,40.5C 39.5012,44.4862 39.3345,48.4862 39.5,52.5C 37.5,52.5 35.5,52.5 33.5,52.5C 33.6653,48.8183 33.4986,45.1516 33,41.5C 29.6365,36.7699 26.8032,31.7699 24.5,26.5 Z"/></g>
<g><path style="opacity:1" fill="#fafafa" d="M 64.5,32.5 C 64.5,39.1667 64.5,45.8333 64.5,52.5C 62.8333,52.5 61.1667,52.5 59.5,52.5C 59.5,45.5 59.5,38.5 59.5,31.5C 56.8333,31.5 54.1667,31.5 51.5,31.5C 51.5,30.1667 51.5,28.8333 51.5,27.5C 58.1667,27.5 64.8333,27.5 71.5,27.5C 71.5,28.8333 71.5,30.1667 71.5,31.5C 68.9407,31.1984 66.6074,31.5318 64.5,32.5 Z"/></g>
<g><path style="opacity:1" fill="#9b9b9b" d="M 51.5,31.5 C 54.1667,31.5 56.8333,31.5 59.5,31.5C 59.5,38.5 59.5,45.5 59.5,52.5C 58.5093,46.021 58.176,39.3543 58.5,32.5C 55.9407,32.8016 53.6074,32.4682 51.5,31.5 Z"/></g>
<g><path style="opacity:1" fill="#0d1449" d="M 18.5,53.5 C 19.493,61.9839 19.8264,70.6506 19.5,79.5C 32.5,79.5 45.5,79.5 58.5,79.5C 58.5,79.8333 58.5,80.1667 58.5,80.5C 53.5,80.5 48.5,80.5 43.5,80.5C 35.5,80.5 27.5,80.5 19.5,80.5C 18.5067,71.6822 18.1734,62.6822 18.5,53.5 Z"/></g>
<g><path style="opacity:1" fill="#eeeeef" d="M 24.5,68.5 C 32.1667,68.5 39.8333,68.5 47.5,68.5C 47.5,69.8333 47.5,71.1667 47.5,72.5C 39.8333,72.5 32.1667,72.5 24.5,72.5C 24.5,71.1667 24.5,69.8333 24.5,68.5 Z"/></g>
<g><path style="opacity:0.961" fill="#14afec" d="M 80.5,53.5 C 80.8333,53.5 81.1667,53.5 81.5,53.5C 87.5263,59.1945 93.5263,64.8612 99.5,70.5C 99.5,74.5 99.5,78.5 99.5,82.5C 93.5341,88.4927 86.2008,91.1594 77.5,90.5C 75.5,90.5 73.5,90.5 71.5,90.5C 71.2606,88.5328 71.5939,86.6995 72.5,85C 74.6565,84.9219 76.6565,84.7552 78.5,84.5C 75.7875,83.7719 73.1209,82.9385 70.5,82C 73.6946,81.8195 76.6946,81.3195 79.5,80.5C 80.4933,71.6822 80.8266,62.6822 80.5,53.5 Z"/></g>
<g><path style="opacity:0.972" fill="#8b5ff9" d="M 3.5,64.5 C 3.28099,65.675 3.61432,66.675 4.5,67.5C 5.42549,66.3595 6.25883,66.3595 7,67.5C 9.17051,71.8441 11.8372,75.8441 15,79.5C 15.2098,80.8029 15.0431,82.1362 14.5,83.5C 15.3301,85.8284 16.1634,88.1617 17,90.5C 21.6049,91.7015 23.7716,94.7015 23.5,99.5C 20.1667,99.5 16.8333,99.5 13.5,99.5C 7.16667,96.5 2.5,91.8333 -0.5,85.5C -0.5,80.1667 -0.5,74.8333 -0.5,69.5C 0.593015,67.6508 1.92635,65.9842 3.5,64.5 Z"/></g>
<g><path style="opacity:1" fill="#002c48" d="M 80.5,53.5 C 80.8266,62.6822 80.4933,71.6822 79.5,80.5C 72.5,80.5 65.5,80.5 58.5,80.5C 58.5,80.1667 58.5,79.8333 58.5,79.5C 65.5,79.5 72.5,79.5 79.5,79.5C 79.1736,70.6506 79.507,61.9839 80.5,53.5 Z"/></g>
<g><path style="opacity:1" fill="#7b69f8" d="M 6.5,60.5 C 9.78453,61.9498 12.2845,64.2832 14,67.5C 15.4717,71.7205 16.4717,76.0539 17,80.5C 19.6338,82.5585 22.1338,84.7252 24.5,87C 23.5494,87.7175 23.3828,88.5509 24,89.5C 28.1439,91.1338 29.9772,94.1338 29.5,98.5C 29.5,98.8333 29.5,99.1667 29.5,99.5C 27.5,99.5 25.5,99.5 23.5,99.5C 23.7716,94.7015 21.6049,91.7015 17,90.5C 16.1634,88.1617 15.3301,85.8284 14.5,83.5C 15.0431,82.1362 15.2098,80.8029 15,79.5C 11.8372,75.8441 9.17051,71.8441 7,67.5C 6.25883,66.3595 5.42549,66.3595 4.5,67.5C 3.61432,66.675 3.28099,65.675 3.5,64.5C 3.73758,62.5956 4.73758,61.2623 6.5,60.5 Z"/></g>
<g><path style="opacity:1" fill="#6c73f1" d="M 17.5,50.5 C 18.404,51.209 18.7373,52.209 18.5,53.5C 18.1734,62.6822 18.5067,71.6822 19.5,80.5C 22.977,81.3227 26.6437,81.8227 30.5,82C 33.2551,83.9532 36.2551,85.1199 39.5,85.5C 39.5,88.8333 39.5,92.1667 39.5,95.5C 37.5168,95.1568 36.1834,95.8235 35.5,97.5C 33.6208,98.3414 31.6208,98.6747 29.5,98.5C 29.9772,94.1338 28.1439,91.1338 24,89.5C 23.3828,88.5509 23.5494,87.7175 24.5,87C 22.1338,84.7252 19.6338,82.5585 17,80.5C 16.4717,76.0539 15.4717,71.7205 14,67.5C 12.2845,64.2832 9.78453,61.9498 6.5,60.5C 10.1408,57.1951 13.8075,53.8617 17.5,50.5 Z"/></g>
<g><path style="opacity:1" fill="#3497f2" d="M 43.5,81.5 C 48.5658,81.3399 53.5658,81.8399 58.5,83C 57.3463,83.9138 57.513,84.7471 59,85.5C 59.4974,88.146 59.6641,90.8127 59.5,93.5C 55.6403,94.8042 51.6403,95.4709 47.5,95.5C 48.6085,94.71 49.9419,94.21 51.5,94C 51.7157,90.2173 51.0491,86.384 49.5,82.5C 47.2646,82.7947 45.2646,82.4614 43.5,81.5 Z"/></g>
<g><path style="opacity:1" fill="#26a3e6" d="M 43.5,81.5 C 43.5,81.1667 43.5,80.8333 43.5,80.5C 48.5,80.5 53.5,80.5 58.5,80.5C 65.5,80.5 72.5,80.5 79.5,80.5C 76.6946,81.3195 73.6946,81.8195 70.5,82C 73.1209,82.9385 75.7875,83.7719 78.5,84.5C 76.6565,84.7552 74.6565,84.9219 72.5,85C 71.5939,86.6995 71.2606,88.5328 71.5,90.5C 73.5,90.5 75.5,90.5 77.5,90.5C 71.6736,91.7797 65.6736,92.7797 59.5,93.5C 59.6641,90.8127 59.4974,88.146 59,85.5C 57.513,84.7471 57.3463,83.9138 58.5,83C 53.5658,81.8399 48.5658,81.3399 43.5,81.5 Z"/></g>
<g><path style="opacity:1" fill="#5285ec" d="M 19.5,80.5 C 27.5,80.5 35.5,80.5 43.5,80.5C 43.5,80.8333 43.5,81.1667 43.5,81.5C 45.2646,82.4614 47.2646,82.7947 49.5,82.5C 51.0491,86.384 51.7157,90.2173 51.5,94C 49.9419,94.21 48.6085,94.71 47.5,95.5C 43.6403,96.8042 39.6403,97.4709 35.5,97.5C 36.1834,95.8235 37.5168,95.1568 39.5,95.5C 39.5,92.1667 39.5,88.8333 39.5,85.5C 36.2551,85.1199 33.2551,83.9532 30.5,82C 26.6437,81.8227 22.977,81.3227 19.5,80.5 Z"/></g>
</svg>
