<?xml version="1.0" encoding="UTF-8"?>
<!DOCTYPE svg PUBLIC "-//W3C//DTD SVG 1.1//EN" "http://www.w3.org/Graphics/SVG/1.1/DTD/svg11.dtd">
<svg xmlns="http://www.w3.org/2000/svg" version="1.1" width="100px" height="100px" style="shape-rendering:geometricPrecision; text-rendering:geometricPrecision; image-rendering:optimizeQuality; fill-rule:evenodd; clip-rule:evenodd" xmlns:xlink="http://www.w3.org/1999/xlink">
<g><path style="opacity:0.818" fill="#000000" d="M 99.5,10.5 C 99.5,39.5 99.5,68.5 99.5,97.5C 97.8333,97.5 96.1667,97.5 94.5,97.5C 94.5,93.1667 94.5,88.8333 94.5,84.5C 93.1667,84.5 91.8333,84.5 90.5,84.5C 90.5,88.8333 90.5,93.1667 90.5,97.5C 86.1694,98.5489 84.0027,96.8822 84,92.5C 83.7265,94.3289 82.8932,95.8289 81.5,97C 78.5,97.6667 75.5,97.6667 72.5,97C 71.3333,96.5 70.5,95.6667 70,94.5C 69.3076,95.0253 68.8076,95.6919 68.5,96.5C 63.8804,97.4933 59.2137,97.8266 54.5,97.5C 54.3347,93.8183 54.5014,90.1516 55,86.5C 57.1372,81.9162 58.9705,77.2495 60.5,72.5C 55.337,72.8932 53.6703,70.7266 55.5,66C 59.5,65.3333 63.5,65.3333 67.5,66C 68.1078,67.231 68.4411,68.5643 68.5,70C 65.9359,76.7574 63.6026,83.5907 61.5,90.5C 63.5273,90.3379 65.5273,90.5045 67.5,91C 68.1258,91.7504 68.6258,92.5838 69,93.5C 69.3333,91.1667 69.6667,88.8333 70,86.5C 74.152,84.5081 75.9854,85.8415 75.5,90.5C 76.5,90.5 77.5,90.5 78.5,90.5C 77.8401,85.9789 75.3401,82.6456 71,80.5C 67.1872,68.9939 71.0205,64.4939 82.5,67C 83.1258,67.7504 83.6258,68.5838 84,69.5C 84.8686,66.6059 86.7019,65.4392 89.5,66C 90.4637,70.0659 90.797,74.2325 90.5,78.5C 91.8333,78.5 93.1667,78.5 94.5,78.5C 94.5,60.8333 94.5,43.1667 94.5,25.5C 64.8333,25.5 35.1667,25.5 5.5,25.5C 5.02364,45.9254 5.52364,66.2587 7,86.5C 8.21398,88.0488 9.71398,89.2155 11.5,90C 24.5,90.3333 37.5,90.6667 50.5,91C 52.6201,92.5227 52.9535,94.3561 51.5,96.5C 37.5119,97.6661 23.5119,97.8328 9.5,97C 5.36188,95.0221 2.02855,92.1888 -0.5,88.5C -0.5,62.5 -0.5,36.5 -0.5,10.5C 1.64111,7.52821 4.30777,5.02821 7.5,3C 35.5,2.33333 63.5,2.33333 91.5,3C 94.6922,5.02821 97.3589,7.52821 99.5,10.5 Z M 11.5,8.5 C 36.8355,8.33336 62.1689,8.50003 87.5,9C 92.0036,11.0116 94.337,14.5116 94.5,19.5C 64.8333,19.5 35.1667,19.5 5.5,19.5C 5.171,14.4866 7.171,10.82 11.5,8.5 Z M 12.5,35.5 C 13.0768,34.2267 13.7435,34.2267 14.5,35.5C 14.0302,36.463 13.3635,36.463 12.5,35.5 Z M 20.5,46.5 C 21.2506,45.4265 22.2506,45.2599 23.5,46C 22.6477,47.7284 21.6477,47.895 20.5,46.5 Z M 76.5,71.5 C 78.1852,72.1837 79.1852,73.517 79.5,75.5C 81.0064,76.7472 82.5064,76.7472 84,75.5C 84.6667,78.1667 84.6667,80.8333 84,83.5C 83.6905,82.2341 83.1905,81.0674 82.5,80C 76.9562,79.3312 74.9562,76.4978 76.5,71.5 Z"/></g>
<g><path style="opacity:0.392" fill="#d56235" d="M 26.5,32.5 C 26.5,31.1667 25.8333,30.5 24.5,30.5C 25.7252,27.8494 26.7252,28.0161 27.5,31C 27.4301,31.7648 27.0967,32.2648 26.5,32.5 Z"/></g>
<g><path style="opacity:0.91" fill="#e45f27" d="M 24.5,30.5 C 25.8333,30.5 26.5,31.1667 26.5,32.5C 25.4884,33.8717 24.4884,35.205 23.5,36.5C 23.1667,35.5 22.5,34.8333 21.5,34.5C 21.7376,32.5956 22.7376,31.2623 24.5,30.5 Z"/></g>
<g><path style="opacity:0.69" fill="#ee5c28" d="M 21.5,34.5 C 22.5,34.8333 23.1667,35.5 23.5,36.5C 22.7101,37.7942 21.7101,38.9609 20.5,40C 27.9422,41.5855 29.2755,45.2522 24.5,51C 19.6395,52.3189 16.8061,50.4856 16,45.5C 14.2854,47.7594 12.4521,49.9261 10.5,52C 8.33333,52.5 7.5,51.6667 8,49.5C 10.128,46.3699 12.628,43.5366 15.5,41C 9.54194,41.0437 7.37527,38.2104 9,32.5C 14.0568,27.9152 17.7235,28.9152 20,35.5C 20.3826,34.944 20.8826,34.6107 21.5,34.5 Z M 12.5,35.5 C 13.3635,36.463 14.0302,36.463 14.5,35.5C 13.7435,34.2267 13.0768,34.2267 12.5,35.5 Z M 20.5,46.5 C 21.6477,47.895 22.6477,47.7284 23.5,46C 22.2506,45.2599 21.2506,45.4265 20.5,46.5 Z"/></g>
<g><path style="opacity:0.917" fill="#e85d2a" d="M 32.5,48.5 C 37.6186,47.8969 42.2853,48.5636 46.5,50.5C 41.3814,51.1031 36.7147,50.4364 32.5,48.5 Z"/></g>
<g><path style="opacity:0.421" fill="#ce663f" d="M 32.5,48.5 C 36.7147,50.4364 41.3814,51.1031 46.5,50.5C 41.6946,51.4872 36.6946,51.8205 31.5,51.5C 31.2627,50.209 31.596,49.209 32.5,48.5 Z"/></g>
</svg>
